<?xml version="1.0" encoding="UTF-8" standalone="no"?>
<svg
   xmlns:dc="http://purl.org/dc/elements/1.1/"
   xmlns:cc="http://creativecommons.org/ns#"
   xmlns:rdf="http://www.w3.org/1999/02/22-rdf-syntax-ns#"
   xmlns:svg="http://www.w3.org/2000/svg"
   xmlns="http://www.w3.org/2000/svg"
   xmlns:sodipodi="http://sodipodi.sourceforge.net/DTD/sodipodi-0.dtd"
   xmlns:inkscape="http://www.inkscape.org/namespaces/inkscape"
   version="1.0"
   width="580"
   height="580"
   id="svg2"
   inkscape:version="0.48.4 r9939"
   sodipodi:docname="coniferous.svg">
  <sodipodi:namedview
     pagecolor="#ffffff"
     bordercolor="#666666"
     borderopacity="1"
     objecttolerance="10"
     gridtolerance="10"
     guidetolerance="10"
     inkscape:pageopacity="0"
     inkscape:pageshadow="2"
     inkscape:window-width="1920"
     inkscape:window-height="1018"
     id="namedview19"
     showgrid="false"
     inkscape:zoom="0.45344828"
     inkscape:cx="-132.31939"
     inkscape:cy="290"
     inkscape:window-x="-8"
     inkscape:window-y="-8"
     inkscape:window-maximized="1"
     inkscape:current-layer="svg2" />
  <metadata
     id="metadata2975">
    <rdf:RDF>
      <cc:Work
         rdf:about="">
        <dc:format>image/svg+xml</dc:format>
        <dc:type
           rdf:resource="http://purl.org/dc/dcmitype/StillImage" />
      </cc:Work>
    </rdf:RDF>
  </metadata>
  <defs
     id="defs4">
    <symbol
       id="symbol-university"
       viewBox="244.5 110 489 219.9">
      <path
         d="M79,43l57,119c0,0,21-96,104-96s124,106,124,106l43-133l82-17L0,17L79,43z"
         id="path4460" />
      <path
         fill="none"
         stroke="#000000"
         stroke-width="20"
         d="M94,176l-21,39"
         id="path4462" />
      <path
         d="M300,19c0,10.5-22.6,19-50.5,19S199,29.5,199,19s22.6-19,50.5-19S300,8.5,300,19z"
         id="path4464" />
      <path
         ill="none"
         stroke="#000000"
         stroke-width="20"
         d="M112,216l-16-38L64,88c0,0-9-8-4-35s16-24,16-24"
         id="path4466" />
    </symbol>
    <symbol
       viewBox="244.5 110 489 219.9"
       id="symbol9807">
      <path
         id="path9809"
         d="M79,43l57,119c0,0,21-96,104-96s124,106,124,106l43-133l82-17L0,17L79,43z" />
      <path
         id="path9811"
         d="M94,176l-21,39"
         stroke-width="20"
         stroke="#000000"
         fill="none" />
      <path
         id="path9813"
         d="M300,19c0,10.5-22.6,19-50.5,19S199,29.5,199,19s22.6-19,50.5-19S300,8.5,300,19z" />
      <path
         id="path9815"
         d="M112,216l-16-38L64,88c0,0-9-8-4-35s16-24,16-24"
         stroke-width="20"
         stroke="#000000"
         ill="none" />
    </symbol>
  </defs>
  <path
     d="m 151.64728,294.05998 -44.44666,95.87969 14.78093,-4 -20.56964,32.27819 16.57742,-4 -23.497265,34.60698 46.176625,-6.91983 0,49.10424 10.97859,0 0,-196.94927 z m 0.13307,0 0,196.94927 10.97859,0 0,-49.10424 46.24316,6.91983 -23.49726,-34.60698 16.51089,4 -19.56964,-32.27819 13.84746,4 -44.5132,-95.87969 z"
     id="path8893"
     sodipodi:nodetypes="cccccccccccccccccccc"
     style="fill:#999999;fill-opacity:1;fill-rule:evenodd;stroke:#999999;stroke-width:2.12899995;stroke-linecap:round;stroke-linejoin:round;stroke-opacity:1"
     inkscape:connector-curvature="0" />
  <path
     d="m 438.75951,86.772512 -44.44666,95.879688 14.78093,-4 -20.56964,32.27819 16.57742,-4 -23.49726,34.60698 46.17662,-6.91983 0,49.10424 10.97859,0 0,-196.949268 z m 0.13307,0 0,196.949268 10.97859,0 0,-49.10424 46.24316,6.91983 -23.49726,-34.60698 16.51089,4 -19.56964,-32.27819 13.84746,4 -44.5132,-95.879688 z"
     id="path8893-1"
     sodipodi:nodetypes="cccccccccccccccccccc"
     style="fill:#999999;fill-opacity:1;fill-rule:evenodd;stroke:#999999;stroke-width:2.12899995;stroke-linecap:round;stroke-linejoin:round;stroke-opacity:1"
     inkscape:connector-curvature="0" />
</svg>
