<?xml version="1.0" encoding="UTF-8" standalone="no"?>
<svg xmlns="http://www.w3.org/2000/svg" xmlns:sodipodi="http://sodipodi.sourceforge.net/DTD/sodipodi-0.dtd" xmlns:inkscape="http://www.inkscape.org/namespaces/inkscape" version="1.0" width="580" height="580">
 <metadata id="metadata2975"/>
 <defs id="defs4">
  <symbol id="symbol-university" viewBox="244.5 110 489 219.9">
   <path d="M79,43l57,119c0,0,21-96,104-96s124,106,124,106l43-133l82-17L0,17L79,43z" id="path4460"/>
   <path fill="none" stroke="#000000" stroke-width="20" d="M94,176l-21,39" id="path4462"/>
   <path d="M300,19c0,10.5-22.6,19-50.5,19S199,29.5,199,19s22.6-19,50.5-19S300,8.5,300,19z" id="path4464"/>
   <path ill="none" stroke="#000000" stroke-width="20" d="M112,216l-16-38L64,88c0,0-9-8-4-35s16-24,16-24" id="path4466"/>
  </symbol>
  <symbol viewBox="244.5 110 489 219.9" id="symbol9807">
   <path id="path9809" d="M79,43l57,119c0,0,21-96,104-96s124,106,124,106l43-133l82-17L0,17L79,43z"/>
   <path id="path9811" d="M94,176l-21,39" stroke-width="20" stroke="#000000" fill="none"/>
   <path id="path9813" d="M300,19c0,10.5-22.6,19-50.5,19S199,29.5,199,19s22.6-19,50.5-19S300,8.5,300,19z"/>
   <path id="path9815" d="M112,216l-16-38L64,88c0,0-9-8-4-35s16-24,16-24" stroke-width="20" stroke="#000000" ill="none"/>
  </symbol>
 </defs>
 <path d="m 401.20072,107.52099 c -12.89249,-0.21792 -26.4631,6.91624 -29.20596,21.537 -1.16133,6.19036 -2.13136,8.18098 -9.45839,8.30804 -22.57124,0.39142 -32.17031,33.57097 -13.10114,49.20917 1.88949,1.54956 0.80099,2.89533 -5.56,7.73287 -32.37287,24.61961 2.48489,73.74553 35.59676,50.16779 4.84775,-3.4519 5.61647,-3.48967 6.71034,-0.63908 2.30895,6.01702 1.28278,34.9088 -1.5977,44.47997 l -2.87586,9.52229 17.31908,0 c 1.71459,0 2.57221,0.006 3.96229,0 1.40745,0.006 2.28396,0 4.0262,0 l 17.31908,0 -2.81195,-9.52229 c -2.88049,-9.57117 -3.97059,-38.46295 -1.66161,-44.47997 1.09387,-2.85059 1.86259,-2.81282 6.71034,0.63908 33.11187,23.57774 67.96963,-25.54818 35.59676,-50.16779 -6.36099,-4.83754 -7.77751,-6.8574 -5.49609,-7.73287 19.06917,-7.31754 8.85147,-45.48948 -13.16505,-49.20917 -7.22574,-1.22077 -8.23315,-2.11768 -9.39448,-8.30804 -2.87273,-15.31291 -17.65149,-22.36306 -31.05929,-21.40919 -0.61108,-0.0438 -1.23787,-0.1174 -1.85333,-0.12781 z" id="path9696" inkscape:connector-curvature="0" fill="#999999"/>
 <path d="m 171.45716,276.41739 -44.44666,95.87969 9.78092,0 -15.56963,28.27819 11.57742,0 -18.49726,30.60698 46.17662,-6.91983 0,49.10424 10.97859,0 0,-196.94927 z m 0.13307,0 0,196.94927 10.97859,0 0,-49.10424 46.24316,6.91983 -18.49726,-30.60698 11.51089,0 -15.56964,-28.27819 9.84746,0 -44.5132,-95.87969 z" id="path8893" sodipodi:nodetypes="cccccccccccccccccccc" inkscape:connector-curvature="0" fill="#999999" fill-rule="evenodd" stroke="#999999" stroke-linejoin="round" stroke-linecap="round" stroke-width="2.129"/>
</svg>
