<?xml version="1.0" encoding="UTF-8" standalone="no"?>
<svg xmlns="http://www.w3.org/2000/svg" xmlns:sodipodi="http://sodipodi.sourceforge.net/DTD/sodipodi-0.dtd" xmlns:inkscape="http://www.inkscape.org/namespaces/inkscape" version="1.0" width="580" height="580">
 <metadata id="metadata2975"/>
 <defs id="defs4">
  <symbol id="symbol-university" viewBox="244.5 110 489 219.9">
   <path d="M79,43l57,119c0,0,21-96,104-96s124,106,124,106l43-133l82-17L0,17L79,43z" id="path4460"/>
   <path fill="none" stroke="#000000" stroke-width="20" d="M94,176l-21,39" id="path4462"/>
   <path d="M300,19c0,10.5-22.6,19-50.5,19S199,29.5,199,19s22.6-19,50.5-19S300,8.5,300,19z" id="path4464"/>
   <path ill="none" stroke="#000000" stroke-width="20" d="M112,216l-16-38L64,88c0,0-9-8-4-35s16-24,16-24" id="path4466"/>
  </symbol>
  <symbol viewBox="244.5 110 489 219.9" id="symbol9807">
   <path id="path9809" d="M79,43l57,119c0,0,21-96,104-96s124,106,124,106l43-133l82-17L0,17L79,43z"/>
   <path id="path9811" d="M94,176l-21,39" stroke-width="20" stroke="#000000" fill="none"/>
   <path id="path9813" d="M300,19c0,10.5-22.6,19-50.5,19S199,29.5,199,19s22.6-19,50.5-19S300,8.5,300,19z"/>
   <path id="path9815" d="M112,216l-16-38L64,88c0,0-9-8-4-35s16-24,16-24" stroke-width="20" stroke="#000000" ill="none"/>
  </symbol>
 </defs>
 <path inkscape:connector-curvature="0" id="path8893-1-1" d="m 151.49813,293.8417 -44.4375,95.875 -0.34375,0.71875 0.78125,0 8.9375,0 -15.15625,27.53125 -0.40625,0.71875 0.84375,0 10.71875,0 -18.062502,29.875 -0.5625,0.90625 1.0625,-0.15625 45.593752,-6.84375 0,48.53125 0,0.5 0.5,0 10.625,0 0.375,0 0.125,0 0.375,0 10.59375,0 0.5,0 0,-0.5 0,-48.53125 45.6875,6.84375 1.03125,0.15625 -0.53125,-0.90625 -18.0625,-29.875 10.625,0 0.84375,0 -0.40625,-0.71875 -15.15625,-27.53125 9,0 0.78125,0 -0.3125,-0.71875 -44.53125,-95.875 -0.5,0.0937 -0.53125,-0.0937 z m -0.0312,2.4375 0,194.21875 -10,0 0,-48.625 0,-0.5625 -0.5625,0.0937 -45.125002,6.75 17.937502,-29.6875 0.46875,-0.78125 -0.875,0 -10.75,0 15.15625,-27.53125 0.40625,-0.71875 -0.84375,0 -9,0 43.1875,-93.15625 z m 1.125,0.0625 43.25,93.09375 -9.09375,0 -0.84375,0 0.40625,0.71875 15.15625,27.53125 -10.65625,0 -0.875,0 0.4375,0.78125 17.9375,29.6875 -45.15625,-6.75 -0.59375,-0.0937 0,0.5625 0,48.625 -9.96875,0 0,-194.15625 z m -0.63664,-2.30136 -44.44666,95.87969 9.78092,0 -15.56963,28.27819 11.57742,0 -18.497262,30.60698 46.176622,-6.91983 0,49.10424 10.97859,0 0,-196.94927 z m 0.13307,0 0,196.94927 10.97859,0 0,-49.10424 46.24316,6.91983 -18.49726,-30.60698 11.51089,0 -15.56964,-28.27819 9.84746,0 -44.5132,-95.87969 z" fill-opacity=".733" color="#000000" fill="#87b987"/>
 <path inkscape:connector-curvature="0" id="path8893-1-7" d="m 438.03409,87.423634 -44.4375,95.874996 -0.34375,0.71875 0.78125,0 8.9375,0 -15.15625,27.53125 -0.40625,0.71875 0.84375,0 10.71875,0 -18.0625,29.875 -0.5625,0.90625 1.0625,-0.15625 45.59375,-6.84375 0,48.53125 0,0.5 0.5,0 10.625,0 0.375,0 0.125,0 0.375,0 10.59375,0 0.5,0 0,-0.5 0,-48.53125 45.6875,6.84375 1.03125,0.15625 -0.53125,-0.90625 -18.0625,-29.875 10.625,0 0.84375,0 -0.40625,-0.71875 -15.15625,-27.53125 9,0 0.78125,0 -0.3125,-0.71875 -44.53125,-95.874996 -0.5,0.0937 -0.53125,-0.0937 z m -0.0312,2.4375 0,194.218746 -10,0 0,-48.625 0,-0.5625 -0.5625,0.0937 -45.125,6.75 17.9375,-29.6875 0.46875,-0.78125 -0.875,0 -10.75,0 15.15625,-27.53125 0.40625,-0.71875 -0.84375,0 -9,0 43.1875,-93.156246 z m 1.125,0.0625 43.25,93.093746 -9.09375,0 -0.84375,0 0.40625,0.71875 15.15625,27.53125 -10.65625,0 -0.875,0 0.4375,0.78125 17.9375,29.6875 -45.15625,-6.75 -0.59375,-0.0937 0,0.5625 0,48.625 -9.96875,0 0,-194.156246 z m -0.63664,-2.30136 -44.44666,95.879686 9.78092,0 -15.56963,28.27819 11.57742,0 -18.49726,30.60698 46.17662,-6.91983 0,49.10424 10.97859,0 0,-196.949266 z m 0.13307,0 0,196.949266 10.97859,0 0,-49.10424 46.24316,6.91983 -18.49726,-30.60698 11.51089,0 -15.56964,-28.27819 9.84746,0 -44.5132,-95.879686 z" fill-opacity=".733" color="#000000" fill="#87b987"/>
</svg>
