<?xml version="1.0" encoding="UTF-8" standalone="no"?>
<!-- Created with Inkscape (http://www.inkscape.org/) -->
<svg xmlns:rdf="http://www.w3.org/1999/02/22-rdf-syntax-ns#" xmlns="http://www.w3.org/2000/svg" height="128" width="128" version="1.1" xmlns:cc="http://creativecommons.org/ns#" xmlns:dc="http://purl.org/dc/elements/1.1/">
 <metadata>
  <rdf:RDF>
   <cc:Work rdf:about="">
    <dc:format>image/svg+xml</dc:format>
    <dc:type rdf:resource="http://purl.org/dc/dcmitype/StillImage"/>
    <dc:title/>
   </cc:Work>
  </rdf:RDF>
 </metadata>
 <g transform="translate(-311,-468.36218)">
  <rect style="enable-background:new;" transform="scale(-1,-1)" height="64" width="64" y="-596.4" x="-375" fill="#f7f5e5"/>
  <rect style="enable-background:new;" height="64" width="64" y="468.4" x="375" fill="#f7f5e5"/>
  <rect style="enable-background:new;" transform="matrix(0,1,-1,0,0,0)" height="64" width="64" y="-439" x="532.4" fill="#f7f5e5"/>
  <rect style="enable-background:new;" transform="matrix(0,-1,1,0,0,0)" height="64" width="64" y="311" x="-532.4" fill="#f7f5e5"/>
  <rect style="enable-background:new;" transform="scale(-1,-1)" height="4" width="64" y="-594.4" x="-375" fill="#efe9c9"/>
  <rect style="enable-background:new;" transform="scale(-1,-1)" height="4" width="64" y="-586.4" x="-375" fill="#efe9c9"/>
  <rect style="enable-background:new;" transform="scale(-1,-1)" height="4" width="64" y="-578.4" x="-375" fill="#efe9c9"/>
  <rect style="enable-background:new;" transform="scale(-1,-1)" height="4" width="64" y="-570.4" x="-375" fill="#efe9c9"/>
  <rect style="enable-background:new;" transform="scale(-1,-1)" height="4" width="64" y="-562.4" x="-375" fill="#efe9c9"/>
  <rect style="enable-background:new;" transform="scale(-1,-1)" height="4" width="64" y="-554.4" x="-375" fill="#efe9c9"/>
  <rect style="enable-background:new;" transform="scale(-1,-1)" height="4" width="64" y="-546.4" x="-375" fill="#efe9c9"/>
  <rect style="enable-background:new;" transform="scale(-1,-1)" height="4" width="64" y="-538.4" x="-375" fill="#efe9c9"/>
  <rect style="enable-background:new;" height="4" width="64" y="470.4" x="375" fill="#efe9c9"/>
  <rect style="enable-background:new;" height="4" width="64" y="478.4" x="375" fill="#efe9c9"/>
  <rect style="enable-background:new;" height="4" width="64" y="486.4" x="375" fill="#efe9c9"/>
  <rect style="enable-background:new;" height="4" width="64" y="494.4" x="375" fill="#efe9c9"/>
  <rect style="enable-background:new;" height="4" width="64" y="502.4" x="375" fill="#efe9c9"/>
  <rect style="enable-background:new;" height="4" width="64" y="510.4" x="375" fill="#efe9c9"/>
  <rect style="enable-background:new;" height="4" width="64" y="518.4" x="375" fill="#efe9c9"/>
  <rect style="enable-background:new;" height="4" width="64" y="526.4" x="375" fill="#efe9c9"/>
  <rect style="enable-background:new;" transform="matrix(0,1,-1,0,0,0)" height="4" width="64" y="-437" x="532.4" fill="#efe9c9"/>
  <rect style="enable-background:new;" transform="matrix(0,1,-1,0,0,0)" height="4" width="64" y="-429" x="532.4" fill="#efe9c9"/>
  <rect style="enable-background:new;" transform="matrix(0,1,-1,0,0,0)" height="4" width="64" y="-421" x="532.4" fill="#efe9c9"/>
  <rect style="enable-background:new;" transform="matrix(0,1,-1,0,0,0)" height="4" width="64" y="-413" x="532.4" fill="#efe9c9"/>
  <rect style="enable-background:new;" transform="matrix(0,1,-1,0,0,0)" height="4" width="64" y="-405" x="532.4" fill="#efe9c9"/>
  <rect style="enable-background:new;" transform="matrix(0,1,-1,0,0,0)" height="4" width="64" y="-397" x="532.4" fill="#efe9c9"/>
  <rect style="enable-background:new;" transform="matrix(0,1,-1,0,0,0)" height="4" width="64" y="-389" x="532.4" fill="#efe9c9"/>
  <rect style="enable-background:new;" transform="matrix(0,1,-1,0,0,0)" height="4" width="64" y="-381" x="532.4" fill="#efe9c9"/>
  <rect style="enable-background:new;" transform="matrix(0,-1,1,0,0,0)" height="4" width="64" y="313" x="-532.4" fill="#efe9c9"/>
  <rect style="enable-background:new;" transform="matrix(0,-1,1,0,0,0)" height="4" width="64" y="321" x="-532.4" fill="#efe9c9"/>
  <rect style="enable-background:new;" transform="matrix(0,-1,1,0,0,0)" height="4" width="64" y="329" x="-532.4" fill="#efe9c9"/>
  <rect style="enable-background:new;" transform="matrix(0,-1,1,0,0,0)" height="4" width="64" y="337" x="-532.4" fill="#efe9c9"/>
  <rect style="enable-background:new;" transform="matrix(0,-1,1,0,0,0)" height="4" width="64" y="345" x="-532.4" fill="#efe9c9"/>
  <rect style="enable-background:new;" transform="matrix(0,-1,1,0,0,0)" height="4" width="64" y="353" x="-532.4" fill="#efe9c9"/>
  <rect style="enable-background:new;" transform="matrix(0,-1,1,0,0,0)" height="4" width="64" y="361" x="-532.4" fill="#efe9c9"/>
  <rect style="enable-background:new;" transform="matrix(0,-1,1,0,0,0)" height="4" width="64" y="369" x="-532.4" fill="#efe9c9"/>
 </g>
</svg>
