<?xml version="1.0" encoding="UTF-8" standalone="no"?>
<svg xmlns="http://www.w3.org/2000/svg" xmlns:sodipodi="http://sodipodi.sourceforge.net/DTD/sodipodi-0.dtd" xmlns:inkscape="http://www.inkscape.org/namespaces/inkscape" version="1.0" width="580" height="580">
 <metadata id="metadata10"/>
 <path inkscape:connector-curvature="0" d="m 181.73921,194.70571 c -0.36208,-47.80432 1.03597,-56.4901 0.0356,-77.88187 -0.70547,-15.15612 -3.35673,-41.490921 0.14412,-39.682489 13.97763,7.21985 27.08725,184.465759 5.24773,184.465759 -7.57632,0 -9.08557,-18.58927 -5.43179,-66.9014 l 0.004,0 1e-5,0 z" id="path3683" sodipodi:nodetypes="csssccc" fill="#60b8ff"/>
 <path inkscape:connector-curvature="0" sodipodi:nodetypes="csssscccsssc" id="path3685" d="m 268.61521,245.51493 c 0,-8.85071 1.81377,-23.3155 7.5572,-39.2584 7.32509,-20.33329 22.5433,-25.46652 6.40886,-19.27518 -6.99753,2.68517 -18.97163,16.77542 -24.20646,31.79213 -11.82358,33.917 -9.98259,42.83363 1.34396,42.83363 4.89294,0 8.89626,-7.24146 8.89626,-16.09218 l 1.8e-4,0 z m -35.58505,-10.01745 c 0,-34.3596 8.12745,-55.66267 18.25122,-84.10944 10.42588,-29.29575 34.4997,-50.04067 11.69084,-31.16476 -33.48633,27.71221 -64.71212,141.38383 -38.83832,141.38383 4.89295,0 8.89626,-11.74929 8.89626,-26.10963 z" fill="#60b8ff"/>
 <path inkscape:connector-curvature="0" d="m 278.32812,317.3576 c -11.73052,0.48378 -23.69834,0.39217 -35.19543,2.76424 -2.88537,1.6697 -1.19132,6.25193 2.00331,6.17633 17.49808,4.03041 35.74826,2.75786 53.61207,2.74633 7.66155,-0.34655 15.65922,-0.50312 22.85408,-3.1995 2.85708,-1.90147 0.91299,-6.4662 -2.37491,-6.24875 -13.37358,-2.92705 -27.26954,-2.38486 -40.89912,-2.23865 z" id="path3687" fill="#60b8ff"/>
 <path inkscape:connector-curvature="0" d="m 101.122,245.51493 c 0,-8.85071 -1.813771,-23.3155 -7.557198,-39.2584 -7.32509,-20.33329 -22.543301,-25.46652 -6.408863,-19.27518 6.99753,2.68517 18.971631,16.77542 24.206461,31.79213 11.82357,33.917 9.98258,42.83363 -1.34396,42.83363 -4.89294,0 -8.89626,-7.24146 -8.89626,-16.09218 l -1.8e-4,0 z m 35.58505,-10.01745 c 0,-34.3596 -8.12745,-55.66267 -18.25122,-84.10944 -10.42588,-29.29575 -34.499697,-50.04067 -11.69084,-31.16476 33.48632,27.71221 64.71211,141.38383 38.83832,141.38383 -4.89295,0 -8.89626,-11.74929 -8.89626,-26.10963 z" id="path3689" sodipodi:nodetypes="csssscccsssc" fill="#60b8ff"/>
 <path inkscape:connector-curvature="0" d="m 223.76353,283.99202 c -28.7682,0.42228 -57.64822,0.51219 -86.31446,2.60851 -2.70507,0.43595 -4.05156,4.4494 -1.09012,5.58689 14.32727,3.21782 29.2919,2.53438 43.93539,3.29402 40.22877,0.85238 80.55721,1.25187 120.71225,-1.60044 2.83845,-0.56816 8.41438,-0.63035 7.80607,-4.71089 -1.96973,-3.87654 -7.56813,-2.5836 -11.0959,-3.34824 -24.59864,-1.90498 -49.29685,-1.88353 -73.95323,-1.82985 z" id="path3713" fill="#60b8ff"/>
</svg>
