<?xml version="1.0" encoding="UTF-8" standalone="no"?>
<svg xmlns="http://www.w3.org/2000/svg" xmlns:sodipodi="http://sodipodi.sourceforge.net/DTD/sodipodi-0.dtd" xmlns:inkscape="http://www.inkscape.org/namespaces/inkscape" version="1.0" width="580" height="580">
 <metadata id="metadata10"/>
 <g id="g1327">
  <path d="M 66.275,1.768 C 24.94,1.768 1.704,23.139 1.704,66.804 L 1.704,516.927 C 1.704,557.771 22.598,579.156 63.896,579.156 L 515.92,579.156 C 557.227,579.156 578.149,558.84 578.149,516.927 L 578.149,66.804 C 578.149,24.203 557.227,1.768 514.627,1.768 C 514.624,1.768 66.133,1.625 66.275,1.768 z" id="path1329" fill="#111111" stroke="#eeeeee" stroke-width="3.408"/>
 </g>
 <path d="M 96.374372,94.415061 156.93802,154.97876" id="path3831" sodipodi:nodetypes="cc" fill="none" stroke="#ffffff" stroke-linecap="round" stroke-width="80"/>
 <path id="path3833" d="M 479.85476,94.415061 419.29111,154.97876" sodipodi:nodetypes="cc" fill="none" stroke="#ffffff" stroke-linecap="round" stroke-width="80"/>
 <path id="path3837" d="m 96.374372,475.54806 60.563648,-60.5637" sodipodi:nodetypes="cc" fill="none" stroke="#ffffff" stroke-linecap="round" stroke-width="80"/>
 <path d="m 479.85476,475.54806 -60.56365,-60.5637" id="path3839" sodipodi:nodetypes="cc" fill="none" stroke="#ffffff" stroke-linecap="round" stroke-width="80"/>
 <path sodipodi:type="arc" id="path3852" sodipodi:cx="42.5" sodipodi:cy="1083.5" sodipodi:rx="45.5" sodipodi:ry="45.5" d="m 88,1083.5 a 45.5,45.5 0 1 1 -91,0 45.5,45.5 0 1 1 91,0 z" transform="matrix(3.754397,0,0,3.754397,129.09096,-3785.1688)" fill="none" stroke="#ffffff" stroke-linejoin="round" stroke-linecap="round" stroke-width="15.981"/>
 <path d="m 491.94531,288.67201 -22.2254,0" id="path3907" sodipodi:nodetypes="cc" fill="none" stroke="#ffffff" stroke-linecap="round" stroke-width="80"/>
 <path sodipodi:nodetypes="cc" id="path3909" d="m 109.94531,288.67201 -22.2254,0" fill="none" stroke="#ffffff" stroke-linecap="round" stroke-width="80"/>
 <path sodipodi:nodetypes="cc" id="path3911" d="m 290.83261,463.55931 0,22.2254" fill="none" stroke="#ffffff" stroke-linecap="round" stroke-width="80"/>
 <path d="m 290.83261,79.55931 0,22.2254" id="path3913" sodipodi:nodetypes="cc" fill="none" stroke="#ffffff" stroke-linecap="round" stroke-width="80"/>
 <path transform="matrix(3.754397,0,0,3.754397,129.09096,-3785.1688)" d="m 88,1083.5 a 45.5,45.5 0 1 1 -91,0 45.5,45.5 0 1 1 91,0 z" sodipodi:ry="45.5" sodipodi:rx="45.5" sodipodi:cy="1083.5" sodipodi:cx="42.5" id="path3921" sodipodi:type="arc" opacity=".1" fill="#ffffff" stroke="#ffffff" stroke-linejoin="round" stroke-linecap="round" stroke-width="15.981"/>
</svg>
