<?xml version="1.0" encoding="UTF-8" standalone="no"?>
<svg xmlns="http://www.w3.org/2000/svg" xmlns:sodipodi="http://sodipodi.sourceforge.net/DTD/sodipodi-0.dtd" xmlns:inkscape="http://www.inkscape.org/namespaces/inkscape" version="1.0" width="580" height="580">
 <metadata id="metadata10"/>
 <defs id="defs4">
  <marker viewBox="0 0 10 10" refY="5" refX="10" orient="auto" markerWidth="4" markerUnits="strokeWidth" markerHeight="3" id="ArrowStart">
   <path id="path2295" d="M 10 0 L 0 5 L 10 10 z"/>
  </marker>
  <marker viewBox="0 0 10 10" refY="5" orient="auto" markerWidth="4" markerUnits="strokeWidth" markerHeight="3" id="ArrowEnd">
   <path id="path2292" d="M 0 0 L 10 5 L 0 10 z"/>
  </marker>
 </defs>
 <g id="g1327">
  <path d="M 66.275,1.768 C 24.94,1.768 1.704,23.139 1.704,66.804 L 1.704,516.927 C 1.704,557.771 22.598,579.156 63.896,579.156 L 515.92,579.156 C 557.227,579.156 578.149,558.84 578.149,516.927 L 578.149,66.804 C 578.149,24.203 557.227,1.768 514.627,1.768 C 514.624,1.768 66.133,1.625 66.275,1.768 z" id="path1329" fill="#0092DA" stroke="#eeeeee" stroke-width="3.408"/>
 </g>
 <path d="M 145.35836,505.1504 L 145.35836,85.566299 L 303.63258,85.566299 C 331.49012,85.56672 352.76506,86.902366 367.45745,89.573248 C 388.06429,93.008179 405.33227,99.543305 419.26147,109.17864 C 433.19004,118.81477 444.39993,132.31434 452.89116,149.67738 C 461.38172,167.04114 465.62716,186.12179 465.62752,206.91942 C 465.62716,242.60054 454.27416,272.79568 431.56851,297.50493 C 408.8622,322.21458 367.83879,334.56932 308.49813,334.56915 L 200.88312,334.56915 L 200.88312,505.1504 L 145.35836,505.1504 z M 200.88312,285.05478 L 309.35678,285.05478 C 345.22821,285.05501 370.70087,278.37678 385.77488,265.02007 C 400.84831,251.66386 408.38518,232.8694 408.38548,208.63666 C 408.38518,191.08276 403.94894,176.05676 395.07671,163.55858 C 386.2039,151.06108 374.51701,142.80869 360.01596,138.8014 C 350.66619,136.32127 333.39819,135.08103 308.21194,135.08067 L 200.88312,135.08067 L 200.88312,285.05478 z" id="text2419" fill="#ffffff" stroke="#ffffff" stroke-linejoin="round" stroke-linecap="round" stroke-width="22.688"/>
</svg>
