<?xml version="1.0" encoding="UTF-8" standalone="no"?>
<svg xmlns:sodipodi="http://sodipodi.sourceforge.net/DTD/sodipodi-0.dtd" xmlns:inkscape="http://www.inkscape.org/namespaces/inkscape" version="1.0" width="580" height="580">
 <metadata id="metadata2975"/>
 <g id="g1327">
  <path d="M 66.275,1.768 C 24.94,1.768 1.704,23.139 1.704,66.804 l 0,450.123 c 0,40.844 20.894,62.229 62.192,62.229 l 452.024,0 c 41.307,0 62.229,-20.316 62.229,-62.229 l 0,-450.123 c 0,-42.601 -20.922,-65.036 -63.522,-65.036 -0.003,0 -448.494,-0.143 -448.352,0 z" id="path1329" inkscape:connector-curvature="0" fill="#734A08" stroke="#eeeeee" stroke-width="3.408"/>
 </g>
 <path d="m 468.232,97.93 -0.251,0 c 0.287,-0.248 0.445,-0.498 0.445,-0.75 0,-5.937 -81.067,-10.75 -181.07,-10.75 -100.002,0 -181.07,4.813 -181.07,10.75 0,0.252 0.158,0.502 0.446,0.75 l -0.446,0 160.474,148.535 0,168.073 -103.962,74.32 0.255,0 c -0.5,0.27 -0.765,0.544 -0.765,0.821 0,4.102 55.996,7.425 125.07,7.425 69.075,0 125.07,-3.323 125.07,-7.425 0,-0.277 -0.266,-0.552 -0.765,-0.821 l 0.06,0 -103.962,-74.32 0,-168.072 L 468.232,97.93 z m -175.71,119.639 c -2.895,2.679 -7.631,2.679 -10.526,0 l -77.535,-71.768 c -2.895,-2.679 -2.036,-4.872 1.909,-4.872 l 161.779,0 c 3.944,0 4.804,2.192 1.909,4.872 l -77.536,71.768 z" id="path2209" inkscape:connector-curvature="0" fill="#ffffff"/>
</svg>
