<?xml version="1.0" encoding="UTF-8" standalone="no"?>
<svg xmlns="http://www.w3.org/2000/svg" xmlns:sodipodi="http://sodipodi.sourceforge.net/DTD/sodipodi-0.dtd" xmlns:inkscape="http://www.inkscape.org/namespaces/inkscape" version="1.0" width="580" height="580">
 <metadata id="metadata2975"/>
 <defs id="defs4">
  <symbol viewBox="244.5 110 489 219.9" id="symbol-university">
   <path id="path4460" d="M79,43l57,119c0,0,21-96,104-96s124,106,124,106l43-133l82-17L0,17L79,43z"/>
   <path id="path4462" d="M94,176l-21,39" stroke-width="20" stroke="#000000" fill="none"/>
   <path id="path4464" d="M300,19c0,10.5-22.6,19-50.5,19S199,29.5,199,19s22.6-19,50.5-19S300,8.5,300,19z"/>
   <path id="path4466" d="M112,216l-16-38L64,88c0,0-9-8-4-35s16-24,16-24" stroke-width="20" stroke="#000000" ill="none"/>
  </symbol>
 </defs>
 <g id="g1327">
  <path d="M 66.275,1.768 C 24.94,1.768 1.704,23.139 1.704,66.804 L 1.704,516.927 C 1.704,557.771 22.599,579.156 63.896,579.156 L 515.92,579.156 C 557.227,579.156 578.149,558.841 578.149,516.927 L 578.149,66.804 C 578.149,24.203 557.227,1.768 514.628,1.768 C 514.624,1.768 66.133,1.625 66.275,1.768 z " id="path1329" fill="#734A08" stroke="#eee" stroke-width="3.408"/>
 </g>
 <path d="M 215.29767,353.28001 L 153.07069,244.8576 L 27.922348,244.8576 L 78.794486,274.30668 L 47.344036,328.50767 C 44.661797,333.4228 43.320736,338.55563 43.320819,343.90613 C 43.320736,349.25693 44.661797,354.38976 47.344036,359.3046 L 96.847881,445.63 C 99.080577,439.3808 101.31344,434.02333 103.54642,429.5576 L 165.11988,323.83094 L 215.29767,353.28001 z M 122.29416,440.27934 C 118.71329,446.07933 116.92292,452.32177 116.92307,459.00667 C 116.92292,469.27234 120.60575,477.97226 127.97157,485.10646 C 135.33707,492.24067 144.14591,495.80778 154.39813,495.80779 L 277.54508,495.80779 L 277.54508,396.10574 L 147.72002,396.10574 C 146.82124,397.88939 143.47198,403.68933 137.6722,413.5056 L 122.29416,440.27934 z M 288.92035,193.33194 L 413.39474,193.33194 L 476.29567,84.929954 L 425.44395,114.37903 L 393.97307,60.157607 C 388.17267,49.906007 379.25493,44.779997 367.21976,44.779546 L 268.1712,44.779546 C 272.1873,49.232072 275.53656,53.690954 278.21902,58.156212 L 339.09813,163.88287 L 329.07074,169.90746 L 288.92035,193.33194 z M 228.02081,50.130223 C 213.7385,50.130657 203.03039,56.373094 195.89641,68.857531 L 133.66943,175.93207 C 157.30473,189.76511 186.07983,206.27318 219.99482,225.45634 C 240.06293,191.1062 261.69701,153.63117 284.89713,113.03113 L 260.14522,68.857531 C 253.0107,56.373094 242.30259,50.130657 228.02081,50.130223 L 228.02081,50.130223 z M 387.96889,394.75786 L 387.96889,382.70866 L 387.96889,336.55408 L 325.72148,444.95607 L 387.96889,552.70454 L 387.96889,494.48033 L 450.19588,494.48033 C 462.24457,494.48033 471.38698,489.34751 477.62313,479.08186 L 527.14739,392.75646 C 520.46191,394.54011 514.88661,395.43188 510.42147,395.43179 L 387.96889,394.75786 z M 480.31888,211.40574 C 478.08551,212.74027 449.3036,229.24835 393.97307,260.93001 C 421.63812,308.6641 443.50366,346.36377 459.56974,374.02915 L 509.74753,374.02915 C 524.47831,374.02926 535.41108,367.78001 542.54588,355.2814 C 549.2302,343.23233 549.00556,330.96531 541.87193,318.48028 L 480.31888,211.40574 z" id="flowRoot3192" fill="#ffffff"/>
</svg>
