<?xml version="1.0" encoding="UTF-8" standalone="no"?>
<svg xmlns="http://www.w3.org/2000/svg" xmlns:sodipodi="http://sodipodi.sourceforge.net/DTD/sodipodi-0.dtd" xmlns:inkscape="http://www.inkscape.org/namespaces/inkscape" version="1.0" width="580" height="580">
 <metadata id="metadata10"/>
 <g id="g1327">
  <path d="M 66.275,1.768 C 24.94,1.768 1.704,23.139 1.704,66.804 L 1.704,516.927 C 1.704,557.771 22.598,579.156 63.896,579.156 L 515.92,579.156 C 557.227,579.156 578.149,558.84 578.149,516.927 L 578.149,66.804 C 578.149,24.203 557.227,1.768 514.627,1.768 C 514.624,1.768 66.133,1.625 66.275,1.768 z" id="path1329" fill="#8E7409" stroke="#eeeeee" stroke-width="3.408"/>
 </g>
 <rect id="rect5460" width="473.76" height="422.85" x="50.912" y="87.85" rx="0" fill="none" stroke="#ffffff" stroke-linejoin="round" stroke-linecap="round" stroke-width="20"/>
 <rect rx="0" y="86.2" x="49.5" height="422.85" width="473.76" id="rect5462" opacity=".25" fill="#ffffff" stroke="#ffffff" stroke-linejoin="round" stroke-linecap="round" stroke-width="20"/>
 <g id="g5444" transform="matrix(0.46882185,0,0,0.46882185,32.104664,33.761263)" stroke-width="25.833">
  <path d="m 439.36679,494.83382 c -0.24704,0.005 -40.22701,0.008 -40.47526,0.008 l 0,0 c -19.5539,0 -35.40547,-15.85157 -35.40547,-35.40547 0,-19.5539 15.85157,-35.40547 35.40547,-35.40547 0.24825,0 0.49591,0.003 0.74294,0.008 m 0,-0.57537 c -0.24703,0.005 -0.49469,0.008 -0.74294,0.008 l 0,0 c -19.5539,0 -35.40547,-15.85157 -35.40547,-35.40547 0,-19.5539 15.85157,-35.40547 35.40547,-35.40547 0.24825,0 0.49591,0.003 0.74294,0.008 m 0,-1.31115 c -0.24703,0.005 -0.49469,0.008 -0.74294,0.008 l 0,0 c -19.5539,0 -35.40547,-15.85157 -35.40547,-35.40547 0,-19.5539 15.85157,-35.40547 35.40547,-35.40547 0.24825,0 0.49591,0.003 0.74294,0.008 m 0,-0.57537 c -0.24703,0.005 -0.49469,0.008 -0.74294,0.008 l 0,0 c -19.5539,0 -35.40547,-15.85157 -35.40547,-35.40547 0,-19.5539 15.85157,-35.40547 35.40547,-35.40547 0.24825,0 40.22822,0.003 40.47526,0.008" id="path4742" inkscape:connector-curvature="0" fill="none" stroke="#ffffff" stroke-linecap="round" stroke-width="25.833"/>
  <path inkscape:connector-curvature="0" id="path4749" d="m 136.32934,494.83382 c 0.24703,0.005 40.22701,0.008 40.47526,0.008 l 0,0 c 19.5539,0 35.40547,-15.85157 35.40547,-35.40547 0,-19.5539 -15.85157,-35.40547 -35.40547,-35.40547 -0.24825,0 -0.49591,0.003 -0.74295,0.008 m 0,-0.57537 c 0.24704,0.005 0.4947,0.008 0.74295,0.008 l 0,0 c 19.5539,0 35.40547,-15.85157 35.40547,-35.40547 0,-19.5539 -15.85157,-35.40547 -35.40547,-35.40547 -0.24825,0 -0.49591,0.003 -0.74295,0.008 m 0,-1.31115 c 0.24704,0.005 0.4947,0.008 0.74295,0.008 l 0,0 c 19.5539,0 35.40547,-15.85157 35.40547,-35.40547 0,-19.5539 -15.85157,-35.40547 -35.40547,-35.40547 -0.24825,0 -0.49591,0.003 -0.74295,0.008 m 0,-0.57537 c 0.24704,0.005 0.4947,0.008 0.74295,0.008 l 0,0 c 19.5539,0 35.40547,-15.85157 35.40547,-35.40547 0,-19.5539 -15.85157,-35.40547 -35.40547,-35.40547 -0.24825,0 -40.22823,0.003 -40.47526,0.008" fill="none" stroke="#ffffff" stroke-linecap="round" stroke-width="25.833"/>
  <path inkscape:connector-curvature="0" id="path4755" d="m 316.33325,212.53913 0,280.94989" fill="none" stroke="#ffffff" stroke-linecap="round" stroke-width="25.833"/>
  <path d="m 262.25974,212.53913 0,280.94989" id="path4759" inkscape:connector-curvature="0" fill="none" stroke="#ffffff" stroke-linecap="round" stroke-width="25.833"/>
 </g>
 <g transform="matrix(0.46882185,0,0,0.46882185,32.104664,233.76126)" id="g5464" stroke-width="25.833">
  <path inkscape:connector-curvature="0" id="path5466" d="m 439.36679,494.83382 c -0.24704,0.005 -40.22701,0.008 -40.47526,0.008 l 0,0 c -19.5539,0 -35.40547,-15.85157 -35.40547,-35.40547 0,-19.5539 15.85157,-35.40547 35.40547,-35.40547 0.24825,0 0.49591,0.003 0.74294,0.008 m 0,-0.57537 c -0.24703,0.005 -0.49469,0.008 -0.74294,0.008 l 0,0 c -19.5539,0 -35.40547,-15.85157 -35.40547,-35.40547 0,-19.5539 15.85157,-35.40547 35.40547,-35.40547 0.24825,0 0.49591,0.003 0.74294,0.008 m 0,-1.31115 c -0.24703,0.005 -0.49469,0.008 -0.74294,0.008 l 0,0 c -19.5539,0 -35.40547,-15.85157 -35.40547,-35.40547 0,-19.5539 15.85157,-35.40547 35.40547,-35.40547 0.24825,0 0.49591,0.003 0.74294,0.008 m 0,-0.57537 c -0.24703,0.005 -0.49469,0.008 -0.74294,0.008 l 0,0 c -19.5539,0 -35.40547,-15.85157 -35.40547,-35.40547 0,-19.5539 15.85157,-35.40547 35.40547,-35.40547 0.24825,0 40.22822,0.003 40.47526,0.008" fill="none" stroke="#ffffff" stroke-linecap="round" stroke-width="25.833"/>
  <path d="m 136.32934,494.83382 c 0.24703,0.005 40.22701,0.008 40.47526,0.008 l 0,0 c 19.5539,0 35.40547,-15.85157 35.40547,-35.40547 0,-19.5539 -15.85157,-35.40547 -35.40547,-35.40547 -0.24825,0 -0.49591,0.003 -0.74295,0.008 m 0,-0.57537 c 0.24704,0.005 0.4947,0.008 0.74295,0.008 l 0,0 c 19.5539,0 35.40547,-15.85157 35.40547,-35.40547 0,-19.5539 -15.85157,-35.40547 -35.40547,-35.40547 -0.24825,0 -0.49591,0.003 -0.74295,0.008 m 0,-1.31115 c 0.24704,0.005 0.4947,0.008 0.74295,0.008 l 0,0 c 19.5539,0 35.40547,-15.85157 35.40547,-35.40547 0,-19.5539 -15.85157,-35.40547 -35.40547,-35.40547 -0.24825,0 -0.49591,0.003 -0.74295,0.008 m 0,-0.57537 c 0.24704,0.005 0.4947,0.008 0.74295,0.008 l 0,0 c 19.5539,0 35.40547,-15.85157 35.40547,-35.40547 0,-19.5539 -15.85157,-35.40547 -35.40547,-35.40547 -0.24825,0 -40.22823,0.003 -40.47526,0.008" id="path5468" inkscape:connector-curvature="0" fill="none" stroke="#ffffff" stroke-linecap="round" stroke-width="25.833"/>
  <path d="m 316.33325,212.53913 0,280.94989" id="path5470" inkscape:connector-curvature="0" fill="none" stroke="#ffffff" stroke-linecap="round" stroke-width="25.833"/>
  <path inkscape:connector-curvature="0" id="path5472" d="m 262.25974,212.53913 0,280.94989" fill="none" stroke="#ffffff" stroke-linecap="round" stroke-width="25.833"/>
 </g>
 <g id="g5474" transform="matrix(0.46882185,0,0,0.46882185,270.10466,233.76126)" stroke-width="25.833">
  <path d="m 439.36679,494.83382 c -0.24704,0.005 -40.22701,0.008 -40.47526,0.008 l 0,0 c -19.5539,0 -35.40547,-15.85157 -35.40547,-35.40547 0,-19.5539 15.85157,-35.40547 35.40547,-35.40547 0.24825,0 0.49591,0.003 0.74294,0.008 m 0,-0.57537 c -0.24703,0.005 -0.49469,0.008 -0.74294,0.008 l 0,0 c -19.5539,0 -35.40547,-15.85157 -35.40547,-35.40547 0,-19.5539 15.85157,-35.40547 35.40547,-35.40547 0.24825,0 0.49591,0.003 0.74294,0.008 m 0,-1.31115 c -0.24703,0.005 -0.49469,0.008 -0.74294,0.008 l 0,0 c -19.5539,0 -35.40547,-15.85157 -35.40547,-35.40547 0,-19.5539 15.85157,-35.40547 35.40547,-35.40547 0.24825,0 0.49591,0.003 0.74294,0.008 m 0,-0.57537 c -0.24703,0.005 -0.49469,0.008 -0.74294,0.008 l 0,0 c -19.5539,0 -35.40547,-15.85157 -35.40547,-35.40547 0,-19.5539 15.85157,-35.40547 35.40547,-35.40547 0.24825,0 40.22822,0.003 40.47526,0.008" id="path5476" inkscape:connector-curvature="0" fill="none" stroke="#ffffff" stroke-linecap="round" stroke-width="25.833"/>
  <path inkscape:connector-curvature="0" id="path5478" d="m 136.32934,494.83382 c 0.24703,0.005 40.22701,0.008 40.47526,0.008 l 0,0 c 19.5539,0 35.40547,-15.85157 35.40547,-35.40547 0,-19.5539 -15.85157,-35.40547 -35.40547,-35.40547 -0.24825,0 -0.49591,0.003 -0.74295,0.008 m 0,-0.57537 c 0.24704,0.005 0.4947,0.008 0.74295,0.008 l 0,0 c 19.5539,0 35.40547,-15.85157 35.40547,-35.40547 0,-19.5539 -15.85157,-35.40547 -35.40547,-35.40547 -0.24825,0 -0.49591,0.003 -0.74295,0.008 m 0,-1.31115 c 0.24704,0.005 0.4947,0.008 0.74295,0.008 l 0,0 c 19.5539,0 35.40547,-15.85157 35.40547,-35.40547 0,-19.5539 -15.85157,-35.40547 -35.40547,-35.40547 -0.24825,0 -0.49591,0.003 -0.74295,0.008 m 0,-0.57537 c 0.24704,0.005 0.4947,0.008 0.74295,0.008 l 0,0 c 19.5539,0 35.40547,-15.85157 35.40547,-35.40547 0,-19.5539 -15.85157,-35.40547 -35.40547,-35.40547 -0.24825,0 -40.22823,0.003 -40.47526,0.008" fill="none" stroke="#ffffff" stroke-linecap="round" stroke-width="25.833"/>
  <path inkscape:connector-curvature="0" id="path5480" d="m 316.33325,212.53913 0,280.94989" fill="none" stroke="#ffffff" stroke-linecap="round" stroke-width="25.833"/>
  <path d="m 262.25974,212.53913 0,280.94989" id="path5482" inkscape:connector-curvature="0" fill="none" stroke="#ffffff" stroke-linecap="round" stroke-width="25.833"/>
 </g>
 <g transform="matrix(0.46882185,0,0,0.46882185,270.10466,37.76126)" id="g5484" stroke-width="25.833">
  <path inkscape:connector-curvature="0" id="path5486" d="m 439.36679,494.83382 c -0.24704,0.005 -40.22701,0.008 -40.47526,0.008 l 0,0 c -19.5539,0 -35.40547,-15.85157 -35.40547,-35.40547 0,-19.5539 15.85157,-35.40547 35.40547,-35.40547 0.24825,0 0.49591,0.003 0.74294,0.008 m 0,-0.57537 c -0.24703,0.005 -0.49469,0.008 -0.74294,0.008 l 0,0 c -19.5539,0 -35.40547,-15.85157 -35.40547,-35.40547 0,-19.5539 15.85157,-35.40547 35.40547,-35.40547 0.24825,0 0.49591,0.003 0.74294,0.008 m 0,-1.31115 c -0.24703,0.005 -0.49469,0.008 -0.74294,0.008 l 0,0 c -19.5539,0 -35.40547,-15.85157 -35.40547,-35.40547 0,-19.5539 15.85157,-35.40547 35.40547,-35.40547 0.24825,0 0.49591,0.003 0.74294,0.008 m 0,-0.57537 c -0.24703,0.005 -0.49469,0.008 -0.74294,0.008 l 0,0 c -19.5539,0 -35.40547,-15.85157 -35.40547,-35.40547 0,-19.5539 15.85157,-35.40547 35.40547,-35.40547 0.24825,0 40.22822,0.003 40.47526,0.008" fill="none" stroke="#ffffff" stroke-linecap="round" stroke-width="25.833"/>
  <path d="m 136.32934,494.83382 c 0.24703,0.005 40.22701,0.008 40.47526,0.008 l 0,0 c 19.5539,0 35.40547,-15.85157 35.40547,-35.40547 0,-19.5539 -15.85157,-35.40547 -35.40547,-35.40547 -0.24825,0 -0.49591,0.003 -0.74295,0.008 m 0,-0.57537 c 0.24704,0.005 0.4947,0.008 0.74295,0.008 l 0,0 c 19.5539,0 35.40547,-15.85157 35.40547,-35.40547 0,-19.5539 -15.85157,-35.40547 -35.40547,-35.40547 -0.24825,0 -0.49591,0.003 -0.74295,0.008 m 0,-1.31115 c 0.24704,0.005 0.4947,0.008 0.74295,0.008 l 0,0 c 19.5539,0 35.40547,-15.85157 35.40547,-35.40547 0,-19.5539 -15.85157,-35.40547 -35.40547,-35.40547 -0.24825,0 -0.49591,0.003 -0.74295,0.008 m 0,-0.57537 c 0.24704,0.005 0.4947,0.008 0.74295,0.008 l 0,0 c 19.5539,0 35.40547,-15.85157 35.40547,-35.40547 0,-19.5539 -15.85157,-35.40547 -35.40547,-35.40547 -0.24825,0 -40.22823,0.003 -40.47526,0.008" id="path5488" inkscape:connector-curvature="0" fill="none" stroke="#ffffff" stroke-linecap="round" stroke-width="25.833"/>
  <path d="m 316.33325,212.53913 0,280.94989" id="path5490" inkscape:connector-curvature="0" fill="none" stroke="#ffffff" stroke-linecap="round" stroke-width="25.833"/>
  <path inkscape:connector-curvature="0" id="path5492" d="m 262.25974,212.53913 0,280.94989" fill="none" stroke="#ffffff" stroke-linecap="round" stroke-width="25.833"/>
 </g>
</svg>
