<?xml version="1.0" encoding="UTF-8" standalone="no"?>
<svg xmlns="http://www.w3.org/2000/svg" xmlns:sodipodi="http://sodipodi.sourceforge.net/DTD/sodipodi-0.dtd" xmlns:inkscape="http://www.inkscape.org/namespaces/inkscape" version="1.0" width="580" height="580">
 <metadata id="metadata10"/>
 <g id="g1327">
  <path d="M 66.275,1.768 C 24.94,1.768 1.704,23.139 1.704,66.804 L 1.704,516.927 C 1.704,557.771 22.598,579.156 63.896,579.156 L 515.92,579.156 C 557.227,579.156 578.149,558.84 578.149,516.927 L 578.149,66.804 C 578.149,24.203 557.227,1.768 514.627,1.768 C 514.624,1.768 66.133,1.625 66.275,1.768 z" id="path1329" fill="#8E7409" stroke="#eeeeee" stroke-width="3.408"/>
 </g>
 <path d="M 292.54222,132.60258 C 292.54222,132.90911 292.54222,93.21567 292.54222,93.5222 C 292.54222,117.85531 276.20952,369.78441 172.11187,508.73738" id="path1686" sodipodi:nodetypes="ccc" fill="none" fill-rule="evenodd" stroke="#ffffff" stroke-linejoin="round" fill-opacity=".75" stroke-linecap="round" stroke-width="19.809"/>
 <path d="M 292.2498,132.14279 C 292.2498,132.44933 292.2498,92.75589 292.2498,93.06242 C 292.2498,117.39547 308.5825,369.32463 412.68011,508.27769" id="path2308" sodipodi:nodetypes="ccc" fill="none" fill-rule="evenodd" stroke="#ffffff" stroke-linejoin="round" fill-opacity=".75" stroke-linecap="round" stroke-width="19.809"/>
 <path id="path3758" d="M 317.84839,284.64087 L 249.34445,348.05373" fill="none" fill-rule="evenodd" stroke="#ffffff" stroke-linecap="round" stroke-width="12.53"/>
 <path d="M 267.37692,284.64087 L 335.88086,348.05373" id="path3768" fill="none" fill-rule="evenodd" stroke="#ffffff" stroke-linecap="round" stroke-width="12.53"/>
 <path d="M 262.86852,347.87329 L 370.09962,447.13518" id="path3770" fill="none" fill-rule="evenodd" stroke="#ffffff" stroke-linecap="round" stroke-width="15.422"/>
 <path id="path3772" d="M 322.01303,347.87329 L 214.78193,447.13518" fill="none" fill-rule="evenodd" stroke="#ffffff" stroke-linecap="round" stroke-width="15.422"/>
 <path id="path3804" d="M 294.39906,94.807 C 167.11984,175.41717 35.59798,93.39278 35.59798,93.39278" inkscape:connector-curvature="0" opacity=".5" fill="none" stroke="#ffffff" stroke-width="20"/>
 <path d="M 550.39906,96.807 C 423.11984,177.41717 291.59798,95.39278 291.59798,95.39278" id="path3806" inkscape:connector-curvature="0" opacity=".5" fill="none" stroke="#ffffff" stroke-width="20"/>
 <path id="path3816" d="M 294.39906,168.807 C 167.11984,249.41717 35.59798,167.39278 35.59798,167.39278" inkscape:connector-curvature="0" opacity=".5" fill="none" stroke="#ffffff" stroke-width="20"/>
 <path d="M 550.39906,170.807 C 423.11984,251.41717 291.59798,169.39278 291.59798,169.39278" id="path3818" inkscape:connector-curvature="0" opacity=".5" fill="none" stroke="#ffffff" stroke-width="20"/>
 <path d="M 294.39906,94.807 C 167.11984,175.41717 35.59798,93.39278 35.59798,93.39278" id="path6330" inkscape:connector-curvature="0" opacity=".5" fill="none" stroke="#ffffff" stroke-width="24"/>
 <path id="path6332" d="M 550.39906,96.807 C 423.11984,177.41717 291.59798,95.39278 291.59798,95.39278" inkscape:connector-curvature="0" opacity=".5" fill="none" stroke="#ffffff" stroke-width="24"/>
 <path inkscape:connector-curvature="0" d="M 294.39906,168.807 C 167.11984,249.41717 35.59798,167.39278 35.59798,167.39278" id="path6334" opacity=".5" fill="none" stroke="#ffffff" stroke-width="24"/>
 <path inkscape:connector-curvature="0" id="path6336" d="M 550.39906,170.807 C 423.11984,251.41717 291.59798,169.39278 291.59798,169.39278" opacity=".5" fill="none" stroke="#ffffff" stroke-width="24"/>
</svg>
