<?xml version="1.0" encoding="utf-8"?><!-- Generator: Adobe Illustrator 16.0.3, SVG Export Plug-In . SVG Version: 6.00 Build 0)  --><!DOCTYPE svg PUBLIC
    "-//W3C//DTD SVG 1.1//EN" "http://www.w3.org/Graphics/SVG/1.1/DTD/svg11.dtd">
<svg version="1.1" id="Ebene_1" xmlns="http://www.w3.org/2000/svg" xmlns:xlink="http://www.w3.org/1999/xlink" x="0px" y="0px"
	 width="515.667px" height="515.668px" viewBox="0 0 515.667 515.668" enable-background="new 0 0 515.667 515.668"
	 xml:space="preserve">
<g id="Ebene_10">
	<g>
		<path fill="#707072" d="M108.925,89.292c0,0,6.092,63.286,5.047,92.998c-0.434,12.308-4.57,46.237-23.802,46.237
			c-20.709,0-23.073-24.892-48.489-24.892c-15.139,0-41.055,9.865-41.055,53.192c0,33.143,21.005,49.511,37.781,49.511
			c24.96,0,21.414-19.64,47.875-19.64c26.097,0,27.142,24.412,27.142,37.917c0,13.504-3.319,51.283-9.684,89.475
			c4.819,0.727,12.558,1.601,25.368,5.593c17.369,5.409,30.689,9.682,58.513,9.682s43.238-10.5,43.238-22.503
			c0-18.594-17.049-15.549-17.049-37.918s22.505-32.735,45.009-32.735c22.506,0,45.238,10.866,45.238,38.056
			c0,24.55-14.277,18.685-14.277,39.008c0,20.322,24.413,19.777,30.552,19.777c6.138,0,67.106-1.999,94.93-7.683
			c-1.09-14.458-4.998-72.608-4.998-90.475c0-23.643,11.001-25.961,16.865-25.961c17.595,0,18.414,13.413,43.237,13.413
			c22.46,0,44.325-21.551,44.325-54.33c0-29.599-20.73-42.283-37.779-42.283s-22.776,14.73-52.103,14.73
			c-10.363,0-17.275-4.137-17.275-24.324c0-40.672,4.546-81.199,4.727-119.571c-20.365-3.001-72.697-10.913-101.611-10.913
			c-26.414,0-28.323,11.049-28.323,18.278c0,18.64,25.643,24.187,25.643,42.009c0,32.644-25.962,41.191-47.239,41.191
			c-18.596,0-46.328-17.004-46.328-43.737c0-13.139,3.681-17.117,7.467-20.905c5.662-5.663,12.196-9.056,12.196-18.013
			c0-15.549-15.709-18.187-34.122-18.187S108.925,89.292,108.925,89.292z"/>
		<g opacity="0.2">
			<path fill="#FFFFFF" d="M310.651,85.654c28.914,0,81.246,7.911,101.611,10.913c-0.181,38.373-4.727,78.9-4.727,119.571
				c0,20.187,6.912,24.324,17.275,24.324c29.326,0,35.054-14.73,52.103-14.73s37.779,12.684,37.779,42.283
				c0,32.779-21.865,54.33-44.325,54.33c-24.823,0-25.643-13.413-43.237-13.413c-5.864,0-16.865,2.318-16.865,25.961
				c0,17.866,3.908,76.017,4.998,90.475c-27.823,5.684-88.792,7.683-94.93,7.683c-0.312,0-0.67,0-1.073,0
				c-7.485,0-29.479-0.49-29.479-19.777c0-20.323,14.277-14.458,14.277-39.008c0-27.189-22.732-38.056-45.238-38.056
				c-22.504,0-45.009,10.366-45.009,32.735s17.049,19.324,17.049,37.918c0,12.003-15.413,22.505-43.237,22.505
				c-27.824,0-41.145-4.272-58.513-9.684c-12.811-3.99-20.549-4.864-25.369-5.593c6.365-38.189,9.684-75.971,9.684-89.473
				c0-13.505-1.045-37.919-27.142-37.919c-26.461,0-22.915,19.642-47.875,19.642c-16.776,0-37.781-16.368-37.781-49.512
				c0-43.327,25.916-53.192,41.054-53.192c25.416,0,27.779,24.892,48.489,24.892c19.231,0,23.368-33.929,23.802-46.237
				c1.044-29.712-5.047-92.998-5.047-92.998s72.607-3.001,91.021-3.001s34.122,2.638,34.122,18.187
				c0,8.956-6.534,12.349-12.196,18.013c-3.787,3.787-7.468,7.766-7.468,20.905c0,26.733,27.733,43.737,46.329,43.737
				c21.277,0,47.237-8.547,47.237-41.191c0-17.822-25.643-23.369-25.643-42.009C282.328,96.702,284.237,85.654,310.651,85.654
				 M310.651,85.109c-25.589,0-28.87,10.059-28.87,18.823c0,9.662,6.717,15.89,13.21,21.913
				c6.394,5.925,12.433,11.524,12.433,20.096c0,36.685-32.652,40.646-46.692,40.646c-9.562,0-20.978-4.493-29.792-11.722
				c-10.312-8.457-15.991-19.633-15.991-31.471c0-13.211,3.715-16.928,7.307-20.521c1.183-1.184,2.419-2.277,3.611-3.335
				c4.498-3.987,8.745-7.752,8.745-15.063c0-16.506-17.524-18.732-34.667-18.732c-18.213,0-90.316,2.971-91.043,3.001l-0.576,0.023
				l0.056,0.572c0.06,0.632,6.076,63.589,5.044,92.926c-0.598,16.979-6.169,45.712-23.256,45.712
				c-9.601,0-15.199-5.507-21.125-11.336c-6.774-6.663-13.783-13.555-27.363-13.555c-4.639,0-16.517,1.023-26.578,10.498
				c-9.967,9.385-15.021,23.934-15.021,43.241c0,19.236,6.926,31.037,12.738,37.549c6.99,7.83,16.556,12.506,25.588,12.506
				c12.505,0,18.092-4.951,23.494-9.741c5.488-4.869,11.163-9.897,24.381-9.897c26.597,0,26.597,26.188,26.597,37.372
				c0,12.634-3.075,49.777-9.676,89.385l-0.091,0.546l0.547,0.082c0.505,0.075,1.041,0.154,1.61,0.236
				c4.878,0.707,12.248,1.776,23.68,5.34l0.716,0.222c17.003,5.299,30.436,9.486,57.958,9.486c13.214,0,24.391-2.361,32.32-6.824
				c7.392-4.159,11.462-9.925,11.462-16.229c0-9.092-3.93-13.09-8.091-17.323c-4.404-4.48-8.958-9.118-8.958-20.593
				c0-22.236,22.333-32.189,44.465-32.189c20.616,0,44.692,9.822,44.692,37.508c0,12.65-3.82,17.057-7.511,21.316
				c-3.479,4.016-6.766,7.807-6.766,17.691c0,8.489,4.131,14.422,12.275,17.629c6.134,2.417,13.065,2.695,17.746,2.695h0.608
				l0.467-0.002c4.858,0,66.407-1.844,95.039-7.694l0.476-0.095l-0.036-0.481c-1.018-13.479-5.001-72.552-5.001-90.432
				c0-16.863,5.493-25.415,16.323-25.415c7.888,0,12.421,2.798,17.221,5.764c5.805,3.582,12.383,7.649,26.017,7.649
				c11.35,0,22.647-5.488,30.997-15.061c8.946-10.256,13.876-24.397,13.876-39.816c0-13.566-4.38-24.852-12.671-32.638
				c-6.891-6.476-16.243-10.189-25.655-10.189c-7.512,0-12.767,2.755-18.853,5.948c-7.85,4.114-16.745,8.783-33.25,8.783
				c-10.042,0-16.731-4.043-16.731-23.778c0-21.048,1.23-42.255,2.421-62.763c1.143-19.693,2.22-38.293,2.309-56.807l0.002-0.475
				l-0.47-0.069l-2.648-0.386C388.373,92.485,338.428,85.109,310.651,85.109L310.651,85.109z"/>
		</g>
	</g>
</g>
<g id="Ebene_5">
	<g>
		<path fill="#97BF0D" d="M407.896,309.423c0.292-2.983-1.491-5.002-3.092-7.095c-0.7-0.912-0.66-1.583,0.177-2.261
			c0.961-0.774,0.921-1.646,0.526-2.733c-0.78-2.159-2.248-3.857-3.484-5.725c-1.466-2.203-4.461-4.076-2.152-7.429
			c0.388-0.568-0.051-1.715,0.979-1.8c0.986-0.082,1.221,0.965,1.643,1.614c0.897,1.399,1.938,2.258,3.723,1.58
			c0.49-0.183,1.077-0.112,1.624-0.132c2.425-0.094,4.182-1.515,4.998-4.054c0.849-2.653,0.264-4.913-1.79-6.354
			c-0.905-0.639-1.721-1.346-2.408-2.191c-0.569-0.707-0.616-1.549,0.03-2.238c0.832-0.884,1.717-1.967,3.022-1.818
			c1.164,0.13,0.653,1.306,0.691,2.042c0.058,1.075,0.11,2.279,1.445,2.256c1.176-0.021,1.287-1.218,1.376-2.18
			c0.068-0.726-0.206-1.726,0.646-1.996c1.747-0.555,3.291-1.586,5.151-1.888c3.894-0.63,6.798-2.64,8.199-6.463
			c0.56-1.528,1.059-3.01,2.181-4.312c0.981-1.131,1.195-2.616,0.676-4.23c-0.746-2.309-2.063-4.291-3.246-6.348
			c-0.734-1.273-0.449-1.956,0.761-2.614c0.973-0.526,2.35-0.481,2.798-1.826c0.038-0.207,0.079-0.412,0.12-0.619l-0.078-0.511
			c-2.35,0.232-4.872,0.36-7.601,0.36c-10.363,0-17.275-4.137-17.275-24.324c0-33.515,3.084-66.929,4.271-99.125
			c-0.501,0.07-0.954,0.132-1.053,0.141c-0.515-0.32-1.025-0.642-1.538-0.965c0,0,0-0.001,0-0.002
			c0.063-0.533-0.031-1.153,0.212-1.585c1.029-1.849,1.129-3.661,0.058-5.508c-2.433-0.673-3.734,0.91-5.115,2.477
			c-1.617,1.839-3.029,3.825-4.294,5.902c-1.633,2.681-4.156,2.578-6.695,2.285c-1.834-0.21-3.474-0.293-4.844,1.29
			c-0.498,0.574-1.275,0.986-2.105,1.187c-1.955,0.464-3.128,1.841-3.925,3.579c-1.851,4.039-4.382,7.434-8.638,9.208
			c-1.244,0.519-1.709,1.429-1.613,2.752c0.076,1.02,0.019,2.046,0.015,3.069c-0.004,0.768-0.408,1.311-1.072,1.602
			c-0.695,0.303-1.191-0.175-1.574-0.652c-0.895-1.108-1.683-2.295-2.611-3.369c-1.032-1.195-2.267-1.536-3.53-0.317
			c-0.666,0.64-1.283,0.676-2.197,0.54c-1.603-0.242-3.259-0.146-4.895-0.152c-1.06-0.003-1.494,0.796-1.923,1.598
			c-1.182,2.21-2.061,4.563-3.571,6.63c-0.888,1.22-0.246,2.924-0.307,4.406c-0.092,2.175-0.371,2.38-2.431,1.545
			c-0.377-0.153-0.778-0.254-1.154-0.411c-0.954-0.396-1.82-0.784-0.823-2.046c0.478-0.604,0.3-1.389-0.343-1.814
			c-3.039-2.018-1.981-4.979-1.569-7.594c0.474-2.938,2.129-5.418,4.249-7.542c0.335-0.337,0.684-0.673,0.966-1.055
			c0.736-0.985,0.844-2.044,0.015-3.001c-0.854-0.992-1.883-0.604-2.774-0.045c-3.603,2.27-5.945,5.479-7.208,9.56
			c-0.986,3.201-0.821,6.458-0.805,9.72c0.006,1.499,1.193,2.018,2.279,2.6c0.934,0.505,2.179,0.772,2.161,2.155
			c-0.018,1.367-1.249,1.639-2.184,2.15c-0.417,0.227-0.889,0.419-1.213,0.745c-1.721,1.735-3.57,1.524-5.358,0.264
			c-1.174-0.823-2.053-0.821-3.019,0.246c-0.397,0.438-0.969,0.76-1.514,1.016c-2.108,0.979-4.151,2.029-5.599,3.939
			c-0.2,0.266-0.435,0.629-0.816,0.445c-0.497-0.24-0.256-0.667-0.146-1.055c0.783-2.672-1.411-5.19-4.214-4.855
			c-1.387,0.167-2.309,1.604-2.002,3.244c0.249,1.33,0.542,2.659,0.899,3.962c0.208,0.742,0.29,1.414-0.553,1.687
			c-0.863,0.279-1.241-0.405-1.461-1.068c-0.248-0.77-0.364-1.581-0.582-2.363c-0.18-0.649-6.567-6.502-7.252-6.693
			c-0.065-0.018-0.132-0.012-0.204-0.017c-0.027,0.083-0.296,0.043-0.685-0.061c-2.444,14.433-10.949,22.904-21.363,27.53
			c-0.147,0.229-0.294,0.421-0.463,0.517c-0.633,1.343-0.407,2.478,0.835,3.354c0.658,0.468,1.292,0.979,1.989,1.382
			c0.685,0.395,1.06,0.93,0.776,1.658c-0.489,1.252-0.285,2.533-0.309,3.806c-0.019,1.23-0.133,2.277-1.83,1.615
			c-0.682-0.262-1.173,0.07-1.479,0.699c-0.521,0.431-0.755,1.008-0.833,1.66c-0.441,0.301-0.391,0.762-0.387,1.206
			c-0.317,1.203-0.594,2.43-1.658,3.25c-0.688,0.229-1.437,0.315-2.003,0.837c-0.689,0.018-1.381,0.031-2.07,0.047
			c-0.82,0.052-1.704-0.316-2.433,0.359c-0.281,0.02-0.564,0.038-0.843,0.058c-1.492-0.1-3.014,0.116-4.47-0.41
			c-0.407-0.29-0.818-0.577-1.227-0.866c0.006-1.147,0.051-2.293,0.008-3.435c-0.036-0.959,0.373-2.078-0.807-2.709l-0.008-0.013
			c-0.57-0.973-1.142-0.909-1.711,0c-0.135,0.136-0.27,0.271-0.401,0.406c-0.599,0.936-2.547,1.445-1.712,2.757
			c1.48,2.322,1.834,4.272-0.375,6.229c-0.807,0.054-1.61,0.111-2.41,0.162c-0.112,0.096-0.224,0.193-0.334,0.289
			c-1.23,0.766-1.778,2.045-2.246,3.297c-0.36,0.96-1.028,1.641-1.751,2.175c-0.635,0.472-1.782,0.628-1.681-0.718
			c0.239-3.071-1.484-5.418-3.036-7.646c-1.152-1.659-1.721-3.558-2.208-5.264c-0.508-1.777-1.355-3.357-1.99-5.031
			c-0.54-1.425-2.4-1.527-2.797-0.163c-0.615,2.117-2.624,4.223-0.609,6.632c0.356,0.424,0.515,1.039,0.128,1.521
			c-0.406,0.506-0.982,0.282-1.509,0.113c-1.531-0.491-2.803-0.064-3.877,1.093c-0.703,0.757-1.5,1.356-2.531,1.639
			c-0.831,0.229-1.223,0.98-0.582,1.523c1.411,1.197,1.338,2.691,1.347,4.269c0.008,1.5,0.956,2.038,2.331,1.8
			c1.294-0.223,2.411-0.882,3.482-1.624c0.479-0.332,0.964-1.001,1.604-0.547c0.646,0.46,0.409,1.26,0.248,1.89
			c-0.129,0.508-0.433,1.01-0.775,1.416c-0.558,0.656-1.146,1.323-0.5,2.146c0.602,0.767,1.467,0.466,2.263,0.229
			c1.82-0.542,3.566-1.334,5.48-1.561c0.506-0.059,1-0.189,1.214,0.367c0.272,0.705-0.319,1.001-0.815,1.171
			c-1.285,0.439-2.603,0.767-3.884,1.204c-0.91,0.309-1.809,0.716-2.026,1.809c-0.241,1.215,0.54,1.923,1.413,2.487
			c1.265,0.818,2.229,1.79,2.275,3.398c0.109,0.682,0.219,1.365,0.33,2.047c0.093,0.731-0.082,1.341-0.78,1.712
			c-1.853,0.694-3.73,0.459-5.588,0.088c-3.874-0.773-6.338,1.533-5.242,5.239c0.275,0.927,0.494,2.054,0.049,2.803
			c-1.415,2.396-0.244,4.29,0.822,6.289c0.642,1.204,1.496,1.578,2.849,1.312c1.725-0.339,3.482-0.571,5.237-0.668
			c1.955-0.11,3.695-0.763,4.131-2.696c0.978-4.362,5.456-5.59,7.571-8.888c0.137-0.21,0.623-0.306,0.934-0.281
			c1.546,0.127,2.965-0.188,4.301-0.982c0.376-0.224,1.254-0.398,1.091,0.189c-0.432,1.53,1.386,3.451-0.809,4.656
			c-0.248,0.134-0.359,0.571-0.461,0.892c-0.25,0.753-0.216,1.467,0.388,2.082c0.672,0.686,1.511,0.639,2.292,0.413
			c0.763-0.226,1.172-0.85,1.216-1.705c0.051-0.989-0.104-1.898-0.723-2.697c-0.297-0.384-0.632-0.784-0.168-1.247
			c0.493-0.498,1.203-0.652,1.66-0.189c1.915,1.926,4.688,2.796,6.242,5.148c0.138,1.721-1.023,1.717-2.22,1.686
			c-0.639-0.018-1.213,0.13-1.383,0.854c-0.14,0.592-0.007,1.061,0.705,1.149c0.41,0.41,0.817,0.816,1.225,1.226
			c0.293,1.096,0.838,0.699,1.493,0.316c1.613-0.942,2.538-2.551,3.816-3.817c1.014-1.003,1.986-1.477,2.618,0.402
			c0.166,0.489,0.408,1.029,1.094,1.029c0.012,0.368,0.113,0.675,0.502,0.81c0.133,1.179,0.842,1.803,1.952,2.049
			c0.591,0.066,1.212,0.256,1.62-0.406c0.943-0.135,1.503-0.642,1.566-1.63c0.054-0.118,0.081-0.246,0.088-0.377
			c1.227-0.282,0.592-1.338,0.844-2.022c0.254-0.678,0.363-1.694,1.321-1.531c0.903,0.151,0.512,1.003,0.524,1.681
			c0.071,3.721,3.276,6.662,5.917,6.221c0.538,0,1.074-0.001,1.613-0.001c1.292,0.036,2.581,0.078,3.87,0.106
			c1.026,0.023,1.688,0.515,1.889,1.517c0.398,2.036-2.479,5.559-4.571,5.512c-3.058-0.07-6.191,1.788-9.177-0.367
			c-0.225-0.165-0.667-0.055-1.006-0.029c-1.408,0.103-2.738-0.223-3.908-0.951c-1.889-1.174-3.222-0.246-4.452,1.059
			c-0.455,0.485-0.745,1.132-1.111,1.704c-0.755,1.185-1.559,1.336-2.628,0.293c-0.808-0.79-1.388-1.891-2.623-2.178
			c0.034-0.63-0.545-0.816-0.861-1.194c-0.065-0.531-0.186-0.943-0.777-0.373c-0.273-0.017-0.546-0.032-0.82-0.048
			c-0.072-0.484-0.273-0.806-0.843-0.639c-0.408-0.057-0.815-0.113-1.228-0.171c-0.075-0.774-0.632-0.812-1.223-0.802
			c-0.182-0.277-0.366-0.555-0.549-0.833c0.136-0.979,0.092-1.97,0.412-2.942c0.191-0.575,0.34-1.386-0.697-1.517
			c-0.23-0.613-0.649-1.031-1.259-1.258c-0.088-0.92-0.82-0.89-1.38-0.772c-2.967,0.625-6.003,0.06-8.936,0.522
			c-1.461,0.229-3.359-0.281-4.387,1.45c-0.522,0.136-1.121,0.154-1.56,0.429c-2.368,1.488-4.863,1.888-7.584,1.212
			c-0.8-0.2-1.84-0.054-2.149,0.796c-0.974,2.679-3.813,4.354-3.95,7.478c-0.014,0.331-0.424,0.687-0.714,0.961
			c-1.786,1.68-3.409,3.518-5.324,5.078c-1.387,1.126-3.06,2.243-3.153,4.318c-0.048,1.069-0.468,1.847-1.263,2.432
			c-1.728,1.271-1.813,2.868-1.529,4.88c0.244,1.729,1.193,3.532,0.157,5.343c-1.621,2.835-1.67,4.582,0.464,6.843
			c3.317,3.515,6.108,7.464,9.49,10.928c2.129,2.182,4.348,2.58,7.024,1.688c1.734-0.58,3.628-0.845,5.22-0.221
			c1.661,0.646,2.832,0.292,4.189-0.458c2.05-1.127,4.08-1.447,6.059,0.269c1.13,0.978,2.578,1.149,4.023,1.22
			c0.742,0.036,1.479,0.002,2.218,0.242c1.437,0.468,2.016,1.054,0.817,2.443c-1.391,1.612-1.895,3.514-0.912,5.5
			c1.17,2.364,2.492,4.646,3.752,6.964c-0.158,1.241,0.445,2.172,1.115,3.16c1.471,2.161,2.274,4.347,0.758,7.005
			c-2.419,4.226-3.129,8.629-0.462,13.121c0.432,0.729,0.664,1.647,0.567,2.564c0.066,0.113,0.101,0.564,0.139,0.994
			c10.184,1.838,19.545,6.234,25.784,13.74c2.132-2.29,4.942-5.162,5.623-8.088c0.087-0.363,0.358-0.84,0.672-0.978
			c2.197-0.968,2.192-2.791,2.133-4.797c-0.047-1.456-0.658-3.198,0.454-4.353c1.713-1.788,3.122-3.999,5.697-4.833
			c0.987-0.319,1.569-1.237,1.567-2.218c-0.002-2.97,0.033-5.94-1.174-8.793c-0.802-1.901-2.063-3.791-1.451-6.017
			c1.104-4.02,3.852-6.955,6.926-9.491c4.628-3.81,8.019-8.466,10.404-13.896c0.512-1.159,1.11-2.644,0.104-3.667
			c-0.962-0.974-2.432-0.444-3.697-0.214c-2.269,0.409-4.447,1.353-6.827,1.051c-0.674-0.084-1.415,0.01-1.688-0.827
			c-0.176-0.531,0.165-0.909,0.518-1.243c0.57-0.547,1.217-0.615,1.859-0.163c1.37,0.962,2.679,0.58,4.039-0.047
			c2.935-1.348,5.273-3.797,8.197-4.959c3.28-1.305,6.091-2.958,8.421-5.588c0.898-1.01,1.983-1.851,2.705-3.035
			c0.63-1.027,0.558-1.929-0.353-2.735c-0.939-0.835-2.086-1.709-3.271-1.41c-2.573,0.653-4.979,0.43-7.387-0.538
			c-1.343-0.823-1.94-2.19-2.62-3.516c-0.871-1.704-1.793-3.364-4.042-3.575c-0.583-0.056-1.23-0.408-1.095-1.209
			c0.124-0.729,0.765-0.889,1.37-1.006c1.914-0.371,3.22,0.633,4.402,1.95c1.912,2.129,4.033,3.849,7.174,3.392
			c1.513,1.982,3.877,2.654,5.904,3.847c1.018,0.599,1.918,0.565,2.824-0.152c1.589-1.255,3.249-1.21,4.96-0.271
			c1.192,0.654,2.365,1.351,3.577,1.966c0.91,0.464,1.348,0.982,0.982,2.099c-0.458,1.413,0.452,2.45,1.651,2.529
			c2.521,0.166,2.9,1.74,3.082,3.714c0.48,5.227,2.862,9.695,5.739,13.937c1.045,1.542,2.422,1.703,3.821,0.491
			c2.266-1.962,3.307-4.584,2.944-7.472c-0.201-1.602,0.305-2.357,1.417-3.219c2.739-2.124,5.835-3.985,7.758-6.877
			c1.635-2.454,4.021-2.204,6.234-2.74c0.562-0.135,1.157,0.369,1.498,0.924c1.313,2.117,3.005,4.019,3.057,6.772
			c0.027,1.493,0.906,2.549,2.672,2.379c2.488-0.236,3.783,1.01,3.194,3.457c-1.211,5.04-0.943,9.595,3.37,13.178
			c0.153,0.122,0.247,0.328,0.33,0.513c0.237,0.502,1.247,0.887,0.627,1.479c-0.704,0.678-1.355-0.075-1.89-0.599
			c-0.919-0.908-1.784-1.878-2.75-2.741c-0.838-0.753-1.936-0.981-2.783-0.207c-0.808,0.736,0.073,1.551,0.469,2.16
			c0.848,1.302,2.022,2.358,2.859,3.702c1.945,3.114,4.025,6.15,6.02,9.231c0.309,0.48,0.693,0.811,1.182,1.085
			c3.299,1.855,6.101,4.785,10.288,4.725c0.169-0.004,0.857,0.158,1.387,0.295c0.984-1.271,2.059-2.257,3.162-3.014
			c-2.632-0.873-6.244-0.9-8.813-0.922C408.916,310.436,407.771,310.668,407.896,309.423z M248.106,203.852
			c-0.105,0.961-0.319,1.971-1.522,2.079c-0.99,0.09-1.237-0.631-1.227-1.399c-0.018-1.147,0.351-1.993,1.511-2.116
			C247.843,202.313,248.199,202.988,248.106,203.852z M280.506,234.099c-1.147-1.119-2.281-2.253-3.413-3.392
			c-0.526-0.533-1.063-1.035-1.898-0.929c-0.269-0.272-0.539-0.546-0.81-0.82c0.384-0.639-1.387-2.143,0.821-2.05
			c0.813,0.545,1.624,1.088,2.437,1.634c0.06,0.511,0.309,0.799,0.862,0.742c0.974,0.979,1.948,1.953,2.927,2.932
			c-0.061,0.545,0.222,0.792,0.737,0.836c-0.011,0.136,0.016,0.269,0.073,0.391C282.121,234.861,281.538,235.104,280.506,234.099z
			 M310.93,169.246c0.843,0.068,1.077,0.663,1.056,1.413c-0.012,0.66-0.207,1.284-0.969,1.232c-0.824-0.053-1.307-0.637-1.338-1.472
			C309.646,169.59,310.124,169.178,310.93,169.246z M302.464,230.89c-1.204,0.452-2.401,0.991-3.651,1.262
			c-2.104,0.454-3.354-1.005-2.543-3.01c0.567-1.396,1.108-2.709,1.117-4.274c0.006-1.433,1.293-1.519,2.406-1.659
			c1.809,0.343,3.851,0.172,4.572,2.583c0.264,0.882,1.213,1.22,2.083,1.496c1.915,0.612,3.569,1.636,4.879,3.194
			c0.34,0.408,0.876,0.773,0.541,1.395c-0.276,0.519-0.889,0.441-1.288,0.306c-1.563-0.529-3.336-0.002-4.8-1.303
			C304.946,230.14,303.59,230.466,302.464,230.89z M313.45,279.994c-0.237-1.545-1.684-2.25-2.433-3.455
			c-1.822-2.924-2.863-6.164-4.108-9.313c-0.834-2.094-1.764-4.119-2.74-6.142c-0.292-0.61-1.148-1.352-0.236-1.954
			c0.857-0.568,1.267,0.488,1.779,0.938c1.252,1.094,2.091,2.492,2.812,3.972c2.295,4.684,4.576,9.365,6.864,14.049
			C315.312,279.308,315.772,281.071,313.45,279.994z M325.997,238.184c-0.138-0.935-0.046-1.899-0.08-2.851
			c-0.021-0.585,0.153-1.287-0.723-1.45c-0.023-0.7-0.046-1.4-0.068-2.101c0.704-0.631,0.004-1.127-0.238-1.563
			c-1.007-1.795-1.55-3.687-1.474-5.75c0.382-0.524,0.622-1.183,1.351-1.362c1.481-0.229,2.898-1.103,4.47-0.436
			c0.187,0.188,0.371,0.378,0.557,0.566c-0.2,0.94-1.07,0.938-1.732,1.181c-1.089,0.399-2.29,0.693-2.415,2.115
			c-0.127,1.453,0.064,2.832,1.519,3.655c0.063,1.062,1.066,1.581,1.418,2.474c0.118,0.087,0.294,0.18,0.42,0.27
			c-0.126-0.09-0.304-0.183-0.422-0.271c-0.031,1.077-0.232,2.182-0.062,3.228c0.247,1.526,0.215,3.263,1.897,4.166
			c0.007,0.247,0.011,0.495,0.013,0.744C327.842,241.693,326.393,240.866,325.997,238.184z M361.558,144.455
			c-0.667,0.19-0.735-0.424-0.727-0.92c0.015-0.938,0.508-1.541,1.416-1.727c0.545-0.111,0.928,0.144,0.935,0.912
			C363.037,143.546,362.444,144.202,361.558,144.455z M369.867,165.421c-0.914-0.167-2.027-0.295-2.07-1.766
			c-0.021-0.766,0.271-1.407,1.119-1.338c1.194,0.101,2.272,0.55,2.415,1.942C371.422,165.105,370.814,165.417,369.867,165.421z"/>
		<path fill="#97BF0D" d="M78.988,229.038c-1.861,2.572-1.729,5.228-0.459,7.997c0.235,0.515,0.139,1.195,0.152,1.797
			c0.013,0.579,0.095,1.083,0.759,1.251c0.025,0.244,0.053,0.487,0.08,0.731c-0.038,0.546,0.254,0.799,0.764,0.862
			c-0.002,0.127,0.019,0.249,0.066,0.37c-0.049,0.545,0.244,0.795,0.749,0.867c-0.004,0.125,0.018,0.248,0.069,0.363
			c-0.043,0.541,0.246,0.793,0.747,0.863c0.621,2.214,2.144,4.039,3.919,5.046c2.554,1.448,3.458,3.696,4.406,6.077
			c1.888,4.75,5.445,8.431,8.078,12.703c0.493,0.794,1.374,0.933,2.183,0.534c0.973-0.476,0.467-1.276,0.241-1.958
			c-0.671-2.048-1.972-3.71-3.246-5.397c-0.861-1.137-1.687-2.305-2.468-3.497c-0.283-0.427-0.721-1.108-0.117-1.447
			c0.647-0.362,0.875,0.403,1.107,0.868c0.297,0.6,0.369,1.285,0.903,1.797c2.086,2.021,4.099,4.107,6.045,6.278
			c1.842,2.057,3.167,4.134,3.647,6.88c0.259,1.476,0.614,3.399,2.317,3.834c3.805,0.966,7.133,3.355,11.036,3.806
			c3.25,0.375,6.318,0.828,8.643,3.39c0-0.002,0.13,0.028,0.13,0.028l0.135-0.007c0.473,0.907,1.35,0.959,2.213,1.038
			c1.804,0.601,3.096,1.823,4.106,3.389c0,1.259,0.042,2.493,1.611,2.866c0.138,0.321,0.406,0.434,0.732,0.455
			c1.005,1.424,2.621,1.456,4.099,1.742c1.191,0.231,2.498,0.93,3.479-0.485c0.363-0.059,0.722-0.118,1.084-0.177
			c0.941,0.218,1.189,0.857,1.305,1.767c0.198,1.607-0.437,3.021-0.793,4.501c-0.037,0.249-0.077,0.495-0.116,0.743
			c-1.112,0.479-1.318,1.508-1.535,2.532c-0.485,1.688-1.971,2.557-3.081,3.732c-1.751,1.847-1.899,6.25-0.32,8.229
			c2.128,2.673,4.232,5.427,5.147,8.75c1.123,4.061,3.106,7.155,7.354,8.399c0.501,0.147,0.932,0.562,1.368,0.883
			c1.217,0.911,1.933,2.051,1.842,3.659c-0.071,1.292,0.028,2.59-0.001,3.888c-0.111,5.203,0.418,10.486-1.895,15.424
			c-0.166,0.354-0.165,0.798-0.191,1.205c-0.308,4.739-0.57,9.479-2.658,13.885c-0.541,1.149-0.3,2.261,0.783,3.103
			c0.505,0.394,0.939,0.938,0.49,1.576c-0.948,1.341-0.715,3.158-1.908,4.425c-0.576,0.613-0.486,1.488-0.071,2.307
			c1.729,3.398,1.146,6.566-1.054,9.542c-0.614,0.827-1.236,1.705-1.237,2.752c-0.001,2.795-0.592,5.539-0.496,8.349
			c0.159,4.661,2.12,6.953,6.685,7.476c1.43,0.159,1.913,1.038,1.229,2.237c-1.562,2.744-0.347,4.744,2.882,4.748
			c1.773,0.006,3.549,0.068,5.318-0.022c1.005-0.054,2.363,0.604,2.914-0.755c0.59-1.455-0.415-2.448-1.438-3.3
			c-0.465-0.386-0.989-0.721-1.526-1.003c-4.742-2.498-5.607-7.749-1.879-11.479c0.241-0.244,0.482-0.483,0.722-0.727
			c2.797-2.821,2.848-3.684,0.158-6.521c-0.766-0.803-0.909-1.374-0.069-2.205c2.024-1.996,2.999-4.679,4.472-7.04
			c0.499-0.797,0.674-1.604-0.077-2.428c-1.087-1.194-0.409-1.661,0.837-1.764c1.1-0.087,1.969-0.708,2.037-1.681
			c0.155-2.241,1.584-2.333,3.269-2.425c3.627-0.192,6.176-3.527,5.331-7.009c-0.323-1.33,0.301-1.667,1.33-1.614
			c1.596,0.093,2.688-0.657,3.736-1.734c1.202-1.243,2.216-2.592,2.94-4.151c1.664-3.575,3.186-7.231,4.997-10.734
			c1.966-3.803,5.061-6.368,9.135-7.905c2.746-1.039,4.463-3.355,5.567-6.07c1.387-0.987,1.308-2.595,1.518-3.984
			c0.457-3.065,0.566-6.185,2.711-8.722c0.813-0.965,1.812-1.859,1.887-3.262c0.002,0.002,0.005,0.02,0.005,0.02
			c4.065-3.266,3.701-7.931-0.794-10.24c-0.606-0.311-1.221-0.623-1.756-1.033c-1.207-0.918-2.588-1.209-4.016-1.646
			c-3.159-0.972-6.544-1.384-9.301-3.673c-1.551-1.286-3.69-2.136-5.874-0.871c-0.306,0.179-0.646,0.328-0.947,0.088
			c-0.401-0.315-0.297-0.748-0.05-1.093c0.711-0.984,0.869-1.999,0.184-3.034c-1.946-2.944-4.461-5.209-8.019-5.87
			c-1.715-0.317-3.051-1.043-4.214-2.265c-2.116-2.226-4.377-4.247-7.028-5.878c-1.734-1.066-3.299-1.163-4.973-0.257
			c-1.735,0.938-3.155,0.576-4.366-0.849c-1.521-1.79-3.313-2.996-5.708-2.094c-2.076,0.788-4.78,1.374-5.857,2.961
			c-1.257,1.854-3.244,2.776-4.368,4.653c-1.061,1.77-2.98,1.484-4.608,0.923c-1.591-0.55-2.492-1.809-2.496-3.612
			c-0.003-1.37,0.18-2.706,0.358-4.059c0.274-2.101-0.632-3.235-2.71-3.087c-3.593,0.256-3.579-1.217-3.284-4.179
			c0.062-0.602,0.269-1.195,0.453-1.779c0.268-0.854,0.638-1.75-0.204-2.455c-0.841-0.702-1.88-0.827-2.904-0.497
			c-1.405,0.443-2.598,1.276-3.384,2.521c-1.325,2.106-3.367,1.438-5.186,1.367c-1.679-0.067-2.311-1.373-2.759-2.852
			c-0.743-2.447-0.92-4.932-0.868-7.465c0.07-3.483,2.242-5.628,5.786-5.634c2.101-0.003,4.116,0.022,6.172-0.936
			c2.16-1.006,4.59-0.076,6.789,0.425c1.403,0.318,1.241,2.266,1.773,3.484c0.704,1.613,1.218,3.281,2.902,4.304
			c1.483,0.899,2.274,0.388,2.908-0.934c0.471-0.987,0.454-1.999-0.089-2.943c-0.642-1.117-1.363-2.195-2.036-3.296
			c-1.291-2.115-1.116-3.608,0.653-5.44c0.327-0.341,0.749-0.584,1.107-0.895c2.013-1.742,3.916-3.585,5.502-5.742
			c0.347-0.475,0.654-0.993,0.381-1.499c-0.715-1.335,0.18-2.016,0.98-2.761c1.164-1.084,2.557-2.319,2.285-3.912
			c-0.398-2.319,1.052-2.16,2.393-2.37c0.735-0.115,1.516-0.047,2.213-0.266c1.072-0.331,1.738-0.979,0.712-2.074
			c-1.383-1.473-0.374-2.112,0.887-2.685c1.981-2.108,2.691-2.145,6.272-0.35c1.237-0.014,2.542,0.301,3.564-0.742
			c0.876-1.099,1.425-2.199,0.132-3.396c-0.698-0.647-1.376-1.323-2.023-2.026c-0.781-0.848-1.144-1.828-0.795-3.004
			c0.789-2.637,0.113-3.385-2.637-2.994c-0.714,0.104-1.477,0.802-2.24-0.059c0.828-0.832,1.536-1.673,2.744-1.736
			c2.308,0.009,4.618,0.019,6.927,0.03c0.285-0.002,0.57,0,0.854,0c0.678,0.075,1.424,0.312,1.651-0.691
			c1.789-1.224,2.84-3.361,5.177-3.954c0.916-0.233,1.056-1.303,0.987-2.23c0.377-0.297,0.366-0.566-0.057-0.803
			c-0.686-3.168-2.416-4.902-4.922-4.928c-0.928-0.87-1.162-2.314-2.404-2.928c-0.024-0.255-0.051-0.512-0.077-0.767
			c-0.854-3.666-3.196-6.696-4.376-10.231c-0.286-0.854-1.184-1.125-1.993-0.329c-0.778,0.763-1.525,1.559-2.317,2.31
			c-0.627,0.598-1.272,1.468-2.237,1.042c-0.961-0.426-1.563-1.356-1.673-2.425c-0.112-1.081-0.063-2.179-0.062-3.269
			c0.001-0.771-0.061-1.553-0.665-2.076c-2.789-2.402-5.791-4.194-9.714-3.892c-3.164,0.241-4.555,2.432-3.079,5.15
			c0.454,0.841,0.996,1.652,0.34,2.651c-1.947,2.964-1.114,5.811,0.39,8.624c0.024,0.273,0.051,0.547,0.076,0.819
			c-0.005,1.304,0.004,2.575-1.235,3.48c-2.797,2.041-3.089,4.659-1.843,7.745c0.765,1.891,0.182,2.583-1.854,2.689
			c-0.188-1.086-1.016-1.728-1.705-2.467c0.004-0.068,0.018-0.134,0.013-0.205c-0.355-5.745-1.033-7.693-6.86-7.171
			c-2.163,0.195-3.938-1.181-4.641-3.266c-1.033-3.056-3.408-4.891-5.872-6.637c-1.309-0.931-1.864-1.924-0.937-3.433
			c0.744-1.212,1.192-2.698,2.169-3.656c2.011-1.974,3.277-4.955,6.682-5.222c0.833-0.065,1.65-0.852,1.597-1.653
			c-0.168-2.456,0.906-4.528,1.523-6.775c0.525-1.909,1.398-2.585,3.054-2.911c0.664-0.131,1.328-0.322,1.949-0.586
			c3.007-1.269,3.98-3.615,2.808-6.777c-0.249-0.671-0.469-1.467-0.137-1.982c1.246-1.934-0.008-3.192-1.067-4.494
			c-0.405-0.5-0.81-1.291-1.574-1.13c-0.885,0.186-1.214,1.057-1.448,1.843c-0.366,1.235-0.592,2.516-0.981,3.744
			c-0.242,0.763-0.549,1.68-1.617,1.536c-1.144-0.155-0.695-1.144-0.756-1.813c-0.083-0.91,0.005-1.849-1.384-1.719
			c-2.999,0.285-4.384-0.965-4.356-3.972c0.018-1.958-0.339-3.823-1.429-5.445c-2.13-3.174-3.067-3.146-5.043,0.03
			c-0.322,0.515-0.645,1.049-0.854,1.616c-0.551,1.507-0.926,3.14,0.093,4.511c1.067,1.433,1.733,3.085,2.792,4.503
			c0.706,0.949,1.279,1.938,0.014,2.796c-1.083,0.736-2.111,0.483-3.133-0.406c-1.429-1.243-1.499-2.797-1.44-4.474
			c0.039-1.105,0.008-2.383-1.208-2.782c-1.087-0.354-1.842,0.644-2.566,1.356c-0.242,0.238-0.496,0.488-0.649,0.783
			c-0.579,1.112-1.024,2.115,0.765,2.675c1.463,0.459,1.451,1.513,0.705,2.745c-0.422,0.699-2.281,1.267-3.987,1.73
			c0.221,7.302,0.275,14.064,0.08,19.642c-0.433,12.308-4.57,46.237-23.802,46.237c-4.41,0-7.984-1.136-11.13-2.912
			c-0.001,1.142-0.006,1.956-0.015,2.104C79.335,228.167,79.277,228.636,78.988,229.038z M147.153,227.965
			c0.184-1.168,1.059-1.455,2.105-1.416c0.884-0.002,1.529,0.358,1.368,1.312c-0.229,1.358-1.395,0.989-2.286,1.044
			C147.695,228.942,147.016,228.847,147.153,227.965z M136.335,227.479c-0.691,1.075-0.787,2.271-0.812,3.503
			c-0.018,0.817-0.507,1.265-1.325,1.168c-0.863-0.101-1.053-0.729-0.925-1.486c0.218-1.397,0.386-2.801,0.665-4.185
			c0.223-1.11,1.143-1.74,2.096-1.384C137.209,225.536,136.897,226.604,136.335,227.479z M146.568,230.325
			c-0.272,1.146-1.194,1.791-2.314,2.145c-0.704,0.223-1.271-0.205-1.24-0.917c0.063-1.336,0.934-2.021,2.212-2.151
			C145.818,229.342,146.498,229.302,146.568,230.325z M131.908,219.503c0.366-0.386,0.696-0.636,1.014-0.75
			C132.604,218.867,132.274,219.117,131.908,219.503c0.939,0.001,1.879,0.003,2.818,0.004c1.227,0.081,2.001,0.995,2.446,1.867
			c1.006,1.97,2.648,2.302,4.548,2.298c0.176,0.314,0.459,0.37,0.784,0.327c0.873,0.333,2.2,0.735,1.909,1.686
			c-0.447,1.455-1.971,2.169-3.342,2.812c-0.166,0.078-0.398,0.014-0.6,0.015c-0.256-0.258-0.51-0.52-0.765-0.778
			c-0.446-2.296-3.403-4.916-5.64-4.942c-1.415-0.016-2.832,0.057-4.248,0.087c-0.02,0.206-0.047,0.433-0.206,0.522
			c0.159-0.088,0.188-0.316,0.206-0.523c-0.257-0.02-0.516-0.039-0.773-0.058l-0.035-0.036c-0.014-0.392-0.028-0.787-0.042-1.179
			C129.621,220.446,130.606,219.754,131.908,219.503z"/>
		<path fill="#97BF0D" d="M261.546,191.276c0.407,1.273,1.343,2.34,2.935,2.498c1.648,0.167,2.499-0.76,3.146-2.068
			c0.306-0.608,0.585-1.246,0.993-1.774c0.396-0.51,0.835-1.251,1.629-0.962c0.755,0.273,0.459,1.055,0.435,1.623
			c-0.097,2.678,0.021,5.264,1.615,7.612c1.339,1.976,3.2,2.324,4.916,0.646c1.144-1.118,1.708-2.56,2.111-4.107
			c0.416-1.608,0.499-3.333,1.782-4.66c2.151-2.221,1.764-4.237-0.673-5.725c-6.185,1.909-12.752,2.706-18.957,2.763
			C260.875,188.034,260.979,189.509,261.546,191.276z"/>
		<path fill="#97BF0D" d="M291.96,118.641c1.454-0.106,3.023,1.233,4.278,0.063c1.565-1.46,3.069-3.052,4.022-5.045
			c0.687-1.446,0.296-2.492-1.161-3.134c-2.41-1.065-4.54-2.344-7.56-2.25c-2.488,0.077-3.934,0.432-4.978,2.563
			c-0.143,0.296-1.265,1.329-2.021,2.054c1.045,2.03,2.396,3.902,3.93,5.676C289.949,118.609,291.575,118.668,291.96,118.641z"/>
		<path fill="#97BF0D" d="M223.856,169.547c-1.026-0.573-2.245-0.175-3.32-0.754c-1.958-1.048-3.192-0.229-3.043,1.986
			c0.203,3.049,0.191,6.246,4.008,7.388c0.865,0.258,1.348,1.432,2.467,1.2c2.115-0.434,4.249-0.787,6.283-1.566
			c0.227-0.087,0.892-0.696,1.667-1.476c-2.673-2.055-5.176-4.378-7.41-6.953C224.196,169.555,223.955,169.641,223.856,169.547z"/>
		<path fill="#97BF0D" d="M120.627,136.728c0.484-0.958,1.093-2.894-0.946-3.566c-0.758-0.249-1.59-0.308-2.395-0.391
			c-2.006-0.203-3.094,1.065-2.748,3.06c0.177,1.022,0.626,2.238-0.989,2.621c0.018,0.571,0.035,1.143,0.05,1.71
			c0.659,0.101,0.674,0.618,0.62,1.087c-0.206,1.76,0.677,3.165,1.535,4.535c1.286,2.048,3.684,2.186,5.313,0.396
			c1.779-1.957,1.845-4.067,0.209-6.254C120.569,138.977,119.867,138.233,120.627,136.728z"/>
		<path fill="#97BF0D" d="M433.681,306.516c-0.632-1.034-1.259-2.091-1.277-3.396c-0.011-0.658-0.542-1.098-1.176-1.263
			c-0.738-0.198-1.336-0.539-1.151-1.384c0.203-0.922,1.054-1.057,1.793-0.976c1.141,0.124,2.256,0.453,3.389,0.649
			c0.711,0.123,1.204-0.212,1.313-0.943c0.112-0.789-0.338-1.087-1.07-1.134c-1.615-0.101-3.346-0.07-4.789,0.3
			c-1.374,0.354-2.927,1.682-3.162,3.421c-0.353,2.614,1.047,5.188,2.895,5.895c0.47,0.182,0.904,0.9,1.098,1.558
			c0.774,0.114,1.512,0.263,2.219,0.437C433.99,308.746,434.203,307.366,433.681,306.516z"/>
		<path fill="#97BF0D" d="M439.728,246.08c1.443,0.022,2.988-1.524,3.284-3.127c0.22-1.184-0.463-3.086-1.076-4.532
			c-1.877,0.488-3.885,0.908-6.05,1.24c0.621,1.067,1.251,2.725,1.446,3.662C437.617,244.694,437.954,246.049,439.728,246.08z"/>
		<path fill="#97BF0D" d="M460.48,231.114c2.867,1.128,5.945-0.291,7.081-3.263c-0.149,0.013-0.273-0.141-0.393-0.377
			c-2.313,0.833-4.521,1.898-6.779,3.063C460.557,230.789,460.63,231,460.48,231.114z"/>
		<path fill="#97BF0D" d="M489.987,314.613c0.179-0.824,0.03-1.537-0.98-1.611c-0.989-0.07-1.267,0.596-1.25,1.444
			c0.013,0.693,0.087,2.208,0.142,3.43c0.671-0.35,1.338-0.723,1.995-1.115C489.876,315.917,489.917,314.936,489.987,314.613z"/>
		<path fill="#97BF0D" d="M112.994,105.843c-0.281-1.141-0.823-2.162-2.253-2.193c-0.185,0.054-0.36,0.117-0.522,0.188
			c0.103,1.23,0.209,2.519,0.32,3.865c0.1,0.011,0.193,0.025,0.299,0.03C112.467,108.088,113.363,107.344,112.994,105.843z"/>
		<path fill="#97BF0D" d="M160.808,273.271c-0.988-0.458-2.019-0.838-2.961-1.37c-1.241-0.706-2.348-1.647-3.842-0.405
			c-0.476,0.393-1.136-0.053-1.654-0.455c-3-2.326-7.063-2.178-10.164-4.307c-0.278-0.191-0.799-0.028-1.208-0.028
			c0-0.013,0-0.024,0-0.039c-0.272,0-0.545-0.013-0.818,0.003c-1.252,0.073-3.414,1.778-3.213,2.658
			c0.385,1.666,1.825,1.234,3.003,1.36c1.303,0.142,2.729-0.52,3.895,0.619c2.222,2.171,5.004,3.084,8.01,3.419
			c0.676,0.073,1.11,0.42,1.569,0.84c2.871,2.62,4.667,2.714,7.681,0.426C162.469,274.955,162.366,273.998,160.808,273.271z"/>
		<path fill="#97BF0D" d="M164.875,274.928c-0.753,0.008-1.25,0.523-1.312,1.25c-0.068,0.762,0.485,1.041,1.17,1.007
			c0.724-0.033,1.049-0.484,1.07-1.14C165.777,275.399,165.506,274.915,164.875,274.928z"/>
		<path fill="#97BF0D" d="M325.753,318.891c-0.866-0.411-1.582,0.191-2.169,0.753c-1.28,1.229-2.307,2.861-3.796,3.699
			c-5.102,2.862-2.815,8.391-4.708,12.38c-0.173,0.361,0.204,1.056,0.442,1.536c0.852,1.703,2.006,3.284,4.033,3.355
			c1.997,0.074,2.7-1.78,3.142-3.273c1.081-3.62,1.931-7.309,2.78-10.984c0.407-1.786,0.601-3.617,0.862-5.264
			C326.253,320.202,326.606,319.294,325.753,318.891z"/>
		<path fill="#97BF0D" d="M213.516,124.214c0.873-1.129,1.619-2.339,2.111-3.699c0.422-1.168,0.367-2.224-0.846-2.793
			c-1.253-0.588-2.065,0.067-2.555,1.245c-0.154,0.379-0.318,0.766-0.556,1.092c-0.595,0.81-1.321,2.109-2.346,1.389
			c-1.047-0.733,0.197-1.616,0.688-2.343c1.032-1.542,0.646-2.543-1.193-2.752c-0.955-0.11-1.656-0.385-1.549-1.438
			c0.203-1.966-0.895-2.813-2.555-3.362c-0.695-0.228-1.47-0.581-1.915-1.12c-1.435-1.731-3.254-2.112-5.306-1.811
			c-2.537-0.319-4.81,0.208-6.541,2.142c-3.09,3.452-7.202,4.766-11.537,5.591c-2.417,0.461-3.617,1.706-3.762,4.241
			c-0.041,0.704-0.515,1.112-0.996,1.469c-0.654,0.483-1.353,0.925-2.084,1.279c-2.71,1.316-2.823,2.163-1.086,4.508
			c0.842,1.137,0.673,2.085-0.291,3.073c-1.333,1.375-3.062,1.975-4.767,2.649c-1.589,0.625-1.669,1.848-1.117,3.18
			c0.255,0.618,0.926,0.954,1.498,1.346c1.545,1.063,1.494,1.556-0.14,2.483c-0.82,0.466-1.53,0.976-0.845,2.083
			c1.415,2.285,3.887,3.345,6.596,2.81c0.932-0.183,1.87-0.324,2.807-0.49c1.989-0.355,3.304,0.407,3.898,2.353
			c0.953,3.123,1.676,6.264,1.195,9.574c-0.208,1.442-0.397,2.947,1.712,3.265c0.769,0.114,0.774,0.74,0.367,1.236
			c-1.024,1.25-0.263,1.813,0.805,2.28c1.11,0.484,1.189,1.029,0.386,1.993c-1.254,1.499-1.765,3.257-1.783,5.285
			c-0.039,4.326,1.861,8.033,3.438,11.853c0.253,0.621,0.794,1.126,1.445,1.392c4.57,1.867,4.578,1.862,6.417-2.824
			c0.225-0.568,0.525-1.159,0.539-1.749c0.068-2.791,1.646-4.41,3.877-5.853c3.523-2.28,5.706-6.175,10.145-7.568
			c2.624-0.822,2.372-2.082-0.045-3.903c-0.421-0.318-0.978-0.722-0.466-1.325c0.532-0.625,0.97-0.113,1.344,0.288
			c0.394,0.419,0.603,1.192,1.416,0.792c0.84-0.411,1.062-1.154,1.03-2.05c-0.025-0.793-0.365-1.456-0.736-2.1
			c-0.817-1.416-0.671-2.721,0.339-3.969c0.556-0.688,1.13-1.36,1.653-2.069c1.965-2.66,1.718-4.775-0.779-7
			c-0.396-0.354-0.938-0.684-0.843-1.314c0.119-0.782,0.811-0.601,1.313-0.609c0.955-0.016,1.099-0.603,1.086-1.363
			c-0.013-0.683,0.021-1.364-0.001-2.047c-0.021-0.584,0.155-1.307-0.71-1.47c-0.728-0.135-1.145,0.288-1.424,0.899
			c-0.329,0.729-0.771,1.44-1.681,0.974c-1.02-0.522-0.782-1.475-0.468-2.335c0.365-1.002,1.229-1.617,1.942-2.34
			c0.765-0.775,0.887-1.39-0.325-1.761c-0.706-0.216-1.193-0.634-1.393-1.354c-0.349-1.279,0.508-2.781,1.815-2.957
			c1.542-0.207,1.771,0.861,1.799,2.072c0.011,0.436-0.202,1.021,0.41,1.222c0.168,0.053,0.634-0.21,0.632-0.327
			c-0.012-1.34,1.268-2.75-0.064-4.009C212.071,126.803,212.486,125.548,213.516,124.214z"/>
		<path fill="#97BF0D" d="M172.852,164.982c-2.506-1.504-6.24-2.534-4.739-6.161c0.553-2.373-0.626-3.289-1.66-3.899
			c-2.163-1.278-3.706-3.186-5.561-4.774c-1.309-1.121-2.559-2.386-4.602-2.314c-2.907,0.103-3.069-0.182-3.555-3.142
			c-0.227-1.385-0.851-2.219-2.353-1.196c-0.497,0.338-1.043,0.419-1.54,0.105c-1.505-0.945-2.891-1.027-4.218,0.341
			c-1.639,1.689-3.079,3.75-2.287,5.989c0.883,2.502,2.207,5.023,4.678,6.53c1.145,0.697,1.841,1.571,1.661,2.993
			c-0.187,1.472,0.625,2.195,1.978,2.273c1.278,0.075,1.755-0.662,1.762-1.933c0.011-1.264,0.868-1.74,2.075-1.704
			c2.506,0.075,5.165,2.257,5.588,4.606c0.549,3.044-1.069,7.2-3.261,8.006c-0.898,0.331-1.823,0.455-1.515,1.667
			c0.28,1.11,1.202,1.448,2.241,1.312c1.748-0.228,3.011,0.61,4.145,1.757c1.008,1.019,1.902,2.16,2.999,3.068
			c1.093,0.9,2.302,2.249,3.763,0.38c0.14-0.18,0.473-0.291,0.719-0.295c0.954-0.019,1.978,0.141,2.316-1.116
			c0.377-1.385-0.022-2.541-1.036-3.527c-0.98-0.952-1.945-1.918-2.888-2.902c-0.453-0.476-0.761-1.16-0.211-1.63
			c0.67-0.573,1.052,0.118,1.407,0.628c0.505,0.728,0.982,1.514,2.013,1.554c1.206,0.049,3.91-1.67,4.084-2.656
			C175.172,167.143,174.561,166.002,172.852,164.982z"/>
		<path fill="#97BF0D" d="M148.542,127.307c-0.975,1.268-0.724,2.123,0.363,2.92c1.666,1.218,3.576,2.017,5.569,2.434
			c1.447,0.304,3.066-0.317,3.068-1.894c0.003-1.881,1.021-2.85,2.142-3.93c1.297-1.255,2.237-2.748,2.839-4.434
			c0.274-0.766,0.655-1.342,1.452-1.561c1.648-0.448,2.835-1.538,4.007-2.711c1.24-1.243,2.295-2.716,3.997-3.444
			c0.669-0.288,0.956-0.761,0.407-1.441c-0.451-0.557-0.541-1.482,0.107-1.535c3.128-0.251,2.385-1.912,1.56-3.729
			c-0.128-0.283-0.045-0.676-0.019-1.016c0.099-1.244-0.506-2.145-1.211-3.127c-2.063-2.875-5.219-2.098-7.818-2.667
			c-1.048,0.155-2.04-0.242-2.79,0.29c-2.636,1.861-5.711,2.861-8.481,4.444c-0.689,0.394-1.404,0.96-1.309,1.927
			c0.096,0.991,0.805,1.566,1.653,1.896c1.687,0.654,3.333,1.544,5.276,0.924c0.584-0.187,1.249-0.013,1.512,0.708
			c0.13,0.357,0.019,0.702-0.329,0.868c-1.46,0.701-2.89,1.795-4.413,1.956c-1.946,0.207-2.251,1.071-2.12,2.646
			c0.055,0.677-0.048,1.369,0.021,2.043c0.167,1.674-0.141,2.973-2.098,3.322c-0.541,0.097-1.038,0.569-1.09,1.121
			C150.676,125.011,149.459,126.112,148.542,127.307z"/>
		<path fill="#97BF0D" d="M143.442,117.947c-0.468,2.014,2.086,4.277,3.771,3.557c1.701-0.728,3.875-4.268,3.82-6.308
			c-0.114-0.374-0.161-0.887-0.402-1.274c-0.819-1.307-1.049-2.721-1.245-4.234c-0.26-1.985-1.633-3.415-3.332-4.412
			c-1.389-0.816-2.506-0.502-2.996,1.152c-0.773,2.599-0.877,5.25-0.009,7.818C143.47,115.494,143.762,116.573,143.442,117.947z"/>
		<path fill="#97BF0D" d="M145.218,128.696c-0.489-0.977-4.531-2.283-5.433-1.649c-1.736,1.222-3.163,0.806-4.521-0.591
			c-0.948-0.976-1.9-1.946-2.89-2.88c-0.962-0.908-2.092-1.496-3.894-1.544c-0.594-0.052-1.596,0.149-1.832,1.269
			c-0.252,1.204,0.885,1.359,1.684,1.641c2.107,0.743,3.28,2.177,3.097,4.434c-0.14,1.695,0.433,2.388,2.148,2.174
			c0.937-0.119,1.684,0.41,2.402,0.953c0.867,0.65,1.915,0.977,2.882,0.552c1.291-0.571,2.582-0.702,3.952-0.756
			C144.262,132.236,145.787,129.828,145.218,128.696z"/>
		<path fill="#97BF0D" d="M124.37,101.588c-0.531-0.042-0.977-0.277-1.169-0.698c-0.887-1.955-3.121-1.922-4.535-3.115
			c-0.6-0.505-1.549-0.346-2.236,0.316c-0.719,0.699-0.288,1.346,0.002,2.038c0.578,1.371,1.754,2.23,2.752,3.231
			c0.776,0.773,1.135,1.416,0.239,2.404c-0.715,0.788,0.752,3.772,1.848,3.937c0.564,0.084,1.006-0.195,1.08-0.7
			c0.274-1.832,1.021-1.335,1.979-0.506c0.85,0.737,1.64,0.502,1.724-0.604c0.099-1.285,0.68-2.503,0.478-3.684
			C126.542,101.777,126.543,101.763,124.37,101.588z"/>
		<path fill="#97BF0D" d="M135.293,135.081c-0.622-0.27-1.242-0.55-1.885-0.763c-2.825-0.932-4.5,0.16-4.767,3.112
			c-0.043,0.473-0.005,0.95-0.005,1.329c-0.179,2.44,0.894,4.6,1.008,6.911c0.03,0.614,0.448,1.387,1.321,1.283
			c0.755-0.089,1.337-0.685,1.236-1.389c-0.267-1.86,0.903-2.869,2.03-3.967c0.935-0.908,1.59-2.021,2.163-3.184
			C137.117,136.938,136.898,135.778,135.293,135.081z"/>
		<path fill="#97BF0D" d="M124.121,124.314c-1.367-1.391-2.159,0.156-3.112,0.681c-0.519,0.289-0.897,0.927-1.595,0.582
			c-0.668-0.332-0.501-1.023-0.607-1.615c-0.318-1.764,0.665-3.289,0.86-4.949c0.049-0.944-0.227-1.8-0.868-2.441
			c-0.803-0.803-2.108-1.276-2.927-0.825c-1.022,0.567,0.298,1.331,0.529,2.019c0.269,0.801,0.624,1.64-0.058,2.285
			c-0.886,0.837-1.436-0.111-2.024-0.613c-0.412-0.353-0.83-0.866-1.405-0.468c-0.512,0.354-0.365,1.012-0.277,1.521
			c0.243,1.398,1.711,1.896,2.332,2.985c1.614,2.844,4.006,4.249,7.237,4.509c1.191,0.094,2.604,0.869,3.33-0.406
			C126.322,126.201,125.015,125.226,124.121,124.314z"/>
		<path fill="#97BF0D" d="M139.589,171.072c-1.388-0.821-1.992,0.598-2.865,1.25c-1.496,1.117-1.25,2.461-0.447,3.759
			c0.75,1.212,1.728,2,3.375,1.246c1.022-0.466,2.207-0.598,3.33-0.816c0.695-0.136,1.114-0.449,1.155-1.194
			C143.655,172.811,141.402,172.14,139.589,171.072z"/>
		<path fill="#97BF0D" d="M143.789,136.208c-0.026,1.843,1.515,3.008,4.036,3.052c2.5,0.042,3.68-0.742,3.696-2.453
			c0.024-2.295-1.215-3.643-3.366-3.663C145.797,133.121,143.813,134.515,143.789,136.208z"/>
		<path fill="#97BF0D" d="M131.362,111.335c1.432,0.842,2.542,0.19,2.559-1.588c-0.009-0.126,0.027-0.35-0.046-0.53
			c-0.567-1.382-1.144-2.759-1.745-4.128c-0.387-0.883-0.801-1.877-1.977-1.756c-1.316,0.132-1.709,1.241-1.903,2.341
			C127.864,107.871,129.056,109.981,131.362,111.335z"/>
		<path fill="#97BF0D" d="M118.666,114.32c0.401,0.319,0.72,0.914,1.363,0.467c0.467-0.323,0.767-0.764,0.691-1.735
			c-0.357-0.956-1.001-2.129-2.076-3.002c-0.389-0.313-0.898-0.29-1.341-0.019c-0.468,0.285-0.566,0.748-0.481,1.243
			C117.034,112.526,117.678,113.528,118.666,114.32z"/>
		<path fill="#97BF0D" d="M149.991,176.162c-0.928,0.053-1.633,0.513-1.614,1.475c0.018,0.893,0.813,0.95,1.526,0.944
			c0.822-0.001,1.537-0.191,1.567-1.185C151.502,176.403,150.849,176.114,149.991,176.162z"/>
		<path fill="#97BF0D" d="M479.022,304.194c-0.644-0.41-1.352-0.121-1.674,0.305c-1.215,1.619-3.115,2.311-4.566,3.583
			c-1.758,1.542-3.07,1.655-4.787,0.052c-1.708-1.592-3.389-3.081-5.94-3.178c-0.889-0.03-1.791-0.62-2.622-1.067
			c-2.968-1.604-3.308-1.652-5.636,0.704c-1.193,1.206-2.006,0.902-2.731-0.293c-0.543-0.887-1.217-1.63-1.956-2.339
			c-0.612-0.587-1.342-0.684-2.076-0.361c-0.854,0.377-1.262,1.178-1.012,2.022c0.521,1.762,1.191,3.617,3.145,4.19
			c3.723,1.098,7.168,2.269,9.486,5.876c1.426,2.216,2.942,2.132,5.089,0.659c1.668-1.144,3.084-0.817,4.407,0.431
			c1.048,0.989,2.211,1.804,3.412,2.576c1.267,0.811,2.26,0.184,3.045-0.723c0.87-1.006-0.156-1.589-0.749-2.172
			c-0.529-0.518-1.169-0.926-1.746-1.406c-0.355-0.303-0.793-0.63-0.635-1.179c0.158-0.532,0.646-0.635,1.144-0.689
			c1.586-0.173,3.023-0.827,4.357-1.623c1.436-0.854,2.578-2.027,2.555-3.897C479.519,305.115,479.566,304.539,479.022,304.194z"/>
		<path fill="#97BF0D" d="M426.299,291.733c-1.86-1.309-2.794-1.255-4.159,0.423c-0.428,0.521-0.727,1.147-1.151,1.676
			c-1.796,2.213-3.614,4.458-6.118,5.854c-1.236,0.694-2.009,1.313-1.746,2.691c-0.069,1.061-0.091,2.076,0.908,2.604
			c1.498,0.796,2.991,1.701,4.6,2.148c1.123,0.314,2.663,0.777,3.546-0.615c1.164-1.831,2.14-3.778,3.519-5.474
			c0.328-0.398,0.387-0.918,0.196-1.357c-0.738-1.66-0.16-3.116,0.813-4.378C427.803,293.884,427.816,292.798,426.299,291.733z"/>
		<path fill="#97BF0D" d="M447.558,249.798c0.181-2.055,2.504-3.468,4.266-2.496c1.058,0.581,1.771,0.437,2.513-0.375
			c0.368-0.405,0.816-0.677,1.345-0.878c4.359-1.651,5.755-5.244,6.195-9.626c-0.068-0.394-0.137-0.933-0.261-1.458
			c-0.184-0.758-0.098-1.82-1.246-1.794c-1.006,0.022-2.094,0.198-2.567,1.306c-0.315,0.745-0.52,1.542-0.728,2.329
			c-1.018,3.769-3.746,6.414-7.503,6.389c-2.613-0.019-4.011,1.332-5.374,3.035c-1.555,1.94-1.296,4.069,0.502,5.803
			c0.861,0.831,1.514,0.63,2.239-0.149C447.513,251.271,447.49,250.548,447.558,249.798z"/>
		<path fill="#97BF0D" d="M437.163,287.267c-2.188,0.152-3.2-0.814-3.767-2.692c-0.095-0.313-0.349-0.579-0.55-0.852
			c-1.088-1.478-0.925-1.938,0.945-2.363c0.619-0.136,1.29-0.157,1.354-0.949c0.068-0.798-0.591-0.965-1.196-1.139
			c-1.523-0.434-1.914-1.373-1.247-2.799c0.201-0.428,0.342-0.89,0.459-1.352c0.317-1.3-0.164-2.307-1.309-2.915
			c-1.094-0.58-1.922-0.008-2.679,0.806c-2.491,2.678-2.095,8.016,0.876,10.49c0.666,0.557,0.796,1.076,1.021,1.902
			c0.449,1.672,1.813,3.118,0.723,5.023c-0.045,0.083,0.168,0.365,0.311,0.499c1.064,1.007,2.313,1.644,3.637,1.871
			c1.482,0.03,3.923-2.007,3.88-3.28C439.575,288.02,438.305,287.192,437.163,287.267z"/>
		<path fill="#97BF0D" d="M427.252,284.699c-1.006,0.024-2.534,1.624-2.451,2.59c0.068,0.787,0.62,0.952,1.518,0.958
			c1.095-0.212,2.003-0.982,2.284-2.248C428.809,285.081,428.14,284.681,427.252,284.699z"/>
		<path fill="#97BF0D" d="M441.027,301.296c1.146-0.027,1.731-0.857,2.01-1.999c-0.244-0.896-0.732-1.543-1.793-1.493
			c-1.104,0.054-1.749,0.665-1.774,1.78C439.448,300.61,440.002,301.325,441.027,301.296z"/>
		<path fill="#97BF0D" d="M481.22,313.009c-1.133-0.051-1.261,0.775-1.241,1.637c0.024,0.789-0.083,1.81,1.108,1.718
			c0.938-0.069,1.254-0.877,1.239-1.768C482.333,313.802,482.21,313.051,481.22,313.009z"/>
		<path fill="#97BF0D" d="M481.273,308.482c-0.951-0.097-1.521,0.521-1.612,1.43c-0.099,0.957,0.547,1.271,1.598,1.3
			c0.58,0,1.357-0.072,1.414-1.075C482.725,309.198,482.18,308.571,481.273,308.482z"/>
		<path fill="#97BF0D" d="M461.282,287.7c0.031,0.961,0.735,1.369,1.54,1.393c0.909-0.025,1.453-0.341,1.428-1.201
			c-0.028-1.052-0.841-1.37-1.658-1.438C461.829,286.39,461.26,286.952,461.282,287.7z"/>
		<path fill="#97BF0D" d="M443.25,305.186c-1.146-0.341-2.116,0.039-2.955,0.819c-0.346,0.324-0.709,0.737-0.426,1.227
			c0.409,0.702,1.063,0.407,1.609,0.19c0.872-0.341,2.093-0.074,2.475-1.27C443.905,305.634,443.664,305.313,443.25,305.186z"/>
		<path fill="#97BF0D" d="M436.112,285.336c0.963-0.002,1.426-0.589,1.554-1.434c-0.049-0.91-0.546-1.222-1.332-1.222
			c-0.896-0.002-1.373,0.423-1.375,1.334C434.954,284.789,435.269,285.34,436.112,285.336z"/>
		<path fill="#97BF0D" d="M437.098,303.553c-1.019,0.01-1.509,0.672-1.513,1.537c-0.008,0.82,0.774,0.756,1.381,0.788
			c0.817-0.021,1.512-0.227,1.501-1.224C438.46,303.772,437.863,303.545,437.098,303.553z"/>
		<path fill="#97BF0D" d="M488.649,308.893c-0.706,0.03-1.187,0.326-1.198,1.093c-0.022,0.87,0.519,1.186,1.313,1.193
			c0.804,0.004,1.291-0.347,1.307-1.189C489.997,309.087,489.418,308.865,488.649,308.893z"/>
		<path fill="#97BF0D" d="M320.89,116.329c0.529,0.096,1.09,0.078,1.632,0.044c0.896-0.054,1.529,0.286,2.09,1
			c1.796,2.286,3.372,2.052,4.876-0.461c0.729-1.219,1.81-2.251,3.472-2.149c0.631,0.039,0.832,0.477,0.747,0.989
			c-0.25,1.567-1.324,2.604-2.726,2.938c-1.148,0.274-1.624,0.686-1.263,1.74c0.351,1.017,1.249,1.7,2.24,1.085
			c2.137-1.326,4.521-1.287,6.782-1.842c2.897-0.712,7.016-0.725,8.144-5.02c0.289-1.087,2.367-2.016,1.214-3.195
			c-1.434-1.454-2.255,0.61-3.245,1.34c-0.506,0.373-0.949,0.883-1.602,0.395c-0.586-0.439-0.516-1.07-0.268-1.669
			c0.284-0.688,0.732-1.321,0.634-2.104c0.082-1.246-0.548-1.977-1.702-1.644c-2.021,0.579-4.278,0.606-5.763,2.588
			c-1.223,1.629-2.853,1.999-4.634,0.643c-1.176-0.894-2.203-1.359-2.908,0.636c-0.337,0.958-1.489,1.655-2.063,0.222
			c-0.574-1.437-1.542-1.275-2.621-1.288c-1.76-0.016-2.765,1.343-4.007,2.231c-0.547,0.389-1.497,0.868-1.117,1.73
			C319.17,115.386,319.871,116.143,320.89,116.329z"/>
		<path fill="#97BF0D" d="M349.673,109.791c1.219-0.107,1.932-0.853,2.115-2.037c0.1-0.628-0.004-1.322-0.874-1.225
			c-1.277,0.14-1.81,1.204-2.434,2.061C348.585,109.407,348.962,109.852,349.673,109.791z"/>
	</g>
</g>
<g id="Ebene_6">
	<g>
		<g>
			<g>
				<defs>
					<path id="SVGID_1_" d="M108.925,89.292c0,0,6.092,63.286,5.047,92.998c-0.434,12.308-4.57,46.237-23.802,46.237
						c-20.709,0-23.073-24.892-48.489-24.892c-15.139,0-41.055,9.865-41.055,53.192c0,33.143,21.005,49.511,37.781,49.511
						c24.96,0,21.414-19.64,47.875-19.64c26.097,0,27.142,24.412,27.142,37.917c0,13.504-3.319,51.283-9.684,89.475
						c4.819,0.727,12.558,1.601,25.368,5.593c17.369,5.409,30.689,9.682,58.513,9.682s43.238-10.5,43.238-22.503
						c0-18.594-17.049-15.549-17.049-37.918s22.505-32.735,45.009-32.735c22.506,0,45.238,10.866,45.238,38.056
						c0,24.55-14.277,18.685-14.277,39.008c0,20.322,24.413,19.777,30.552,19.777c6.138,0,67.106-1.999,94.93-7.683
						c-1.09-14.458-4.998-72.608-4.998-90.475c0-23.643,11.001-25.961,16.865-25.961c17.595,0,18.414,13.413,43.237,13.413
						c22.46,0,44.325-21.551,44.325-54.33c0-29.599-20.73-42.283-37.779-42.283s-22.776,14.73-52.103,14.73
						c-10.363,0-17.275-4.137-17.275-24.324c0-40.672,4.546-81.199,4.727-119.571c-20.365-3.001-72.697-10.913-101.611-10.913
						c-26.414,0-28.323,11.049-28.323,18.278c0,18.64,25.643,24.187,25.643,42.009c0,32.644-25.962,41.191-47.239,41.191
						c-18.596,0-46.328-17.004-46.328-43.737c0-13.139,3.681-17.117,7.467-20.905c5.662-5.663,12.196-9.056,12.196-18.013
						c0-15.549-15.709-18.187-34.122-18.187S108.925,89.292,108.925,89.292z"/>
				</defs>
				<clipPath id="SVGID_2_">
					<use xlink:href="#SVGID_1_"  overflow="visible"/>
				</clipPath>
				<g clip-path="url(#SVGID_2_)">
					
						<linearGradient id="SVGID_3_" gradientUnits="userSpaceOnUse" x1="139.2588" y1="121.6145" x2="139.2588" y2="669.6423" gradientTransform="matrix(1 0 0 1 0.0801 -327.2031)">
						<stop  offset="0" style="stop-color:#FFFFFF;stop-opacity:0.9"/>
						<stop  offset="1" style="stop-color:#FFFFFF;stop-opacity:0.05"/>
					</linearGradient>
					<circle fill="url(#SVGID_3_)" cx="139.339" cy="68.425" r="274.014"/>
				</g>
			</g>
		</g>
	</g>
</g>
</svg>
