<?xml version="1.0" encoding="UTF-8" standalone="no"?>
<svg xmlns="http://www.w3.org/2000/svg" xmlns:sodipodi="http://sodipodi.sourceforge.net/DTD/sodipodi-0.dtd" xmlns:inkscape="http://www.inkscape.org/namespaces/inkscape" version="1.0" width="580" height="580">
 <metadata id="metadata1976"/>
 <defs id="defs4">
  <marker viewBox="0 0 10 10" refY="5" refX="10" orient="auto" markerWidth="4" markerUnits="strokeWidth" markerHeight="3" id="ArrowStart">
   <path id="path2111" d="M 10 0 L 0 5 L 10 10 z"/>
  </marker>
  <marker viewBox="0 0 10 10" refY="5" orient="auto" markerWidth="4" markerUnits="strokeWidth" markerHeight="3" id="ArrowEnd">
   <path id="path2108" d="M 0 0 L 10 5 L 0 10 z"/>
  </marker>
 </defs>
 <g id="g1327">
  <path d="M 66.275,1.768 C 24.94,1.768 1.704,23.139 1.704,66.804 L 1.704,516.927 C 1.704,557.771 22.6,579.156 63.896,579.156 L 515.92,579.156 C 557.227,579.156 578.149,558.842 578.149,516.927 L 578.149,66.804 C 578.149,24.203 557.227,1.768 514.628,1.768 C 514.624,1.768 66.133,1.625 66.275,1.768 z" id="path1329" fill="#734A08" stroke="#eeeeee" stroke-width="3.408"/>
 </g>
 <path d="m 287.54752,24.82936 c -24.5642,0.06768 -44.92229,15.567008 -65.52354,26.987265 -23.6266,12.365832 -50.62737,17.687102 -77.22099,16.180484 -8.00914,0.305743 -20.08645,0.324417 -22.53392,9.886424 -2.15787,9.897214 7.83419,15.915256 12.76404,22.905207 11.45648,13.41133 23.07625,26.52693 35.15395,39.32286 1.82819,-2.55786 9.43787,-4.26659 4.7588,-7.46361 -13.46471,-16.05758 -28.7322,-30.82111 -40.62307,-48.084441 -1.04162,-7.231398 7.6892,-8.790534 13.09269,-8.177775 20.58788,-0.158094 42.23864,1.050276 60.8922,-9.1012 27.49688,-12.521769 52.84281,-33.892662 84.49479,-34.171994 30.38666,0.588659 55.36729,20.333943 81.25868,33.786037 18.35049,10.37796 38.78565,17.893659 60.09046,17.16022 6.97194,0.550013 15.773,-1.034926 20.84165,4.690856 2.87596,7.13959 -5.66769,10.852295 -9.18145,15.653647 -11.7667,11.78781 -23.58354,23.52236 -35.41137,35.23323 2.9898,1.25929 5.99773,7.36385 8.65624,4.72247 16.12086,-16.62216 33.67318,-31.88907 48.28719,-49.849689 2.29368,-6.32431 -0.55094,-15.255652 -8.28454,-15.638991 C 441.06622,74.794223 422.07122,76.909676 404.28451,71.322273 370.47919,62.297039 344.54784,34.736063 310.4674,26.610697 302.99921,25.016955 295.24308,24.686109 287.54752,24.82936 z M 86.939209,111.3133 c -7.480359,-0.10892 -9.42973,8.79164 -9.365986,14.63106 -1.74212,17.58642 -1.18225,35.93733 -8.565617,52.31922 -12.430588,34.66836 -41.044731,62.89874 -44.79943,100.6102 -2.552721,26.14426 10.564347,49.89374 22.505126,72.18771 13.453163,25.22346 25.051864,53.10611 22.323464,82.31766 -0.379358,8.12228 -0.29675,19.85888 8.372287,23.45428 7.600494,2.07507 12.74036,-5.647 18.644668,-8.877 15.058949,-11.14712 28.974229,-23.48771 42.841169,-36.0424 -2.82391,-2.3273 -4.80551,-10.40584 -8.45925,-4.86144 -15.04154,12.38722 -29.14242,26.10343 -45.069945,37.2521 -7.002255,1.01076 -8.498645,-7.66615 -7.659752,-12.82563 0.49503,-17.5436 0.175452,-35.66235 -8.045709,-51.51035 -13.134565,-30.46259 -35.800093,-58.28599 -37.259646,-92.68893 -0.07709,-31.58405 20.166541,-57.80352 34.647018,-84.1979 10.455182,-18.12728 18.315784,-38.22984 17.605553,-59.4373 0.619876,-6.21604 -1.35145,-15.1109 4.839301,-18.88218 7.453385,-2.05341 11.07661,6.79784 16.26955,10.33176 11.6531,11.40284 22.69484,23.27382 34.64702,34.40951 2.69949,-3.46275 8.27333,-6.92192 2.19535,-10.04834 -16.36459,-16.41676 -31.74328,-33.8695 -50.113335,-48.05296 -1.845609,-0.16378 -3.701492,-0.12879 -5.551836,-0.0891 z m 407.421611,11.3115 c -7.35395,3.57028 -11.69328,11.1389 -18.43645,15.64292 -11.53353,10.66344 -23.31673,21.05092 -34.64741,31.91879 2.70845,1.84416 4.59348,9.76923 7.77213,5.39132 15.1099,-13.23809 29.08548,-28.1614 45.4008,-40.00865 6.86617,-1.56278 8.89515,6.98407 7.89726,12.05372 -0.43005,18.62403 0.45963,37.86428 9.22682,54.71696 13.0417,31.06158 34.53943,60.16856 35.72227,94.9451 -0.83228,30.28543 -20.72727,55.03345 -34.82515,80.3977 -10.19431,17.1618 -17.7315,36.52991 -16.92271,56.85436 -0.69502,6.52265 1.09037,15.72452 -5.28463,19.77285 -7.27002,2.38507 -11.53184,-6.10985 -16.437,-9.71802 -10.90632,-10.40093 -21.81604,-20.79828 -32.72792,-31.19337 -1.24026,2.86873 -7.84194,5.8402 -3.35486,8.31291 17.02487,15.734 32.42127,33.41155 51.00564,47.02732 7.70962,1.2974 13.22536,-6.475 13.06314,-13.53817 2.43855,-16.4053 1.1859,-33.65916 7.77851,-49.28368 10.40368,-32.05008 35.33582,-57.40908 43.76153,-90.16537 5.32885,-23.21576 -0.24145,-47.67258 -11.34119,-68.37368 -14.68592,-30.88062 -33.06529,-62.6132 -31.41092,-98.09233 -0.41235,-8.64176 0.68502,-19.2053 -5.96748,-25.71064 -3.21457,-1.3148 -6.8931,-0.84761 -10.27238,-0.95004 z M 156.38169,440.5045 c -14.42676,16.34815 -32.17238,29.66881 -44.41469,47.79923 -2.41602,7.88733 5.31381,15.11765 12.9903,14.61794 16.48463,2.15517 33.7904,0.89995 49.44559,7.55971 30.51758,9.87269 55.22918,33.16025 86.13153,42.20025 26.66016,7.00514 55.22902,1.12873 78.64851,-12.65283 29.06686,-14.16175 59.6492,-29.8491 92.97915,-27.70364 8.02831,-0.40369 17.63905,0.23055 23.89998,-5.25801 2.97274,-5.84104 1.25082,-13.02853 -4.01377,-16.95623 -13.3288,-15.82981 -27.88544,-30.90815 -41.44003,-46.60783 -1.37399,2.31848 -9.79202,4.42475 -5.19557,6.56126 12.84137,14.87015 27.72134,28.63501 39.42695,44.68189 2.58939,6.57768 -5.79706,9.97262 -11.07399,9.11451 -22.49335,-1.60489 -45.15583,2.26282 -65.28602,12.6178 -28.67962,13.3844 -57.45313,32.64058 -90.55133,30.69839 -33.26122,-2.25785 -59.17506,-25.66237 -88.02777,-39.63476 -15.51146,-7.85626 -32.70407,-11.49812 -50.0259,-11.3115 -5.50746,-0.008 -15.09661,0.40621 -15.31951,-7.15504 1.11914,-6.84299 8.58545,-10.01724 12.24261,-15.41228 10.40026,-10.75101 20.75797,-21.53492 31.16265,-32.26819 -3.31886,-1.71288 -6.56929,-8.6647 -9.44451,-3.09113 -0.71139,0.73349 -1.42279,1.46698 -2.13418,2.20046 z" id="path3575" fill="#ffffff" stroke="#ffffff" stroke-linejoin="round" stroke-linecap="round" stroke-width="9.5"/>
 <g id="g5215" transform="matrix(1.0478814,0,0,1.0478814,-14.016475,-23.016508)">
  <path sodipodi:nodetypes="cscccccccccccc" id="path4356" d="m 198.67153,429.13471 c -27.9052,-15.73923 -44.91267,-52.53932 -32.35461,-107.5395 8.80965,-38.58338 34.48036,-86.20137 14.80642,-125.85126 23.86554,16.49562 48.67818,55.72148 73.70237,100.02462 1.72552,-47.91091 -23.1357,-79.3021 -5.26444,-144.77247 12.26268,80.9952 61.45228,86.01536 86.42474,159.68842 10.62203,-34.63889 32.71786,-46.03994 21.93521,-132.05003 108.58157,148.29018 46.69562,200.96776 25.00613,254.00987 l 7.0193,-73.70234 c -34.05505,98.44168 -61.34018,116.60289 -85.98606,138.63059 13.7744,-46.21019 19.20596,-92.4204 -8.77412,-138.63059 -6.79301,75.87173 -25.9655,60.08286 -29.83187,121.08241 -38.33494,-28.93346 -46.20823,-58.61344 -53.08324,-107.04388 -5.21553,5.66709 -14.0221,29.35386 -13.59983,56.15416 z" fill="#ffffff" fill-rule="evenodd"/>
  <path sodipodi:nodetypes="ccc" id="path4358" d="M 278.07704,75.100248 C 249.68045,190.40668 301.5257,189.3936 330.28289,257.16259 350.4538,152.66532 290.11046,176.17723 278.07704,75.100248 z" fill="#ffffff" fill-rule="evenodd"/>
 </g>
 <path d="m 83.620844,116.43162 -5.563986,44.51188 -15.102245,38.9479 -27.025072,50.07587 -10.333115,37.35818 17.486811,49.28102 24.640506,48.48616 10.333115,66.76782 56.434712,-43.71703 29.40963,31.7942 -48.48615,50.87073 8.7434,7.94855 32.58905,3.17941 30.2045,7.94856 51.66557,30.20448 36.56334,11.12798 34.97362,-4.76913 44.51188,-19.87138 38.9479,-15.10225 42.12732,-5.56398 18.28166,-11.12797 -45.30673,-46.89644 32.58905,-30.2045 48.48616,46.10159 8.74341,-14.30739 4.76913,-42.92217 21.46109,-41.33246 23.05079,-43.71703 5.56399,-30.99935 -14.30739,-39.74274 -23.84565,-44.51189 -9.53826,-45.30674 -3.97429,-34.97362 -27.81992,20.66623 -28.61478,25.43536 -28.61478,-30.99935 45.30674,-49.281008 -9.53826,-10.333115 -42.92218,-4.76913 -40.53761,-15.897101 -44.51188,-24.640506 -32.58906,-7.153696 -38.94789,8.743406 -37.35819,22.255941 -34.17877,10.333116 -54.05014,3.974275 0,9.53826 46.1016,52.460428 -33.38392,28.61479 -56.434706,-48.48616 z" id="path6053" opacity=".1" fill="#ffffff" fill-rule="evenodd"/>
</svg>
