<?xml version="1.0" encoding="UTF-8" standalone="no"?>
<svg xmlns="http://www.w3.org/2000/svg" xmlns:sodipodi="http://sodipodi.sourceforge.net/DTD/sodipodi-0.dtd" xmlns:inkscape="http://www.inkscape.org/namespaces/inkscape" version="1.0" width="580" height="580">
 <metadata id="metadata2975"/>
 <defs id="defs4">
  <symbol viewBox="244.5 110 489 219.9" id="symbol-university">
   <path id="path4460" d="M79,43l57,119c0,0,21-96,104-96s124,106,124,106l43-133l82-17L0,17L79,43z"/>
   <path id="path4462" d="M94,176l-21,39" stroke-width="20" stroke="#000000" fill="none"/>
   <path id="path4464" d="M300,19c0,10.5-22.6,19-50.5,19S199,29.5,199,19s22.6-19,50.5-19S300,8.5,300,19z"/>
   <path id="path4466" d="M112,216l-16-38L64,88c0,0-9-8-4-35s16-24,16-24" stroke-width="20" stroke="#000000" ill="none"/>
  </symbol>
 </defs>
 <g id="g1327">
  <path d="M 66.275,1.768 C 24.94,1.768 1.704,23.139 1.704,66.804 L 1.704,516.927 C 1.704,557.771 22.599,579.156 63.896,579.156 L 515.92,579.156 C 557.227,579.156 578.149,558.841 578.149,516.927 L 578.149,66.804 C 578.149,24.203 557.227,1.768 514.628,1.768 C 514.624,1.768 66.133,1.625 66.275,1.768 z " id="path1329" fill="#734A08" stroke="#eee" stroke-width="3.408"/>
 </g>
 <path d="M 286.94406,44.001595 L 34.884618,235.90902 L 85.296174,235.90902 L 85.296174,543.77001 L 236.53218,543.77001 L 340.81297,543.77001 L 488.59196,543.77001 L 488.59196,235.90902 L 539.00386,235.90902 L 286.94406,44.001595 L 286.94406,44.001595 L 286.94406,44.001595 z" id="path645" sodipodi:nodetypes="cccccccccccc" opacity=".2" fill="#ffffff" fill-rule="evenodd" stroke="#ffffff" stroke-width="1.241"/>
 <g id="g7376">
  <path d="M 286.94406,34.001595 L 34.884618,225.90902 L 85.296174,225.90902 L 85.296174,543.77001 L 236.53218,543.77001 L 340.81297,543.77001 L 488.59196,543.77001 L 488.59196,225.90902 L 539.00386,225.90902 L 286.94406,34.001595 L 286.94406,34.001595 L 286.94406,34.001595 z" id="path3198" sodipodi:nodetypes="cccccccccccc" fill="none" fill-rule="evenodd" stroke="#ffffff" stroke-linejoin="round" stroke-width="20"/>
 </g>
 <g id="g7429" transform="translate(20.714286,6.9047619)">
  <g transform="matrix(0.72874211,0.31791172,-0.31791172,0.72874211,171.56325,-23.649792)" id="g7395">
   <path d="m 266.3125,331.0625 c -4.37763,5.92064 -29.89848,10.46875 -60.71875,10.46875 -30.39471,0 -55.61015,-4.41796 -60.5,-10.21875 l 0,74.25 c -0.11729,0.31171 -0.1875,0.61972 -0.1875,0.9375 0,6.77937 27.16141,12.28125 60.6875,12.28125 33.31348,0 60.34581,-5.43622 60.6875,-12.15625 l 0.0312,0 0,-0.125 0,-75.4375 z" id="path7344" inkscape:connector-curvature="0" fill="#ffffff"/>
   <path sodipodi:type="arc" id="path7364" sodipodi:cx="205.60846" sodipodi:cy="279.25925" sodipodi:rx="61.37566" sodipodi:ry="12.275132" d="m 266.98412,279.25925 c 0,6.77937 -27.47882,12.27513 -61.37566,12.27513 -33.89684,0 -61.37566,-5.49576 -61.37566,-12.27513 0,-6.77937 27.47882,-12.27514 61.37566,-12.27514 33.89684,0 61.37566,5.49577 61.37566,12.27514 z" transform="translate(0,32)" fill="#ffffff" stroke="#000000" stroke-linecap="round" stroke-width=".5"/>
   <path id="path7391" d="m 266.3125,417.0625 c -4.37763,5.92064 -29.89848,10.46875 -60.71875,10.46875 -30.39471,0 -55.61015,-4.41796 -60.5,-10.21875 l 0,8.25 c -0.11729,0.31171 -0.1875,0.61972 -0.1875,0.9375 0,6.77937 27.16141,12.28125 60.6875,12.28125 33.31348,0 60.34581,-5.43622 60.6875,-12.15625 l 0.0312,0 0,-0.125 0,-9.4375 z" inkscape:connector-curvature="0" sodipodi:nodetypes="csccssccccc" fill="#ffffff"/>
   <path sodipodi:nodetypes="csccssccccc" inkscape:connector-curvature="0" d="m 266.3125,311.0625 c -4.37763,5.92064 -29.89848,10.46875 -60.71875,10.46875 -30.39471,0 -55.61015,-4.41796 -60.5,-10.21875 l 0,8.25 c -0.11729,0.31171 -0.1875,0.61972 -0.1875,0.9375 0,6.77937 27.16141,12.28125 60.6875,12.28125 33.31348,0 60.34581,-5.43622 60.6875,-12.15625 l 0.0312,0 0,-0.125 0,-9.4375 z" id="path7393" fill="#ffffff"/>
  </g>
  <g transform="translate(-6,-2)" id="g7407">
   <path sodipodi:type="arc" id="path7403" sodipodi:cx="418.50528" sodipodi:cy="367.10318" sodipodi:rx="18.796297" sodipodi:ry="15.727513" d="m 437.30158,367.10318 c 0,8.68607 -8.41539,15.72751 -18.7963,15.72751 -10.38091,0 -18.7963,-7.04144 -18.7963,-15.72751 0,-8.68607 8.41539,-15.72751 18.7963,-15.72751 10.38091,0 18.7963,7.04144 18.7963,15.72751 z" transform="matrix(0.72141853,-0.57837093,0.51147444,0.81577391,-63.840382,365.49477)" fill="#ffffff"/>
   <path d="M 422.72486,421.19048 230.15873,323.75662" id="path7405" inkscape:connector-curvature="0" sodipodi:nodetypes="cc" fill="none" stroke="#ffffff" stroke-linejoin="round" stroke-linecap="round" stroke-width="35.8"/>
  </g>
 </g>
 <g id="g7425" transform="matrix(1.7367305,0,0,1.7367305,-173.92643,-301.91227)">
  <path sodipodi:type="arc" id="path7415" sodipodi:cx="205.60846" sodipodi:cy="279.25925" sodipodi:rx="61.37566" sodipodi:ry="12.275132" d="m 266.98412,279.25925 c 0,6.77937 -27.47882,12.27513 -61.37566,12.27513 -33.89684,0 -61.37566,-5.49576 -61.37566,-12.27513 0,-6.77937 27.47882,-12.27514 61.37566,-12.27514 33.89684,0 61.37566,5.49577 61.37566,12.27514 z" transform="matrix(0.7950588,-0.00379775,0.00379775,0.7950588,51.761692,201.63857)" fill="#ffffff" stroke="#000000" stroke-linecap="round" stroke-width=".5"/>
  <path sodipodi:nodetypes="csccssccccc" inkscape:connector-curvature="0" d="m 264.5556,422.49828 c -3.45799,4.72388 -23.73129,8.43682 -48.23522,8.55387 -24.16558,0.11543 -44.23012,-3.30135 -48.13987,-7.89475 l 0.0313,6.55924 c -0.0921,0.24827 -0.14672,0.49342 -0.14552,0.74608 0.0258,5.39 21.64156,9.66116 48.29677,9.53384 26.48618,-0.12652 47.95783,-4.5513 48.20397,-9.89541 l 0.0248,-1.2e-4 -4.7e-4,-0.0994 -0.0358,-7.50337 z" id="path7419" fill="#ffffff"/>
 </g>
</svg>
