<?xml version="1.0" encoding="UTF-8" standalone="no"?>
<svg xmlns="http://www.w3.org/2000/svg" xmlns:sodipodi="http://sodipodi.sourceforge.net/DTD/sodipodi-0.dtd" xmlns:inkscape="http://www.inkscape.org/namespaces/inkscape" version="1.0" width="580" height="580">
 <metadata id="metadata10"/>
 <defs id="defs4">
  <marker viewBox="0 0 10 10" refY="5" refX="10" orient="auto" markerWidth="4" markerUnits="strokeWidth" markerHeight="3" id="ArrowStart">
   <path id="path2295" d="M 10 0 L 0 5 L 10 10 z"/>
  </marker>
  <marker viewBox="0 0 10 10" refY="5" orient="auto" markerWidth="4" markerUnits="strokeWidth" markerHeight="3" id="ArrowEnd">
   <path id="path2292" d="M 0 0 L 10 5 L 0 10 z"/>
  </marker>
 </defs>
 <g id="g1327">
  <path d="M 66.275,1.768 C 24.94,1.768 1.704,23.139 1.704,66.804 L 1.704,516.927 C 1.704,557.771 22.598,579.156 63.896,579.156 L 515.92,579.156 C 557.227,579.156 578.149,558.84 578.149,516.927 L 578.149,66.804 C 578.149,24.203 557.227,1.768 514.627,1.768 C 514.624,1.768 66.133,1.625 66.275,1.768 z" id="path1329" fill="#0092DA" stroke="#eeeeee" stroke-width="3.408"/>
 </g>
 <path d="m 213.56538,281.96297 c -21.26228,0 -32.54145,11.60781 -37.74859,25.19519 l -27.64104,71.37164 c -10.95741,1.40503 -30.38157,14.267 -30.38157,38.63263 l 0,90.76162 26.90434,0 0,29.02605 c 0,35.71056 50.53771,35.28999 50.53772,0 l 0,-29.02605 90.90897,0 0.0295,0 90.90892,0 0,29.02605 c 0,35.28999 50.53748,35.71056 50.53777,0 l 0,-29.02605 26.90429,0 0,-90.76162 c 0,-24.36561 -19.42402,-37.2276 -30.38162,-38.63263 l -27.67045,-71.37164 c -5.20713,-13.58738 -16.48619,-25.19519 -37.74863,-25.19519 l -39.07456,0 -66.53899,0 -39.54608,0 z m -0.32416,25.99083 72.84506,0 0.0589,0 0.0295,0 72.87447,0 c 9.11198,0.0849 13.01451,5.78327 15.61806,13.67316 l 20.83388,56.16614 -109.32641,0 -0.0295,0 -0.0589,0 -109.29704,0 20.83391,-56.16614 c 2.60358,-7.88989 6.50513,-13.58831 15.61807,-13.67316 z m -42.46346,97.15619 c 12.89334,0 23.3387,10.75748 23.3387,24.04593 -1e-5,13.2894 -10.44536,24.07541 -23.3387,24.07541 -12.8924,0 -23.33871,-10.78603 -23.33871,-24.07541 0,-13.28842 10.44631,-24.04593 23.33871,-24.04593 z m 230.76437,0 c 12.89335,0 23.3388,10.75751 23.33871,24.04593 0,13.28938 -10.44536,24.07541 -23.33871,24.07541 -12.89238,0 -23.36822,-10.78601 -23.36822,-24.07541 0,-13.28845 10.47584,-24.04593 23.36822,-24.04593 z" id="path2301" inkscape:connector-curvature="0" fill="#ffffff"/>
 <path inkscape:connector-curvature="0" d="m 169.8083,21.036129 c -10.69513,3.97e-4 -20.00111,3.873175 -27.92337,11.595293 -7.92154,7.722865 -11.8907,17.107746 -11.89109,28.189584 3.8e-4,11.094644 3.96955,20.52658 11.89109,28.248744 7.92226,7.7228 17.22824,11.56603 27.92337,11.56571 0.39434,0 0.7931,-0.02 1.18319,-0.0295 0.39452,0.0109 0.78433,0.0298 1.18319,0.0295 10.69514,3.2e-4 20.00115,-3.84291 27.92339,-11.56571 7.92155,-7.722164 11.86114,-17.1541 11.86151,-28.248744 -3.6e-4,-11.081838 -3.93996,-20.466719 -11.86151,-28.189584 -7.92224,-7.722118 -17.22825,-11.594896 -27.92339,-11.595293 -0.39875,9e-6 -0.7888,0.01959 -1.18319,0.02953 -0.38999,-0.0095 -0.78895,-0.02953 -1.18319,-0.02953 z m -30.28976,88.502861 c -2.41909,7e-5 -4.6052,0.27098 -6.56672,0.79866 a 33.927916,33.927916 0 0 0 -3.87496,-0.1479 33.927916,33.927916 0 0 0 -33.09984,34.69716 l 0.70992,79.12606 a 33.927916,33.927916 0 0 0 23.84135,33.0111 l 0,9.90925 0,3.01714 50.4632,-1.47899 50.4928,1.47899 0,-3.01714 0,-11.41782 a 33.927916,33.927916 0 0 0 19.87765,-32.1237 l -0.70991,-79.12607 a 33.927916,33.927916 0 0 0 -31.88707,-33.98724 c -1.88809,-0.47812 -3.96823,-0.73944 -6.27092,-0.7395 l -62.9755,0 z" id="path8791-2" stroke-width="1.553" stroke-linecap="round" fill="#ffffff" stroke-linejoin="round" stroke="#ffffff"/>
 <path id="path20631" d="m 397.8083,21.036129 c -10.69513,3.97e-4 -20.00111,3.873175 -27.92337,11.595293 -7.92154,7.722865 -11.8907,17.107746 -11.89109,28.189584 3.8e-4,11.094644 3.96955,20.52658 11.89109,28.248744 7.92226,7.7228 17.22824,11.56603 27.92337,11.56571 0.39434,0 0.7931,-0.02 1.18319,-0.0295 0.39452,0.0109 0.78433,0.0298 1.18319,0.0295 10.69514,3.2e-4 20.00115,-3.84291 27.92339,-11.56571 7.92155,-7.722164 11.86114,-17.1541 11.86151,-28.248744 -3.6e-4,-11.081838 -3.93996,-20.466719 -11.86151,-28.189584 -7.92224,-7.722118 -17.22825,-11.594896 -27.92339,-11.595293 -0.39875,9e-6 -0.7888,0.01959 -1.18319,0.02953 -0.38999,-0.0095 -0.78895,-0.02953 -1.18319,-0.02953 z m -30.28976,88.502861 c -2.41909,7e-5 -4.6052,0.27098 -6.56672,0.79866 a 33.927916,33.927916 0 0 0 -3.87496,-0.1479 33.927916,33.927916 0 0 0 -33.09984,34.69716 l 0.70992,79.12606 a 33.927916,33.927916 0 0 0 23.84135,33.0111 l 0,9.90925 0,3.01714 50.4632,-1.47899 50.4928,1.47899 0,-3.01714 0,-11.41782 a 33.927916,33.927916 0 0 0 19.87765,-32.1237 l -0.70991,-79.12607 a 33.927916,33.927916 0 0 0 -31.88707,-33.98724 c -1.88809,-0.47812 -3.96823,-0.73944 -6.27092,-0.7395 l -62.9755,0 z" inkscape:connector-curvature="0" stroke-width="1.553" stroke-linecap="round" fill="#ffffff" stroke-linejoin="round" stroke="#ffffff"/>
</svg>
