<?xml version="1.0" encoding="UTF-8" standalone="no"?>
<svg xmlns="http://www.w3.org/2000/svg" xmlns:sodipodi="http://sodipodi.sourceforge.net/DTD/sodipodi-0.dtd" xmlns:inkscape="http://www.inkscape.org/namespaces/inkscape" version="1.0" width="580" height="580">
 <metadata id="metadata2975"/>
 <defs id="defs4">
  <symbol viewBox="244.5 110 489 219.9" id="symbol-university">
   <path id="path4460" d="M79,43l57,119c0,0,21-96,104-96s124,106,124,106l43-133l82-17L0,17L79,43z"/>
   <path id="path4462" d="M94,176l-21,39" stroke-width="20" stroke="#000000" fill="none"/>
   <path id="path4464" d="M300,19c0,10.5-22.6,19-50.5,19S199,29.5,199,19s22.6-19,50.5-19S300,8.5,300,19z"/>
   <path id="path4466" d="M112,216l-16-38L64,88c0,0-9-8-4-35s16-24,16-24" stroke-width="20" stroke="#000000" ill="none"/>
  </symbol>
  <marker viewBox="0 0 10 10" refY="5" refX="10" orient="auto" markerWidth="4" markerUnits="strokeWidth" markerHeight="3" id="ArrowStart">
   <path id="path3634" d="M 10 0 L 0 5 L 10 10 z"/>
  </marker>
  <marker viewBox="0 0 10 10" refY="5" orient="auto" markerWidth="4" markerUnits="strokeWidth" markerHeight="3" id="ArrowEnd">
   <path id="path3631" d="M 0 0 L 10 5 L 0 10 z"/>
  </marker>
 </defs>
 <g id="g1327">
  <path d="M 66.275,1.768 C 24.94,1.768 1.704,23.139 1.704,66.804 L 1.704,516.927 C 1.704,557.771 22.599,579.156 63.896,579.156 L 515.92,579.156 C 557.227,579.156 578.149,558.841 578.149,516.927 L 578.149,66.804 C 578.149,24.203 557.227,1.768 514.628,1.768 C 514.624,1.768 66.133,1.625 66.275,1.768 z " id="path1329" fill="#0092DA" stroke="#eee" stroke-width="3.408"/>
 </g>
 <g id="g3640" transform="matrix(1.088903,0,0,1.088903,-42.543252,-50.246524)">
  <g id="g3642">
   <path d="M 337.192,529.286 C 359.675,519.554 370.166,520.87 388.67,530.551 C 407.175,540.233 425.678,540.233 447.503,529.1 C 469.325,517.966 487.087,524.313 496.942,530.286 C 505.192,535.286 513.442,537.286 525.786,537.286 L 525.786,492.756 C 507.192,492.786 499.216,486.464 499.216,486.464 C 480.002,474.604 462.389,476.95 438.192,489.536 C 424.39,496.712 402.503,494.824 387.008,486.746 C 365.657,475.614 353.569,478.336 331.192,488.286 C 313.855,495.994 298.208,495.99 280.942,488.286 C 258.579,478.308 247.046,475.614 225.695,486.746 C 210.201,494.824 187.994,496.712 174.192,489.536 C 149.994,476.95 132.702,474.604 113.486,486.464 C 113.486,486.464 105.192,492.756 86.9168,492.756 L 86.9168,537.286 C 98.4418,537.286 107.442,535.036 115.192,530.286 C 125.027,524.258 143.376,517.966 165.201,529.1 C 187.026,540.233 205.53,540.233 224.034,530.551 C 242.538,520.87 252.793,519.126 275.276,528.858 C 297.101,539.991 318.688,538.967 337.192,529.286 z" id="path3644" fill="#ffffff"/>
   <path d="M 256.4375 37.03125 L 256.4375 85.03125 L 200.65625 85.03125 L 200.65625 120.84375 L 160.84375 120.84375 L 160.84375 188.84375 L 140.1875 197.25 C 127.78816 202.5203 122.61441 213.59708 127.78125 225.71875 L 161.875 304.25 L 161.875 413.59375 C 139.78711 413.56834 120.9765 386.73546 80.78125 409.15625 C 80.781248 409.15626 69.280572 415.57315 51.84375 416 L 51.84375 462.875 C 65.469194 461.86341 71.9897 459.67635 82.3125 453.90625 C 93.273397 447.77792 113.32844 441.81474 137.09375 453.9375 C 160.86015 466.06026 181.00719 466.07292 201.15625 455.53125 C 221.30531 444.98958 238.86222 444.44989 257.71875 453.9375 C 281.48516 466.06026 300.13788 466.19668 324.09375 454.21875 C 343.42179 444.41862 360.78953 444.98958 380.9375 455.53125 C 401.08657 466.07292 421.23469 466.06026 445 453.9375 C 468.7653 441.81474 488.70199 447.9554 499.75 453.90625 C 509.45322 459.13191 516.27611 461.86341 530.25 462.875 L 530.25 415.5625 C 512.46495 415.13566 501.3125 408.71875 501.3125 408.71875 C 460.19226 386.28736 442.29114 413.59375 420.1875 413.59375 L 420.1875 304.25 L 454.3125 225.71875 C 459.47824 213.59709 454.30559 202.52029 441.90625 197.25 L 421.25 188.84375 L 421.25 120.84375 L 381.4375 120.84375 L 381.4375 85.03125 L 325.65625 85.03125 L 325.65625 37.03125 L 291.03125 37.03125 L 256.4375 37.03125 z M 230.09375 113.46875 L 291.03125 113.46875 L 352 113.46875 L 352 148.75 L 391.78125 148.75 L 391.78125 176.1875 L 291.03125 134.625 L 190.3125 176.1875 L 190.3125 148.75 L 230.09375 148.75 L 230.09375 113.46875 z " transform="matrix(0.9183554,0,0,0.9183554,39.069827,46.144169)" id="path3646" fill="#ffffff"/>
  </g>
 </g>
</svg>
