<?xml version="1.0" encoding="UTF-8" standalone="no"?>
<svg xmlns="http://www.w3.org/2000/svg" xmlns:sodipodi="http://sodipodi.sourceforge.net/DTD/sodipodi-0.dtd" xmlns:inkscape="http://www.inkscape.org/namespaces/inkscape" version="1.0" width="580" height="580">
 <metadata id="metadata2975"/>
 <defs id="defs4">
  <symbol viewBox="244.5 110 489 219.9" id="symbol-university">
   <path id="path4460" d="M79,43l57,119c0,0,21-96,104-96s124,106,124,106l43-133l82-17L0,17L79,43z"/>
   <path id="path4462" d="M94,176l-21,39" stroke-width="20" stroke="#000000" fill="none"/>
   <path id="path4464" d="M300,19c0,10.5-22.6,19-50.5,19S199,29.5,199,19s22.6-19,50.5-19S300,8.5,300,19z"/>
   <path id="path4466" d="M112,216l-16-38L64,88c0,0-9-8-4-35s16-24,16-24" stroke-width="20" stroke="#000000" ill="none"/>
  </symbol>
 </defs>
 <g id="g1327">
  <path d="M 66.275,1.768 C 24.94,1.768 1.704,23.139 1.704,66.804 L 1.704,516.927 C 1.704,557.771 22.599,579.156 63.896,579.156 L 515.92,579.156 C 557.227,579.156 578.149,558.841 578.149,516.927 L 578.149,66.804 C 578.149,24.203 557.227,1.768 514.628,1.768 C 514.624,1.768 66.133,1.625 66.275,1.768 z " id="path1329" fill="#0092DA" stroke="#eee" stroke-width="3.408"/>
 </g>
 <path d="m 292.93639,126.60507 c -138.92248,0 -251.535355,38.0229 -251.535355,84.93686 0,37.95775 73.747745,70.08101 175.477935,80.97022 l -25.47378,0 -83.40842,195.96613 373.48196,0 -75.18403,-195.96613 -37.2645,0 c 101.73019,-10.88921 175.44154,-43.01247 175.44154,-80.97022 0,-46.91396 -112.61287,-84.93686 -251.53535,-84.93686 z" id="rect2911" opacity=".2" fill="#ffffff" stroke="#ffffff" stroke-linejoin="round" stroke-linecap="round" stroke-width="12.779"/>
 <path d="m 99.11857,502.63171 85.91627,-213.5272" id="path2921" sodipodi:nodetypes="cc" fill="none" stroke="#ffffff" stroke-linecap="round" stroke-width="23.29"/>
 <path d="m 287.75,307.53125 12.84375,0 -2,-33.59375 -8.84375,0 -2,33.59375 z m -4,95.46875 20.84375,0 -2,-53.75 -16.84375,0 -2,53.75 z m -4,101.46875 28.84375,0 -2,-55.75 -24.84375,0 -2,55.75 z" id="path3697" sodipodi:nodetypes="ccccccccccccccc" color="#000000" stroke-width="24.866" fill="#ffffff"/>
 <path d="M 186.82941,288.57691 C 100.93692,275.06185 41.402846,245.64773 41.402846,211.53793 c 0,-46.91395 112.618914,-84.94522 251.541404,-84.94522 138.92248,0 251.5414,38.03127 251.5414,84.94522 l 0,0 0,0 c 0,33.45753 -57.27896,62.39726 -140.52826,76.24629" id="path4585" fill="none" stroke="#ffffff" stroke-linejoin="round" stroke-linecap="round" stroke-width="18.632"/>
 <path sodipodi:nodetypes="cc" id="path4580" d="M 494.1379,502.63171 408.22164,289.10451" fill="none" stroke="#ffffff" stroke-linecap="round" stroke-width="23.29"/>
</svg>
