<?xml version="1.0" encoding="UTF-8" standalone="no"?>
<svg xmlns="http://www.w3.org/2000/svg" version="1.0" width="580" height="580">
 <metadata id="metadata2975"/>
 <path mix-blend-mode="normal" white-space="normal" isolation="auto" id="path4136" d="m 217,211 c -48.6,7.6 -97,13.9 -146,22 -14.3,8.6 -0.2,21.6 7.9,28.4 l 93,89 c -7.6,48.6 -16.4,97 -23,146 3.8,16.2 20.5,7 29.5,1.3 l 114,-61 c 43.7,22.4 87,46 131,68 16.6,1.5 13,-17.3 10.4,-27.6 L 410,349 c 34.8,-34.6 71,-68 105,-104 6.5,-15.3 -12.5,-17.6 -23,-18.3 L 364,209 c -22,-43 -43,-87 -66,-131 -2,-2.3 -5,-3.6 -8.4,-3.8 -13,1.7 -14,17.2 -19.8,26.55 z" solid-color="#000000" opacity="0.8" color-interpolation-filters="linearRGB" filter-gaussianBlur-deviation="0" color="#000000" image-rendering="auto" color-rendering="auto" stroke-width="64" color-interpolation="sRGB" solid-opacity="1" fill="none" stroke-linejoin="round" filter-blend-mode="normal" stroke="#ffffff" shape-rendering="auto"/>
 <path d="m 217,211 c -48.6,7.6 -97,13.9 -146,22 -14.3,8.6 -0.2,21.6 7.9,28.4 l 93,89 c -7.6,48.6 -16.4,97 -23,146 3.8,16.2 20.5,7 29.5,1.3 l 114,-61 c 43.7,22.4 87,46 131,68 16.6,1.5 13,-17.3 10.4,-27.6 L 410,349 c 34.8,-34.6 71,-68 105,-104 6.5,-15.3 -12.5,-17.6 -23,-18.3 L 364,209 c -22,-43 -43,-87 -66,-131 -2,-2.3 -5,-3.6 -8.4,-3.8 -13,1.7 -14,17.2 -19.8,26.55 z" id="path4631-1" isolation="auto" white-space="normal" mix-blend-mode="normal" fill="#b7650c" color-rendering="auto" solid-opacity="1" color-interpolation-filters="linearRGB" shape-rendering="auto" image-rendering="auto" color-interpolation="sRGB" color="#000000" solid-color="#000000"/>
</svg>
