<?xml version="1.0" encoding="UTF-8" standalone="no"?>
<svg xmlns="http://www.w3.org/2000/svg" version="1.0" width="580" height="580">
 <metadata id="metadata10"/>
 <path id="path4158" d="M 323 52 C 319 55 316 57 313 60 L 324 83 L 307 92 L 299 73.900391 C 296 77.000391 293 79 290 81 C 287 83 285 85 283 86 C 264 94 239 90 220 98 C 201 106 188 125 171 133 C 149 142 135 134 115 143 C 108 147 101 153 95 159 L 109 152 L 123 180 L 105 189 L 92 162 C 90 164 87 166 85 169 L 254 521 L 264 511 L 260 513 L 246 485 L 264 476 L 276 502 C 277 501 278 500 280 500 C 282 499 285 498 287 497 C 303 493 320 496 335 490 C 353 482 366 462 384 454 C 403 446 428 451 447 442 C 451 440 456 438 459 435 C 471 426 480 413 493 406 L 323 52 z M 342 119 L 355 148 L 338 156 L 324 128 L 342 119 z M 373 184 L 386 212 L 369 221 L 355 193 L 373 184 z M 139 217 L 153 245 L 135 254 L 122 225 L 139 217 z M 403 249 L 417 277 L 399 285 L 386 257 L 403 249 z M 170 281 L 184 310 L 166 318 L 152 290 L 170 281 z M 434 313 L 448 341 L 430 350 L 417 322 L 434 313 z M 201 346 L 214 374 L 197 383 L 183 354 L 201 346 z M 465 378 L 479 406 L 461 414 L 447 386 L 465 378 z M 232 410 L 245 439 L 228 447 L 214 419 L 232 410 z " mix-blend-mode="normal" solid-color="#000000" opacity="0.8" color-interpolation-filters="linearRGB" filter-gaussianBlur-deviation="0" color="#000000" image-rendering="auto" color-rendering="auto" stroke-width="64" isolation="auto" color-interpolation="sRGB" solid-opacity="1" fill="none" stroke-linejoin="round" filter-blend-mode="normal" stroke="#ffffff" shape-rendering="auto"/>
 <path d="M 323 52 C 319 55 316 57 313 60 L 324 83 L 307 92 L 299 73.900391 C 296 77.000391 293 79 290 81 C 287 83 285 85 283 86 C 264 94 239 90 220 98 C 201 106 188 125 171 133 C 149 142 135 134 115 143 C 108 147 101 153 95 159 L 109 152 L 123 180 L 105 189 L 92 162 C 90 164 87 166 85 169 L 254 521 L 264 511 L 260 513 L 246 485 L 264 476 L 276 502 C 277 501 278 500 280 500 C 282 499 285 498 287 497 C 303 493 320 496 335 490 C 353 482 366 462 384 454 C 403 446 428 451 447 442 C 451 440 456 438 459 435 C 471 426 480 413 493 406 L 323 52 z M 342 119 L 355 148 L 338 156 L 324 128 L 342 119 z M 373 184 L 386 212 L 369 221 L 355 193 L 373 184 z M 139 217 L 153 245 L 135 254 L 122 225 L 139 217 z M 403 249 L 417 277 L 399 285 L 386 257 L 403 249 z M 170 281 L 184 310 L 166 318 L 152 290 L 170 281 z M 434 313 L 448 341 L 430 350 L 417 322 L 434 313 z M 201 346 L 214 374 L 197 383 L 183 354 L 201 346 z M 465 378 L 479 406 L 461 414 L 447 386 L 465 378 z M 232 410 L 245 439 L 228 447 L 214 419 L 232 410 z " id="path4155" fill="#b7650c"/>
 <path d="m 221,98.2 c -19,8 -31.7,27.4 -49,35 -16.7,7 -36.5,1.9 -53,8.5 l 43,91 164,-78 -35,-73 c -2.1,1.4 -4.7,3.4 -7.5,4.4 -19.5,8.4 -44.2,4.1 -62.5,12.1 z" id="path4152" opacity="0.7" fill="#ffffff"/>
 <path d="M 169,248 244,405 408,326 332,169 Z" id="path4150" opacity="0.7" fill="#ffffff"/>
 <path d="m 251,421 36,76 c 15.3,-4 32.7,-1 47.7,-7.3 17.6,-7.7 30.6,-27.4 49,-35 18.8,-8 43,-3.7 62,-12.2 4.1,-1.9 8.8,-4.2 12.3,-7.1 l -44,-93 z" id="rect3445" opacity="0.7" fill="#ffffff"/>
</svg>
