<?xml version="1.0" encoding="UTF-8" standalone="no"?>
<svg xmlns="http://www.w3.org/2000/svg" width="580" height="580" version="1.0">
 <metadata id="metadata18"/>
 <path id="path4141" d="m 164.3,115.9 0,284 c 0,1.8 252,0.9 252,0 l 0,-284 C 416.3,104.5 406.7,94 394.6,94 l -208.8,0 c -11.1,0 -21.5,10.5 -21.5,21.9 z" mix-blend-mode="normal" solid-color="#000000" opacity="0.8" color-interpolation-filters="linearRGB" filter-gaussianBlur-deviation="0" color="#000000" image-rendering="auto" color-rendering="auto" stroke-width="64" isolation="auto" color-interpolation="sRGB" solid-opacity="1" fill="none" stroke-linejoin="round" filter-blend-mode="normal" stroke="#ffffff" shape-rendering="auto"/>
 <path id="path4143" d="m 148.65,432.9 280.9,0 c 0.9,0 -13.9,-20.9 -13.9,-20.9 l -252.95,0 z" mix-blend-mode="normal" solid-color="#000000" opacity="0.8" color-interpolation-filters="linearRGB" filter-gaussianBlur-deviation="0" color="#000000" image-rendering="auto" color-rendering="auto" stroke-width="64" isolation="auto" color-interpolation="sRGB" solid-opacity="1" fill="none" stroke-linejoin="round" filter-blend-mode="normal" stroke="#ffffff" shape-rendering="auto"/>
 <path id="path4145" d="m 144.9,451.4 0,33 c 0,0.9 0.9,1.8 1.7,1.8 l 285,0 c 0.9,0 1.7,-0.9 1.7,-1.8 l 0,-33 c 0,-0.9 -0.9,-0.9 -1.7,-0.9 l -285,0 c -0.9,0 -1.7,0 -1.7,0.9 z" mix-blend-mode="normal" solid-color="#000000" opacity="0.8" color-interpolation-filters="linearRGB" filter-gaussianBlur-deviation="0" color="#000000" image-rendering="auto" color-rendering="auto" stroke-width="64" isolation="auto" color-interpolation="sRGB" solid-opacity="1" fill="none" stroke-linejoin="round" filter-blend-mode="normal" stroke="#ffffff" shape-rendering="auto"/>
 <path id="path4138" d="m 164.3,115.9 0,284 c 0,1.8 252,0.9 252,0 l 0,-284 C 416.3,104.5 406.7,94 394.6,94 l -208.8,0 c -11.1,0 -21.5,10.5 -21.5,21.9 z m -15.65,317 280.9,0 c 0.9,0 -13.9,-20.9 -13.9,-20.9 l -252.95,0 z m -3.75,18.5 0,33 c 0,0.9 0.9,1.8 1.7,1.8 l 285,0 c 0.9,0 1.7,-0.9 1.7,-1.8 l 0,-33 c 0,-0.9 -0.9,-0.9 -1.7,-0.9 l -285,0 c -0.9,0 -1.7,0 -1.7,0.9 z" mix-blend-mode="normal" solid-color="#000000" opacity="0.8" color-interpolation-filters="linearRGB" filter-gaussianBlur-deviation="0" color="#000000" image-rendering="auto" color-rendering="auto" stroke-width="64" isolation="auto" color-interpolation="sRGB" solid-opacity="1" fill="none" stroke-linejoin="round" filter-blend-mode="normal" stroke="#ffffff" shape-rendering="auto"/>
 <path d="m 164.3,115.9 0,284 c 0,1.8 252,0.9 252,0 l 0,-284 C 416.3,104.5 406.7,94 394.6,94 l -208.8,0 c -11.1,0 -21.5,10.5 -21.5,21.9 z" id="path4139" fill="#b7650c"/>
 <path d="m 148.65,432.9 280.9,0 c 0.9,0 -13.9,-20.9 -13.9,-20.9 l -252.95,0 z" id="path4137" fill="#b7650c"/>
 <path d="m 144.9,451.4 0,33 c 0,0.9 0.9,1.8 1.7,1.8 l 285,0 c 0.9,0 1.7,-0.9 1.7,-1.8 l 0,-33 c 0,-0.9 -0.9,-0.9 -1.7,-0.9 l -285,0 c -0.9,0 -1.7,0 -1.7,0.9 z" id="path4329" fill="#b7650c"/>
 <path d="m 262.7,129.5 c -2.5,11.6 9.6,12.2 10.6,1.6 -6.83586,-10.24365 18.99558,-15.65807 3.7,-17 -7.8,0 -14.4,7.5 -14.3,15.4 z m -32.5,-14.9 c -13.9,7.8 15.7,8.8 0,0 z m 7.5,24.3 c 6.9,-0.8 13.2,-18.9 5.8,-24 -9.6,2.4 -10.4,17.4 -5.8,24 z m 12.4,-2.4 c 9,5 8.9,-17.5 1.6,-21.3 -4.8,6 -3.6,14.4 -1.6,21.3 z m 67.1,-8 c 0,1 -0.1,1.9 -0.2,2.9 0.45043,16.41851 16.47947,3.65889 9.2,-6.7 9.8,-5.1 -1.1,17 8.9,14.7 2,-1.6 3.07263,-3.1358 3.57263,-5.9358 0.0417,-7.55687 -2.78566,-17.22435 -9.92263,-17.7642 -6.17508,-0.13412 -10.8155,7.87548 -11.55,12.8 z m 29,10.3 c 9,12 11.7,-8 5.7,-13.5 -5.3,8.8 -4.8,-7.7 -9.5,-8.8 l -0.1,0.1 c -2.3,1.1 -1.9,4.2 -2.4,6.2 -3.48773,6.6667 1.53284,22.05094 6.3,16 z m -34.4,-22.5 c -3.3,5.4 -17.4,15 -9,24.9 15.26591,3.39866 18.11045,-18.63447 9,-24.9 z m -98.9,21.8 c 9,12 11.7,-8 5.8,-13.5 -5.3,8.8 -5,-7.7 -9.65,-8.7 -4.78532,8.57773 -3.8301,32.18156 3.85,22.2 z m -15,-0.6 c 9,5 8.9,-17.5 1.6,-21.3 -4.8,6 -3.6,14.4 -1.6,21.3 z m 161.9,2.8 c 6.8,-0.8 13,-19 5.7,-24 -9.5,2.4 -10.3,17.3 -5.7,24 z m 13.7,1.3 c 13.9,8.6 19.6,-18 9,-24.9 -3.3,5.4 -17.4,15 -9,24.9 z m -84,-6.3 c -8.7,12.6 15.7,4.1 7.4,-3.7 -3.9,1.5 3.7,-11 -4.8,-7.5 -10.61122,-3.35778 -6.02262,5.77505 -2.6,11.2 z m -62.4,6.1 c 5.1,12.9 14.2,-16.2 2.4,-17.4 -4.4,4.8 -2.4,11.6 -2.4,17.4 z m 52.4,-17.2 c -4.5,4.6 -2.6,11.4 -2.4,17.3 5.1,12.9 13.9,-16 2.4,-17.4 z m 27.8,5.9 c 8.1,12 -5.9,4.3 0,0 z m 72,0.4 c 8,8.4 -7.8,8.6 0,0 z m -135.7,44.3 c 9,5 9,-17.5 1.7,-21.3 -5,6 -3.7,14.4 -1.7,21.3 z m 10.7,-21.2 c -4.3,2 -5.7,27.7 3.8,22 8.9,12 11.7,-8 5.7,-13.5 -7.60942,8.49881 -4.14637,-6.82613 -9.5,-8.5 z m -27.5,24.9 c 13.9,8.6 19.5,-17.9 9.1,-24.9 -3.3,5.4 -17.4,15.2 -9.1,24.9 z m -14.4,-0.8 c 6.9,-0.8 13,-18.9 5.8,-24 -9.6,2.4 -10.4,17.4 -5.8,24 z m 80.6,-1.6 c 9,12 11.7,-8 5.7,-13.5 -5.3,8.8 -4.8,-7.8 -9.55,-8.65 -4.15,2.25 -5.65,27.75 3.85,22.15 z m 80.1,-22.3 c -13.9,7.7 15.5,9.1 0,0 z M 306.4,178 c 7,-0.8 13,-18.9 5.8,-24 -9.6,2.4 -10.4,17.4 -5.8,24 z m 28.2,1.4 c 13.9,8.5 19,-18.3 8.6,-24.9 -2.8,5.9 -17.6,14.8 -8.6,24.9 z m 21.4,-2.9 c 9,12 11.7,-8 5.7,-13.5 -5.2,8.8 -4.9,-7.5 -9.5,-8.7 l -0.05,0.1 c -4.15,2.2 -5.55,27.7 3.85,22.1 z m -85.6,-13.7 c 0.3,1.5 5.1,6.6 -0.4,10.7 -0.7,21 27,-11 6.1,-12.2 z m 49.1,11.9 c -8.1,12.4 16.3,1.9 7.3,-4.9 -4,1.8 2.4,-7.9 -2,-8 -10.99917,0.79971 -8.71615,4.44271 -5.3,12.9 z m 48.5,8 c 7.7,7.3 12.5,-17.5 2.6,-19.9 -4,5.9 -2.8,13 -2.6,19.9 z M 229.6,166.9 c 8,8.4 -7.8,8.6 0,0 z m 109.1,1.1 c 7.5,8.9 -8.3,8.2 -0.1,0 z m -62.1,3.9 c 4.4,7.9 -9.2,0.3 0,0 z m 43.5,58.6 c -13.9,7.8 15.5,8.9 0,0 z m -74.8,24.4 c 6.9,-0.8 13.2,-18.9 5.8,-24 -9.6,2.4 -10.4,17.4 -5.8,24 z m 82,0 c 6.9,-0.8 13.2,-18.9 5.8,-24 -9.6,2.4 -10.4,17.4 -5.8,24 z m -54.9,-2.3 c 9,4.9 8.9,-17.5 1.7,-21.3 -5,6 -3.7,14.4 -1.7,21.3 z m 10.7,-21.2 c -4.3,2 -5.7,27.6 3.7,22 8.9,12 11.7,-8 5.7,-13.5 -7.65946,8.54395 -4.00545,-6.92559 -9.4,-8.5 z m -22.8,19.1 c -8.8,12.7 15.7,4.5 7.4,-3.5 -3.9,1.4 3.7,-11.2 -4.8,-7.6 -2,-0.6 -3.5,-0.9 -4.6,-0.9 -6,-0.1 -0.5,7.6 2,12 z m 40.5,1.7 c -0.8,18.7 26.9,-11.2 6.2,-12.9 -10.56774,0.63007 -0.79545,10.06181 -6.2,12.9 z m 15.7,4.8 c 5.1,12.9 14.2,-16.2 2.4,-17.4 -4.4,4.8 -2.4,11.6 -2.4,17.4 z m -8.7,-7.4 c 4.6,8.6 -9.5,0.4 0,0 z m 2.8,37.3 c -0.1,11 9.3,6.3 9.8,-1.5 -4.7,-8.4 10.6,-9.5 7.5,-16.9 -10.36835,-2.61581 -18.48004,10.75529 -17.3,18.4 z M 257,268.5 c -13.9,7.8 15.7,8.9 0,0 z m 93.2,24.4 c 6.9,-0.8 13.2,-18.9 5.8,-24 -9.6,2.4 -10.4,17.4 -5.8,24 z m -125.8,1.3 c 13.9,8.5 19,-18.2 8.6,-24.9 -2.8,5.9 -17.6,14.8 -8.6,24.9 z m 71.9,-7.9 c -0.8,16.5 15.2,-1 10.8,-8.9 -5.53597,-3.29329 -10.35891,4.47355 -10.8,8.9 z m -46.3,6.6 c -0.84532,-9.11568 1.10162,-15.31652 -6.9,-16.05 -6.9,0.15 -4.6,23.05 6.9,16.05 z m 83.3,0.4 c 11.6,10.8 16,-13.6 5.7,-16 -16.09756,-0.31103 2.41286,12.10484 -5.7,16 z M 278.8,289 c 3.6,19 27.4,-11.2 8.3,-11.6 -5.88693,0.5538 -9.06811,7.02073 -8.3,11.6 z m -8.7,-11.6 c -13.4269,2.29804 -8.64968,17.7486 -0.2,18.3 2.99929,-9.26864 10.97565,-18.86714 0.2,-18.3 z m -14.3,0.3 c -4.5,4.7 -2.6,11.6 -2.4,17.4 7.26511,10.16186 11.07916,-15.7283 2.4,-17.4 z M 324,295 c 5.1,12.9 14.2,-16 2.4,-17.4 -4.5,4.7 -2.6,11.6 -2.4,17.4 z m -53.6,-12.9 c 6.7,3.6 -7.7,3.8 0,0 z m -40.9,0.9 c 7.7,8.8 -8.2,8.1 0,0 z m 58,0.1 c 8.8,7.7 -8.6,8.4 0,0 z m -53.9,23.6 c -13.9,7.8 15.7,8.8 0,0 z M 200,331.1 c 6.9,-0.7 13.2,-18.9 5.8,-24 -9.5,2.3 -10.3,17.3 -5.8,24 z m 66.4,-8.5 c 0.2,3.2 1.1,6.4 2.6,8.6 7,-0.8 13.2,-18.9 5.8,-24.05 -7.95828,3.26042 -7.54105,9.20289 -8.4,15.45 z m -5.3,-15 c -3.3,5.4 -17.4,15.2 -9,24.9 16.64087,5.66269 16.92187,-19.07448 9,-24.9 z m -46.7,0.1 c -4.3,2 -5.7,27.7 3.8,22 8.9,12 11.7,-8 5.7,-13.5 -5.3,8.8 -5,-7.6 -9.55,-8.7 z m 26.6,21.1 c 9,5.1 9,-17.5 1.7,-21.3 -5,6 -3.7,14.4 -1.7,21.3 z m 119.1,-18.6 c -11.2,6.5 1.9,12.2 1.1,20 9.2,10.9 18.6,-21.4 10.65,-21.35 z M 344,333.6 c 12.5,0 14.4,-23.6 1.2,-24.9 -11.6,1.6 -13,22.6 -1.2,24.9 z m 3.1,-15.3 c 4.5,13 -11,-0.1 -2,-3.6 1.3,0.7 1.7,2.2 2,3.6 z m 16.9,-3.5 c 9.2,6.6 -7.7,8.2 0,0 z m -73,13.1 c -8.2,5.3 6.1,8 8.5,2.7 -4.37298,-9.49845 1.1334,-14.66406 -8.45,-15.4 -6.65,-0.1 -3.05,9 -0.05,12.7 z m 31.7,11.7 c 9.24314,-8.13213 18.38939,-22.42215 4.05,-24.4 -10.85,-0.3 -12.65,20.6 -4.05,24.4 z M 303.6,317 c 0.3,1.5 5.1,6.6 -0.4,10.8 -0.7,21 27,-11 6.1,-12.2 z m -71.9,18.9 c 7.7,7.3 12.5,-17.5 2.6,-19.9 -4,5.9 -2.7,13 -2.6,19.9 z m 94.6,-14.7 c 7.7,8.6 -6.7,7.4 0,0 z m -69,0.2 c 8.1,8.2 -7.7,8.7 0,0 z m 52,4.7 c 4.4,7.8 -9.1,0.4 0,0 z m 69,2 c -13.9,7.8 15.2,8.6 0,0 z m -110,17 c -13.9,7.8 15.5,9.1 0,0 z m -30.8,24.4 c 6.9,-0.8 13.2,-18.9 5.8,-24 -9.5,2.4 -10.4,17.3 -5.8,24 z m 40,0.5 c 5.9,-5.2 10.3,-20 3.8,-24.5 -8.2,2.2 -10.3,17.2 -3.8,24.5 z m 42.8,-24 c -4.3,2 -8.4,35.8 3.8,22 9,12 11.7,-8 5.7,-13.5 -7.4866,8.49767 -4.11165,-6.82247 -9.5,-8.5 z m 17.3,21.1 c 9,4.9 8.9,-17.5 1.7,-21.3 -5,6 -3.7,14.4 -1.7,21.3 z m -32.1,-1.7 c -7.5,5.9 5.9,9.5 8.7,3.9 -3.72811,-9.74841 1.38268,-14.28369 -7.75,-15.65 -5.75,-0.25 -4.25,8.35 -0.95,11.75 z m -52.4,-11.2 c -8.4,0.8 -7.9,23.6 3.9,18.3 0.39262,-2.35569 12.02208,-20.74955 -3.9,-18.3 z m 33.5,1.4 c 0.3,1.4 5.1,6.6 -0.4,10.8 -0.7,21 27,-11 6.1,-12.25 z M 263.1,372 c 5.1,13 14.2,-16 2.4,-17.3 -4.5,4.6 -2.6,11.6 -2.4,17.3 z m -9.4,-12.8 c 6.8,2.8 -7.4,3.9 0,0 z m 39,5.6 c 4.3,8.1 -8.8,0.1 0,0 z" id="path4304" fill="#ffffff"/>
</svg>
