<?xml version="1.0" encoding="UTF-8" standalone="no"?>
<svg xmlns="http://www.w3.org/2000/svg" version="1.0" width="580" height="580">
 <metadata id="metadata2975"/>
 <path id="path4158" d="m 307.4653,92.583851 c -16.70287,6.8723 -20.19148,27.854419 -24.71286,43.255829 -4.86624,-4.47803 -11.16373,-6.85996 -16.88872,-6.85996 -13.9308,0 -24.61744,8.7655 -31.96451,15.62546 -34.32963,24.16992 -62.73449,39.56857 -91.79063,47.54329 -27.89693,3.37971 -55.720645,-1.6269 -78.527723,-3.66817 -10.877476,-0.90513 -14.980383,-0.6193 -18.701625,1.19097 -3.912075,1.90554 -6.774569,5.62135 -8.110399,9.14661 -2.576244,6.95523 -1.431247,13.3388 -0.09542,19.81764 2.67166,13.05297 8.396648,27.63038 19.083293,62.78765 10.686645,35.15727 34.25451,99.94573 67.841104,140.96254 33.58659,41.01682 68.82765,66.20406 105.89694,64.72726 37.0693,-1.47679 63.37185,-27.61681 72.9135,-58.4866 12.40414,12.00492 28.62493,20.0082 58.06091,21.10388 29.43598,1.09569 65.58714,-19.61836 99.22144,-60.58753 33.6343,-40.96918 55.68718,-109.72037 66.42153,-144.73473 4.27419,-20.94741 25.61136,-63.78806 18.94017,-82.7482 -16.99367,-23.78452 -73.73972,2.55448 -105.24435,-6.6694 -37.41788,-6.77882 -68.28451,-27.96167 -93.69893,-47.82914 C 335.32424,98.932831 320.21495,89.443079 307.4653,92.583851 Z m -37.21236,58.119059 c 1.33583,4.76386 2.76708,9.43244 4.19832,14.10102 -2.85091,9.81303 -4.3498,18.35645 -6.77456,27.5351 -2.28526,30.78106 -5.30236,62.53478 -4.65492,95.38891 0.64743,32.85414 4.5595,64.6767 11.33409,89.02002 6.77458,24.34331 9.06457,29.58355 11.92707,34.53796 -2.09165,8.33732 -4.54415,17.92733 -5.58191,22.05666 -5.4252,12.71752 -25.04687,34.34742 -49.85515,36.44352 -31.67826,-0.57167 -62.21152,-20.57987 -84.15731,-45.35193 C 107.56782,372.98451 84.667874,311.05436 64.439585,248.17144 59.69995,233.1379 53.791383,207.68718 53.791383,207.68718 c 28.309601,0.12741 68.598327,9.91709 93.660517,2.65923 47.70823,-12.86241 70.60818,-29.53592 98.27895,-50.49689 12.09986,-8.48444 18.91032,-14.41186 24.52209,-9.14661 z m 100.71201,75.98353 c -7.29936,7.76509 -26.38265,16.14948 -42.79428,12.14784 -3.05333,-1.2386 -6.29749,-4.66858 -7.63332,-8.67022 -3.95785,-13.21798 14.79158,-16.776 22.99537,-18.48377 8.58748,-1.71499 18.41538,-2.85831 28.29098,-6.14538 12.38355,3.26402 2.01177,18.04605 -0.85875,21.15153 z m 76.09462,-1.28624 c 7.2702,10.39836 10.50798,21.45234 14.59872,33.15645 1.33583,4.38275 1.52666,7.14579 0.0954,10.09938 l 0,0 0,0 c -4.36289,5.37153 -14.08475,1.45424 -17.65205,0.52402 -8.87373,-2.33429 -19.27412,-17.38808 -19.65578,-27.24927 -0.60891,-9.66762 0.45872,-21.86481 10.06644,-22.34248 4.91396,-0.19054 8.92145,2.00081 12.54727,5.8119 z M 209.4726,274.56321 c 1.71749,3.14415 5.05707,5.62135 8.87373,5.52608 9.35081,-0.8575 14.69413,-9.90883 16.88871,-18.10266 3.62583,-8.09856 11.44998,-16.57823 7.06082,-25.72483 -3.24416,-2.38193 -6.86999,-3.3347 -10.63894,-3.38234 -22.51923,-0.002 -35.24181,23.00456 -22.18432,41.68375 z m -104.09936,1.52444 c 10.21308,10.77525 28.8501,21.58097 41.88783,25.34372 11.35456,4.95441 20.51454,-10.19466 15.26663,-19.72237 -10.86401,-10.12439 -24.44238,-23.28089 -38.69137,-23.10471 -9.58935,-0.23819 -19.89433,7.19342 -18.46309,17.48336 z m 307.62266,67.26566 c 5.89298,9.92719 3.94103,28.0707 -5.72499,24.2004 -36.62794,-29.99872 -37.13376,-25.01618 -78.14608,-16.57822 -2.40005,-7.29886 3.33563,-15.51521 8.39668,-18.7696 10.01873,-7.71745 21.85037,-12.67186 33.44345,-12.7195 16.17308,0.33347 32.01221,10.52812 42.03094,23.86692 z m -177.85624,16.57823 c -10.49582,18.00738 -30.53327,32.1084 -52.19281,29.44064 -9.25539,-0.8575 -20.51453,-9.71827 -28.4341,-0.95277 7.15623,13.3388 21.37329,22.19957 36.25825,24.20039 23.63755,1.78684 42.34528,-5.03936 55.6278,-22.86651 6.77457,-8.00328 11.92705,-17.531 13.26288,-28.01148 2.09917,-7.90801 3.72125,-18.7696 -6.63144,-21.34209 -10.35268,-2.57248 -11.49768,13.43408 -17.89058,19.53182 z" mix-blend-mode="normal" isolation="auto" white-space="normal" solid-color="#000000" color-interpolation-filters="linearRGB" opacity="0.8" filter-gaussianBlur-deviation="0" color="#000000" image-rendering="auto" color-rendering="auto" stroke-width="64" color-interpolation="sRGB" solid-opacity="1" fill="none" stroke-linejoin="round" filter-blend-mode="normal" stroke="#ffffff" shape-rendering="auto"/>
 <path id="path4144" d="m 265.95914,138.60272 c -9.2554,0 -19.46496,7.43161 -26.04869,13.52935 -27.67077,21.43736 -48.47156,36.77698 -95.41646,49.35357 -17.74746,5.33552 -53.433213,-1.14333 -89.691467,-3.62054 -22.6137,-3.52525 -3.244159,36.87226 -0.190833,53.25993 20.037456,62.88292 42.937406,126.71861 83.96648,179.12105 23.28162,25.72483 55.34155,48.49607 91.5998,48.59134 39.89169,-10.30241 57.60841,-37.14834 66.02819,-69.83815 -5.69579,-9.59843 -8.90756,-18.48259 -11.35456,-28.20203 -16.2208,-60.69155 -15.26663,-124.81307 -8.20582,-186.74322 2.09917,-9.90883 4.57999,-19.81765 7.25165,-29.53592 -1.90832,-6.19301 -3.72124,-12.38603 -5.53415,-18.67432 -3.09704,-4.39703 -10.16912,-7.19881 -12.40414,-7.24106 z" fill="#ffffff"/>
 <path white-space="normal" isolation="auto" mix-blend-mode="normal" d="m 307.4653,92.583851 c -16.70287,6.8723 -20.19148,27.854419 -24.71286,43.255829 -4.86624,-4.47803 -11.16373,-6.85996 -16.88872,-6.85996 -13.9308,0 -24.61744,8.7655 -31.96451,15.62546 -34.32963,24.16992 -62.73449,39.56857 -91.79063,47.54329 -27.89693,3.37971 -55.720645,-1.6269 -78.527723,-3.66817 -10.877476,-0.90513 -14.980383,-0.6193 -18.701625,1.19097 -3.912075,1.90554 -6.774569,5.62135 -8.110399,9.14661 -2.576244,6.95523 -1.431247,13.3388 -0.09542,19.81764 2.67166,13.05297 8.396648,27.63038 19.083293,62.78765 10.686645,35.15727 34.25451,99.94573 67.841104,140.96254 33.58659,41.01682 68.82765,66.20406 105.89694,64.72726 37.0693,-1.47679 63.37185,-27.61681 72.9135,-58.4866 12.40414,12.00492 28.62493,20.0082 58.06091,21.10388 29.43598,1.09569 65.58714,-19.61836 99.22144,-60.58753 33.6343,-40.96918 55.68718,-109.72037 66.42153,-144.73473 4.27419,-20.94741 25.61136,-63.78806 18.94017,-82.7482 -16.99367,-23.78452 -73.73972,2.55448 -105.24435,-6.6694 -37.41788,-6.77882 -68.28451,-27.96167 -93.69893,-47.82914 C 335.32424,98.932831 320.21495,89.443079 307.4653,92.583851 Z m -37.21236,58.119059 c 1.33583,4.76386 2.76708,9.43244 4.19832,14.10102 -2.85091,9.81303 -4.3498,18.35645 -6.77456,27.5351 -2.28526,30.78106 -5.30236,62.53478 -4.65492,95.38891 0.64743,32.85414 4.5595,64.6767 11.33409,89.02002 6.77458,24.34331 9.06457,29.58355 11.92707,34.53796 -2.09165,8.33732 -4.54415,17.92733 -5.58191,22.05666 -5.4252,12.71752 -25.04687,34.34742 -49.85515,36.44352 -31.67826,-0.57167 -62.21152,-20.57987 -84.15731,-45.35193 C 107.56782,372.98451 84.667874,311.05436 64.439585,248.17144 59.69995,233.1379 53.791383,207.68718 53.791383,207.68718 c 28.309601,0.12741 68.598327,9.91709 93.660517,2.65923 47.70823,-12.86241 70.60818,-29.53592 98.27895,-50.49689 12.09986,-8.48444 18.91032,-14.41186 24.52209,-9.14661 z m 100.71201,75.98353 c -7.29936,7.76509 -26.38265,16.14948 -42.79428,12.14784 -3.05333,-1.2386 -6.29749,-4.66858 -7.63332,-8.67022 -3.95785,-13.21798 14.79158,-16.776 22.99537,-18.48377 8.58748,-1.71499 18.41538,-2.85831 28.29098,-6.14538 12.38355,3.26402 2.01177,18.04605 -0.85875,21.15153 z m 76.09462,-1.28624 c 7.2702,10.39836 10.50798,21.45234 14.59872,33.15645 1.33583,4.38275 1.52666,7.14579 0.0954,10.09938 l 0,0 0,0 c -4.36289,5.37153 -14.08475,1.45424 -17.65205,0.52402 -8.87373,-2.33429 -19.27412,-17.38808 -19.65578,-27.24927 -0.60891,-9.66762 0.45872,-21.86481 10.06644,-22.34248 4.91396,-0.19054 8.92145,2.00081 12.54727,5.8119 z M 209.4726,274.56321 c 1.71749,3.14415 5.05707,5.62135 8.87373,5.52608 9.35081,-0.8575 14.69413,-9.90883 16.88871,-18.10266 3.62583,-8.09856 11.44998,-16.57823 7.06082,-25.72483 -3.24416,-2.38193 -6.86999,-3.3347 -10.63894,-3.38234 -22.51923,-0.002 -35.24181,23.00456 -22.18432,41.68375 z m -104.09936,1.52444 c 10.21308,10.77525 28.8501,21.58097 41.88783,25.34372 11.35456,4.95441 20.51454,-10.19466 15.26663,-19.72237 -10.86401,-10.12439 -24.44238,-23.28089 -38.69137,-23.10471 -9.58935,-0.23819 -19.89433,7.19342 -18.46309,17.48336 z m 307.62266,67.26566 c 5.89298,9.92719 3.94103,28.0707 -5.72499,24.2004 -36.62794,-29.99872 -37.13376,-25.01618 -78.14608,-16.57822 -2.40005,-7.29886 3.33563,-15.51521 8.39668,-18.7696 10.01873,-7.71745 21.85037,-12.67186 33.44345,-12.7195 16.17308,0.33347 32.01221,10.52812 42.03094,23.86692 z m -177.85624,16.57823 c -10.49582,18.00738 -30.53327,32.1084 -52.19281,29.44064 -9.25539,-0.8575 -20.51453,-9.71827 -28.4341,-0.95277 7.15623,13.3388 21.37329,22.19957 36.25825,24.20039 23.63755,1.78684 42.34528,-5.03936 55.6278,-22.86651 6.77457,-8.00328 11.92705,-17.531 13.26288,-28.01148 2.09917,-7.90801 3.72125,-18.7696 -6.63144,-21.34209 -10.35268,-2.57248 -11.49768,13.43408 -17.89058,19.53182 z" id="path3354" fill="#b7650c" color-rendering="auto" solid-opacity="1" color-interpolation-filters="linearRGB" shape-rendering="auto" fill-rule="evenodd" image-rendering="auto" color-interpolation="sRGB" color="#000000" solid-color="#000000"/>
 <path d="m 265.95914,138.60272 c -9.2554,0 -19.46496,7.43161 -26.04869,13.52935 -27.67077,21.43736 -48.47156,36.77698 -95.41646,49.35357 -17.74746,5.33552 -53.433213,-1.14333 -89.691467,-3.62054 -22.6137,-3.52525 -3.244159,36.87226 -0.190833,53.25993 20.037456,62.88292 42.937406,126.71861 83.96648,179.12105 23.28162,25.72483 55.34155,48.49607 91.5998,48.59134 39.89169,-10.30241 57.60841,-37.14834 66.02819,-69.83815 -5.69579,-9.59843 -8.90756,-18.48259 -11.35456,-28.20203 -16.2208,-60.69155 -15.26663,-124.81307 -8.20582,-186.74322 2.09917,-9.90883 4.57999,-19.81765 7.25165,-29.53592 -1.90832,-6.19301 -3.72124,-12.38603 -5.53415,-18.67432 -3.09704,-4.39703 -10.16912,-7.19881 -12.40414,-7.24106 z" id="path3327-8" opacity="0.1" fill="#b7650c"/>
</svg>
