<?xml version="1.0" encoding="UTF-8" standalone="no"?>
<svg xmlns="http://www.w3.org/2000/svg" version="1.0" width="580" height="580">
 <metadata id="metadata10"/>
 <path fill="none" opacity="0.8" d="m240 220l50.9-30.4 50 31.4c0 0 45.9 324 40 322l-196-.2z" id="path4147" mix-blend-mode="normal" solid-color="#000000" color-interpolation-filters="linearRGB" filter-gaussianBlur-deviation="0" color="#000000" image-rendering="auto" color-rendering="auto" stroke-width="64" isolation="auto" color-interpolation="sRGB" solid-opacity="1" stroke-linejoin="round" filter-blend-mode="normal" stroke="#ffffff" shape-rendering="auto"/>
 <path id="path4149" d="M 440.07812 36.986328 C 436.34211 37.034888 432.70664 38.717969 430.40039 41.699219 L 290 233 L 150 41.699219 C 145.2 35.999219 137.1 35.500781 132 40.050781 L 72 96 C 66.8 100.9 66.900391 109.3 72.400391 114 L 248 263 L 72 414 C 66.5 418.7 66.399609 427 71.599609 432 L 130.59961 487.69922 C 135.89961 492.59922 144.29961 491.9 148.59961 486 L 288.59961 294 L 429.59961 485 C 433.89961 490.8 442.29961 491.59922 447.59961 486.69922 L 506.59961 431 C 511.79961 426.1 511.69922 417.7 506.19922 413 L 332 263 L 507 114 C 512.5 109.3 512.60039 101 507.40039 96 L 448.40039 40 C 445.95039 37.9 442.98391 36.94856 440.07812 36.986328 z M 290.40039 256.69922 L 298 264.09961 L 290.40039 271.5 L 282.80078 264.09961 L 290.40039 256.69922 z " mix-blend-mode="normal" solid-color="#000000" white-space="normal" color-interpolation-filters="linearRGB" opacity="0.8" filter-gaussianBlur-deviation="0" color="#000000" image-rendering="auto" color-rendering="auto" stroke-width="64" isolation="auto" color-interpolation="sRGB" solid-opacity="1" fill="none" stroke-linejoin="round" filter-blend-mode="normal" stroke="#ffffff" shape-rendering="auto"/>
 <path fill="none" id="path4139" d="m185 541l54.9-320 50.9-30.4 50 31.4c0 0 45.9 324 40 322-5.3-2.6-195 1.3-196-2.6" mix-blend-mode="normal" solid-color="#000000" opacity="0.8" color-interpolation-filters="linearRGB" filter-gaussianBlur-deviation="0" color="#000000" image-rendering="auto" color-rendering="auto" stroke-width="64" isolation="auto" color-interpolation="sRGB" solid-opacity="1" stroke-linejoin="round" filter-blend-mode="normal" stroke="#ffffff" shape-rendering="auto"/>
 <path id="path4141" d="m 239.9,221 50.9,-30.4 50,31.4 c 0,0 45.9,324 40,322 -5.3,-2.6 -195,1.3 -195.9,-2.8 z" mix-blend-mode="normal" solid-color="#000000" opacity="0.8" color-interpolation-filters="linearRGB" filter-gaussianBlur-deviation="0" color="#000000" image-rendering="auto" color-rendering="auto" stroke-width="64" isolation="auto" color-interpolation="sRGB" solid-opacity="1" fill="none" stroke-linejoin="round" filter-blend-mode="normal" stroke="#ffffff" shape-rendering="auto"/>
 <path d="m185 541l54.9-320 50.9-30.4 50 31.4c0 0 45.9 324 40 322-5.3-2.6-195 1.3-196-2.6" id="path3457-1" fill="#ffffff" fill-rule="evenodd"/>
 <path d="m 239.9,221 50.9,-30.4 50,31.4 c 0,0 45.9,324 40,322 -5.3,-2.6 -195,1.3 -195.9,-2.8 z" id="path3457" opacity="0.5" fill="#b7650c" fill-rule="evenodd"/>
 <path id="path4148" d="m185 541l54.9-320 50.9-30.4 50 31.4c0 0 45.9 324 40 322-5.3-2.6-195 1.3-196-2.6" fill="#ffffff" fill-rule="evenodd"/>
 <path id="path4162" d="m240 220l50.9-30.4 50 31.4c0 0 45.9 324 40 322l-196-.2z" opacity="0.5" fill="#b7650c" fill-rule="evenodd"/>
 <path d="M 440.07812 36.986328 C 436.34211 37.034888 432.70664 38.717969 430.40039 41.699219 L 290 233 L 150 41.699219 C 145.2 35.999219 137.1 35.500781 132 40.050781 L 72 96 C 66.8 100.9 66.900391 109.3 72.400391 114 L 248 263 L 72 414 C 66.5 418.7 66.399609 427 71.599609 432 L 130.59961 487.69922 C 135.89961 492.59922 144.29961 491.9 148.59961 486 L 288.59961 294 L 429.59961 485 C 433.89961 490.8 442.29961 491.59922 447.59961 486.69922 L 506.59961 431 C 511.79961 426.1 511.69922 417.7 506.19922 413 L 332 263 L 507 114 C 512.5 109.3 512.60039 101 507.40039 96 L 448.40039 40 C 445.95039 37.9 442.98391 36.94856 440.07812 36.986328 z M 290.40039 256.69922 L 298 264.09961 L 290.40039 271.5 L 282.80078 264.09961 L 290.40039 256.69922 z " id="path4144" fill="#b7650c" isolation="auto" color-rendering="auto" white-space="normal" solid-opacity="1" mix-blend-mode="normal" color-interpolation-filters="linearRGB" shape-rendering="auto" fill-rule="evenodd" image-rendering="auto" color-interpolation="sRGB" color="#000000" solid-color="#000000"/>
</svg>
