<?xml version="1.0" encoding="UTF-8" standalone="no"?>
<svg xmlns="http://www.w3.org/2000/svg" xmlns:sodipodi="http://sodipodi.sourceforge.net/DTD/sodipodi-0.dtd" xmlns:inkscape="http://www.inkscape.org/namespaces/inkscape" version="1.0" width="580" height="580">
 <metadata id="metadata2975"/>
 <defs id="defs4">
  <symbol viewBox="244.5 110 489 219.9" id="symbol-university">
   <path id="path4460" d="M79,43l57,119c0,0,21-96,104-96s124,106,124,106l43-133l82-17L0,17L79,43z"/>
   <path id="path4462" d="M94,176l-21,39" stroke-width="20" stroke="#000000" fill="none"/>
   <path id="path4464" d="M300,19c0,10.5-22.6,19-50.5,19S199,29.5,199,19s22.6-19,50.5-19S300,8.5,300,19z"/>
   <path id="path4466" d="M112,216l-16-38L64,88c0,0-9-8-4-35s16-24,16-24" stroke-width="20" stroke="#000000" ill="none"/>
  </symbol>
 </defs>
 <g id="g1327">
  <path d="M 66.275,1.768 C 24.94,1.768 1.704,23.139 1.704,66.804 L 1.704,516.927 C 1.704,557.771 22.599,579.156 63.896,579.156 L 515.92,579.156 C 557.227,579.156 578.149,558.841 578.149,516.927 L 578.149,66.804 C 578.149,24.203 557.227,1.768 514.628,1.768 C 514.624,1.768 66.133,1.625 66.275,1.768 z " id="path1329" fill="#AC39AC" stroke="#eee" stroke-width="3.408"/>
 </g>
 <path d="M 230.30587,99.49882 L 204.73195,136.82691 L 377.35595,136.82691 L 354.04434,99.49882 L 230.30587,99.49882 z M 266.04382,103.95789 L 317.91294,103.95789 L 317.91294,133.20391 L 266.04382,133.20391 L 266.04382,103.95789 z M 437.74977,115.2858 L 428.70053,136.58101 L 496.91406,136.58101 L 488.65172,115.2858 L 437.74977,115.2858 z M 105.53462,122.61371 L 101.10836,136.43347 L 146.99389,136.43347 L 143.79715,122.61371 L 105.53462,122.61371 z" id="rect15047" sodipodi:nodetypes="cccccccccccccccccccc" fill="#ffffff" stroke="#ffffff" stroke-linejoin="round" stroke-linecap="round" stroke-width="5.1"/>
 <path d="M 78.25,148.84375 C 53.598467,148.84375 33.75,168.69222 33.75,193.34375 L 33.75,431.15625 C 33.75,455.80778 53.598467,475.65625 78.25,475.65625 L 504.8125,475.65625 C 529.46403,475.65625 549.3125,455.80778 549.3125,431.15625 L 549.3125,193.34375 C 549.3125,168.69222 529.46403,148.84375 504.8125,148.84375 L 78.25,148.84375 z M 338.5,191.8125 C 403.75142,191.8125 456.65625,244.68608 456.65625,309.9375 C 456.65625,375.18892 403.75142,428.09375 338.5,428.09375 C 273.24858,428.09375 220.34375,375.18892 220.34375,309.9375 C 220.34375,244.68608 273.24858,191.8125 338.5,191.8125 z" id="rect15867" fill="#ffffff"/>
 <path transform="matrix(0.5974026,0,0,0.5974026,138.66776,124.78389)" d="M 452.64549,309.94708 A 118.14815,118.14815 0 1 1 216.3492,309.94708 A 118.14815,118.14815 0 1 1 452.64549,309.94708 z" sodipodi:ry="118.14815" sodipodi:rx="118.14815" sodipodi:cy="309.94708" sodipodi:cx="334.49734" id="path15871" sodipodi:type="arc" fill="#ffffff"/>
</svg>
