<?xml version="1.0" encoding="UTF-8" standalone="no"?>
<svg xmlns="http://www.w3.org/2000/svg" xmlns:xlink="http://www.w3.org/1999/xlink" xmlns:sodipodi="http://sodipodi.sourceforge.net/DTD/sodipodi-0.dtd" xmlns:inkscape="http://www.inkscape.org/namespaces/inkscape" version="1.0" width="580" height="580">
 <metadata id="metadata2975"/>
 <defs id="defs4">
  <symbol viewBox="244.5 110 489 219.9" id="symbol-university">
   <path id="path4460" d="M79,43l57,119c0,0,21-96,104-96s124,106,124,106l43-133l82-17L0,17L79,43z"/>
   <path id="path4462" d="M94,176l-21,39" stroke-width="20" stroke="#000000" fill="none"/>
   <path id="path4464" d="M300,19c0,10.5-22.6,19-50.5,19S199,29.5,199,19s22.6-19,50.5-19S300,8.5,300,19z"/>
   <path id="path4466" d="M112,216l-16-38L64,88c0,0-9-8-4-35s16-24,16-24" stroke-width="20" stroke="#000000" ill="none"/>
  </symbol>
  <radialGradient gradientUnits="userSpaceOnUse" gradientTransform="scale(0.79354273,1.2601716)" xlink:href="#linearGradient829" id="radialGradient874" cx="180.25" cy="198.42" r="101.58"/>
  <linearGradient id="linearGradient829">
   <stop id="stop830" stop-color="#ffffff" stop-opacity=".342"/>
   <stop offset="1" id="stop831" stop-color="#ffffff" stop-opacity="0"/>
  </linearGradient>
  <radialGradient gradientUnits="userSpaceOnUse" gradientTransform="scale(1.007004,0.99304475)" xlink:href="#linearGradient829" id="radialGradient832" cx="360.85" cy="167.47" r="46.39"/>
  <linearGradient gradientUnits="userSpaceOnUse" gradientTransform="scale(0.74491357,1.3424376)" xlink:href="#linearGradient855" id="linearGradient850" x1="465.29" y1="248.24" x2="463.27" y2="405.77"/>
  <linearGradient id="linearGradient855">
   <stop id="stop856" stop-color="#ffffff" stop-opacity="0"/>
   <stop offset="1" id="stop857" stop-color="#ffa617" stop-opacity=".733"/>
  </linearGradient>
  <linearGradient gradientUnits="userSpaceOnUse" gradientTransform="scale(1.4586159,0.68558144)" xlink:href="#linearGradient855" id="linearGradient854" x1="157.81" y1="120.96" x2="155.41" y2="231.63"/>
 </defs>
 <g id="g1327">
  <path d="M 66.275,1.768 C 24.94,1.768 1.704,23.139 1.704,66.804 L 1.704,516.927 C 1.704,557.771 22.599,579.156 63.896,579.156 L 515.92,579.156 C 557.227,579.156 578.149,558.841 578.149,516.927 L 578.149,66.804 C 578.149,24.203 557.227,1.768 514.628,1.768 C 514.624,1.768 66.133,1.625 66.275,1.768 z " id="path1329" fill="#AC39AC" stroke="#eee" stroke-width="3.408"/>
 </g>
 <path d="M 329.10509,373.1735 C 340.91415,373.1735 350.33486,363.62009 350.33486,351.87738 C 350.33486,340.13466 340.8478,330.58126 329.10509,330.58126 C 317.36237,330.58126 307.74263,340.13466 307.74263,351.87738 C 307.74263,363.62009 317.36237,373.1735 329.10509,373.1735 z M 540.34131,526.82396 C 414.02417,528.68157 281.93519,504.59905 180.89474,423.32882 L 180.89474,423.32882 C 180.23132,422.73174 179.96595,421.93563 179.96595,421.00682 C 179.96595,419.14922 181.49184,417.62333 183.34943,417.62333 L 282.99668,417.75601 C 287.77338,417.75601 291.8203,413.77543 291.8203,408.93239 C 291.8203,405.28352 290.16172,402.76249 286.24749,400.83854 L 196.21999,357.84825 C 194.56141,356.78676 193.36724,354.92916 193.36724,352.80618 C 193.36724,351.21395 194.03067,349.7544 195.02581,348.62657 L 195.02581,348.62657 C 195.02581,348.62657 304.75719,251.63306 540.34131,253.75603 V 526.82396 z" id="path5483" fill="#ffffff"/>
 <path d="M 492.24261,43.249582 C 414.15685,44.112044 337.79602,77.416251 252.14716,147.67352 C 248.9627,146.81106 241.93033,144.88712 241.93033,144.88712 C 228.33002,144.88712 217.25073,155.90006 217.25073,169.50038 C 217.25073,169.50038 218.24587,174.07805 218.77662,176.9308 C 216.1229,179.38549 149.58084,241.88063 149.58084,241.88063 L 90.734561,297.3434 C 85.228092,302.38548 78.063034,304.90651 70.566273,304.57479 C 63.135855,304.24309 56.302521,300.99227 51.326794,295.4858 C 46.483751,290.11202 44.161753,283.41137 44.161753,276.71073 C 44.161753,269.14761 47.21353,261.58451 53.184402,256.07804 C 53.184402,256.07804 57.629385,253.62335 61.012881,251.6994 C 61.742649,256.74147 63.799292,272.13305 63.799292,272.13305 L 111.83165,210.96477 L 58.889907,229.01008 C 44.957862,233.78677 39.186015,240.81914 38.986991,241.15085 C 19.614829,258.73176 18.08894,289.51493 36.001555,309.3515 C 54.046864,329.2544 84.830031,330.64761 104.73295,312.66865 L 105.26369,312.00521 L 161.05818,258.86444 C 161.05818,258.86444 229.98859,193.71559 232.17792,191.52626 C 235.49506,192.38872 241.99669,194.04731 241.99669,194.04731 C 255.53066,194.04731 266.54361,182.96801 266.54361,169.36769 C 266.54361,169.36769 265.88017,165.78517 265.41577,163.19779 C 348.27823,95.063489 420.72482,62.688097 493.30409,61.891976 C 508.23128,61.759293 520.17303,63.683242 539.74422,67.862848 L 543.79115,68.72531 V 49.353148 L 541.13742,48.822393 C 520.83645,44.576446 507.56784,43.050558 492.24261,43.249582 z" id="path5485" fill="#ffffff"/>
</svg>
