<?xml version="1.0" encoding="UTF-8" standalone="no"?>
<svg xmlns="http://www.w3.org/2000/svg" xmlns:sodipodi="http://sodipodi.sourceforge.net/DTD/sodipodi-0.dtd" xmlns:inkscape="http://www.inkscape.org/namespaces/inkscape" version="1.0" width="580" height="580">
 <metadata id="metadata2975"/>
 <defs id="defs4">
  <symbol viewBox="244.5 110 489 219.9" id="symbol-university">
   <path id="path4460" d="M79,43l57,119c0,0,21-96,104-96s124,106,124,106l43-133l82-17L0,17L79,43z"/>
   <path id="path4462" d="M94,176l-21,39" stroke-width="20" stroke="#000000" fill="none"/>
   <path id="path4464" d="M300,19c0,10.5-22.6,19-50.5,19S199,29.5,199,19s22.6-19,50.5-19S300,8.5,300,19z"/>
   <path id="path4466" d="M112,216l-16-38L64,88c0,0-9-8-4-35s16-24,16-24" stroke-width="20" stroke="#000000" ill="none"/>
  </symbol>
 </defs>
 <g id="g1327">
  <path d="M 66.275,1.768 C 24.94,1.768 1.704,23.139 1.704,66.804 L 1.704,516.927 C 1.704,557.771 22.599,579.156 63.896,579.156 L 515.92,579.156 C 557.227,579.156 578.149,558.841 578.149,516.927 L 578.149,66.804 C 578.149,24.203 557.227,1.768 514.628,1.768 C 514.624,1.768 66.133,1.625 66.275,1.768 z " id="path1329" fill="#734A08" stroke="#eee" stroke-width="3.408"/>
 </g>
 <g id="g3353" transform="translate(20,12)">
  <path sodipodi:nodetypes="csscc" id="path3340" d="M 391.67731,24.490931 C 380.01379,28.852545 364.03205,35.340717 358.04297,35.340717 C 352.05389,35.340717 347.19318,30.480013 347.19318,24.490931 C 347.19318,18.501848 352.05389,13.641144 358.04297,13.641144 C 363.75134,13.860335 380.34891,20.605806 391.67731,24.490931 z" transform="translate(15.189701,15.189701)" opacity=".985" fill="#ffffff" stroke="#ffffff" stroke-linejoin="round" stroke-linecap="round" stroke-width="15"/>
  <path d="M 396.38288,39.680632 C 408.0464,44.042246 424.02814,50.530418 430.01722,50.530418 C 436.0063,50.530418 440.86701,45.669714 440.86701,39.680632 C 440.86701,33.691549 436.0063,28.830845 430.01722,28.830845 C 424.30885,29.050036 407.71128,35.795507 396.38288,39.680632 z" id="path3345" sodipodi:nodetypes="csscc" opacity=".985" fill="#ffffff" stroke="#ffffff" stroke-linejoin="round" stroke-linecap="round" stroke-width="15"/>
  <path id="path3347" d="M 401.4421,39.138141 L 401.4421,105.32184 L 402.25584,131.09008" fill="none" fill-rule="evenodd" stroke="#ffffff" stroke-linecap="round" stroke-width="30"/>
  <path d="M 424.22666,125.39394 A 22.784552,45.569103 0 1 1 378.65756,125.39394 A 22.784552,45.569103 0 1 1 424.22666,125.39394 z" sodipodi:ry="45.569103" sodipodi:rx="22.784552" sodipodi:cy="125.39394" sodipodi:cx="401.44211" id="path3349" sodipodi:type="arc" opacity=".985" fill="#ffffff" stroke="#ffffff" stroke-linejoin="round" stroke-linecap="round" stroke-width="30"/>
  <path sodipodi:nodetypes="cccc" id="path3351" d="M 522.95971,130.81884 L 345.02276,129.81355 L 330.91849,129.73386 C 261.47986,128.64888 265.81977,193.7476 265.81977,193.7476" fill="none" fill-rule="evenodd" stroke="#ffffff" stroke-width="50"/>
 </g>
 <path d="M 401.20335,264.66519 L 401.04559,264.66519 C 401.22597,264.50932 401.32527,264.3522 401.32527,264.19382 C 401.32527,260.46245 350.37519,257.43751 287.52395,257.43751 C 224.67334,257.43751 173.72263,260.46245 173.72263,264.19382 C 173.72263,264.3522 173.82193,264.50932 174.00293,264.66519 L 173.72263,264.66519 L 209.24005,535.50065 L 209.40032,535.50065 C 209.08607,535.67034 208.91952,535.84255 208.91952,536.01664 C 208.91952,538.59472 244.11264,540.68321 287.52521,540.68321 C 330.9384,540.68321 366.13089,538.59472 366.13089,536.01664 C 366.13089,535.84255 365.96371,535.66971 365.6501,535.50065 L 401.20335,264.66519 z M 342.84592,515.69968 C 341.02644,517.38341 233.11052,516.59439 231.29103,514.91066 L 197.55212,281.06395 C 255.13772,281.25585 296.60788,284.11814 374.88771,279.48591 L 342.84592,515.69968 z" id="path2209" sodipodi:nodetypes="ccsssccccsssccccccc" fill="#ffffff"/>
 <path d="M 188.1914,276.64338 L 383.07881,278.22142 L 351.5181,527.7707 L 218.17408,529.34874 L 188.1914,276.64338 z" id="path2381" sodipodi:nodetypes="ccccc" opacity=".1" fill="#ffffff" fill-rule="evenodd"/>
</svg>
