<?xml version="1.0" encoding="UTF-8" standalone="no"?>
<svg xmlns="http://www.w3.org/2000/svg" xmlns:sodipodi="http://sodipodi.sourceforge.net/DTD/sodipodi-0.dtd" xmlns:inkscape="http://www.inkscape.org/namespaces/inkscape" version="1.0" width="580" height="580">
 <metadata id="metadata2975"/>
 <defs id="defs4">
  <symbol viewBox="244.5 110 489 219.9" id="symbol-university">
   <path id="path4460" d="M79,43l57,119c0,0,21-96,104-96s124,106,124,106l43-133l82-17L0,17L79,43z"/>
   <path id="path4462" d="M94,176l-21,39" stroke-width="20" stroke="#000000" fill="none"/>
   <path id="path4464" d="M300,19c0,10.5-22.6,19-50.5,19S199,29.5,199,19s22.6-19,50.5-19S300,8.5,300,19z"/>
   <path id="path4466" d="M112,216l-16-38L64,88c0,0-9-8-4-35s16-24,16-24" stroke-width="20" stroke="#000000" ill="none"/>
  </symbol>
 </defs>
 <g id="g1327">
  <path d="M 66.275,1.768 C 24.94,1.768 1.704,23.139 1.704,66.804 L 1.704,516.927 C 1.704,557.771 22.599,579.156 63.896,579.156 L 515.92,579.156 C 557.227,579.156 578.149,558.841 578.149,516.927 L 578.149,66.804 C 578.149,24.203 557.227,1.768 514.628,1.768 C 514.624,1.768 66.133,1.625 66.275,1.768 z " id="path1329" fill="#734A08" stroke="#eee" stroke-width="3.408"/>
 </g>
 <path transform="matrix(14.685839,0,0,14.685839,577.76584,1150.0639)" d="M -4.9023438,-73.108887 L -7.0227051,-65.628418 L -17.822266,-65.628418 L -15.222168,-44.98877 L -6.3830566,-44.98877 L -3.7426758,-65.628418 L -5.7421875,-65.628418 L -3.6621094,-72.748779 L -4.9023438,-73.108887 z M -19.102783,-53.588623 C -18.889587,-55.455476 -20.302753,-56.468658 -23.342285,-56.628174 L -30.662842,-56.628174 C -33.702398,-56.468658 -35.128992,-55.455476 -34.942627,-53.588623 L -19.102783,-53.588623 z M -34.942627,-47.988037 C -35.128992,-46.121989 -33.702398,-45.122234 -30.662842,-44.98877 L -23.342285,-44.98877 C -20.302753,-45.122234 -18.889587,-46.121989 -19.102783,-47.988037 L -34.942627,-47.988037 z M -19.782715,-52.148193 L -34.302979,-52.148193 C -34.675704,-52.148187 -34.995528,-52.014927 -35.262451,-51.748413 C -35.529382,-51.481888 -35.662845,-51.175288 -35.662842,-50.828613 C -35.662845,-50.428218 -35.529382,-50.101477 -35.262451,-49.848389 C -34.995528,-49.595293 -34.675704,-49.468747 -34.302979,-49.46875 L -19.782715,-49.46875 C -19.409199,-49.468747 -19.089172,-49.595293 -18.822632,-49.848389 C -18.556132,-50.101477 -18.422872,-50.428218 -18.422852,-50.828613 C -18.422872,-51.175288 -18.556132,-51.481888 -18.822632,-51.748413 C -19.089172,-52.014927 -19.409199,-52.148187 -19.782715,-52.148193 L -19.782715,-52.148193 z" id="flowRoot3192" fill="#ffffff"/>
</svg>
