<?xml version="1.0" encoding="UTF-8" standalone="no"?>
<svg xmlns="http://www.w3.org/2000/svg" xmlns:sodipodi="http://sodipodi.sourceforge.net/DTD/sodipodi-0.dtd" xmlns:inkscape="http://www.inkscape.org/namespaces/inkscape" version="1.0" width="580" height="580">
 <metadata id="metadata71"/>
 <defs id="defs4">
  <symbol viewBox="244.5 110 489 219.9" id="symbol-university">
   <path d="m 79,43 57,119 c 0,0 21,-96 104,-96 83,0 124,106 124,106 L 407,39 489,22 0,17 79,43 z" id="path4460"/>
   <path d="M 94,176 73,215" id="path4462" fill="none" stroke="#000000" stroke-width="20"/>
   <path d="M 300,19 C 300,29.5 277.4,38 249.5,38 221.6,38 199,29.5 199,19 199,8.5 221.6,0 249.5,0 277.4,0 300,8.5 300,19 z" id="path4464"/>
   <path d="M 112,216 96,178 64,88 C 64,88 55,80 60,53 65,26 76,29 76,29" id="path4466" stroke="#000000" stroke-width="20"/>
  </symbol>
  <marker orient="auto" id="Arrow2Lend">
   <path d="M 8.7185878,4.0337352 -2.2072895,0.01601326 8.7185884,-4.0017078 c -1.7454984,2.3720609 -1.7354408,5.6174519 -6e-7,8.035443 z" transform="matrix(-1.1,0,0,-1.1,-1.1,0)" id="path4137" fill-rule="evenodd" stroke-linejoin="round" stroke-width=".625"/>
  </marker>
  <marker orient="auto" id="Arrow1Mend">
   <path d="M 0,0 5,-5 -12.5,0 5,5 0,0 z" transform="matrix(-0.4,0,0,-0.4,-4,0)" id="path4125" fill-rule="evenodd" stroke="#000000" stroke-width="1.25"/>
  </marker>
  <marker orient="auto" id="TriangleOutL">
   <path d="m 5.77,0 -8.65,5 0,-10 8.65,5 z" transform="scale(0.8,0.8)" id="path4214" fill-rule="evenodd" stroke="#000000" stroke-width="1.25"/>
  </marker>
  <marker orient="auto" id="Arrow1Lend">
   <path d="M 0,0 5,-5 -12.5,0 5,5 0,0 z" transform="matrix(-0.8,0,0,-0.8,-10,0)" id="path4119" fill-rule="evenodd" stroke="#000000" stroke-width="1.25"/>
  </marker>
  <marker orient="auto" id="Tail">
   <g transform="scale(-1.2,-1.2)" id="g4152">
    <path d="M -3.8048674,-3.9585227 0.54352094,0" id="path4154" fill="none" stroke="#000000" stroke-linecap="round" stroke-width=".8"/>
    <path d="M -1.2866832,-3.9585227 3.0617053,0" id="path4156" fill="none" stroke="#000000" stroke-linecap="round" stroke-width=".8"/>
    <path d="M 1.3053582,-3.9585227 5.6537466,0" id="path4158" fill="none" stroke="#000000" stroke-linecap="round" stroke-width=".8"/>
    <path d="M -3.8048674,4.1775838 0.54352094,0.21974226" id="path4160" fill="none" stroke="#000000" stroke-linecap="round" stroke-width=".8"/>
    <path d="M -1.2866832,4.1775838 3.0617053,0.21974226" id="path4162" fill="none" stroke="#000000" stroke-linecap="round" stroke-width=".8"/>
    <path d="M 1.3053582,4.1775838 5.6537466,0.21974226" id="path4164" fill="none" stroke="#000000" stroke-linecap="round" stroke-width=".8"/>
   </g>
  </marker>
  <marker orient="auto" id="Arrow1Sstart">
   <path d="M 0,0 5,-5 -12.5,0 5,5 0,0 z" transform="matrix(0.2,0,0,0.2,1.2,0)" id="path4128" fill-rule="evenodd" stroke="#000000" stroke-width="1.25"/>
  </marker>
  <marker orient="auto" id="Arrow1Send">
   <path d="M 0,0 5,-5 -12.5,0 5,5 0,0 z" transform="matrix(-0.2,0,0,-0.2,-1.2,0)" id="path4131" fill-rule="evenodd" stroke="#000000" stroke-width="1.25"/>
  </marker>
  <marker orient="auto" id="SemiCircleOut">
   <path d="m -2.5,-0.80913858 c 0,2.75999998 -2.24,4.99999998 -5,4.99999998 l 0,-10 c 2.76,0 5,2.24 5,5.00000002 z" transform="matrix(0.6,0,0,0.6,4.2752958,0.4580676)" id="path4235" fill-rule="evenodd" stroke="#000000" stroke-width="1.25"/>
  </marker>
  <marker orient="auto" id="Arrow2Send">
   <path d="M 8.7185878,4.0337352 -2.2072895,0.01601326 8.7185884,-4.0017078 c -1.7454984,2.3720609 -1.7354408,5.6174519 -6e-7,8.035443 z" transform="matrix(-0.3,0,0,-0.3,0.69,0)" id="path4149" fill-rule="evenodd" stroke-linejoin="round" stroke-width=".625"/>
  </marker>
  <marker orient="auto" id="TriangleOutS">
   <path d="m 5.77,0 -8.65,5 0,-10 8.65,5 z" transform="scale(0.2,0.2)" id="path4220" fill-rule="evenodd" stroke="#000000" stroke-width="1.25"/>
  </marker>
  <marker orient="auto" id="CurveIn">
   <path d="m 4.625493,-5.0456926 c -2.76,0 -5.00000002,2.24 -5.00000002,5.00000002 0,2.75999998 2.24000002,4.99999998 5.00000002,4.99999998" transform="scale(0.6,0.6)" id="path4238" fill="none" stroke="#000000" stroke-width="1.25"/>
  </marker>
  <marker orient="auto" id="InfiniteLineStart">
   <g transform="translate(-13,0)" id="g4298">
    <circle cx="3" r=".8" id="circle4300"/>
    <circle cx="6.5" r=".8" id="circle4302"/>
    <circle cx="10" r=".8" id="circle4304"/>
   </g>
  </marker>
  <marker orient="auto" id="StopS">
   <path d="M 0,5.65 0,-5.65" transform="scale(0.2,0.2)" id="path4229" fill="none" stroke="#000000" stroke-width="1.25"/>
  </marker>
  <marker orient="auto" id="Arrow2Sstart">
   <path d="M 8.7185878,4.0337352 -2.2072895,0.01601326 8.7185884,-4.0017078 c -1.7454984,2.3720609 -1.7354408,5.6174519 -6e-7,8.035443 z" transform="matrix(0.3,0,0,0.3,-0.69,0)" id="path4146" fill-rule="evenodd" stroke-linejoin="round" stroke-width=".625"/>
  </marker>
  <marker orient="auto" id="DiamondS">
   <path d="M 0,-7.0710768 -7.0710894,0 0,7.0710589 7.0710462,0 0,-7.0710768 z" transform="scale(0.2,0.2)" id="path4202" fill-rule="evenodd" stroke="#000000" stroke-width="1.25"/>
  </marker>
  <marker orient="auto" id="RazorWire">
       style="overflow:visible"&gt;
         <path d="m 0.02272727,-0.74009011 0,1.4375 -7.78124997,2.31250001 18.4374997,0 -7.1874997,-2.31250001 0,-1.4375 7.2499997,-2.15624999 -18.4687497,0 7.74999997,2.15624999 z" transform="scale(0.8,0.8)" id="path4286" fill="#808080" fill-rule="evenodd" stroke="#000000" stroke-width=".125"/></marker>
 </defs>
 <g id="g1327">
  <path d="M 66.275,1.768 C 24.94,1.768 1.704,23.139 1.704,66.804 l 0,450.123 c 0,40.844 20.895,62.229 62.192,62.229 l 452.024,0 c 41.307,0 62.229,-20.315 62.229,-62.229 l 0,-450.123 c 0,-42.601 -20.922,-65.036 -63.521,-65.036 -0.004,0 -448.495,-0.143 -448.353,0 z" id="path1329" fill="#734A08" stroke="#eeeeee" stroke-width="3.408"/>
 </g>
 <path d="M 551.05327,209.31641 A 220.89232,210.97884 0 1 1 400.20094,76.260452 L 342.93649,280.02646 z" transform="matrix(1.2190813,0,0,1.2472727,-130.95215,-68.62914)" id="path2870" fill="#ffffff" fill-opacity=".477"/>
 <path d="M 556.58759,221.14844 A 192.56613,173.38625 0 1 1 426.26688,112.09118 l -51.10816,167.16807 z" transform="matrix(1.2827915,-9.4044201e-5,9.1839458e-5,1.4158724,-195.87921,-111.50756)" id="path3767" fill="#ffffff" fill-opacity=".477"/>
 <path d="m 217.73233,284.82711 a 20,20 0 0 1 -40,0 20,20 0 1 1 40,0 z" id="path3771-6" fill-opacity=".39"/>
 <path d="m 260.25105,84.937238 a 20,20 0 0 1 -40,0 20,20 0 1 1 40,0 z" id="path3771-6-6" fill-opacity=".39"/>
 <path d="m 168.03347,152.88703 a 20,20 0 0 1 -40,0 20,20 0 1 1 40,0 z" id="path3771-6-3" fill-opacity=".39"/>
 <path d="m 250.54393,189.2887 a 20,20 0 0 1 -40,0 20,20 0 1 1 40,0 z" id="path3771-6-4" fill-opacity=".39"/>
 <path d="m 117.07113,262.09205 a 20,20 0 0 1 -40,0 20,20 0 1 1 40,0 z" id="path3771-6-2" fill-opacity=".39"/>
 <path d="m 153.4728,366.44351 a 20,20 0 0 1 -40,0 20,20 0 1 1 40,0 z" id="path3771-6-7" fill-opacity=".39"/>
 <path d="m 284.51882,344.60252 a 20,20 0 0 1 -40,0 20,20 0 1 1 40,0 z" id="path3771-6-43" fill-opacity=".39"/>
 <path d="m 384.01674,344.60251 a 20,20 0 0 1 -40,0 20,20 0 1 1 40,0 z" id="path3771-6-78" fill-opacity=".39"/>
 <path d="m 493.22176,303.34728 a 20,20 0 0 1 -40,0 20,20 0 1 1 40,0 z" id="path3771-6-8" fill-opacity=".39"/>
 <path d="m 449.53975,417.40586 a 20,20 0 0 1 -40,0 20,20 0 1 1 40,0 z" id="path3771-6-431" fill-opacity=".39"/>
 <path d="m 342.76151,456.23431 a 20,20 0 0 1 -40,0 20,20 0 1 1 40,0 z" id="path3771-6-20" fill-opacity=".39"/>
 <path d="m 214.14226,451.38075 a 20,20 0 0 1 -40,0 20,20 0 1 1 40,0 z" id="path3771-6-9" fill-opacity=".39"/>
 <path sodipodi:type="arc" id="path3939-6" sodipodi:cx="276.19046" sodipodi:cy="223.25397" sodipodi:rx="39.89418" sodipodi:ry="37.592594" d="m 316.08464,223.25397 a 39.89418,37.592594 0 1 1 -79.78836,0 l 39.89418,0 z" transform="matrix(0.63488974,-0.22348954,0.21684349,0.61600964,175.75323,165.23619)" sodipodi:start="0" sodipodi:end="3.1415927" fill-opacity=".39"/>
 <path sodipodi:type="arc" id="path3939-6-7" sodipodi:cx="276.19046" sodipodi:cy="223.25397" sodipodi:rx="39.89418" sodipodi:ry="37.592594" d="m 316.08464,223.25397 a 39.89418,37.592594 0 1 1 -79.78836,0 l 39.89418,0 z" transform="matrix(-0.1864801,0.64672848,-0.62749633,-0.18093463,518.83158,-5.192875)" sodipodi:start="0" sodipodi:end="3.1415927" fill-opacity=".39"/>
</svg>
