<?xml version="1.0" encoding="UTF-8" standalone="no"?>
<svg xmlns="http://www.w3.org/2000/svg" xmlns:sodipodi="http://sodipodi.sourceforge.net/DTD/sodipodi-0.dtd" xmlns:inkscape="http://www.inkscape.org/namespaces/inkscape" version="1.0" width="580" height="580">
 <defs id="defs22">
  <marker viewBox="0 0 10 10" refY="5" refX="10" orient="auto" markerWidth="4" markerUnits="strokeWidth" markerHeight="3" id="ArrowStart">
   <path id="path3568" d="M 10 0 L 0 5 L 10 10 z"/>
  </marker>
  <marker viewBox="0 0 10 10" refY="5" orient="auto" markerWidth="4" markerUnits="strokeWidth" markerHeight="3" id="ArrowEnd">
   <path id="path3565" d="M 0 0 L 10 5 L 0 10 z"/>
  </marker>
  <marker viewBox="0 0 10 10" refY="5" refX="10" orient="auto" markerWidth="4" markerUnits="strokeWidth" markerHeight="3" id="marker2959">
   <path id="path2626" d="M 10 0 L 0 5 L 10 10 z"/>
  </marker>
  <marker viewBox="0 0 10 10" refY="5" orient="auto" markerWidth="4" markerUnits="strokeWidth" markerHeight="3" id="marker2956">
   <path id="path2623" d="M 0 0 L 10 5 L 0 10 z"/>
  </marker>
  <marker viewBox="0 0 10 10" refY="5" refX="10" orient="auto" markerWidth="4" markerUnits="strokeWidth" markerHeight="3" id="marker3077">
   <path id="path3298" d="M 10 0 L 0 5 L 10 10 z"/>
  </marker>
  <marker viewBox="0 0 10 10" refY="5" orient="auto" markerWidth="4" markerUnits="strokeWidth" markerHeight="3" id="marker3074">
   <path id="path3295" d="M 0 0 L 10 5 L 0 10 z"/>
  </marker>
 </defs>
 <metadata id="metadata10"/>
 <g id="g1327">
  <path d="M 66.275,1.768 C 24.94,1.768 1.704,23.139 1.704,66.804 L 1.704,516.927 C 1.704,557.771 22.598,579.156 63.896,579.156 L 515.92,579.156 C 557.227,579.156 578.149,558.84 578.149,516.927 L 578.149,66.804 C 578.149,24.203 557.227,1.768 514.627,1.768 C 514.624,1.768 66.133,1.625 66.275,1.768 z" id="path1329" fill="#666666" stroke="#eeeeee" stroke-width="3.408"/>
 </g>
 <path d="m 68.690452,226.50324 451.760378,0" id="path2900" fill="none" stroke="#ffffff" stroke-linecap="round" stroke-width="54.685"/>
 <path sodipodi:nodetypes="cc" id="path3730" d="m 68.690452,360.07403 451.760378,0" fill="none" stroke="#ffffff" stroke-linecap="round" stroke-width="54.685"/>
 <path sodipodi:nodetypes="cc" d="M 132.37824,443.67778 452.51615,144.52914" id="path3732" fill="none" stroke="#ffffff" stroke-linecap="round" stroke-width="54.685"/>
</svg>
