<?xml version="1.0" encoding="UTF-8" standalone="no"?>
<svg xmlns="http://www.w3.org/2000/svg" version="1.0" width="580" height="580">
 <metadata id="metadata2975"/>
 <path id="path4143" d="m 39.8,167 c -6.9,3.6 -8.1,12.7 -2.7,18 18.4,25.6 22,21.5 47,11.3 l 0,274 c 0,6.3 5.1,11.5 11.5,11.5 l 30.6,0 c 6.3,0 11.5,-5.2 11.5,-11.5 0,-105 -0.2,-177 -0.2,-295 l 8.1,-3.1 144,-17 144,17.2 5.8,2.4 c -0.6,98 -0.3,197 -0.3,296 0,6.4 5,11.5 11.5,11.5 l 30.6,0 c 6.3,0 11.3,-5.1 11.4,-11.5 l 0,-274 c 32,13.6 26.7,13.4 50,-10.6 5.3,-5.4 3.9,-14.4 -2.7,-18 L 295,36.8 c -3.4,-1.7 -7.5,-1.8 -10.75,0.1 z" mix-blend-mode="normal" solid-color="#000000" opacity="0.8" color-interpolation-filters="linearRGB" filter-gaussianBlur-deviation="0" color="#000000" image-rendering="auto" color-rendering="auto" stroke-width="64" isolation="auto" color-interpolation="sRGB" solid-opacity="1" fill="none" stroke-linejoin="round" filter-blend-mode="normal" stroke="#ffffff" shape-rendering="auto"/>
 <path id="path4145" d="m 316.9,254.7 c 17.2,-1.3 29.6,-14 29.8,-29.8 -1.4,-17 -14.3,-29.5 -29.8,-29.7 -17.3,1.3 -29.4,13.9 -29.6,29.7 1.3,17.5 13.7,29.6 29.6,29.8 z" mix-blend-mode="normal" solid-color="#000000" opacity="0.8" color-interpolation-filters="linearRGB" filter-gaussianBlur-deviation="0" color="#000000" image-rendering="auto" color-rendering="auto" stroke-width="64" isolation="auto" color-interpolation="sRGB" solid-opacity="1" fill="none" stroke-linejoin="round" filter-blend-mode="normal" stroke="#ffffff" shape-rendering="auto"/>
 <path id="path4147" d="m 185.5,318.4 c -2.9,5 -1.8,8.8 3.1,11.5 l 14,8.4 c 5,3 8.9,1.9 11.6,-3 l 44,-76 c 3,-5 2,-8.8 -3,-11.6 -6.4,-2.3 -10.2,-6.3 -19.4,-10 -2.6,0 -4.8,1.6 -6.35,4.75 z" mix-blend-mode="normal" solid-color="#000000" opacity="0.8" color-interpolation-filters="linearRGB" filter-gaussianBlur-deviation="0" color="#000000" image-rendering="auto" color-rendering="auto" stroke-width="64" isolation="auto" color-interpolation="sRGB" solid-opacity="1" fill="none" stroke-linejoin="round" filter-blend-mode="normal" stroke="#ffffff" shape-rendering="auto"/>
 <path id="path4149" d="m 223.5,345.2 c -2.5,4.4 -3.8,9.9 -3.5,16.4 l 1.4,89 -30.6,66 c -8.2,26.5 24.3,39 34.5,19.5 l 33.5,-71.8 c 1.2,-2.6 1.8,-5.5 1.8,-8.3 l -0.5,-54 34,46 10,81 c 10.4,23 42,15.6 39,-6.8 l -11.8,-93 c -1.2,-6.9 -5.3,-11 -9.1,-16.4 l -30,-42 29,-51 14.6,18.6 c 1.2,1.8 2.9,3 5.4,3.9 l 29,14.2 0,171 c 1.3,13.6 12.3,13 12.3,0 l 0,-170 c 14.2,-8.1 12.7,-25 -0.3,-29.8 L 357,313 321,269 c -5.1,-6 -12,-9.5 -24.4,-11.4 -16,-0.5 -26,5.3 -33.1,17.3 z" mix-blend-mode="normal" solid-color="#000000" opacity="0.8" color-interpolation-filters="linearRGB" filter-gaussianBlur-deviation="0" color="#000000" image-rendering="auto" color-rendering="auto" stroke-width="64" isolation="auto" color-interpolation="sRGB" solid-opacity="1" fill="none" stroke-linejoin="round" filter-blend-mode="normal" stroke="#ffffff" shape-rendering="auto"/>
 <path d="m 39.8,167 c -6.9,3.6 -8.1,12.7 -2.7,18 18.4,25.6 22,21.5 47,11.3 l 0,274 c 0,6.3 5.1,11.5 11.5,11.5 l 30.6,0 c 6.3,0 11.5,-5.2 11.5,-11.5 0,-105 -0.2,-177 -0.2,-295 l 8.1,-3.1 144,-17 144,17.2 5.8,2.4 c -0.6,98 -0.3,197 -0.3,296 0,6.4 5,11.5 11.5,11.5 l 30.6,0 c 6.3,0 11.3,-5.1 11.4,-11.5 l 0,-274 c 32,13.6 26.7,13.4 50,-10.6 5.3,-5.4 3.9,-14.4 -2.7,-18 L 295,36.8 c -3.4,-1.7 -7.5,-1.8 -10.75,0.1 z" id="path4140" fill="#0092da" fill-rule="evenodd"/>
 <path d="m 316.9,254.7 c 17.2,-1.3 29.6,-14 29.8,-29.8 -1.4,-17 -14.3,-29.5 -29.8,-29.7 -17.3,1.3 -29.4,13.9 -29.6,29.7 1.3,17.5 13.7,29.6 29.6,29.8 z" id="path4138" fill="#0092da" fill-rule="evenodd"/>
 <path d="m 185.5,318.4 c -2.9,5 -1.8,8.8 3.1,11.5 l 14,8.4 c 5,3 8.9,1.9 11.6,-3 l 44,-76 c 3,-5 2,-8.8 -3,-11.6 -6.4,-2.3 -10.2,-6.3 -19.4,-10 -2.6,0 -4.8,1.6 -6.35,4.75 z" id="path4136" fill="#0092da" fill-rule="evenodd"/>
 <path d="m 223.5,345.2 c -2.5,4.4 -3.8,9.9 -3.5,16.4 l 1.4,89 -30.6,66 c -8.2,26.5 24.3,39 34.5,19.5 l 33.5,-71.8 c 1.2,-2.6 1.8,-5.5 1.8,-8.3 l -0.5,-54 34,46 10,81 c 10.4,23 42,15.6 39,-6.8 l -11.8,-93 c -1.2,-6.9 -5.3,-11 -9.1,-16.4 l -30,-42 29,-51 14.6,18.6 c 1.2,1.8 2.9,3 5.4,3.9 l 29,14.2 0,171 c 1.3,13.6 12.3,13 12.3,0 l 0,-170 c 14.2,-8.1 12.7,-25 -0.3,-29.8 L 357,313 321,269 c -5.1,-6 -12,-9.5 -24.4,-11.4 -16,-0.5 -26,5.3 -33.1,17.3 z" id="path4142" fill="#0092da" fill-rule="evenodd"/>
</svg>
