<?xml version="1.0" encoding="UTF-8" standalone="no"?>
<svg xmlns="http://www.w3.org/2000/svg" version="1.0" width="580" height="580">
 <metadata id="metadata2975"/>
 <path white-space="normal" isolation="auto" mix-blend-mode="normal" id="path4136" d="m 238,69.9 35.5,69.6 C 201.85647,277.57135 133.9648,402.34008 70.8,520 l 434.2,0 0,0 1,0 C 438.24843,393.7415 371.88254,266.72481 305,140 L 340,72 317,60 290,111 261,58 Z M 378,494 202,494 c 20,-40 66,-134 88,-208 22,73 67,167 88,208 z" solid-color="#000000" color-interpolation-filters="linearRGB" opacity="0.8" filter-gaussianBlur-deviation="0" color="#000000" image-rendering="auto" color-rendering="auto" stroke-width="64" color-interpolation="sRGB" solid-opacity="1" fill="none" stroke-linejoin="round" filter-blend-mode="normal" stroke="#ffffff" shape-rendering="auto"/>
 <path d="m 238,69.9 35.5,69.6 C 201.85647,277.57135 133.9648,402.34008 70.8,520 l 434.2,0 0,0 1,0 C 438.24843,393.7415 371.88254,266.72481 305,140 L 340,72 317,60 290,111 261,58 Z M 378,494 202,494 c 20,-40 66,-134 88,-208 22,73 67,167 88,208 z" id="path2443" mix-blend-mode="normal" isolation="auto" white-space="normal" fill="#0092da" color-rendering="auto" solid-opacity="1" color-interpolation-filters="linearRGB" shape-rendering="auto" fill-rule="evenodd" image-rendering="auto" color-interpolation="sRGB" color="#000000" solid-color="#000000"/>
</svg>
