<?xml version="1.0" encoding="UTF-8" standalone="no"?>
<svg xmlns="http://www.w3.org/2000/svg" version="1.0" width="580" height="580">
 <metadata id="metadata2975"/>
 <path id="path4154" d="m 437.37231,250.39628 c -4.5e-4,11.35401 -5.48014,17.03089 -16.43911,17.0307 l -58.15534,0 c -10.97172,1.9e-4 -16.45739,-5.67669 -16.45704,-17.0307 l 0,-27.60765 c -3.5e-4,-10.9711 5.48532,-16.45678 16.45704,-16.45704 l 58.15534,0 c 10.95897,2.6e-4 16.43866,5.48594 16.43911,16.45704 l 0,27.60765 z m -165.64595,0.59155 c -2.7e-4,10.9596 -5.68314,16.4393 -17.04861,16.43911 l -125.70448,0 c -10.97148,1.9e-4 -16.45714,-5.47951 -16.45702,-16.43911 l 0,-28.19925 c -1.2e-4,-10.9711 5.48554,-16.45677 16.45702,-16.45704 l 125.70448,0 c 11.36547,2.7e-4 17.04834,5.48594 17.04861,16.45704 l 0,28.19925 z m 257.88062,132.17613 -42.30784,0 0,-146.85839 c -4.9e-4,-22.71928 -7.93022,-41.91018 -23.78919,-57.57271 -15.85992,-15.66197 -34.95221,-23.49309 -57.27693,-23.49341 l -274.91131,0 c -22.71965,3.2e-4 -41.910547,7.83144 -57.572716,23.49341 -15.662329,15.66253 -23.49345,34.85343 -23.493391,57.57271 l 0,103.97689 c -5.9e-5,16.44518 5.874027,30.54181 17.622287,42.28991 11.748113,11.74826 25.844727,17.62236 42.28991,17.62229 l 94.58311,0 c 1.17104,-16.83939 7.82793,-31.13322 19.97074,-42.88151 12.14234,-11.74806 26.83056,-17.62215 44.06468,-17.62228 16.83918,1.3e-4 31.42582,5.87422 43.75993,17.62228 12.33347,11.74829 18.89477,25.84492 19.6839,42.28992 l 213.81592,0 c -5.5e-4,-10.95932 -5.48025,-16.43902 -16.4391,-16.43911 l 0,0 z m -260.82065,41.10672 c -5.48595,5e-5 -10.18582,-1.95699 -14.09962,-5.8711 -3.91434,-3.91403 -5.87137,-8.61389 -5.87111,-14.09963 -2.6e-4,-5.86805 1.95677,-10.66353 5.87111,-14.38645 3.9138,-3.72277 8.61367,-5.5842 14.09962,-5.58428 5.47344,8e-5 10.17033,1.86151 14.09067,5.58428 3.91975,3.72292 5.87977,8.5184 5.88006,14.38645 -2.9e-4,5.48574 -1.96031,10.1856 -5.88006,14.09963 -3.92034,3.91411 -8.61723,5.87115 -14.09067,5.8711 l 0,0 z m 0,-66.36594 c -12.93164,1.2e-4 -23.9,4.50279 -32.9051,13.50804 -9.00558,9.00544 -13.50826,19.96782 -13.50802,32.88717 -2.4e-4,12.53704 4.50244,23.30819 13.50802,32.3135 9.0051,9.00539 19.97346,13.50805 32.9051,13.50804 12.52475,1e-5 23.29292,-4.50265 32.30455,-13.50804 9.01101,-9.00531 13.51667,-19.77646 13.51699,-32.3135 -3.2e-4,-12.91935 -4.50598,-23.88173 -13.51699,-32.88717 -9.01163,-9.00525 -19.7798,-13.50792 -32.30455,-13.50804 l 0,0 z" mix-blend-mode="normal" solid-color="#000000" opacity="0.8" color-interpolation-filters="linearRGB" color="#000000" image-rendering="auto" color-rendering="auto" stroke-width="64" isolation="auto" color-interpolation="sRGB" solid-opacity="1" fill="none" stroke-linejoin="round" stroke="#ffffff" shape-rendering="auto"/>
 <path d="m 437.37231,250.39628 c -4.5e-4,11.35401 -5.48014,17.03089 -16.43911,17.0307 l -58.15534,0 c -10.97172,1.9e-4 -16.45739,-5.67669 -16.45704,-17.0307 l 0,-27.60765 c -3.5e-4,-10.9711 5.48532,-16.45678 16.45704,-16.45704 l 58.15534,0 c 10.95897,2.6e-4 16.43866,5.48594 16.43911,16.45704 l 0,27.60765 z m -165.64595,0.59155 c -2.7e-4,10.9596 -5.68314,16.4393 -17.04861,16.43911 l -125.70448,0 c -10.97148,1.9e-4 -16.45714,-5.47951 -16.45702,-16.43911 l 0,-28.19925 c -1.2e-4,-10.9711 5.48554,-16.45677 16.45702,-16.45704 l 125.70448,0 c 11.36547,2.7e-4 17.04834,5.48594 17.04861,16.45704 l 0,28.19925 z m 257.88062,132.17613 -42.30784,0 0,-146.85839 c -4.9e-4,-22.71928 -7.93022,-41.91018 -23.78919,-57.57271 -15.85992,-15.66197 -34.95221,-23.49309 -57.27693,-23.49341 l -274.91131,0 c -22.71965,3.2e-4 -41.910547,7.83144 -57.572716,23.49341 -15.662329,15.66253 -23.49345,34.85343 -23.493391,57.57271 l 0,103.97689 c -5.9e-5,16.44518 5.874027,30.54181 17.622287,42.28991 11.748113,11.74826 25.844727,17.62236 42.28991,17.62229 l 94.58311,0 c 1.17104,-16.83939 7.82793,-31.13322 19.97074,-42.88151 12.14234,-11.74806 26.83056,-17.62215 44.06468,-17.62228 16.83918,1.3e-4 31.42582,5.87422 43.75993,17.62228 12.33347,11.74829 18.89477,25.84492 19.6839,42.28992 l 213.81592,0 c -5.5e-4,-10.95932 -5.48025,-16.43902 -16.4391,-16.43911 l 0,0 z m -260.82065,41.10672 c -5.48595,5e-5 -10.18582,-1.95699 -14.09962,-5.8711 -3.91434,-3.91403 -5.87137,-8.61389 -5.87111,-14.09963 -2.6e-4,-5.86805 1.95677,-10.66353 5.87111,-14.38645 3.9138,-3.72277 8.61367,-5.5842 14.09962,-5.58428 5.47344,8e-5 10.17033,1.86151 14.09067,5.58428 3.91975,3.72292 5.87977,8.5184 5.88006,14.38645 -2.9e-4,5.48574 -1.96031,10.1856 -5.88006,14.09963 -3.92034,3.91411 -8.61723,5.87115 -14.09067,5.8711 l 0,0 z m 0,-66.36594 c -12.93164,1.2e-4 -23.9,4.50279 -32.9051,13.50804 -9.00558,9.00544 -13.50826,19.96782 -13.50802,32.88717 -2.4e-4,12.53704 4.50244,23.30819 13.50802,32.3135 9.0051,9.00539 19.97346,13.50805 32.9051,13.50804 12.52475,1e-5 23.29292,-4.50265 32.30455,-13.50804 9.01101,-9.00531 13.51667,-19.77646 13.51699,-32.3135 -3.2e-4,-12.91935 -4.50598,-23.88173 -13.51699,-32.88717 -9.01163,-9.00525 -19.7798,-13.50792 -32.30455,-13.50804 l 0,0 z" id="flowRoot3192" fill="#0092da"/>
</svg>
