<?xml version="1.0" encoding="UTF-8" standalone="no"?>
<svg xmlns="http://www.w3.org/2000/svg" xmlns:sodipodi="http://sodipodi.sourceforge.net/DTD/sodipodi-0.dtd" xmlns:inkscape="http://www.inkscape.org/namespaces/inkscape" version="1.0" width="580" height="580">
 <metadata id="metadata2975"/>
 <defs id="defs4">
  <symbol viewBox="244.5 110 489 219.9" id="symbol-university">
   <path id="path4460" d="M79,43l57,119c0,0,21-96,104-96s124,106,124,106l43-133l82-17L0,17L79,43z"/>
   <path id="path4462" d="M94,176l-21,39" stroke-width="20" stroke="#000000" fill="none"/>
   <path id="path4464" d="M300,19c0,10.5-22.6,19-50.5,19S199,29.5,199,19s22.6-19,50.5-19S300,8.5,300,19z"/>
   <path id="path4466" d="M112,216l-16-38L64,88c0,0-9-8-4-35s16-24,16-24" stroke-width="20" stroke="#000000" ill="none"/>
  </symbol>
 </defs>
 <g id="g8101">
  <path id="path8105" d="M 184.57,66.176 22.128,206.55 l 32.488,0 0,210.57 97.464,0 0,-107.01 67.21,0 0,107.01 95.24,0 0,-210.57 32.48,0 -162.44,-140.374 0,0 0,0 z m 215.05,114.724 -7.38,15.7 -5.95,12.61 C 365.63,253 344.9,296.77 324.13,340.5 c -9.95,-13.67 -19.9,-27.32 -29.95,-40.92 l -7.18,-9.75 -6.36,10.26 C 241.5,362.73 202.75,425.6 163.4,488 l -7.79,12.41 14.67,0.1 c 122.88,1.05 245.76,2.02 368.63,3.08 l 13.13,0.1 -5.64,-11.79 C 500.09,393.37 453.52,295 407.01,196.6 l -7.39,-15.7 z m 0,138.99 c 2.49,0 4.94,1.21 6.46,3.18 7.34,9.24 14.49,16.8 17.34,17.95 1.42,0.57 1.08,0.66 2.56,-0.31 1.49,-0.97 4.49,-4.12 7.8,-10.57 1.39,-2.68 4.36,-4.45 7.38,-4.41 3.03,0 5.97,1.9 7.29,4.62 l 66.87,141.55 c 2.44,5.01 -1.92,11.87 -7.49,11.79 l -302.17,-2.56 c -2.88,-0 -5.69,-1.68 -7.08,-4.21 -1.38,-2.53 -1.3,-5.85 0.21,-8.31 l 59.49,-95.49 c 2.58,-4.16 9.22,-4.97 12.72,-1.54 5.3,5.26 9.89,8.04 15.38,8.41 5.5,0.37 13.19,-1.68 24.52,-10.05 3.47,-2.62 9.04,-1.78 11.59,1.75 l 5.23,7.18 21.54,-45.55 c 1.26,-2.75 4.15,-4.71 7.18,-4.82 3.03,-0.1 6.04,1.65 7.49,4.31 2.13,3.87 4.25,6.03 5.84,6.98 1.6,0.95 2.62,1.12 4.52,0.71 3.78,-0.8 11.09,-5.99 18.67,-17.02 1.47,-2.17 4.04,-3.55 6.66,-3.59 z" opacity="0.8" fill="none" stroke="#ffffff" stroke-linejoin="round" stroke-width="40"/>
 </g>
 <path inkscape:connector-curvature="0" id="path5240-1" d="m 393.67597,212.73143 c -22.60621,47.92953 -45.25319,95.83979 -68.00405,143.70085 -12.60271,-17.39413 -25.2881,-34.72804 -38.05354,-52.00309 -39.11955,62.61111 -77.85915,125.45937 -117.23774,187.90861 122.87897,1.04217 245.7585,2.01795 368.6373,3.0771 -46.30032,-98.51045 -92.87536,-196.89159 -139.3929,-295.2996 -1.98304,4.20537 -3.96604,8.41075 -5.94907,12.61613 z" fill="#ffffff"/>
 <path inkscape:connector-curvature="0" id="path5240" d="m 393.67597,212.73143 c -22.60621,47.92953 -45.25319,95.83979 -68.00405,143.70085 -12.60271,-17.39413 -25.2881,-34.72804 -38.05354,-52.00309 -39.11955,62.61111 -77.85915,125.45937 -117.23774,187.90861 122.87897,1.04217 245.7585,2.01795 368.6373,3.0771 -46.30032,-98.51045 -92.87536,-196.89159 -139.3929,-295.2996 -1.98304,4.20537 -3.96604,8.41075 -5.94907,12.61613 z" opacity="0.25" fill="#0092da" stroke="#0092da"/>
 <g id="g8092">
  <path fill="#0092da" stroke-width="5" color="#000000" opacity="0.5" id="path3744" d="m 399.62231,180.90483 -7.38505,15.69324 -5.94907,12.61614 c -20.6536,43.7896 -41.39031,87.56068 -62.15754,131.28985 -9.94882,-13.67275 -19.90161,-27.32667 -29.9505,-40.92551 l -7.17992,-9.74416 -6.35935,10.25702 c -39.13714,62.63924 -77.88892,125.5066 -117.23774,187.9086 l -7.79533,12.411 14.66754,0.1024 c 122.88192,1.04221 245.7622,2.01799 368.6373,3.07711 l 13.12898,0.1024 -5.64136,-11.79557 C 500.09345,393.37373 453.52353,295.0032 407.00737,196.59807 l -7.38506,-15.69324 z m 0,138.98262 c 2.48519,0.007 4.93962,1.21532 6.46193,3.17968 7.33939,9.24471 14.48281,16.80271 17.33436,17.94978 1.42578,0.57371 1.07763,0.66578 2.56426,-0.30754 1.48662,-0.97348 4.4883,-4.11961 7.79533,-10.56473 1.39433,-2.68386 4.36089,-4.45286 7.38505,-4.41052 3.02414,0.0423 5.96375,1.89386 7.28249,4.61566 l 66.87577,141.54687 c 2.43717,5.01006 -1.91673,11.86877 -7.48763,11.79558 l -302.1718,-2.56442 c -2.8853,-0.0397 -5.68833,-1.67615 -7.07735,-4.20538 -1.38888,-2.52923 -1.30961,-5.85218 0.20514,-8.30819 l 59.49072,-95.49285 c 2.58116,-4.16468 9.21894,-4.96762 12.7187,-1.53856 5.3028,5.25747 9.89394,8.04016 15.38553,8.41076 5.4916,0.3706 13.18531,-1.68658 24.51428,-10.05188 3.47449,-2.61976 9.04052,-1.78239 11.59043,1.74369 l 5.23108,7.17992 21.53975,-45.54117 c 1.25972,-2.75269 4.15453,-4.71511 7.17991,-4.8208 3.02538,-0.10569 6.03871,1.64999 7.48762,4.30795 2.13163,3.86819 4.25504,6.02391 5.84651,6.97477 1.59146,0.95071 2.61975,1.12066 4.51308,0.71799 3.78667,-0.80533 11.08861,-5.99482 18.66778,-17.02665 1.47553,-2.16917 4.04389,-3.55221 6.66706,-3.58996 z" inkscape:connector-curvature="0"/>
  <path stroke-width="0.852" fill-rule="evenodd" fill="#0092da" sodipodi:nodetypes="ccccccccccccc" id="path645" d="M 184.57113,66.176498 22.127529,206.5523 l 32.488502,0 0,210.56359 97.466389,0 0,-107.00635 67.20514,0 2.2e-4,107.00635 95.23845,0 0,-210.56359 32.4887,0 -162.4438,-140.375802 0,0 0,0 z"/>
 </g>
</svg>
