<?xml version="1.0" encoding="UTF-8" standalone="no"?>
<svg xmlns="http://www.w3.org/2000/svg" version="1.0" width="580" height="580">
 <metadata id="metadata2975"/>
 <path id="path4151" d="M 56.699219 35 C 38.699219 35.5 38.8 55 39.5 68 C 38.7 223 37.000781 377 36.800781 531 C 41.000781 555 73.000781 543 70.800781 522 L 71 494 L 506 497 C 507 511 502 531 519 535 C 538 539 542 518 540 504 C 541 385 543 266 543 147 C 539 123 503 134 509 156 L 508 237 L 73 234 C 73 172 74 111 74 49 C 72.8 41 64.899219 34.8 56.699219 35 z M 72 267 L 508 269 L 506 461 L 71 459 L 72 267 z " mix-blend-mode="normal" solid-color="#000000" opacity="0.8" color-interpolation-filters="linearRGB" filter-gaussianBlur-deviation="0" color="#000000" image-rendering="auto" color-rendering="auto" stroke-width="64" isolation="auto" color-interpolation="sRGB" solid-opacity="1" fill="none" stroke-linejoin="round" filter-blend-mode="normal" stroke="#ffffff" shape-rendering="auto"/>
 <path id="path4153" d="m 143,144 c 18,34 73,31 88,-4 7,-38 -8,-66 -48,-67.1 C 149,73 125,114 143,144 Z" mix-blend-mode="normal" solid-color="#000000" opacity="0.8" color-interpolation-filters="linearRGB" filter-gaussianBlur-deviation="0" color="#000000" image-rendering="auto" color-rendering="auto" stroke-width="64" isolation="auto" color-interpolation="sRGB" solid-opacity="1" fill="none" stroke-linejoin="round" filter-blend-mode="normal" stroke="#ffffff" shape-rendering="auto"/>
 <path id="path4155" d="m 235,204 c 16,19 42,11 63,13 44,-1 89,1 133,-1 28,-4 34,-62 -3,-66 -55.66676,-0.3014 -111.33294,-3 -167,-3 -28,0 -45,37 -26,57 z" mix-blend-mode="normal" solid-color="#000000" opacity="0.8" color-interpolation-filters="linearRGB" filter-gaussianBlur-deviation="0" color="#000000" image-rendering="auto" color-rendering="auto" stroke-width="64" isolation="auto" color-interpolation="sRGB" solid-opacity="1" fill="none" stroke-linejoin="round" filter-blend-mode="normal" stroke="#ffffff" shape-rendering="auto"/>
 <path id="path4157" d="m 134,178 c -26,-1 -20,41 4,35 l 69,0 c 23,-5 15,-36 6,-36 z" mix-blend-mode="normal" solid-color="#000000" opacity="0.8" color-interpolation-filters="linearRGB" filter-gaussianBlur-deviation="0" color="#000000" image-rendering="auto" color-rendering="auto" stroke-width="64" isolation="auto" color-interpolation="sRGB" solid-opacity="1" fill="none" stroke-linejoin="round" filter-blend-mode="normal" stroke="#ffffff" shape-rendering="auto"/>
 <path id="path4159" d="m 138,368 c 18,34 73,31 88,-4 7,-38 -8,-66 -48,-67 -34,0 -58,41 -40,71 z" mix-blend-mode="normal" solid-color="#000000" opacity="0.8" color-interpolation-filters="linearRGB" filter-gaussianBlur-deviation="0" color="#000000" image-rendering="auto" color-rendering="auto" stroke-width="64" isolation="auto" color-interpolation="sRGB" solid-opacity="1" fill="none" stroke-linejoin="round" filter-blend-mode="normal" stroke="#ffffff" shape-rendering="auto"/>
 <path id="path4161" d="m 256,444 c 44,0 127,0 171,-2 46,-7 37,-68 -6,-69 l -163,0 c -53,8 -37,69 -2,71 z" mix-blend-mode="normal" solid-color="#000000" opacity="0.8" color-interpolation-filters="linearRGB" filter-gaussianBlur-deviation="0" color="#000000" image-rendering="auto" color-rendering="auto" stroke-width="64" isolation="auto" color-interpolation="sRGB" solid-opacity="1" fill="none" stroke-linejoin="round" filter-blend-mode="normal" stroke="#ffffff" shape-rendering="auto"/>
 <path id="path4163" d="m 130,404 c -22,-1 -23,36 5,35 23,0 46,1 69,0 23,-5 16,-36 -7,-35 z" mix-blend-mode="normal" solid-color="#000000" opacity="0.8" color-interpolation-filters="linearRGB" filter-gaussianBlur-deviation="0" color="#000000" image-rendering="auto" color-rendering="auto" stroke-width="64" isolation="auto" color-interpolation="sRGB" solid-opacity="1" fill="none" stroke-linejoin="round" filter-blend-mode="normal" stroke="#ffffff" shape-rendering="auto"/>
 <path d="M 56.699219 35 C 38.699219 35.5 38.8 55 39.5 68 C 38.7 223 37.000781 377 36.800781 531 C 41.000781 555 73.000781 543 70.800781 522 L 71 494 L 506 497 C 507 511 502 531 519 535 C 538 539 542 518 540 504 C 541 385 543 266 543 147 C 539 123 503 134 509 156 L 508 237 L 73 234 C 73 172 74 111 74 49 C 72.8 41 64.899219 34.8 56.699219 35 z M 72 267 L 508 269 L 506 461 L 71 459 L 72 267 z " id="path4148" fill="#0092da"/>
 <path d="m 143,144 c 18,34 73,31 88,-4 7,-38 -8,-66 -48,-67.1 C 149,73 125,114 143,144 Z" id="path4146" fill="#0092da"/>
 <path d="m 235,204 c 16,19 42,11 63,13 44,-1 89,1 133,-1 28,-4 34,-62 -3,-66 -55.66676,-0.3014 -111.33294,-3 -167,-3 -28,0 -45,37 -26,57 z" id="path4144" fill="#0092da"/>
 <path d="m 134,178 c -26,-1 -20,41 4,35 l 69,0 c 23,-5 15,-36 6,-36 z" id="path4142" fill="#0092da"/>
 <path d="m 138,368 c 18,34 73,31 88,-4 7,-38 -8,-66 -48,-67 -34,0 -58,41 -40,71 z" id="path4138" fill="#0092da"/>
 <path d="m 256,444 c 44,0 127,0 171,-2 46,-7 37,-68 -6,-69 l -163,0 c -53,8 -37,69 -2,71 z" id="path4136" fill="#0092da"/>
 <path d="m 130,404 c -22,-1 -23,36 5,35 23,0 46,1 69,0 23,-5 16,-36 -7,-35 z" id="path4189" fill="#0092da"/>
</svg>
