<?xml version="1.0" encoding="UTF-8" standalone="no"?>
<svg xmlns="http://www.w3.org/2000/svg" version="1.0" width="580" height="580">
 <metadata id="metadata2975"/>
 <path id="path4142" d="M 167,138.19922 C 136.5,137.69922 109,160.6 109,192 c 0,31.4 28,55 58,55 30.5,0 58,-22.9 58,-54 0,-31.4 -28,-54.00078 -58,-54.80078 z" mix-blend-mode="normal" solid-color="#000000" opacity="0.8" color-interpolation-filters="linearRGB" filter-gaussianBlur-deviation="0" color="#000000" image-rendering="auto" color-rendering="auto" stroke-width="64" isolation="auto" color-interpolation="sRGB" solid-opacity="1" fill="none" stroke-linejoin="round" filter-blend-mode="normal" stroke="#ffffff" shape-rendering="auto"/>
 <path id="path4144" d="m 58.199219,171.59961 c -9.4,0.5 -17,8.10039 -17,16.90039 L 37.900391,426 c -0.3,9.5 7.30039,17.4 16.90039,17.5 9.5,0.1 17.398828,-7.6 17.298828,-17 l 1,-71 434.000001,2.90039 L 506,417.30078 c -0.3,9.5 7.20078,17.39961 16.80078,17.59961 9.5,0.2 17.4,-7.4 17.5,-17 l 3.09961,-155 c 0.3,-9.6 -7.4,-17.59961 -17,-17.59961 -9.5,0 -17.00117,7.6 -17.20117,17 L 508,325.19922 74,322.30078 l 1.699219,-132 c 0.285904,-11.70664 -8.981794,-19.13181 -17.5,-18.70117 z" mix-blend-mode="normal" solid-color="#000000" opacity="0.8" color-interpolation-filters="linearRGB" filter-gaussianBlur-deviation="0" color="#000000" image-rendering="auto" color-rendering="auto" stroke-width="64" isolation="auto" color-interpolation="sRGB" solid-opacity="1" fill="none" stroke-linejoin="round" filter-blend-mode="normal" stroke="#ffffff" shape-rendering="auto"/>
 <path id="path4146" d="m 257,231 c -22.5,0 -41,18.6 -41,41 0,22.4 18.6,41 41,41 l 199,0 c 22.5,0 41,-18.6 41,-41 0,-22.4 -18.6,-41 -41,-41 z" mix-blend-mode="normal" solid-color="#000000" opacity="0.8" color-interpolation-filters="linearRGB" filter-gaussianBlur-deviation="0" color="#000000" image-rendering="auto" color-rendering="auto" stroke-width="64" isolation="auto" color-interpolation="sRGB" solid-opacity="1" fill="none" stroke-linejoin="round" filter-blend-mode="normal" stroke="#ffffff" shape-rendering="auto"/>
 <path id="path4148" d="m 103,266.30078 c -11.3,0 -20.900391,9.49883 -20.900391,20.79883 C 82.099609,298.39961 91.7,308 103,308 l 86,0 c 11.3,0 20.90039,-9.50078 20.90039,-20.80078 0,-11.3 -9.60039,-20.89844 -20.90039,-20.89844 z" mix-blend-mode="normal" solid-color="#000000" opacity="0.8" color-interpolation-filters="linearRGB" filter-gaussianBlur-deviation="0" color="#000000" image-rendering="auto" color-rendering="auto" stroke-width="64" isolation="auto" color-interpolation="sRGB" solid-opacity="1" fill="none" stroke-linejoin="round" filter-blend-mode="normal" stroke="#ffffff" shape-rendering="auto"/>
 <path d="M 167,138.19922 C 136.5,137.69922 109,160.6 109,192 c 0,31.4 28,55 58,55 30.5,0 58,-22.9 58,-54 0,-31.4 -28,-54.00078 -58,-54.80078 z" id="path4140" fill="#0092da"/>
 <path d="m 58.199219,171.59961 c -9.4,0.5 -17,8.10039 -17,16.90039 L 37.900391,426 c -0.3,9.5 7.30039,17.4 16.90039,17.5 9.5,0.1 17.398828,-7.6 17.298828,-17 l 1,-71 434.000001,2.90039 L 506,417.30078 c -0.3,9.5 7.20078,17.39961 16.80078,17.59961 9.5,0.2 17.4,-7.4 17.5,-17 l 3.09961,-155 c 0.3,-9.6 -7.4,-17.59961 -17,-17.59961 -9.5,0 -17.00117,7.6 -17.20117,17 L 508,325.19922 74,322.30078 l 1.699219,-132 c 0.285904,-11.70664 -8.981794,-19.13181 -17.5,-18.70117 z" id="path4138" fill="#0092da"/>
 <path d="m 257,231 c -22.5,0 -41,18.6 -41,41 0,22.4 18.6,41 41,41 l 199,0 c 22.5,0 41,-18.6 41,-41 0,-22.4 -18.6,-41 -41,-41 z" id="path4136" fill="#0092da"/>
 <path d="m 103,266.30078 c -11.3,0 -20.900391,9.49883 -20.900391,20.79883 C 82.099609,298.39961 91.7,308 103,308 l 86,0 c 11.3,0 20.90039,-9.50078 20.90039,-20.80078 0,-11.3 -9.60039,-20.89844 -20.90039,-20.89844 z" id="path4151" fill="#0092da"/>
</svg>
