<?xml version="1.0" encoding="UTF-8" standalone="no"?>
<svg xmlns="http://www.w3.org/2000/svg" version="1.0" width="580" height="580">
 <metadata id="metadata2975"/>
 <path mix-blend-mode="normal" white-space="normal" isolation="auto" id="path4685" d="m 354,40 c -16,16 -37,36 -50,52 -4,9 10,18 16,9 16,-16 32,-31 46,-48 3,-5 2,-14 -6,-14.1 -1,0 -3,0.1 -6,1.1 z M 228,52 c -28,26 -58,55 -81,80 -6,9 8,19 15,11 26,-26 53,-52 78,-79.2 3,-4.8 -1,-12.8 -7,-12.8 -2,0 -3,0.6 -5,1 z M 123,82 c -26,26 -57,55 -80.2,79 -5.8,9 8,19 14.9,11 C 84,146 111,120 137,93 c 3,-5 -1,-13 -8,-13 -2,0 -4,1 -6,2 z m 404,5 c -21,17 -45,40 -62,58 -6,9 8,19 15,12 19,-19 39,-38 58,-57 3,-5 -1,-14 -7,-14 -1,0 -2,0 -4,1 z m -96,14 c -17,16 -50,49 -74,74 -5,9 8,19 15,11 26,-26 53,-52 79,-79 5,-4 4,-16 -5,-15 -3,0 -9,2 -15,9 z m -169,10 c -25,23 -59,57 -82,80 -5,9 8,19 15,11 26,-26 53,-52 79,-79 3,-5 -2,-13 -8,-13 -1,0 -3,1 -4,1 z m 77,14 c -14,11 -30,27 -44,41 -4,10 10,18 16,10 13,-13 28,-25 40,-39 2,-5 -2,-13 -7,-13 -2,0 -3,0 -5,1 z m 191,36 c -21,19 -47,44 -65,63 -6,8 8,19 15,11 20,-20 41,-40 60,-60 3,-5 1,-15 -6,-15 -1,0 -3,0 -4,1 z m -102,31 -24,25 c -6,10 5,21 14,11 l 24,-27 c 4,-5 1,-14 -5,-14 -3,0 -6,1 -9,5 z m -323,-3 c -21,19 -47,43 -65.2,63 -5.8,9 8,19 14.9,11 C 75,242 97,222 117,201 c 3,-5 -1,-13 -8,-14 -1,0 -3,1 -4,2 z" solid-color="#000000" color-interpolation-filters="linearRGB" opacity="0.8" filter-gaussianBlur-deviation="0" color="#000000" image-rendering="auto" color-rendering="auto" fill-rule="evenodd" stroke-width="64" color-interpolation="sRGB" solid-opacity="1" fill="none" stroke-linejoin="round" filter-blend-mode="normal" stroke="#ffffff" shape-rendering="auto"/>
 <path mix-blend-mode="normal" white-space="normal" isolation="auto" id="path4687" d="M 98.9,346.4 139,330 c 0.1,67 -0.3,135 0.2,202 -1.2,16 46,14.4 45,-0.3 0.3,-71 0,-143 0.1,-214 33.5,-3.8 67,-8.2 101,-11.6 l 98,11.6 c 0.1,72 -0.3,143 0.2,215 -0.2,16 45,14.4 45,-0.3 0.3,-68 0,-135 0.1,-203 15.8,5.8 31,13.6 47,18.2 12.7,-3.8 31.5,-23 13,-33.7 -67,-35 -199,-105 -202,-106 -0.9,-0.3 -1.8,0 -2.6,-0.2 -3.1,1.6 -148,76.9 -210,110.15 -9.8,15.55 18.6,31.85 24.9,28.55 z" solid-color="#000000" color-interpolation-filters="linearRGB" opacity="0.8" filter-gaussianBlur-deviation="0" color="#000000" image-rendering="auto" color-rendering="auto" fill-rule="evenodd" stroke-width="64" color-interpolation="sRGB" solid-opacity="1" fill="none" stroke-linejoin="round" filter-blend-mode="normal" stroke="#ffffff" shape-rendering="auto"/>
 <path d="m 354,40 c -16,16 -37,36 -50,52 -4,9 10,18 16,9 16,-16 32,-31 46,-48 3,-5 2,-14 -6,-14.1 -1,0 -3,0.1 -6,1.1 z M 228,52 c -28,26 -58,55 -81,80 -6,9 8,19 15,11 26,-26 53,-52 78,-79.2 3,-4.8 -1,-12.8 -7,-12.8 -2,0 -3,0.6 -5,1 z M 123,82 c -26,26 -57,55 -80.2,79 -5.8,9 8,19 14.9,11 C 84,146 111,120 137,93 c 3,-5 -1,-13 -8,-13 -2,0 -4,1 -6,2 z m 404,5 c -21,17 -45,40 -62,58 -6,9 8,19 15,12 19,-19 39,-38 58,-57 3,-5 -1,-14 -7,-14 -1,0 -2,0 -4,1 z m -96,14 c -17,16 -50,49 -74,74 -5,9 8,19 15,11 26,-26 53,-52 79,-79 5,-4 4,-16 -5,-15 -3,0 -9,2 -15,9 z m -169,10 c -25,23 -59,57 -82,80 -5,9 8,19 15,11 26,-26 53,-52 79,-79 3,-5 -2,-13 -8,-13 -1,0 -3,1 -4,1 z m 77,14 c -14,11 -30,27 -44,41 -4,10 10,18 16,10 13,-13 28,-25 40,-39 2,-5 -2,-13 -7,-13 -2,0 -3,0 -5,1 z m 191,36 c -21,19 -47,44 -65,63 -6,8 8,19 15,11 20,-20 41,-40 60,-60 3,-5 1,-15 -6,-15 -1,0 -3,0 -4,1 z m -102,31 -24,25 c -6,10 5,21 14,11 l 24,-27 c 4,-5 1,-14 -5,-14 -3,0 -6,1 -9,5 z m -323,-3 c -21,19 -47,43 -65.2,63 -5.8,9 8,19 14.9,11 C 75,242 97,222 117,201 c 3,-5 -1,-13 -8,-14 -1,0 -3,1 -4,2 z" id="path4160" isolation="auto" white-space="normal" mix-blend-mode="normal" fill="#734a08" color-rendering="auto" solid-opacity="1" color-interpolation-filters="linearRGB" shape-rendering="auto" fill-rule="evenodd" image-rendering="auto" color-interpolation="sRGB" color="#000000" solid-color="#000000"/>
 <path d="M 98.9,346.4 139,330 c 0.1,67 -0.3,135 0.2,202 -1.2,16 46,14.4 45,-0.3 0.3,-71 0,-143 0.1,-214 33.5,-3.8 67,-8.2 101,-11.6 l 98,11.6 c 0.1,72 -0.3,143 0.2,215 -0.2,16 45,14.4 45,-0.3 0.3,-68 0,-135 0.1,-203 15.8,5.8 31,13.6 47,18.2 12.7,-3.8 31.5,-23 13,-33.7 -67,-35 -199,-105 -202,-106 -0.9,-0.3 -1.8,0 -2.6,-0.2 -3.1,1.6 -148,76.9 -210,110.15 -9.8,15.55 18.6,31.85 24.9,28.55 z" id="path15803" isolation="auto" white-space="normal" mix-blend-mode="normal" fill="#734a08" color-rendering="auto" solid-opacity="1" color-interpolation-filters="linearRGB" shape-rendering="auto" fill-rule="evenodd" image-rendering="auto" color-interpolation="sRGB" color="#000000" solid-color="#000000"/>
</svg>
