<?xml version="1.0" encoding="UTF-8" standalone="no"?>
<svg xmlns="http://www.w3.org/2000/svg" xmlns:sodipodi="http://sodipodi.sourceforge.net/DTD/sodipodi-0.dtd" xmlns:inkscape="http://www.inkscape.org/namespaces/inkscape" viewBox="0 0 580 580" height="580" width="580" version="1.0" enable-background="new 0 0 32.6 32.6">
 <metadata id="metadata11"/>
 <path id="path8069" d="m 127.68,205.14 c 14.07,1.16 28.36,0 42.19,1.5 39.42,19.14 78.73,38.16 118.04,57.3 41.5,-20.41 83,-40.7 124.5,-61.1 13.14,1.15 26.17,1.5 39.19,2.3 -3,10.03 -6.11,19.95 -9.22,29.97 -38.39,18.1 -76.77,36.09 -115.28,54.18 36.55,16.95 73.09,33.78 109.52,50.72 3.11,10.72 6.22,21.56 9.22,32.28 -12.45,1.15 -25.13,2.88 -37.58,3.11 -40.12,-20.63 -80.23,-41.27 -120.35,-61.9 -41.15,20.75 -82.31,41.96 -123.34,62.94 -12.68,1.27 -25.36,1.15 -38.04,0 1.15,-10.38 2.31,-20.75 3.46,-31.12 36.19,-17.64 72.27,-35.39 108.36,-53.03 -34.93,-16.48 -69.86,-33.08 -104.9,-49.57 -1.85,-12.68 -3.81,-25.35 -5.77,-38.04 z" inkscape:connector-curvature="0" opacity="0.8" fill="none" stroke="#ffffff" stroke-linejoin="round" stroke-linecap="round" stroke-width="37.928"/>
 <path id="path3" d="m 127.68,205.14 c 14.07,1.16 28.36,0 42.19,1.5 39.42,19.14 78.73,38.16 118.04,57.3 41.5,-20.41 83,-40.7 124.5,-61.1 13.14,1.15 26.17,1.5 39.19,2.3 -3,10.03 -6.11,19.95 -9.22,29.97 -38.39,18.1 -76.77,36.09 -115.28,54.18 36.55,16.95 73.09,33.78 109.52,50.72 3.11,10.72 6.22,21.56 9.22,32.28 -12.45,1.15 -25.13,2.88 -37.58,3.11 -40.12,-20.63 -80.23,-41.27 -120.35,-61.9 -41.15,20.75 -82.31,41.96 -123.34,62.94 -12.68,1.27 -25.36,1.15 -38.04,0 1.15,-10.38 2.31,-20.75 3.46,-31.12 36.19,-17.64 72.27,-35.39 108.36,-53.03 -34.93,-16.48 -69.86,-33.08 -104.9,-49.57 -1.85,-12.68 -3.81,-25.35 -5.77,-38.04 z" inkscape:connector-curvature="0" fill="#ff0000" stroke="#ff0000" stroke-linejoin="round" stroke-linecap="round" stroke-width="11.527"/>
 <path id="path5" d="m 157.65,215.52 c -3.45,5.76 -6.91,11.53 -10.37,17.29 38.85,19.25 77.7,38.39 116.42,57.64 -38.03,19.94 -76.07,39.99 -114.12,59.94 3.46,5.42 6.92,10.72 10.38,16.14 43.11,-22.25 86.11,-44.61 129.11,-66.86 41.15,21.9 82.3,43.8 123.34,65.71 4.26,-6.92 8.53,-13.84 12.68,-20.75 -39.54,-19.26 -79.08,-38.39 -118.73,-57.64 39.65,-18.1 79.19,-36.08 118.73,-54.18 -4.15,-6.11 -8.42,-12.34 -12.68,-18.45 -41.04,20.41 -82.19,40.7 -123.34,61.1 -43.81,-19.94 -87.61,-40 -131.42,-59.94 z" inkscape:connector-curvature="0" fill="#ffffff"/>
</svg>
