<?xml version="1.0" encoding="UTF-8" standalone="no"?>
<svg xmlns="http://www.w3.org/2000/svg" xmlns:sodipodi="http://sodipodi.sourceforge.net/DTD/sodipodi-0.dtd" xmlns:inkscape="http://www.inkscape.org/namespaces/inkscape" version="1.0" width="580" height="580">
 <metadata id="metadata10"/>
 <g id="g1327">
  <path d="M 66.275,1.768 C 24.94,1.768 1.704,23.139 1.704,66.804 L 1.704,516.927 C 1.704,557.771 22.598,579.156 63.896,579.156 L 515.92,579.156 C 557.227,579.156 578.149,558.84 578.149,516.927 L 578.149,66.804 C 578.149,24.203 557.227,1.768 514.627,1.768 C 514.624,1.768 66.133,1.625 66.275,1.768 z" id="path1329" fill="#734A08" stroke="#eeeeee" stroke-width="3.408"/>
 </g>
 <path d="M 87.536753,153.58001 C 148.63677,200.58987 209.73679,247.59975 270.83681,294.60961 C 346.551,254.55167 422.26517,214.49371 497.97936,174.43576 C 437.03073,128.45063 376.08208,82.465506 315.13345,36.480373 C 239.26789,75.513585 163.40232,114.54679 87.536753,153.58001 z M 296.05935,122.38372 C 314.74099,121.47171 335.72572,130.6626 342.03283,149.4927 C 348.87322,167.67265 333.96193,186.25878 317.1247,191.83302 C 296.02761,199.39382 267.93759,196.23653 254.87185,176.11261 C 245.41549,163.33568 249.23955,144.75033 261.02028,134.89018 C 270.5392,126.46542 283.47399,122.53401 296.05935,122.38372 z" id="path2569" fill="#ffffff" fill-rule="evenodd" stroke="#ffffff" stroke-linejoin="round" stroke-linecap="round" stroke-width="17.886"/>
 <path d="M 75.973514,184.21735 C 79.01481,253.72147 79.482711,323.31162 82.680891,392.80981 C 139.79535,443.1562 198.64974,491.44621 255.85001,541.7695 C 255.21,467.67393 254.5695,393.57837 253.92863,319.4828 C 194.58697,273.82373 135.2453,228.16465 75.903645,182.50558 L 75.949235,183.62254 L 75.973514,184.21735 z M 118.0693,243.32612 C 139.05016,243.62497 153.7074,263.18579 158.20876,282.06821 C 164.63084,299.39864 154.84197,323.69494 134.94254,325.84084 C 112.92608,326.77919 96.570764,306.10919 92.846761,286.12059 C 86.424849,268.47759 97.799365,244.06189 118.0693,243.32612 z M 190.94216,398.43423 C 212.1513,398.45696 226.55447,418.42095 231.22136,437.24619 C 237.48506,454.25216 228.34505,477.57819 209.24771,480.70441 C 188.45437,483.00725 172.23752,464.27175 166.83949,445.93029 C 160.38012,429.93427 165.22326,408.49161 181.61471,400.67002 C 184.51165,399.23177 187.73438,398.61563 190.94216,398.43423 z" id="path3341" fill="#ffffff" fill-rule="evenodd" stroke="#ffffff" stroke-linejoin="round" stroke-linecap="round" stroke-width="17.886"/>
 <path d="M 285.22973,321.68366 C 285.87019,395.24356 286.51064,468.80348 287.15111,542.36338 C 361.072,499.27779 434.99289,456.19221 508.91379,413.10662 C 509.78714,342.70244 510.6605,272.29827 511.53386,201.89409 C 436.09914,241.82395 360.66444,281.75381 285.22973,321.68366 z M 480.3725,242.52263 C 496.10466,241.9729 508.34756,257.49533 506.81773,272.63596 C 506.05311,294.14471 489.54914,313.18248 469.85728,320.18149 C 454.43886,324.66933 434.62344,314.36879 434.25927,297.12488 C 431.64141,270.60188 453.88579,244.51779 480.3725,242.52263 z M 416.65241,335.13335 C 431.95211,334.58987 444.0468,349.52606 442.92297,364.33839 C 442.69913,385.7895 426.53355,405.26679 406.90575,412.58261 C 391.29158,417.53361 370.71806,407.3055 370.39945,389.56093 C 367.83361,363.08349 390.17142,337.07711 416.65241,335.13335 z M 352.02403,424.94933 C 367.18376,424.95149 378.78311,439.68332 377.70071,454.32904 C 377.36901,475.99689 360.83019,495.44069 341.01974,502.53832 C 325.5401,507.1636 305.64678,497.03979 305.17719,479.65638 C 302.38588,452.91661 325.24543,426.37651 352.02403,424.94933 z" id="path3343" fill="#ffffff" fill-rule="evenodd" stroke="#ffffff" stroke-linejoin="round" stroke-linecap="round" stroke-width="17.886"/>
</svg>
