<?xml version="1.0" encoding="UTF-8" standalone="no"?>
<svg xmlns="http://www.w3.org/2000/svg" xmlns:sodipodi="http://sodipodi.sourceforge.net/DTD/sodipodi-0.dtd" xmlns:inkscape="http://www.inkscape.org/namespaces/inkscape" version="1.0" width="580" height="580">
 <metadata id="metadata2975"/>
 <defs id="defs4">
  <marker inkscape:stockid="Arrow1Mend" orient="auto" refY="0.0" refX="0.0" id="Arrow1Mend">
   <path id="path4055" d="M 0.0,0.0 L 5.0,-5.0 L -12.5,0.0 L 5.0,5.0 L 0.0,0.0 z " transform="scale(0.4) rotate(180) translate(10,0)" fill-rule="evenodd" stroke="#000000" stroke-width="1.25"/>
  </marker>
  <marker inkscape:stockid="Arrow2Lend" orient="auto" refY="0.0" refX="0.0" id="Arrow2Lend">
   <path id="path4067" d="M 8.7185878,4.0337352 L -2.2072895,0.016013256 L 8.7185884,-4.0017078 C 6.9730900,-1.6296469 6.9831476,1.6157441 8.7185878,4.0337352 z " transform="scale(1.1) rotate(180) translate(1,0)" fill-rule="evenodd" stroke-linejoin="round" stroke-width=".625"/>
  </marker>
  <symbol viewBox="244.5 110 489 219.9" id="symbol-university">
   <path id="path4460" d="M79,43l57,119c0,0,21-96,104-96s124,106,124,106l43-133l82-17L0,17L79,43z"/>
   <path id="path4462" d="M94,176l-21,39" stroke-width="20" stroke="#000000" fill="none"/>
   <path id="path4464" d="M300,19c0,10.5-22.6,19-50.5,19S199,29.5,199,19s22.6-19,50.5-19S300,8.5,300,19z"/>
   <path id="path4466" d="M112,216l-16-38L64,88c0,0-9-8-4-35s16-24,16-24" stroke-width="20" stroke="#000000" ill="none"/>
  </symbol>
 </defs>
 <g id="g1327">
  <path d="M 66.275,1.768 C 24.94,1.768 1.704,23.139 1.704,66.804 L 1.704,516.927 C 1.704,557.771 22.599,579.156 63.896,579.156 L 515.92,579.156 C 557.227,579.156 578.149,558.841 578.149,516.927 L 578.149,66.804 C 578.149,24.203 557.227,1.768 514.628,1.768 C 514.624,1.768 66.133,1.625 66.275,1.768 z " id="path1329" fill="#734A08" stroke="#eee" stroke-width="3.408"/>
 </g>
 <path d="m 484.34494,60.594226 20.38592,0 0,474.481774 -20.17303,0 -0.21289,-474.481774 z" id="path2459-9" sodipodi:nodetypes="ccccc" inkscape:connector-curvature="0" fill="#ffffff" fill-rule="evenodd" stroke="#ffffff" stroke-linejoin="round" stroke-linecap="round" stroke-width="20.08"/>
 <path d="m 77.26914,62.594226 20.38591,0 0,470.811534 -20.17301,0 -0.2129,-470.811534 z" id="path2459-9-2" sodipodi:nodetypes="ccccc" inkscape:connector-curvature="0" fill="#ffffff" fill-rule="evenodd" stroke="#ffffff" stroke-linejoin="round" stroke-linecap="round" stroke-width="20"/>
 <path d="M 500.375,37.0625 C 357.22372,38.349307 214.03916,35.918642 70.90625,38.375 55.944617,42.284431 49.444769,59.859297 51.875,74 53.43233,176.81248 50.454173,279.69554 53.46875,382.46875 58.216363,397.11054 75.928168,402.88464 90,400 c 140.03878,-0.47958 280.10246,0.96882 420.125,-0.8125 15.27991,-3.97416 22.09996,-22.04385 18.9375,-36.46875 -0.54604,-102.2416 1.14023,-204.55393 -0.96875,-306.75 C 525.20182,43.879944 512.29256,36.492491 500.375,37.0625 z" id="rect6923" inkscape:connector-curvature="0" opacity=".001" fill="#ffffff"/>
 <path d="M 500.375 37.0625 C 357.22372 38.349307 214.03916 35.918642 70.90625 38.375 C 55.944617 42.284431 49.444769 59.859297 51.875 74 C 53.43233 176.81248 50.454173 279.69554 53.46875 382.46875 C 58.216363 397.11054 75.928168 402.88464 90 400 C 230.03878 399.52042 370.10246 400.96882 510.125 399.1875 C 525.40491 395.21334 532.22496 377.14365 529.0625 362.71875 C 528.51646 260.47715 530.20273 158.16482 528.09375 55.96875 C 525.20182 43.879944 512.29256 36.492491 500.375 37.0625 z M 287.59375 52.34375 C 289.02184 52.32735 290.43342 52.713726 291.59375 53.5625 C 315.86999 86.284425 337.86465 120.73101 361.53125 153.9375 C 366.63137 157.78263 367.3051 168.37389 359.78125 169.75 C 342.89333 165.36326 327.10912 157.30434 310.9375 150.75 C 310.90841 172.13107 311.43675 193.7902 309 214.96875 C 302.47339 221.35664 292.28417 218.06777 284.09375 218.5 C 276.28658 217.69411 265.87584 221.75054 260.21875 214.28125 C 258.23318 193.36891 260.3905 172.16839 260.4375 151.15625 C 246.89696 156.71566 232.97881 161.54816 219.53125 167.40625 C 214.36781 172.19825 203.71728 168.03917 205.5 160.46875 C 225.54457 130.90726 247.60685 102.53074 268.5 73.46875 C 275.0268 66.833167 277.87889 56.239892 286.96875 52.375 C 287.17181 52.356128 287.38974 52.346093 287.59375 52.34375 z M 342.09375 235.21875 C 347.24505 234.99889 352.74491 237.9566 352.71875 243.6875 C 352.74433 288.54114 353.55995 333.47718 352.375 378.34375 C 348.57465 386.5902 337.57439 384.80519 330.4375 382.8125 C 306.51389 359.58452 284.079 334.6239 260.8125 310.65625 C 260.71198 331.88963 261.50191 353.1543 260.4375 374.375 C 261.3688 381.43423 252.88732 383.1867 247.53125 382.5 C 239.62425 380.96825 231.37397 384.25425 223.75 381.46875 C 216.87471 379.04849 219.27296 370.48309 218.46875 364.875 C 219.14265 324.64701 217.64871 284.40383 219.03125 244.1875 C 217.51021 237.4838 225.12339 235.3225 230.28125 235.3125 C 234.35166 235.19242 238.35094 235.83157 242.3125 236.46875 C 266.22627 258.01686 287.72201 282.44441 310.59375 305.21875 C 310.60785 291.37097 310.48415 277.50408 310.53125 263.65625 C 311.74536 255.13073 308.42344 245.63597 313 237.78125 C 321.16276 233.15528 331.01338 236.79839 339.90625 235.5 C 340.60989 235.3376 341.35785 235.25016 342.09375 235.21875 z " id="rect3018-6-8" opacity=".75" fill="#ffffff" color="#000000" stroke-width="10"/>
</svg>
