<?xml version="1.0" encoding="UTF-8" standalone="no"?>
<svg xmlns="http://www.w3.org/2000/svg" xmlns:sodipodi="http://sodipodi.sourceforge.net/DTD/sodipodi-0.dtd" xmlns:inkscape="http://www.inkscape.org/namespaces/inkscape" version="1.0" width="580" height="580">
 <metadata id="metadata2975"/>
 <defs id="defs4">
  <symbol viewBox="244.5 110 489 219.9" id="symbol-university">
   <path id="path4460" d="M79,43l57,119c0,0,21-96,104-96s124,106,124,106l43-133l82-17L0,17L79,43z"/>
   <path id="path4462" d="M94,176l-21,39" stroke-width="20" stroke="#000000" fill="none"/>
   <path id="path4464" d="M300,19c0,10.5-22.6,19-50.5,19S199,29.5,199,19s22.6-19,50.5-19S300,8.5,300,19z"/>
   <path id="path4466" d="M112,216l-16-38L64,88c0,0-9-8-4-35s16-24,16-24" stroke-width="20" stroke="#000000" ill="none"/>
  </symbol>
 </defs>
 <g id="g1327">
  <path d="M 66.275,1.768 C 24.94,1.768 1.704,23.139 1.704,66.804 L 1.704,516.927 C 1.704,557.771 22.599,579.156 63.896,579.156 L 515.92,579.156 C 557.227,579.156 578.149,558.841 578.149,516.927 L 578.149,66.804 C 578.149,24.203 557.227,1.768 514.628,1.768 C 514.624,1.768 66.133,1.625 66.275,1.768 z " id="path1329" fill="#734A08" stroke="#eee" stroke-width="3.408"/>
 </g>
 <path transform="matrix(14.685839,0,0,14.685839,569.76584,1146.0639)" d="M -24.382324,-58.667969 L -21.142578,-66.628174 L -17.822266,-66.628174 L -14.58252,-58.667969 L -24.382324,-58.667969 z M -13.822021,-66.628174 L -8.4228516,-66.628174 L -8.4228516,-69.588379 L -29.822998,-69.588379 L -29.822998,-66.628174 L -24.462891,-66.628174 L -27.702637,-58.667969 L -35.622559,-58.667969 L -35.622559,-55.708984 L -28.902588,-55.708984 L -32.62207,-46.427979 L -28.981934,-46.427979 L -25.222168,-55.708984 L -13.062744,-55.708984 L -9.3029785,-46.427979 L -5.6225586,-46.427979 L -9.3823242,-55.708984 L -2.6220703,-55.708984 L -2.6220703,-58.667969 L -10.582275,-58.667969 L -13.822021,-66.628174 z" id="flowRoot3192" fill="#ffffff"/>
</svg>
