<?xml version="1.0" encoding="UTF-8" standalone="no"?>
<svg xmlns:i="http://ns.adobe.com/AdobeIllustrator/10.0/" xmlns="http://www.w3.org/2000/svg" xmlns:sodipodi="http://sodipodi.sourceforge.net/DTD/sodipodi-0.dtd" xmlns:inkscape="http://www.inkscape.org/namespaces/inkscape" version="1.0" width="580" height="580">
 <metadata id="metadata2975"/>
 <defs id="defs4">
  <symbol id="symbol-university" viewBox="244.5 110 489 219.9">
   <path d="M79,43l57,119c0,0,21-96,104-96s124,106,124,106l43-133l82-17L0,17L79,43z" id="path4460"/>
   <path fill="none" stroke="#000000" stroke-width="20" d="M94,176l-21,39" id="path4462"/>
   <path d="M300,19c0,10.5-22.6,19-50.5,19S199,29.5,199,19s22.6-19,50.5-19S300,8.5,300,19z" id="path4464"/>
   <path ill="none" stroke="#000000" stroke-width="20" d="M112,216l-16-38L64,88c0,0-9-8-4-35s16-24,16-24" id="path4466"/>
  </symbol>
  <symbol viewBox="244.5 110 489 219.9" id="symbol9807">
   <path id="path9809" d="M79,43l57,119c0,0,21-96,104-96s124,106,124,106l43-133l82-17L0,17L79,43z"/>
   <path id="path9811" d="M94,176l-21,39" stroke-width="20" stroke="#000000" fill="none"/>
   <path id="path9813" d="M300,19c0,10.5-22.6,19-50.5,19S199,29.5,199,19s22.6-19,50.5-19S300,8.5,300,19z"/>
   <path id="path9815" d="M112,216l-16-38L64,88c0,0-9-8-4-35s16-24,16-24" stroke-width="20" stroke="#000000" ill="none"/>
  </symbol>
  <linearGradient id="linearGradient2936">
   <stop id="stop2938" stop-color="#8acf6b"/>
   <stop offset="1" id="stop2940" stop-color="#368912"/>
  </linearGradient>
  <linearGradient id="linearGradient2952">
   <stop id="stop2954" stop-color="#c0d50d"/>
   <stop offset="1" id="stop2956" stop-color="#eef2cd"/>
  </linearGradient>
 </defs>
 <g id="g1327">
  <path d="M 66.275,1.768 C 24.94,1.768 1.704,23.139 1.704,66.804 L 1.704,516.927 C 1.704,557.771 22.599,579.156 63.896,579.156 L 515.92,579.156 C 557.227,579.156 578.149,558.841 578.149,516.927 L 578.149,66.804 C 578.149,24.203 557.227,1.768 514.628,1.768 C 514.624,1.768 66.133,1.625 66.275,1.768 z " id="path1329" fill="#734A08" stroke="#eee" stroke-width="3.408"/>
 </g>
 <g id="g12333" transform="matrix(0.9361877,-0.2985096,0.2985096,0.9361877,-34.084117,65.027545)">
  <path transform="matrix(8.5115921,0,0,8.5115921,3450.3213,2339.7823)" d="M -358.04295,-243.77005 A 17.902147,17.902147 0 1 1 -393.84725,-243.77005 A 17.902147,17.902147 0 1 1 -358.04295,-243.77005 z" sodipodi:ry="17.902147" sodipodi:rx="17.902147" sodipodi:cy="-243.77005" sodipodi:cx="-375.9451" id="path12306" sodipodi:type="arc" fill="none" stroke="#ffffff" stroke-linejoin="round" stroke-linecap="round" stroke-width="5"/>
  <path id="path12310" d="M 234.54018,54.551484 L 251.87437,272.67308 L 263.43044,71.885669 L 234.54018,54.551484 z" fill="#ffffff" fill-rule="evenodd" stroke="#ffffff" stroke-width="5.326"/>
  <g transform="matrix(5.3255006,0,0,5.3255006,2251.0812,1565.0925)" id="g12324" fill="#ffffff" stroke="#ffffff" stroke-linejoin="round" stroke-linecap="round" stroke-width="1.878">
   <path transform="matrix(0.2953699,0,0,0.2953699,-264.631,-172.14025)" d="M -358.04295,-243.77005 A 17.902147,17.902147 0 1 1 -393.84725,-243.77005 A 17.902147,17.902147 0 1 1 -358.04295,-243.77005 z" sodipodi:ry="17.902147" sodipodi:rx="17.902147" sodipodi:cy="-243.77005" sodipodi:cx="-375.9451" id="path12308" sodipodi:type="arc" stroke-width="6.357"/>
   <path id="path12312" d="M -378.65755,-283.64301 L -375.40261,-242.68506 L -373.23266,-280.38807 L -378.65755,-283.64301 z" inkscape:transform-center-y="-19.122749" fill-rule="evenodd" stroke-width="1.878"/>
   <path inkscape:transform-center-y="-10.657479" d="M -343.2239,-266.51297 L -376.83709,-242.88456 L -343.26832,-260.18667 L -343.2239,-266.51297 z" id="path12314" inkscape:transform-center-x="-15.91461" fill-rule="evenodd" stroke-width="1.878"/>
   <path inkscape:transform-center-x="-17.30066" id="path12316" d="M -339.89353,-227.42991 L -377.39536,-244.21564 L -345.35135,-224.23049 L -339.89353,-227.42991 z" inkscape:transform-center-y="9.818221" fill-rule="evenodd" stroke-width="1.878"/>
   <path inkscape:transform-center-y="19.108881" d="M -372.77359,-204.47368 L -376.50329,-245.39113 L -378.23586,-207.6655 L -372.77359,-204.47368 z" id="path12318" inkscape:transform-center-x="-0.44038" fill-rule="evenodd" stroke-width="1.878"/>
   <path inkscape:transform-center-x="16.08619" id="path12320" d="M -409.0282,-222.10586 L -375.03439,-245.18332 L -408.88068,-228.4306 L -409.0282,-222.10586 z" inkscape:transform-center-y="10.396696" fill-rule="evenodd" stroke-width="1.878"/>
   <path inkscape:transform-center-y="-10.246654" d="M -411.48745,-261.71602 L -374.50067,-243.82394 L -405.93701,-264.75194 L -411.48745,-261.71602 z" id="path12322" inkscape:transform-center-x="17.048955" fill-rule="evenodd" stroke-width="1.878"/>
  </g>
 </g>
 <g id="g12420" transform="matrix(0.9956077,-9.3623416e-2,9.3623416e-2,0.9956077,-106.42581,36.278655)">
  <path id="path113" i:knockout="Off" d="M 594.35482,424.16492 C 590.2821,425.40842 585.02229,425.16997 578.12287,423.69446 C 571.11065,422.09844 564.71889,414.65804 553.06859,415.06954 C 541.13498,415.48362 524.28001,426.17373 507.99419,426.17373 C 491.47765,425.82248 472.92794,414.59652 456.07424,414.59652 C 439.27695,414.71573 424.00645,426.34936 407.8886,426.70446 C 391.48741,426.76215 375.14265,415.8387 359.0812,415.60283 C 342.79283,415.19005 327.35312,425.29047 312.13903,425.16997 C 297.15183,424.87641 283.86066,414.12474 268.98627,414.59652 C 253.71577,415.19005 236.97489,427.00058 222.04411,427.70951 C 207.00051,427.94666 193.36962,416.72582 180.07972,416.6053 C 166.677,416.36943 151.63214,424.81487 142.5829,426.70574 C 133.53366,428.42098 127.82133,428.59789 125.67279,427.23775 L 125.67279,458.5415 C 127.82133,459.89907 133.53366,459.72345 142.5829,458.00949 C 151.63214,456.11864 166.67573,447.67318 180.07972,447.90907 C 193.3709,448.02828 207.00051,459.24913 222.04411,459.0107 C 236.97489,458.42227 253.71577,446.31306 268.98627,445.89898 C 283.86066,445.30928 297.15055,456.29425 312.13903,456.53014 C 327.35312,456.65064 342.79283,446.61047 359.0812,446.90532 C 375.14265,447.13991 391.48741,458.06461 407.8886,458.00821 C 424.00645,457.65311 439.27695,446.01692 456.07424,445.89898 C 472.92794,445.84257 491.47765,457.24033 507.99419,457.53775 C 524.28001,457.53775 541.13627,446.84378 553.06859,446.43228 C 564.71889,445.89898 571.11065,453.45988 578.12287,454.99565 C 585.02229,456.47244 590.2821,456.70831 594.35482,455.4674 L 594.35482,424.16492 z" fill="#ffffff" fill-rule="evenodd"/>
  <path id="path121" i:knockout="Off" d="M 594.35482,476.55535 C 590.2821,477.67577 585.02229,477.50015 578.12287,476.02335 C 571.11065,474.48886 564.71889,466.92541 553.06859,467.45742 C 541.13498,467.8702 524.28001,478.56031 507.99419,478.56031 C 491.47765,478.20777 472.92794,466.98566 456.07424,466.98566 C 439.27695,467.10488 424.00645,478.7398 407.8886,479.09232 C 391.48741,479.15257 375.14265,468.22658 359.0812,467.98942 C 342.79283,467.57534 327.35312,477.67577 312.13903,477.55784 C 297.15183,477.26299 283.86066,466.51262 268.98627,466.98566 C 253.71577,467.57534 236.97489,479.38717 222.04411,480.09866 C 207.00051,480.33325 193.36962,469.11112 180.07972,468.99318 C 166.677,468.75858 151.63214,477.20274 142.5829,479.09361 C 133.53366,480.92678 127.82133,480.86526 125.67279,479.56665 L 125.67279,510.86911 C 127.82133,512.16771 133.53366,512.22925 142.5829,510.39608 C 151.63214,508.50393 166.67573,500.06106 180.07972,500.29566 C 193.3709,500.41359 207.00051,511.63571 222.04411,511.40111 C 236.97489,510.68964 253.71577,498.87782 268.98627,498.28813 C 283.86066,497.8151 297.15055,508.56546 312.13903,508.86031 C 327.35312,508.97825 342.79283,498.87782 359.0812,499.29188 C 375.14265,499.52905 391.48741,510.45505 407.8886,510.3948 C 424.00645,510.04225 439.27695,498.40351 456.07424,498.28813 C 472.92794,498.28813 491.47765,509.51025 507.99419,509.86279 C 524.28001,509.86279 541.13627,499.17267 553.06859,498.75987 C 564.71889,498.34581 571.11065,505.7862 578.12287,507.3835 C 585.02229,508.86031 590.2821,509.09746 594.35482,507.85784 L 594.35482,476.55535 z" fill="#ffffff" fill-rule="evenodd"/>
 </g>
</svg>
