<?xml version="1.0" encoding="UTF-8" standalone="no"?>
<svg xmlns="http://www.w3.org/2000/svg" xmlns:sodipodi="http://sodipodi.sourceforge.net/DTD/sodipodi-0.dtd" xmlns:inkscape="http://www.inkscape.org/namespaces/inkscape" version="1.0" width="580" height="580">
 <metadata id="metadata2975"/>
 <g id="g1327">
  <path d="M 66.275,1.768 C 24.94,1.768 1.704,23.139 1.704,66.804 L 1.704,516.927 C 1.704,557.771 22.599,579.156 63.896,579.156 L 515.92,579.156 C 557.227,579.156 578.149,558.841 578.149,516.927 L 578.149,66.804 C 578.149,24.203 557.227,1.768 514.628,1.768 C 514.624,1.768 66.133,1.625 66.275,1.768 z " id="path1329" fill="#734A08" stroke="#eee" stroke-width="3.408"/>
 </g>
 <g transform="translate(-0.03165336,5.45114)" id="g6173">
  <rect y="340.71" x="30.866" height="184.56" width="519.82" id="rect2911" opacity=".2" fill="#ffffff" stroke="#ffffff" stroke-linejoin="round" stroke-linecap="round" stroke-width="10.973"/>
  <path inkscape:connector-curvature="0" id="path2921" d="m 21.699573,336.96478 537.064437,0" fill="none" stroke="#ffffff" stroke-width="20"/>
  <path inkscape:connector-curvature="0" d="m 21.699573,524.96478 537.064437,0" id="path3695" fill="none" stroke="#ffffff" stroke-width="20"/>
  <path inkscape:connector-curvature="0" id="path3697" d="m 37.173702,428.96478 508.821758,0" stroke-dasharray="38.934 38.934" fill="none" stroke="#ffffff" stroke-width="19.467"/>
 </g>
 <path inkscape:connector-curvature="0" sodipodi:nodetypes="ccccccccccccccc" id="path1873" d="m 259.08884,314.46512 -1.18549,-138.19966 -70.55747,-0.47368 0,-35.98074 0,-34.15042 70.15201,-1.27133 1.27135,-77.473237 71.75684,-1.253826 0,78.846393 71.42334,0 0,35.30242 0,35.30242 -71.42334,0 0,140.952 c -22.69581,-2.61002 -49.32691,4.25179 -71.43724,-1.60034 z" fill="#ffffff"/>
 <path inkscape:connector-curvature="0" d="m 330.20646,314.46512 1.18549,-138.19966 70.55747,-0.47368 0,-35.98074 0,-34.15042 -70.15201,-1.27133 -1.27135,-77.473237 -71.75684,-1.253826 0,78.846393 -71.42334,0 0,35.30242 0,35.30242 71.42334,0 0,140.952 c 22.69581,-2.61002 49.32691,4.25179 71.43724,-1.60034 z" id="path4237" sodipodi:nodetypes="ccccccccccccccc" fill="#ffffff"/>
</svg>
