<?xml version="1.0" encoding="UTF-8" standalone="no"?>
<svg xmlns="http://www.w3.org/2000/svg" xmlns:sodipodi="http://sodipodi.sourceforge.net/DTD/sodipodi-0.dtd" xmlns:inkscape="http://www.inkscape.org/namespaces/inkscape" version="1.0" width="580" height="580">
 <metadata id="metadata10"/>
 <g id="g1327">
  <path d="M 66.275,1.768 C 24.94,1.768 1.704,23.139 1.704,66.804 L 1.704,516.927 C 1.704,557.771 22.598,579.156 63.896,579.156 L 515.92,579.156 C 557.227,579.156 578.149,558.84 578.149,516.927 L 578.149,66.804 C 578.149,24.203 557.227,1.768 514.627,1.768 C 514.624,1.768 66.133,1.625 66.275,1.768 z" id="path1329" fill="#999999" stroke="#eeeeee" stroke-width="3.408"/>
 </g>
 <g id="g2826" transform="matrix(0.62292795,0,0,0.62292795,19.598892,23.744406)">
  <path sodipodi:nodetypes="csssccc" id="path3683" d="m 260.28744,274.44796 c -0.58126,-76.74134 1.66306,-90.68481 0.0571,-125.02549 -1.13251,-24.33045 -5.38864,-66.60629 0.23136,-63.703174 22.43859,11.590184 43.48376,296.126964 8.42429,296.126964 -12.16244,0 -14.58527,-29.84177 -8.71977,-107.3983 l 0.007,0 2e-5,0 z" fill="#ffffff"/>
  <path d="m 399.75139,356.01312 c 0,-14.20824 2.91169,-37.42888 12.13174,-63.02238 11.75913,-32.64148 36.18926,-40.88197 10.28829,-30.94286 -11.23329,4.31055 -30.45558,26.92994 -38.85916,51.0366 -18.98065,54.44771 -16.02527,68.76178 2.15748,68.76178 7.85475,0 14.28137,-11.62489 14.28137,-25.83314 l 2.8e-4,0 z m -57.12546,-16.08124 c 0,-55.15821 13.04717,-89.3565 29.29908,-135.02274 16.7369,-47.02911 55.38313,-80.33139 18.76757,-50.02948 -53.75634,44.48703 -103.88379,226.9666 -62.34801,226.9666 7.85475,0 14.28136,-18.8614 14.28136,-41.91438 z" id="path3685" sodipodi:nodetypes="csssscccsssc" fill="#ffffff"/>
  <path id="path3687" d="m 415.34375,471.34375 c -18.83127,0.77662 -38.04348,0.62955 -56.5,4.4375 -4.63196,2.6804 -1.91245,10.03635 3.21595,9.91499 28.09005,6.4701 57.38748,4.42726 86.06464,4.40874 12.29926,-0.55632 25.13809,-0.80766 36.68816,-5.13623 4.58653,-3.05247 1.46565,-10.38033 -3.8125,-10.03125 -21.4689,-4.69886 -43.77639,-3.82847 -65.65625,-3.59375 z" fill="#ffffff"/>
  <path sodipodi:nodetypes="csssscccsssc" id="path3689" d="m 130.87085,356.01312 c 0,-14.20824 -2.91169,-37.42888 -12.13174,-63.02238 -11.75913,-32.64148 -36.18926,-40.88197 -10.28829,-30.94286 11.23329,4.31055 30.45558,26.92994 38.85917,51.0366 18.98064,54.44771 16.02526,68.76178 -2.15749,68.76178 -7.85475,0 -14.28137,-11.62489 -14.28137,-25.83314 l -2.8e-4,0 z m 57.12546,-16.08124 c 0,-55.15821 -13.04717,-89.3565 -29.29908,-135.02274 -16.7369,-47.02911 -55.38313,-80.33139 -18.76757,-50.02948 53.75634,44.48703 103.88379,226.9666 62.34801,226.9666 -7.85475,0 -14.28136,-18.8614 -14.28136,-41.91438 z" fill="#ffffff"/>
  <path id="path3713" d="m 327.75,417.78125 c -46.18223,0.67789 -92.54396,0.82223 -138.5625,4.1875 -4.34252,0.69983 -6.50406,7.14271 -1.75,8.96875 22.99988,5.16564 47.02293,4.06849 70.53045,5.28796 64.58014,1.36835 129.32027,2.00966 193.78205,-2.56921 4.55662,-0.91208 13.50779,-1.01192 12.53125,-7.5625 -3.16205,-6.2231 -12.14929,-4.14752 -17.8125,-5.375 -39.48874,-3.05811 -79.13731,-3.02368 -118.71875,-2.9375 z" fill="#ffffff"/>
 </g>
</svg>
