<?xml version="1.0" encoding="UTF-8" standalone="no"?>
<svg xmlns="http://www.w3.org/2000/svg" xmlns:sodipodi="http://sodipodi.sourceforge.net/DTD/sodipodi-0.dtd" xmlns:inkscape="http://www.inkscape.org/namespaces/inkscape" version="1.0" width="580" height="580">
 <defs id="defs22">
  <marker viewBox="0 0 10 10" refY="5" refX="10" orient="auto" markerWidth="4" markerUnits="strokeWidth" markerHeight="3" id="ArrowStart">
   <path id="path3568" d="M 10 0 L 0 5 L 10 10 z"/>
  </marker>
  <marker viewBox="0 0 10 10" refY="5" orient="auto" markerWidth="4" markerUnits="strokeWidth" markerHeight="3" id="ArrowEnd">
   <path id="path3565" d="M 0 0 L 10 5 L 0 10 z"/>
  </marker>
  <marker viewBox="0 0 10 10" refY="5" refX="10" orient="auto" markerWidth="4" markerUnits="strokeWidth" markerHeight="3" id="marker2959">
   <path id="path2626" d="M 10 0 L 0 5 L 10 10 z"/>
  </marker>
  <marker viewBox="0 0 10 10" refY="5" orient="auto" markerWidth="4" markerUnits="strokeWidth" markerHeight="3" id="marker2956">
   <path id="path2623" d="M 0 0 L 10 5 L 0 10 z"/>
  </marker>
  <marker viewBox="0 0 10 10" refY="5" refX="10" orient="auto" markerWidth="4" markerUnits="strokeWidth" markerHeight="3" id="marker3077">
   <path id="path3298" d="M 10 0 L 0 5 L 10 10 z"/>
  </marker>
  <marker viewBox="0 0 10 10" refY="5" orient="auto" markerWidth="4" markerUnits="strokeWidth" markerHeight="3" id="marker3074">
   <path id="path3295" d="M 0 0 L 10 5 L 0 10 z"/>
  </marker>
 </defs>
 <metadata id="metadata10"/>
 <g id="g1327">
  <path d="M 66.275,1.768 C 24.94,1.768 1.704,23.139 1.704,66.804 L 1.704,516.927 C 1.704,557.771 22.598,579.156 63.896,579.156 L 515.92,579.156 C 557.227,579.156 578.149,558.84 578.149,516.927 L 578.149,66.804 C 578.149,24.203 557.227,1.768 514.627,1.768 C 514.624,1.768 66.133,1.625 66.275,1.768 z" id="path1329" fill="#666666" stroke="#eeeeee" stroke-width="3.408"/>
 </g>
 <path sodipodi:nodetypes="cc" d="M 124.72631,239.07157 494.25422,156.69163" id="path3732" fill="none" stroke="#ffffff" stroke-linecap="round" stroke-width="54.685"/>
 <path d="m 458.25,264.90625 c -3.72291,-0.002 -7.42352,1.53023 -10.05602,4.16273 -2.6325,2.6325 -4.16438,6.33311 -4.16273,10.05602 l 0,170.53125 c -0.002,3.72291 1.53023,7.42352 4.16273,10.05602 2.6325,2.6325 6.33311,4.16438 10.05602,4.16273 l 51.84375,0 c 3.72291,0.002 7.42352,-1.53023 10.05602,-4.16273 2.6325,-2.6325 4.16438,-6.33311 4.16273,-10.05602 l 0,-170.53125 c 0.002,-3.72291 -1.53023,-7.42352 -4.16273,-10.05602 -2.6325,-2.6325 -6.33311,-4.16438 -10.05602,-4.16273 l -51.84375,0 z" id="rect3827" sodipodi:nodetypes="csccsccsccscc" opacity=".75" color="#000000" stroke-width="28.422" fill="#ffffff"/>
 <path d="M 81.75 121.90625 C 77.111289 121.90642 72.498814 123.81369 69.21875 127.09375 C 65.938686 130.37382 64.031422 134.98629 64.03125 139.625 L 64.03125 446.15625 C 64.031422 450.79496 65.938686 455.40743 69.21875 458.6875 C 72.498814 461.96756 77.111289 463.87483 81.75 463.875 L 126.59375 463.875 C 131.23246 463.87483 135.84493 461.96756 139.125 458.6875 C 142.40506 455.40743 144.31233 450.79496 144.3125 446.15625 L 144.3125 291.6875 C 121.89709 298.56987 95.011402 292.47356 80.53125 273.4375 C 58.570596 247.16863 69.775915 200.74817 102.15625 188.5 C 116.20582 185.24621 130.2603 182.02206 144.3125 178.78125 L 144.3125 139.625 C 144.31233 134.98629 142.40506 130.37382 139.125 127.09375 C 135.84493 123.81369 131.23246 121.90642 126.59375 121.90625 L 81.75 121.90625 z " id="rect3925" opacity=".75" color="#000000" stroke-width="35.435" fill="#ffffff"/>
</svg>
