<?xml version="1.0" encoding="UTF-8" standalone="no"?>
<svg xmlns="http://www.w3.org/2000/svg" xmlns:sodipodi="http://sodipodi.sourceforge.net/DTD/sodipodi-0.dtd" xmlns:inkscape="http://www.inkscape.org/namespaces/inkscape" version="1.0" width="580" height="580">
 <metadata id="metadata10"/>
 <g id="g1327">
  <path d="M 66.275,1.768 C 24.94,1.768 1.704,23.139 1.704,66.804 L 1.704,516.927 C 1.704,557.771 22.598,579.156 63.896,579.156 L 515.92,579.156 C 557.227,579.156 578.149,558.84 578.149,516.927 L 578.149,66.804 C 578.149,24.203 557.227,1.768 514.627,1.768 C 514.624,1.768 66.133,1.625 66.275,1.768 z" id="path1329" fill="#111111" stroke="#eeeeee" stroke-width="3.408"/>
 </g>
 <path d="m 383.0006,74.923386 -51.59375,45.218754 69.75,68.90625 c -26.00031,28.21406 -52.18068,56.30284 -78.40625,84.34375 5.98428,5.5813 11.95942,11.16203 17.9375,16.75 25.56765,-28.76064 51.2008,-57.48026 76.96875,-86.03125 5.37477,-3.82844 35.90895,25.48403 39.59375,31 l 84.59375,44.59375 c -4.65595,-3.3278 -42.77338,-96.00629 -48.78125,-101.25 -9.2805,-8.13542 -20.12557,-17.80484 -31.4375,-28.03125 l 17.90625,-17.4375 -13.78125,-11.65625 -17.375,17.0625 C 423.96414,116.02327 399.02975,92.259825 383.0006,74.923386 z M 247.8756,353.45464 c -4.23864,4.54392 -8.48517,9.07713 -12.71875,13.625 l -123.25,131.84375 23.78125,21.6875 119.96875,-134.84375 c 3.9575,-4.42956 7.89057,-8.87862 11.84375,-13.3125 -6.54263,-6.33242 -13.07618,-12.67399 -19.625,-19 z" id="path3604" fill="#ffffff" stroke="#ffffff" stroke-linejoin="round" stroke-linecap="round" stroke-width="20"/>
 <path d="m 116.00938,151.66297 c -28.453063,28.86372 -47.564096,65.66715 -71.445755,98.36769 l 52.823261,38.52823 57.166044,-82.38903 c 6.86902,-3.61196 11.3378,5.27847 15.48932,9.24597 57.58348,57.0998 114.49748,115.01013 171.82143,172.42793 l 127.25143,127.98816 22.54488,-22.9731 -130.35955,-124.821 c -58.48609,-56.23357 -117.45692,-112.048 -175.62998,-168.54704 -4.04492,-4.07614 -13.01784,-8.37688 -9.53573,-15.31264 L 257.43368,125.47218 217.91846,73.383119 C 182.67994,98.090836 146.85375,121.44432 116.00938,151.66297 z" id="path3621" sodipodi:nodetypes="cccccccccccccc" fill="#ffffff" stroke="#ffffff" stroke-linejoin="round" stroke-linecap="round" stroke-width="20"/>
</svg>
