<?xml version="1.0" encoding="UTF-8" standalone="no"?>
<svg xmlns="http://www.w3.org/2000/svg" xmlns:sodipodi="http://sodipodi.sourceforge.net/DTD/sodipodi-0.dtd" xmlns:inkscape="http://www.inkscape.org/namespaces/inkscape" version="1.0" width="580" height="580">
 <metadata id="metadata2975"/>
 <defs id="defs4">
  <symbol viewBox="244.5 110 489 219.9" id="symbol-university">
   <path id="path4460" d="M79,43l57,119c0,0,21-96,104-96s124,106,124,106l43-133l82-17L0,17L79,43z"/>
   <path id="path4462" d="M94,176l-21,39" stroke-width="20" stroke="#000000" fill="none"/>
   <path id="path4464" d="M300,19c0,10.5-22.6,19-50.5,19S199,29.5,199,19s22.6-19,50.5-19S300,8.5,300,19z"/>
   <path id="path4466" d="M112,216l-16-38L64,88c0,0-9-8-4-35s16-24,16-24" stroke-width="20" stroke="#000000" ill="none"/>
  </symbol>
 </defs>
 <g id="g1327">
  <path d="M 66.275,1.768 C 24.94,1.768 1.704,23.139 1.704,66.804 L 1.704,516.927 C 1.704,557.771 22.599,579.156 63.896,579.156 L 515.92,579.156 C 557.227,579.156 578.149,558.841 578.149,516.927 L 578.149,66.804 C 578.149,24.203 557.227,1.768 514.628,1.768 C 514.624,1.768 66.133,1.625 66.275,1.768 z " id="path1329" fill="#111" stroke="#eee" stroke-width="3.408"/>
 </g>
 <g id="g3757" transform="matrix(4.0703939,0,0,4.0703939,-1083.7886,-1381.8558)">
  <path id="path3734" d="m 348.78208,372.60284 c -6.88742,14.60266 -13.78726,29.19945 -20.71875,43.78125 -3.83966,-5.29946 -7.70451,-10.58057 -11.59375,-15.84375 -11.91853,19.07569 -23.7213,38.22363 -35.71875,57.25 37.43746,0.31752 74.87509,0.61481 112.3125,0.9375 -14.10629,-30.01312 -28.29628,-59.98684 -42.46875,-89.96875 -0.60417,1.28125 -1.20833,2.5625 -1.8125,3.84375 z" fill="none" stroke="#ffffff" stroke-width="5"/>
  <path id="path3744" d="m 350.59375,362.90625 -2.25,4.78125 -1.8125,3.84375 c -6.29252,13.34135 -12.61036,26.67706 -18.9375,40 -3.0311,-4.16567 -6.06341,-8.3256 -9.125,-12.46875 l -2.1875,-2.96875 -1.9375,3.125 c -11.92389,19.08426 -23.73037,38.23802 -35.71875,57.25 l -2.375,3.78125 4.46875,0.0312 c 37.43836,0.31753 74.87622,0.61482 112.3125,0.9375 l 4,0.0312 -1.71875,-3.59375 C 381.20423,427.63902 367.0158,397.66853 352.84375,367.6875 l -2.25,-4.78125 z m 0,42.34375 c 0.75716,0.002 1.50495,0.37027 1.96875,0.96875 2.23609,2.81658 4.41247,5.11927 5.28125,5.46875 0.43439,0.17479 0.32832,0.20284 0.78125,-0.0937 0.45293,-0.29659 1.36745,-1.25512 2.375,-3.21875 0.42481,-0.81769 1.32863,-1.35665 2.25,-1.34375 0.92136,0.0129 1.81697,0.577 2.21875,1.40625 l 20.375,43.125 c 0.74253,1.52641 -0.58397,3.61605 -2.28125,3.59375 L 291.5,454.375 c -0.87906,-0.0121 -1.73306,-0.51067 -2.15625,-1.28125 -0.42315,-0.77058 -0.399,-1.78298 0.0625,-2.53125 l 18.125,-29.09375 c 0.7864,-1.26885 2.80873,-1.51348 3.875,-0.46875 1.6156,1.60179 3.01438,2.44959 4.6875,2.5625 1.67312,0.11291 4.01716,-0.51385 7.46875,-3.0625 1.05857,-0.79816 2.75437,-0.54304 3.53125,0.53125 l 1.59375,2.1875 6.5625,-13.875 c 0.3838,-0.83866 1.26576,-1.43655 2.1875,-1.46875 0.92174,-0.0322 1.83981,0.5027 2.28125,1.3125 0.64944,1.17852 1.29638,1.8353 1.78125,2.125 0.48487,0.28965 0.79816,0.34143 1.375,0.21875 1.15368,-0.24536 3.37836,-1.82644 5.6875,-5.1875 0.44955,-0.66088 1.23205,-1.08225 2.03125,-1.09375 z" color="#000000" stroke-width="5" fill="#ffffff"/>
 </g>
 <g transform="matrix(4.0703939,0,0,4.0703939,-1083.7886,-1381.8558)" id="g4697">
  <path d="m 348.78208,372.60284 c -6.88742,14.60266 -13.78726,29.19945 -20.71875,43.78125 -3.83966,-5.29946 -7.70451,-10.58057 -11.59375,-15.84375 -11.91853,19.07569 -23.7213,38.22363 -35.71875,57.25 37.43746,0.31752 74.87509,0.61481 112.3125,0.9375 -14.10629,-30.01312 -28.29628,-59.98684 -42.46875,-89.96875 -0.60417,1.28125 -1.20833,2.5625 -1.8125,3.84375 z" id="path4699" fill="none" stroke="#ffffff" stroke-width="5"/>
  <path d="m 350.59375,362.90625 -2.25,4.78125 -1.8125,3.84375 c -6.29252,13.34135 -12.61036,26.67706 -18.9375,40 -3.0311,-4.16567 -6.06341,-8.3256 -9.125,-12.46875 l -2.1875,-2.96875 -1.9375,3.125 c -11.92389,19.08426 -23.73037,38.23802 -35.71875,57.25 l -2.375,3.78125 4.46875,0.0312 c 37.43836,0.31753 74.87622,0.61482 112.3125,0.9375 l 4,0.0312 -1.71875,-3.59375 C 381.20423,427.63902 367.0158,397.66853 352.84375,367.6875 l -2.25,-4.78125 z" id="path4701" sodipodi:nodetypes="ccccccccccccccc" opacity=".25" color="#000000" stroke-width="5" fill="#ffffff"/>
 </g>
</svg>
