<?xml version="1.0" encoding="UTF-8" standalone="no"?>
<svg xmlns="http://www.w3.org/2000/svg" version="1.0" width="580" height="580">
 <metadata id="metadata10"/>
 <path id="path4138" d="m 88,331 c -15,24 -32.4,45 -48,68 2.5,6.8 6.7,11.5 12,14.9 -0.4,0.1 -0.7,0.2 -1,0.3 10.5,13.7 105,23.6 139,25 86,1.2 87,2.1 168,-0.2 73,-1.9 124,-4.4 154,-12.8 5.3,-1.3 10.4,-3.2 15,-5.8 3.5,-2.1 6.7,-4 9.2,-6.7 l 0,0 0,0 c 11.7,-24.4 -3.7,-52 -22.4,-68 C 469,294 429,238 378,193 361,184 345,180 328,181 228,181 136,246 88,331 Z" mix-blend-mode="normal" solid-color="#000000" opacity="0.8" color-interpolation-filters="linearRGB" filter-gaussianBlur-deviation="0" color="#000000" image-rendering="auto" color-rendering="auto" stroke-width="64" isolation="auto" color-interpolation="sRGB" solid-opacity="1" fill="none" stroke-linejoin="round" filter-blend-mode="normal" stroke="#ffffff" shape-rendering="auto"/>
 <path d="m 88,331 c -15,24 -32.4,45 -48,68 2.5,6.8 6.7,11.5 12,14.9 -0.4,0.1 -0.7,0.2 -1,0.3 10.5,13.7 105,23.6 139,25 86,1.2 87,2.1 168,-0.2 73,-1.9 124,-4.4 154,-12.8 5.3,-1.3 10.4,-3.2 15,-5.8 3.5,-2.1 6.7,-4 9.2,-6.7 l 0,0 0,0 c 11.7,-24.4 -3.7,-52 -22.4,-68 C 469,294 429,238 378,193 361,184 345,180 328,181 228,181 136,246 88,331 Z" id="path2838"/>
 <path d="m 237,231 c -51,21 -70,39 -113,102 -29,43 -62,79 -73,81 10.5,13.7 105,23.6 139,25 86,1.2 87,2.1 168,-0.2 101,-2.7 160,-6.4 178,-25.3 C 532,411 525,404 518,394 507,379 478,342 452,313 382,234 356,205 321,204 c -21,0 -45,11 -84,27 z" id="path3593" opacity="0.9" fill="#ffffff"/>
 <path id="path3638" d="m 397,356 c 20.3,28 36.9,55 36.9,58 0,3.8 -64,6.9 -141,6.9 -78,0 -141,-3 -141,-6.3 C 151,383 241,280 270,280 c 45.6,0 93,28 127,76 z"/>
</svg>
