<?xml version="1.0" encoding="UTF-8" standalone="no"?>
<svg xmlns="http://www.w3.org/2000/svg" version="1.0" width="580" height="580">
 <metadata id="metadata2975"/>
 <path mix-blend-mode="normal" white-space="normal" isolation="auto" id="path4137" d="m 74,171 c 19,16.9 42.9,27.8 66,36.8 12.4,13.6 24.7,27 37,40.9 -36,-21.3 -81,-17.4 -120,-6.9 12.6,39 45.9,79 90,80 24.8,0.9 54,-5.4 68,-27 20.8,24 44,46.6 71,64 -26.7,-2.5 -57,-3.1 -81,0.6 -35,8.3 -59.9,36.5 -91,53 -8.7,7.5 -27.9,15.4 -6.1,21.9 37,23.3 73.9,58 121,53 54,-2.5 110,-44.7 112,-102 20.7,0.9 55,11 78,23.9 47.9,26.7 68,80 92,126 8.6,-1.5 18,-2.9 26,-6.4 -15.9,-37.6 -37.7,-74 -66,-104 -27,-27.8 -65,-45 -103,-49 33,-26 35.6,-74 27.7,-112 -11.1,-50.7 -47,-98 -97,-116 -26,63 -20.4,141 19.4,197 6.4,9.5 18.7,22.7 0.7,11 -36,-19.7 -68.8,-46 -95,-78 29.5,-28.4 45,-74 29,-113 -13.2,-34 -39,-63 -68,-85 -24,42.7 -31,99 -6.1,143 7.4,12.4 -8.5,-7.5 -12.7,-11.3 C 158,205 152,195 154,181 151,138 117,108 84,85 72,77 59.8,68 47,63 33.7,99.6 42.2,146 74,171 Z" solid-color="#000000" opacity="0.8" color-interpolation-filters="linearRGB" filter-gaussianBlur-deviation="0" color="#000000" image-rendering="auto" color-rendering="auto" stroke-width="64" color-interpolation="sRGB" solid-opacity="1" fill="none" stroke-linejoin="round" filter-blend-mode="normal" stroke="#ffffff" shape-rendering="auto"/>
 <path d="m 74,171 c 19,16.9 42.9,27.8 66,36.8 12.4,13.6 24.7,27 37,40.9 -36,-21.3 -81,-17.4 -120,-6.9 12.6,39 45.9,79 90,80 24.8,0.9 54,-5.4 68,-27 20.8,24 44,46.6 71,64 -26.7,-2.5 -57,-3.1 -81,0.6 -35,8.3 -59.9,36.5 -91,53 -8.7,7.5 -27.9,15.4 -6.1,21.9 37,23.3 73.9,58 121,53 54,-2.5 110,-44.7 112,-102 20.7,0.9 55,11 78,23.9 47.9,26.7 68,80 92,126 8.6,-1.5 18,-2.9 26,-6.4 -15.9,-37.6 -37.7,-74 -66,-104 -27,-27.8 -65,-45 -103,-49 33,-26 35.6,-74 27.7,-112 -11.1,-50.7 -47,-98 -97,-116 -26,63 -20.4,141 19.4,197 6.4,9.5 18.7,22.7 0.7,11 -36,-19.7 -68.8,-46 -95,-78 29.5,-28.4 45,-74 29,-113 -13.2,-34 -39,-63 -68,-85 -24,42.7 -31,99 -6.1,143 7.4,12.4 -8.5,-7.5 -12.7,-11.3 C 158,205 152,195 154,181 151,138 117,108 84,85 72,77 59.8,68 47,63 33.7,99.6 42.2,146 74,171 Z" id="path4136" isolation="auto" white-space="normal" mix-blend-mode="normal" color-rendering="auto" solid-opacity="1" color-interpolation-filters="linearRGB" shape-rendering="auto" image-rendering="auto" color-interpolation="sRGB" color="#000000" solid-color="#000000"/>
</svg>
