<?xml version="1.0" encoding="UTF-8" standalone="no"?>
<svg xmlns="http://www.w3.org/2000/svg" xmlns:sodipodi="http://sodipodi.sourceforge.net/DTD/sodipodi-0.dtd" xmlns:inkscape="http://www.inkscape.org/namespaces/inkscape" version="1.0" width="580" height="580">
 <metadata id="metadata1976"/>
 <defs id="defs4">
  <marker viewBox="0 0 10 10" refY="5" refX="10" orient="auto" markerWidth="4" markerUnits="strokeWidth" markerHeight="3" id="ArrowStart">
   <path id="path2111" d="M 10 0 L 0 5 L 10 10 z"/>
  </marker>
  <marker viewBox="0 0 10 10" refY="5" orient="auto" markerWidth="4" markerUnits="strokeWidth" markerHeight="3" id="ArrowEnd">
   <path id="path2108" d="M 0 0 L 10 5 L 0 10 z"/>
  </marker>
 </defs>
 <g id="g1327">
  <path d="M 66.275,1.768 C 24.94,1.768 1.704,23.139 1.704,66.804 L 1.704,516.927 C 1.704,557.771 22.6,579.156 63.896,579.156 L 515.92,579.156 C 557.227,579.156 578.149,558.842 578.149,516.927 L 578.149,66.804 C 578.149,24.203 557.227,1.768 514.628,1.768 C 514.624,1.768 66.133,1.625 66.275,1.768 z" id="path1329" fill="#0092DA" stroke="#eeeeee" stroke-width="3.408"/>
 </g>
 <g id="g3780" transform="matrix(1.4851465,0,0,1.4851465,-135.79563,-178.9105)">
  <path sodipodi:nodetypes="cc" id="path2872" d="m 265.10872,398.21695 133.2798,0" fill="#ffffff" stroke="#ffffff" stroke-linejoin="round" stroke-linecap="round" stroke-width="18.7"/>
  <path sodipodi:nodetypes="cccccccccccccccccccccc" id="path3660" d="m 325.40054,283.74495 c -27.11433,0.84507 -53.34269,9.42465 -80.529,9.87961 -34.92928,2.29399 -76.99751,3.87666 -111.94063,2.33695 1.99656,1.29533 11.54415,0.37374 11.46146,10.50423 2.816,5.21168 -6.14351,12.8561 -2.37094,14.37937 44.41493,2.77835 104.78136,26.58994 152.50411,46.64984 24.34401,8.36603 50.93941,6.82358 76.25,4.625 13.21538,-2.20492 29.92826,-3.26191 37.15625,-16.5 3.20298,-9.11621 -8.6e-4,-19.28648 -3.34375,-27.875 -11.6761,-27.02707 -41.17439,-41.70987 -69.46548,-43.73707 -3.23142,-0.26887 -6.48062,-0.35427 -9.72202,-0.26293 z m 25.96291,11.97167 c 12.0857,1.03859 24.30274,7.05641 32.10105,16.18312 8.62377,8.08029 13.16131,20.04676 14.02395,31.94188 -15.66602,0.52921 -28.81749,-0.0801 -43.71661,-0.0801 -7.73602,-16.05957 -16.47031,-31.19742 -24.12714,-47.29488 7.2289,-0.56234 12.93621,-1.23604 21.71875,-0.75 z m -34.59375,1.72517 c 7.20805,7.01924 17.11979,39.02726 20.93546,47.78885 -12.84377,-0.14361 -32.90884,0.35436 -45.75234,0.19042 -0.13401,-7.95854 -0.61938,-39.77742 -0.75146,-47.73599 8.10431,-0.12441 17.46396,-0.13307 25.56834,-0.24328 z" fill="#ffffff" stroke="#ffffff" stroke-linejoin="round" stroke-linecap="round" stroke-width="8.5"/>
  <path sodipodi:nodetypes="ccccc" id="path3662" d="m 311.72788,272.31885 c -12.3058,-2.26182 -27.05427,8.72945 -38.93108,13.81425 l 36.4194,2.51168 41.79147,-5.02336 c -8.58846,-4.45605 -26.07283,-13.00453 -39.27979,-11.30257 z" fill="#ffffff" stroke="#ffffff" stroke-width="3.7"/>
  <path id="path3664" d="m 311.72788,245.31825 -0.62792,30.76812" fill="#ffffff" stroke="#ffffff" stroke-width="10.4"/>
  <path id="path3666" d="m 156.08241,228.99232 154.38963,14.44217 159.41299,-13.81425 -7.53504,8.79089 -150.62211,8.16297 -148.11042,-6.90713 -7.53505,-10.67465 z" sodipodi:nodetypes="ccccccc" fill="#ffffff" stroke="#ffffff" stroke-linejoin="round" stroke-linecap="round" stroke-width="5.1"/>
  <path id="path3726" d="m 124.32868,293.75121 c -3.56225,-9.47953 -6.98912,-19.03812 -10.52189,-28.53751 l -6.59375,0.375 0,0 c 4.65512,9.70907 9.08305,19.82866 13.73933,29.53563" fill="#ffffff" stroke="#ffffff" stroke-linejoin="round" stroke-linecap="round" stroke-width="10.1"/>
  <path id="path3678" d="m 132.4186,323.78079 10.16944,29.18291 c 1.68267,-0.54311 6.53218,0.98878 6.90625,-1.0625 -5.3782,-9.42179 -9.37675,-19.68689 -13.76577,-29.71518" fill="#ffffff" stroke="#ffffff" stroke-linejoin="round" stroke-linecap="round" stroke-width="10.1"/>
  <path id="path3680" d="m 126.58241,291.30255 c -12.63207,0.0284 -21.2103,15.46427 -14.75279,26.22719 5.63246,11.59712 23.73241,12.38102 30.43823,1.4131 8.08174,-11.83297 -1.22345,-28.58449 -15.68544,-27.64029 z m 0.48045,7.99816 c 8.34686,-0.78819 13.60603,10.54095 7.57423,16.36373 -5.34325,6.46098 -17.01785,2.13193 -16.92897,-6.21765 -0.30203,-5.24668 4.09881,-10.01936 9.35474,-10.14608 z" fill="#ffffff" stroke-linejoin="round" stroke-linecap="round" stroke-width="18.7"/>
 </g>
</svg>
