<?xml version="1.0" encoding="UTF-8" standalone="no"?>
<svg xmlns="http://www.w3.org/2000/svg" xmlns:sodipodi="http://sodipodi.sourceforge.net/DTD/sodipodi-0.dtd" xmlns:inkscape="http://www.inkscape.org/namespaces/inkscape" version="1.0" width="580" height="580">
 <metadata id="metadata2975"/>
 <defs id="defs4">
  <symbol viewBox="244.5 110 489 219.9" id="symbol-university">
   <path id="path4460" d="M79,43l57,119c0,0,21-96,104-96s124,106,124,106l43-133l82-17L0,17L79,43z"/>
   <path id="path4462" d="M94,176l-21,39" stroke-width="20" stroke="#000000" fill="none"/>
   <path id="path4464" d="M300,19c0,10.5-22.6,19-50.5,19S199,29.5,199,19s22.6-19,50.5-19S300,8.5,300,19z"/>
   <path id="path4466" d="M112,216l-16-38L64,88c0,0-9-8-4-35s16-24,16-24" stroke-width="20" stroke="#000000" ill="none"/>
  </symbol>
  <marker id="Arrow2Lend" refX="0.0" refY="0.0" orient="auto" inkscape:stockid="Arrow2Lend">
   <path transform="scale(1.1) rotate(180) translate(1,0)" d="M 8.7185878,4.0337352 L -2.2072895,0.016013256 L 8.7185884,-4.0017078 C 6.9730900,-1.6296469 6.9831476,1.6157441 8.7185878,4.0337352 z " id="path4137" fill-rule="evenodd" stroke-linejoin="round" stroke-width=".625"/>
  </marker>
  <marker id="Arrow1Mend" refX="0.0" refY="0.0" orient="auto" inkscape:stockid="Arrow1Mend">
   <path transform="scale(0.4) rotate(180) translate(10,0)" d="M 0.0,0.0 L 5.0,-5.0 L -12.5,0.0 L 5.0,5.0 L 0.0,0.0 z " id="path4125" fill-rule="evenodd" stroke="#000000" stroke-width="1.25"/>
  </marker>
  <marker id="TriangleOutL" refX="0.0" refY="0.0" orient="auto" inkscape:stockid="TriangleOutL">
   <path transform="scale(0.8)" d="M 5.77,0.0 L -2.88,5.0 L -2.88,-5.0 L 5.77,0.0 z " id="path4214" fill-rule="evenodd" stroke="#000000" stroke-width="1.25"/>
  </marker>
  <marker id="Arrow1Lend" refX="0.0" refY="0.0" orient="auto" inkscape:stockid="Arrow1Lend">
   <path transform="scale(0.8) rotate(180) translate(12.5,0)" d="M 0.0,0.0 L 5.0,-5.0 L -12.5,0.0 L 5.0,5.0 L 0.0,0.0 z " id="path4119" fill-rule="evenodd" stroke="#000000" stroke-width="1.25"/>
  </marker>
  <marker id="Tail" refX="0.0" refY="0.0" orient="auto" inkscape:stockid="Tail">
   <g transform="scale(-1.2)" id="g4152">
    <path d="M -3.8048674,-3.9585227 L 0.54352094,0" id="path4154" fill="none" fill-rule="evenodd" stroke="#000000" stroke-linecap="round" stroke-width=".8"/>
    <path d="M -1.2866832,-3.9585227 L 3.0617053,0" id="path4156" fill="none" fill-rule="evenodd" stroke="#000000" stroke-linecap="round" stroke-width=".8"/>
    <path d="M 1.3053582,-3.9585227 L 5.6537466,0" id="path4158" fill="none" fill-rule="evenodd" stroke="#000000" stroke-linecap="round" stroke-width=".8"/>
    <path d="M -3.8048674,4.1775838 L 0.54352094,0.21974226" id="path4160" fill="none" fill-rule="evenodd" stroke="#000000" stroke-linecap="round" stroke-width=".8"/>
    <path d="M -1.2866832,4.1775838 L 3.0617053,0.21974226" id="path4162" fill="none" fill-rule="evenodd" stroke="#000000" stroke-linecap="round" stroke-width=".8"/>
    <path d="M 1.3053582,4.1775838 L 5.6537466,0.21974226" id="path4164" fill="none" fill-rule="evenodd" stroke="#000000" stroke-linecap="round" stroke-width=".8"/>
   </g>
  </marker>
  <marker id="Arrow1Sstart" refX="0.0" refY="0.0" orient="auto" inkscape:stockid="Arrow1Sstart">
   <path transform="scale(0.2) translate(6,0)" d="M 0.0,0.0 L 5.0,-5.0 L -12.5,0.0 L 5.0,5.0 L 0.0,0.0 z " id="path4128" fill-rule="evenodd" stroke="#000000" stroke-width="1.25"/>
  </marker>
  <marker id="Arrow1Send" refX="0.0" refY="0.0" orient="auto" inkscape:stockid="Arrow1Send">
   <path transform="scale(0.2) rotate(180) translate(6,0)" d="M 0.0,0.0 L 5.0,-5.0 L -12.5,0.0 L 5.0,5.0 L 0.0,0.0 z " id="path4131" fill-rule="evenodd" stroke="#000000" stroke-width="1.25"/>
  </marker>
  <marker id="SemiCircleOut" refX="0.0" refY="0.0" orient="auto" inkscape:stockid="SemiCircleOut">
   <path transform="scale(0.6) translate(7.125493,0.763446)" d="M -2.5,-0.80913858 C -2.5,1.9508614 -4.7400000,4.1908614 -7.5,4.1908614 L -7.5,-5.8091386 C -4.7400000,-5.8091386 -2.5,-3.5691386 -2.5,-0.80913858 z " id="path4235" fill-rule="evenodd" stroke="#000000" stroke-width="1.25"/>
  </marker>
  <marker id="Arrow2Send" refX="0.0" refY="0.0" orient="auto" inkscape:stockid="Arrow2Send">
   <path transform="scale(0.3) rotate(180) translate(-2.3,0)" d="M 8.7185878,4.0337352 L -2.2072895,0.016013256 L 8.7185884,-4.0017078 C 6.9730900,-1.6296469 6.9831476,1.6157441 8.7185878,4.0337352 z " id="path4149" fill-rule="evenodd" stroke-linejoin="round" stroke-width=".625"/>
  </marker>
  <marker id="TriangleOutS" refX="0.0" refY="0.0" orient="auto" inkscape:stockid="TriangleOutS">
   <path transform="scale(0.2)" d="M 5.77,0.0 L -2.88,5.0 L -2.88,-5.0 L 5.77,0.0 z " id="path4220" fill-rule="evenodd" stroke="#000000" stroke-width="1.25"/>
  </marker>
  <marker id="CurveIn" refX="0.0" refY="0.0" orient="auto" inkscape:stockid="CurveIn">
   <path transform="scale(0.6)" d="M 4.6254930,-5.0456926 C 1.8654930,-5.0456926 -0.37450702,-2.8056926 -0.37450702,-0.045692580 C -0.37450702,2.7143074 1.8654930,4.9543074 4.6254930,4.9543074" id="path4238" fill="none" fill-rule="evenodd" stroke="#000000" stroke-width="1.25"/>
  </marker>
  <marker orient="auto" id="InfiniteLineStart" inkscape:stockid="InfiniteLineStart">
   <g transform="translate(-13,0)" id="g4298">
    <circle cx="3" r=".8" id="circle4300"/>
    <circle cx="6.5" r=".8" id="circle4302"/>
    <circle cx="10" r=".8" id="circle4304"/>
   </g>
  </marker>
  <marker id="StopS" refX="0.0" refY="0.0" orient="auto" inkscape:stockid="StopS">
   <path transform="scale(0.2)" d="M 0.0,5.65 L 0.0,-5.65" id="path4229" fill="none" fill-rule="evenodd" stroke="#000000" fill-opacity=".75" stroke-width="1.25"/>
  </marker>
  <marker id="Arrow2Sstart" refX="0.0" refY="0.0" orient="auto" inkscape:stockid="Arrow2Sstart">
   <path transform="scale(0.3) translate(-2.3,0)" d="M 8.7185878,4.0337352 L -2.2072895,0.016013256 L 8.7185884,-4.0017078 C 6.9730900,-1.6296469 6.9831476,1.6157441 8.7185878,4.0337352 z " id="path4146" fill-rule="evenodd" stroke-linejoin="round" stroke-width=".625"/>
  </marker>
  <marker id="DiamondS" refX="0.0" refY="0.0" orient="auto" inkscape:stockid="DiamondS">
   <path transform="scale(0.2)" d="M 0,-7.0710768 L -7.0710894,0 L 0,7.0710589 L 7.0710462,0 L 0,-7.0710768 z " id="path4202" fill-rule="evenodd" stroke="#000000" stroke-width="1.25"/>
  </marker>
  <marker orient="auto" id="RazorWire" inkscape:stockid="RazorWire">
       style="overflow:visible"&gt;
         <path d="M 0.022727273,-0.74009011 L 0.022727273,0.69740989 L -7.7585227,3.0099099 L 10.678977,3.0099099 L 3.4914773,0.69740989 L 3.4914773,-0.74009011 L 10.741477,-2.8963401 L -7.7272727,-2.8963401 L 0.022727273,-0.74009011 z " transform="scale(0.8,0.8)" id="path4286" fill="#808080" fill-rule="evenodd" stroke="#000000" stroke-width=".125"/></marker>
  <marker viewBox="0 0 10 10" refY="5" refX="10" orient="auto" markerWidth="4" markerUnits="strokeWidth" markerHeight="3" id="ArrowStart">
   <path id="path1968" d="M 10 0 L 0 5 L 10 10 z"/>
  </marker>
  <marker viewBox="0 0 10 10" refY="5" orient="auto" markerWidth="4" markerUnits="strokeWidth" markerHeight="3" id="ArrowEnd">
   <path id="path1965" d="M 0 0 L 10 5 L 0 10 z"/>
  </marker>
 </defs>
 <g id="g1327">
  <path d="M 66.275,1.768 C 24.94,1.768 1.704,23.139 1.704,66.804 L 1.704,516.927 C 1.704,557.771 22.599,579.156 63.896,579.156 L 515.92,579.156 C 557.227,579.156 578.149,558.841 578.149,516.927 L 578.149,66.804 C 578.149,24.203 557.227,1.768 514.628,1.768 C 514.624,1.768 66.133,1.625 66.275,1.768 z " id="path1329" fill="#0092DA" stroke="#eee" stroke-width="3.408"/>
 </g>
 <path inkscape:connector-curvature="0" id="path5679" d="m 121.52892,132.23153 100.56651,27.37779 55.84341,-38.73987 19.40016,4.65362 -55.2995,38.86073 304.78178,83.58383 -22.3011,81.83115 -305.93008,-83.4025 C 100.07394,211.16174 121.64979,132.11067 121.64979,132.11067" fill="#ffffff"/>
 <path inkscape:connector-curvature="0" id="path5681" d="m 385.87862,341.52348 c -0.36262,-6.82934 -1.63179,-13.35649 -3.86794,-19.52101 l 137.91632,38.43767 -4.41188,16.92225 -129.6365,-35.83891 z" fill="#ffffff"/>
 <path inkscape:connector-curvature="0" id="path5683" d="m 260.65398,306.89331 c 3.74706,-5.43929 8.15894,-10.33465 13.17518,-14.50478 L 43.747015,228.86967 v 18.25184 l 216.906965,59.7718 z" fill="#ffffff"/>
 <path inkscape:connector-curvature="0" id="path5685" d="m 317.52481,367.39035 c 12.38951,0 22.42198,-9.97204 22.42198,-22.36155 0,-12.38949 -10.03247,-22.42197 -22.42198,-22.42197 -12.38949,0 -22.42196,10.03248 -22.42196,22.42197 0,12.38951 10.03247,22.36155 22.42196,22.36155 z m 224.58241,137.43283 c -10.93902,0 -21.33411,-2.4779 -30.58091,-6.64803 -9.60942,-4.41187 -20.36714,-7.01064 -31.60834,-7.01064 -11.24121,0 -21.99892,2.59877 -31.48747,7.01064 -9.36768,4.17013 -19.76277,6.64803 -30.70179,6.64803 -10.93904,0 -21.33413,-2.4779 -30.7018,-6.64803 -9.54898,-4.41187 -20.3067,-7.01064 -31.48747,-7.01064 -11.30165,0 -21.99892,2.59877 -31.60834,7.01064 -9.2468,4.17013 -19.76276,6.64803 -30.64136,6.64803 -10.87858,0 -21.33412,-2.4779 -30.64135,-6.64803 -9.60943,-4.41187 -20.42757,-7.01064 -31.60835,-7.01064 -11.18077,0 -21.99892,2.59877 -31.48747,7.01064 -9.30723,4.17013 -19.8232,6.64803 -30.70178,6.64803 -10.8786,0 -21.33413,-2.4779 -30.70181,-6.64803 -9.48854,-4.41187 -20.30669,-7.01064 -31.48746,-7.01064 -11.180769,0 -21.998925,2.59877 -31.5479,7.01064 -9.307246,4.17013 -19.823206,6.64803 -30.641362,6.64803 L 43.747015,322.18377 295.34459,391.50455 c -17.34531,-8.40069 -29.3722,-25.98774 -29.3722,-46.47575 0,-28.5865 23.14723,-51.67328 51.6733,-51.67328 28.52608,0 51.6733,23.14722 51.6733,51.67328 0,28.52609 -23.20766,51.6733 -51.6733,51.6733 -1.69223,0 -3.44488,-0.36262 -5.07667,-0.54393 l 229.29646,63.21668 0.24174,45.44833 z" fill="#ffffff"/>
</svg>
