<?xml version="1.0" encoding="UTF-8" standalone="no"?>
<svg xmlns="http://www.w3.org/2000/svg" xmlns:sodipodi="http://sodipodi.sourceforge.net/DTD/sodipodi-0.dtd" xmlns:inkscape="http://www.inkscape.org/namespaces/inkscape" version="1.0" width="580" height="580">
 <metadata id="metadata2975"/>
 <defs id="defs4">
  <symbol viewBox="244.5 110 489 219.9" id="symbol-university">
   <path id="path4460" d="M79,43l57,119c0,0,21-96,104-96s124,106,124,106l43-133l82-17L0,17L79,43z"/>
   <path id="path4462" d="M94,176l-21,39" stroke-width="20" stroke="#000000" fill="none"/>
   <path id="path4464" d="M300,19c0,10.5-22.6,19-50.5,19S199,29.5,199,19s22.6-19,50.5-19S300,8.5,300,19z"/>
   <path id="path4466" d="M112,216l-16-38L64,88c0,0-9-8-4-35s16-24,16-24" stroke-width="20" stroke="#000000" ill="none"/>
  </symbol>
 </defs>
 <g id="g1327">
  <path d="M 66.275,1.768 C 24.94,1.768 1.704,23.139 1.704,66.804 L 1.704,516.927 C 1.704,557.771 22.599,579.156 63.896,579.156 L 515.92,579.156 C 557.227,579.156 578.149,558.841 578.149,516.927 L 578.149,66.804 C 578.149,24.203 557.227,1.768 514.628,1.768 C 514.624,1.768 66.133,1.625 66.275,1.768 z " id="path1329" fill="#0092DA" stroke="#eee" stroke-width="3.408"/>
 </g>
 <g id="layer1" inkscape:label="Ebene 1" transform="matrix(1.3788341,0,0,1.3788341,13.801363,14.257394)" fill="#ffffff">
  <g id="g2285" transform="matrix(1.678818,0,0,1.678818,-1258.525,-55.28905)">
   <path d="M 80.5,104.90625 C 70.447375,104.90625 65.489525,113.13213 61.375,121.5625 C 44.594729,161.89772 27.679437,191.39396 21.53125,246.25 C 20.262147,284.88588 18.342155,323.19754 18.84375,362.71875 C 18.843951,386.09026 46.095294,421.96876 68.9375,421.96875 L 504.5,421.96875 L 504.5,378.28125 C 503.62729,378.06844 502.77254,377.83614 501.90625,377.59375 L 501.90625,338.15625 L 504.5,338.65625 L 504.5,326.4375 C 414.3651,297.72544 338.34059,239.36701 296.40625,136.15625 C 289.14772,117.55063 274.86101,106.18525 255.96875,104.90625 L 80.5,104.90625 z M 79.09375,130.84375 L 248.65625,130.84375 C 259.69238,130.84376 269.41114,172.46222 277.375,193.75 C 279.90972,200.66807 277.91923,211.75 272.5625,211.75 L 51.96875,211.75 C 46.89351,211.75009 44.807398,202.68366 46.9375,194.28125 C 57.661056,173.14104 69.904347,130.84375 79.09375,130.84375 z M 315.3125,222.3125 C 327.72007,234.34087 341.0587,250.86193 352.5625,258.40625 L 352.5625,331.6875 L 319,316.3125 C 315.80942,285.37813 315.50293,253.84702 315.3125,222.3125 z M 371.75,275.5 C 385.62552,287.28368 391.31929,289.60711 403.3125,298.375 L 403.8125,354.78125 L 371.75,341.34375 C 371.00629,310.40934 371.94043,307.03452 371.75,275.5 z M 70.90625,296.96875 C 71.249682,296.95139 71.589769,296.96875 71.9375,296.96875 C 83.065078,296.96884 92.09375,305.96635 92.09375,317.09375 C 92.093915,328.22122 83.064875,337.25 71.9375,337.25 C 60.810304,337.25009 51.78125,328.22115 51.78125,317.09375 C 51.781384,306.31415 60.259865,297.50692 70.90625,296.96875 z M 237.28125,296.96875 C 237.62468,296.95139 237.96477,296.96875 238.3125,296.96875 C 249.44013,296.96884 258.46875,305.96635 258.46875,317.09375 C 258.46896,328.22122 249.43987,337.25 238.3125,337.25 C 227.18536,337.25009 218.15625,328.22115 218.15625,317.09375 C 218.15645,306.31415 226.63487,297.50692 237.28125,296.96875 z M 419.875,308.40625 L 451.21875,321.1875 L 451.21875,367.5625 C 439.72455,366.30716 429.0654,363.6601 419.875,358.71875 L 419.875,308.40625 z M 464.1875,327.4375 L 489.09375,333.84375 L 489.09375,375.875 C 480.6013,375.49475 472.22194,374.53484 464.1875,371.40625 L 464.1875,327.4375 z" id="path2251" sodipodi:nodetypes="ccccccccccccccccccccccccccccccccssssccssssccccccccccc" transform="matrix(0.4763882,0,0,0.4763882,745.66673,13.261702)" fill-rule="evenodd" stroke="#ffffff" stroke-width="9.07"/>
   <path d="M 216.125,432.28125 L 216.125,453.0625 L 123.75,453.0625 L 123.75,432.34375 L 60.71875,432.34375 L 60.71875,453.3125 L 18.875,453.3125 L 18.8125,482.8125 L 313.28125,482.8125 C 354.71781,464.14918 427.11102,440.61864 504.5,437.3635 L 504.5,432.28125 L 216.125,432.28125 z" transform="matrix(0.4763882,0,0,0.4763882,745.66673,13.261702)" id="path2283" sodipodi:nodetypes="cccccccccccc" fill-rule="evenodd"/>
  </g>
 </g>
</svg>
