<?xml version="1.0" encoding="UTF-8" standalone="no"?>
<svg xmlns="http://www.w3.org/2000/svg" xmlns:sodipodi="http://sodipodi.sourceforge.net/DTD/sodipodi-0.dtd" xmlns:inkscape="http://www.inkscape.org/namespaces/inkscape" version="1.0" width="580" height="580">
 <metadata id="metadata10"/>
 <g id="g1327">
  <path d="M 66.275,1.768 C 24.94,1.768 1.704,23.139 1.704,66.804 L 1.704,516.927 C 1.704,557.771 22.598,579.156 63.896,579.156 L 515.92,579.156 C 557.227,579.156 578.149,558.84 578.149,516.927 L 578.149,66.804 C 578.149,24.203 557.227,1.768 514.627,1.768 C 514.624,1.768 66.133,1.625 66.275,1.768 z" id="path1329" fill="#8E7409" stroke="#eeeeee" stroke-width="3.408"/>
 </g>
 <path d="m 105.34375,184.09375 c 10.21887,107.49256 2.61939,210.69427 -24,336.5625 l 32,0 160.125,0 32,0 c -26.61939,-125.86823 -34.21887,-229.06994 -24,-336.5625 -33.38204,14.58679 -62.50651,12.53748 -88.0625,14.40625 -25.55599,-1.86877 -54.68046,0.18054 -88.0625,-14.40625 z" id="rect3172" inkscape:connector-curvature="0" sodipodi:nodetypes="cccccccc" fill="#ffffff" stroke="#ffffff" stroke-linejoin="round" stroke-linecap="round" stroke-width="10"/>
 <path d="m 278.18442,400.18442 232.63116,0 0,120.63116 -232.63116,0 z" id="rect3947" inkscape:connector-curvature="0" fill="#ffffff" stroke="#ffffff" stroke-linejoin="round" stroke-linecap="round" stroke-width="8.369"/>
 <g id="g4076" transform="translate(0,14)">
  <path d="m 248,137 c 0,4.97056 -20.37104,9 -45.5,9 -25.12896,0 -45.5,-4.02944 -45.5,-9 0,-4.97056 20.37104,-9 45.5,-9 25.12896,0 45.5,4.02944 45.5,9 z" sodipodi:ry="9" sodipodi:rx="45.5" sodipodi:cy="137" sodipodi:cx="202.5" id="path3950" sodipodi:type="arc" opacity=".2" fill="#ffffff" stroke="#ffffff" stroke-linejoin="round" stroke-linecap="round" stroke-width="5"/>
  <path transform="translate(20,-20)" sodipodi:type="arc" id="path3952" sodipodi:cx="202.5" sodipodi:cy="137" sodipodi:rx="45.5" sodipodi:ry="9" d="m 248,137 c 0,4.97056 -20.37104,9 -45.5,9 -25.12896,0 -45.5,-4.02944 -45.5,-9 0,-4.97056 20.37104,-9 45.5,-9 25.12896,0 45.5,4.02944 45.5,9 z" opacity=".2" fill="#ffffff" stroke="#ffffff" stroke-linejoin="round" stroke-linecap="round" stroke-width="5"/>
  <path d="m 248,137 c 0,4.97056 -20.37104,9 -45.5,9 -25.12896,0 -45.5,-4.02944 -45.5,-9 0,-4.97056 20.37104,-9 45.5,-9 25.12896,0 45.5,4.02944 45.5,9 z" sodipodi:ry="9" sodipodi:rx="45.5" sodipodi:cy="137" sodipodi:cx="202.5" id="path3956" sodipodi:type="arc" transform="translate(40,-40)" opacity=".2" fill="#ffffff" stroke="#ffffff" stroke-linejoin="round" stroke-linecap="round" stroke-width="5"/>
  <path transform="translate(60,-40)" sodipodi:type="arc" id="path3958" sodipodi:cx="202.5" sodipodi:cy="137" sodipodi:rx="45.5" sodipodi:ry="9" d="m 248,137 c 0,4.97056 -20.37104,9 -45.5,9 -25.12896,0 -45.5,-4.02944 -45.5,-9 0,-4.97056 20.37104,-9 45.5,-9 25.12896,0 45.5,4.02944 45.5,9 z" opacity=".2" fill="#ffffff" stroke="#ffffff" stroke-linejoin="round" stroke-linecap="round" stroke-width="5"/>
  <path d="m 248,137 c 0,4.97056 -20.37104,9 -45.5,9 -25.12896,0 -45.5,-4.02944 -45.5,-9 0,-4.97056 20.37104,-9 45.5,-9 25.12896,0 45.5,4.02944 45.5,9 z" sodipodi:ry="9" sodipodi:rx="45.5" sodipodi:cy="137" sodipodi:cx="202.5" id="path3960" sodipodi:type="arc" transform="translate(40,-30)" opacity=".2" fill="#ffffff" stroke="#ffffff" stroke-linejoin="round" stroke-linecap="round" stroke-width="5"/>
  <path transform="translate(80,-50)" sodipodi:type="arc" id="path3962" sodipodi:cx="202.5" sodipodi:cy="137" sodipodi:rx="45.5" sodipodi:ry="9" d="m 248,137 c 0,4.97056 -20.37104,9 -45.5,9 -25.12896,0 -45.5,-4.02944 -45.5,-9 0,-4.97056 20.37104,-9 45.5,-9 25.12896,0 45.5,4.02944 45.5,9 z" opacity=".2" fill="#ffffff" stroke="#ffffff" stroke-linejoin="round" stroke-linecap="round" stroke-width="5"/>
  <path d="m 248,137 c 0,4.97056 -20.37104,9 -45.5,9 -25.12896,0 -45.5,-4.02944 -45.5,-9 0,-4.97056 20.37104,-9 45.5,-9 25.12896,0 45.5,4.02944 45.5,9 z" sodipodi:ry="9" sodipodi:rx="45.5" sodipodi:cy="137" sodipodi:cx="202.5" id="path3964" sodipodi:type="arc" transform="translate(40,-58)" opacity=".2" fill="#ffffff" stroke="#ffffff" stroke-linejoin="round" stroke-linecap="round" stroke-width="5"/>
  <path transform="translate(20,-68)" sodipodi:type="arc" id="path3966" sodipodi:cx="202.5" sodipodi:cy="137" sodipodi:rx="45.5" sodipodi:ry="9" d="m 248,137 c 0,4.97056 -20.37104,9 -45.5,9 -25.12896,0 -45.5,-4.02944 -45.5,-9 0,-4.97056 20.37104,-9 45.5,-9 25.12896,0 45.5,4.02944 45.5,9 z" opacity=".2" fill="#ffffff" stroke="#ffffff" stroke-linejoin="round" stroke-linecap="round" stroke-width="5"/>
  <path d="m 248,137 c 0,4.97056 -20.37104,9 -45.5,9 -25.12896,0 -45.5,-4.02944 -45.5,-9 0,-4.97056 20.37104,-9 45.5,-9 25.12896,0 45.5,4.02944 45.5,9 z" sodipodi:ry="9" sodipodi:rx="45.5" sodipodi:cy="137" sodipodi:cx="202.5" id="path3968" sodipodi:type="arc" transform="translate(60,-68)" opacity=".2" fill="#ffffff" stroke="#ffffff" stroke-linejoin="round" stroke-linecap="round" stroke-width="5"/>
  <path transform="translate(120,-68)" sodipodi:type="arc" id="path3970" sodipodi:cx="202.5" sodipodi:cy="137" sodipodi:rx="45.5" sodipodi:ry="9" d="m 248,137 c 0,4.97056 -20.37104,9 -45.5,9 -25.12896,0 -45.5,-4.02944 -45.5,-9 0,-4.97056 20.37104,-9 45.5,-9 25.12896,0 45.5,4.02944 45.5,9 z" opacity=".2" fill="#ffffff" stroke="#ffffff" stroke-linejoin="round" stroke-linecap="round" stroke-width="5"/>
  <path d="m 248,137 c 0,4.97056 -20.37104,9 -45.5,9 -25.12896,0 -45.5,-4.02944 -45.5,-9 0,-4.97056 20.37104,-9 45.5,-9 25.12896,0 45.5,4.02944 45.5,9 z" sodipodi:ry="9" sodipodi:rx="45.5" sodipodi:cy="137" sodipodi:cx="202.5" id="path3972" sodipodi:type="arc" transform="translate(100,-56)" opacity=".2" fill="#ffffff" stroke="#ffffff" stroke-linejoin="round" stroke-linecap="round" stroke-width="5"/>
  <path transform="translate(100,-36)" sodipodi:type="arc" id="path3974" sodipodi:cx="202.5" sodipodi:cy="137" sodipodi:rx="45.5" sodipodi:ry="9" d="m 248,137 c 0,4.97056 -20.37104,9 -45.5,9 -25.12896,0 -45.5,-4.02944 -45.5,-9 0,-4.97056 20.37104,-9 45.5,-9 25.12896,0 45.5,4.02944 45.5,9 z" opacity=".2" fill="#ffffff" stroke="#ffffff" stroke-linejoin="round" stroke-linecap="round" stroke-width="5"/>
  <path d="m 248,137 c 0,4.97056 -20.37104,9 -45.5,9 -25.12896,0 -45.5,-4.02944 -45.5,-9 0,-4.97056 20.37104,-9 45.5,-9 25.12896,0 45.5,4.02944 45.5,9 z" sodipodi:ry="9" sodipodi:rx="45.5" sodipodi:cy="137" sodipodi:cx="202.5" id="path3976" sodipodi:type="arc" transform="translate(110,-48)" opacity=".2" fill="#ffffff" stroke="#ffffff" stroke-linejoin="round" stroke-linecap="round" stroke-width="5"/>
  <path transform="translate(130,-64)" sodipodi:type="arc" id="path3978" sodipodi:cx="202.5" sodipodi:cy="137" sodipodi:rx="45.5" sodipodi:ry="9" d="m 248,137 c 0,4.97056 -20.37104,9 -45.5,9 -25.12896,0 -45.5,-4.02944 -45.5,-9 0,-4.97056 20.37104,-9 45.5,-9 25.12896,0 45.5,4.02944 45.5,9 z" opacity=".2" fill="#ffffff" stroke="#ffffff" stroke-linejoin="round" stroke-linecap="round" stroke-width="5"/>
  <path transform="translate(26,-12)" sodipodi:type="arc" id="path3980" sodipodi:cx="202.5" sodipodi:cy="137" sodipodi:rx="45.5" sodipodi:ry="9" d="m 248,137 c 0,4.97056 -20.37104,9 -45.5,9 -25.12896,0 -45.5,-4.02944 -45.5,-9 0,-4.97056 20.37104,-9 45.5,-9 25.12896,0 45.5,4.02944 45.5,9 z" opacity=".2" fill="#ffffff" stroke="#ffffff" stroke-linejoin="round" stroke-linecap="round" stroke-width="5"/>
  <path transform="translate(10,-6)" sodipodi:type="arc" id="path3982" sodipodi:cx="202.5" sodipodi:cy="137" sodipodi:rx="45.5" sodipodi:ry="9" d="m 248,137 c 0,4.97056 -20.37104,9 -45.5,9 -25.12896,0 -45.5,-4.02944 -45.5,-9 0,-4.97056 20.37104,-9 45.5,-9 25.12896,0 45.5,4.02944 45.5,9 z" opacity=".2" fill="#ffffff" stroke="#ffffff" stroke-linejoin="round" stroke-linecap="round" stroke-width="5"/>
  <path d="m 248,137 c 0,4.97056 -20.37104,9 -45.5,9 -25.12896,0 -45.5,-4.02944 -45.5,-9 0,-4.97056 20.37104,-9 45.5,-9 25.12896,0 45.5,4.02944 45.5,9 z" sodipodi:ry="9" sodipodi:rx="45.5" sodipodi:cy="137" sodipodi:cx="202.5" id="path3984" sodipodi:type="arc" transform="translate(30,-26)" opacity=".2" fill="#ffffff" stroke="#ffffff" stroke-linejoin="round" stroke-linecap="round" stroke-width="5"/>
  <path transform="translate(50,-46)" sodipodi:type="arc" id="path3986" sodipodi:cx="202.5" sodipodi:cy="137" sodipodi:rx="45.5" sodipodi:ry="9" d="m 248,137 c 0,4.97056 -20.37104,9 -45.5,9 -25.12896,0 -45.5,-4.02944 -45.5,-9 0,-4.97056 20.37104,-9 45.5,-9 25.12896,0 45.5,4.02944 45.5,9 z" opacity=".2" fill="#ffffff" stroke="#ffffff" stroke-linejoin="round" stroke-linecap="round" stroke-width="5"/>
  <path d="m 248,137 c 0,4.97056 -20.37104,9 -45.5,9 -25.12896,0 -45.5,-4.02944 -45.5,-9 0,-4.97056 20.37104,-9 45.5,-9 25.12896,0 45.5,4.02944 45.5,9 z" sodipodi:ry="9" sodipodi:rx="45.5" sodipodi:cy="137" sodipodi:cx="202.5" id="path3988" sodipodi:type="arc" transform="translate(70,-46)" opacity=".2" fill="#ffffff" stroke="#ffffff" stroke-linejoin="round" stroke-linecap="round" stroke-width="5"/>
  <path transform="translate(50,-36)" sodipodi:type="arc" id="path3990" sodipodi:cx="202.5" sodipodi:cy="137" sodipodi:rx="45.5" sodipodi:ry="9" d="m 248,137 c 0,4.97056 -20.37104,9 -45.5,9 -25.12896,0 -45.5,-4.02944 -45.5,-9 0,-4.97056 20.37104,-9 45.5,-9 25.12896,0 45.5,4.02944 45.5,9 z" opacity=".2" fill="#ffffff" stroke="#ffffff" stroke-linejoin="round" stroke-linecap="round" stroke-width="5"/>
  <path d="m 248,137 c 0,4.97056 -20.37104,9 -45.5,9 -25.12896,0 -45.5,-4.02944 -45.5,-9 0,-4.97056 20.37104,-9 45.5,-9 25.12896,0 45.5,4.02944 45.5,9 z" sodipodi:ry="9" sodipodi:rx="45.5" sodipodi:cy="137" sodipodi:cx="202.5" id="path3992" sodipodi:type="arc" transform="translate(90,-56)" opacity=".2" fill="#ffffff" stroke="#ffffff" stroke-linejoin="round" stroke-linecap="round" stroke-width="5"/>
  <path transform="translate(50,-64)" sodipodi:type="arc" id="path3994" sodipodi:cx="202.5" sodipodi:cy="137" sodipodi:rx="45.5" sodipodi:ry="9" d="m 248,137 c 0,4.97056 -20.37104,9 -45.5,9 -25.12896,0 -45.5,-4.02944 -45.5,-9 0,-4.97056 20.37104,-9 45.5,-9 25.12896,0 45.5,4.02944 45.5,9 z" opacity=".2" fill="#ffffff" stroke="#ffffff" stroke-linejoin="round" stroke-linecap="round" stroke-width="5"/>
  <path d="m 248,137 c 0,4.97056 -20.37104,9 -45.5,9 -25.12896,0 -45.5,-4.02944 -45.5,-9 0,-4.97056 20.37104,-9 45.5,-9 25.12896,0 45.5,4.02944 45.5,9 z" sodipodi:ry="9" sodipodi:rx="45.5" sodipodi:cy="137" sodipodi:cx="202.5" id="path3996" sodipodi:type="arc" transform="translate(30,-74)" opacity=".2" fill="#ffffff" stroke="#ffffff" stroke-linejoin="round" stroke-linecap="round" stroke-width="5"/>
  <path transform="translate(70,-74)" sodipodi:type="arc" id="path3998" sodipodi:cx="202.5" sodipodi:cy="137" sodipodi:rx="45.5" sodipodi:ry="9" d="m 248,137 c 0,4.97056 -20.37104,9 -45.5,9 -25.12896,0 -45.5,-4.02944 -45.5,-9 0,-4.97056 20.37104,-9 45.5,-9 25.12896,0 45.5,4.02944 45.5,9 z" opacity=".2" fill="#ffffff" stroke="#ffffff" stroke-linejoin="round" stroke-linecap="round" stroke-width="5"/>
  <path d="m 248,137 c 0,4.97056 -20.37104,9 -45.5,9 -25.12896,0 -45.5,-4.02944 -45.5,-9 0,-4.97056 20.37104,-9 45.5,-9 25.12896,0 45.5,4.02944 45.5,9 z" sodipodi:ry="9" sodipodi:rx="45.5" sodipodi:cy="137" sodipodi:cx="202.5" id="path4000" sodipodi:type="arc" transform="translate(130,-74)" opacity=".2" fill="#ffffff" stroke="#ffffff" stroke-linejoin="round" stroke-linecap="round" stroke-width="5"/>
  <path transform="translate(110,-62)" sodipodi:type="arc" id="path4002" sodipodi:cx="202.5" sodipodi:cy="137" sodipodi:rx="45.5" sodipodi:ry="9" d="m 248,137 c 0,4.97056 -20.37104,9 -45.5,9 -25.12896,0 -45.5,-4.02944 -45.5,-9 0,-4.97056 20.37104,-9 45.5,-9 25.12896,0 45.5,4.02944 45.5,9 z" opacity=".2" fill="#ffffff" stroke="#ffffff" stroke-linejoin="round" stroke-linecap="round" stroke-width="5"/>
  <path d="m 248,137 c 0,4.97056 -20.37104,9 -45.5,9 -25.12896,0 -45.5,-4.02944 -45.5,-9 0,-4.97056 20.37104,-9 45.5,-9 25.12896,0 45.5,4.02944 45.5,9 z" sodipodi:ry="9" sodipodi:rx="45.5" sodipodi:cy="137" sodipodi:cx="202.5" id="path4004" sodipodi:type="arc" transform="translate(110,-42)" opacity=".2" fill="#ffffff" stroke="#ffffff" stroke-linejoin="round" stroke-linecap="round" stroke-width="5"/>
  <path transform="translate(120,-54)" sodipodi:type="arc" id="path4006" sodipodi:cx="202.5" sodipodi:cy="137" sodipodi:rx="45.5" sodipodi:ry="9" d="m 248,137 c 0,4.97056 -20.37104,9 -45.5,9 -25.12896,0 -45.5,-4.02944 -45.5,-9 0,-4.97056 20.37104,-9 45.5,-9 25.12896,0 45.5,4.02944 45.5,9 z" opacity=".2" fill="#ffffff" stroke="#ffffff" stroke-linejoin="round" stroke-linecap="round" stroke-width="5"/>
  <path d="m 248,137 c 0,4.97056 -20.37104,9 -45.5,9 -25.12896,0 -45.5,-4.02944 -45.5,-9 0,-4.97056 20.37104,-9 45.5,-9 25.12896,0 45.5,4.02944 45.5,9 z" sodipodi:ry="9" sodipodi:rx="45.5" sodipodi:cy="137" sodipodi:cx="202.5" id="path4008" sodipodi:type="arc" transform="translate(140,-70)" opacity=".2" fill="#ffffff" stroke="#ffffff" stroke-linejoin="round" stroke-linecap="round" stroke-width="5"/>
  <path d="m 248,137 c 0,4.97056 -20.37104,9 -45.5,9 -25.12896,0 -45.5,-4.02944 -45.5,-9 0,-4.97056 20.37104,-9 45.5,-9 25.12896,0 45.5,4.02944 45.5,9 z" sodipodi:ry="9" sodipodi:rx="45.5" sodipodi:cy="137" sodipodi:cx="202.5" id="path4010" sodipodi:type="arc" transform="translate(36,-18)" opacity=".2" fill="#ffffff" stroke="#ffffff" stroke-linejoin="round" stroke-linecap="round" stroke-width="5"/>
  <path d="m 248,137 c 0,4.97056 -20.37104,9 -45.5,9 -25.12896,0 -45.5,-4.02944 -45.5,-9 0,-4.97056 20.37104,-9 45.5,-9 25.12896,0 45.5,4.02944 45.5,9 z" sodipodi:ry="9" sodipodi:rx="45.5" sodipodi:cy="137" sodipodi:cx="202.5" id="path4012" sodipodi:type="arc" transform="translate(32,-6)" opacity=".2" fill="#ffffff" stroke="#ffffff" stroke-linejoin="round" stroke-linecap="round" stroke-width="5"/>
  <path transform="translate(52,-26)" sodipodi:type="arc" id="path4014" sodipodi:cx="202.5" sodipodi:cy="137" sodipodi:rx="45.5" sodipodi:ry="9" d="m 248,137 c 0,4.97056 -20.37104,9 -45.5,9 -25.12896,0 -45.5,-4.02944 -45.5,-9 0,-4.97056 20.37104,-9 45.5,-9 25.12896,0 45.5,4.02944 45.5,9 z" opacity=".2" fill="#ffffff" stroke="#ffffff" stroke-linejoin="round" stroke-linecap="round" stroke-width="5"/>
  <path d="m 248,137 c 0,4.97056 -20.37104,9 -45.5,9 -25.12896,0 -45.5,-4.02944 -45.5,-9 0,-4.97056 20.37104,-9 45.5,-9 25.12896,0 45.5,4.02944 45.5,9 z" sodipodi:ry="9" sodipodi:rx="45.5" sodipodi:cy="137" sodipodi:cx="202.5" id="path4016" sodipodi:type="arc" transform="translate(72,-46)" opacity=".2" fill="#ffffff" stroke="#ffffff" stroke-linejoin="round" stroke-linecap="round" stroke-width="5"/>
  <path transform="translate(92,-46)" sodipodi:type="arc" id="path4018" sodipodi:cx="202.5" sodipodi:cy="137" sodipodi:rx="45.5" sodipodi:ry="9" d="m 248,137 c 0,4.97056 -20.37104,9 -45.5,9 -25.12896,0 -45.5,-4.02944 -45.5,-9 0,-4.97056 20.37104,-9 45.5,-9 25.12896,0 45.5,4.02944 45.5,9 z" opacity=".2" fill="#ffffff" stroke="#ffffff" stroke-linejoin="round" stroke-linecap="round" stroke-width="5"/>
  <path d="m 248,137 c 0,4.97056 -20.37104,9 -45.5,9 -25.12896,0 -45.5,-4.02944 -45.5,-9 0,-4.97056 20.37104,-9 45.5,-9 25.12896,0 45.5,4.02944 45.5,9 z" sodipodi:ry="9" sodipodi:rx="45.5" sodipodi:cy="137" sodipodi:cx="202.5" id="path4020" sodipodi:type="arc" transform="translate(72,-36)" opacity=".2" fill="#ffffff" stroke="#ffffff" stroke-linejoin="round" stroke-linecap="round" stroke-width="5"/>
  <path transform="translate(112,-56)" sodipodi:type="arc" id="path4022" sodipodi:cx="202.5" sodipodi:cy="137" sodipodi:rx="45.5" sodipodi:ry="9" d="m 248,137 c 0,4.97056 -20.37104,9 -45.5,9 -25.12896,0 -45.5,-4.02944 -45.5,-9 0,-4.97056 20.37104,-9 45.5,-9 25.12896,0 45.5,4.02944 45.5,9 z" opacity=".2" fill="#ffffff" stroke="#ffffff" stroke-linejoin="round" stroke-linecap="round" stroke-width="5"/>
  <path d="m 248,137 c 0,4.97056 -20.37104,9 -45.5,9 -25.12896,0 -45.5,-4.02944 -45.5,-9 0,-4.97056 20.37104,-9 45.5,-9 25.12896,0 45.5,4.02944 45.5,9 z" sodipodi:ry="9" sodipodi:rx="45.5" sodipodi:cy="137" sodipodi:cx="202.5" id="path4024" sodipodi:type="arc" transform="translate(72,-64)" opacity=".2" fill="#ffffff" stroke="#ffffff" stroke-linejoin="round" stroke-linecap="round" stroke-width="5"/>
  <path transform="translate(52,-74)" sodipodi:type="arc" id="path4026" sodipodi:cx="202.5" sodipodi:cy="137" sodipodi:rx="45.5" sodipodi:ry="9" d="m 248,137 c 0,4.97056 -20.37104,9 -45.5,9 -25.12896,0 -45.5,-4.02944 -45.5,-9 0,-4.97056 20.37104,-9 45.5,-9 25.12896,0 45.5,4.02944 45.5,9 z" opacity=".2" fill="#ffffff" stroke="#ffffff" stroke-linejoin="round" stroke-linecap="round" stroke-width="5"/>
  <path d="m 248,137 c 0,4.97056 -20.37104,9 -45.5,9 -25.12896,0 -45.5,-4.02944 -45.5,-9 0,-4.97056 20.37104,-9 45.5,-9 25.12896,0 45.5,4.02944 45.5,9 z" sodipodi:ry="9" sodipodi:rx="45.5" sodipodi:cy="137" sodipodi:cx="202.5" id="path4028" sodipodi:type="arc" transform="translate(92,-74)" opacity=".2" fill="#ffffff" stroke="#ffffff" stroke-linejoin="round" stroke-linecap="round" stroke-width="5"/>
  <path transform="translate(152,-74)" sodipodi:type="arc" id="path4030" sodipodi:cx="202.5" sodipodi:cy="137" sodipodi:rx="45.5" sodipodi:ry="9" d="m 248,137 c 0,4.97056 -20.37104,9 -45.5,9 -25.12896,0 -45.5,-4.02944 -45.5,-9 0,-4.97056 20.37104,-9 45.5,-9 25.12896,0 45.5,4.02944 45.5,9 z" opacity=".2" fill="#ffffff" stroke="#ffffff" stroke-linejoin="round" stroke-linecap="round" stroke-width="5"/>
  <path d="m 248,137 c 0,4.97056 -20.37104,9 -45.5,9 -25.12896,0 -45.5,-4.02944 -45.5,-9 0,-4.97056 20.37104,-9 45.5,-9 25.12896,0 45.5,4.02944 45.5,9 z" sodipodi:ry="9" sodipodi:rx="45.5" sodipodi:cy="137" sodipodi:cx="202.5" id="path4032" sodipodi:type="arc" transform="translate(132,-62)" opacity=".2" fill="#ffffff" stroke="#ffffff" stroke-linejoin="round" stroke-linecap="round" stroke-width="5"/>
  <path transform="translate(132,-42)" sodipodi:type="arc" id="path4034" sodipodi:cx="202.5" sodipodi:cy="137" sodipodi:rx="45.5" sodipodi:ry="9" d="m 248,137 c 0,4.97056 -20.37104,9 -45.5,9 -25.12896,0 -45.5,-4.02944 -45.5,-9 0,-4.97056 20.37104,-9 45.5,-9 25.12896,0 45.5,4.02944 45.5,9 z" opacity=".2" fill="#ffffff" stroke="#ffffff" stroke-linejoin="round" stroke-linecap="round" stroke-width="5"/>
  <path d="m 248,137 c 0,4.97056 -20.37104,9 -45.5,9 -25.12896,0 -45.5,-4.02944 -45.5,-9 0,-4.97056 20.37104,-9 45.5,-9 25.12896,0 45.5,4.02944 45.5,9 z" sodipodi:ry="9" sodipodi:rx="45.5" sodipodi:cy="137" sodipodi:cx="202.5" id="path4036" sodipodi:type="arc" transform="translate(142,-54)" opacity=".2" fill="#ffffff" stroke="#ffffff" stroke-linejoin="round" stroke-linecap="round" stroke-width="5"/>
  <path transform="translate(162,-70)" sodipodi:type="arc" id="path4038" sodipodi:cx="202.5" sodipodi:cy="137" sodipodi:rx="45.5" sodipodi:ry="9" d="m 248,137 c 0,4.97056 -20.37104,9 -45.5,9 -25.12896,0 -45.5,-4.02944 -45.5,-9 0,-4.97056 20.37104,-9 45.5,-9 25.12896,0 45.5,4.02944 45.5,9 z" opacity=".2" fill="#ffffff" stroke="#ffffff" stroke-linejoin="round" stroke-linecap="round" stroke-width="5"/>
  <path transform="translate(58,-18)" sodipodi:type="arc" id="path4040" sodipodi:cx="202.5" sodipodi:cy="137" sodipodi:rx="45.5" sodipodi:ry="9" d="m 248,137 c 0,4.97056 -20.37104,9 -45.5,9 -25.12896,0 -45.5,-4.02944 -45.5,-9 0,-4.97056 20.37104,-9 45.5,-9 25.12896,0 45.5,4.02944 45.5,9 z" opacity=".2" fill="#ffffff" stroke="#ffffff" stroke-linejoin="round" stroke-linecap="round" stroke-width="5"/>
  <path transform="translate(52,-16)" sodipodi:type="arc" id="path4042" sodipodi:cx="202.5" sodipodi:cy="137" sodipodi:rx="45.5" sodipodi:ry="9" d="m 248,137 c 0,4.97056 -20.37104,9 -45.5,9 -25.12896,0 -45.5,-4.02944 -45.5,-9 0,-4.97056 20.37104,-9 45.5,-9 25.12896,0 45.5,4.02944 45.5,9 z" opacity=".2" fill="#ffffff" stroke="#ffffff" stroke-linejoin="round" stroke-linecap="round" stroke-width="5"/>
  <path d="m 248,137 c 0,4.97056 -20.37104,9 -45.5,9 -25.12896,0 -45.5,-4.02944 -45.5,-9 0,-4.97056 20.37104,-9 45.5,-9 25.12896,0 45.5,4.02944 45.5,9 z" sodipodi:ry="9" sodipodi:rx="45.5" sodipodi:cy="137" sodipodi:cx="202.5" id="path4044" sodipodi:type="arc" transform="translate(72,-36)" opacity=".2" fill="#ffffff" stroke="#ffffff" stroke-linejoin="round" stroke-linecap="round" stroke-width="5"/>
  <path transform="translate(92,-56)" sodipodi:type="arc" id="path4046" sodipodi:cx="202.5" sodipodi:cy="137" sodipodi:rx="45.5" sodipodi:ry="9" d="m 248,137 c 0,4.97056 -20.37104,9 -45.5,9 -25.12896,0 -45.5,-4.02944 -45.5,-9 0,-4.97056 20.37104,-9 45.5,-9 25.12896,0 45.5,4.02944 45.5,9 z" opacity=".2" fill="#ffffff" stroke="#ffffff" stroke-linejoin="round" stroke-linecap="round" stroke-width="5"/>
  <path d="m 248,137 c 0,4.97056 -20.37104,9 -45.5,9 -25.12896,0 -45.5,-4.02944 -45.5,-9 0,-4.97056 20.37104,-9 45.5,-9 25.12896,0 45.5,4.02944 45.5,9 z" sodipodi:ry="9" sodipodi:rx="45.5" sodipodi:cy="137" sodipodi:cx="202.5" id="path4048" sodipodi:type="arc" transform="translate(112,-56)" opacity=".2" fill="#ffffff" stroke="#ffffff" stroke-linejoin="round" stroke-linecap="round" stroke-width="5"/>
  <path transform="translate(92,-46)" sodipodi:type="arc" id="path4050" sodipodi:cx="202.5" sodipodi:cy="137" sodipodi:rx="45.5" sodipodi:ry="9" d="m 248,137 c 0,4.97056 -20.37104,9 -45.5,9 -25.12896,0 -45.5,-4.02944 -45.5,-9 0,-4.97056 20.37104,-9 45.5,-9 25.12896,0 45.5,4.02944 45.5,9 z" opacity=".2" fill="#ffffff" stroke="#ffffff" stroke-linejoin="round" stroke-linecap="round" stroke-width="5"/>
  <path d="m 248,137 c 0,4.97056 -20.37104,9 -45.5,9 -25.12896,0 -45.5,-4.02944 -45.5,-9 0,-4.97056 20.37104,-9 45.5,-9 25.12896,0 45.5,4.02944 45.5,9 z" sodipodi:ry="9" sodipodi:rx="45.5" sodipodi:cy="137" sodipodi:cx="202.5" id="path4052" sodipodi:type="arc" transform="translate(132,-66)" opacity=".2" fill="#ffffff" stroke="#ffffff" stroke-linejoin="round" stroke-linecap="round" stroke-width="5"/>
  <path transform="translate(92,-74)" sodipodi:type="arc" id="path4054" sodipodi:cx="202.5" sodipodi:cy="137" sodipodi:rx="45.5" sodipodi:ry="9" d="m 248,137 c 0,4.97056 -20.37104,9 -45.5,9 -25.12896,0 -45.5,-4.02944 -45.5,-9 0,-4.97056 20.37104,-9 45.5,-9 25.12896,0 45.5,4.02944 45.5,9 z" opacity=".2" fill="#ffffff" stroke="#ffffff" stroke-linejoin="round" stroke-linecap="round" stroke-width="5"/>
  <path d="m 248,137 c 0,4.97056 -20.37104,9 -45.5,9 -25.12896,0 -45.5,-4.02944 -45.5,-9 0,-4.97056 20.37104,-9 45.5,-9 25.12896,0 45.5,4.02944 45.5,9 z" sodipodi:ry="9" sodipodi:rx="45.5" sodipodi:cy="137" sodipodi:cx="202.5" id="path4056" sodipodi:type="arc" transform="translate(72,-84)" opacity=".2" fill="#ffffff" stroke="#ffffff" stroke-linejoin="round" stroke-linecap="round" stroke-width="5"/>
  <path transform="translate(112,-84)" sodipodi:type="arc" id="path4058" sodipodi:cx="202.5" sodipodi:cy="137" sodipodi:rx="45.5" sodipodi:ry="9" d="m 248,137 c 0,4.97056 -20.37104,9 -45.5,9 -25.12896,0 -45.5,-4.02944 -45.5,-9 0,-4.97056 20.37104,-9 45.5,-9 25.12896,0 45.5,4.02944 45.5,9 z" opacity=".2" fill="#ffffff" stroke="#ffffff" stroke-linejoin="round" stroke-linecap="round" stroke-width="5"/>
  <path d="m 248,137 c 0,4.97056 -20.37104,9 -45.5,9 -25.12896,0 -45.5,-4.02944 -45.5,-9 0,-4.97056 20.37104,-9 45.5,-9 25.12896,0 45.5,4.02944 45.5,9 z" sodipodi:ry="9" sodipodi:rx="45.5" sodipodi:cy="137" sodipodi:cx="202.5" id="path4060" sodipodi:type="arc" transform="translate(172,-84)" opacity=".2" fill="#ffffff" stroke="#ffffff" stroke-linejoin="round" stroke-linecap="round" stroke-width="5"/>
  <path transform="translate(152,-72)" sodipodi:type="arc" id="path4062" sodipodi:cx="202.5" sodipodi:cy="137" sodipodi:rx="45.5" sodipodi:ry="9" d="m 248,137 c 0,4.97056 -20.37104,9 -45.5,9 -25.12896,0 -45.5,-4.02944 -45.5,-9 0,-4.97056 20.37104,-9 45.5,-9 25.12896,0 45.5,4.02944 45.5,9 z" opacity=".2" fill="#ffffff" stroke="#ffffff" stroke-linejoin="round" stroke-linecap="round" stroke-width="5"/>
  <path d="m 248,137 c 0,4.97056 -20.37104,9 -45.5,9 -25.12896,0 -45.5,-4.02944 -45.5,-9 0,-4.97056 20.37104,-9 45.5,-9 25.12896,0 45.5,4.02944 45.5,9 z" sodipodi:ry="9" sodipodi:rx="45.5" sodipodi:cy="137" sodipodi:cx="202.5" id="path4064" sodipodi:type="arc" transform="translate(152,-52)" opacity=".2" fill="#ffffff" stroke="#ffffff" stroke-linejoin="round" stroke-linecap="round" stroke-width="5"/>
  <path transform="translate(162,-64)" sodipodi:type="arc" id="path4066" sodipodi:cx="202.5" sodipodi:cy="137" sodipodi:rx="45.5" sodipodi:ry="9" d="m 248,137 c 0,4.97056 -20.37104,9 -45.5,9 -25.12896,0 -45.5,-4.02944 -45.5,-9 0,-4.97056 20.37104,-9 45.5,-9 25.12896,0 45.5,4.02944 45.5,9 z" opacity=".2" fill="#ffffff" stroke="#ffffff" stroke-linejoin="round" stroke-linecap="round" stroke-width="5"/>
  <path d="m 248,137 c 0,4.97056 -20.37104,9 -45.5,9 -25.12896,0 -45.5,-4.02944 -45.5,-9 0,-4.97056 20.37104,-9 45.5,-9 25.12896,0 45.5,4.02944 45.5,9 z" sodipodi:ry="9" sodipodi:rx="45.5" sodipodi:cy="137" sodipodi:cx="202.5" id="path4068" sodipodi:type="arc" transform="translate(182,-80)" opacity=".2" fill="#ffffff" stroke="#ffffff" stroke-linejoin="round" stroke-linecap="round" stroke-width="5"/>
  <path d="m 248,137 c 0,4.97056 -20.37104,9 -45.5,9 -25.12896,0 -45.5,-4.02944 -45.5,-9 0,-4.97056 20.37104,-9 45.5,-9 25.12896,0 45.5,4.02944 45.5,9 z" sodipodi:ry="9" sodipodi:rx="45.5" sodipodi:cy="137" sodipodi:cx="202.5" id="path4070" sodipodi:type="arc" transform="translate(78,-28)" opacity=".2" fill="#ffffff" stroke="#ffffff" stroke-linejoin="round" stroke-linecap="round" stroke-width="5"/>
 </g>
</svg>
