<?xml version="1.0" encoding="UTF-8" standalone="no"?>
<svg xmlns="http://www.w3.org/2000/svg" xmlns:sodipodi="http://sodipodi.sourceforge.net/DTD/sodipodi-0.dtd" xmlns:inkscape="http://www.inkscape.org/namespaces/inkscape" version="1.0" width="580" height="580">
 <metadata id="metadata2975"/>
 <defs id="defs4">
  <symbol viewBox="244.5 110 489 219.9" id="symbol-university">
   <path id="path4460" d="M79,43l57,119c0,0,21-96,104-96s124,106,124,106l43-133l82-17L0,17L79,43z"/>
   <path id="path4462" d="M94,176l-21,39" stroke-width="20" stroke="#000000" fill="none"/>
   <path id="path4464" d="M300,19c0,10.5-22.6,19-50.5,19S199,29.5,199,19s22.6-19,50.5-19S300,8.5,300,19z"/>
   <path id="path4466" d="M112,216l-16-38L64,88c0,0-9-8-4-35s16-24,16-24" stroke-width="20" stroke="#000000" ill="none"/>
  </symbol>
  <marker viewBox="0 0 10 10" refY="5" refX="10" orient="auto" markerWidth="4" markerUnits="strokeWidth" markerHeight="3" id="ArrowStart">
   <path id="path3634" d="M 10 0 L 0 5 L 10 10 z"/>
  </marker>
  <marker viewBox="0 0 10 10" refY="5" orient="auto" markerWidth="4" markerUnits="strokeWidth" markerHeight="3" id="ArrowEnd">
   <path id="path3631" d="M 0 0 L 10 5 L 0 10 z"/>
  </marker>
  <marker viewBox="0 0 10 10" refY="5" refX="10" orient="auto" markerWidth="4" markerUnits="strokeWidth" markerHeight="3" id="marker2611">
   <path id="path1325" d="M 10 0 L 0 5 L 10 10 z"/>
  </marker>
  <marker viewBox="0 0 10 10" refY="5" orient="auto" markerWidth="4" markerUnits="strokeWidth" markerHeight="3" id="marker2608">
   <path id="path1322" d="M 0 0 L 10 5 L 0 10 z"/>
  </marker>
  <clipPath id="clipoutline1">
   <path d="m 22.42,17.2 12.96,12.95 -2.5,8.78 -8.78,2.5 -12.96,-12.96 -5.86,5.86 14.89,21.46 17.56,-3.34 61.63,65.62 c 9.44,9.51 22.17,-4.75 13.34,-12.87 L 46.85,42.92 50.86,25.16 28.72,10.89 22.42,17.2 z m 81.06,91.97 c 1.68,-1.68 4.4,-1.68 6.08,0 1.68,1.68 1.68,4.4 0,6.08 -1.68,1.67 -4.4,1.67 -6.08,0 -1.68,-1.68 -1.68,-4.4 0,-6.08 z" id="outline1"/>
  </clipPath>
 </defs>
 <g id="g1327">
  <path d="M 66.275,1.768 C 24.94,1.768 1.704,23.139 1.704,66.804 L 1.704,516.927 C 1.704,557.771 22.599,579.156 63.896,579.156 L 515.92,579.156 C 557.227,579.156 578.149,558.841 578.149,516.927 L 578.149,66.804 C 578.149,24.203 557.227,1.768 514.628,1.768 C 514.624,1.768 66.133,1.625 66.275,1.768 z" id="path1329" fill="#39AC39" stroke="#eeeeee" stroke-width="3.408"/>
 </g>
 <path d="M 288.875 46.5 A 15.394957 15.394957 0 0 0 274.875 56.09375 L 235.28125 149.8125 L 268.71875 149.8125 L 290.65625 97.875 L 312.65625 149.8125 L 346.09375 149.8125 L 306.375 56.09375 A 15.394957 15.394957 0 0 0 290.5625 46.59375 A 15.394957 15.394957 0 0 0 288.875 46.5 z M 127.96875 423.8125 L 95.3125 502.8125 A 15.394957 15.394957 0 1 0 123.75 514.5625 L 161.25 423.8125 L 127.96875 423.8125 z M 418 423.8125 L 424.09375 433.6875 L 457.46875 514.5625 A 15.399125 15.399125 0 1 0 485.9375 502.8125 L 453.28125 423.8125 L 418 423.8125 z " id="path3526" opacity=".75" color="#000000" stroke-width="30.787" fill="#ffffff"/>
 <path d="m 75.589915,152.52897 0,268.56706 429.070175,0 0,-268.56706 -429.070175,0 z m 93.024425,67.35618 c 1.69835,0.0412 3.34729,0.99707 4.22699,2.45043 l 15.65211,25.88266 0.24505,0.36756 c 4.78146,6.64604 7.56875,13.56155 11.3026,17.64309 89.82523,-0.87913 179.62795,-1.76877 269.45533,-2.63421 0.0837,-0.005 0.16154,0.004 0.24505,0 16.92664,-0.82745 30.13192,14.31025 29.74208,30.44659 l 0.0306,0 c 0.005,0.0932 -0.004,0.18265 0,0.27567 -0.002,0.0718 0.003,0.14266 0,0.21441 l -0.0306,0 c 0.57941,16.08438 -12.60726,30.50197 -29.03758,30.50785 -0.0715,0.002 -0.14296,0.002 -0.21442,0 -65.13349,-2.59913 -130.20371,-6.36323 -195.23795,-9.40353 -0.0102,-3.8e-4 -0.0204,4e-4 -0.0306,0 -25.28242,-0.95992 -50.58417,-3.0031 -75.3507,-3.33871 -10.12741,12.78879 -19.26749,27.15782 -29.37452,40.89154 -1.13787,1.56225 -3.22069,2.37293 -5.11527,1.99098 L 91.425814,340.44627 c -2.310209,-0.46827 -4.120652,-2.72791 -4.073839,-5.08464 L 87.71954,314.3492 c 0.04789,-2.64171 2.473173,-5.00892 5.115271,-4.99275 17.206489,0.025 34.423389,1.04105 50.938299,0.55135 4.28276,-6.4769 8.32938,-13.39659 11.7008,-20.24668 -3.0979,-6.98411 -6.98248,-14.08994 -11.02693,-20.67549 -16.99259,-1.05278 -34.57622,-0.64877 -52.194146,-1.22522 -2.641712,-0.0793 -4.980272,-2.53407 -4.931489,-5.17653 l 0.367564,-23.0034 c 0.04312,-2.3123 1.863041,-4.46924 4.1351,-4.90086 l 75.687631,-14.70258 c 0.36278,-0.0706 0.73325,-0.10169 1.1027,-0.0919 z m 302.26045,64.84449 c -0.22207,-0.002 -0.44805,0.0122 -0.67387,0.0306 -0.13226,0.0154 -0.26512,0.0257 -0.39819,0.0306 -6.21112,0.0169 -11.03765,7.03242 -8.91344,12.86475 0.0345,0.11122 0.0651,0.22362 0.0919,0.33693 2.00971,6.95647 13.27682,8.55131 17.12238,2.38917 0.0946,-0.1481 0.19688,-0.2913 0.3063,-0.42882 4.31272,-5.5182 -0.65092,-15.16322 -7.53507,-15.22329 z" id="rect3530" fill="#ffffff"/>
 <rect y="149.82" x="73.26" height="273.99" width="437.75" id="rect3544" fill="none" stroke="#ffffff" stroke-linejoin="round" stroke-linecap="round" stroke-width="20.525"/>
</svg>
