<?xml version="1.0" encoding="UTF-8" standalone="no"?>
<svg xmlns="http://www.w3.org/2000/svg" xmlns:sodipodi="http://sodipodi.sourceforge.net/DTD/sodipodi-0.dtd" xmlns:inkscape="http://www.inkscape.org/namespaces/inkscape" version="1.0" width="580" height="580">
 <defs id="defs22">
  <marker viewBox="0 0 10 10" refY="5" refX="10" orient="auto" markerWidth="4" markerUnits="strokeWidth" markerHeight="3" id="ArrowStart">
   <path id="path3568" d="M 10 0 L 0 5 L 10 10 z"/>
  </marker>
  <marker viewBox="0 0 10 10" refY="5" orient="auto" markerWidth="4" markerUnits="strokeWidth" markerHeight="3" id="ArrowEnd">
   <path id="path3565" d="M 0 0 L 10 5 L 0 10 z"/>
  </marker>
  <marker viewBox="0 0 10 10" refY="5" refX="10" orient="auto" markerWidth="4" markerUnits="strokeWidth" markerHeight="3" id="marker2959">
   <path id="path2626" d="M 10 0 L 0 5 L 10 10 z"/>
  </marker>
  <marker viewBox="0 0 10 10" refY="5" orient="auto" markerWidth="4" markerUnits="strokeWidth" markerHeight="3" id="marker2956">
   <path id="path2623" d="M 0 0 L 10 5 L 0 10 z"/>
  </marker>
 </defs>
 <metadata id="metadata10"/>
 <g id="g1327">
  <path d="M 66.275,1.768 C 24.94,1.768 1.704,23.139 1.704,66.804 L 1.704,516.927 C 1.704,557.771 22.598,579.156 63.896,579.156 L 515.92,579.156 C 557.227,579.156 578.149,558.84 578.149,516.927 L 578.149,66.804 C 578.149,24.203 557.227,1.768 514.627,1.768 C 514.624,1.768 66.133,1.625 66.275,1.768 z" id="path1329" fill="#39AC39" stroke="#eeeeee" stroke-width="3.408"/>
 </g>
 <g id="g2632" transform="matrix(1.2138666,0,0,1.2138666,-90.422903,-76.181271)">
  <g id="g2634">
   <path d="M 307.999,210.063 C 341.012,210.063 367.776,183.298 367.776,150.285 C 367.776,117.271 341.012,90.5059 307.999,90.5059 C 274.985,90.5059 248.223,117.271 248.223,150.285 C 248.223,183.298 274.985,210.063 307.999,210.063 z" id="path2636" fill="#ffffff"/>
  </g>
  <path d="M 307.901,335.023 L 244.712,335.023 L 244.712,289.396 L 196.387,338.042 C 174.555,359.874 144.963,331.88 166.831,310.009 L 246.847,229.84 C 253.337,223.396 260.44,219.296 271.712,219.296 L 307.901,219.296 L 307.961,219.296 L 343.462,219.296 C 354.734,219.296 362.337,223.271 369.016,229.84 L 449.845,310.795 C 470.664,331.614 440.273,359.874 420.304,338.841 L 370.712,289.146 L 370.712,335.023 L 307.961,335.023 L 307.901,335.023 z" id="path2640" fill="#ffffff"/>
  <path d="M 370.451,358.686 L 322.962,406.179 L 357.828,440.979 L 322.102,476.705 C 301.017,497.792 330.105,527.95 351.91,506.145 L 408.411,447.396 C 420.537,435.022 423.89,412.166 410.89,399.166 C 410.846,399.122 370.451,358.686 370.451,358.686 z" id="path2642" fill="#ffffff"/>
  <path d="M 244.722,358.686 L 292.212,406.179 L 257.346,440.979 L 293.072,476.705 C 314.157,497.792 285.069,527.95 263.264,506.145 L 206.763,447.396 C 194.637,435.022 191.284,412.166 204.284,399.166 C 204.328,399.122 244.722,358.686 244.722,358.686 z" id="path2644" fill="#ffffff"/>
 </g>
</svg>
