<?xml version="1.0" encoding="UTF-8" standalone="no"?>
<svg xmlns="http://www.w3.org/2000/svg" xmlns:sodipodi="http://sodipodi.sourceforge.net/DTD/sodipodi-0.dtd" xmlns:inkscape="http://www.inkscape.org/namespaces/inkscape" version="1.0" width="580" height="580">
 <metadata id="metadata2975"/>
 <defs id="defs4">
  <symbol viewBox="244.5 110 489 219.9" id="symbol-university">
   <path id="path4460" d="M79,43l57,119c0,0,21-96,104-96s124,106,124,106l43-133l82-17L0,17L79,43z"/>
   <path id="path4462" d="M94,176l-21,39" stroke-width="20" stroke="#000000" fill="none"/>
   <path id="path4464" d="M300,19c0,10.5-22.6,19-50.5,19S199,29.5,199,19s22.6-19,50.5-19S300,8.5,300,19z"/>
   <path id="path4466" d="M112,216l-16-38L64,88c0,0-9-8-4-35s16-24,16-24" stroke-width="20" stroke="#000000" ill="none"/>
  </symbol>
  <marker viewBox="0 0 10 10" refY="5" refX="10" orient="auto" markerWidth="4" markerUnits="strokeWidth" markerHeight="3" id="ArrowStart">
   <path id="path3634" d="M 10 0 L 0 5 L 10 10 z"/>
  </marker>
  <marker viewBox="0 0 10 10" refY="5" orient="auto" markerWidth="4" markerUnits="strokeWidth" markerHeight="3" id="ArrowEnd">
   <path id="path3631" d="M 0 0 L 10 5 L 0 10 z"/>
  </marker>
  <marker viewBox="0 0 10 10" refY="5" refX="10" orient="auto" markerWidth="4" markerUnits="strokeWidth" markerHeight="3" id="marker2611">
   <path id="path1325" d="M 10 0 L 0 5 L 10 10 z"/>
  </marker>
  <marker viewBox="0 0 10 10" refY="5" orient="auto" markerWidth="4" markerUnits="strokeWidth" markerHeight="3" id="marker2608">
   <path id="path1322" d="M 0 0 L 10 5 L 0 10 z"/>
  </marker>
 </defs>
 <g id="g1327">
  <path d="M 66.275,1.768 C 24.94,1.768 1.704,23.139 1.704,66.804 L 1.704,516.927 C 1.704,557.771 22.599,579.156 63.896,579.156 L 515.92,579.156 C 557.227,579.156 578.149,558.841 578.149,516.927 L 578.149,66.804 C 578.149,24.203 557.227,1.768 514.628,1.768 C 514.624,1.768 66.133,1.625 66.275,1.768 z" id="path1329" fill="#39AC39" stroke="#eeeeee" stroke-width="3.408"/>
 </g>
 <path d="M 288.875 46.5 A 15.394957 15.394957 0 0 0 274.875 56.09375 L 235.28125 149.8125 L 268.71875 149.8125 L 290.65625 97.875 L 312.65625 149.8125 L 346.09375 149.8125 L 306.375 56.09375 A 15.394957 15.394957 0 0 0 290.5625 46.59375 A 15.394957 15.394957 0 0 0 288.875 46.5 z M 127.96875 423.8125 L 95.3125 502.8125 A 15.394957 15.394957 0 1 0 123.75 514.5625 L 161.25 423.8125 L 127.96875 423.8125 z M 418 423.8125 L 424.09375 433.6875 L 457.46875 514.5625 A 15.399125 15.399125 0 1 0 485.9375 502.8125 L 453.28125 423.8125 L 418 423.8125 z " id="path3526" opacity=".75" color="#000000" stroke-width="30.787" fill="#ffffff"/>
 <path d="m 73.167106,152.23698 -0.413796,263.99105 436.52956,1.47975 1.12888,-266.40515 -437.244644,0.93435 z m 24.192414,59.39776 40.28404,0 c 6.70504,12.19548 13.43144,24.37922 20.12233,36.58248 7.69725,-12.19907 15.41111,-24.38766 23.11509,-36.58248 l 40.52031,0 c -13.8083,21.30392 -27.61951,42.60595 -41.42601,63.91104 14.93851,23.80192 29.81061,47.64546 44.77317,71.43231 l -39.96902,0 c -8.76273,-14.33012 -17.74972,-28.52106 -26.46224,-42.88301 -8.528,14.31236 -17.08171,28.60953 -25.67468,42.88301 l -38.866419,0 c 14.010939,-23.40841 28.083099,-46.78086 42.056069,-70.21158 -9.6424,-16.41862 -19.37244,-32.8028 -29.06122,-49.18354 l -9.41142,-15.94823 z m 271.90744,0 37.13377,0 c 8.90513,26.3422 17.76103,52.70109 26.69852,79.03233 8.37096,-26.34522 16.7683,-52.68206 25.12338,-79.03233 l 37.56693,0 -38.82704,107.89665 c -7.88329,16.10376 -9.0995,34.43583 -15.86947,50.91619 -8.50945,22.51405 -35.94795,33.9087 -58.59497,26.22598 -1.90194,-7.70081 -1.70849,-17.25061 -2.83524,-25.6353 -3.01157,-8.18267 3.06352,-5.21995 8.19069,-4.371 11.30327,2.73428 27.82621,-1.42202 29.53376,-14.76688 -12.59393,-44.50359 -30.28259,-87.67734 -45.12758,-131.60241 l -2.99275,-8.66323 z m -90.49143,5.04043 33.23532,0 0,45.24571 45.28509,0 0,32.80215 -45.28509,0 0,45.87577 -33.23532,0 0,-45.87577 -45.28509,0 0,-32.80215 23.86327,0 c 6.50899,-1.47169 19.03546,3.07409 21.42182,-2.52022 l 0,-42.72549 z" id="rect3530" sodipodi:nodetypes="cccccccccccccccccccccccccccccccccccccccccccccc" fill="#ffffff"/>
 <rect y="149.82" x="73.26" height="273.99" width="437.75" id="rect3544" fill="none" stroke="#ffffff" stroke-linejoin="round" stroke-linecap="round" stroke-width="20.525"/>
</svg>
