<?xml version="1.0" encoding="UTF-8" standalone="no"?>
<svg xmlns="http://www.w3.org/2000/svg" version="1.0" width="580" height="580">
 <metadata id="metadata2975"/>
 <path d="M 153.80078 34.5 C 149.50078 34.4 146.10078 37.799609 146.05078 41.849609 L 146 140.59961 C 125.4 149.59961 93.999219 165.10078 95.199219 189.30078 L 95.199219 512.30078 C 98.199219 543.10078 150.19922 545.10078 172.19922 545.30078 C 197.69922 543.70078 252.19922 543.40078 252.19922 512.30078 L 252.19922 188.30078 C 251.29922 165.90078 214.29922 147.80078 198.19922 141.30078 L 198.19922 42.300781 C 198.19922 38.100781 194.79961 34.699609 190.59961 34.599609 L 153.80078 34.5 z M 419.98242 288.07812 C 393.15161 287.90894 368.4375 291.28789 351 295.90039 C 351.22026 296.10329 351.45478 296.30123 351.6875 296.5 C 351.49008 296.43125 351.29746 296.3702 351.09961 296.30078 C 347.99961 336.30078 371.80039 401.30039 404.90039 413.15039 L 405 501 C 375 502.9 353.09961 512.30078 353.09961 523.30078 C 353.09961 535.80078 381.09961 546 416.09961 546 C 450.89961 546 479.09961 536.00078 479.09961 523.30078 C 479.09961 512.50078 457.69961 503.30078 428.09961 501.30078 L 428.09961 414.30078 C 456.99961 402.80078 486.09961 333.30078 484.09961 296.30078 C 483.381 296.53511 482.65415 296.75523 481.93359 296.98633 C 482.62403 296.65837 483.32962 296.34035 484 296 C 463 290.4875 440.85083 288.20972 419.98242 288.07812 z " id="path4139" mix-blend-mode="normal" solid-color="#000000" opacity="0.8" color-interpolation-filters="linearRGB" filter-gaussianBlur-deviation="0" color="#000000" image-rendering="auto" color-rendering="auto" stroke-width="64" isolation="auto" color-interpolation="sRGB" solid-opacity="1" fill="none" stroke-linejoin="round" filter-blend-mode="normal" stroke="#ffffff" shape-rendering="auto"/>
 <path d="m 351,295.9 c 20.3,18.7 94,19.9 133,0.1 -48,-12.6 -102,-8.3 -133,-0.1 z" id="path3840-8" opacity="0.8" fill="#ac39ac"/>
 <path white-space="normal" isolation="auto" mix-blend-mode="normal" d="m 146,140.6 c -20.6,9 -52,24.5 -50.8,48.7 l 0,323 c 3,30.8 55,32.8 77,33 25.5,-1.6 80,-1.9 80,-33 l 0,-324 c -0.9,-22.4 -37.9,-40.5 -54,-47 l 0,-99 c 0,-4.2 -3.4,-7.6 -7.6,-7.7 l -36.8,-0.1 c -4.3,-0.1 -7.7,3.3 -7.75,7.35 z" id="rect3771" fill="#ac39ac" color-rendering="auto" solid-opacity="1" color-interpolation-filters="linearRGB" shape-rendering="auto" image-rendering="auto" color-interpolation="sRGB" color="#000000" solid-color="#000000"/>
 <path white-space="normal" isolation="auto" mix-blend-mode="normal" d="m 405,501 c -30,1.9 -51.9,11.3 -51.9,22.3 0,12.5 28,22.7 63,22.7 34.8,0 63,-10 63,-22.7 0,-10.8 -21.4,-20 -51,-22 l 0,-87 c 28.9,-11.5 58,-81 56,-118 -36.8,12 -76,20 -133,0 -3.1,40 20.7,105 53.8,116.85 z" id="path3845" fill="#ac39ac" color-rendering="auto" solid-opacity="1" color-interpolation-filters="linearRGB" shape-rendering="auto" image-rendering="auto" color-interpolation="sRGB" color="#000000" solid-color="#000000"/>
</svg>
