<?xml version="1.0" encoding="UTF-8" standalone="no"?>
<svg xmlns="http://www.w3.org/2000/svg" version="1.0" width="580" height="580">
 <metadata id="metadata2975"/>
 <path id="path4139" d="M 107,155.9 C 47.7,206 37.8,300 78,365 c 40,73 125,113 206,113 74,-1 148,-29 196,-86 38,-44 58,-105 46,-162 -8,-65 -74,-114 -138,-109 -34,3 -66,16 -93,35 -25,-23 -60,-36 -94,-35 -34,0.4 -68,13.5 -94,34.9 z m 128,54 c -30.8,38 -55,81 -73.9,126 -11.3,29 28,58 51.7,36.7 18.2,-19.8 24.4,-48 39.9,-70 12.6,-17.8 26.5,-49 43,-55 28.4,32 51,69 66,109 15.5,26.6 61.9,14 61,-16.9 -3.1,-27 -18.4,-51 -31.4,-75 C 379,243 364,222 347,203 c 23.9,-13.4 54,-21.7 80,-7.2 20,9.7 33.7,30.4 34,52.6 7.5,59.8 -34.8,116 -86,142 C 306,424 214,414 158,359 124,327 110,272 134,230 c 13,-25 40,-42 68,-42 12.8,0.1 52,6.2 33,21.9 z" mix-blend-mode="normal" solid-color="#000000" opacity="0.8" color-interpolation-filters="linearRGB" filter-gaussianBlur-deviation="0" color="#000000" image-rendering="auto" color-rendering="auto" fill-rule="evenodd" stroke-width="64" isolation="auto" color-interpolation="sRGB" solid-opacity="1" fill="#ac39ac" stroke-linejoin="round" filter-blend-mode="normal" stroke="#ffffff" shape-rendering="auto"/>
 <path d="M 107,155.9 C 47.7,206 37.8,300 78,365 c 40,73 125,113 206,113 74,-1 148,-29 196,-86 38,-44 58,-105 46,-162 -8,-65 -74,-114 -138,-109 -34,3 -66,16 -93,35 -25,-23 -60,-36 -94,-35 -34,0.4 -68,13.5 -94,34.9 z m 128,54 c -30.8,38 -55,81 -73.9,126 -11.3,29 28,58 51.7,36.7 18.2,-19.8 24.4,-48 39.9,-70 12.6,-17.8 26.5,-49 43,-55 28.4,32 51,69 66,109 15.5,26.6 61.9,14 61,-16.9 -3.1,-27 -18.4,-51 -31.4,-75 C 379,243 364,222 347,203 c 23.9,-13.4 54,-21.7 80,-7.2 20,9.7 33.7,30.4 34,52.6 7.5,59.8 -34.8,116 -86,142 C 306,424 214,414 158,359 124,327 110,272 134,230 c 13,-25 40,-42 68,-42 12.8,0.1 52,6.2 33,21.9 z" id="path7165" fill="#ac39ac" fill-rule="evenodd" stroke-linecap="round" stroke-width="73"/>
 <path d="m400 140c11.6 2.3 16 42-.1 25C400 158 389 143 400 140m-160 13c19.9 12.8-37.8 21-22.3 1.4C225 152 233 154 240 153m-103 10c9-.5 38 9 19 15.7C150 178 120 173 137 163m196 6c17.4 10.3-30.7 36.6-19.4 11.9C321 178 325 171 333 169m152 13c19 11.8-34.4 21.7-24 2.9C468 182 477 184 485 182M103 225C122 235 69.9 259 85 236 92 233 96 227 103 225m254 18c19.3 10.7-36 27-21 6.3C343 248 350 244 357 243m-102 3c22.5 14.4-42.9 14.2-17.8.6C243 247 249 246 255 246m233 2c8 2.7 35 17.7 16.4 21.6C498 267 472 254 488 248m-116 57c8.7.1 38 8 19 14.8C384 319 354 315 372 305m-176 5c8.4 1.9 35 18.3 16.2 20.9C207 328 180 316 196 310m-92 1c18.7 14.4-39 19.6-22 1.9C89 312 97 312 104 311m383 14c18.8 16.5-42 30.9-14.2 8.3C477 330 481 326 487 325m-361 37c11.4 4.3 15.2 43-1.3 24.3C125 380 113 363 126 362m305 12c12.2 3.4 8.8 45.7-4.4 25.5C428 392 421 377 431 374m-250 42c7.4 3.6 34.8 3.2 21.7 15.6C196 432 161 426 181 416m193 10c19 11.9-34 21.6-24 2.7C357 426 366 428 374 426m-111 5c7.8 2.9 33.9 18.3 15.7 21.7C273 450 246 437 263 431" id="path4138" fill="#ffffff" fill-rule="evenodd" stroke-linecap="round" stroke-width="73"/>
</svg>
