<?xml version="1.0" encoding="UTF-8" standalone="no"?>
<svg xmlns="http://www.w3.org/2000/svg" version="1.0" width="580" height="580">
 <metadata id="metadata10"/>
 <path id="path4147" d="M 376 140 C 367 140 358 141 351 141 L 349 163 L 385 163 C 401 166 376 174 374 182 C 372 191 376 200 378 208 L 214 209 L 205 185 C 215 182 240 176 244 173 C 248 169 244 164 241 164 L 156 164 C 157 182 171 186 179 188 L 189 211 C 178 231 168 248 158 267 C 75 243 35.699219 305 34.699219 351 C 34.699219 401 75 441 125 441 C 171 441 210 405 215 360 L 236 360 C 239 364 243 368 248 370 L 239 391 L 222 391 C 213 392 216 403 222 404 L 258 403 C 268 402 265 391 258 391 L 248 391 L 256 372 C 279 374 288 357 285 345 L 397 269 C 398 272 399 276 400 279 C 379 295 366 321 366 349 C 366 399 406 439 456 439 C 506 439 546 399 546 349 C 543 292 498 245 422 266 C 412 242 400 205 399 191 C 401 181 415 180 418 168 C 416 144 396 140 376 140 z M 223 228 L 384 228 C 386 234 388 241 390 248 C 352 275 315 302 276 327 L 283 309 C 291 309 290 309 299 308 C 308 307 304 296 299 296 L 263 296 C 253 297 256 309 263 309 L 273 309 L 265 327 C 265 326 264 326 263 326 L 223 228 z M 200 235 L 240 334 C 239 335 237 337 236 339 L 214 339 C 211 313 197 291 177 277 L 200 235 z M 458 284 C 495 284 519 318 520 349 C 520 384 491 413 456 413 C 397 410 375 354 408 306 C 412 321 419 337 430 348 C 463 377 483 353 446 330 C 438 318 433 305 429 291 C 439 286 449 284 458 284 z M 123 287 C 130 287 138 288 146 290 L 117 344 C 113 351 118 359 126 359 L 189 359 C 185 391 158 415 125 415 C 89 415 61 386 61 351 C 60.9 316 84 287 123 287 z M 164 300 C 176 310 185 323 188 339 L 143 339 L 164 300 z " mix-blend-mode="normal" solid-color="#000000" opacity="0.8" color-interpolation-filters="linearRGB" filter-gaussianBlur-deviation="0" color="#000000" image-rendering="auto" color-rendering="auto" stroke-width="64" isolation="auto" color-interpolation="sRGB" solid-opacity="1" fill="none" stroke-linejoin="round" filter-blend-mode="normal" stroke="#ffffff" shape-rendering="auto"/>
 <path d="M 376 140 C 367 140 358 141 351 141 L 349 163 L 385 163 C 401 166 376 174 374 182 C 372 191 376 200 378 208 L 214 209 L 205 185 C 215 182 240 176 244 173 C 248 169 244 164 241 164 L 156 164 C 157 182 171 186 179 188 L 189 211 C 178 231 168 248 158 267 C 75 243 35.699219 305 34.699219 351 C 34.699219 401 75 441 125 441 C 171 441 210 405 215 360 L 236 360 C 239 364 243 368 248 370 L 239 391 L 222 391 C 213 392 216 403 222 404 L 258 403 C 268 402 265 391 258 391 L 248 391 L 256 372 C 279 374 288 357 285 345 L 397 269 C 398 272 399 276 400 279 C 379 295 366 321 366 349 C 366 399 406 439 456 439 C 506 439 546 399 546 349 C 543 292 498 245 422 266 C 412 242 400 205 399 191 C 401 181 415 180 418 168 C 416 144 396 140 376 140 z M 223 228 L 384 228 C 386 234 388 241 390 248 C 352 275 315 302 276 327 L 283 309 C 291 309 290 309 299 308 C 308 307 304 296 299 296 L 263 296 C 253 297 256 309 263 309 L 273 309 L 265 327 C 265 326 264 326 263 326 L 223 228 z M 200 235 L 240 334 C 239 335 237 337 236 339 L 214 339 C 211 313 197 291 177 277 L 200 235 z M 458 284 C 495 284 519 318 520 349 C 520 384 491 413 456 413 C 397 410 375 354 408 306 C 412 321 419 337 430 348 C 463 377 483 353 446 330 C 438 318 433 305 429 291 C 439 286 449 284 458 284 z M 123 287 C 130 287 138 288 146 290 L 117 344 C 113 351 118 359 126 359 L 189 359 C 185 391 158 415 125 415 C 89 415 61 386 61 351 C 60.9 316 84 287 123 287 z M 164 300 C 176 310 185 323 188 339 L 143 339 L 164 300 z " id="path4144" fill="#ac39ac"/>
</svg>
