<?xml version="1.0" encoding="UTF-8" standalone="no"?>
<svg xmlns="http://www.w3.org/2000/svg" version="1.0" width="580" height="580">
 <metadata id="metadata10"/>
 <path id="path4140" d="m 457.8,130.3 c -6.94963,6.11717 -11.28197,13.65281 -17.9,19.4 -0.6,0.6 -40.9,11 -40.9,11 -16.7,0 -44.7,9.1 -70.7,17.3 -29,9.2 -56.7,20 -85,25.5 -29.62626,5.20056 -61.68471,3.48898 -88,12.7 -21.484,6.98694 -36.21633,17.31191 -53,29.2 -9.505502,5.87934 -19.61059,12.31367 -27.3,18.8 -22.874126,16.93939 -31.01284,40.99693 -31.3,68.5 l 0,0.1 0,0.2 c 0.1,25 8.2,48.7 21,69.8 13,21 31,39.8 51,56 40.9,31.4 92,51.8 141,52 9.5,0 18.9,-0.8 28,-2.6 22.3803,-5.58108 43.35334,-29.14647 52.9,-46.2 16.26609,-26.59753 24.97463,-50.02583 29.6,-79.4 2.1,-14.4 4.1,-27.9 8.2,-38 10.93682,-25.24235 34.00537,-41.62692 48,-61.9 7,-10 15.2,-19 22.4,-30 6.3,-9.8 11.4,-21.9 12.5,-36.5 L 478,205.05 c 6.10027,-5.47056 15.90728,-4.81606 22.5,-5.35 15.21192,-2.7506 26.29614,-6.32491 34.2,-18.8 4.2212,-7.56556 5.06428,-15.85006 1.3,-23.3 -7.08036,-12.4997 -22.22771,-17.94202 -34,-21.7 -5.23663,-12.65014 -13.15142,-14.73244 -22.15,-16.25 -9.06799,0.14304 -16.48337,5.28027 -22.05,10.65 z m 21.7,2.6 c 4.4,-0.3 8.3,3.2 11,13.3 13.3,3 48.8,13.7 25.9,32 -14,11.4 -34.6,0.9 -49,15.8 l -26.3,12.6 c -3,0.4 -9,3 -15.1,4.2 -0.9,-6.2 -2.3,-12.2 -3.9,-18.2 -4.5,1.8 -10,3.4 -14.6,4.2 1.7,-8.4 3.6,-14.8 7.9,-21 l 28.8,-12.3 c 9.4,-4.1 24,-29.8 35,-30.6 z M 229.7,301.3 c 36.9149,27.65951 67.17676,73.72982 77.5,114.9 3.89522,19.15218 4.53861,40.49497 -2.6,57.5 -10.79991,20.8403 -29.25536,22.73742 -49.2,22.8 -44.5,-0.1 -94,-19.3 -132,-49 C 85,418 56,377 56,333 c 0,-14.3 3.1,-29 9.8,-43 17.521468,-23.01358 35.56555,-24.08307 57.1,-24.6 35.46574,3.53999 79.05373,17.68401 106.8,35.9 z M 168,338.6 c 7.13792,6.80786 13.80764,16.2447 14.1,25.3 -1.98563,11.37136 -8.88713,15.84682 -19,15.9 -15.82538,0.2563 -28.58537,-7.53777 -41.2,-16.5 -3.3,-2.9 -6.5,-8 -6.6,-14 0.33384,-6.86263 4.84875,-11.73317 10.3,-14.5 5.3,-2.6 11.5,-3.8 19,-3.8 7.5,0 16.6,1.9 23.4,7.6 z m -34.2,6.7 c -7.09011,2.05129 -4.6824,6.85146 -1.6,9.9 9.56447,5.67652 20.23845,11.55267 31,11.7 6.73073,-0.48095 5.2172,-7.05881 2.6,-11 -4.65045,-7.46091 -12.78077,-11.88547 -20.9,-12 -5,0 -8.4,0.6 -11.1,1.4 z" mix-blend-mode="normal" solid-color="#000000" opacity="0.8" color-interpolation-filters="linearRGB" filter-gaussianBlur-deviation="0" color="#000000" image-rendering="auto" color-rendering="auto" stroke-width="64" isolation="auto" color-interpolation="sRGB" solid-opacity="1" fill="none" stroke-linejoin="round" filter-blend-mode="normal" stroke="#ffffff" shape-rendering="auto"/>
 <path d="m67 399l43.9 50 56 33.4 61 17.9 51.9 3.1 20.4-12.4 13.6-22.9 9.9-74-52.6-98-86-35.9-72-7.4-33.4 12.4-23.5 22.3-8.7 35.9 5 43.9 14.2 32.8" id="path6439-1" fill="#ffffff" fill-rule="evenodd"/>
 <path d="m397 174l41-17.9 35-30 19 9.3 29.7 19.8 5 17.9-16.7 14.8-33.4 5.6-46 30.9-51.9-6.8 17.9-43" id="path6441-7" fill="#ffffff" fill-rule="evenodd"/>
 <path d="m 457.8,130.3 c -6.94963,6.11717 -11.28197,13.65281 -17.9,19.4 -0.6,0.6 -40.9,11 -40.9,11 -16.7,0 -44.7,9.1 -70.7,17.3 -29,9.2 -56.7,20 -85,25.5 -29.62626,5.20056 -61.68471,3.48898 -88,12.7 -21.484,6.98694 -36.21633,17.31191 -53,29.2 -9.505502,5.87934 -19.61059,12.31367 -27.3,18.8 -22.874126,16.93939 -31.01284,40.99693 -31.3,68.5 l 0,0.1 0,0.2 c 0.1,25 8.2,48.7 21,69.8 13,21 31,39.8 51,56 40.9,31.4 92,51.8 141,52 9.5,0 18.9,-0.8 28,-2.6 22.3803,-5.58108 43.35334,-29.14647 52.9,-46.2 16.26609,-26.59753 24.97463,-50.02583 29.6,-79.4 2.1,-14.4 4.1,-27.9 8.2,-38 10.93682,-25.24235 34.00537,-41.62692 48,-61.9 7,-10 15.2,-19 22.4,-30 6.3,-9.8 11.4,-21.9 12.5,-36.5 L 478,205.05 c 6.10027,-5.47056 15.90728,-4.81606 22.5,-5.35 15.21192,-2.7506 26.29614,-6.32491 34.2,-18.8 4.2212,-7.56556 5.06428,-15.85006 1.3,-23.3 -7.08036,-12.4997 -22.22771,-17.94202 -34,-21.7 -5.23663,-12.65014 -13.15142,-14.73244 -22.15,-16.25 -9.06799,0.14304 -16.48337,5.28027 -22.05,10.65 z m 21.7,2.6 c 4.4,-0.3 8.3,3.2 11,13.3 13.3,3 48.8,13.7 25.9,32 -14,11.4 -34.6,0.9 -49,15.8 l -26.3,12.6 c -3,0.4 -9,3 -15.1,4.2 -0.9,-6.2 -2.3,-12.2 -3.9,-18.2 -4.5,1.8 -10,3.4 -14.6,4.2 1.7,-8.4 3.6,-14.8 7.9,-21 l 28.8,-12.3 c 9.4,-4.1 24,-29.8 35,-30.6 z M 229.7,301.3 c 36.9149,27.65951 67.17676,73.72982 77.5,114.9 3.89522,19.15218 4.53861,40.49497 -2.6,57.5 -10.79991,20.8403 -29.25536,22.73742 -49.2,22.8 -44.5,-0.1 -94,-19.3 -132,-49 C 85,418 56,377 56,333 c 0,-14.3 3.1,-29 9.8,-43 17.521468,-23.01358 35.56555,-24.08307 57.1,-24.6 35.46574,3.53999 79.05373,17.68401 106.8,35.9 z M 168,338.6 c 7.13792,6.80786 13.80764,16.2447 14.1,25.3 -1.98563,11.37136 -8.88713,15.84682 -19,15.9 -15.82538,0.2563 -28.58537,-7.53777 -41.2,-16.5 -3.3,-2.9 -6.5,-8 -6.6,-14 0.33384,-6.86263 4.84875,-11.73317 10.3,-14.5 5.3,-2.6 11.5,-3.8 19,-3.8 7.5,0 16.6,1.9 23.4,7.6 z m -34.2,6.7 c -7.09011,2.05129 -4.6824,6.85146 -1.6,9.9 9.56447,5.67652 20.23845,11.55267 31,11.7 6.73073,-0.48095 5.2172,-7.05881 2.6,-11 -4.65045,-7.46091 -12.78077,-11.88547 -20.9,-12 -5,0 -8.4,0.6 -11.1,1.4 z" id="path3" fill="#ac39ac"/>
 <path d="m 110.9,449 c 40.20445,29.48953 70.54686,37.66867 117,51.3 43.75755,4.0099 64.6846,3.52299 85.9,-32.2 -2.89971,-138.18259 -69.31764,-206.73222 -200.7,-215.3 -70.683095,24.86414 -67.278751,55.86057 -60.6,114.5 11.336816,33.82499 30.500184,50.38 58.4,81.7 z" id="path6439" opacity="0.1" fill="#ac39ac" fill-rule="evenodd"/>
 <path d="m 473,126.1 c 25.72881,12.71875 64.93028,33.82998 53.7,47 -31.73705,22.10932 -70.86577,34.20499 -96.1,51.3 -53.6318,-4.85215 -53.88329,-2.05545 -33.8,-50.1 34.95936,-11.60252 49.11338,-24.9829 76.2,-48.2 z" id="path6441" opacity="0.1" fill="#ac39ac" fill-rule="evenodd"/>
</svg>
