<?xml version="1.0" encoding="UTF-8" standalone="no"?>
<svg xmlns="http://www.w3.org/2000/svg" version="1.0" width="580" height="580">
 <metadata id="metadata2975"/>
 <path id="path4144" d="m 180,48.75 c -55,0.1 -97,41.09961 -116,81.09961 39,-32 104,-55 123,-15 1.3,7.7 9.79961,15.19961 18.59961,16.59961 l -1.19922,138 c -7.7,-0.1 -16.29961,8.50078 -16.59961,16.30078 L 182,509.84961 c -0.6,20.4 16,20.9 25,21 l 41,0.40039 c 8.9,0 26.8,-5.60039 26.5,-22.90039 l -3.80078,-222 c -0.1,-7.7 -8.49844,-16.29922 -12.39844,-16.44922 L 255.69922,130.75 c 13.9,-0.6 21.50078,-6.90117 26.30078,-15.20117 9.4,-16 28.8,-10.49844 45,-8.89844 l -0.0996,6.79883 c 0,10.2 9.00039,18.4 20.40039,18.5 11.4,0.1 20.59922,-8 20.69922,-18 l 0.40039,-45 c -0.4,-10.2 -9.40039,-18.5 -20.40039,-18.5 C 338,50.84922 329,56.84961 328,65.84961 c -33,-2.2 -27,-13 -71,-15 z" mix-blend-mode="normal" solid-color="#000000" opacity="0.8" color-interpolation-filters="linearRGB" filter-gaussianBlur-deviation="0" color="#000000" image-rendering="auto" color-rendering="auto" stroke-width="64" isolation="auto" color-interpolation="sRGB" solid-opacity="1" fill="none" stroke-linejoin="round" filter-blend-mode="normal" stroke="#ffffff" shape-rendering="auto"/>
 <path id="path4146" d="M 441 57.548828 C 432.04778 57.448798 423.20006 60.799559 416.5 66.849609 C 409.79994 72.899659 405.66316 82.04537 405.90039 93.25 L 412.40039 400.25 L 359.40039 433.25 L 379 527.25 L 416.5 527.44922 L 417 463.44922 L 440.30078 450.65039 L 463.30078 463.65039 L 462.90039 527.65039 L 498.40039 527.94922 L 516 434.94922 L 466 400.04883 L 477.80078 89.449219 C 478.05147 82.850949 473.09976 72.735901 466 66.650391 C 459.09786 60.734271 449.95222 57.648848 441 57.548828 z M 441.69922 80.548828 C 447.59943 80.598828 452.19922 85.35 452.19922 91.25 C 452.19922 97.25 447.45021 101.89961 441.5 101.84961 C 435.54979 101.79961 430.95 97.050601 431 91.150391 C 431.05 85.250181 435.79901 80.498818 441.69922 80.548828 z " mix-blend-mode="normal" solid-color="#000000" opacity="0.8" color-interpolation-filters="linearRGB" filter-gaussianBlur-deviation="0" color="#000000" image-rendering="auto" color-rendering="auto" stroke-width="64" isolation="auto" color-interpolation="sRGB" solid-opacity="1" fill="none" stroke-linejoin="round" filter-blend-mode="normal" stroke="#ffffff" shape-rendering="auto"/>
 <path d="m 180,48.75 c -55,0.1 -97,41.09961 -116,81.09961 39,-32 104,-55 123,-15 1.3,7.7 9.79961,15.19961 18.59961,16.59961 l -1.19922,138 c -7.7,-0.1 -16.29961,8.50078 -16.59961,16.30078 L 182,509.84961 c -0.6,20.4 16,20.9 25,21 l 41,0.40039 c 8.9,0 26.8,-5.60039 26.5,-22.90039 l -3.80078,-222 c -0.1,-7.7 -8.49844,-16.29922 -12.39844,-16.44922 L 255.69922,130.75 c 13.9,-0.6 21.50078,-6.90117 26.30078,-15.20117 9.4,-16 28.8,-10.49844 45,-8.89844 l -0.0996,6.79883 c 0,10.2 9.00039,18.4 20.40039,18.5 11.4,0.1 20.59922,-8 20.69922,-18 l 0.40039,-45 c -0.4,-10.2 -9.40039,-18.5 -20.40039,-18.5 C 338,50.84922 329,56.84961 328,65.84961 c -33,-2.2 -27,-13 -71,-15 z" id="path4138" fill="#ac39ac"/>
 <path d="M 441 57.548828 C 432.04778 57.448798 423.20006 60.799559 416.5 66.849609 C 409.79994 72.899659 405.66316 82.04537 405.90039 93.25 L 412.40039 400.25 L 359.40039 433.25 L 379 527.25 L 416.5 527.44922 L 417 463.44922 L 440.30078 450.65039 L 463.30078 463.65039 L 462.90039 527.65039 L 498.40039 527.94922 L 516 434.94922 L 466 400.04883 L 477.80078 89.449219 C 478.05147 82.850949 473.09976 72.735901 466 66.650391 C 459.09786 60.734271 449.95222 57.648848 441 57.548828 z M 441.69922 80.548828 C 447.59943 80.598828 452.19922 85.35 452.19922 91.25 C 452.19922 97.25 447.45021 101.89961 441.5 101.84961 C 435.54979 101.79961 430.95 97.050601 431 91.150391 C 431.05 85.250181 435.79901 80.498818 441.69922 80.548828 z " id="path4136" fill="#ac39ac"/>
</svg>
