<?xml version="1.0" encoding="UTF-8" standalone="no"?>
<svg xmlns="http://www.w3.org/2000/svg" version="1.0" width="580" height="580">
 <metadata id="metadata2975"/>
 <path id="path4136" d="m 128,55 c 0,0 23,112 120,88 0,0 -2,-87 -104,-88.1 -5,0 -10,0.1 -16,0.1 z m 142,16 c -6.02,3.904252 -4.21986,11.512733 -2,16 6.84702,27.71608 8.30642,55.87911 10,83 2,32 2,61 2,61 l 5,1 27,-147.5 c 0,0 -14,-7.5 -26,-11.5 -5.37432,-2.555812 -10.58043,-3.006197 -16,-2 z m 53,114 C 434,223 472,95 472,95 459,93 448,92 437,92 334,93 323,185 323,185 Z M 106,315 c 1,44 8,72 26,108 0,0 30,57 48.5,77 18.5,20 34.5,27 52.5,27 22,0 47,-18.5 53,-18.5 6,0 31,18.5 53,18.5 17,0 34,-7 52.5,-27 18.5,-20 48.5,-77 48.5,-77 17,-36 25,-64 26,-108 1,-44 -47,-92 -106,-92 -29,0 -55,12 -74,31 -19,-19 -46,-31 -75,-31 -59,0 -106,48 -105,92 z" mix-blend-mode="normal" solid-color="#000000" opacity="0.8" color-interpolation-filters="linearRGB" filter-gaussianBlur-deviation="0" color="#000000" image-rendering="auto" color-rendering="auto" stroke-width="64" isolation="auto" color-interpolation="sRGB" solid-opacity="1" fill="none" stroke-linejoin="round" filter-blend-mode="normal" stroke="#ffffff" shape-rendering="auto"/>
 <path d="m 128,55 c 0,0 23,112 120,88 0,0 -2,-87 -104,-88.1 -5,0 -10,0.1 -16,0.1 z m 142,16 c -6.02,3.904252 -4.21986,11.512733 -2,16 6.84702,27.71608 8.30642,55.87911 10,83 2,32 2,61 2,61 l 5,1 27,-147.5 c 0,0 -14,-7.5 -26,-11.5 -5.37432,-2.555812 -10.58043,-3.006197 -16,-2 z m 53,114 C 434,223 472,95 472,95 459,93 448,92 437,92 334,93 323,185 323,185 Z M 106,315 c 1,44 8,72 26,108 0,0 30,57 48.5,77 18.5,20 34.5,27 52.5,27 22,0 47,-18.5 53,-18.5 6,0 31,18.5 53,18.5 17,0 34,-7 52.5,-27 18.5,-20 48.5,-77 48.5,-77 17,-36 25,-64 26,-108 1,-44 -47,-92 -106,-92 -29,0 -55,12 -74,31 -19,-19 -46,-31 -75,-31 -59,0 -106,48 -105,92 z" id="path6571" fill="#ac39ac"/>
</svg>
