<?xml version="1.0" encoding="UTF-8" standalone="no"?>
<svg xmlns="http://www.w3.org/2000/svg" version="1.0" width="580" height="580">
 <metadata id="metadata2975"/>
 <path id="path4154" d="m 72,520 c 0,6 5,11 10,11 l 412,0 c 6,0 11,-5 11,-11 l 0,-455 c 0,-5 -5,-10 -11,-10 L 82,55 C 77,54.9 72,60 72,65 Z" mix-blend-mode="normal" solid-color="#000000" opacity="0.8" white-space="normal" color-interpolation-filters="linearRGB" filter-gaussianBlur-deviation="0" color="#000000" image-rendering="auto" color-rendering="auto" stroke-width="64" isolation="auto" color-interpolation="sRGB" solid-opacity="1" fill="none" stroke-linejoin="round" filter-blend-mode="normal" stroke="#ffffff" shape-rendering="auto"/>
 <path d="m 72,520 c 0,6 5,11 10,11 l 412,0 c 6,0 11,-5 11,-11 l 0,-455 c 0,-5 -5,-10 -11,-10 L 82,55 C 77,54.9 72,60 72,65 Z" id="path4142" fill="#ac39ac" isolation="auto" color-rendering="auto" white-space="normal" solid-opacity="1" mix-blend-mode="normal" color-interpolation-filters="linearRGB" shape-rendering="auto" image-rendering="auto" color-interpolation="sRGB" color="#000000" solid-color="#000000"/>
 <path d="m 93,75.9 0,434 391,0 0,-434 z" id="path4147" opacity="0.9" fill="#ffffff"/>
 <path d="M 285.75 187.84961 C 246.5 187.69961 212.5 207.69922 192.5 238.69922 C 186.2 236.39922 180.1 243.10039 180 247.90039 L 180.5 264.69922 C 176.5 275.69922 175.5 286.69922 175.5 297.69922 C 175.5 309.69922 176.5 320.69922 180.5 330.69922 L 180.5 352.69922 C 180.8 359.79922 188.50078 364.20039 194.80078 360.90039 C 214.80078 389.70039 248.80078 408.69922 285.80078 408.69922 C 341.80078 408.69922 388.80078 366.69922 395.80078 311.69922 C 400.40078 304.79922 400.4 295.9 396 289 C 392 233 344 187.99961 285.75 187.84961 z M 286 208.84961 C 329 208.99961 365 239 374 280 L 357 280 C 323 280.1 325.30078 320.6 357.30078 321 L 373 320.69922 C 362 359.69922 328 387.69922 286 387.69922 C 245 387.69922 211 360.69922 200 323.69922 L 200 272.69922 C 211 235.69922 245 208.69961 286 208.84961 z " id="path4137" opacity="0.9" fill="#ac39ac"/>
 <path d="m 374,280 -17,0 c -34,0.1 -31.7,40.6 0.3,41 l 15.7,-0.3 c -11,39 -45,67 -87,67 -41,0 -75,-27 -86,-64 l 0,-51 c 11,-37 45,-64 86,-63.85 43,0.15 79,30.15 88,71.15 z" id="path4158" opacity="0.2" fill="#ac39ac"/>
 <path d="m 346,117.9 c 0,11 -9,20 -20,20 -11,0 -20,-9 -20,-20 0,-11 9,-20 20,-20 11,0 20,9 20,20 z" id="path4145" opacity="0.9" fill="#ac39ac"/>
 <path d="m 403,117.9 c 0,11 -9,20 -19,20 -11,0 -20,-9 -20,-20 0,-11 9,-20 20,-20 10,0 19,9 19,20 z" id="path4143" opacity="0.9" fill="#ac39ac"/>
 <path d="m 461,117.9 c 0,11 -9,20 -20,20 -11,0 -20,-9 -20,-20 0,-11 9,-20 20,-20 11,0 20,9 20,20 z" id="path4140" opacity="0.9" fill="#ac39ac"/>
</svg>
