<?xml version="1.0" encoding="UTF-8" standalone="no"?>
<svg xmlns="http://www.w3.org/2000/svg" version="1.0" width="580" height="580">
 <metadata id="metadata2975"/>
 <path solid-color="#000000" color="#000000" color-interpolation="sRGB" image-rendering="auto" shape-rendering="auto" color-interpolation-filters="linearRGB" mix-blend-mode="normal" solid-opacity="1" white-space="normal" color-rendering="auto" isolation="auto" fill="none" id="path4144" d="M97 51L47.6 154c-1.3 2.8-.2 6.1 2.6 7.4 30 14.3 62.7 16 97 1 29.4 13.3 61 14.8 94 .2 29.4 13 61 14.5 94-.2 34 12.9 63 13.5 94 .2 30 13.4 63 14.5 96-1.2 2.8-1.3 4-4.6 2.6-7.3L480 51c-.9-1.9-2.8-3.1-5-3.1L102 48C100 48 98 49 97 51" opacity="0.8" filter-gaussianBlur-deviation="0" stroke-width="64" stroke-linejoin="round" filter-blend-mode="normal" stroke="#ffffff"/>
 <path solid-color="#000000" color="#000000" color-interpolation="sRGB" image-rendering="auto" shape-rendering="auto" color-interpolation-filters="linearRGB" solid-opacity="1" color-rendering="auto" fill="none" white-space="normal" isolation="auto" mix-blend-mode="normal" id="path4146" d="M89 405L114 405l0 124c3 18.5 24.8 13.5 25-.1L139 405l295 0 0 124c1.3 21.5 26.4 14.6 24.8-.1L459 405l29 0c21.6-3.1 16-28.6.3-29L89 376c-21.9 2.8-15.9 28.6-.2 28.9" opacity="0.8" filter-gaussianBlur-deviation="0" stroke-width="64" stroke-linejoin="round" filter-blend-mode="normal" stroke="#ffffff"/>
 <path fill="none" id="path4148" d="m128 200c2.9 12.4 10.9 25.9 24.6 27.9 5.7.8 15.9.9 11.2-7.2-3.1-11.7-14.4-19.6-26-20.4C134 200 131 200 128 200m44 10c3.3 14.4 3.2 29 4 44 2.7-14.7 5.3-29.3 8-44-2.4-1.5-16.6-8.2-12 0zm16 30c11 4.4 24.5 2.3 32.8-6.4C227 228 231 220 234 212c-11 0-23-.9-32.5 5.9C194 223 189 231 188 240m-67 44c.7 10.3 4 20.4 8.4 29.7 5 8.5 10.7 16.8 16.6 24.6 2.9 4.7 9.7 6.9 15.3 6.6 6.4.9 12.7-5.9 16.3-7 6.7 9.2 22.5 9.4 29.4.7 3.9-5.4 8.7-11 12-17C226 310 231 298 232 285 233 269 220 254 204 252 194 251 183 253 177 261 163 247 138 250 127 265 123 271 121 277 121 284" mix-blend-mode="normal" solid-color="#000000" opacity="0.8" color-interpolation-filters="linearRGB" filter-gaussianBlur-deviation="0" color="#000000" image-rendering="auto" color-rendering="auto" stroke-width="64" isolation="auto" color-interpolation="sRGB" solid-opacity="1" stroke-linejoin="round" filter-blend-mode="normal" stroke="#ffffff" shape-rendering="auto"/>
 <path fill="none" id="path4150" d="m445 218c-6.1 3.5-9.2 11.1-16.7 12.5-6.2 1-12.6.8-18.6 2.8-18 4.7-35.5 13.5-54.6 13.3-12.3.8-24 6-33.6 13.8-7.6 4.7-15.6 10.9-16.6 20.4-3.3 17.5 6.4 34.6 19.6 45.5 16 14 38 22.9 60 19.4 13-4.7 19.4-18.6 24.3-30.5 3.4-11 1.8-24.5 11.2-32.8 7.4-8 14.8-16.4 19.7-26 .1-6.9 6-10.7 12-12 7.2-.2 16.6-3.5 15.7-12.4-2.6-7-11.7-8.7-17-13.9-1.6-.6-3.5-.5-5 .2" mix-blend-mode="normal" solid-color="#000000" opacity="0.8" color-interpolation-filters="linearRGB" filter-gaussianBlur-deviation="0" color="#000000" image-rendering="auto" color-rendering="auto" stroke-width="64" isolation="auto" color-interpolation="sRGB" solid-opacity="1" stroke-linejoin="round" filter-blend-mode="normal" stroke="#ffffff" shape-rendering="auto"/>
 <path d="M97 51L47.6 154c-1.3 2.8-.2 6.1 2.6 7.4 30 14.3 62.7 16 97 1 29.4 13.3 61 14.8 94 .2 29.4 13 61 14.5 94-.2 34 12.9 63 13.5 94 .2 30 13.4 63 14.5 96-1.2 2.8-1.3 4-4.6 2.6-7.3L480 51c-.9-1.9-2.8-3.1-5-3.1L102 48C100 48 98 49 97 51" id="path4145" fill="#ac39ac" isolation="auto" color-rendering="auto" white-space="normal" solid-opacity="1" mix-blend-mode="normal" color-interpolation-filters="linearRGB" shape-rendering="auto" image-rendering="auto" color-interpolation="sRGB" color="#000000" solid-color="#000000"/>
 <path d="m181 58.9l63.9 0-9.9 93c-29 12.6-55.9 11.5-82 .4z" id="path4143" fill="#ffffff" isolation="auto" color-rendering="auto" white-space="normal" solid-opacity="1" mix-blend-mode="normal" color-interpolation-filters="linearRGB" shape-rendering="auto" image-rendering="auto" color-interpolation="sRGB" color="#000000" solid-color="#000000"/>
 <path d="m332 58.9l64 0 25.9 94c-29 12.2-55.9 10.8-81.9-.8z" id="path3250" fill="#ffffff" isolation="auto" color-rendering="auto" white-space="normal" solid-opacity="1" mix-blend-mode="normal" color-interpolation-filters="linearRGB" shape-rendering="auto" image-rendering="auto" color-interpolation="sRGB" color="#000000" solid-color="#000000"/>
 <path d="M89 405L114 405l0 124c3 18.5 24.8 13.5 25-.1L139 405l295 0 0 124c1.3 21.5 26.4 14.6 24.8-.1L459 405l29 0c21.6-3.1 16-28.6.3-29L89 376c-21.9 2.8-15.9 28.6-.2 28.9" id="path3834" mix-blend-mode="normal" isolation="auto" white-space="normal" fill="#ac39ac" color-rendering="auto" solid-opacity="1" color-interpolation-filters="linearRGB" shape-rendering="auto" image-rendering="auto" color-interpolation="sRGB" color="#000000" solid-color="#000000"/>
 <path d="m128 200c2.9 12.4 10.9 25.9 24.6 27.9 5.7.8 15.9.9 11.2-7.2-3.1-11.7-14.4-19.6-26-20.4C134 200 131 200 128 200m44 10c3.3 14.4 3.2 29 4 44 2.7-14.7 5.3-29.3 8-44-2.4-1.5-16.6-8.2-12 0zm16 30c11 4.4 24.5 2.3 32.8-6.4C227 228 231 220 234 212c-11 0-23-.9-32.5 5.9C194 223 189 231 188 240m-67 44c.7 10.3 4 20.4 8.4 29.7 5 8.5 10.7 16.8 16.6 24.6 2.9 4.7 9.7 6.9 15.3 6.6 6.4.9 12.7-5.9 16.3-7 6.7 9.2 22.5 9.4 29.4.7 3.9-5.4 8.7-11 12-17C226 310 231 298 232 285 233 269 220 254 204 252 194 251 183 253 177 261 163 247 138 250 127 265 123 271 121 277 121 284" id="path6571" fill="#ac39ac"/>
 <path d="m445 218c-6.1 3.5-9.2 11.1-16.7 12.5-6.2 1-12.6.8-18.6 2.8-18 4.7-35.5 13.5-54.6 13.3-12.3.8-24 6-33.6 13.8-7.6 4.7-15.6 10.9-16.6 20.4-3.3 17.5 6.4 34.6 19.6 45.5 16 14 38 22.9 60 19.4 13-4.7 19.4-18.6 24.3-30.5 3.4-11 1.8-24.5 11.2-32.8 7.4-8 14.8-16.4 19.7-26 .1-6.9 6-10.7 12-12 7.2-.2 16.6-3.5 15.7-12.4-2.6-7-11.7-8.7-17-13.9-1.6-.6-3.5-.5-5 .2" id="path4162" fill="#ac39ac"/>
 <path d="m451 226c8.8-1.7 15.4 12.4 3.6 12.3-7.4-.1-13 4.9-19.6 7.5-5.2 3.8-5.5-2-7.8-4.5-7 2.9-.2-9.2 4.5-7.9 5.7-1.6 8.8-6.7 12.8-10.4 2.8-2.6 6.5-.5 6.6 3" id="path4160" opacity="0.8" fill="#ffffff"/>
 <path d="m368 279c15 13 34.6 43.8 19.5 59.7-28.4 12.7-68-17.5-76-37-3.7-9.8-4.1-22.6 3.3-30.8 13.7-11.7 42 1.3 53 8.4" id="path4158" opacity="0.8" fill="#ffffff"/>
 <path d="m328 294c1.4 6.9 11.2 10 17.6 9.1 9.4-4.3-.9-17.5-8.8-15.8-4.3-.7-8.7 3.4-8.8 6.7m16 .9c4.8 8.7-15.9 1.7-10.3-2.8 3.7-1.1 8.4.3 10.3 2.8" id="path4156" fill="#ac39ac"/>
</svg>
