<?xml version="1.0" encoding="UTF-8" standalone="no"?>
<svg xmlns="http://www.w3.org/2000/svg" version="1.0" width="580" height="580">
 <metadata id="metadata2975"/>
 <path id="path4171" d="M 532 66 L 492 85 C 482 91 467 95 467 110 C 464 119 462 129 460 139 C 322 139 184.00039 138 45.900391 139 C 32.600391 141 33.399219 157 37.699219 167 C 53.699219 229 69 291 86 353 C 102.17043 364.49053 112.03787 363.54734 122 364 L 404 403 C 406 414 406 423 392 419 C 304 420 215 419 127 420 C 112 428 97 440 93 458 C 85 490 120 524 150 509 C 173 499 183 470 172 448 L 342 448 C 324 477 352 522 387 514 C 415 508 430 473 416 449 C 429 450 434 436 432 425 C 432 406 431 387 437 368 C 456 284 475 201 494 117 C 510 108 528 100 542 89 C 549 80 543 66 532 66 z M 66.800781 167 L 111 167 L 111 222 L 81 222 C 76 204 71.000781 185 66.800781 167 z M 130 167 L 198 167 L 198 222 L 130 222 L 130 167 z M 217 167 L 289 167 L 289 222 L 217 222 L 217 167 z M 308 167 L 378 167 L 378 222 L 308 222 L 308 167 z M 397 167 L 453 167 C 449 185 444 204 440 222 C 426 221 411 222 397 222 L 397 167 z M 110.13281 239.98047 C 111.47664 258.13303 111 286.96276 111 301 C 99 305 100 292 97 283 C 93 269 89 255 86 241 C 90 242 104.13281 239.98047 110.13281 239.98047 z M 130 241 L 198 241 L 198 301 L 130 301 L 130 241 z M 217 241 L 289 241 L 289 301 L 217 301 L 217 241 z M 308 241 L 378 241 L 378 301 L 308 301 L 308 241 z M 397 241 L 436 241 C 431 261 426 281 422 302 C 414 301 402 304 397 300 L 397 241 z M 417.62305 320 C 415.04008 338.51378 407.3205 362.71378 404 376 C 393.01894 373.92425 396.45266 372.69883 397 355 L 397 321 C 400 321 413.62305 320 417.62305 320 z M 108.61914 320.41016 C 109.67837 320.42798 110.73633 320.57031 111.23633 320.57031 C 111.23633 320.57031 112 339 109 333 L 106 321 C 106.5 320.5 107.55991 320.39234 108.61914 320.41016 z M 130 321 L 198 321 C 198.26087 329.54037 198.73887 340.0182 198.52148 347.17969 C 176.52148 344.17969 151.90039 341 128.90039 337 C 129.7389 331.09938 129 326 130 321 z M 217 321 L 289 321 L 289 360 C 265 356 241 353 217 350 L 217 321 z M 308 321 L 378 321 L 378 372 C 354 369 331 366 308 363 L 308 321 z M 135.93164 447.05469 C 147.32527 447.42516 157.71016 455.98865 155 469 C 147.33904 504.50947 100 490 115 459 C 119.86781 450.38346 128.136 446.80121 135.93164 447.05469 z M 380.38086 448.99023 C 408.83809 449.57903 403.54688 498.89062 375 492 C 351 487 354 449 379 449 C 379.46875 448.98438 379.92916 448.98089 380.38086 448.99023 z " mix-blend-mode="normal" solid-color="#000000" white-space="normal" color-interpolation-filters="linearRGB" opacity="0.8" filter-gaussianBlur-deviation="0" color="#000000" image-rendering="auto" color-rendering="auto" stroke-width="64" isolation="auto" color-interpolation="sRGB" solid-opacity="1" fill="none" stroke-linejoin="round" filter-blend-mode="normal" stroke="#ffffff" shape-rendering="auto"/>
 <path d="M 532 66 L 492 85 C 482 91 467 95 467 110 C 464 119 462 129 460 139 C 322 139 184.00039 138 45.900391 139 C 32.600391 141 33.399219 157 37.699219 167 C 53.699219 229 69 291 86 353 C 102.17043 364.49053 112.03787 363.54734 122 364 L 404 403 C 406 414 406 423 392 419 C 304 420 215 419 127 420 C 112 428 97 440 93 458 C 85 490 120 524 150 509 C 173 499 183 470 172 448 L 342 448 C 324 477 352 522 387 514 C 415 508 430 473 416 449 C 429 450 434 436 432 425 C 432 406 431 387 437 368 C 456 284 475 201 494 117 C 510 108 528 100 542 89 C 549 80 543 66 532 66 z M 66.800781 167 L 111 167 L 111 222 L 81 222 C 76 204 71.000781 185 66.800781 167 z M 130 167 L 198 167 L 198 222 L 130 222 L 130 167 z M 217 167 L 289 167 L 289 222 L 217 222 L 217 167 z M 308 167 L 378 167 L 378 222 L 308 222 L 308 167 z M 397 167 L 453 167 C 449 185 444 204 440 222 C 426 221 411 222 397 222 L 397 167 z M 110.13281 239.98047 C 111.47664 258.13303 111 286.96276 111 301 C 99 305 100 292 97 283 C 93 269 89 255 86 241 C 90 242 104.13281 239.98047 110.13281 239.98047 z M 130 241 L 198 241 L 198 301 L 130 301 L 130 241 z M 217 241 L 289 241 L 289 301 L 217 301 L 217 241 z M 308 241 L 378 241 L 378 301 L 308 301 L 308 241 z M 397 241 L 436 241 C 431 261 426 281 422 302 C 414 301 402 304 397 300 L 397 241 z M 417.62305 320 C 415.04008 338.51378 407.3205 362.71378 404 376 C 393.01894 373.92425 396.45266 372.69883 397 355 L 397 321 C 400 321 413.62305 320 417.62305 320 z M 108.61914 320.41016 C 109.67837 320.42798 110.73633 320.57031 111.23633 320.57031 C 111.23633 320.57031 112 339 109 333 L 106 321 C 106.5 320.5 107.55991 320.39234 108.61914 320.41016 z M 130 321 L 198 321 C 198.26087 329.54037 198.73887 340.0182 198.52148 347.17969 C 176.52148 344.17969 151.90039 341 128.90039 337 C 129.7389 331.09938 129 326 130 321 z M 217 321 L 289 321 L 289 360 C 265 356 241 353 217 350 L 217 321 z M 308 321 L 378 321 L 378 372 C 354 369 331 366 308 363 L 308 321 z M 135.93164 447.05469 C 147.32527 447.42516 157.71016 455.98865 155 469 C 147.33904 504.50947 100 490 115 459 C 119.86781 450.38346 128.136 446.80121 135.93164 447.05469 z M 380.38086 448.99023 C 408.83809 449.57903 403.54688 498.89062 375 492 C 351 487 354 449 379 449 C 379.46875 448.98438 379.92916 448.98089 380.38086 448.99023 z " id="path4168" fill="#ac39ac" isolation="auto" color-rendering="auto" white-space="normal" solid-opacity="1" mix-blend-mode="normal" color-interpolation-filters="linearRGB" shape-rendering="auto" fill-rule="evenodd" image-rendering="auto" color-interpolation="sRGB" color="#000000" solid-color="#000000"/>
</svg>
