<?xml version="1.0" encoding="UTF-8" standalone="no"?>
<svg xmlns="http://www.w3.org/2000/svg" xmlns:sodipodi="http://sodipodi.sourceforge.net/DTD/sodipodi-0.dtd" xmlns:inkscape="http://www.inkscape.org/namespaces/inkscape" version="1.0" width="580" height="580">
 <metadata id="metadata2975"/>
 <g id="g1327">
  <path d="M 66.275,1.768 C 24.94,1.768 1.704,23.139 1.704,66.804 L 1.704,516.927 C 1.704,557.771 22.599,579.156 63.896,579.156 L 515.92,579.156 C 557.227,579.156 578.149,558.841 578.149,516.927 L 578.149,66.804 C 578.149,24.203 557.227,1.768 514.628,1.768 C 514.624,1.768 66.133,1.625 66.275,1.768 z " id="path1329" fill="#111" stroke="#eee" stroke-width="3.408"/>
 </g>
 <path d="M 103.97867,82.41299 L 103.97867,145.33701 L 216.3814,145.33701 C 224.15917,124.71544 229.09653,111.16532 229.42334,109.26998 L 420.41399,107.62293 L 435.00214,145.33701 L 504.61508,145.33701 L 504.61508,82.41299 L 103.97867,82.41299 z" id="rect3241" sodipodi:nodetypes="ccccccccc" opacity=".75" fill="#ffffff" stroke="#ffffff" stroke-linejoin="round" stroke-linecap="round" stroke-width="35.845"/>
 <path d="M 227.90625,158.09375 L 187.53125,158.46875 C 185.9283,167.76484 65.21875,517.09375 65.21875,517.09375 L 469.03125,513.6875 L 453.4375,473.375 L 120.34375,476.21875 C 120.34375,476.21875 195.43768,243.83219 227.90625,158.09375 z" id="path2443" sodipodi:nodetypes="ccccccc" fill="none" fill-rule="evenodd" stroke="#ffffff" stroke-linejoin="round" stroke-width="20"/>
 <path d="M 242.69409,117.58802 C 241.09113,126.88411 120.35624,476.20649 120.35624,476.20649 L 524.19401,472.79401 L 401.65273,116.06864 L 242.69409,117.58802 z" id="path3243" sodipodi:nodetypes="ccccc" fill="none" fill-rule="evenodd" stroke="#ffffff" stroke-linejoin="round" stroke-width="20"/>
 <path sodipodi:nodetypes="ccccc" id="path3163" d="M 242.69409,117.58802 C 241.09113,126.88411 120.35624,476.20649 120.35624,476.20649 L 524.19401,472.79401 L 401.65273,116.06864 L 242.69409,117.58802 z" opacity=".1" fill="#ffffff" fill-rule="evenodd" stroke="#ffffff" stroke-linejoin="round" stroke-linecap="round" stroke-width="20"/>
 <path id="path3165" d="M 227.90625,158.09375 L 187.53125,158.46875 C 185.9283,167.76484 65.21875,517.09375 65.21875,517.09375 L 469.03125,513.6875 L 453.4375,473.375 L 120.34375,476.21875 C 120.34375,476.21875 195.43768,243.83219 227.90625,158.09375 z" sodipodi:nodetypes="ccccccc" opacity=".1" fill="#ffffff" fill-rule="evenodd" stroke="#ffffff" stroke-linejoin="round" stroke-linecap="round" stroke-width="20"/>
 <g id="g4998" transform="translate(-133.14896,123.86039)">
  <g id="g5004">
   <path transform="scale(1.0867055,0.9202125)" d="M 428.26872,167.17928 C 428.479,167.2846 429.26793,167.49498 430.63551,167.81042 C 452.19943,172.01817 468.39875,179.69707 479.23351,190.84714 C 490.06797,201.99743 495.48528,216.61889 495.48544,234.71157 C 495.48528,253.22514 489.54202,269.26668 477.65565,282.83622 C 465.76899,296.40579 449.3067,303.76912 428.26872,304.92622 L 428.26872,333.64322 L 411.38565,333.64322 L 411.38565,305.24179 C 389.92673,302.82241 373.46443,295.85354 361.99871,284.33518 C 350.53293,272.81685 344.06372,256.69643 342.59107,235.97386 L 370.9925,230.92471 C 373.20146,246.49296 377.67205,258.48466 384.40429,266.89986 C 391.13642,275.31512 400.1302,280.10129 411.38565,281.25836 L 411.38565,190.84714 C 390.03192,186.21887 374.04298,178.48738 363.41879,167.65264 C 352.79452,156.81816 347.48241,142.88043 347.48243,125.83942 C 347.48241,108.90394 352.74193,94.361371 363.261,82.211664 C 373.78001,70.062393 389.82154,63.040935 411.38565,61.147269 L 411.38565,47.577696 L 428.26872,47.577696 L 428.26872,61.147269 C 446.15099,62.935745 460.2465,68.616025 470.5553,78.188128 C 480.86381,87.760674 487.33302,101.17245 489.96294,118.42349 L 460.45701,122.6837 C 458.77383,111.95446 455.24996,103.46034 449.88537,97.201308 C 444.52054,90.942683 437.315,86.919151 428.26872,85.1307 L 428.26872,167.17928 z M 411.38565,163.70799 L 411.38565,84.815128 C 399.91981,86.813961 391.13642,91.41604 385.03543,98.621379 C 378.93433,105.82712 375.88381,114.16346 375.88386,123.63042 C 375.88381,134.4652 379.03952,143.01192 385.351,149.2706 C 391.66237,155.52958 400.34058,160.34204 411.38565,163.70799 L 411.38565,163.70799 z M 428.26872,281.25836 C 439.31361,279.57533 448.41258,274.76287 455.56565,266.82097 C 462.71847,258.87913 466.29494,248.85974 466.29508,236.76278 C 466.29494,226.13862 463.58629,217.5919 458.16912,211.1226 C 452.75168,204.65348 442.78489,199.15729 428.26872,194.634 L 428.26872,281.25836 z" id="text2413" fill="#ffffff"/>
  </g>
  <path sodipodi:nodetypes="cc" id="path4370" d="M 455.37677,43.427273 L 455.37677,308.471" fill="none" fill-rule="evenodd" stroke="#ffffff" stroke-linejoin="round" stroke-linecap="round" stroke-width="30"/>
 </g>
</svg>
