<?xml version="1.0" encoding="UTF-8" standalone="no"?>
<svg
   xmlns:svg="http://www.w3.org/2000/svg"
   xmlns="http://www.w3.org/2000/svg"
   version="1.1"
   width="18.64"
   id="bank"
   height="18.64">
  <path
     style="fill:#000000;stroke:none"
     d="M 10.4,1.1043108 0,9.0568596 l 2.4,0 0,11.9999974 15.2,0 0,-11.9999974 2.4,0 -9.6,-7.9525488 z"
  />
  <path
     style="fill:#ffffff;stroke:none"
     d="m 9.92,17.376857 c -0.8,0 -3.04,-0.32 -2.88,-1.759999 0.16,-1.44 1.76,-0.64 2.88,-0.48 l 0,-2.079999 c -1.28,-0.32 -2.88,-1.28 -2.88,-3.04 0,-1.7599994 1.6,-2.8799994 2.88,-2.8799994 0,-0.9599998 0,-1.2799998 0.48,-1.2799998 0.48,0 0.48,0.32 0.48,1.2799998 0.96,0 3.2,0.32 2.72,1.44 -0.48,1.119999 -1.92,0.64 -2.72,0.48 l 0,2.0799994 c 1.44,0.32 3.04,1.28 3.04,3.039999 0,1.76 -1.44,3.199999 -3.04,3.199999 0,0.96 0,1.28 -0.48,1.28 -0.48,0 -0.48,-0.32 -0.48,-1.28 z m 0,-6.559998 0,-1.7599994 c -1.12,0.16 -1.12,1.5999994 0,1.7599994 z m 0.96,2.559999 0,1.76 c 1.12,-0.16 1.12,-1.6 0,-1.76 z"
     />
</svg>
