<?xml version="1.0" encoding="UTF-8" standalone="no"?>
<svg xmlns:dc="http://purl.org/dc/elements/1.1/" xmlns:cc="http://creativecommons.org/ns#" xmlns:rdf="http://www.w3.org/1999/02/22-rdf-syntax-ns#" xmlns:svg="http://www.w3.org/2000/svg" xmlns="http://www.w3.org/2000/svg" version="1.1" width="18.639999" height="18.639999" viewBox="0 0 20 20" id="drinking_water">
  <rect width="20" height="20" rx="4" ry="4" x="0" y="0" id="rect3271" style="fill:#ffffff" />
  <path d="M 9.598,0 2.402,0 C 1.072,0 0,1.078 0,2.402 L 0,9.597 C 0,10.922 1.072,12 2.402,12 L 9.597,12 C 10.928,12 12,10.922 12,9.598 L 12,2.402 C 12,1.078 10.928,0 9.598,0 z M 7.879,6.777 C 8.161,6.621 8.286,6.606 8.295,6.662 L 8.417,6.771 C 8.541,6.896 8.716,6.847 8.894,6.669 L 8.224,10.512 6.067,10.512 5.381,6.771 C 5.505,6.896 5.735,6.882 5.858,6.777 6.13,6.543 6.099,6.496 6.274,6.662 L 6.395,6.771 C 6.443,6.819 6.513,6.831 6.581,6.842 L 6.565,6.189 6.815,6.183 6.83,6.792 C 6.842,6.784 6.862,6.787 6.873,6.776 7.13,6.527 7.161,6.574 7.29,6.662 L 7.401,6.771 C 7.526,6.896 7.737,6.855 7.879,6.777 z M 6.536,4.958 6.786,4.952 6.805,5.685 6.555,5.691 6.536,4.958 z M 7.211,5.543 7.23,6.277 6.98,6.283 6.961,5.549 7.211,5.543 z M 6.961,4.383 7.211,4.377 7.23,5.111 6.98,5.117 6.961,4.383 z M 1.354,2.887 1.354,1.186 4.777,1.619 C 5.803,1.794 7.523,2.088 7.523,4.127 L 6.347,4.127 C 6.347,3.376 5.785,3.212 4.548,3.119 L 1.354,2.887 z M 8.979,11.393 5.319,11.393 4.249,5.504 4.741,5.415 C 4.741,5.415 5.666,10.512 5.736,10.893 L 8.558,10.893 C 8.625,10.508 9.5,5.443 9.5,5.443 L 9.993,5.528 8.979,11.393 z" transform="scale(1.67,1.67)" id="path3273" style="fill:#0000ff" />
</svg>
