<?xml version="1.0" encoding="UTF-8" standalone="no"?>
<svg xmlns:dc="http://purl.org/dc/elements/1.1/" xmlns:cc="http://creativecommons.org/ns#" xmlns:rdf="http://www.w3.org/1999/02/22-rdf-syntax-ns#" xmlns:svg="http://www.w3.org/2000/svg" xmlns="http://www.w3.org/2000/svg" version="1.0" width="8.0243635" height="8.0771484" id="symbol-fastfood">
  <g transform="matrix(0.4,0,0,0.4,-0.00264371,-0.09795748)" id="layer1">
    <path d="M 4.7704932,5.7308535 4.7491622,5.398899 13.943099,5.4173411 13.921768,5.7492956 4.7704932,5.7308535 z" id="path3219" style="fill:#000000;fill-opacity:1;fill-rule:evenodd;stroke:#000000;stroke-width:0.07853948px;stroke-linecap:butt;stroke-linejoin:miter;stroke-opacity:1" />
    <path d="M 10.956669,5.1222706 11.553955,5.1222706 12.684532,0.49335315 12.151241,0.40114369 10.956669,5.1222706 z" id="path3221" style="fill:#000000;fill-opacity:1;fill-rule:evenodd;stroke:#000000;stroke-width:0.07853948px;stroke-linecap:butt;stroke-linejoin:miter;stroke-opacity:1" />
    <g transform="matrix(0.08446899,0,0,0.07302621,-20.592828,-25.715203)" id="g3384" style="stroke:#ffffff;stroke-width:2.54648995;stroke-miterlimit:4;stroke-opacity:1;stroke-dasharray:none">
      <path d="M 469.78406,612.37761 361.12954,612.44075 C 361.12954,612.44075 364.41253,627.84557 375.01913,629.86588 L 456.27328,629.80274 C 466.56421,627.97183 469.78406,612.37761 469.78406,612.37761 z" id="path3225" style="fill:#000000;fill-opacity:1;fill-rule:evenodd;stroke:#ffffff;stroke-width:2.54648995;stroke-linecap:butt;stroke-linejoin:miter;stroke-miterlimit:4;stroke-opacity:1;stroke-dasharray:none" />
    </g>
    <g transform="matrix(0.08446899,0,0,0.07197365,-20.592828,-25.080303)" id="g3417">
      <path d="M 399.4036,593.0403 408.60901,434.39906 300.51808,434.6516 310.00185,592.42205 C 319.99812,606.17973 390.06838,604.90794 399.4036,593.0403 z" id="path3415" style="fill:#000000;fill-opacity:1;fill-rule:evenodd;stroke:#000000;stroke-width:0.99539524px;stroke-linecap:butt;stroke-linejoin:miter;stroke-opacity:1" />
    </g>
    <g transform="matrix(0.08432527,0,0,0.08993013,-20.533086,-35.763483)" id="g3237" style="fill:#000000;fill-opacity:1;stroke:#ffffff;stroke-width:2.29666948;stroke-miterlimit:4;stroke-opacity:1;stroke-dasharray:none">
      <path d="M 472.75139,586.17678 C 472.75139,586.17678 480.32754,590.97501 479.56992,597.28846 478.81231,603.60191 472.49885,607.89506 472.49885,607.89506" id="path3233" style="fill:#000000;fill-opacity:1;fill-rule:evenodd;stroke:#ffffff;stroke-width:2.29666948;stroke-linecap:butt;stroke-linejoin:miter;stroke-miterlimit:4;stroke-opacity:1;stroke-dasharray:none" />
      <path d="M 473.50901,586.42932 358.63078,586.42932 C 358.63078,586.42932 351.05463,591.22755 351.81225,597.541 352.56986,603.85445 358.88332,608.1476 358.88332,608.1476 L 472.75139,607.89506" id="path3235" style="fill:#000000;fill-opacity:1;fill-rule:evenodd;stroke:#ffffff;stroke-width:2.29666948;stroke-linecap:butt;stroke-linejoin:miter;stroke-miterlimit:4;stroke-opacity:1;stroke-dasharray:none" />
    </g>
    <g transform="matrix(0.08446899,0,0,0.07302621,-20.592828,-25.715203)" id="g3283" style="stroke:#ffffff;stroke-width:2.54648995;stroke-miterlimit:4;stroke-opacity:1;stroke-dasharray:none">
      <path d="M 245.71961,516.98133 262.8922,619.25928" id="path3279" style="fill:none;stroke:#ffffff;stroke-width:2.54648995;stroke-linecap:butt;stroke-linejoin:miter;stroke-miterlimit:4;stroke-opacity:1;stroke-dasharray:none" />
      <path d="M 262.38712,619.25928 C 293.44931,626.83542 319.96582,619.00674 319.96582,619.00674 L 336.3808,516.72879 C 335.62318,516.72879 295.46962,560.67043 245.71961,516.47626" id="path3281" style="fill:#000000;fill-opacity:1;fill-rule:evenodd;stroke:#ffffff;stroke-width:2.54648995;stroke-linecap:butt;stroke-linejoin:miter;stroke-miterlimit:4;stroke-opacity:1;stroke-dasharray:none" />
    </g>
    <path d="M 12.898227,14.048122 16.102545,14.035265 C 18.965639,14.551019 19.093599,16.822228 19.098931,16.82696 L 9.8805148,16.841155 C 9.8911782,16.831692 9.8911782,16.831692 9.8911782,16.831692 9.8911782,16.831692 10.019139,14.559144 12.898227,14.048122 z" id="path3265" style="fill:#000000;fill-opacity:1;fill-rule:evenodd;stroke:#ffffff;stroke-width:0.2;stroke-linecap:butt;stroke-linejoin:miter;stroke-miterlimit:4;stroke-opacity:1;stroke-dasharray:none" />
    <path d="M 0.82452262,12.286435 0.22849844,10.171891 0.90966905,9.992355 1.7824195,12.88489 C 1.7824195,12.88489 1.5269803,12.844992 0.82452262,12.286435 z" id="path3318" style="fill:#000000;fill-opacity:1;fill-rule:evenodd;stroke:#ffffff;stroke-width:0.08159832px;stroke-linecap:butt;stroke-linejoin:miter;stroke-opacity:1" />
    <path d="M 2.5095742,13.125016 3.6389069,9.2346007 3.0209706,8.8668495 1.8064045,12.873397 C 1.8064045,12.873397 2.3178009,13.163727 2.5095742,13.125016 z" id="path3320" style="fill:#000000;fill-opacity:1;fill-rule:evenodd;stroke:#ffffff;stroke-width:0.08041666px;stroke-linecap:butt;stroke-linejoin:miter;stroke-opacity:1" />
    <path d="M 2.7877416,13.248256 3.5971927,9.789015 4.3214383,9.8084487 3.5545899,13.364859 C 3.5545899,13.364859 3.1711649,13.345425 2.7877416,13.248256 z" id="path3322" style="fill:#000000;fill-opacity:1;fill-rule:evenodd;stroke:#ffffff;stroke-width:0.08056697px;stroke-linecap:butt;stroke-linejoin:miter;stroke-opacity:1" />
    <path d="M 7.3512252,12.248309 7.7557329,9.708903 6.9467176,9.4940307 6.54221,12.75619 7.3512252,12.248309 z" id="path3324" style="fill:#000000;fill-opacity:1;fill-rule:evenodd;stroke:#ffffff;stroke-width:0.15000001;stroke-linecap:butt;stroke-linejoin:miter;stroke-miterlimit:4;stroke-opacity:1;stroke-dasharray:none" />
    <path d="M 5.7353623,13.08496 5.6891732,10.299604 6.4513052,10.142681 6.4513052,12.771117 5.7353623,13.08496 z" id="path3326" style="fill:#000000;fill-opacity:1;fill-rule:evenodd;stroke:#ffffff;stroke-width:0.15619853;stroke-linecap:butt;stroke-linejoin:miter;stroke-miterlimit:4;stroke-opacity:1;stroke-dasharray:none" />
    <path d="M 5.6452278,13.148145 5.392971,8.9065434 4.4756731,9.0614872 4.8884564,13.380561 5.6452278,13.148145 z" id="path3328" style="fill:#000000;fill-opacity:1;fill-rule:evenodd;stroke:#ffffff;stroke-width:0.1555775;stroke-linecap:butt;stroke-linejoin:miter;stroke-miterlimit:4;stroke-opacity:1;stroke-dasharray:none" />
    <path d="M 3.7049295,13.364922 4.1307479,10.962027 4.7694753,10.72949 4.4501116,13.345543 3.7049295,13.364922 z" id="path3330" style="fill:#000000;fill-opacity:1;fill-rule:evenodd;stroke:#ffffff;stroke-width:0.08043166px;stroke-linecap:butt;stroke-linejoin:miter;stroke-opacity:1" />
  </g>
</svg>
