<?xml version="1.0" encoding="UTF-8" standalone="no"?>
<svg xmlns:dc="http://purl.org/dc/elements/1.1/" xmlns:cc="http://creativecommons.org/ns#" xmlns:rdf="http://www.w3.org/1999/02/22-rdf-syntax-ns#" xmlns:svg="http://www.w3.org/2000/svg" xmlns="http://www.w3.org/2000/svg" version="1.1" width="5.9647999" height="5.9647999" viewBox="0 0 64.000001 64.000001" id="information">
  <rect width="64" height="64" rx="12.8" ry="12.8" x="-1.4210855e-14" y="0" id="rect5114" style="fill:#0000ff;fill-opacity:1" />
  <path d="M 36.79987,22.941272 36.79987,51.33437 40.58553,51.33437 40.58553,54.71444 39.90962,54.71444 23.41447,54.71444 23.41447,51.33437 27.2003,51.33437 27.2003,26.321328 23.41447,26.321328 23.41447,22.941252 24.090551,22.941252 36.79986,22.941252 36.79987,22.941272 z M 26.92979,14.017802 C 26.92979,12.800882 27.369357,11.708007 28.248143,10.738992 29.12693,9.769978 30.26501,9.285557 31.66203,9.285557 L 32.33811,9.285557 C 33.50983,9.285557 34.5915,9.713738 35.58294,10.570098 36.57455,11.426286 37.07018,12.575578 37.07018,14.017802 37.07018,15.234544 36.64218,16.327425 35.78582,17.296439 34.92946,18.265454 33.78034,18.749874 32.33811,18.749874 L 31.66203,18.749874 C 30.49031,18.749874 29.408646,18.321694 28.417204,17.465506 27.42559,16.609146 26.929785,15.459854 26.929785,14.017802 L 26.92979,14.017802 z" id="path5116" style="fill:#ffffff;fill-opacity:1;fill-rule:evenodd" />
</svg>
