<?xml version="1.0" encoding="UTF-8" standalone="no"?>
<svg xmlns:dc="http://purl.org/dc/elements/1.1/" xmlns:cc="http://creativecommons.org/ns#" xmlns:rdf="http://www.w3.org/1999/02/22-rdf-syntax-ns#" xmlns:svg="http://www.w3.org/2000/svg" xmlns="http://www.w3.org/2000/svg" version="1.1" width="5.256268" height="5.967977" viewBox="0 0 56.397728 70.4375" id="symbol-museum">
  <g transform="matrix(0.4,0,0,0.4,-9.3950145,-20.8)" id="g5296" style="fill:#d3d3d3;stroke:#000000;stroke-width:3">
    <path d="M 38.2,92.9 60.6,92.9 60.6,215.6 38.2,215.6 38.2,92.9 z" id="path5298" />
    <path d="M 85,92.9 107.4,92.8 107.4,215.6 85,215.6 85,92.9 z" id="path5300" />
    <path d="M 131.8,92.8 154.2,92.8 154.2,215.6 131.8,215.6 131.8,92.8 z" id="path5302" />
    <path d="M 18,216.1 170,216.1 170,226.6 18,226.6 18,216.1 z" id="path5304" />
    <path d="M 17.9,82 95.4,53.6 169.9,82 169.9,92.5 17.9,92.5 17.9,82 z" id="path5306" />
  </g>
</svg>
