<?xml version="1.0" encoding="UTF-8" standalone="no"?>
<svg xmlns:dc="http://purl.org/dc/elements/1.1/" xmlns:cc="http://creativecommons.org/ns#" xmlns:rdf="http://www.w3.org/1999/02/22-rdf-syntax-ns#" xmlns:svg="http://www.w3.org/2000/svg" xmlns="http://www.w3.org/2000/svg" version="1.1" width="5.7491713" height="6.9422498" viewBox="0 0 35.469674 42.830405" id="petrolStation" style="fill:#000000;fill-rule:evenodd;stroke-width:3px">
  <path d="M 5.5158328,39.423604 C -1.8681592,39.207204 5.8972328,13.532644 9.4919528,4.612684 9.9641528,2.998604 20.536513,3.586884 20.426753,4.143084 20.060073,6.554724 18.383673,5.485964 17.230193,6.931964 L 17.123073,10.911444 C 15.867913,12.514564 12.518793,9.975884 11.655713,13.339724 8.9722728,33.217884 14.452073,39.716404 5.5158328,39.423604 z M 30.549393,0 8.0951528,1.92e-4 C 7.8187128,3.224644 -8.1990872,41.618004 5.5961928,41.502404 15.833073,41.418004 12.236993,37.820804 13.503873,16.600804 13.165033,15.917924 16.772913,15.652204 16.774073,16.766724 L 16.842633,42.830404 35.469673,42.664004 35.469673,6.806404 C 34.851273,5.871724 33.984113,6.307124 32.658113,5.146404 31.540793,3.954044 33.318633,0 30.549393,0 z M 22.055153,10.318244 C 21.042233,10.879124 21.042233,14.301364 22.055153,14.862244 23.777273,15.816164 28.538433,15.816164 30.260593,14.862244 31.273513,14.301364 31.273513,10.879124 30.260593,10.318244 28.538433,9.364524 23.777273,9.364524 22.055153,10.318244 z" id="path5980" />
</svg>
