<?xml version="1.0" encoding="UTF-8" standalone="no"?>
<svg xmlns:dc="http://purl.org/dc/elements/1.1/" xmlns:cc="http://creativecommons.org/ns#" xmlns:rdf="http://www.w3.org/1999/02/22-rdf-syntax-ns#" xmlns:svg="http://www.w3.org/2000/svg" xmlns="http://www.w3.org/2000/svg" version="1.1" width="11.184" height="11.184" viewBox="0 0 21.600001 21.600001" id="symbol-pharmacy">
  <rect width="21.6" height="21.6" rx="1.2" ry="1.2" x="0" y="-8.8817842e-16" id="rect6543" style="fill:#32cd32" />
  <path d="M 13.284,8.3160002 13.284,3.6000002 8.3160002,3.6000002 8.3160002,8.3160002 3.6000002,8.3160002 3.6000002,13.284 8.3160002,13.284 8.3160002,18 13.284,18 13.284,13.284 18,13.284 18,8.3160002 13.284,8.3160002 z M 1.5000002,20.4 20.1,20.4 A 0.3,0.3 0 0 0 20.4,20.1 L 20.4,1.5000002 A 0.3,0.3 0 0 0 20.1,1.2000002 L 1.5000002,1.2000002 A 0.3,0.3 0 0 0 1.2000002,1.5000002 L 1.2000002,20.1 A 0.3,0.3 0 0 0 1.5000002,20.4 z M 2.4000002,19.2 2.4000002,2.4000002 19.2,2.4000002 19.2,19.2 2.4000002,19.2 z" id="path6545" style="fill:#ffffff" />
</svg>
