<?xml version="1.0" encoding="UTF-8" standalone="no"?>
<svg xmlns:dc="http://purl.org/dc/elements/1.1/" xmlns:cc="http://creativecommons.org/ns#" xmlns:rdf="http://www.w3.org/1999/02/22-rdf-syntax-ns#" xmlns:svg="http://www.w3.org/2000/svg" xmlns="http://www.w3.org/2000/svg" version="1.1" width="4.2926526" height="4.3010406" viewBox="0 0 178.09289 178.44089" id="pub">
  <g transform="matrix(0.3,0,0,0.3,1.6461384,1.8182215)" id="g5907" style="fill-rule:nonzero;stroke-linecap:butt">
    <path d="M 67.775772,2.6625614 C 26.556032,2.6625614 3.3361722,24.082427 3.1561722,67.642152 L 3.1561722,517.81932 C 3.3361722,558.67906 24.216042,580.09892 65.435782,580.09892 L 517.23294,580.09892 C 558.63267,580.09892 579.51254,559.75905 579.51254,517.81932 L 579.51254,67.642152 C 579.51254,25.16242 558.63267,2.6625614 515.97294,2.6625614 515.97294,2.6625614 67.775772,2.4825625 67.775772,2.6625614 z" id="path5909" style="fill:#000000;stroke:none" />
    <path d="M 67.775772,2.6625614 C 26.556032,2.6625614 3.3361722,24.082427 3.1561722,67.642152 L 3.1561722,517.81932 C 3.3361722,558.67906 24.216042,580.09892 65.435782,580.09892 L 517.23294,580.09892 C 558.63267,580.09892 579.51254,559.75905 579.51254,517.81932 L 579.51254,67.642152 C 579.51254,25.16242 558.63267,2.6625614 515.97294,2.6625614 515.97294,2.6625614 67.775772,2.4825625 67.775772,2.6625614" id="path5911" style="fill:none;stroke:#000000;stroke-width:3.41997862;stroke-linejoin:miter" />
    <path d="M 106.47552,104.54192 468.63324,104.54192 311.31423,299.12069 311.31423,423.67991 398.43368,423.67991 C 427.7735,423.85991 427.9535,467.95963 398.43368,467.77963 L 180.99505,467.77963 C 151.65524,467.95963 151.65524,423.85991 180.99505,423.67991 L 266.85451,423.67991 266.85451,298.2207 106.47552,104.54192 z" id="path5913" style="fill:#ffffff;stroke:none" />
    <path d="M 316.5342,241.88105 C 332.1941,241.88105 344.79402,229.28113 344.61402,213.80123 344.79402,198.32133 332.1941,185.72141 316.5342,185.54141 301.0543,185.72141 288.45438,198.32133 288.45438,213.80123 288.45438,229.28113 301.0543,241.88105 316.5342,241.88105 z" id="path5915" style="fill:#000000;stroke:none" />
  </g>
</svg>
