<?xml version="1.0" encoding="UTF-8" standalone="no"?>
<svg xmlns:dc="http://purl.org/dc/elements/1.1/" xmlns:cc="http://creativecommons.org/ns#" xmlns:rdf="http://www.w3.org/1999/02/22-rdf-syntax-ns#" xmlns:svg="http://www.w3.org/2000/svg" xmlns="http://www.w3.org/2000/svg" version="1.1" width="9.0473433" height="9.0473433" viewBox="0 0 72.805876 72.805876" id="symbol-tennis">
  <path d="M 32.431363,19.040892 C 33.677953,16.274162 42.103553,12.850752 47.543113,13.325222 52.976983,13.799172 59.114373,14.096362 64.318593,14.991872 69.534943,15.889482 68.357153,20.646152 63.269763,19.893032 58.182373,19.139912 55.498263,18.666042 52.711393,18.628152 49.780793,18.588312 43.332013,19.131952 43.332013,19.131952 43.332013,19.131952 51.850253,31.997762 51.127233,34.020412 50.354873,36.181152 41.215873,37.013072 40.334193,36.457882 39.151273,35.712992 35.588313,29.068352 35.588313,29.068352 35.588313,29.068352 35.502643,33.598592 33.654373,35.724902 31.870433,37.777222 27.266083,40.316232 22.213553,43.136822 17.247813,45.908962 15.902433,41.505312 20.422893,39.004152 25.031783,36.454052 26.493433,36.387712 28.922723,32.745382 31.140553,29.420112 31.080363,22.039272 32.431363,19.040892 z" id="path5718" />
  <path d="M 40.673373,10.125582 A 4.6415784,4.7889301 8.6689198 0 1 31.496273,8.7263825 4.6415784,4.7889301 8.6689198 1 1 40.673373,10.125582 z" id="path5720" />
  <path d="M 15.981253,21.989552 A 8.1043454,5.2309863 68.588857 1 1 6.2413132,25.808772 8.1043454,5.2309863 68.588857 0 1 15.981253,21.989552 z" id="path5722" style="fill:none;stroke:#000000;stroke-width:2.35762596;stroke-linejoin:miter;stroke-miterlimit:4" />
  <path d="M 14.140623,31.280832 19.586723,42.996842 19.586723,42.996842" id="path5724" style="fill:none;stroke:#000000;stroke-width:2.81599998;stroke-linecap:butt;stroke-linejoin:miter;stroke-miterlimit:4" />
  <path d="M 41.239163,43.690692 C 42.966473,47.994792 45.752173,54.707622 47.227183,57.958102 48.899643,61.649762 53.704913,60.385602 51.996263,56.456952 50.302833,52.563302 47.514633,46.675982 45.789233,42.339842 44.290873,38.574152 39.643583,39.714752 41.239163,43.690692 z" id="path5726" />
  <path d="M 47.737403,39.405322 C 46.692713,37.481792 51.158503,36.903932 52.013503,38.498422 52.859173,40.075512 63.888103,60.190282 65.798633,63.895142 67.709793,67.601162 62.877223,69.141572 61.241633,65.762372 59.696773,62.570592 48.809103,41.378592 47.737403,39.405322 z" id="path5728" />
  <rect width="68.965874" height="68.965874" ry="5.5732851" x="1.9200001" y="1.9200001" id="rect5730" style="fill:none;stroke:#000000;stroke-width:3.84000015;stroke-linejoin:round" />
</svg>
