<?xml version="1.0" encoding="UTF-8" standalone="no"?>
<svg xmlns:dc="http://purl.org/dc/elements/1.1/" xmlns:cc="http://creativecommons.org/ns#" xmlns:rdf="http://www.w3.org/1999/02/22-rdf-syntax-ns#" xmlns:svg="http://www.w3.org/2000/svg" xmlns="http://www.w3.org/2000/svg" version="1.1" width="9.1505451" height="8.5189543" viewBox="0 0 216 201.0912" id="theatre">
  <g transform="matrix(0.5,0,0,0.5,-0.2,0.0911991)" id="g4633">
    <path d="M 192.4,22 C 192.4,22 242.4,48 304.4,42 366.4,36 398.4,3 402.4,0 406.4,-3 419.4,32 419.4,32 L 423.4,65 420.4,94 425.4,118 432.4,157 427.4,189 421.4,221 402.4,276 377.4,325 318.4,346 288.4,332 266.4,310 237.4,263 241.4,223 221.4,195 203.4,171 204.4,137 206.4,83 198.4,48 192.4,22 z" id="path4635" />
    <path d="M 210.4,44.5 C 210.4,44.5 254.2,67.3 308.4,62 362.6,56.7 390.7,27.9 394.2,25.2 397.7,22.5 409.1,53.2 409.1,53.2 L 412.6,82.1 410,107.5 414.4,128.5 420.5,162.6 416.1,190.6 410.8,218.6 394.2,266.7 372.3,309.6 320.6,328 294.3,315.7 275,296.4 249.6,255.3 253.1,220.3 235.6,195.8 219.8,174.8 220.7,145 222.5,97.7 215.5,67.1 210.4,44.5 z" id="path4637" style="fill:none;stroke:#ffffff;stroke-width:10" />
    <path d="M 293.4,152 C 293.4,160.3 282,167 267.9,167 253.8,167 242.4,160.3 242.4,152 242.4,143.7 253.8,137 267.9,137 282,137 293.4,143.7 293.4,152 z" id="path4639" style="fill:#ffffff" />
    <path d="M 406.4,140.5 C 406.4,149.1 393.2,156 376.9,156 360.6,156 347.4,149.1 347.4,140.5 347.4,131.9 360.6,125 376.9,125 393.2,125 406.4,131.9 406.4,140.5 z" id="path4641" style="fill:#ffffff" />
    <path d="M 248.4,124 262.4,81 277.4,108" id="path4643" style="fill:none;stroke:#ffffff;stroke-width:10" />
    <path d="M 336.4,110 343.4,78 378.4,101" id="path4645" style="fill:none;stroke:#ffffff;stroke-width:10" />
    <path d="M 317.4,146 310.4,218 332.4,217 317.4,146 z" id="path4647" style="fill:none;stroke:#ffffff;stroke-width:10" />
    <path d="M 305.4,297 C 305.4,297 307.4,242 332.4,240 357.4,238 369.4,256 373.4,270" id="path4649" style="fill:none;stroke:#ffffff;stroke-width:10" />
    <path d="M 207.4,90 C 207.4,90 188.4,108 146.4,107 104.4,106 104.4,112 63.4,74 22.4,36 32.4,36 32.4,36 L 23.4,141 18.4,163 5.4,178 31.4,306 68.4,388 C 68.4,388 71.4,397 106.4,397 141.4,397 136.4,387 146.4,377 156.4,367 161.4,342 180.4,328 199.4,314 221.4,281 221.4,281 L 238.4,260 241.4,226 218.4,197 206.4,165 207.4,90 z" id="path4651" style="fill:#ffffff;stroke:#000000;stroke-width:10" />
    <path d="M 51.4,150 C 51.4,150 49.4,135 76.4,135 103.4,135 107.4,152 107.4,152" id="path4653" style="fill:none;stroke:#000000;stroke-width:10" />
    <path d="M 153.4,168 C 153.4,168 159.4,157 165.4,154 171.4,151 187.4,159 187.4,159" id="path4655" style="fill:none;stroke:#000000;stroke-width:10" />
    <path d="M 51.4,193 74.4,174 C 74.4,174 86.4,172 99.4,176 112.4,180 106.4,190 106.4,190 L 51.4,193 z" id="path4657" />
    <path d="M 164.4,199 C 164.4,199 178.4,186 191.4,189 204.4,192 207.4,208 207.4,208 207.4,208 200.4,214 181.4,209 162.4,204 164.4,199 164.4,199 z" id="path4659" />
    <path d="M 125.4,188 100.4,271 H 129.4 L 125.4,188 z" id="path4661" />
    <path d="M 61.4,258 C 61.4,258 61.4,254 75.4,274 89.4,294 85.4,310 119.4,308 153.4,306 157.4,263 174.4,266 191.4,269 187.4,274 181.4,286 175.4,298 158.4,309 149.4,321 140.4,333 154.4,361 110.4,359 66.4,357 67.4,315 61.4,311 55.4,307 61.4,258 61.4,258 z" id="path4663" />
  </g>
</svg>
