<?xml version="1.0" encoding="UTF-8" standalone="no"?>
<svg xmlns="http://www.w3.org/2000/svg" xmlns:sodipodi="http://sodipodi.sourceforge.net/DTD/sodipodi-0.dtd" xmlns:inkscape="http://www.inkscape.org/namespaces/inkscape" version="1.0" width="580" height="580">
 <metadata id="metadata2975"/>
 <defs id="defs4">
  <symbol viewBox="244.5 110 489 219.9" id="symbol-university">
   <path id="path4460" d="M79,43l57,119c0,0,21-96,104-96s124,106,124,106l43-133l82-17L0,17L79,43z"/>
   <path id="path4462" d="M94,176l-21,39" stroke-width="20" stroke="#000000" fill="none"/>
   <path id="path4464" d="M300,19c0,10.5-22.6,19-50.5,19S199,29.5,199,19s22.6-19,50.5-19S300,8.5,300,19z"/>
   <path id="path4466" d="M112,216l-16-38L64,88c0,0-9-8-4-35s16-24,16-24" stroke-width="20" stroke="#000000" ill="none"/>
  </symbol>
  <marker id="Arrow2Lend" refX="0.0" refY="0.0" orient="auto" inkscape:stockid="Arrow2Lend">
   <path transform="scale(1.1) rotate(180) translate(1,0)" d="M 8.7185878,4.0337352 L -2.2072895,0.016013256 L 8.7185884,-4.0017078 C 6.9730900,-1.6296469 6.9831476,1.6157441 8.7185878,4.0337352 z " id="path4137" fill-rule="evenodd" stroke-linejoin="round" stroke-width=".625"/>
  </marker>
  <marker id="Arrow1Mend" refX="0.0" refY="0.0" orient="auto" inkscape:stockid="Arrow1Mend">
   <path transform="scale(0.4) rotate(180) translate(10,0)" d="M 0.0,0.0 L 5.0,-5.0 L -12.5,0.0 L 5.0,5.0 L 0.0,0.0 z " id="path4125" fill-rule="evenodd" stroke="#000000" stroke-width="1.25"/>
  </marker>
  <marker id="TriangleOutL" refX="0.0" refY="0.0" orient="auto" inkscape:stockid="TriangleOutL">
   <path transform="scale(0.8)" d="M 5.77,0.0 L -2.88,5.0 L -2.88,-5.0 L 5.77,0.0 z " id="path4214" fill-rule="evenodd" stroke="#000000" stroke-width="1.25"/>
  </marker>
  <marker id="Arrow1Lend" refX="0.0" refY="0.0" orient="auto" inkscape:stockid="Arrow1Lend">
   <path transform="scale(0.8) rotate(180) translate(12.5,0)" d="M 0.0,0.0 L 5.0,-5.0 L -12.5,0.0 L 5.0,5.0 L 0.0,0.0 z " id="path4119" fill-rule="evenodd" stroke="#000000" stroke-width="1.25"/>
  </marker>
  <marker id="Tail" refX="0.0" refY="0.0" orient="auto" inkscape:stockid="Tail">
   <g transform="scale(-1.2)" id="g4152">
    <path d="M -3.8048674,-3.9585227 L 0.54352094,0" id="path4154" fill="none" fill-rule="evenodd" stroke="#000000" stroke-linecap="round" stroke-width=".8"/>
    <path d="M -1.2866832,-3.9585227 L 3.0617053,0" id="path4156" fill="none" fill-rule="evenodd" stroke="#000000" stroke-linecap="round" stroke-width=".8"/>
    <path d="M 1.3053582,-3.9585227 L 5.6537466,0" id="path4158" fill="none" fill-rule="evenodd" stroke="#000000" stroke-linecap="round" stroke-width=".8"/>
    <path d="M -3.8048674,4.1775838 L 0.54352094,0.21974226" id="path4160" fill="none" fill-rule="evenodd" stroke="#000000" stroke-linecap="round" stroke-width=".8"/>
    <path d="M -1.2866832,4.1775838 L 3.0617053,0.21974226" id="path4162" fill="none" fill-rule="evenodd" stroke="#000000" stroke-linecap="round" stroke-width=".8"/>
    <path d="M 1.3053582,4.1775838 L 5.6537466,0.21974226" id="path4164" fill="none" fill-rule="evenodd" stroke="#000000" stroke-linecap="round" stroke-width=".8"/>
   </g>
  </marker>
  <marker id="Arrow1Sstart" refX="0.0" refY="0.0" orient="auto" inkscape:stockid="Arrow1Sstart">
   <path transform="scale(0.2) translate(6,0)" d="M 0.0,0.0 L 5.0,-5.0 L -12.5,0.0 L 5.0,5.0 L 0.0,0.0 z " id="path4128" fill-rule="evenodd" stroke="#000000" stroke-width="1.25"/>
  </marker>
  <marker id="Arrow1Send" refX="0.0" refY="0.0" orient="auto" inkscape:stockid="Arrow1Send">
   <path transform="scale(0.2) rotate(180) translate(6,0)" d="M 0.0,0.0 L 5.0,-5.0 L -12.5,0.0 L 5.0,5.0 L 0.0,0.0 z " id="path4131" fill-rule="evenodd" stroke="#000000" stroke-width="1.25"/>
  </marker>
  <marker id="SemiCircleOut" refX="0.0" refY="0.0" orient="auto" inkscape:stockid="SemiCircleOut">
   <path transform="scale(0.6) translate(7.125493,0.763446)" d="M -2.5,-0.80913858 C -2.5,1.9508614 -4.7400000,4.1908614 -7.5,4.1908614 L -7.5,-5.8091386 C -4.7400000,-5.8091386 -2.5,-3.5691386 -2.5,-0.80913858 z " id="path4235" fill-rule="evenodd" stroke="#000000" stroke-width="1.25"/>
  </marker>
  <marker id="Arrow2Send" refX="0.0" refY="0.0" orient="auto" inkscape:stockid="Arrow2Send">
   <path transform="scale(0.3) rotate(180) translate(-2.3,0)" d="M 8.7185878,4.0337352 L -2.2072895,0.016013256 L 8.7185884,-4.0017078 C 6.9730900,-1.6296469 6.9831476,1.6157441 8.7185878,4.0337352 z " id="path4149" fill-rule="evenodd" stroke-linejoin="round" stroke-width=".625"/>
  </marker>
  <marker id="TriangleOutS" refX="0.0" refY="0.0" orient="auto" inkscape:stockid="TriangleOutS">
   <path transform="scale(0.2)" d="M 5.77,0.0 L -2.88,5.0 L -2.88,-5.0 L 5.77,0.0 z " id="path4220" fill-rule="evenodd" stroke="#000000" stroke-width="1.25"/>
  </marker>
  <marker id="CurveIn" refX="0.0" refY="0.0" orient="auto" inkscape:stockid="CurveIn">
   <path transform="scale(0.6)" d="M 4.6254930,-5.0456926 C 1.8654930,-5.0456926 -0.37450702,-2.8056926 -0.37450702,-0.045692580 C -0.37450702,2.7143074 1.8654930,4.9543074 4.6254930,4.9543074" id="path4238" fill="none" fill-rule="evenodd" stroke="#000000" stroke-width="1.25"/>
  </marker>
  <marker orient="auto" id="InfiniteLineStart" inkscape:stockid="InfiniteLineStart">
   <g transform="translate(-13,0)" id="g4298">
    <circle cx="3" r=".8" id="circle4300"/>
    <circle cx="6.5" r=".8" id="circle4302"/>
    <circle cx="10" r=".8" id="circle4304"/>
   </g>
  </marker>
  <marker id="StopS" refX="0.0" refY="0.0" orient="auto" inkscape:stockid="StopS">
   <path transform="scale(0.2)" d="M 0.0,5.65 L 0.0,-5.65" id="path4229" fill="none" fill-rule="evenodd" stroke="#000000" fill-opacity=".75" stroke-width="1.25"/>
  </marker>
  <marker id="Arrow2Sstart" refX="0.0" refY="0.0" orient="auto" inkscape:stockid="Arrow2Sstart">
   <path transform="scale(0.3) translate(-2.3,0)" d="M 8.7185878,4.0337352 L -2.2072895,0.016013256 L 8.7185884,-4.0017078 C 6.9730900,-1.6296469 6.9831476,1.6157441 8.7185878,4.0337352 z " id="path4146" fill-rule="evenodd" stroke-linejoin="round" stroke-width=".625"/>
  </marker>
  <marker id="DiamondS" refX="0.0" refY="0.0" orient="auto" inkscape:stockid="DiamondS">
   <path transform="scale(0.2)" d="M 0,-7.0710768 L -7.0710894,0 L 0,7.0710589 L 7.0710462,0 L 0,-7.0710768 z " id="path4202" fill-rule="evenodd" stroke="#000000" stroke-width="1.25"/>
  </marker>
  <marker orient="auto" id="RazorWire" inkscape:stockid="RazorWire">
       style="overflow:visible"&gt;
            <path d="M 0.022727273,-0.74009011 L 0.022727273,0.69740989 L -7.7585227,3.0099099 L 10.678977,3.0099099 L 3.4914773,0.69740989 L 3.4914773,-0.74009011 L 10.741477,-2.8963401 L -7.7272727,-2.8963401 L 0.022727273,-0.74009011 z " transform="scale(0.8,0.8)" id="path4286" fill="#808080" fill-rule="evenodd" stroke="#000000" stroke-width=".125"/></marker>
 </defs>
 <g id="g4245" transform="matrix(0.99990728,0,0,0.99990728,-4.8659522,-1.3236405)">
  <circle transform="matrix(0.91935484,0,0,0.91935484,29.263352,9.6518204)" id="path4809-1" cx="288.47" cy="119.68" r="95.13" fill="#ffffff"/>
  <circle id="path4813-7" transform="matrix(0.91935484,0,0,0.91935484,29.263352,181.65182)" cx="288.47" cy="119.68" r="95.13" fill="#ffffff"/>
  <circle transform="matrix(0.91935484,0,0,0.91935484,29.263352,351.65182)" id="path4815-4" cx="288.47" cy="119.68" r="95.13" fill="#ffffff"/>
  <circle transform="matrix(0.91935484,0,0,0.91935484,29.263356,9.6518182)" id="path4809" cx="288.47" cy="119.68" r="95.13" opacity=".6" fill="#0092da"/>
  <circle id="path4813" transform="matrix(0.91935484,0,0,0.91935484,29.263356,181.65182)" cx="288.47" cy="119.68" r="95.13" opacity=".2" fill="#0092da"/>
  <circle transform="matrix(0.91935484,0,0,0.91935484,29.263356,351.65182)" id="path4815" cx="288.47" cy="119.68" r="95.13" opacity=".3" fill="#0092da"/>
  <path id="path4782" d="m 296.09195,17.829971 c -1.1544,-0.01235 -2.31572,5.1e-4 -3.47009,0.02965 -49.73086,-0.08599 -95.36898,42.46164 -97.87428,92.298409 -1.58709,25.61454 0.16862,51.29301 -0.50421,76.93512 0.21255,95.85547 -0.63683,191.72795 0.50421,287.57244 4.1478,45.80317 43.39248,85.55474 89.33253,89.62911 43.41739,4.86929 88.30297,-21.28198 103.92469,-62.28363 8.26021,-19.9307 8.13,-41.86942 7.41471,-63.08442 -0.27357,-110.32898 0.62412,-220.67496 -0.53386,-330.99303 -4.11589,-45.50134 -42.81102,-85.076596 -88.44276,-89.451162 -3.44097,-0.392503 -6.88777,-0.615452 -10.35094,-0.652495 z m -0.0297,24.972772 c 42.62651,0 77.20205,34.575538 77.20205,77.202047 0,42.62651 -34.57554,77.17239 -77.20205,77.17239 -42.62651,0 -77.17239,-34.54588 -77.17239,-77.17239 0,-42.626509 34.54588,-77.202047 77.17239,-77.202047 z m 0,170.835107 c 42.62651,0 77.20205,34.57554 77.20205,77.20205 0,42.62651 -34.57554,77.17239 -77.20205,77.17239 -42.62651,0 -77.17239,-34.54588 -77.17239,-77.17239 0,-42.62651 34.54588,-77.20205 77.17239,-77.20205 z m 0,170.83512 c 42.62651,0 77.20205,34.57553 77.20205,77.20204 0,42.62651 -34.57554,77.17239 -77.20205,77.17239 -42.62651,0 -77.17239,-34.54588 -77.17239,-77.17239 0,-42.62651 34.54588,-77.20204 77.17239,-77.20204 z" inkscape:connector-curvature="0" fill="#0092da" color="#000000" stroke-width="200"/>
  <path d="m 296.09195,17.829971 c -1.1544,-0.01235 -2.31572,5.1e-4 -3.47009,0.02965 -49.73086,-0.08599 -95.36898,42.46164 -97.87428,92.298409 -1.58709,25.61454 0.16862,51.29301 -0.50421,76.93512 0.21255,95.85547 -0.63683,191.72795 0.50421,287.57244 4.1478,45.80317 43.39248,85.55474 89.33253,89.62911 43.41739,4.86929 88.30297,-21.28198 103.92469,-62.28363 8.26021,-19.9307 8.13,-41.86942 7.41471,-63.08442 -0.27357,-110.32898 0.62412,-220.67496 -0.53386,-330.99303 -4.11589,-45.50134 -42.81102,-85.076596 -88.44276,-89.451162 -3.44097,-0.392503 -6.88777,-0.615452 -10.35094,-0.652495 z m -0.0297,24.972772 c 42.62651,0 77.20205,34.575538 77.20205,77.202047 0,42.62651 -34.57554,77.17239 -77.20205,77.17239 -42.62651,0 -77.17239,-34.54588 -77.17239,-77.17239 0,-42.626509 34.54588,-77.202047 77.17239,-77.202047 z m 0,170.835107 c 42.62651,0 77.20205,34.57554 77.20205,77.20205 0,42.62651 -34.57554,77.17239 -77.20205,77.17239 -42.62651,0 -77.17239,-34.54588 -77.17239,-77.17239 0,-42.62651 34.54588,-77.20205 77.17239,-77.20205 z m 0,170.83512 c 42.62651,0 77.20205,34.57553 77.20205,77.20204 0,42.62651 -34.57554,77.17239 -77.20205,77.17239 -42.62651,0 -77.17239,-34.54588 -77.17239,-77.17239 0,-42.62651 34.54588,-77.20204 77.17239,-77.20204 z" id="path8151" inkscape:connector-curvature="0" fill="#0092da" color="#000000" stroke-width="8"/>
 </g>
</svg>
