<?xml version="1.0" encoding="UTF-8" standalone="no"?>
<svg xmlns="http://www.w3.org/2000/svg" xmlns:sodipodi="http://sodipodi.sourceforge.net/DTD/sodipodi-0.dtd" xmlns:inkscape="http://www.inkscape.org/namespaces/inkscape" version="1.0" width="580" height="580">
 <metadata id="metadata2975"/>
 <defs id="defs4">
  <symbol id="symbol-university" viewBox="244.5 110 489 219.9">
   <path d="M79,43l57,119c0,0,21-96,104-96s124,106,124,106l43-133l82-17L0,17L79,43z" id="path4460"/>
   <path fill="none" stroke="#000000" stroke-width="20" d="M94,176l-21,39" id="path4462"/>
   <path d="M300,19c0,10.5-22.6,19-50.5,19S199,29.5,199,19s22.6-19,50.5-19S300,8.5,300,19z" id="path4464"/>
   <path ill="none" stroke="#000000" stroke-width="20" d="M112,216l-16-38L64,88c0,0-9-8-4-35s16-24,16-24" id="path4466"/>
  </symbol>
  <symbol viewBox="244.5 110 489 219.9" id="symbol9807">
   <path id="path9809" d="M79,43l57,119c0,0,21-96,104-96s124,106,124,106l43-133l82-17L0,17L79,43z"/>
   <path id="path9811" d="M94,176l-21,39" stroke-width="20" stroke="#000000" fill="none"/>
   <path id="path9813" d="M300,19c0,10.5-22.6,19-50.5,19S199,29.5,199,19s22.6-19,50.5-19S300,8.5,300,19z"/>
   <path id="path9815" d="M112,216l-16-38L64,88c0,0-9-8-4-35s16-24,16-24" stroke-width="20" stroke="#000000" ill="none"/>
  </symbol>
  <linearGradient id="linearGradient2936">
   <stop id="stop2938" stop-color="#8acf6b"/>
   <stop offset="1" id="stop2940" stop-color="#368912"/>
  </linearGradient>
  <linearGradient id="linearGradient2952">
   <stop id="stop2954" stop-color="#c0d50d"/>
   <stop offset="1" id="stop2956" stop-color="#eef2cd"/>
  </linearGradient>
  <marker inkscape:stockid="RazorWire" id="RazorWire" orient="auto">
       style="overflow:visible"&gt;
         <path id="path4286" transform="scale(0.8,0.8)" d="M 0.022727273,-0.74009011 L 0.022727273,0.69740989 L -7.7585227,3.0099099 L 10.678977,3.0099099 L 3.4914773,0.69740989 L 3.4914773,-0.74009011 L 10.741477,-2.8963401 L -7.7272727,-2.8963401 L 0.022727273,-0.74009011 z " fill="#808080" fill-rule="evenodd" stroke="#000000" stroke-width=".125"/></marker>
  <marker inkscape:stockid="DiamondS" orient="auto" refY="0.0" refX="0.0" id="DiamondS">
   <path id="path4202" d="M 0,-7.0710768 L -7.0710894,0 L 0,7.0710589 L 7.0710462,0 L 0,-7.0710768 z " transform="scale(0.2)" fill-rule="evenodd" stroke="#000000" stroke-width="1.25"/>
  </marker>
  <marker inkscape:stockid="Arrow2Sstart" orient="auto" refY="0.0" refX="0.0" id="Arrow2Sstart">
   <path id="path4146" d="M 8.7185878,4.0337352 L -2.2072895,0.016013256 L 8.7185884,-4.0017078 C 6.9730900,-1.6296469 6.9831476,1.6157441 8.7185878,4.0337352 z " transform="scale(0.3) translate(-2.3,0)" fill-rule="evenodd" stroke-linejoin="round" stroke-width=".625"/>
  </marker>
  <marker inkscape:stockid="StopS" orient="auto" refY="0.0" refX="0.0" id="StopS">
   <path id="path4229" d="M 0.0,5.65 L 0.0,-5.65" transform="scale(0.2)" fill="none" fill-rule="evenodd" stroke="#000000" fill-opacity=".75" stroke-width="1.25"/>
  </marker>
  <marker inkscape:stockid="InfiniteLineStart" id="InfiniteLineStart" orient="auto">
   <g id="g4298" transform="translate(-13,0)">
    <circle id="circle4300" r=".8" cx="3"/>
    <circle id="circle4302" r=".8" cx="6.5"/>
    <circle id="circle4304" r=".8" cx="10"/>
   </g>
  </marker>
  <marker inkscape:stockid="CurveIn" orient="auto" refY="0.0" refX="0.0" id="CurveIn">
   <path id="path4238" d="M 4.6254930,-5.0456926 C 1.8654930,-5.0456926 -0.37450702,-2.8056926 -0.37450702,-0.045692580 C -0.37450702,2.7143074 1.8654930,4.9543074 4.6254930,4.9543074" transform="scale(0.6)" fill="none" fill-rule="evenodd" stroke="#000000" stroke-width="1.25"/>
  </marker>
  <marker inkscape:stockid="TriangleOutS" orient="auto" refY="0.0" refX="0.0" id="TriangleOutS">
   <path id="path4220" d="M 5.77,0.0 L -2.88,5.0 L -2.88,-5.0 L 5.77,0.0 z " transform="scale(0.2)" fill-rule="evenodd" stroke="#000000" stroke-width="1.25"/>
  </marker>
  <marker inkscape:stockid="Arrow2Send" orient="auto" refY="0.0" refX="0.0" id="Arrow2Send">
   <path id="path4149" d="M 8.7185878,4.0337352 L -2.2072895,0.016013256 L 8.7185884,-4.0017078 C 6.9730900,-1.6296469 6.9831476,1.6157441 8.7185878,4.0337352 z " transform="scale(0.3) rotate(180) translate(-2.3,0)" fill-rule="evenodd" stroke-linejoin="round" stroke-width=".625"/>
  </marker>
  <marker inkscape:stockid="SemiCircleOut" orient="auto" refY="0.0" refX="0.0" id="SemiCircleOut">
   <path id="path4235" d="M -2.5,-0.80913858 C -2.5,1.9508614 -4.7400000,4.1908614 -7.5,4.1908614 L -7.5,-5.8091386 C -4.7400000,-5.8091386 -2.5,-3.5691386 -2.5,-0.80913858 z " transform="scale(0.6) translate(7.125493,0.763446)" fill-rule="evenodd" stroke="#000000" stroke-width="1.25"/>
  </marker>
  <marker inkscape:stockid="Arrow1Send" orient="auto" refY="0.0" refX="0.0" id="Arrow1Send">
   <path id="path4131" d="M 0.0,0.0 L 5.0,-5.0 L -12.5,0.0 L 5.0,5.0 L 0.0,0.0 z " transform="scale(0.2) rotate(180) translate(6,0)" fill-rule="evenodd" stroke="#000000" stroke-width="1.25"/>
  </marker>
  <marker inkscape:stockid="Arrow1Sstart" orient="auto" refY="0.0" refX="0.0" id="Arrow1Sstart">
   <path id="path4128" d="M 0.0,0.0 L 5.0,-5.0 L -12.5,0.0 L 5.0,5.0 L 0.0,0.0 z " transform="scale(0.2) translate(6,0)" fill-rule="evenodd" stroke="#000000" stroke-width="1.25"/>
  </marker>
  <marker inkscape:stockid="Tail" orient="auto" refY="0.0" refX="0.0" id="Tail">
   <g id="g4152" transform="scale(-1.2)">
    <path id="path4154" d="M -3.8048674,-3.9585227 L 0.54352094,0" fill="none" fill-rule="evenodd" stroke="#000000" stroke-linecap="round" stroke-width=".8"/>
    <path id="path4156" d="M -1.2866832,-3.9585227 L 3.0617053,0" fill="none" fill-rule="evenodd" stroke="#000000" stroke-linecap="round" stroke-width=".8"/>
    <path id="path4158" d="M 1.3053582,-3.9585227 L 5.6537466,0" fill="none" fill-rule="evenodd" stroke="#000000" stroke-linecap="round" stroke-width=".8"/>
    <path id="path4160" d="M -3.8048674,4.1775838 L 0.54352094,0.21974226" fill="none" fill-rule="evenodd" stroke="#000000" stroke-linecap="round" stroke-width=".8"/>
    <path id="path4162" d="M -1.2866832,4.1775838 L 3.0617053,0.21974226" fill="none" fill-rule="evenodd" stroke="#000000" stroke-linecap="round" stroke-width=".8"/>
    <path id="path4164" d="M 1.3053582,4.1775838 L 5.6537466,0.21974226" fill="none" fill-rule="evenodd" stroke="#000000" stroke-linecap="round" stroke-width=".8"/>
   </g>
  </marker>
  <marker inkscape:stockid="Arrow1Lend" orient="auto" refY="0.0" refX="0.0" id="Arrow1Lend">
   <path id="path4119" d="M 0.0,0.0 L 5.0,-5.0 L -12.5,0.0 L 5.0,5.0 L 0.0,0.0 z " transform="scale(0.8) rotate(180) translate(12.5,0)" fill-rule="evenodd" stroke="#000000" stroke-width="1.25"/>
  </marker>
  <marker inkscape:stockid="TriangleOutL" orient="auto" refY="0.0" refX="0.0" id="TriangleOutL">
   <path id="path4214" d="M 5.77,0.0 L -2.88,5.0 L -2.88,-5.0 L 5.77,0.0 z " transform="scale(0.8)" fill-rule="evenodd" stroke="#000000" stroke-width="1.25"/>
  </marker>
  <marker inkscape:stockid="Arrow1Mend" orient="auto" refY="0.0" refX="0.0" id="Arrow1Mend">
   <path id="path4125" d="M 0.0,0.0 L 5.0,-5.0 L -12.5,0.0 L 5.0,5.0 L 0.0,0.0 z " transform="scale(0.4) rotate(180) translate(10,0)" fill-rule="evenodd" stroke="#000000" stroke-width="1.25"/>
  </marker>
  <marker inkscape:stockid="Arrow2Lend" orient="auto" refY="0.0" refX="0.0" id="Arrow2Lend">
   <path id="path4137" d="M 8.7185878,4.0337352 L -2.2072895,0.016013256 L 8.7185884,-4.0017078 C 6.9730900,-1.6296469 6.9831476,1.6157441 8.7185878,4.0337352 z " transform="scale(1.1) rotate(180) translate(1,0)" fill-rule="evenodd" stroke-linejoin="round" stroke-width=".625"/>
  </marker>
  <symbol id="symbol14628" viewBox="244.5 110 489 219.9">
   <path d="M79,43l57,119c0,0,21-96,104-96s124,106,124,106l43-133l82-17L0,17L79,43z" id="path14630"/>
   <path fill="none" stroke="#000000" stroke-width="20" d="M94,176l-21,39" id="path14632"/>
   <path d="M300,19c0,10.5-22.6,19-50.5,19S199,29.5,199,19s22.6-19,50.5-19S300,8.5,300,19z" id="path14634"/>
   <path ill="none" stroke="#000000" stroke-width="20" d="M112,216l-16-38L64,88c0,0-9-8-4-35s16-24,16-24" id="path14636"/>
  </symbol>
 </defs>
 <g id="g1327">
  <path d="M 66.275,1.768 C 24.94,1.768 1.704,23.139 1.704,66.804 L 1.704,516.927 C 1.704,557.771 22.599,579.156 63.896,579.156 L 515.92,579.156 C 557.227,579.156 578.149,558.841 578.149,516.927 L 578.149,66.804 C 578.149,24.203 557.227,1.768 514.628,1.768 C 514.624,1.768 66.133,1.625 66.275,1.768 z " id="path1329" fill="#734A08" stroke="#eee" stroke-width="3.408"/>
 </g>
 <path d="M 290.72462,56.635294 L 274.15558,495.07736 L 161.99598,495.07736 L 161.99598,519.29364 L 293.27369,519.29364 L 290.72462,56.635294 z" id="path2530" sodipodi:nodetypes="cccccc" fill="#ffffff" fill-rule="evenodd" stroke="#ffffff" stroke-linejoin="round" stroke-linecap="round" stroke-width="10.829"/>
 <path d="M 58.129612,137.95623 C 72.471306,151.94201 108.23813,167.91685 129.49519,166.24581 C 154.10833,166.10079 179.6555,156.61549 205.96764,139.48046 C 230.3105,123.16461 258.95836,115.4587 290.08734,112.7151 L 289.45007,133.10775 C 256.221,129.45111 233.11466,148.57061 205.96764,158.59857 C 186.08086,169.09013 167.49204,180.28967 129.49519,180.90304 C 90.185727,176.77524 72.020119,157.00736 58.129612,137.95623 z" id="path2534" sodipodi:nodetypes="cccccccc" fill="#ffffff" fill-rule="evenodd" stroke="#ffffff" stroke-linejoin="round" stroke-linecap="round" stroke-width="5.415"/>
 <path d="M 37.728248,384.58495 L 121.84795,182.17757 L 204.69311,384.58495 L 37.728248,384.58495 z" id="path3429" sodipodi:nodetypes="cccc" fill="none" fill-rule="evenodd" stroke="#ffffff" stroke-linejoin="round" stroke-linecap="round" stroke-width="10.829"/>
 <path d="M 35.139336,379.0259 C 40.109268,412.00699 76.756716,437.65478 121.21067,437.65478 C 165.66464,437.65478 202.31208,412.00699 207.28201,379.0259 L 35.139336,379.0259 z" id="path3431" fill="#ffffff" stroke="#ffffff" stroke-linejoin="round" stroke-linecap="round" stroke-width="10.829"/>
 <path sodipodi:nodetypes="cccccc" id="path3446" d="M 291.09268,56.635294 L 307.66172,495.07736 L 419.82132,495.07736 L 419.82132,519.29364 L 288.54362,519.29364 L 291.09268,56.635294 z" fill="#ffffff" fill-rule="evenodd" stroke="#ffffff" stroke-linejoin="round" stroke-linecap="round" stroke-width="10.829"/>
 <path sodipodi:nodetypes="cccccccc" id="path3448" d="M 523.68769,137.95623 C 509.346,151.94201 473.57917,167.91685 452.32211,166.24581 C 427.70897,166.10079 402.1618,156.61549 375.84966,139.48046 C 351.5068,123.16461 322.85894,115.4587 291.72996,112.7151 L 292.36723,133.10775 C 325.59631,129.45111 348.70264,148.57061 375.84966,158.59857 C 395.73644,169.09013 414.32526,180.28967 452.32211,180.90304 C 491.63157,176.77524 509.79719,157.00736 523.68769,137.95623 z" fill="#ffffff" fill-rule="evenodd" stroke="#ffffff" stroke-linejoin="round" stroke-linecap="round" stroke-width="5.415"/>
 <path sodipodi:nodetypes="cccc" id="path3450" d="M 544.08905,384.58495 L 459.96935,182.17757 L 377.12419,384.58495 L 544.08905,384.58495 z" fill="none" fill-rule="evenodd" stroke="#ffffff" stroke-linejoin="round" stroke-linecap="round" stroke-width="10.829"/>
 <path id="path3452" d="M 546.67797,379.0259 C 541.70804,412.00699 505.06059,437.65478 460.60663,437.65478 C 416.15266,437.65478 379.50522,412.00699 374.53529,379.0259 L 546.67797,379.0259 z" fill="#ffffff" stroke="#ffffff" stroke-linejoin="round" stroke-linecap="round" stroke-width="10.829"/>
</svg>
