<?xml version="1.0" encoding="UTF-8" standalone="no"?>
<svg xmlns="http://www.w3.org/2000/svg" xmlns:sodipodi="http://sodipodi.sourceforge.net/DTD/sodipodi-0.dtd" xmlns:inkscape="http://www.inkscape.org/namespaces/inkscape" version="1.0" width="580" height="580">
 <metadata id="metadata1976"/>
 <defs id="defs4">
  <marker viewBox="0 0 10 10" refY="5" refX="10" orient="auto" markerWidth="4" markerUnits="strokeWidth" markerHeight="3" id="ArrowStart">
   <path id="path2111" d="M 10 0 L 0 5 L 10 10 z"/>
  </marker>
  <marker viewBox="0 0 10 10" refY="5" orient="auto" markerWidth="4" markerUnits="strokeWidth" markerHeight="3" id="ArrowEnd">
   <path id="path2108" d="M 0 0 L 10 5 L 0 10 z"/>
  </marker>
 </defs>
 <g id="g1327">
  <path d="M 66.275,1.768 C 24.94,1.768 1.704,23.139 1.704,66.804 L 1.704,516.927 C 1.704,557.771 22.6,579.156 63.896,579.156 L 515.92,579.156 C 557.227,579.156 578.149,558.842 578.149,516.927 L 578.149,66.804 C 578.149,24.203 557.227,1.768 514.628,1.768 C 514.624,1.768 66.133,1.625 66.275,1.768 z" id="path1329" fill="#734A08" stroke="#eeeeee" stroke-width="3.408"/>
 </g>
 <path d="M 170.84645,479.71764 C 134.26479,459.08465 111.96923,410.84242 128.43193,338.74121 C 139.98073,288.16121 173.63315,225.7375 147.84207,173.75941 C 179.12805,195.38395 211.6556,246.80618 244.46049,304.88437 C 246.72251,242.07667 214.13127,200.92511 237.55918,115.09824 C 253.63467,221.27702 318.11863,227.8581 350.85571,324.43808 C 364.7804,279.02904 393.74644,264.08309 379.61117,151.33015 C 521.95367,345.72774 440.82571,414.78419 412.39237,484.31853 L 421.59417,387.70014 C 376.95048,516.74999 341.18167,540.55802 308.87272,569.43472 C 326.92995,508.85654 334.05033,448.27833 297.3705,387.70014 C 288.46535,487.16243 263.33162,466.46438 258.26309,546.43034 C 208.00879,508.50069 197.68748,469.5924 188.67484,406.10364 C 181.83766,413.53277 170.29289,444.58439 170.84645,479.71764 z" id="path4356" sodipodi:nodetypes="cscccccccccccc" fill="#ffffff" fill-rule="evenodd"/>
 <path d="M 274.94127,15.604315 C 237.71543,166.76262 305.68075,165.43455 343.37933,254.27475 C 369.82192,117.28646 290.71622,148.10885 274.94127,15.604315 z" id="path4358" sodipodi:nodetypes="ccc" fill="#ffffff" fill-rule="evenodd"/>
</svg>
