<?xml version="1.0" encoding="UTF-8" standalone="no"?>
<svg xmlns="http://www.w3.org/2000/svg" xmlns:xlink="http://www.w3.org/1999/xlink" xmlns:sodipodi="http://sodipodi.sourceforge.net/DTD/sodipodi-0.dtd" xmlns:inkscape="http://www.inkscape.org/namespaces/inkscape" version="1.0" width="580" height="580">
 <metadata id="metadata2975"/>
 <defs id="defs4">
  <symbol viewBox="244.5 110 489 219.9" id="symbol-university">
   <path id="path4460" d="M79,43l57,119c0,0,21-96,104-96s124,106,124,106l43-133l82-17L0,17L79,43z"/>
   <path id="path4462" d="M94,176l-21,39" stroke-width="20" stroke="#000000" fill="none"/>
   <path id="path4464" d="M300,19c0,10.5-22.6,19-50.5,19S199,29.5,199,19s22.6-19,50.5-19S300,8.5,300,19z"/>
   <path id="path4466" d="M112,216l-16-38L64,88c0,0-9-8-4-35s16-24,16-24" stroke-width="20" stroke="#000000" ill="none"/>
  </symbol>
  <radialGradient gradientUnits="userSpaceOnUse" gradientTransform="scale(0.79354273,1.2601716)" xlink:href="#linearGradient829" id="radialGradient874" cx="180.25" cy="198.42" r="101.58"/>
  <linearGradient id="linearGradient829">
   <stop id="stop830" stop-color="#ffffff" stop-opacity=".342"/>
   <stop offset="1" id="stop831" stop-color="#ffffff" stop-opacity="0"/>
  </linearGradient>
  <radialGradient gradientUnits="userSpaceOnUse" gradientTransform="scale(1.007004,0.99304475)" xlink:href="#linearGradient829" id="radialGradient832" cx="360.85" cy="167.47" r="46.39"/>
  <linearGradient gradientUnits="userSpaceOnUse" gradientTransform="scale(0.74491357,1.3424376)" xlink:href="#linearGradient855" id="linearGradient850" x1="465.29" y1="248.24" x2="463.27" y2="405.77"/>
  <linearGradient id="linearGradient855">
   <stop id="stop856" stop-color="#ffffff" stop-opacity="0"/>
   <stop offset="1" id="stop857" stop-color="#ffa617" stop-opacity=".733"/>
  </linearGradient>
  <linearGradient gradientUnits="userSpaceOnUse" gradientTransform="scale(1.4586159,0.68558144)" xlink:href="#linearGradient855" id="linearGradient854" x1="157.81" y1="120.96" x2="155.41" y2="231.63"/>
  <clipPath id="clipoutline2">
   <path d="m 55.8,12 0.76,0.16 c 8.84,-2.94 28.68,8.64 24.26,18.96 -1.12,1.62 -0.93,4.5 0.42,6.31 L 56.43,62.25 c -1.39,-1.39 -4.48,-1.36 -5.9,0 L 9.5,101.63 c -3.74,3.59 -0.8,6.64 0.78,8.25 l 7.36,7.36 c 1.61,1.6 5.86,3.76 8.88,0.56 L 65.24,76.99 c 1.35,-1.42 1.36,-4.47 0,-5.87 0,0 0.01,-0.02 0,-0.02 L 90.15,46.2 c 2.63,2.37 5.113827,2.574854 7.47,1.93 4.55057,-1.245432 7.08725,3.206643 9.81,6.46 l -1.23,1.21 c -1.82,1.84 -1.65,4.94 0.39,6.98 2.04,2.04 5.15,2.21 6.97,0.39 l 8.14,-8.13 c 1.82,-1.84 1.65,-4.94 -0.4,-6.97 -1.84,-1.85 -4.51,-2.09 -6.37,-0.77 -5.58,-6.26 -2.65,-7.2 -10.01,-15.35 L 91.13,17.86 C 81.2,8.12 68.3,8.13 55.8,12 z" id="outline2"/>
  </clipPath>
 </defs>
 <g id="g1327">
  <path d="M 66.275,1.768 C 24.94,1.768 1.704,23.139 1.704,66.804 L 1.704,516.927 C 1.704,557.771 22.599,579.156 63.896,579.156 L 515.92,579.156 C 557.227,579.156 578.149,558.841 578.149,516.927 L 578.149,66.804 C 578.149,24.203 557.227,1.768 514.628,1.768 C 514.624,1.768 66.133,1.625 66.275,1.768 z " id="path1329" fill="#734A08" stroke="#eee" stroke-width="3.408"/>
 </g>
 <circle transform="matrix(67.641957,0,0,67.641957,-1282.0203,-13246.677)" cx="23.316" cy="197.47" r="1.086" id="circle2193" fill="#ffffff"/>
 <path inkscape:connector-curvature="0" d="m 366.48188,201.8298 c 33.61805,1.21755 47.68758,28.07141 47.68758,28.07141 l 108.43006,148.60938 c 4.46437,6.69655 7.1024,14.6783 7.1024,23.40412 0,23.13354 -18.73682,41.87037 -41.87037,41.87037 -5.479,0 -10.55214,-1.21756 -15.42236,-3.04389 L 406.99941,422.5455 v 65.27449 H 180.06065 V 422.5455 l -65.40977,18.19569 c -4.6673,1.82633 -9.87573,3.04389 -15.422372,3.04389 -23.133549,0 -41.870371,-18.73683 -41.870371,-41.87037 0,-8.72582 2.638036,-16.70757 7.237689,-23.40412 L 172.8906,229.90121 c 0,0 14.27245,-26.85386 47.68758,-28.07141 h 145.9037 z m -72.91803,240.39951 0,0 84.75537,-28.07141 -1.89397,-0.40585 c -58.37501,-17.18106 -35.71495,-94.42817 22.66006,-77.24712 l 7.98175,2.77332 v -87.19048 l -113.50321,37.06779 -113.5032,-37.06779 v 87.19048 l 7.98175,-2.77332 c 58.37501,-17.2487 81.23799,60.06606 22.66006,77.24712 l -1.89398,0.40585 84.75537,28.07141 0,0 z" id="path2195" fill="#ffffff"/>
 <path inkscape:connector-curvature="0" d="m 526.79332,539.22788 c 5.81721,0 10.41686,-4.59965 10.41686,-10.41686 l 0,0 c 0,-5.81721 -4.59965,-10.41686 -10.41686,-10.41686 H 68.586702 c -5.614283,0 -10.416862,4.59965 -10.416862,10.41686 l 0,0 c 0,5.81721 4.802579,10.41686 10.416862,10.41686 H 526.79332 z" id="path2197" fill="#ffffff"/>
 <path id="path17688" d="m 366.48188,201.8298 c 33.61805,1.21755 47.68758,28.07141 47.68758,28.07141 l 108.43006,148.60938 c 4.46437,6.69655 7.1024,14.6783 7.1024,23.40412 0,23.13354 -18.73682,41.87037 -41.87037,41.87037 -5.479,0 -10.55214,-1.21756 -15.42236,-3.04389 l -65.40978,-18.19569 0,65.27449 -226.93876,0 0,-65.27449 -65.40977,18.19569 c -4.6673,1.82633 -9.87573,3.04389 -15.422372,3.04389 -23.133549,0 -41.870371,-18.73683 -41.870371,-41.87037 0,-8.72582 2.638036,-16.70757 7.237689,-23.40412 L 172.8906,229.90121 c 0,0 14.27245,-26.85386 47.68758,-28.07141 z" inkscape:connector-curvature="0" sodipodi:nodetypes="cccssccccccsscccc" opacity=".001" fill="#ffffff"/>
</svg>
