<?xml version="1.0" encoding="UTF-8" standalone="no"?>
<svg xmlns="http://www.w3.org/2000/svg" xmlns:sodipodi="http://sodipodi.sourceforge.net/DTD/sodipodi-0.dtd" xmlns:inkscape="http://www.inkscape.org/namespaces/inkscape" version="1.0" width="580" height="580">
 <metadata id="metadata1976"/>
 <defs id="defs4">
  <marker viewBox="0 0 10 10" refY="5" refX="10" orient="auto" markerWidth="4" markerUnits="strokeWidth" markerHeight="3" id="ArrowStart">
   <path id="path2111" d="M 10 0 L 0 5 L 10 10 z"/>
  </marker>
  <marker viewBox="0 0 10 10" refY="5" orient="auto" markerWidth="4" markerUnits="strokeWidth" markerHeight="3" id="ArrowEnd">
   <path id="path2108" d="M 0 0 L 10 5 L 0 10 z"/>
  </marker>
 </defs>
 <g id="g1327">
  <path d="M 66.275,1.768 C 24.94,1.768 1.704,23.139 1.704,66.804 L 1.704,516.927 C 1.704,557.771 22.6,579.156 63.896,579.156 L 515.92,579.156 C 557.227,579.156 578.149,558.842 578.149,516.927 L 578.149,66.804 C 578.149,24.203 557.227,1.768 514.628,1.768 C 514.624,1.768 66.133,1.625 66.275,1.768 z" id="path1329" fill="#734A08" stroke="#eeeeee" stroke-width="3.408"/>
 </g>
 <path d="m 178.55078,226.45042 c 1.13144,8.8371 8.46479,15.38618 16.12978,14.40482 l 7.36403,-0.94286 c 7.66503,-0.98136 13.11183,-9.16674 11.9804,-18.00385 l -3.86245,-30.16762 c -1.13144,-8.8371 -8.46476,-15.38626 -16.12983,-14.40479 l -7.36398,0.94284 c -7.66503,0.98135 -13.11185,9.16674 -11.98042,18.00383 l 3.86247,30.16763 z m 14.31001,-2.18259 c -3.93581,-3.51488 -6.69751,-25.08498 -3.77415,-29.47806 2.9233,-4.39311 2.83007,-4.38119 6.76589,-0.86627 3.93581,3.51487 6.6975,25.08498 3.77414,29.47807 -2.92329,4.39311 -2.83006,4.38116 -6.76588,0.86626 z" id="rect3389" sodipodi:nodetypes="cccccccccczzzz" fill="#ffffff"/>
 <path sodipodi:nodetypes="cccccccccczzzz" id="path3395" d="m 259.93524,142.03746 c 7.60381,5.44209 17.71418,4.87846 22.23787,-1.23975 l 4.34607,-5.87792 c 4.52371,-6.11823 1.9559,-15.75568 -5.64791,-21.19783 L 254.91376,95.143927 c -7.60384,-5.44209 -17.71421,-4.878534 -22.23789,1.239758 l -4.34605,5.877905 c -4.52375,6.11821 -1.95593,15.75568 5.64791,21.19784 l 25.95751,18.57803 z m 8.17482,-11.66981 c -5.4262,0.30249 -23.98607,-12.98089 -25.3642,-18.15341 -1.37815,-5.17241 -1.43317,-5.09802 3.99307,-5.40052 5.42623,-0.30251 23.98606,12.98091 25.36421,18.1534 1.37813,5.17244 1.43318,5.09804 -3.99308,5.40053 z" fill="#ffffff"/>
 <path d="m 235.90887,119.66591 c 8.87648,-0.76323 15.72468,-7.81806 15.06273,-15.51721 l -0.36157,7.0331 c -0.66197,-7.69921 -8.6139,-13.48154 -17.49039,-12.718358 l -30.30208,2.605328 c -8.87647,0.7632 -15.72479,7.81798 -15.06272,15.51722 l 0.36155,-7.03313 c 0.66196,7.69921 8.61388,13.4815 17.49038,12.71834 l 30.3021,-2.60529 z m -1.58597,-14.38838 c -3.67543,3.7863 -25.34163,5.64915 -29.60948,2.54572 -4.26778,-3.10333 -3.98535,11.42022 -0.30991,7.63389 3.67542,-3.78631 25.34167,-5.64916 29.60946,-2.54574 4.26781,3.10336 3.98537,-11.42022 0.30993,-7.63387 z" id="path3397" sodipodi:nodetypes="cccccccccczzzz" fill="#ffffff"/>
 <path d="m 207.30775,126.38134 c 5.59935,-7.48875 5.24652,-17.60867 -0.77608,-22.25888 l -5.78609,-4.467607 c -6.02262,-4.650222 -15.7115,-2.283797 -21.31091,5.204947 l -19.11491,25.56475 c -5.59936,7.48876 -5.24662,17.60868 0.77609,22.25888 l 5.78606,4.46759 c 6.02262,4.65026 15.7115,2.28382 21.31092,-5.20494 l 19.11492,-25.56474 z m -11.49693,-8.41621 c 0.18935,5.43131 -13.4779,23.71034 -18.67803,24.98038 -5.19999,1.27007 -5.12676,1.32662 -5.31613,-4.10473 -0.18936,-5.43136 13.47793,-23.71035 18.67801,-24.98041 5.20004,-1.27005 5.1268,-1.32663 5.31615,4.10476 z" id="path3534" sodipodi:nodetypes="cccccccccczzzz" fill="#ffffff"/>
 <path sodipodi:nodetypes="cccccccccczzzz" id="path3536" d="m 178.13476,185.55291 c 2.94996,8.40668 11.48811,13.28199 18.77977,10.72335 l -6.90153,1.40149 c 7.29173,-2.55867 10.91132,-11.70018 7.96139,-20.10689 L 187.9041,148.87257 c -2.94992,-8.40667 -11.48805,-13.28211 -18.77976,-10.72335 l 6.90154,-1.4015 c -7.29172,2.55868 -10.91128,11.70014 -7.96139,20.10687 l 10.07027,28.69832 z m 13.53998,-5.11956 c -4.5824,-2.61661 -11.78276,-23.13609 -9.84008,-28.04238 1.9426,-4.90622 -12.05293,-1.01544 -7.47052,1.60115 4.5824,2.61658 11.78277,23.1361 9.8401,28.04235 -1.94264,4.90626 12.05292,1.01546 7.4705,-1.60112 z" fill="#ffffff"/>
 <g id="g3540" transform="matrix(0.74204582,0,0,0.74204582,67.476143,46.031302)">
  <g transform="matrix(1.0907181,-0.2914957,0.2914957,1.0907181,-98.8285,72.452649)" id="g3490">
   <g transform="matrix(0.9826633,-0.1853992,0.1853992,0.9826633,-60.17152,31.061258)" id="g3500">
    <path sodipodi:nodetypes="cccsszzzssc" id="path3313" d="m 137.92957,221.66212 c -7.58542,0.60458 -11.32119,13.81445 -12.99324,20.91531 -0.79855,11.74113 9.76035,31.84764 15.41118,30.63495 40.72202,-3e-5 66.02183,27.71772 66.02183,68.43978 4e-5,40.72201 -27.11324,70.25322 -67.83529,70.25322 -16.18798,-3e-5 -24.46001,-14.39283 -40.587827,-11.81862 -15.673332,2.50166 -23.662466,9.76279 -28.251302,18.06731 -4.857361,8.79047 -9.926486,22.86389 6.128076,35.08654 16.487744,12.55244 31.261093,13.74345 53.039363,13.74342 67.62255,6e-5 127.14539,-57.70923 127.14531,-125.33187 -4e-5,-67.62265 -50.45552,-119.98994 -118.0781,-119.99004 z" fill="#ffffff"/>
    <path sodipodi:nodetypes="csccssccc" id="path3325" d="m 133.09373,224.64754 c -64.403852,-4e-5 -117.1032,52.60083 -117.103104,117.00462 3.1e-5,47.37503 23.678013,91.92373 64.401738,110.29016 l 26.601846,-46.2725 c -30.109595,-5.8038 -45.895746,-25.45708 -45.895746,-61.65394 -6.2e-5,-43.94094 30.509229,-77.95879 74.450206,-77.95879 12.23459,3e-5 16.71534,4.92072 29.06145,9.41063 l 11.3262,-42.64562 c -13.2782,-5.25876 -27.74167,-8.17456 -42.84259,-8.17456 z" opacity=".8" fill="#ffffff"/>
    <path sodipodi:nodetypes="ccsccscc" d="m 156.75706,289.14862 15.23845,10.68689 c 30.42126,23.19058 49.37576,21.86305 67.63242,-3.7246 18.25666,-25.58769 -19.43768,-82.55651 -19.43768,-82.55651 0,0 -0.55988,-0.3995 -0.55988,-0.3995 0,0 -66.13262,-17.11106 -84.38924,8.47659 -18.25666,25.58769 -13.34578,43.94302 18.47989,65.16529 l 15.06289,10.93293" id="path3374" fill="#ffffff" fill-rule="evenodd"/>
   </g>
  </g>
  <path d="m 187.12038,514.0683 c 0,19.4203 -15.74327,35.16356 -35.16356,35.16356 -19.4203,0 -35.16356,-15.74326 -35.16356,-35.16356 0,-19.4203 15.74326,-35.16356 35.16356,-35.16356 19.42029,0 35.16356,15.74326 35.16356,35.16356 z" sodipodi:ry="35.163559" sodipodi:rx="35.163559" sodipodi:cy="514.0683" sodipodi:cx="151.95682" id="path3538" sodipodi:type="arc" fill="#ffffff"/>
 </g>
 <g id="g3548" transform="matrix(-0.54186052,0.50697067,0.50697067,0.54186052,241.93057,-91.527701)">
  <g id="g3550" transform="matrix(1.0907181,-0.2914957,0.2914957,1.0907181,-98.8285,72.452649)">
   <g id="g3552" transform="matrix(0.9826633,-0.1853992,0.1853992,0.9826633,-60.17152,31.061258)">
    <path d="m 137.92957,221.66212 c -7.58542,0.60458 -11.32119,13.81445 -12.99324,20.91531 -0.79855,11.74113 9.76035,31.84764 15.41118,30.63495 40.72202,-3e-5 66.02183,27.71772 66.02183,68.43978 4e-5,40.72201 -27.11324,70.25322 -67.83529,70.25322 -16.18798,-3e-5 -24.46001,-14.39283 -40.587827,-11.81862 -15.673332,2.50166 -23.662466,9.76279 -28.251302,18.06731 -4.857361,8.79047 -9.926486,22.86389 6.128076,35.08654 16.487744,12.55244 31.261093,13.74345 53.039363,13.74342 67.62255,6e-5 127.14539,-57.70923 127.14531,-125.33187 -4e-5,-67.62265 -50.45552,-119.98994 -118.0781,-119.99004 z" id="path3554" sodipodi:nodetypes="cccsszzzssc" fill="#ffffff"/>
    <path d="m 133.09373,224.64754 c -64.403852,-4e-5 -117.1032,52.60083 -117.103104,117.00462 3.1e-5,47.37503 23.678013,91.92373 64.401738,110.29016 l 26.601846,-46.2725 c -30.109595,-5.8038 -45.895746,-25.45708 -45.895746,-61.65394 -6.2e-5,-43.94094 30.509229,-77.95879 74.450206,-77.95879 12.23459,3e-5 16.71534,4.92072 29.06145,9.41063 l 11.3262,-42.64562 c -13.2782,-5.25876 -27.74167,-8.17456 -42.84259,-8.17456 z" id="path3556" sodipodi:nodetypes="csccssccc" opacity=".8" fill="#ffffff"/>
    <path id="path3558" d="m 156.75706,289.14862 15.23845,10.68689 c 30.42126,23.19058 49.37576,21.86305 67.63242,-3.7246 18.25666,-25.58769 -19.43768,-82.55651 -19.43768,-82.55651 0,0 -0.55988,-0.3995 -0.55988,-0.3995 0,0 -66.13262,-17.11106 -84.38924,8.47659 -18.25666,25.58769 -13.34578,43.94302 18.47989,65.16529 l 15.06289,10.93293" sodipodi:nodetypes="ccsccscc" fill="#ffffff" fill-rule="evenodd"/>
   </g>
  </g>
  <path sodipodi:type="arc" id="path3560" sodipodi:cx="151.95682" sodipodi:cy="514.0683" sodipodi:rx="35.163559" sodipodi:ry="35.163559" d="m 187.12038,514.0683 c 0,19.4203 -15.74327,35.16356 -35.16356,35.16356 -19.4203,0 -35.16356,-15.74326 -35.16356,-35.16356 0,-19.4203 15.74326,-35.16356 35.16356,-35.16356 19.42029,0 35.16356,15.74326 35.16356,35.16356 z" fill="#ffffff"/>
 </g>
 <path d="M 287.6875,25.0625 C 272.41161,37.008643 256.01475,48.391322 237.11047,53.712259 201.20204,65.107791 160.7002,60.414033 127.75,42.4375 119.76442,41.891892 115.58812,50.31637 109.23306,53.702178 94.143447,66.235988 78.306382,78.103405 64.125,91.59375 c -2.587389,5.722936 3.816552,10.18596 4.764815,15.5784 13.563158,29.81377 28.3726,62.13252 22.391435,95.7341 -6.105692,42.81579 -32.442664,79.65745 -40.080591,122.14596 -8.492787,54.88025 16.152824,114.42702 63.657481,144.18714 55.0913,38.30318 122.89175,51.32536 180.01686,85.76065 7.67782,3.62806 13.56669,-4.8136 20.00415,-7.38842 54.4043,-32.98846 118.58948,-48.56028 168.99585,-88.64283 28.88568,-21.5948 48.32841,-54.80724 53.78039,-90.48785 5.74572,-33.51024 -0.65606,-68.54754 -16.90555,-98.2645 -15.51203,-33.18508 -33.4428,-68.04724 -30.00081,-105.80243 2.68903,-27.36665 15.23092,-52.46165 24.84472,-77.85147 0.10994,-6.795344 -8.17884,-8.262472 -11.77613,-12.651977 C 486.81365,61.01643 470.13483,46.86311 451.66745,36.163247 c -11.4803,2.505969 -20.74452,11.507531 -32.47995,13.618003 -43.525,14.40095 -94.32737,5.198662 -129.5625,-24.5 -0.59909,-0.283146 -1.28983,-0.348406 -1.9375,-0.21875 z" id="path3610" fill="none" stroke="#ffffff" stroke-linejoin="round" stroke-linecap="round" stroke-width="16"/>
 <path sodipodi:nodetypes="cccscccccsccc" d="m 299.36814,552.79365 0,0 c 87.57849,-60.48622 234.86567,-71.30416 236.1719,-209.53289 0.62341,-61.98162 -36.26078,-81.56678 -49.04661,-158.18473 -5.84658,-35.03514 25.93859,-99.834935 25.93859,-99.834935 l -61.067,-46.035909 C 414.77305,62.373172 346.03301,76.290957 288.27326,28.720954 232.49025,78.52803 163.23714,67.171581 125.73251,45.378908 L 66.579838,93.646237 c 0,0 34.391022,63.571493 29.9707,98.797203 -9.666746,77.03468 -45.728329,97.97381 -42.58992,159.88557 6.915079,138.07616 154.530342,143.42038 244.497622,200.61111 l 0,0" id="path4295" opacity=".1" fill="#ffffff" fill-rule="evenodd" stroke="#ffffff" stroke-linejoin="round" stroke-linecap="round" stroke-width="9.548"/>
</svg>
