<?xml version="1.0" encoding="UTF-8" standalone="no"?>
<svg xmlns="http://www.w3.org/2000/svg" xmlns:sodipodi="http://sodipodi.sourceforge.net/DTD/sodipodi-0.dtd" xmlns:inkscape="http://www.inkscape.org/namespaces/inkscape" version="1.0" width="580" height="580">
 <metadata id="metadata2975"/>
 <defs id="defs4">
  <symbol viewBox="244.5 110 489 219.9" id="symbol-university">
   <path id="path4460" d="M79,43l57,119c0,0,21-96,104-96s124,106,124,106l43-133l82-17L0,17L79,43z"/>
   <path id="path4462" d="M94,176l-21,39" stroke-width="20" stroke="#000000" fill="none"/>
   <path id="path4464" d="M300,19c0,10.5-22.6,19-50.5,19S199,29.5,199,19s22.6-19,50.5-19S300,8.5,300,19z"/>
   <path id="path4466" d="M112,216l-16-38L64,88c0,0-9-8-4-35s16-24,16-24" stroke-width="20" stroke="#000000" ill="none"/>
  </symbol>
 </defs>
 <g id="g1327">
  <path d="M 66.275,1.768 C 24.94,1.768 1.704,23.139 1.704,66.804 L 1.704,516.927 C 1.704,557.771 22.599,579.156 63.896,579.156 L 515.92,579.156 C 557.227,579.156 578.149,558.841 578.149,516.927 L 578.149,66.804 C 578.149,24.203 557.227,1.768 514.628,1.768 C 514.624,1.768 66.133,1.625 66.275,1.768 z " id="path1329" fill="#734A08" stroke="#eee" stroke-width="3.408"/>
 </g>
 <path d="M 286.94406,44.001595 L 34.884618,235.90902 L 85.296174,235.90902 L 85.296174,543.77001 L 236.53218,543.77001 L 340.81297,543.77001 L 488.59196,543.77001 L 488.59196,235.90902 L 539.00386,235.90902 L 286.94406,44.001595 L 286.94406,44.001595 L 286.94406,44.001595 z" id="path645" sodipodi:nodetypes="cccccccccccc" opacity=".2" fill="#ffffff" fill-rule="evenodd" stroke="#ffffff" stroke-width="1.241"/>
 <path sodipodi:nodetypes="cccccccccccc" id="path3198" d="M 286.94406,34.001595 L 34.884618,225.90902 L 85.296174,225.90902 L 85.296174,543.77001 L 236.53218,543.77001 L 340.81297,543.77001 L 488.59196,543.77001 L 488.59196,225.90902 L 539.00386,225.90902 L 286.94406,34.001595 L 286.94406,34.001595 L 286.94406,34.001595 z" fill="none" fill-rule="evenodd" stroke="#ffffff" stroke-linejoin="round" stroke-width="20"/>
 <g id="g8776" transform="matrix(0.87658488,0,0,0.87658488,99.682021,266.47073)">
  <path inkscape:connector-curvature="0" sodipodi:nodetypes="ccssssssscssccccccccccc" id="flowRoot3192" d="m 117.84375,42.625 c -10.57662,3.9e-4 -19.790529,3.83221 -27.625,11.46875 -7.83376,7.63729 -11.749626,16.915957 -11.75,27.875 3.7e-4,10.97169 3.916241,20.3009 11.75,27.9375 7.83447,7.63723 17.04838,11.43781 27.625,11.4375 0.38998,1e-5 0.77047,-0.0216 1.15625,-0.0312 0.39015,0.01 0.79305,0.0313 1.1875,0.0312 10.57662,3.1e-4 19.75928,-3.80027 27.59375,-11.4375 7.83376,-7.6366 11.74963,-16.96581 11.75,-27.9375 -3.6e-4,-10.959043 -3.91624,-20.23771 -11.75,-27.875 -7.83447,-7.63654 -17.01713,-11.46836 -27.59375,-11.46875 -0.39434,1.4e-5 -0.79747,0.02135 -1.1875,0.03125 -0.38566,-0.0097 -0.76638,-0.03124 -1.15625,-0.03125 z M 87.875,130.15625 c -11.35344,2.9e-4 -17.609638,5.8771 -18.78125,17.625 l 0,138.03125 0,2.96875 L 119,287.3125 l 49.9375,1.46875 0,-2.96875 0,-138.03125 c -1.1716,-11.7479 -7.42781,-17.62471 -18.78125,-17.625 l -62.28125,0 z" fill="#ffffff"/>
  <path inkscape:connector-curvature="0" sodipodi:nodetypes="cc" d="m 79.060779,243.05446 -0.7002,-78.24513" id="path3239" fill="#ffffff" fill-rule="evenodd" stroke="#ffffff" stroke-linecap="round" stroke-width="67.1"/>
  <path inkscape:connector-curvature="0" id="path8774" d="m 155.06078,243.05446 -0.7002,-78.24513" sodipodi:nodetypes="cc" fill="#ffffff" fill-rule="evenodd" stroke="#ffffff" stroke-linecap="round" stroke-width="67.1"/>
 </g>
 <g transform="matrix(0.87658488,0,0,0.87658488,266.23315,266.47073)" id="g8789">
  <path inkscape:connector-curvature="0" d="m 117.84375,42.625 c -10.57662,3.9e-4 -19.790529,3.83221 -27.625,11.46875 -7.83376,7.63729 -11.749626,16.915957 -11.75,27.875 3.7e-4,10.97169 3.916241,20.3009 11.75,27.9375 7.83447,7.63723 17.04838,11.43781 27.625,11.4375 0.38998,1e-5 0.77047,-0.0216 1.15625,-0.0312 0.39015,0.01 0.79305,0.0313 1.1875,0.0312 10.57662,3.1e-4 19.75928,-3.80027 27.59375,-11.4375 7.83376,-7.6366 11.74963,-16.96581 11.75,-27.9375 -3.6e-4,-10.959043 -3.91624,-20.23771 -11.75,-27.875 -7.83447,-7.63654 -17.01713,-11.46836 -27.59375,-11.46875 -0.39434,1.4e-5 -0.79747,0.02135 -1.1875,0.03125 -0.38566,-0.0097 -0.76638,-0.03124 -1.15625,-0.03125 z M 87.875,130.15625 c -11.35344,2.9e-4 -17.609638,5.8771 -18.78125,17.625 l 0,138.03125 0,2.96875 L 119,287.3125 l 49.9375,1.46875 0,-2.96875 0,-138.03125 c -1.1716,-11.7479 -7.42781,-17.62471 -18.78125,-17.625 l -62.28125,0 z" id="path8791" sodipodi:nodetypes="ccssssssscssccccccccccc" fill="#ffffff"/>
  <path inkscape:connector-curvature="0" id="path8793" d="m 79.060779,243.05446 -0.7002,-78.24513" sodipodi:nodetypes="cc" fill="#ffffff" fill-rule="evenodd" stroke="#ffffff" stroke-linecap="round" stroke-width="67.1"/>
  <path inkscape:connector-curvature="0" sodipodi:nodetypes="cc" d="m 155.06078,243.05446 -0.7002,-78.24513" id="path8795" fill="#ffffff" fill-rule="evenodd" stroke="#ffffff" stroke-linecap="round" stroke-width="67.1"/>
 </g>
 <g id="g7680" transform="translate(20,0)">
  <g transform="matrix(0.48931467,0,0,0.48931467,107.15615,142.64262)" id="g7614">
   <path inkscape:connector-curvature="0" d="m 117.84375,42.625 c -10.57662,3.9e-4 -19.790529,3.83221 -27.625,11.46875 -7.83376,7.63729 -11.749626,16.915957 -11.75,27.875 3.7e-4,10.97169 3.916241,20.3009 11.75,27.9375 7.83447,7.63723 17.04838,11.43781 27.625,11.4375 0.38998,1e-5 0.77047,-0.0216 1.15625,-0.0312 0.39015,0.01 0.79305,0.0313 1.1875,0.0312 10.57662,3.1e-4 19.75928,-3.80027 27.59375,-11.4375 7.83376,-7.6366 11.74963,-16.96581 11.75,-27.9375 -3.6e-4,-10.959043 -3.91624,-20.23771 -11.75,-27.875 -7.83447,-7.63654 -17.01713,-11.46836 -27.59375,-11.46875 -0.39434,1.4e-5 -0.79747,0.02135 -1.1875,0.03125 -0.38566,-0.0097 -0.76638,-0.03124 -1.15625,-0.03125 z M 87.875,130.15625 c -11.35344,2.9e-4 -17.609638,5.8771 -18.78125,17.625 l 0,138.03125 0,2.96875 L 119,287.3125 l 49.9375,1.46875 0,-2.96875 0,-138.03125 c -1.1716,-11.7479 -7.42781,-17.62471 -18.78125,-17.625 l -62.28125,0 z" id="path7616" sodipodi:nodetypes="ccssssssscssccccccccccc" fill="#ffffff"/>
   <path inkscape:connector-curvature="0" id="path7618" d="m 79.060779,243.05446 -0.7002,-78.24513" sodipodi:nodetypes="cc" fill="#ffffff" fill-rule="evenodd" stroke="#ffffff" stroke-linecap="round" stroke-width="67.1"/>
   <path inkscape:connector-curvature="0" sodipodi:nodetypes="cc" d="m 155.06078,243.05446 -0.7002,-78.24513" id="path7620" fill="#ffffff" fill-rule="evenodd" stroke="#ffffff" stroke-linecap="round" stroke-width="67.1"/>
  </g>
  <g id="g7622" transform="matrix(0.48931467,0,0,0.48931467,207.15615,142.64262)">
   <path sodipodi:nodetypes="ccssssssscssccccccccccc" id="path7624" d="m 117.84375,42.625 c -10.57662,3.9e-4 -19.790529,3.83221 -27.625,11.46875 -7.83376,7.63729 -11.749626,16.915957 -11.75,27.875 3.7e-4,10.97169 3.916241,20.3009 11.75,27.9375 7.83447,7.63723 17.04838,11.43781 27.625,11.4375 0.38998,1e-5 0.77047,-0.0216 1.15625,-0.0312 0.39015,0.01 0.79305,0.0313 1.1875,0.0312 10.57662,3.1e-4 19.75928,-3.80027 27.59375,-11.4375 7.83376,-7.6366 11.74963,-16.96581 11.75,-27.9375 -3.6e-4,-10.959043 -3.91624,-20.23771 -11.75,-27.875 -7.83447,-7.63654 -17.01713,-11.46836 -27.59375,-11.46875 -0.39434,1.4e-5 -0.79747,0.02135 -1.1875,0.03125 -0.38566,-0.0097 -0.76638,-0.03124 -1.15625,-0.03125 z M 87.875,130.15625 c -11.35344,2.9e-4 -17.609638,5.8771 -18.78125,17.625 l 0,138.03125 0,2.96875 L 119,287.3125 l 49.9375,1.46875 0,-2.96875 0,-138.03125 c -1.1716,-11.7479 -7.42781,-17.62471 -18.78125,-17.625 l -62.28125,0 z" inkscape:connector-curvature="0" fill="#ffffff"/>
   <path sodipodi:nodetypes="cc" d="m 79.060779,243.05446 -0.7002,-78.24513" id="path7626" inkscape:connector-curvature="0" fill="#ffffff" fill-rule="evenodd" stroke="#ffffff" stroke-linecap="round" stroke-width="67.1"/>
   <path id="path7628" d="m 155.06078,243.05446 -0.7002,-78.24513" sodipodi:nodetypes="cc" inkscape:connector-curvature="0" fill="#ffffff" fill-rule="evenodd" stroke="#ffffff" stroke-linecap="round" stroke-width="67.1"/>
  </g>
  <g transform="matrix(0.48931467,0,0,0.48931467,307.15615,142.64262)" id="g7630">
   <path inkscape:connector-curvature="0" d="m 117.84375,42.625 c -10.57662,3.9e-4 -19.790529,3.83221 -27.625,11.46875 -7.83376,7.63729 -11.749626,16.915957 -11.75,27.875 3.7e-4,10.97169 3.916241,20.3009 11.75,27.9375 7.83447,7.63723 17.04838,11.43781 27.625,11.4375 0.38998,1e-5 0.77047,-0.0216 1.15625,-0.0312 0.39015,0.01 0.79305,0.0313 1.1875,0.0312 10.57662,3.1e-4 19.75928,-3.80027 27.59375,-11.4375 7.83376,-7.6366 11.74963,-16.96581 11.75,-27.9375 -3.6e-4,-10.959043 -3.91624,-20.23771 -11.75,-27.875 -7.83447,-7.63654 -17.01713,-11.46836 -27.59375,-11.46875 -0.39434,1.4e-5 -0.79747,0.02135 -1.1875,0.03125 -0.38566,-0.0097 -0.76638,-0.03124 -1.15625,-0.03125 z M 87.875,130.15625 c -11.35344,2.9e-4 -17.609638,5.8771 -18.78125,17.625 l 0,138.03125 0,2.96875 L 119,287.3125 l 49.9375,1.46875 0,-2.96875 0,-138.03125 c -1.1716,-11.7479 -7.42781,-17.62471 -18.78125,-17.625 l -62.28125,0 z" id="path7632" sodipodi:nodetypes="ccssssssscssccccccccccc" fill="#ffffff"/>
   <path inkscape:connector-curvature="0" id="path7634" d="m 79.060779,243.05446 -0.7002,-78.24513" sodipodi:nodetypes="cc" fill="#ffffff" fill-rule="evenodd" stroke="#ffffff" stroke-linecap="round" stroke-width="67.1"/>
   <path inkscape:connector-curvature="0" sodipodi:nodetypes="cc" d="m 155.06078,243.05446 -0.7002,-78.24513" id="path7636" fill="#ffffff" fill-rule="evenodd" stroke="#ffffff" stroke-linecap="round" stroke-width="67.1"/>
  </g>
 </g>
</svg>
