<?xml version="1.0" encoding="UTF-8" standalone="no"?>
<svg xmlns="http://www.w3.org/2000/svg" xmlns:sodipodi="http://sodipodi.sourceforge.net/DTD/sodipodi-0.dtd" xmlns:inkscape="http://www.inkscape.org/namespaces/inkscape" version="1.0" width="580" height="580">
 <metadata id="metadata2975"/>
 <defs id="defs4">
  <symbol viewBox="244.5 110 489 219.9" id="symbol-university">
   <path id="path4460" d="M79,43l57,119c0,0,21-96,104-96s124,106,124,106l43-133l82-17L0,17L79,43z"/>
   <path id="path4462" d="M94,176l-21,39" stroke-width="20" stroke="#000000" fill="none"/>
   <path id="path4464" d="M300,19c0,10.5-22.6,19-50.5,19S199,29.5,199,19s22.6-19,50.5-19S300,8.5,300,19z"/>
   <path id="path4466" d="M112,216l-16-38L64,88c0,0-9-8-4-35s16-24,16-24" stroke-width="20" stroke="#000000" ill="none"/>
  </symbol>
 </defs>
 <g id="g1327">
  <path d="M 66.275,1.768 C 24.94,1.768 1.704,23.139 1.704,66.804 L 1.704,516.927 C 1.704,557.771 22.599,579.156 63.896,579.156 L 515.92,579.156 C 557.227,579.156 578.149,558.841 578.149,516.927 L 578.149,66.804 C 578.149,24.203 557.227,1.768 514.628,1.768 C 514.624,1.768 66.133,1.625 66.275,1.768 z " id="path1329" fill="#734A08" stroke="#eee" stroke-width="3.408"/>
 </g>
 <g transform="matrix(1.0956406,0,0,1.0956406,340.53653,248.08152)" id="g8789">
  <path inkscape:connector-curvature="0" d="m 117.84375,42.625 c -10.57662,3.9e-4 -19.790529,3.83221 -27.625,11.46875 -7.83376,7.63729 -11.749626,16.915957 -11.75,27.875 3.7e-4,10.97169 3.916241,20.3009 11.75,27.9375 7.83447,7.63723 17.04838,11.43781 27.625,11.4375 0.38998,1e-5 0.77047,-0.0216 1.15625,-0.0312 0.39015,0.01 0.79305,0.0313 1.1875,0.0312 10.57662,3.1e-4 19.75928,-3.80027 27.59375,-11.4375 7.83376,-7.6366 11.74963,-16.96581 11.75,-27.9375 -3.6e-4,-10.959043 -3.91624,-20.23771 -11.75,-27.875 -7.83447,-7.63654 -17.01713,-11.46836 -27.59375,-11.46875 -0.39434,1.4e-5 -0.79747,0.02135 -1.1875,0.03125 -0.38566,-0.0097 -0.76638,-0.03124 -1.15625,-0.03125 z M 87.875,130.15625 c -11.35344,2.9e-4 -17.609638,5.8771 -18.78125,17.625 l 0,138.03125 0,2.96875 L 119,287.3125 l 49.9375,1.46875 0,-2.96875 0,-138.03125 c -1.1716,-11.7479 -7.42781,-17.62471 -18.78125,-17.625 l -62.28125,0 z" id="path8791" sodipodi:nodetypes="ccssssssscssccccccccccc" fill="#ffffff"/>
  <path inkscape:connector-curvature="0" id="path8793" d="m 79.060779,243.05446 -0.7002,-78.24513" sodipodi:nodetypes="cc" fill="#ffffff" fill-rule="evenodd" stroke="#ffffff" stroke-linecap="round" stroke-width="67.1"/>
  <path inkscape:connector-curvature="0" sodipodi:nodetypes="cc" d="m 155.06078,243.05446 -0.7002,-78.24513" id="path8795" fill="#ffffff" fill-rule="evenodd" stroke="#ffffff" stroke-linecap="round" stroke-width="67.1"/>
 </g>
 <g id="g7740" transform="matrix(0.74946434,0,0,0.74946434,73.640832,-2.8037989)">
  <path sodipodi:nodetypes="cccccccccccc" id="path645" d="M 286.94406,44.001595 34.884618,235.90902 l 50.411556,0 0,307.86099 151.236006,0 104.28079,0 147.77899,0 0,-307.86099 50.4119,0 -252.0598,-191.907425 0,0 0,0 z" inkscape:connector-curvature="0" opacity=".2" fill="#ffffff" fill-rule="evenodd" stroke="#ffffff" stroke-width="1.241"/>
  <path d="M 286.94406,34.001595 34.884618,225.90902 l 50.411556,0 0,317.86099 151.236006,0 104.28079,0 147.77899,0 0,-317.86099 50.4119,0 -252.0598,-191.907425 0,0 0,0 z" id="path3198" sodipodi:nodetypes="cccccccccccc" inkscape:connector-curvature="0" fill="none" stroke="#ffffff" stroke-linejoin="round" stroke-width="20"/>
 </g>
 <path d="m 358.27006,356.19173 c -21.85149,-27.09249 -43.68976,-54.19564 -65.5371,-81.29148 -23.21702,28.67021 -46.45052,57.32713 -69.64945,86.01201 12.98386,0 25.96771,0 38.95157,0 0,32.15555 0,64.3111 0,96.46666 20.23357,0 40.46715,0 60.70073,0 0.37629,-32.72465 0.6949,-65.45003 1.01361,-98.17532 12.31777,0 24.63553,0 36.9533,0 -0.81088,-1.00395 -1.62177,-2.00792 -2.43266,-3.01187 z" id="path8535" inkscape:connector-curvature="0" fill="#ffffff" stroke="#ffffff" stroke-linejoin="round" stroke-linecap="round" stroke-width="9.267"/>
 <path inkscape:connector-curvature="0" id="path7850" d="m 358.27006,450.22574 c -21.85149,27.09248 -43.68976,54.19564 -65.5371,81.29148 -23.21702,-28.67022 -46.45052,-57.32713 -69.64945,-86.01201 12.98386,0 25.96771,0 38.95157,0 0,-32.15556 0,-64.31111 0,-96.46667 20.23357,0 40.46715,0 60.70073,0 0.37629,32.72466 0.6949,65.45003 1.01361,98.17533 12.31777,0 24.63553,0 36.9533,0 -0.81088,1.00395 -1.62177,2.00791 -2.43266,3.01187 z" fill="#ffffff" stroke="#ffffff" stroke-linejoin="round" stroke-linecap="round" stroke-width="9.267"/>
 <path d="m 220.71831,391.9905 c 47.08941,1.11015 94.17881,2.22029 141.26821,3.33043 0,-63.01755 0,-126.0351 0,-189.05265 -47.0894,0 -94.1788,0 -141.26821,0 0,61.9074 0,123.81482 0,185.72222 z" id="path7856" inkscape:connector-curvature="0" opacity=".5" fill="#ffffff" stroke="#ffffff" stroke-linejoin="round" stroke-linecap="round" stroke-width="27.802"/>
 <g id="g8439" transform="matrix(1.0956406,0,0,1.0956406,-15.46347,248.08152)">
  <path sodipodi:nodetypes="ccssssssscssccccccccccc" id="path8441" d="m 117.84375,42.625 c -10.57662,3.9e-4 -19.790529,3.83221 -27.625,11.46875 -7.83376,7.63729 -11.749626,16.915957 -11.75,27.875 3.7e-4,10.97169 3.916241,20.3009 11.75,27.9375 7.83447,7.63723 17.04838,11.43781 27.625,11.4375 0.38998,1e-5 0.77047,-0.0216 1.15625,-0.0312 0.39015,0.01 0.79305,0.0313 1.1875,0.0312 10.57662,3.1e-4 19.75928,-3.80027 27.59375,-11.4375 7.83376,-7.6366 11.74963,-16.96581 11.75,-27.9375 -3.6e-4,-10.959043 -3.91624,-20.23771 -11.75,-27.875 -7.83447,-7.63654 -17.01713,-11.46836 -27.59375,-11.46875 -0.39434,1.4e-5 -0.79747,0.02135 -1.1875,0.03125 -0.38566,-0.0097 -0.76638,-0.03124 -1.15625,-0.03125 z M 87.875,130.15625 c -11.35344,2.9e-4 -17.609638,5.8771 -18.78125,17.625 l 0,138.03125 0,2.96875 L 119,287.3125 l 49.9375,1.46875 0,-2.96875 0,-138.03125 c -1.1716,-11.7479 -7.42781,-17.62471 -18.78125,-17.625 l -62.28125,0 z" inkscape:connector-curvature="0" fill="#ffffff"/>
  <path sodipodi:nodetypes="cc" d="m 79.060779,243.05446 -0.7002,-78.24513" id="path8443" inkscape:connector-curvature="0" fill="#ffffff" fill-rule="evenodd" stroke="#ffffff" stroke-linecap="round" stroke-width="67.1"/>
  <path id="path8445" d="m 155.06078,243.05446 -0.7002,-78.24513" sodipodi:nodetypes="cc" inkscape:connector-curvature="0" fill="#ffffff" fill-rule="evenodd" stroke="#ffffff" stroke-linecap="round" stroke-width="67.1"/>
 </g>
</svg>
