<?xml version="1.0" encoding="UTF-8" standalone="no"?>
<svg xmlns:sodipodi="http://sodipodi.sourceforge.net/DTD/sodipodi-0.dtd" xmlns:inkscape="http://www.inkscape.org/namespaces/inkscape" version="1.0" width="580" height="580">
 <metadata id="metadata2975"/>
 <g id="g1327">
  <path d="M 66.275,1.768 C 24.94,1.768 1.704,23.139 1.704,66.804 l 0,450.123 c 0,40.844 20.895,62.229 62.192,62.229 l 452.024,0 c 41.307,0 62.229,-20.315 62.229,-62.229 l 0,-450.123 c 0,-42.601 -20.922,-65.036 -63.521,-65.036 -0.004,0 -448.495,-0.143 -448.353,0 z" id="path1329" inkscape:connector-curvature="0" fill="#39AC39" stroke="#eeeeee" stroke-width="3.408"/>
 </g>
 <circle cx="123.43" cy="496.93" r="33" id="circle2531" fill="#ffffff"/>
 <circle cx="428.43" cy="470.93" r="59" id="circle2533" fill="#ffffff"/>
 <path d="m 415.364,390.179 -0.322,0.05 -301.628,51.934 c -26.487,4.862 -45.657,27.89 -45.657,54.768 0,30.696 24.974,55.67 55.67,55.67 l 305,0 c 45.033,0 81.67,-36.637 81.67,-81.67 0,-45.033 -36.637,-81.67 -81.67,-81.67 -6.581,-0.001 -12.036,0.764 -13.063,0.918 z m 2.069,13.845 c 0.524,-0.078 5.285,-0.765 10.994,-0.765 37.313,0 67.67,30.356 67.67,67.67 0,18.043 -7.048,35.028 -19.845,47.825 -12.797,12.797 -29.782,19.846 -47.825,19.846 l -305,0 c -22.977,0 -41.67,-18.693 -41.67,-41.67 0,-20.12 14.345,-37.356 34.108,-40.984 0,0 301.33,-51.882 301.479,-51.907 0.044,-0.008 0.089,-0.015 0.089,-0.015 z" id="path2535" inkscape:connector-curvature="0" fill="#ffffff"/>
 <path d="m 271.778,127.273 c -3.729,-9.387 -14.31,-13.998 -23.715,-10.392 l -45.53,18.081 c -0.961,0.212 -1.919,0.48 -2.864,0.856 -4.792,1.904 -8.334,5.596 -10.182,10.003 -1.934,4.367 -2.187,9.476 -0.284,14.265 0.375,0.944 0.836,1.824 1.342,2.668 l 18.102,45.524 c 3.833,9.315 14.448,13.845 23.834,10.115 9.386,-3.729 13.998,-14.311 10.391,-23.715 l -12.38,-31.176 31.171,-12.394 c 9.315,-3.833 13.845,-14.448 10.115,-23.835 z" id="path2537" inkscape:connector-curvature="0" fill="#ffffff"/>
 <path d="m 351.263,326.572 c -0.585,-1.015 -1.259,-1.943 -1.977,-2.823 l -28.247,-48.96 c -5.927,-9.997 -18.801,-13.401 -28.896,-7.58 -10.094,5.819 -13.597,18.669 -7.914,28.805 l 19.325,33.532 -33.523,19.341 c -9.996,5.927 -13.4,18.8 -7.579,28.896 5.82,10.095 18.668,13.599 28.805,7.915 l 48.976,-28.226 c 1.061,-0.401 2.108,-0.867 3.123,-1.452 5.151,-2.971 8.581,-7.773 9.958,-13.11 1.482,-5.308 0.92,-11.184 -2.051,-16.338 z" id="path2539" inkscape:connector-curvature="0" fill="#ffffff"/>
 <circle cx="336.25" cy="72.09" r="44" id="circle2541" fill="#ffffff"/>
 <path d="m 402.479,164.292 c -4.765,-8.511 -15.484,-11.582 -24.03,-6.93 l -28.273,15.821 -20.548,-36.694 c -1.448,-6.397 -5.807,-12.042 -12.292,-14.839 -10.7,-4.615 -23.095,0.255 -27.826,10.87 L 178.514,389.862 c -4.65,10.782 0.321,23.291 11.103,27.94 10.782,4.65 23.291,-0.32 27.941,-11.103 l 96.837,-224.573 12.012,21.467 c 0.324,0.892 0.704,1.774 1.183,2.63 2.434,4.347 6.421,7.269 10.876,8.477 4.428,1.295 9.351,0.887 13.693,-1.545 0.855,-0.479 1.64,-1.033 2.383,-1.624 l 41.288,-23.13 c 8.431,-4.854 11.417,-15.596 6.649,-24.109 z" id="path2543" inkscape:connector-curvature="0" fill="#ffffff"/>
</svg>
