<?xml version="1.0" encoding="UTF-8" standalone="no"?>
<svg xmlns="http://www.w3.org/2000/svg" xmlns:sodipodi="http://sodipodi.sourceforge.net/DTD/sodipodi-0.dtd" xmlns:inkscape="http://www.inkscape.org/namespaces/inkscape" version="1.0" width="580" height="580">
 <metadata id="metadata2975"/>
 <defs id="defs4">
  <symbol id="symbol-university" viewBox="244.5 110 489 219.9">
   <path d="M79,43l57,119c0,0,21-96,104-96s124,106,124,106l43-133l82-17L0,17L79,43z" id="path4460"/>
   <path fill="none" stroke="#000000" stroke-width="20" d="M94,176l-21,39" id="path4462"/>
   <path d="M300,19c0,10.5-22.6,19-50.5,19S199,29.5,199,19s22.6-19,50.5-19S300,8.5,300,19z" id="path4464"/>
   <path ill="none" stroke="#000000" stroke-width="20" d="M112,216l-16-38L64,88c0,0-9-8-4-35s16-24,16-24" id="path4466"/>
  </symbol>
  <symbol viewBox="244.5 110 489 219.9" id="symbol9807">
   <path id="path9809" d="M79,43l57,119c0,0,21-96,104-96s124,106,124,106l43-133l82-17L0,17L79,43z"/>
   <path id="path9811" d="M94,176l-21,39" stroke-width="20" stroke="#000000" fill="none"/>
   <path id="path9813" d="M300,19c0,10.5-22.6,19-50.5,19S199,29.5,199,19s22.6-19,50.5-19S300,8.5,300,19z"/>
   <path id="path9815" d="M112,216l-16-38L64,88c0,0-9-8-4-35s16-24,16-24" stroke-width="20" stroke="#000000" ill="none"/>
  </symbol>
  <linearGradient id="linearGradient2936">
   <stop id="stop2938" stop-color="#8acf6b"/>
   <stop offset="1" id="stop2940" stop-color="#368912"/>
  </linearGradient>
  <linearGradient id="linearGradient2952">
   <stop id="stop2954" stop-color="#c0d50d"/>
   <stop offset="1" id="stop2956" stop-color="#eef2cd"/>
  </linearGradient>
  <marker inkscape:stockid="RazorWire" id="RazorWire" orient="auto">
       style="overflow:visible"&gt;
         <path id="path4286" transform="scale(0.8,0.8)" d="M 0.022727273,-0.74009011 L 0.022727273,0.69740989 L -7.7585227,3.0099099 L 10.678977,3.0099099 L 3.4914773,0.69740989 L 3.4914773,-0.74009011 L 10.741477,-2.8963401 L -7.7272727,-2.8963401 L 0.022727273,-0.74009011 z " fill="#808080" fill-rule="evenodd" stroke="#000000" stroke-width=".125"/></marker>
  <marker inkscape:stockid="DiamondS" orient="auto" refY="0.0" refX="0.0" id="DiamondS">
   <path id="path4202" d="M 0,-7.0710768 L -7.0710894,0 L 0,7.0710589 L 7.0710462,0 L 0,-7.0710768 z " transform="scale(0.2)" fill-rule="evenodd" stroke="#000000" stroke-width="1.25"/>
  </marker>
  <marker inkscape:stockid="Arrow2Sstart" orient="auto" refY="0.0" refX="0.0" id="Arrow2Sstart">
   <path id="path4146" d="M 8.7185878,4.0337352 L -2.2072895,0.016013256 L 8.7185884,-4.0017078 C 6.9730900,-1.6296469 6.9831476,1.6157441 8.7185878,4.0337352 z " transform="scale(0.3) translate(-2.3,0)" fill-rule="evenodd" stroke-linejoin="round" stroke-width=".625"/>
  </marker>
  <marker inkscape:stockid="StopS" orient="auto" refY="0.0" refX="0.0" id="StopS">
   <path id="path4229" d="M 0.0,5.65 L 0.0,-5.65" transform="scale(0.2)" fill="none" fill-rule="evenodd" stroke="#000000" fill-opacity=".75" stroke-width="1.25"/>
  </marker>
  <marker inkscape:stockid="InfiniteLineStart" id="InfiniteLineStart" orient="auto">
   <g id="g4298" transform="translate(-13,0)">
    <circle id="circle4300" r=".8" cx="3"/>
    <circle id="circle4302" r=".8" cx="6.5"/>
    <circle id="circle4304" r=".8" cx="10"/>
   </g>
  </marker>
  <marker inkscape:stockid="CurveIn" orient="auto" refY="0.0" refX="0.0" id="CurveIn">
   <path id="path4238" d="M 4.6254930,-5.0456926 C 1.8654930,-5.0456926 -0.37450702,-2.8056926 -0.37450702,-0.045692580 C -0.37450702,2.7143074 1.8654930,4.9543074 4.6254930,4.9543074" transform="scale(0.6)" fill="none" fill-rule="evenodd" stroke="#000000" stroke-width="1.25"/>
  </marker>
  <marker inkscape:stockid="TriangleOutS" orient="auto" refY="0.0" refX="0.0" id="TriangleOutS">
   <path id="path4220" d="M 5.77,0.0 L -2.88,5.0 L -2.88,-5.0 L 5.77,0.0 z " transform="scale(0.2)" fill-rule="evenodd" stroke="#000000" stroke-width="1.25"/>
  </marker>
  <marker inkscape:stockid="Arrow2Send" orient="auto" refY="0.0" refX="0.0" id="Arrow2Send">
   <path id="path4149" d="M 8.7185878,4.0337352 L -2.2072895,0.016013256 L 8.7185884,-4.0017078 C 6.9730900,-1.6296469 6.9831476,1.6157441 8.7185878,4.0337352 z " transform="scale(0.3) rotate(180) translate(-2.3,0)" fill-rule="evenodd" stroke-linejoin="round" stroke-width=".625"/>
  </marker>
  <marker inkscape:stockid="SemiCircleOut" orient="auto" refY="0.0" refX="0.0" id="SemiCircleOut">
   <path id="path4235" d="M -2.5,-0.80913858 C -2.5,1.9508614 -4.7400000,4.1908614 -7.5,4.1908614 L -7.5,-5.8091386 C -4.7400000,-5.8091386 -2.5,-3.5691386 -2.5,-0.80913858 z " transform="scale(0.6) translate(7.125493,0.763446)" fill-rule="evenodd" stroke="#000000" stroke-width="1.25"/>
  </marker>
  <marker inkscape:stockid="Arrow1Send" orient="auto" refY="0.0" refX="0.0" id="Arrow1Send">
   <path id="path4131" d="M 0.0,0.0 L 5.0,-5.0 L -12.5,0.0 L 5.0,5.0 L 0.0,0.0 z " transform="scale(0.2) rotate(180) translate(6,0)" fill-rule="evenodd" stroke="#000000" stroke-width="1.25"/>
  </marker>
  <marker inkscape:stockid="Arrow1Sstart" orient="auto" refY="0.0" refX="0.0" id="Arrow1Sstart">
   <path id="path4128" d="M 0.0,0.0 L 5.0,-5.0 L -12.5,0.0 L 5.0,5.0 L 0.0,0.0 z " transform="scale(0.2) translate(6,0)" fill-rule="evenodd" stroke="#000000" stroke-width="1.25"/>
  </marker>
  <marker inkscape:stockid="Tail" orient="auto" refY="0.0" refX="0.0" id="Tail">
   <g id="g4152" transform="scale(-1.2)">
    <path id="path4154" d="M -3.8048674,-3.9585227 L 0.54352094,0" fill="none" fill-rule="evenodd" stroke="#000000" stroke-linecap="round" stroke-width=".8"/>
    <path id="path4156" d="M -1.2866832,-3.9585227 L 3.0617053,0" fill="none" fill-rule="evenodd" stroke="#000000" stroke-linecap="round" stroke-width=".8"/>
    <path id="path4158" d="M 1.3053582,-3.9585227 L 5.6537466,0" fill="none" fill-rule="evenodd" stroke="#000000" stroke-linecap="round" stroke-width=".8"/>
    <path id="path4160" d="M -3.8048674,4.1775838 L 0.54352094,0.21974226" fill="none" fill-rule="evenodd" stroke="#000000" stroke-linecap="round" stroke-width=".8"/>
    <path id="path4162" d="M -1.2866832,4.1775838 L 3.0617053,0.21974226" fill="none" fill-rule="evenodd" stroke="#000000" stroke-linecap="round" stroke-width=".8"/>
    <path id="path4164" d="M 1.3053582,4.1775838 L 5.6537466,0.21974226" fill="none" fill-rule="evenodd" stroke="#000000" stroke-linecap="round" stroke-width=".8"/>
   </g>
  </marker>
  <marker inkscape:stockid="Arrow1Lend" orient="auto" refY="0.0" refX="0.0" id="Arrow1Lend">
   <path id="path4119" d="M 0.0,0.0 L 5.0,-5.0 L -12.5,0.0 L 5.0,5.0 L 0.0,0.0 z " transform="scale(0.8) rotate(180) translate(12.5,0)" fill-rule="evenodd" stroke="#000000" stroke-width="1.25"/>
  </marker>
  <marker inkscape:stockid="TriangleOutL" orient="auto" refY="0.0" refX="0.0" id="TriangleOutL">
   <path id="path4214" d="M 5.77,0.0 L -2.88,5.0 L -2.88,-5.0 L 5.77,0.0 z " transform="scale(0.8)" fill-rule="evenodd" stroke="#000000" stroke-width="1.25"/>
  </marker>
  <marker inkscape:stockid="Arrow1Mend" orient="auto" refY="0.0" refX="0.0" id="Arrow1Mend">
   <path id="path4125" d="M 0.0,0.0 L 5.0,-5.0 L -12.5,0.0 L 5.0,5.0 L 0.0,0.0 z " transform="scale(0.4) rotate(180) translate(10,0)" fill-rule="evenodd" stroke="#000000" stroke-width="1.25"/>
  </marker>
  <marker inkscape:stockid="Arrow2Lend" orient="auto" refY="0.0" refX="0.0" id="Arrow2Lend">
   <path id="path4137" d="M 8.7185878,4.0337352 L -2.2072895,0.016013256 L 8.7185884,-4.0017078 C 6.9730900,-1.6296469 6.9831476,1.6157441 8.7185878,4.0337352 z " transform="scale(1.1) rotate(180) translate(1,0)" fill-rule="evenodd" stroke-linejoin="round" stroke-width=".625"/>
  </marker>
  <symbol id="symbol14628" viewBox="244.5 110 489 219.9">
   <path d="M79,43l57,119c0,0,21-96,104-96s124,106,124,106l43-133l82-17L0,17L79,43z" id="path14630"/>
   <path fill="none" stroke="#000000" stroke-width="20" d="M94,176l-21,39" id="path14632"/>
   <path d="M300,19c0,10.5-22.6,19-50.5,19S199,29.5,199,19s22.6-19,50.5-19S300,8.5,300,19z" id="path14634"/>
   <path ill="none" stroke="#000000" stroke-width="20" d="M112,216l-16-38L64,88c0,0-9-8-4-35s16-24,16-24" id="path14636"/>
  </symbol>
 </defs>
 <g id="g1327">
  <path d="M 66.275,1.768 C 24.94,1.768 1.704,23.139 1.704,66.804 L 1.704,516.927 C 1.704,557.771 22.599,579.156 63.896,579.156 L 515.92,579.156 C 557.227,579.156 578.149,558.841 578.149,516.927 L 578.149,66.804 C 578.149,24.203 557.227,1.768 514.628,1.768 C 514.624,1.768 66.133,1.625 66.275,1.768 z " id="path1329" fill="#39AC39" stroke="#eee" stroke-width="3.408"/>
 </g>
 <path d="M 305.64123,68.954512 C 304.12006,68.954512 302.48431,69.067428 300.85088,69.211138 L 300.85088,151.33146 C 302.48431,151.18775 304.12006,151.07483 305.64123,151.07483 C 328.26076,151.07483 354.59554,167.81498 381.60253,173.65792 L 381.60253,91.537601 C 354.59554,85.694658 328.26076,68.954512 305.64123,68.954512 z" id="path15131" fill="#ffffff" fill-rule="evenodd" stroke="#ffffff" stroke-linejoin="round" stroke-linecap="round" stroke-width="5"/>
 <path sodipodi:nodetypes="cssssccsssc" d="M 130.45121,68.612344 L 132.19857,314.7647 C 132.30965,330.41344 179.23219,350.90095 201.62216,350.90095 C 231.73294,350.90095 278.26779,326.26486 305.64123,326.26486 C 333.01467,326.26486 365.8628,350.90095 398.71093,350.90095 C 431.55906,350.90095 469.88188,331.73955 469.88188,331.73955 L 469.88188,74.4292 C 469.88188,74.4292 431.55906,93.590609 398.71093,93.590609 C 365.8628,93.590609 333.01467,68.954512 305.64123,68.954512 C 278.26779,68.954512 231.73294,93.590609 201.62216,93.590609 C 171.51137,93.590609 130.45121,68.612344 130.45121,68.612344 z" id="path15140" fill="none" fill-rule="evenodd" stroke="#ffffff" stroke-linejoin="round" stroke-linecap="round" stroke-width="10"/>
 <path d="M 467.82887,162.96517 C 462.51087,165.53004 428.96795,181.18562 398.71093,181.18562 C 394.83302,181.18562 390.94613,180.8503 387.07722,180.24466 L 387.07722,262.36498 C 390.94613,262.97062 394.83302,263.30594 398.71093,263.30594 C 428.96795,263.30594 462.51087,247.65036 467.82887,245.0855 L 467.82887,162.96517 z" id="path15142" fill="#ffffff" fill-rule="evenodd" stroke="#ffffff" stroke-linejoin="round" stroke-linecap="round" stroke-width="5"/>
 <path d="M 305.64123,244.14453 C 304.12006,244.14453 302.48431,244.25745 300.85088,244.40116 L 300.85088,326.52148 C 302.48431,326.37777 304.12006,326.26486 305.64123,326.26486 C 328.26076,326.26486 354.59554,343.005 381.60253,348.84795 L 381.60253,266.72762 C 354.59554,260.88468 328.26076,244.14453 305.64123,244.14453 z" id="path15144" fill="#ffffff" fill-rule="evenodd" stroke="#ffffff" stroke-linejoin="round" stroke-linecap="round" stroke-width="5"/>
 <path d="M 130.45121,243.80237 L 132.16205,314.80223 C 132.54728,330.44662 179.23219,350.90095 201.62216,350.90095 C 204.44666,350.90095 207.43436,350.60951 210.51853,350.21662 L 210.51853,268.09629 C 207.43436,268.48919 204.44666,268.78063 201.62216,268.78063 C 171.51137,268.78063 130.45121,243.80237 130.45121,243.80237 z" id="rect15152" fill="#ffffff" stroke="#ffffff" stroke-linejoin="round" stroke-linecap="round" stroke-width="5"/>
 <path d="M 296.06053,157.40494 C 272.72278,160.97384 240.85251,175.32732 215.30888,179.81695 L 215.30888,261.93727 C 240.85251,257.44764 272.72278,243.09416 296.06053,239.52527 L 296.06053,157.40494 z" id="rect15154" fill="#ffffff" stroke="#ffffff" stroke-linejoin="round" stroke-linecap="round" stroke-width="5"/>
 <path d="M 130.45121,68.612344 L 132.16205,139.61221 C 132.54728,155.25659 179.23219,175.71093 201.62216,175.71093 C 204.44666,175.71093 207.43436,175.41949 210.51853,175.0266 L 210.51853,92.906273 C 207.43436,93.299164 204.44666,93.590609 201.62216,93.590609 C 171.51137,93.590609 130.45121,68.612344 130.45121,68.612344 z" id="rect15168" fill="#ffffff" stroke="#ffffff" stroke-linejoin="round" stroke-linecap="round" stroke-width="5"/>
 <path d="M 116.49945,529.88133 L 116.49945,66.58584 L 131.13555,66.58584 L 131.13555,529.88133 L 116.49945,529.88133 z" id="path15180" sodipodi:nodetypes="ccccc" fill="#ffffff" fill-rule="evenodd" stroke="#ffffff" stroke-linejoin="round" stroke-linecap="round" stroke-width="10"/>
</svg>
