<?xml version="1.0" encoding="UTF-8" standalone="no"?>
<svg xmlns="http://www.w3.org/2000/svg" xmlns:sodipodi="http://sodipodi.sourceforge.net/DTD/sodipodi-0.dtd" xmlns:inkscape="http://www.inkscape.org/namespaces/inkscape" version="1.0" width="580" height="580">
 <metadata id="metadata2975"/>
 <g id="g1327">
  <path d="M 66.275,1.768 C 24.94,1.768 1.704,23.139 1.704,66.804 L 1.704,516.927 C 1.704,557.771 22.599,579.156 63.896,579.156 L 515.92,579.156 C 557.227,579.156 578.149,558.841 578.149,516.927 L 578.149,66.804 C 578.149,24.203 557.227,1.768 514.628,1.768 C 514.624,1.768 66.133,1.625 66.275,1.768 z " id="path1329" fill="#111" stroke="#eee" stroke-width="3.408"/>
 </g>
 <rect id="rect3585" width="168.92" height="168.92" x="207.06" y="373" opacity=".25" fill="#ffffff" stroke="#ffffff" stroke-linejoin="round" stroke-linecap="round" stroke-width="20.14" rx="0"/>
 <rect y="373" x="207.06" height="168.92" width="168.92" id="rect3587" fill="none" stroke="#ffffff" stroke-linejoin="round" stroke-linecap="round" stroke-width="20.14" rx="0"/>
 <path sodipodi:nodetypes="cccssssscccscccscccscccsccssssccscccccccccccccssccccsccccccccccsccccccsccsssc" id="path3648" d="M 267.25388,312.96961 L 243.50018,271.75598 L 196.76546,271.73457 C 167.64023,271.72125 149.43529,270.74975 148.45046,269.15626 C 147.5813,267.74993 157.20372,248.63359 169.83363,226.67547 C 185.49472,199.44739 192.26459,185.35198 191.12264,182.35014 C 190.20169,179.92931 179.95029,161.53267 168.3417,141.46876 C 156.73314,121.40482 147.23522,103.68331 147.23522,102.08764 C 147.23522,99.98685 160.5147,99.18547 195.3677,99.18301 L 243.50018,99.17964 L 267.18791,57.926604 C 280.21616,35.237436 291.67258,16.67357 292.64663,16.67357 C 295.31805,16.67357 301.98823,27.018346 323.6819,64.806047 L 343.41943,99.18639 L 391.60004,99.18639 C 428.53593,99.18639 439.75512,99.91582 439.67129,102.31188 C 439.61112,104.03089 429.1092,123.40535 416.33366,145.36624 L 393.10543,185.2951 L 416.44302,225.72565 C 429.27872,247.96244 439.78065,267.40651 439.78065,268.93469 C 439.78065,270.87632 425.26861,271.71321 391.60004,271.71321 L 343.41943,271.71321 L 323.6819,306.09354 C 302.0947,343.6958 295.30915,354.23722 292.7126,354.20467 C 291.77483,354.19289 280.3184,335.6371 267.25388,312.96961 z M 302.0758,288.28645 C 306.30236,280.89917 309.76047,274.14813 309.76047,273.28411 C 309.76047,272.4201 302.44684,271.71321 293.50795,271.71321 C 284.56905,271.71321 277.25543,272.4201 277.25543,273.28411 C 277.25543,275.31743 292.34571,301.71786 293.50795,301.71786 C 293.99369,301.71786 297.84923,295.67372 302.0758,288.28645 z M 219.21941,229.23627 C 214.69606,221.00129 210.43254,214.2636 209.74493,214.2636 C 209.05732,214.2636 204.79381,221.00129 200.27046,229.23627 L 192.04618,244.20892 L 209.74493,244.20892 L 227.44367,244.20892 L 219.21941,229.23627 z M 336.8524,227.3313 C 342.2478,218.0486 349.8393,204.72596 353.72243,197.72543 L 360.78262,184.99717 L 344.58501,156.46902 L 328.38742,127.94086 L 293.61926,127.94086 L 258.85111,127.94086 L 243.04939,155.15188 C 234.35843,170.11793 227.24765,183.5484 227.24765,184.99733 C 227.24765,187.5882 253.17193,234.97716 257.92974,241.08344 C 259.66134,243.30579 269.99853,244.20892 293.7038,244.20892 L 327.04261,244.20892 L 336.8524,227.3313 z M 386.74541,229.23627 C 382.22206,221.00129 377.95855,214.2636 377.27094,214.2636 C 376.58333,214.2636 372.31981,221.00129 367.79646,229.23627 L 359.57222,244.20892 L 377.27094,244.20892 L 394.96969,244.20892 L 386.74541,229.23627 z M 219.05473,141.65139 L 227.11433,126.69066 L 209.58026,126.69066 L 192.04618,126.69066 L 200.27046,141.66334 C 204.79381,149.8983 209.05732,156.63061 209.74493,156.62403 C 210.43254,156.61746 214.62194,149.87977 219.05473,141.65139 z M 386.58073,141.65139 L 394.64034,126.69066 L 377.10627,126.69066 L 359.57222,126.69066 L 367.79646,141.66334 C 372.31981,149.8983 376.58333,156.63061 377.27094,156.62403 C 377.95855,156.61746 382.14794,149.87977 386.58073,141.65139 z M 309.76047,97.61547 C 309.76047,95.582157 294.67018,69.181728 293.50795,69.181728 C 292.34571,69.181728 277.25543,95.582157 277.25543,97.61547 C 277.25543,98.47948 284.56905,99.18639 293.50795,99.18639 C 302.44684,99.18639 309.76047,98.47948 309.76047,97.61547 z" fill="#ffffff"/>
</svg>
