<?xml version="1.0" encoding="UTF-8" standalone="no"?>
<svg xmlns="http://www.w3.org/2000/svg" xmlns:sodipodi="http://sodipodi.sourceforge.net/DTD/sodipodi-0.dtd" xmlns:inkscape="http://www.inkscape.org/namespaces/inkscape" version="1.0" width="580" height="580">
 <metadata id="metadata2975"/>
 <g id="g1327">
  <path d="M 66.275,1.768 C 24.94,1.768 1.704,23.139 1.704,66.804 L 1.704,516.927 C 1.704,557.771 22.599,579.156 63.896,579.156 L 515.92,579.156 C 557.227,579.156 578.149,558.841 578.149,516.927 L 578.149,66.804 C 578.149,24.203 557.227,1.768 514.628,1.768 C 514.624,1.768 66.133,1.625 66.275,1.768 z " id="path1329" fill="#111" stroke="#eee" stroke-width="3.408"/>
 </g>
 <rect id="rect3585" width="168.92" height="168.92" x="207.06" y="373" opacity=".25" fill="#ffffff" stroke="#ffffff" stroke-linejoin="round" stroke-linecap="round" stroke-width="20.14" rx="0"/>
 <rect y="373" x="207.06" height="168.92" width="168.92" id="rect3587" fill="none" stroke="#ffffff" stroke-linejoin="round" stroke-linecap="round" stroke-width="20.14" rx="0"/>
 <path sodipodi:nodetypes="cssscccsssssssssssssssssssssssssssscccscccssssscccsssccccssccccscccccc" id="path1873" d="M 209.96733,335.29027 C 208.30625,332.18651 207.57342,309.98368 207.82929,270.51277 C 208.1617,219.23366 207.66852,209.3939 204.45437,203.17841 C 199.51298,193.62282 199.54544,193.49666 207.67456,190.66285 C 214.23378,188.37627 214.65898,187.48718 214.65898,176.05766 L 214.65898,163.88727 L 191.95962,163.35121 C 179.47497,163.05638 168.53446,162.08766 167.64737,161.1985 C 165.51954,159.06564 164.55584,136.65311 166.4595,133.57289 C 167.36997,132.09976 174.66941,131.60124 185.32028,132.28475 C 199.9076,133.22092 203.57298,132.69861 208.16246,129.02978 C 217.45488,121.60148 213.99357,117.13478 197.65038,115.46432 C 166.23882,112.25367 166.36997,112.30117 164.72641,103.54033 C 163.90278,99.150045 162.20627,95.557981 160.95636,95.557981 C 159.70645,95.557981 154.49163,92.783747 149.36789,89.393022 C 142.10996,84.589931 139.48566,80.978893 137.4883,73.046642 C 136.07826,67.446862 131.87518,58.655645 128.14813,53.510596 C 124.42108,48.365548 121.99372,43.149468 122.754,41.919302 C 124.85843,38.514281 134.88909,39.245993 142.90069,43.388964 C 151.80587,47.994 170.3657,53.585865 180.35593,54.673781 C 184.49711,55.124765 199.9335,57.288654 214.65898,59.482436 C 236.74345,62.772564 252.64573,63.271763 305.45641,62.332615 C 340.66952,61.706439 374.19473,60.067359 379.95687,58.690264 C 385.71902,57.313147 397.10611,55.132634 405.26152,53.844637 C 413.41692,52.556641 426.66939,48.423751 434.71143,44.66043 C 454.24671,35.518758 460.2053,40.703199 449.79235,57.781987 C 447.2362,61.974477 445.14478,67.865113 445.14478,70.872277 C 445.14478,76.246694 427.02482,95.557981 421.98198,95.557981 C 420.70948,95.557981 418.79477,98.929313 417.72704,103.04984 C 415.58858,111.30239 410.83268,113.56358 394.79877,113.95102 C 380.55092,114.29531 370.64432,116.73055 370.64432,119.88865 C 370.64432,121.42608 373.05289,124.94674 375.99671,127.71231 C 380.9179,132.33553 382.65286,132.57919 397.532,130.7368 C 407.47795,129.50526 414.78614,129.58637 416.49446,130.94726 C 419.29603,133.17908 418.22373,155.43335 415.14772,158.89655 C 414.34517,159.80012 403.42941,160.71283 390.89047,160.92478 L 368.09242,161.31011 L 368.78632,173.25074 C 369.43646,184.43775 369.95789,185.34572 377.04842,187.63762 C 389.27292,191.58898 390.30688,194.07779 383.22193,202.49776 L 376.91213,209.99653 L 378.2554,269.79368 C 379.08783,306.85 378.7374,331.12984 377.33395,333.63766 C 374.54202,338.62654 353.9858,339.36712 350.04666,334.62076 C 348.44332,332.68885 346.93093,308.82186 345.95277,270.0149 C 345.0996,236.16671 343.39931,206.52686 342.17434,204.14855 C 340.69499,201.27635 340.80132,198.97018 342.49097,197.28054 C 343.89006,195.88144 345.03574,187.3507 345.0369,178.32334 L 345.03905,161.90995 L 292.08846,162.66928 C 262.96566,163.0869 238.7758,163.79067 238.33327,164.23323 C 237.89074,164.67576 236.95922,202.57375 236.26327,248.451 C 235.56732,294.32822 234.0516,333.69754 232.89501,335.93838 C 229.75494,342.02216 213.32151,341.55759 209.96733,335.29027 z M 277.51874,125.82379 L 277.51874,116.51123 L 260.17338,116.51123 C 246.45626,116.51123 242.37712,117.31694 240.67244,120.36305 C 239.05403,123.25498 240.04052,125.55739 244.631,129.60204 C 249.4779,133.87266 253.5197,135.00446 264.13193,135.06278 L 277.51874,135.13635 L 277.51874,125.82379 z M 338.02376,128.79859 C 340.59935,126.59332 342.70664,122.92649 342.70664,120.65011 C 342.70664,117.05159 340.42693,116.51123 325.2456,116.51123 L 307.78456,116.51123 L 307.78456,124.65973 L 307.78456,132.80821 L 320.56271,132.80821 C 329.28911,132.80821 334.82573,131.53681 338.02376,128.79859 z" fill="#ffffff"/>
</svg>
