<?xml version="1.0" encoding="UTF-8" standalone="no"?>
<svg xmlns="http://www.w3.org/2000/svg" xmlns:sodipodi="http://sodipodi.sourceforge.net/DTD/sodipodi-0.dtd" xmlns:inkscape="http://www.inkscape.org/namespaces/inkscape" version="1.0" width="580" height="580">
 <metadata id="metadata2975"/>
 <g id="g1327">
  <path d="M 66.275,1.768 C 24.94,1.768 1.704,23.139 1.704,66.804 L 1.704,516.927 C 1.704,557.771 22.599,579.156 63.896,579.156 L 515.92,579.156 C 557.227,579.156 578.149,558.841 578.149,516.927 L 578.149,66.804 C 578.149,24.203 557.227,1.768 514.628,1.768 C 514.624,1.768 66.133,1.625 66.275,1.768 z " id="path1329" fill="#111" stroke="#eee" stroke-width="3.408"/>
 </g>
 <rect id="rect3585" width="168.92" height="168.92" x="207.06" y="373" opacity=".25" fill="#ffffff" stroke="#ffffff" stroke-linejoin="round" stroke-linecap="round" stroke-width="20.14" rx="0"/>
 <rect y="373" x="207.06" height="168.92" width="168.92" id="rect3587" fill="none" stroke="#ffffff" stroke-linejoin="round" stroke-linecap="round" stroke-width="20.14" rx="0"/>
 <path sodipodi:nodetypes="cssssscccssssssssssssssssssssssssssssssssssssssssscccsssssssccssssccscccsc" id="path1873" d="M 278.70479,349.14239 C 272.11319,340.76251 271.82083,337.60719 277.00141,330.75784 C 280.62405,325.96827 282.76131,303.24736 279.58919,303.24736 C 278.79264,303.24736 274.79772,304.9762 270.7116,307.08922 C 264.75237,310.17085 263.53909,312.27462 264.58022,317.72081 C 266.97081,330.22653 250.67509,340.33638 242.04214,331.7034 C 232.74281,322.4041 242.6214,301.55302 260.69478,292.33268 L 271.52615,286.80691 L 264.29977,283.02063 C 257.29094,279.34835 256.63447,279.63549 242.49488,292.55827 C 227.66185,306.11484 220.43663,309.14169 220.43663,301.79911 C 220.43663,295.68156 213.31972,282.83627 199.3418,263.72509 C 175.00641,230.45279 164.34738,201.25921 164.22829,167.55422 C 164.11931,136.72152 176.22488,112.15722 200.02487,94.916573 C 217.55738,82.216116 228.40774,86.7318 213.59883,100.56578 C 194.69029,118.22952 188.51591,141.21929 195.10456,169.42779 C 201.00598,194.69393 208.71593,209.45228 225.46455,227.54279 C 238.93142,242.08862 273.56131,268.99472 278.81582,268.99472 C 280.03772,268.99472 281.03745,266.13595 281.03745,262.64189 C 281.03745,255.93346 269.50401,244.35865 259.7278,241.25578 C 255.1462,239.80165 254.46752,238.06752 255.7677,231.13702 C 257.18573,223.57828 256.42024,222.27958 247.81576,217.64578 C 236.32321,211.45662 222.54525,195.17955 215.32316,179.25951 C 207.92986,162.96207 207.92986,129.98927 215.32316,113.69184 C 222.54166,97.779698 236.32166,81.495573 247.79864,75.31479 C 254.45532,71.729935 256.88465,68.88001 255.90768,65.801831 C 254.97045,62.848858 258.7466,57.640929 267.41776,49.927577 C 274.51548,43.613894 282.39839,35.187534 284.93532,31.202371 C 291.08246,21.546131 294.4033,22.052622 303.40461,34.019229 C 307.56765,39.553665 315.56777,47.537507 321.1827,51.761068 C 328.11061,56.972265 330.99761,60.947152 330.16556,64.128879 C 329.40718,67.028997 331.00396,69.922397 334.35163,71.713994 C 345.39592,77.624735 363.40242,96.609365 370.17412,109.48243 C 376.23067,120.996 377.15978,125.91632 377.15978,146.47567 C 377.15978,167.03503 376.23067,171.95534 370.17412,183.46892 C 363.36177,196.41923 345.38153,215.3343 334.19022,221.32372 C 329.81755,223.66391 328.94361,225.9414 330.13413,231.89393 C 331.36161,238.03129 330.58905,239.81846 326.09145,241.24595 C 316.28789,244.35746 304.75081,255.92447 304.75081,262.64189 C 304.75081,266.13595 305.7399,268.99472 306.94881,268.99472 C 310.96596,268.99472 340.13316,247.58788 353.06782,235.14637 C 379.63122,209.59572 392.15498,182.81828 392.69051,150.4279 C 392.97151,133.43182 392.03847,129.00772 386.02221,118.81008 C 382.17495,112.28891 375.95019,104.07897 372.18941,100.56578 C 357.5351,86.876188 368.17927,82.178728 385.47063,94.704523 C 411.40839,113.49373 421.5897,133.94224 421.74254,167.55422 C 421.9078,203.90035 411.43956,231.47146 383.31843,268.75511 C 376.31322,278.0428 369.21726,290.1959 367.5496,295.762 C 365.88194,301.32808 363.02224,305.88218 361.19468,305.88218 C 359.36712,305.88218 351.31151,299.88641 343.29336,292.55827 C 329.15376,279.63549 328.4973,279.34835 321.48847,283.02063 L 314.26209,286.80691 L 325.06629,292.31882 C 331.00862,295.35036 338.35392,300.98785 341.3892,304.84659 C 347.45634,312.55971 348.70148,326.74802 343.74612,331.7034 C 335.11314,340.33638 318.81742,330.22653 321.20805,317.72081 C 322.24914,312.27462 321.03586,310.17085 315.07664,307.08922 C 310.99051,304.9762 306.9956,303.24736 306.19907,303.24736 C 302.98388,303.24736 305.03593,322.11018 309.20134,330.84519 C 313.47478,339.80668 313.43815,340.46551 308.28089,347.4022 C 300.48304,357.89052 286.24504,358.72826 278.70479,349.14239 z M 271.67971,183.46826 C 276.85842,163.57509 276.85894,144.94906 271.68153,119.88358 C 264.84175,86.77011 265.36813,87.334277 252.31564,99.12641 C 228.45196,120.68581 222.88548,149.7972 237.53644,176.4182 C 245.17444,190.29655 261.84101,204.93489 265.65388,201.1139 C 266.71961,200.04588 269.43123,192.10535 271.67971,183.46826 z M 335.84586,191.52951 C 350.40052,175.73957 357.44718,161.04904 357.44718,146.49601 C 357.44718,126.29873 344.04151,101.83466 328.59763,93.848312 L 321.09904,89.97065 L 316.78432,109.00131 C 309.53304,140.984 308.92431,155.77002 313.92681,178.41318 C 320.54908,208.38829 320.39241,208.29454 335.84586,191.52951 z" fill="#ffffff"/>
</svg>
