<?xml version="1.0" encoding="UTF-8" standalone="no"?>
<svg xmlns="http://www.w3.org/2000/svg" xmlns:sodipodi="http://sodipodi.sourceforge.net/DTD/sodipodi-0.dtd" xmlns:inkscape="http://www.inkscape.org/namespaces/inkscape" version="1.0" width="580" height="580">
 <metadata id="metadata2975"/>
 <defs id="defs4">
  <symbol viewBox="244.5 110 489 219.9" id="symbol-university">
   <path id="path4460" d="M79,43l57,119c0,0,21-96,104-96s124,106,124,106l43-133l82-17L0,17L79,43z"/>
   <path id="path4462" d="M94,176l-21,39" stroke-width="20" stroke="#000000" fill="none"/>
   <path id="path4464" d="M300,19c0,10.5-22.6,19-50.5,19S199,29.5,199,19s22.6-19,50.5-19S300,8.5,300,19z"/>
   <path id="path4466" d="M112,216l-16-38L64,88c0,0-9-8-4-35s16-24,16-24" stroke-width="20" stroke="#000000" ill="none"/>
  </symbol>
 </defs>
 <g id="g1327">
  <path d="M 66.275,1.768 C 24.94,1.768 1.704,23.139 1.704,66.804 L 1.704,516.927 C 1.704,557.771 22.599,579.156 63.896,579.156 L 515.92,579.156 C 557.227,579.156 578.149,558.841 578.149,516.927 L 578.149,66.804 C 578.149,24.203 557.227,1.768 514.628,1.768 C 514.624,1.768 66.133,1.625 66.275,1.768 z" id="path1329" fill="#111111" stroke="#eeeeee" stroke-width="3.408"/>
 </g>
 <path d="m 336.04092,228.20338 32.60294,127.78375" id="path4817" sodipodi:nodetypes="cc" fill="#d53b3b" stroke="#ffffff" stroke-linejoin="round" stroke-linecap="round" stroke-width="128.99"/>
 <path d="M 327.15153,205.27243 201.86022,223.14418 128.4406,135.72436" id="path5329" sodipodi:nodetypes="ccc" fill="none" stroke="#ffffff" stroke-linejoin="round" stroke-linecap="round" stroke-width="56.673"/>
 <path d="m 419.18715,496.11435 -173.27583,1.87442" id="path5331" sodipodi:nodetypes="cc" fill="none" stroke="#ffffff" stroke-linejoin="round" stroke-linecap="round" stroke-width="71.797"/>
 <path d="m 395.95938,373.03073 -149.108,110.5251" id="path5333" sodipodi:nodetypes="cc" fill="none" stroke="#ffffff" stroke-linejoin="round" stroke-linecap="round" stroke-width="78.4"/>
 <path id="path5339" d="m 282.62127,81.430196 c -16.39627,0.74391 -22.85159,24.391444 -9.28973,33.410414 12.35231,10.18832 32.79976,-2.15972 29.44467,-17.927534 -1.48092,-9.45077 -10.60853,-16.54984 -20.15494,-15.48288 z" fill="#ffffff" stroke="#ffffff" stroke-linejoin="round" stroke-linecap="round" stroke-width="78.4"/>
 <path sodipodi:nodetypes="cc" id="path4057" d="M 381.59627,361.98219 246.85138,483.55583" fill="none" stroke="#ffffff" stroke-linejoin="round" stroke-linecap="round" stroke-width="78.4"/>
 <path sodipodi:nodetypes="ccc" id="path4059" d="M 327.15153,215.27243 201.86022,223.14418 128.4406,135.72436" fill="none" stroke="#ffffff" stroke-linejoin="round" stroke-linecap="round" stroke-width="56.673"/>
</svg>
