<?xml version="1.0" encoding="UTF-8" standalone="no"?>
<svg xmlns="http://www.w3.org/2000/svg" version="1.0" width="580" height="580">
 <metadata id="metadata2975"/>
 <path id="path4140" d="m 269.37626,86.386248 c -4.64019,6.500192 -3.61935,12.071785 3.24814,16.714782 6.49627,3.99297 12.0645,2.87865 16.70469,-3.250098 l 11.04366,-16.064761 167.97497,110.688989 -137.3497,25.07217 c -5.01141,1.11431 -9.09478,3.71439 -12.0645,7.80023 -3.06253,4.17869 -3.89776,8.54311 -2.4129,13.27896 l 29.69723,116.07486 -97.44404,144.86142 c -1.76327,3.2501 -2.69131,6.68591 -2.69131,10.21459 0,5.75731 2.04168,10.67889 6.21785,14.85758 4.17618,4.1787 9.09478,6.22161 14.84862,6.22161 7.51711,0 13.64217,-3.62153 18.37516,-10.77174 l 101.1562,-153.21882 5.38262,21.0792 -15.12702,114.21766 c -0.74244,5.75731 0.55682,10.86461 3.80495,15.41474 3.24814,4.55014 7.70272,7.33593 13.45656,8.35739 5.75384,1.11432 11.04366,-0.0929 15.96226,-3.52867 4.8258,-3.43582 7.60992,-7.98596 8.35235,-13.74327 L 434.1959,393.65961 c 0.37122,-3.99297 0,-8.07881 -1.02084,-12.44322 l -34.33743,-137.43263 90.01974,-16.15762 c 4.64019,-0.74288 8.44515,-3.15724 11.32207,-7.24307 2.87692,-4.1787 3.99056,-8.54311 3.24813,-13.27897 -1.11364,-4.64299 -3.80495,-8.63597 -8.07393,-11.88606 L 288.30825,58.899722 Z M 59.082739,523.38488 l 30.346859,0 0,-325.00961 149.692612,-60.54464 -149.4142,-56.644536 0,-11.607485 -30.486065,0.09286 C 58.897404,220.90647 59.082739,372.14796 59.082739,523.38488 Z M 299.72312,148.78809 c -6.86748,6.68591 -10.20842,14.85758 -10.20842,24.60787 0,9.75029 3.43374,17.92196 10.20842,24.51501 6.86749,6.68591 15.12703,10.02887 24.77863,10.02887 9.7444,0 18.09675,-3.34296 25.05704,-10.02887 7.05309,-6.68591 10.48683,-14.85758 10.48683,-24.51501 0,-9.75029 -3.52654,-17.92196 -10.48683,-24.60787 -7.05309,-6.68591 -15.40544,-10.02887 -25.05704,-10.02887 -9.7444,0 -18.00395,3.34296 -24.77863,10.02887 z" mix-blend-mode="normal" isolation="auto" white-space="normal" solid-color="#000000" opacity="0.8" color-interpolation-filters="linearRGB" filter-gaussianBlur-deviation="0" color="#000000" image-rendering="auto" color-rendering="auto" stroke-width="64" color-interpolation="sRGB" solid-opacity="1" fill="none" filter-blend-mode="normal" stroke="#ffffff" shape-rendering="auto"/>
 <path white-space="normal" isolation="auto" mix-blend-mode="normal" d="m 269.37626,86.386248 c -4.64019,6.500192 -3.61935,12.071785 3.24814,16.714782 6.49627,3.99297 12.0645,2.87865 16.70469,-3.250098 l 11.04366,-16.064761 167.97497,110.688989 -137.3497,25.07217 c -5.01141,1.11431 -9.09478,3.71439 -12.0645,7.80023 -3.06253,4.17869 -3.89776,8.54311 -2.4129,13.27896 l 29.69723,116.07486 -97.44404,144.86142 c -1.76327,3.2501 -2.69131,6.68591 -2.69131,10.21459 0,5.75731 2.04168,10.67889 6.21785,14.85758 4.17618,4.1787 9.09478,6.22161 14.84862,6.22161 7.51711,0 13.64217,-3.62153 18.37516,-10.77174 l 101.1562,-153.21882 5.38262,21.0792 -15.12702,114.21766 c -0.74244,5.75731 0.55682,10.86461 3.80495,15.41474 3.24814,4.55014 7.70272,7.33593 13.45656,8.35739 5.75384,1.11432 11.04366,-0.0929 15.96226,-3.52867 4.8258,-3.43582 7.60992,-7.98596 8.35235,-13.74327 L 434.1959,393.65961 c 0.37122,-3.99297 0,-8.07881 -1.02084,-12.44322 l -34.33743,-137.43263 90.01974,-16.15762 c 4.64019,-0.74288 8.44515,-3.15724 11.32207,-7.24307 2.87692,-4.1787 3.99056,-8.54311 3.24813,-13.27897 -1.11364,-4.64299 -3.80495,-8.63597 -8.07393,-11.88606 L 288.30825,58.899722 Z M 59.082739,523.38488 l 30.346859,0 0,-325.00961 149.692612,-60.54464 -149.4142,-56.644536 0,-11.607485 -30.486065,0.09286 C 58.897404,220.90647 59.082739,372.14796 59.082739,523.38488 Z M 299.72312,148.78809 c -6.86748,6.68591 -10.20842,14.85758 -10.20842,24.60787 0,9.75029 3.43374,17.92196 10.20842,24.51501 6.86749,6.68591 15.12703,10.02887 24.77863,10.02887 9.7444,0 18.09675,-3.34296 25.05704,-10.02887 7.05309,-6.68591 10.48683,-14.85758 10.48683,-24.51501 0,-9.75029 -3.52654,-17.92196 -10.48683,-24.60787 -7.05309,-6.68591 -15.40544,-10.02887 -25.05704,-10.02887 -9.7444,0 -18.00395,3.34296 -24.77863,10.02887 z" id="rect2996" fill="#39ac39" color-rendering="auto" solid-opacity="1" color-interpolation-filters="linearRGB" shape-rendering="auto" image-rendering="auto" color-interpolation="sRGB" color="#000000" solid-color="#000000"/>
</svg>
