<?xml version="1.0" encoding="UTF-8" standalone="no"?>
<svg xmlns="http://www.w3.org/2000/svg" version="1.0" width="580" height="580">
 <metadata id="metadata2975"/>
 <path id="path4136" d="m 245.8,114.2 c 8.5,-8.5 12.8,-19 12.8,-31.4 0,-12 -4.3,-22.3 -12.8,-30.8 C 237.3,43.5 227,39.2 215,39.2 c -12,0 -22.4,4.3 -31,12.8 -8.7,8.5 -13,18.8 -13,30.8 0,12.4 4.4,22.9 13,31.4 8.7,8.5 19,12.8 31,12.8 12,0 22.3,-4.3 30.8,-12.8 z M 96.5,156.3 c 0,10.8 6.4,16.2 19.3,16.2 l 109,0 c 13.7,0 20,-6 19.25,-18.05 0.05,-11.5142 -6.35,-16.15 -18.85,-16.15 0,0 -103.82937,-1.04852 -109,0 -5.17063,1.04852 -4.81051,1.05473 -8.90422,2.73158 C 100.4,143.6 96.5,148.8 96.5,156.3 Z m 154.1,-15.7 c 3.21183,3.11657 3.90351,6.74306 4.9,12.5 -0.60272,6.3922 -1.07123,12.88153 -4.4,17.4 -5.8,8.7 -14.5,13 -26,13 l -59.7,0 0,161 -34,171 c -1.2,6.6 0,12.8 3.7,18.4 3.7,5.6 8.9,9 15.6,10.3 6.6,1.2 12.8,0 18.3,-3.7 5.6,-3.7 9.2,-8.9 10.9,-15.6 l 34.8,-177 16.2,0 34.8,177 c 1.2,6.6 4.7,11.8 10.3,15.6 5.6,3.7 11.9,5 19,3.7 6.2,-1.2 11.3,-4.7 15.2,-10.3 3.9,-5.6 5.1,-11.7 3.4,-18.4 l -34,-172 0,-144 22.4,-29 23,-1.5 18.5,-24 156,-8.7 -0.7,-15.6 -238,5.1 c 0,0 -17.2,6.3 -23.9,9.9 0,0 10.21932,1.52256 13.7,4.9 z" mix-blend-mode="normal" solid-color="#000000" opacity="0.8" color-interpolation-filters="linearRGB" filter-gaussianBlur-deviation="0" color="#000000" image-rendering="auto" color-rendering="auto" fill-rule="evenodd" stroke-width="64" isolation="auto" color-interpolation="sRGB" solid-opacity="1" fill="none" stroke-linejoin="round" filter-blend-mode="normal" stroke="#ffffff" shape-rendering="auto"/>
 <path d="m 245.8,114.2 c 8.5,-8.5 12.8,-19 12.8,-31.4 0,-12 -4.3,-22.3 -12.8,-30.8 C 237.3,43.5 227,39.2 215,39.2 c -12,0 -22.4,4.3 -31,12.8 -8.7,8.5 -13,18.8 -13,30.8 0,12.4 4.4,22.9 13,31.4 8.7,8.5 19,12.8 31,12.8 12,0 22.3,-4.3 30.8,-12.8 z M 96.5,156.3 c 0,10.8 6.4,16.2 19.3,16.2 l 109,0 c 13.7,0 20,-6 19.25,-18.05 0.05,-11.5142 -6.35,-16.15 -18.85,-16.15 0,0 -103.82937,-1.04852 -109,0 -5.17063,1.04852 -4.81051,1.05473 -8.90422,2.73158 C 100.4,143.6 96.5,148.8 96.5,156.3 Z m 154.1,-15.7 c 3.21183,3.11657 3.90351,6.74306 4.9,12.5 -0.60272,6.3922 -1.07123,12.88153 -4.4,17.4 -5.8,8.7 -14.5,13 -26,13 l -59.7,0 0,161 -34,171 c -1.2,6.6 0,12.8 3.7,18.4 3.7,5.6 8.9,9 15.6,10.3 6.6,1.2 12.8,0 18.3,-3.7 5.6,-3.7 9.2,-8.9 10.9,-15.6 l 34.8,-177 16.2,0 34.8,177 c 1.2,6.6 4.7,11.8 10.3,15.6 5.6,3.7 11.9,5 19,3.7 6.2,-1.2 11.3,-4.7 15.2,-10.3 3.9,-5.6 5.1,-11.7 3.4,-18.4 l -34,-172 0,-144 22.4,-29 23,-1.5 18.5,-24 156,-8.7 -0.7,-15.6 -238,5.1 c 0,0 -17.2,6.3 -23.9,9.9 0,0 10.21932,1.52256 13.7,4.9 z" id="flowRoot2391" fill="#39ac39"/>
</svg>
