<?xml version="1.0" encoding="UTF-8" standalone="no"?>
<svg xmlns="http://www.w3.org/2000/svg" version="1.0" width="580" height="580">
 <metadata id="metadata2975"/>
 <path mix-blend-mode="normal" white-space="normal" isolation="auto" id="path4139" d="m 36.4,217 c 0,16.3 8.6,29 19.7,38.8 l 14.3,93 c -1.2,2.8 -2.3,8.2 -2.3,14 6,50 90,66 149,78 0.9,6.8 10,12 21,12 l 113,0 c 11.8,0 21.3,-5.9 21.3,-13.2 59.8,-14 136,-26 140,-77 0,-5.8 -1.2,-11.2 -2.5,-14.2 l 15.3,-93 c 10.6,-9.6 18.8,-22 18.8,-37.8 0,-20.8 -12.00187,-40.49045 -29.4,-46 C 363.88445,123.87221 232.26246,120.29262 65.2,170.95 48.183566,176.10979 36.4,196.4 36.4,217 Z" solid-color="#000000" opacity="0.8" color-interpolation-filters="linearRGB" filter-gaussianBlur-deviation="0" color="#000000" image-rendering="auto" color-rendering="auto" fill-rule="evenodd" stroke-width="64" color-interpolation="sRGB" solid-opacity="1" fill="none" stroke-linejoin="round" filter-blend-mode="normal" stroke="#ffffff" shape-rendering="auto"/>
 <path d="m 36.4,217 c 0,16.3 8.6,29 19.7,38.8 l 14.3,93 c -1.2,2.8 -2.3,8.2 -2.3,14 6,50 90,66 149,78 0.9,6.8 10,12 21,12 l 113,0 c 11.8,0 21.3,-5.9 21.3,-13.2 59.8,-14 136,-26 140,-77 0,-5.8 -1.2,-11.2 -2.5,-14.2 l 15.3,-93 c 10.6,-9.6 18.8,-22 18.8,-37.8 0,-20.8 -12.00187,-40.49045 -29.4,-46 C 363.88445,123.87221 232.26246,120.29262 65.2,170.95 48.183566,176.10979 36.4,196.4 36.4,217 Z" id="path4155" isolation="auto" white-space="normal" mix-blend-mode="normal" fill="#39ac39" color-rendering="auto" solid-opacity="1" color-interpolation-filters="linearRGB" shape-rendering="auto" image-rendering="auto" color-interpolation="sRGB" color="#000000" solid-color="#000000"/>
 <path d="m 492,216.7 c -13.8,10.4 -32.8,16.8 -46,20.7 -37.9,10.7 -93,17.9 -154,17.9 -60.7,0 -116,-7.2 -154,-17.9 -15.5,-6 -33.8,-9.5 -46,-20.7 13.7,-10.5 32.7,-16.8 46,-20.7 37.9,-10.7 93,-17.8 153,-17.8 60,0 116,7.2 154.5,17.8 16.4,5.7 33.9,10 46.5,20.7 z" id="path4153" isolation="auto" white-space="normal" mix-blend-mode="normal" fill="#ffffff" color-rendering="auto" solid-opacity="1" color-interpolation-filters="linearRGB" shape-rendering="auto" image-rendering="auto" color-interpolation="sRGB" color="#000000" solid-color="#000000"/>
 <path d="m 255,180 c -6,0.3 -12,0.6 -17.9,1.1 l 9.2,44.5 c -18.3,1.2 -36.6,3 -54.8,5.9 l -19.3,-42 c -7.2,1.3 -14,2.8 -20.6,4.3 l 27.7,40 c -11.2,2 -22,4.2 -33,6.9 37.5,9.5 89,15.8 146,15.8 61,0 115,-7.1 153,-17.8 -11.9,-2.7 -23.9,-4.9 -36,-6.7 l 26,-37.5 c -6.4,-1.6 -13.3,-3 -20.5,-4.4 l -18.3,39.6 c -18.4,-2.5 -36.9,-4 -55,-4.9 l 8.8,-43 c -6,-0.5 -12,-0.9 -18.3,-1.2 l -3.1,44.8 c -24.36272,-1.46155 -48.23545,-0.74947 -70.8,0.2 z" id="path4157" isolation="auto" white-space="normal" mix-blend-mode="normal" opacity="0.5" fill="#39ac39" color-rendering="auto" solid-opacity="1" color-interpolation-filters="linearRGB" shape-rendering="auto" image-rendering="auto" color-interpolation="sRGB" color="#000000" solid-color="#000000"/>
 <path d="m 481,359 c -33.8,22 -70,31 -107,36.5 l 0,-21.6 c 0.6,-61 -141,-71.9 -156,0 l 0,22.7 C 179,391 134,382 102,359 L 88,274 c 63,25.9 146,32.5 204,32.7 70.9,-4.2 145,-5.3 205,-33 z" id="path4149" isolation="auto" white-space="normal" mix-blend-mode="normal" fill="#ffffff" color-rendering="auto" solid-opacity="1" color-interpolation-filters="linearRGB" shape-rendering="auto" image-rendering="auto" color-interpolation="sRGB" color="#000000" solid-color="#000000"/>
</svg>
