<?xml version="1.0" encoding="UTF-8" standalone="no"?>
<svg xmlns="http://www.w3.org/2000/svg" version="1.0" width="580" height="580">
 <metadata id="metadata1976"/>
 <path id="path4143" d="M 543.88672,290 C 543.88672,430.21776 430.21776,543.88672 290,543.88672 149.78224,543.88672 36.113281,430.21776 36.113281,290 36.113282,149.78224 149.78224,36.113282 290,36.113281 430.21776,36.113281 543.88672,149.78224 543.88672,290 Z" mix-blend-mode="normal" solid-color="#000000" opacity="0.8" color-interpolation-filters="linearRGB" filter-gaussianBlur-deviation="0" color="#000000" image-rendering="auto" color-rendering="auto" stroke-width="64" isolation="auto" color-interpolation="sRGB" solid-opacity="1" fill="none" stroke-linejoin="round" filter-blend-mode="normal" stroke="#ffffff" shape-rendering="auto"/>
 <path d="M 543.88672,290 C 543.88672,430.21776 430.21776,543.88672 290,543.88672 149.78224,543.88672 36.113281,430.21776 36.113281,290 36.113282,149.78224 149.78224,36.113282 290,36.113281 430.21776,36.113281 543.88672,149.78224 543.88672,290 Z" id="path3267-7" fill="#39ac39"/>
 <path d="m 363.82245,152.60823 c -15.6238,6.44481 -12.69434,7.12835 -14.94026,12.01079 -2.05063,4.68714 -0.48825,6.93306 3.02711,16.79558 3.51535,9.96018 9.37428,23.8263 17.86972,41.98896 l -107.41361,57.61276 c 9.76487,-4.68714 20.21329,-6.54247 31.24759,-5.46833 10.93666,1.07413 21.38508,11.6202 34.17706,11.71785 13.08493,-0.29295 29.29462,-12.49904 43.64899,-12.49904 14.35436,0.0976 29.68521,11.0343 41.01247,12.10844 11.32725,0.87884 19.52974,-1.26943 26.07221,-6.73776 L 390.5782,171.84503 c 13.57317,-5.07774 25.38867,-9.66723 36.13003,-13.67082 10.54607,-4.29655 24.41219,-5.66363 27.244,-11.13196 2.44122,-5.37068 3.02711,-21.09213 -10.59489,-21.2386 -27.44152,5.14858 -53.79222,16.10333 -79.53489,26.80458 z m 61.81165,65.81525 c 0,17.28382 13.37787,31.24759 29.88051,31.24759 16.50264,0 29.88051,-13.96377 29.88051,-31.24759 0,-17.28383 -13.37787,-31.2476 -29.88051,-31.2476 -16.50264,0 -29.88051,13.96377 -29.88051,31.2476 z m -308.08177,12.69433 c -11.52255,0.68354 -15.6238,14.64731 -9.96017,21.48272 5.66363,6.83542 29.78286,13.67083 43.94193,18.94386 14.06142,4.88244 26.95105,8.49544 39.64539,10.74136 9.96017,-4.68714 19.0415,-7.03071 27.73224,-6.83541 8.69074,0.1953 17.18618,6.44481 23.92394,7.51895 6.64011,0.97649 11.71785,0.29295 15.8191,-1.85533 -32.02879,-13.18257 -58.58925,-23.43569 -83.00143,-32.02878 -19.03067,-6.32229 -41.40913,-18.29503 -58.101,-17.96737 z m 59.66338,66.40114 c -12.49904,0.1953 -23.72864,-9.08133 -34.76295,-9.17898 -11.13196,-0.1953 -23.4357,6.83541 -31.0523,8.39779 -7.51895,1.36709 -12.206092,1.56238 -13.963769,0.3906 l 0,25.87691 c 1.757677,1.07414 6.542469,0.97649 13.963769,-0.39059 7.51895,-1.56238 19.92034,-8.59309 31.0523,-8.39779 11.03431,0.0977 22.26391,9.37428 34.76295,9.17898 12.40139,-0.48825 26.16986,-10.54607 38.8642,-10.74136 12.30374,-0.48825 23.33804,8.59309 35.73943,8.78838 12.59669,0.0977 25.38868,-8.20249 38.8642,-8.00719 13.28023,0.19529 26.8534,9.27663 40.03598,9.17898 13.37788,-0.29295 25.97457,-9.96017 39.93834,-10.05782 13.96377,-0.0976 29.29462,9.37428 42.96544,9.66722 13.47553,0 27.34165,-8.88603 37.10652,-9.17898 9.66723,-0.39059 14.94026,5.85893 20.50624,7.12836 5.76127,1.26943 10.05782,1.36708 13.47552,0.39059 l 0,-25.87691 c -3.32006,1.07414 -7.71425,0.87884 -13.47552,-0.3906 -5.76128,-1.36708 -11.13196,-7.51895 -20.50624,-7.12835 -9.76487,0.39059 -23.82629,9.17898 -37.10652,9.17898 -13.67082,-0.29295 -29.00167,-9.56958 -42.96544,-9.56958 -13.86612,0.0977 -26.36516,9.76488 -39.93834,10.05782 -13.57317,0.0976 -27.14635,-8.98368 -40.03598,-9.17898 -13.47552,-0.39059 -26.26751,8.0072 -38.8642,7.90955 -12.01079,-0.1953 -22.75215,-8.59309 -34.56765,-8.78839 -16.02853,-0.35278 -26.67597,9.86942 -40.03598,10.74136 z m 0,42.96545 c -12.49904,0.19529 -23.72864,-9.08134 -34.76295,-9.17898 -11.13196,-0.1953 -23.4357,6.83541 -31.0523,8.39779 -7.51895,1.56238 -12.206092,1.46473 -13.963769,0.39059 l 0,25.87692 c 1.757677,1.07413 6.542469,1.07413 13.963769,-0.3906 7.51895,-1.56238 19.92034,-8.59309 31.0523,-8.39779 11.03431,0.0977 22.26391,9.37428 34.76295,9.17898 12.40139,-0.58589 26.16986,-10.35076 38.8642,-10.74136 12.30374,-0.39059 23.33804,8.49544 35.73943,8.78839 12.59669,0.0976 25.38868,-8.30015 38.8642,-7.90955 13.28023,0.1953 26.8534,9.27663 40.03598,9.17898 13.37788,-0.29295 25.97457,-9.96017 39.93834,-10.05782 13.96377,0 29.29462,9.27663 42.96544,9.56958 13.47553,0 27.34165,-8.88604 37.10652,-9.17898 9.66723,-0.3906 14.94026,5.85892 20.50624,7.12835 5.76127,1.26944 10.05782,1.36709 13.47552,0.3906 l 0,-25.87692 c -3.32006,0.87884 -7.71425,0.78119 -13.47552,-0.39059 -5.76128,-1.26943 -11.13196,-7.51895 -20.50624,-7.12836 -9.76487,0.3906 -23.82629,9.17898 -37.10652,9.17898 -13.67082,-0.29294 -29.00167,-9.56957 -42.96544,-9.56957 -13.86612,0.0976 -26.36516,9.76487 -39.93834,10.05782 -13.57317,0.0976 -27.14635,-8.98369 -40.03598,-9.17899 -13.47552,-0.39059 -26.26751,8.0072 -38.8642,7.90955 -12.01079,-0.1953 -22.75215,-8.59309 -34.56765,-8.78838 -16.02852,-0.35279 -26.67597,9.86941 -40.03598,10.74136 z m -1.36708,42.57485 c -12.49904,0.19529 -23.72865,-9.08134 -34.76295,-9.17898 -11.13196,-0.1953 -23.4357,6.83541 -31.0523,8.39779 -7.51896,1.56238 -12.206094,1.46473 -13.963772,0.39059 l 0,25.87692 c 1.757678,1.07413 6.542462,1.07413 13.963772,-0.3906 7.51895,-1.56238 19.92034,-8.59309 31.0523,-8.39779 11.0343,0.0976 22.26391,9.37428 34.76295,9.17898 12.40139,-0.58589 26.16986,-10.35076 38.86419,-10.74136 12.30374,-0.39059 23.33805,8.49544 35.73944,8.78839 12.59669,0.0977 25.38867,-8.30015 38.8642,-7.90955 13.28023,0.1953 26.8534,9.27663 40.03598,9.17898 13.37788,-0.29295 25.97457,-9.96017 39.93833,-10.05782 13.96377,0 29.29463,9.27663 42.96545,9.56958 13.47552,0 27.34165,-8.88604 37.10652,-9.17898 9.66722,-0.3906 14.94026,5.85892 20.50623,7.12835 5.76128,1.26944 10.05782,1.36709 13.47553,0.3906 l 0,-25.87692 c -3.32006,0.87884 -7.71425,0.78119 -13.47553,-0.39059 -5.76127,-1.26944 -11.13195,-7.51895 -20.50623,-7.12836 -9.76487,0.3906 -23.82629,9.17898 -37.10652,9.17898 -13.67082,-0.29294 -29.00168,-9.56957 -42.96545,-9.56957 -13.86612,0.0976 -26.36515,9.76487 -39.93833,10.05782 -13.57317,0.0976 -27.14635,-8.98369 -40.03598,-9.17899 -13.47553,-0.39059 -26.26751,8.0072 -38.8642,7.90955 -12.01079,-0.1953 -22.75215,-8.59309 -34.56765,-8.78838 -16.02852,-0.35279 -26.67598,9.86941 -40.03598,10.74136 z" id="path113" fill="#ffffff"/>
</svg>
