<?xml version="1.0" encoding="UTF-8" standalone="no"?>
<svg xmlns="http://www.w3.org/2000/svg" version="1.0" width="580" height="580">
 <metadata id="metadata2975"/>
 <path id="path4139" d="M 181.12305,56.443359 C 155.30805,56.396903 130.98438,65.26875 112,84 c -49,47.9 -33,120 20.5,173 41.9,41.9 92,63 137,45 18.6,6.4 50,19.30039 81,41.90039 -1,4.8 0.29961,9.99922 4.09961,13.69922 l 91,91 c 5.9,5.9 15.4,5.9 21,0 L 477.19922,438 c 5.9,-5.9 5.9,-15.4 0,-21 l -90,-90 c -3.7,-3.7 -8.89922,-5.09961 -13.69922,-4.09961 -22.7,-30.6 -35.7,-62 -42,-81 17.7,-44.9 -3.3,-95.00117 -45.75,-137.45117 C 254.67578,73.317188 216.49915,56.507022 181.12305,56.443359 Z M 319.19922,261.5 c 6.9,16.7 15.60078,35.49922 26.30078,55.19922 -20,-10.7 -38.79961,-19.39922 -55.09961,-26.19922 5.1,-4.2 10.2,-8.80078 15,-13.80078 5,-5 9.59883,-9.99922 13.79883,-15.19922 z M 172,347 c -28.16652,0 -51,22.83348 -51,51 0,28.16652 22.83348,51 51,51 28.16652,0 51,-22.83348 51,-51 0,-28.16652 -22.83348,-51 -51,-51 z" mix-blend-mode="normal" solid-color="#000000" opacity="0.8" color-interpolation-filters="linearRGB" filter-gaussianBlur-deviation="0" color="#000000" image-rendering="auto" color-rendering="auto" fill-rule="evenodd" stroke-width="64" isolation="auto" color-interpolation="sRGB" solid-opacity="1" fill="none" stroke-linejoin="round" filter-blend-mode="normal" stroke="#ffffff" shape-rendering="auto"/>
 <path d="M 181.12305,56.443359 C 155.30805,56.396903 130.98438,65.26875 112,84 c -49,47.9 -33,120 20.5,173 41.9,41.9 92,63 137,45 18.6,6.4 50,19.30039 81,41.90039 -1,4.8 0.29961,9.99922 4.09961,13.69922 l 91,91 c 5.9,5.9 15.4,5.9 21,0 L 477.19922,438 c 5.9,-5.9 5.9,-15.4 0,-21 l -90,-90 c -3.7,-3.7 -8.89922,-5.09961 -13.69922,-4.09961 -22.7,-30.6 -35.7,-62 -42,-81 17.7,-44.9 -3.3,-95.00117 -45.75,-137.45117 C 254.67578,73.317188 216.49915,56.507022 181.12305,56.443359 Z M 319.19922,261.5 c 6.9,16.7 15.60078,35.49922 26.30078,55.19922 -20,-10.7 -38.79961,-19.39922 -55.09961,-26.19922 5.1,-4.2 10.2,-8.80078 15,-13.80078 5,-5 9.59883,-9.99922 13.79883,-15.19922 z M 172,347 c -28.16652,0 -51,22.83348 -51,51 0,28.16652 22.83348,51 51,51 28.16652,0 51,-22.83348 51,-51 0,-28.16652 -22.83348,-51 -51,-51 z" id="circle2441" fill="#39ac39"/>
</svg>
