<?xml version="1.0" encoding="UTF-8" standalone="no"?>
<svg xmlns="http://www.w3.org/2000/svg" xmlns:sodipodi="http://sodipodi.sourceforge.net/DTD/sodipodi-0.dtd" xmlns:inkscape="http://www.inkscape.org/namespaces/inkscape" version="1.0" width="580" height="580">
 <metadata id="metadata10"/>
 <g id="g1327">
  <path d="M 66.275,1.768 C 24.94,1.768 1.704,23.139 1.704,66.804 L 1.704,516.927 C 1.704,557.771 22.598,579.156 63.896,579.156 L 515.92,579.156 C 557.227,579.156 578.149,558.84 578.149,516.927 L 578.149,66.804 C 578.149,24.203 557.227,1.768 514.627,1.768 C 514.624,1.768 66.133,1.625 66.275,1.768 z" id="path1329" fill="#734A08" stroke="#eeeeee" stroke-width="3.408"/>
 </g>
 <path d="m 116.54107,83.44698 119.71194,-21.335331 132.2871,13.796881 8.04386,363.39512 18.58841,29.06501 c 0,0 -60.31626,57.03706 -152.88947,58.17487 C 149.7097,527.68134 96.478545,469.75328 96.478545,469.75328 L 119.96006,433.80197 116.54107,83.44698 z" id="path2381" sodipodi:nodetypes="ccccczccc" opacity=".1" fill="#ffffff" fill-rule="evenodd"/>
 <path d="m 236.0545,60.223867 c -40.46871,0.891164 -80.28965,3.700653 -119.25773,17.024737 l 4.51683,354.207986 -0.31085,0.003 c -14.38283,9.26374 -22.611953,25.14847 -22.502276,36.74159 0.308947,32.65614 67.030646,58.51127 148.992656,57.73585 81.96211,-0.77541 148.1049,-27.88751 147.79595,-60.54364 -0.0969,-10.24616 -6.75576,-24.79773 -18.34426,-33.0909 l -2.89526,-2.07107 2.15553,-355.436922 C 328.6489,61.788933 281.91903,59.213884 236.0545,60.223867 z" id="path3839" sodipodi:nodetypes="ccccssscccc" fill="none" stroke="#ffffff" stroke-linejoin="round" stroke-linecap="round" stroke-width="35"/>
 <path d="m 380.69607,125.54711 93.65276,-3.97915 c 15.19172,2.89537 23.02298,11.79419 23.60885,26.60258 l -23.30581,194.30227 c -0.64884,14.16236 -9.75565,20.02526 -22.23803,22.57588 l -69.37862,7.74857" id="path3841" sodipodi:nodetypes="cccccc" fill="none" stroke="#ffffff" stroke-linejoin="round" stroke-linecap="round" stroke-width="24.869"/>
 <path d="m 120.54369,427.06113 c 28.30307,37.63947 80.60541,47.8991 127.81719,46.37248 45.92112,-1.48489 100.95684,-11.12188 126.58999,-44.12023" id="path3931" sodipodi:nodetypes="csc" fill="none" stroke="#ffffff" stroke-linejoin="round" stroke-linecap="round" stroke-width="22.06"/>
 <path sodipodi:nodetypes="csc" id="path3933" d="m 116.33786,427.88444 c 28.30307,37.63946 84.81124,47.8991 132.02302,46.37248 45.92112,-1.48489 102.95684,-13.12188 128.58999,-46.12023" fill="none" stroke="#ffffff" stroke-linejoin="round" stroke-linecap="round" stroke-width="30"/>
 <path sodipodi:nodetypes="cccccc" id="path3935" d="m 380.69607,134.37041 87.03527,-3.97914 c 15.19172,2.89537 23.02298,11.79419 23.60886,26.60258 L 470.24022,335.6495 c -0.64884,14.16236 -9.75566,20.02526 -22.23804,22.57588 l -64.96696,7.9544" fill="none" stroke="#ffffff" stroke-linejoin="round" stroke-linecap="round" stroke-width="30"/>
 <path d="m 245.74265,64.718609 c -85.4416,0 -132.63699,21.786771 -132.63699,26.859331 0,0.21533 0.10677,0.41537 0.35283,0.62725 l -0.35283,0 -5.55379,108.31282 18.58344,0 -2.7062,-76.48516 c 81.23408,56.30948 134.6429,-7.65863 241.05961,-2.15618 l 0.067,78.64134 19.18158,0 -7.72041,-114.9303 -0.23522,0 c 0.24521,-0.21188 0.39203,-0.41193 0.39203,-0.62725 0,-5.07256 -44.98869,-20.241851 -130.43116,-20.241851 l 6e-5,0 z" id="path2209" sodipodi:nodetypes="csccccccccccscc" opacity=".75" fill="#ffffff"/>
</svg>
