<?xml version="1.0" encoding="UTF-8" standalone="no"?>
<svg xmlns="http://www.w3.org/2000/svg" xmlns:sodipodi="http://sodipodi.sourceforge.net/DTD/sodipodi-0.dtd" xmlns:inkscape="http://www.inkscape.org/namespaces/inkscape" version="1.0" width="580" height="580">
 <metadata id="metadata2975"/>
 <g id="g1327">
  <path d="M 66.275,1.768 C 24.94,1.768 1.704,23.139 1.704,66.804 L 1.704,516.927 C 1.704,557.771 22.599,579.156 63.896,579.156 L 515.92,579.156 C 557.227,579.156 578.149,558.841 578.149,516.927 L 578.149,66.804 C 578.149,24.203 557.227,1.768 514.628,1.768 C 514.624,1.768 66.133,1.625 66.275,1.768 z " id="path1329" fill="#734A08" stroke="#eee" stroke-width="3.408"/>
 </g>
 <path d="M 85.437235,125.05685 C 85.437236,125.05685 41.418849,463.35286 234.35797,462.61634 C 239.06615,462.87529 243.54307,462.94955 247.80099,462.87822 C 252.05891,462.94955 256.53583,462.87529 261.24401,462.61634 C 454.18314,463.35286 410.16476,125.05685 410.16475,125.05685 L 247.80099,125.72609 L 85.437235,125.05685 z" id="path3407" fill="#ffffff" fill-rule="evenodd" stroke="#ffffff" stroke-linejoin="round" stroke-linecap="round" stroke-width="18.622"/>
 <path d="M 387.14691,197.01015 C 387.14691,197.01015 432.10304,162.99107 467.64668,162.99107 C 503.19055,162.99107 519.49033,218.37096 518.73421,255.55454 C 517.97787,292.73815 490.75292,383.71961 358.40927,385.30186 C 226.06585,386.88412 387.90303,197.01015 387.14691,197.01015 z" id="path3409" sodipodi:nodetypes="csssc" fill="none" fill-rule="evenodd" stroke="#ffffff" stroke-width="45.627"/>
</svg>
