<?xml version="1.0" encoding="UTF-8" standalone="no"?>
<svg xmlns="http://www.w3.org/2000/svg" xmlns:xlink="http://www.w3.org/1999/xlink" xmlns:sodipodi="http://sodipodi.sourceforge.net/DTD/sodipodi-0.dtd" xmlns:inkscape="http://www.inkscape.org/namespaces/inkscape" version="1.0" width="580" height="580">
 <metadata id="metadata2975"/>
 <defs id="defs4">
  <symbol viewBox="244.5 110 489 219.9" id="symbol-university">
   <path id="path4460" d="M79,43l57,119c0,0,21-96,104-96s124,106,124,106l43-133l82-17L0,17L79,43z"/>
   <path id="path4462" d="M94,176l-21,39" stroke-width="20" stroke="#000000" fill="none"/>
   <path id="path4464" d="M300,19c0,10.5-22.6,19-50.5,19S199,29.5,199,19s22.6-19,50.5-19S300,8.5,300,19z"/>
   <path id="path4466" d="M112,216l-16-38L64,88c0,0-9-8-4-35s16-24,16-24" stroke-width="20" stroke="#000000" ill="none"/>
  </symbol>
  <radialGradient gradientUnits="userSpaceOnUse" gradientTransform="scale(0.79354273,1.2601716)" xlink:href="#linearGradient829" id="radialGradient874" cx="180.25" cy="198.42" r="101.58"/>
  <linearGradient id="linearGradient829">
   <stop id="stop830" stop-color="#ffffff" stop-opacity=".342"/>
   <stop offset="1" id="stop831" stop-color="#ffffff" stop-opacity="0"/>
  </linearGradient>
  <radialGradient gradientUnits="userSpaceOnUse" gradientTransform="scale(1.007004,0.99304475)" xlink:href="#linearGradient829" id="radialGradient832" cx="360.85" cy="167.47" r="46.39"/>
  <linearGradient gradientUnits="userSpaceOnUse" gradientTransform="scale(0.74491357,1.3424376)" xlink:href="#linearGradient855" id="linearGradient850" x1="465.29" y1="248.24" x2="463.27" y2="405.77"/>
  <linearGradient id="linearGradient855">
   <stop id="stop856" stop-color="#ffffff" stop-opacity="0"/>
   <stop offset="1" id="stop857" stop-color="#ffa617" stop-opacity=".733"/>
  </linearGradient>
  <linearGradient gradientUnits="userSpaceOnUse" gradientTransform="scale(1.4586159,0.68558144)" xlink:href="#linearGradient855" id="linearGradient854" x1="157.81" y1="120.96" x2="155.41" y2="231.63"/>
  <clipPath id="clipoutline2">
   <path d="m 55.8,12 0.76,0.16 c 8.84,-2.94 28.68,8.64 24.26,18.96 -1.12,1.62 -0.93,4.5 0.42,6.31 L 56.43,62.25 c -1.39,-1.39 -4.48,-1.36 -5.9,0 L 9.5,101.63 c -3.74,3.59 -0.8,6.64 0.78,8.25 l 7.36,7.36 c 1.61,1.6 5.86,3.76 8.88,0.56 L 65.24,76.99 c 1.35,-1.42 1.36,-4.47 0,-5.87 0,0 0.01,-0.02 0,-0.02 L 90.15,46.2 c 2.63,2.37 5.113827,2.574854 7.47,1.93 4.55057,-1.245432 7.08725,3.206643 9.81,6.46 l -1.23,1.21 c -1.82,1.84 -1.65,4.94 0.39,6.98 2.04,2.04 5.15,2.21 6.97,0.39 l 8.14,-8.13 c 1.82,-1.84 1.65,-4.94 -0.4,-6.97 -1.84,-1.85 -4.51,-2.09 -6.37,-0.77 -5.58,-6.26 -2.65,-7.2 -10.01,-15.35 L 91.13,17.86 C 81.2,8.12 68.3,8.13 55.8,12 z" id="outline2"/>
  </clipPath>
 </defs>
 <g id="g1327">
  <path d="M 66.275,1.768 C 24.94,1.768 1.704,23.139 1.704,66.804 L 1.704,516.927 C 1.704,557.771 22.599,579.156 63.896,579.156 L 515.92,579.156 C 557.227,579.156 578.149,558.841 578.149,516.927 L 578.149,66.804 C 578.149,24.203 557.227,1.768 514.628,1.768 C 514.624,1.768 66.133,1.625 66.275,1.768 z " id="path1329" fill="#0092DA" stroke="#eee" stroke-width="3.408"/>
 </g>
 <rect id="rect2311" height="35.05" width="178.95" y="437.77" x="32.726" fill="#ffffff"/>
 <rect id="rect2313" height="35.05" width="178.95" y="384.72" x="32.726" fill="#ffffff"/>
 <rect id="rect2315" height="35.05" width="178.95" y="331.54" x="32.726" fill="#ffffff"/>
 <rect id="rect2317" height="35.05" width="178.95" y="278.3" x="32.726" fill="#ffffff"/>
 <path id="path2319" d="M 284.07932,100.11271 C 280.81166,92.360036 273.05897,86.849853 264.15299,86.849853 l -28.76823,0.128144 V 472.7543 H 371.66547 L 284.07932,100.11271 z" inkscape:connector-curvature="0" fill="#ffffff"/>
 <rect id="rect2321" height="34.919" width="178.95" y="225.24" x="32.726" fill="#ffffff"/>
 <rect id="rect2323" height="35.05" width="178.95" y="172.07" x="32.726" fill="#ffffff"/>
 <rect id="rect2325" height="35.05" width="178.95" y="118.88" x="32.726" fill="#ffffff"/>
 <path id="path2327" d="m 388.32414,442.25613 c 2.62695,0.51257 5.25388,0.76886 7.88083,0.76886 6.98382,0 13.64729,-1.60179 19.5419,-4.22874 6.15089,-2.88324 12.87843,-4.48503 20.11854,-4.48503 7.11197,0 13.90358,1.60179 20.05447,4.48503 5.89461,2.62695 12.62216,4.22874 19.5419,4.22874 6.91976,0 13.51915,-1.60179 19.5419,-4.22874 6.02275,-2.88324 12.87844,-4.48503 20.05447,-4.48503 7.17605,0 14.03173,1.60179 20.11856,4.48503 5.8946,2.62695 12.49399,4.22874 19.54189,4.22874 v 29.15266 c -6.98383,0 -13.64729,-1.47365 -19.54189,-4.10059 -6.1509,-2.88323 -13.00659,-4.48503 -20.11856,-4.48503 -7.11196,0 -14.03172,1.6018 -20.05447,4.48503 -6.02275,2.62694 -12.62214,4.10059 -19.5419,4.10059 -6.91974,0 -13.64729,-1.47365 -19.5419,-4.10059 -6.15089,-2.88323 -12.87843,-4.48503 -20.05447,-4.48503 -7.24011,0 -14.03173,1.6018 -20.11854,4.48503 -5.89461,2.62694 -12.494,4.10059 -19.5419,4.10059 -0.38443,0 -0.76886,0 -1.1533,0 l -6.72753,-29.92152 z" inkscape:connector-curvature="0" fill="#ffffff"/>
 <path id="path2329" d="m 376.66307,385.04001 c 6.02275,2.62695 12.62214,4.22874 19.5419,4.22874 6.98382,0 13.64729,-1.60179 19.5419,-4.22874 6.15089,-2.88323 12.87843,-4.48502 20.11854,-4.48502 7.11197,0 13.90358,1.60179 20.05447,4.48502 5.89461,2.62695 12.62216,4.22874 19.5419,4.22874 6.91976,0 13.51915,-1.60179 19.5419,-4.22874 6.02275,-2.88323 12.87844,-4.48502 20.05447,-4.48502 7.17605,0 14.03173,1.60179 20.11856,4.48502 5.8946,2.62695 12.49399,4.22874 19.54189,4.22874 v 29.15267 c -6.98383,0 -13.64729,-1.47365 -19.54189,-4.1006 -6.1509,-2.88323 -13.00659,-4.48502 -20.11856,-4.48502 -7.11196,0 -14.03172,1.60179 -20.05447,4.48502 -6.02275,2.62695 -12.62214,4.1006 -19.5419,4.1006 -6.91974,0 -13.64729,-1.47365 -19.5419,-4.1006 -6.15089,-2.88323 -12.87843,-4.48502 -20.05447,-4.48502 -7.24011,0 -14.03173,1.60179 -20.11854,4.48502 -5.89461,2.62695 -12.494,4.1006 -19.5419,4.1006 -4.22874,0 -8.39341,-0.51258 -12.36586,-1.6018 l -7.17604,-31.77961 z" inkscape:connector-curvature="0" fill="#ffffff"/>
</svg>
