<?xml version="1.0" encoding="UTF-8" standalone="no"?>
<svg xmlns="http://www.w3.org/2000/svg" version="1.0" width="580" height="580">
 <metadata id="metadata2975"/>
 <path id="path4133" d="m 468.1,97.2 c 0,-5.9 -81,-10.8 -181,-10.8 -100,0 -181,4.8 -181,10.8 51.64415,50.6351 106.67027,100.13669 160,149.8 l 0,168 c -34.34272,24.51831 -69.25673,49.67779 -104.5,74.8 0,4.1 56,7.4 125,7.4 69,0 125,-3.3 125,-7.4 C 375.74331,463.63472 338.14159,437.22747 306.9,415 l 0,-168 C 370.6306,189.65724 408.28133,154.1855 468.1,97.2 Z M 281.5,218 l -77,-71.8 c -2.9,-2.7 -2,-4.9 1.9,-4.9 l 162,0 c 3.9,0 4.8,2.2 1.9,4.9 L 292.65,218 c -3.55,2.7 -8.25,2.7 -11.15,0 z" mix-blend-mode="normal" solid-color="#000000" opacity="0.8" color-interpolation-filters="linearRGB" filter-gaussianBlur-deviation="0" color="#000000" image-rendering="auto" color-rendering="auto" stroke-width="64" isolation="auto" color-interpolation="sRGB" solid-opacity="1" fill="none" stroke-linejoin="round" filter-blend-mode="normal" stroke="#ffffff" shape-rendering="auto"/>
 <path d="m 468.1,97.2 c 0,-5.9 -81,-10.8 -181,-10.8 -100,0 -181,4.8 -181,10.8 51.64415,50.6351 106.67027,100.13669 160,149.8 l 0,168 c -34.34272,24.51831 -69.25673,49.67779 -104.5,74.8 0,4.1 56,7.4 125,7.4 69,0 125,-3.3 125,-7.4 C 375.74331,463.63472 338.14159,437.22747 306.9,415 l 0,-168 C 370.6306,189.65724 408.28133,154.1855 468.1,97.2 Z M 281.5,218 l -77,-71.8 c -2.9,-2.7 -2,-4.9 1.9,-4.9 l 162,0 c 3.9,0 4.8,2.2 1.9,4.9 L 292.65,218 c -3.55,2.7 -8.25,2.7 -11.15,0 z" id="path2209" fill="#734a08"/>
</svg>
