<?xml version="1.0" encoding="UTF-8" standalone="no"?>
<svg xmlns="http://www.w3.org/2000/svg" version="1.0" width="580" height="580">
 <metadata id="metadata2975"/>
 <path white-space="normal" isolation="auto" mix-blend-mode="normal" id="path4136" d="m 76,124 c 0,0 -11,85 2,172 7,43 20,86 44,120 25,33 61,56 112,56 l 28,0 c 51.51511,-5.744 85.58808,-23.28584 117,-65 13,-1 15.89175,-1.19638 36,-5 28.75421,-7.40611 86.74641,-36.73875 112,-88 18.7349,-54.09102 18.31184,-115.43724 -17,-155 -10,-10 -25,-19 -42,-19 l -1,0 0,0 c -17,1 -31,5 -45,11 -1,-17 -3,-27 -3,-27 0,-5 -4,-8 -9,-8 l -324,0 c -5,0 -9,3 -10,8 z m 412,85 0,0 c 7.4375,29.47253 9.30868,62.16521 -2,85 l 0,1 0,0 c -14,31 -46,54 -80,62 -7.02179,6.00578 9.19723,-48.68941 11,-61 5,-34 7,-67 7,-95 15,-8 30,-14 44,-15 10.6253,1.74638 16.23838,14.33425 20,23 z" solid-color="#000000" color-interpolation-filters="linearRGB" opacity="0.8" filter-gaussianBlur-deviation="0" color="#000000" image-rendering="auto" color-rendering="auto" stroke-width="64" color-interpolation="sRGB" solid-opacity="1" fill="none" stroke-linejoin="round" filter-blend-mode="normal" stroke="#ffffff" shape-rendering="auto"/>
 <path d="m 76,124 c 0,0 -11,85 2,172 7,43 20,86 44,120 25,33 61,56 112,56 l 28,0 c 51.51511,-5.744 85.58808,-23.28584 117,-65 13,-1 15.89175,-1.19638 36,-5 28.75421,-7.40611 86.74641,-36.73875 112,-88 18.7349,-54.09102 18.31184,-115.43724 -17,-155 -10,-10 -25,-19 -42,-19 l -1,0 0,0 c -17,1 -31,5 -45,11 -1,-17 -3,-27 -3,-27 0,-5 -4,-8 -9,-8 l -324,0 c -5,0 -9,3 -10,8 z m 412,85 0,0 c 7.4375,29.47253 9.30868,62.16521 -2,85 l 0,1 0,0 c -14,31 -46,54 -80,62 -7.02179,6.00578 9.19723,-48.68941 11,-61 5,-34 7,-67 7,-95 15,-8 30,-14 44,-15 10.6253,1.74638 16.23838,14.33425 20,23 z" id="path3407" mix-blend-mode="normal" isolation="auto" white-space="normal" fill="#734a08" color-rendering="auto" solid-opacity="1" color-interpolation-filters="linearRGB" shape-rendering="auto" fill-rule="evenodd" image-rendering="auto" color-interpolation="sRGB" color="#000000" solid-color="#000000"/>
</svg>
