<?xml version="1.0" encoding="UTF-8" standalone="no"?>
<svg xmlns="http://www.w3.org/2000/svg" version="1.0" width="580" height="580">
 <metadata id="metadata2975"/>
 <path id="path4141" d="M 542,291 C 542,430.72804 428.72804,544 289,544 149.27196,544 36,430.72804 36,291 36,151.27196 149.27196,38 289,38 428.72804,38 542,151.27196 542,291 Z" mix-blend-mode="normal" solid-color="#000000" opacity="0.8" color-interpolation-filters="linearRGB" filter-gaussianBlur-deviation="0" color="#000000" image-rendering="auto" color-rendering="auto" stroke-width="64" isolation="auto" color-interpolation="sRGB" solid-opacity="1" fill="none" stroke-linejoin="round" filter-blend-mode="normal" stroke="#ffffff" shape-rendering="auto"/>
 <path d="M 542,291 C 542,430.72804 428.72804,544 289,544 149.27196,544 36,430.72804 36,291 36,151.27196 149.27196,38 289,38 428.72804,38 542,151.27196 542,291 Z" id="path3267" fill="#734a08"/>
 <path d="m 218.1,249 c -52,0 -95,2.5 -95,4.25 0,0.1 29.45,229 29.45,229 -0.15,1.25 29.25,3.05 65.85,3.05 36,0 66,-1.7 65.8,-3 0,-0.1 29.025,-229.05 29.025,-229.05 C 313.1,251.5 270.6,249 218.1,249 Z M 172,463.3 143,269 c 48,0.2 83,2.6 148,-1.3 L 264.65,464.35 C 263.5,465.4 174,464.8 172,463.3 Z" id="path2209" fill="#ffffff"/>
 <path d="m 298,266.3 -26.3,208 -111,1.3 -25.35,-210.8 z" id="path2381" opacity="0.1" fill="#ffffff" fill-rule="evenodd"/>
 <path d="m 289.6,77.3 c 0,9 7.4,16.4 16.4,16.4 3.1,0 5.9,-0.6 8.8,-1.5 l 0,8.6 c -5.3,3.7 -9.2,9.2 -11.9,14.5 -2,3.9 -3.5,8.2 -4.7,12.7 -9.06665,-0.0641 -18.13363,-0.1015 -27.2,-0.2 -36.6,-0.6 -62,20.4 -71,40.5 -9.4,20 -7.7,39 -7.7,39 l 49,-3.3 c 0,0 -0.1,-8.1 3.2,-15 3.3,-6.9 5,-12.6 26.3,-12.3 10.24128,0.0976 19.66481,0.14188 30.3,0.2 0.7,1.8 1.4,3.5 2.3,5.1 4.8,9.6 13.4,19.3 26.6,19.3 13.2,0 21.8,-9.7 26.6,-19.3 0.8,-1.6 1.5,-3.2 2.1,-4.8 l 73,0.4 0.3,-49 -70,-0.4 c -1.2,-4.6 -2.7,-9 -4.8,-13 -2.7,-5.4 -6.6,-10.8 -11.9,-14.5 l 0,-8.7 c 3,1 5.9,1.6 9.1,1.6 9,0 17.47395,-7.464306 16.4,-16.4 -1.1996,-9.981145 -8.85098,-16.168182 -16.7,-16.4 -5.60241,0.497449 -10.53176,2.429826 -14.8,3.9 -2.59144,-1.924699 -5.74359,-2.944432 -8.97132,-2.902261 -3.03626,0.04933 -5.98301,1.036268 -8.43651,2.825583 C 316.5241,63.749065 311.53654,60.25233 306.49609,60.811662 297,60.9 289.6,68.3 289.6,77.3 Z" id="path3340" mix-blend-mode="normal" isolation="auto" white-space="normal" fill="#ffffff" color-rendering="auto" solid-opacity="1" color-interpolation-filters="linearRGB" shape-rendering="auto" image-rendering="auto" color-interpolation="sRGB" color="#000000" solid-color="#000000"/>
</svg>
