<?xml version="1.0" encoding="UTF-8" standalone="no"?>
<svg xmlns="http://www.w3.org/2000/svg" version="1.0" width="580" height="580">
 <metadata id="metadata2975"/>
 <path id="path4142" d="m 475,186 -159,0 38,303 130,0 38.8,-303 -29.4,0 30.5,-105 -18.05,-5.15 z" mix-blend-mode="normal" solid-color="#000000" opacity="0.8" color-interpolation-filters="linearRGB" filter-gaussianBlur-deviation="0" color="#000000" image-rendering="auto" color-rendering="auto" stroke-width="64" isolation="auto" color-interpolation="sRGB" solid-opacity="1" fill="none" stroke-linejoin="round" filter-blend-mode="normal" stroke="#ffffff" shape-rendering="auto"/>
 <path id="path4144" d="m 235,318.4 -107,0 C 83.4,320.7 62,335.6 65.2,363 l 232.4,0 c 2.5,-27.4 -18.2,-42 -62.6,-44.6 z" mix-blend-mode="normal" solid-color="#000000" opacity="0.8" color-interpolation-filters="linearRGB" filter-gaussianBlur-deviation="0" color="#000000" image-rendering="auto" color-rendering="auto" stroke-width="64" isolation="auto" color-interpolation="sRGB" solid-opacity="1" fill="none" stroke-linejoin="round" filter-blend-mode="normal" stroke="#ffffff" shape-rendering="auto"/>
 <path id="path4146" d="m 128,489 108,0 c 44.6,-2 65,-16.6 62,-44 l -232.9,0 c -2.6,27.4 18.3,42 62.9,44 z" mix-blend-mode="normal" solid-color="#000000" opacity="0.8" color-interpolation-filters="linearRGB" filter-gaussianBlur-deviation="0" color="#000000" image-rendering="auto" color-rendering="auto" stroke-width="64" isolation="auto" color-interpolation="sRGB" solid-opacity="1" fill="none" stroke-linejoin="round" filter-blend-mode="normal" stroke="#ffffff" shape-rendering="auto"/>
 <path id="path4148" d="m 75,384 c -5.5,0 -10.2,2 -14,5.9 -3.9,3.9 -5.9,8.4 -5.9,13.5 0,5.9 2,10.7 5.9,14.4 3.9,3.7 8.6,5.6 14,5.6 l 213,0 c 5.5,0 10.2,-1.9 14,-5.6 3.9,-3.7 5.9,-8.5 5.9,-14.4 0,-5.1 -2,-9.6 -5.9,-13.5 -3.9,-3.9 -8.6,-5.9 -14,-5.9 z" mix-blend-mode="normal" solid-color="#000000" opacity="0.8" color-interpolation-filters="linearRGB" filter-gaussianBlur-deviation="0" color="#000000" image-rendering="auto" color-rendering="auto" stroke-width="64" isolation="auto" color-interpolation="sRGB" solid-opacity="1" fill="none" stroke-linejoin="round" filter-blend-mode="normal" stroke="#ffffff" shape-rendering="auto"/>
 <path d="m 475,186 -159,0 38,303 130,0 38.8,-303 -29.4,0 30.5,-105 -18.05,-5.15 z" id="path4140" fill="#734a08"/>
 <path d="m 235,318.4 -107,0 C 83.4,320.7 62,335.6 65.2,363 l 232.4,0 c 2.5,-27.4 -18.2,-42 -62.6,-44.6 z" id="path4138" fill="#734a08"/>
 <path d="m 128,489 108,0 c 44.6,-2 65,-16.6 62,-44 l -232.9,0 c -2.6,27.4 18.3,42 62.9,44 z" id="path4136" fill="#734a08"/>
 <path d="m 75,384 c -5.5,0 -10.2,2 -14,5.9 -3.9,3.9 -5.9,8.4 -5.9,13.5 0,5.9 2,10.7 5.9,14.4 3.9,3.7 8.6,5.6 14,5.6 l 213,0 c 5.5,0 10.2,-1.9 14,-5.6 3.9,-3.7 5.9,-8.5 5.9,-14.4 0,-5.1 -2,-9.6 -5.9,-13.5 -3.9,-3.9 -8.6,-5.9 -14,-5.9 z" id="flowRoot3192" fill="#734a08"/>
</svg>
