<?xml version="1.0" encoding="UTF-8" standalone="no"?>
<svg xmlns="http://www.w3.org/2000/svg" version="1.0" width="580" height="580">
 <metadata id="metadata2975"/>
 <path d="M 481,269 472,66 c 0,-3.9 -3.1,-7 -7,-7 l -4.6,0 c -3.9,0 -7,3.1 -7,7 l 3.3,203 -20.3,0 -5.1,-205 c 0,-3.9 -3.1,-7 -7,-7 l -6,0 c -3.9,0 -7,3.1 -7,7 l 2.8,205 -25,0 2.8,-205 c 0,-3.9 -3.1,-7 -7,-7 l -6,0 c -3.9,0 -7,3.1 -7,7 l -5.1,205 -19.8,0 3.3,-203 c 0,-3.9 -3.1,-7 -7,-7 l -4.6,0 c -3.9,0 -7,3.1 -7,7 L 321,269 c 0,60 13.7,82 51,100 l -7.8,147 74,0 -8,-146.5 C 467.6,351.5 481,329.1 481,269 Z M 268.9,211 c 0,-74 -61.8,-155 -94,-155 -32,0 -94,81 -94,155 0,60 27,110 64.9,128 l -7.8,177 74,0 -7.9,-176.5 c 37.5,-18 64.8,-68.5 64.8,-128.5 z" id="path4138" mix-blend-mode="normal" solid-color="#000000" opacity="0.8" color-interpolation-filters="linearRGB" filter-gaussianBlur-deviation="0" color="#000000" image-rendering="auto" color-rendering="auto" fill-rule="evenodd" stroke-width="64" isolation="auto" color-interpolation="sRGB" solid-opacity="1" fill="none" stroke-linejoin="round" filter-blend-mode="normal" stroke="#ffffff" shape-rendering="auto"/>
 <path id="path2112" d="M 481,269 472,66 c 0,-3.9 -3.1,-7 -7,-7 l -4.6,0 c -3.9,0 -7,3.1 -7,7 l 3.3,203 -20.3,0 -5.1,-205 c 0,-3.9 -3.1,-7 -7,-7 l -6,0 c -3.9,0 -7,3.1 -7,7 l 2.8,205 -25,0 2.8,-205 c 0,-3.9 -3.1,-7 -7,-7 l -6,0 c -3.9,0 -7,3.1 -7,7 l -5.1,205 -19.8,0 3.3,-203 c 0,-3.9 -3.1,-7 -7,-7 l -4.6,0 c -3.9,0 -7,3.1 -7,7 L 321,269 c 0,60 13.7,82 51,100 l -7.8,147 74,0 -8,-146.5 C 467.6,351.5 481,329.1 481,269 Z M 268.9,211 c 0,-74 -61.8,-155 -94,-155 -32,0 -94,81 -94,155 0,60 27,110 64.9,128 l -7.8,177 74,0 -7.9,-176.5 c 37.5,-18 64.8,-68.5 64.8,-128.5 z" fill="#734a08"/>
</svg>
