<?xml version="1.0" encoding="UTF-8" standalone="no"?>
<svg xmlns="http://www.w3.org/2000/svg" version="1.0" width="580" height="580">
 <metadata id="metadata2975"/>
 <path id="path4142" d="m 333.4082,239.80078 c -4.05705,52.83752 -7.97544,107.27619 -10.74218,151.79892 1.33172,12.36242 11.81493,23 25.33398,23 32.33334,-0.3331 64.66669,-0.66662 97.00003,-1 13.44016,0 24.05695,-9.94808 25.34375,-23 0.22336,-47.57134 -0.40528,-96.53651 -0.74417,-144.5997 0,-14.39987 -12.04379,-25.49157 -25.41406,-25.59375 l -84.09375,-6.00586 c -14.75458,1.04928 -25.63304,15.2893 -26.6836,25.40039 z" shape-rendering="auto" mix-blend-mode="normal" filter-blend-mode="normal" color-interpolation-filters="linearRGB" isolation="auto" white-space="normal" opacity="0.8" fill="none" solid-opacity="1" image-rendering="auto" solid-color="#000000" stroke="#ffffff" color="#000000" stroke-linejoin="round" stroke-width="64" color-rendering="auto" filter-gaussianBlur-deviation="0" color-interpolation="sRGB"/>
 <path id="path4144" d="m 102,163 c -4,4 -6,11 -6,17 l 0,208 c 0,13 10,23 23,23 l 97,0 c 13,0 23,-10 23,-23 l 0,0 0,0 -6,-176 c -0.45443,-5.5379 -2.1836,-11.15846 -5,-15 -4,-4 -9,-7 -16,-10 l -92,-30 c -6.96524,-1.59555 -14.15061,1.02707 -18,6 z" mix-blend-mode="normal" solid-color="#000000" opacity="0.8" color-interpolation-filters="linearRGB" filter-gaussianBlur-deviation="0" color="#000000" image-rendering="auto" color-rendering="auto" stroke-width="64" isolation="auto" color-interpolation="sRGB" solid-opacity="1" fill="none" stroke-linejoin="round" filter-blend-mode="normal" stroke="#ffffff" shape-rendering="auto"/>
 <path d="m 333.4082,239.80078 c -4.05705,52.83752 -7.97544,107.27619 -10.74218,151.79892 1.33172,12.36242 11.81493,23 25.33398,23 32.33334,-0.3331 64.66669,-0.66662 97.00003,-1 13.44016,0 24.05695,-9.94808 25.34375,-23 0.22336,-47.57134 -0.40528,-96.53651 -0.74417,-144.5997 0,-14.39987 -12.04379,-25.49157 -25.41406,-25.59375 l -84.09375,-6.00586 c -14.75458,1.04928 -25.63304,15.2893 -26.6836,25.40039 z" id="path4137" shape-rendering="auto" mix-blend-mode="normal" color-interpolation-filters="linearRGB" isolation="auto" white-space="normal" fill="#666666" solid-opacity="1" image-rendering="auto" solid-color="#000000" color="#000000" color-rendering="auto" color-interpolation="sRGB"/>
 <path d="m 102,163 c -4,4 -6,11 -6,17 l 0,208 c 0,13 10,23 23,23 l 97,0 c 13,0 23,-10 23,-23 l 0,0 0,0 -6,-176 c -0.45443,-5.5379 -2.1836,-11.15846 -5,-15 -4,-4 -9,-7 -16,-10 l -92,-30 c -6.96524,-1.59555 -14.15061,1.02707 -18,6 z" id="path6056" fill="#666666"/>
</svg>
