<?xml version="1.0" encoding="UTF-8" standalone="no"?>
<svg xmlns="http://www.w3.org/2000/svg" version="1.0" width="580" height="580">
 <metadata id="metadata2975"/>
 <path id="path4138" d="m 380,421 c 10.8,34.4 53.8,16 49,-10 l -31,-161 49,0 0,172 c 0.7,28 36.7,19.7 34.8,-0.4 L 482,199 c -2,-25.7 -34.9,-19.4 -35,-0.4 l 0,16.4 -56,0 -13,-71 c -14,-35 -55.9,-17.8 -49,9 z" mix-blend-mode="normal" solid-color="#000000" opacity="0.8" color-interpolation-filters="linearRGB" filter-gaussianBlur-deviation="0" color="#000000" image-rendering="auto" color-rendering="auto" stroke-width="64" isolation="auto" color-interpolation="sRGB" solid-opacity="1" fill="none" stroke-linejoin="round" filter-blend-mode="normal" stroke="#ffffff" shape-rendering="auto"/>
 <path id="path4140" d="m 189,215 -56,0 0,-16 c -3,-26 -34,-20 -35,0 l 0,223 c 4.3,25.9 34.9,18.6 35,-0.4 l 0,-171.6 49,0 -31,161 c -7.1,39.5 45.7,38 48.7,9.5 L 252,153 c 2,-35.8 -43.9,-37 -49.3,-9.5 z" mix-blend-mode="normal" solid-color="#000000" opacity="0.8" color-interpolation-filters="linearRGB" filter-gaussianBlur-deviation="0" color="#000000" image-rendering="auto" color-rendering="auto" stroke-width="64" isolation="auto" color-interpolation="sRGB" solid-opacity="1" fill="none" stroke-linejoin="round" filter-blend-mode="normal" stroke="#ffffff" shape-rendering="auto"/>
 <path d="m 380,421 c 10.8,34.4 53.8,16 49,-10 l -31,-161 49,0 0,172 c 0.7,28 36.7,19.7 34.8,-0.4 L 482,199 c -2,-25.7 -34.9,-19.4 -35,-0.4 l 0,16.4 -56,0 -13,-71 c -14,-35 -55.9,-17.8 -49,9 z" id="path4136" fill="#666666"/>
 <path d="m 189,215 -56,0 0,-16 c -3,-26 -34,-20 -35,0 l 0,223 c 4.3,25.9 34.9,18.6 35,-0.4 l 0,-171.6 49,0 -31,161 c -7.1,39.5 45.7,38 48.7,9.5 L 252,153 c 2,-35.8 -43.9,-37 -49.3,-9.5 z" id="line6215" fill="#666666"/>
</svg>
