<?xml version="1.0" encoding="UTF-8" standalone="no"?>
<svg xmlns="http://www.w3.org/2000/svg" version="1.0" width="580" height="580">
 <metadata id="metadata10"/>
 <path id="path4137" d="m415 154c-15.3.1-23.8 14.5-34.7 23L333 220c-73 0-147 0-220 0-20 .2-30 27.8-15.3 41 11 10.6 27.3 5.8 41 6.9 48 0 95 0 142 0l-52 47.9c-39.5.3-79-.5-118 .4-19.8 2.6-26.7 31-10.3 42.6 11.8 8.3 26.9 3.9 40 5 12 0 24 0 36 0-10.3 10-22 18.8-31 30-10.9 16.7 6.3 40.6 25.6 35.6 13-3.8 21-16 31.5-24.3C217 392 232 378 247 364c74-.1 147 .1 220-.1 19.9-.8 29.5-28.6 14.2-41-11.3-10-27-5.3-41-6.5-47 0-94 0-141 0l52-47.9c38.7-.1 77 .2 116-.1 19.9-1 29-28.9 13.8-41.6-11.6-10-27.6-5.1-41.5-6.3-12 0-24 0-36 0 10.3-10 22-18.9 31-30 9.8-15.3-2.2-36.7-20.3-36.4z" fill="none" stroke="#ffffff" stroke-linejoin="round" stroke-width="64" opacity="0.8"/>
 <path d="m415 154c-15.3.1-23.8 14.5-34.7 23L333 220c-73 0-147 0-220 0-20 .2-30 27.8-15.3 41 11 10.6 27.3 5.8 41 6.9 48 0 95 0 142 0l-52 47.9c-39.5.3-79-.5-118 .4-19.8 2.6-26.7 31-10.3 42.6 11.8 8.3 26.9 3.9 40 5 12 0 24 0 36 0-10.3 10-22 18.8-31 30-10.9 16.7 6.3 40.6 25.6 35.6 13-3.8 21-16 31.5-24.3C217 392 232 378 247 364c74-.1 147 .1 220-.1 19.9-.8 29.5-28.6 14.2-41-11.3-10-27-5.3-41-6.5-47 0-94 0-141 0l52-47.9c38.7-.1 77 .2 116-.1 19.9-1 29-28.9 13.8-41.6-11.6-10-27.6-5.1-41.5-6.3-12 0-24 0-36 0 10.3-10 22-18.9 31-30 9.8-15.3-2.2-36.7-20.3-36.4" id="path2900" fill="#666666"/>
</svg>
