<?xml version="1.0" encoding="UTF-8" standalone="no"?>
<svg xmlns="http://www.w3.org/2000/svg" version="1.0" width="580" height="580">
 <metadata id="metadata10"/>
 <path mix-blend-mode="normal" white-space="normal" isolation="auto" id="path4149" d="m 376,171.8 c -75,16.7 -151,32.9 -226,50 -19,6.5 -23.5,35.9 -6.6,47 14.5,10.9 32.7,1.6 48,-0.8 90,-19.7 180,-38.9 269,-59 20,-6.7 23.6,-38 4.6,-48.7 -4,-2.6 -8.8,-4 -13.3,-4.25 C 426.5,159.6 402,166.8 376,171.8 Z" solid-color="#000000" opacity="0.8" color-interpolation-filters="linearRGB" filter-gaussianBlur-deviation="0" color="#000000" image-rendering="auto" color-rendering="auto" stroke-width="64" color-interpolation="sRGB" solid-opacity="1" fill="none" stroke-linejoin="round" filter-blend-mode="normal" stroke="#ffffff" shape-rendering="auto"/>
 <path mix-blend-mode="normal" white-space="normal" isolation="auto" id="path4151" d="m 398,413 c 0.3,13.9 13.7,25.4 27.4,24 13.8,-0.1 27.5,0.2 41,-0.1 13.5,-1 24,-14.2 22.9,-27.6 l 0,-132 C 489,264 475,253 462,254 l -39,0 c -14.4,-0.4 -26.8,13 -25.2,27.2 z" solid-color="#000000" opacity="0.8" color-interpolation-filters="linearRGB" filter-gaussianBlur-deviation="0" color="#000000" image-rendering="auto" color-rendering="auto" stroke-width="64" color-interpolation="sRGB" solid-opacity="1" fill="none" stroke-linejoin="round" filter-blend-mode="normal" stroke="#ffffff" shape-rendering="auto"/>
 <path mix-blend-mode="normal" white-space="normal" isolation="auto" id="path4153" d="m 95.4,175.5 c 0.1,79 -0.2,158 0.1,237 1.3,17.8 19.7,31 37,28 14.2,-0.9 29,2.4 42.8,-2.8 13.4,-6.1 20,-21.6 18.3,-35.8 l 0,-137 c -15.3,4 -32.7,13.7 -47.9,4 -16.9,-9.3 -12.9,-37.7 4.3,-44 14,-3.8 31.8,-5.3 43,-11.4 -0.4,-16.9 1,-34 -0.9,-50.8 -3.8,-16 -21,-26 -37,-23.8 C 146,139 136,139 127,139 108.2,138.2 92.6,157.2 95.4,175.5 Z" solid-color="#000000" opacity="0.8" color-interpolation-filters="linearRGB" filter-gaussianBlur-deviation="0" color="#000000" image-rendering="auto" color-rendering="auto" stroke-width="64" color-interpolation="sRGB" solid-opacity="1" fill="none" stroke-linejoin="round" filter-blend-mode="normal" stroke="#ffffff" shape-rendering="auto"/>
 <path d="m 376,171.8 c -75,16.7 -151,32.9 -226,50 -19,6.5 -23.5,35.9 -6.6,47 14.5,10.9 32.7,1.6 48,-0.8 90,-19.7 180,-38.9 269,-59 20,-6.7 23.6,-38 4.6,-48.7 -4,-2.6 -8.8,-4 -13.3,-4.25 C 426.5,159.6 402,166.8 376,171.8 Z" id="path3732" isolation="auto" white-space="normal" mix-blend-mode="normal" fill="#666666" color-rendering="auto" solid-opacity="1" color-interpolation-filters="linearRGB" shape-rendering="auto" image-rendering="auto" color-interpolation="sRGB" color="#000000" solid-color="#000000"/>
 <path d="m 398,413 c 0.3,13.9 13.7,25.4 27.4,24 13.8,-0.1 27.5,0.2 41,-0.1 13.5,-1 24,-14.2 22.9,-27.6 l 0,-132 C 489,264 475,253 462,254 l -39,0 c -14.4,-0.4 -26.8,13 -25.2,27.2 z" id="rect3827" isolation="auto" white-space="normal" mix-blend-mode="normal" opacity="0.8" fill="#666666" color-rendering="auto" solid-opacity="1" color-interpolation-filters="linearRGB" shape-rendering="auto" image-rendering="auto" color-interpolation="sRGB" color="#000000" solid-color="#000000"/>
 <path d="m 95.4,175.5 c 0.1,79 -0.2,158 0.1,237 1.3,17.8 19.7,31 37,28 14.2,-0.9 29,2.4 42.8,-2.8 13.4,-6.1 20,-21.6 18.3,-35.8 l 0,-137 c -15.3,4 -32.7,13.7 -47.9,4 -16.9,-9.3 -12.9,-37.7 4.3,-44 14,-3.8 31.8,-5.3 43,-11.4 -0.4,-16.9 1,-34 -0.9,-50.8 -3.8,-16 -21,-26 -37,-23.8 C 146,139 136,139 127,139 108.2,138.2 92.6,157.2 95.4,175.5 Z" id="rect3925" isolation="auto" white-space="normal" mix-blend-mode="normal" opacity="0.8" fill="#666666" color-rendering="auto" solid-opacity="1" color-interpolation-filters="linearRGB" shape-rendering="auto" image-rendering="auto" color-interpolation="sRGB" color="#000000" solid-color="#000000"/>
</svg>
