<?xml version="1.0" encoding="UTF-8" standalone="no"?>
<svg xmlns="http://www.w3.org/2000/svg" version="1.0" width="580" height="580">
 <metadata id="metadata10"/>
 <path id="path4140" d="m 121.8,138.8 c -2.9,2.9 -4.6,7.1 -4.5,11.2 l 0,22.6 c -7.79341,-0.39187 -16.66305,0.75984 -21.8,5.6 -3.8,3.6 -6,8.8 -6,14 0,5.2 2.2,10.3 6,14 7.08798,5.84684 13.34906,5.6 21.8,5.6 l 0,59 c -7.79341,-0.39187 -16.66305,0.75984 -21.8,5.6 -3.8,3.6 -6,8.8 -6,14 0,5.2 2.2,10.3 6,14 7.08798,5.84684 13.34906,5.6 21.8,5.6 l 0,67.4 32,0 0,-67.4 75,0 c 0,-7.86667 0,-15.73333 0,-23.6 l 140,0 0,23.6 69,0 0,67.4 32,0 0,-67.4 c 7.04399,0.33687 14.89745,-1.35759 19.4,-5.6 3.8,-3.6 5.9,-8.8 5.9,-14 0,-5.2 -2.2,-10.3 -5.9,-14 -6.43243,-5.21599 -11.9333,-5.6 -19.4,-5.6 l 0,-59 c 7.04399,0.33687 14.89745,-1.35759 19.4,-5.6 3.8,-3.6 5.9,-8.8 5.9,-14 0,-5.2 -2.2,-10.3 -5.9,-14 -6.43243,-5.21599 -11.9333,-5.6 -19.4,-5.6 l 0,-22.6 c 0.1,-4.2 -1.7,-8.4 -4.7,-11.3 -3,-3 -7.3,-4.7 -11.6,-4.6 -4.2,0.1 -8.3,1.8 -11.2,4.8 -2.9,2.9 -4.6,7.1 -4.5,11.2 l 0,22.6 -285,0 0,-22.6 c 0.1,-4.2 -1.7,-8.4 -4.7,-11.3 -3,-3 -7.3,-4.7 -11.1,-4.7 -3.7,0 -7.8,1.7 -10.7,4.7 z m 311.5,73.4 0,59 -285,0 0,-59 z" mix-blend-mode="normal" solid-color="#000000" opacity="0.8" color-interpolation-filters="linearRGB" filter-gaussianBlur-deviation="0" color="#000000" image-rendering="auto" color-rendering="auto" stroke-width="64" isolation="auto" color-interpolation="sRGB" solid-opacity="1" fill="none" stroke-linejoin="round" filter-blend-mode="normal" stroke="#ffffff" shape-rendering="auto"/>
 <path id="path4142" d="m 247,354 95,0 0,-50 -95,0 z" mix-blend-mode="normal" solid-color="#000000" opacity="0.8" white-space="normal" color-interpolation-filters="linearRGB" filter-gaussianBlur-deviation="0" color="#000000" image-rendering="auto" color-rendering="auto" stroke-width="64" isolation="auto" color-interpolation="sRGB" solid-opacity="1" fill="none" stroke-linejoin="round" filter-blend-mode="normal" stroke="#ffffff" shape-rendering="auto"/>
 <path id="path4144" d="m 215,418 c 54,0 108,0 162,0 l 0,-50 c -54,0 -108,0 -162,0 z" mix-blend-mode="normal" solid-color="#000000" opacity="0.8" white-space="normal" color-interpolation-filters="linearRGB" filter-gaussianBlur-deviation="0" color="#000000" image-rendering="auto" color-rendering="auto" stroke-width="64" isolation="auto" color-interpolation="sRGB" solid-opacity="1" fill="none" stroke-linejoin="round" filter-blend-mode="normal" stroke="#ffffff" shape-rendering="auto"/>
 <path d="m 121.8,138.8 c -2.9,2.9 -4.6,7.1 -4.5,11.2 l 0,22.6 c -7.79341,-0.39187 -16.66305,0.75984 -21.8,5.6 -3.8,3.6 -6,8.8 -6,14 0,5.2 2.2,10.3 6,14 7.08798,5.84684 13.34906,5.6 21.8,5.6 l 0,59 c -7.79341,-0.39187 -16.66305,0.75984 -21.8,5.6 -3.8,3.6 -6,8.8 -6,14 0,5.2 2.2,10.3 6,14 7.08798,5.84684 13.34906,5.6 21.8,5.6 l 0,67.4 32,0 0,-67.4 75,0 c 0,-7.86667 0,-15.73333 0,-23.6 l 140,0 0,23.6 69,0 0,67.4 32,0 0,-67.4 c 7.04399,0.33687 14.89745,-1.35759 19.4,-5.6 3.8,-3.6 5.9,-8.8 5.9,-14 0,-5.2 -2.2,-10.3 -5.9,-14 -6.43243,-5.21599 -11.9333,-5.6 -19.4,-5.6 l 0,-59 c 7.04399,0.33687 14.89745,-1.35759 19.4,-5.6 3.8,-3.6 5.9,-8.8 5.9,-14 0,-5.2 -2.2,-10.3 -5.9,-14 -6.43243,-5.21599 -11.9333,-5.6 -19.4,-5.6 l 0,-22.6 c 0.1,-4.2 -1.7,-8.4 -4.7,-11.3 -3,-3 -7.3,-4.7 -11.6,-4.6 -4.2,0.1 -8.3,1.8 -11.2,4.8 -2.9,2.9 -4.6,7.1 -4.5,11.2 l 0,22.6 -285,0 0,-22.6 c 0.1,-4.2 -1.7,-8.4 -4.7,-11.3 -3,-3 -7.3,-4.7 -11.1,-4.7 -3.7,0 -7.8,1.7 -10.7,4.7 z m 311.5,73.4 0,59 -285,0 0,-59 z" id="path2900" opacity="0.8" fill="#666666" color="#000000"/>
 <path d="m 247,354 95,0 0,-50 -95,0 z" id="path4138" fill="#666666" isolation="auto" color-rendering="auto" white-space="normal" solid-opacity="1" mix-blend-mode="normal" color-interpolation-filters="linearRGB" shape-rendering="auto" image-rendering="auto" color-interpolation="sRGB" color="#000000" solid-color="#000000"/>
 <path d="m 215,418 c 54,0 108,0 162,0 l 0,-50 c -54,0 -108,0 -162,0 z" id="path4403" fill="#666666" isolation="auto" color-rendering="auto" white-space="normal" solid-opacity="1" mix-blend-mode="normal" color-interpolation-filters="linearRGB" shape-rendering="auto" image-rendering="auto" color-interpolation="sRGB" color="#000000" solid-color="#000000"/>
</svg>
