<?xml version="1.0" encoding="UTF-8" standalone="no"?>
<svg xmlns="http://www.w3.org/2000/svg" xmlns:sodipodi="http://sodipodi.sourceforge.net/DTD/sodipodi-0.dtd" xmlns:inkscape="http://www.inkscape.org/namespaces/inkscape" version="1.0" width="580" height="580">
 <metadata id="metadata2975"/>
 <defs id="defs4">
  <symbol id="symbol-university" viewBox="244.5 110 489 219.9">
   <path d="M79,43l57,119c0,0,21-96,104-96s124,106,124,106l43-133l82-17L0,17L79,43z" id="path4460"/>
   <path fill="none" stroke="#000000" stroke-width="20" d="M94,176l-21,39" id="path4462"/>
   <path d="M300,19c0,10.5-22.6,19-50.5,19S199,29.5,199,19s22.6-19,50.5-19S300,8.5,300,19z" id="path4464"/>
   <path ill="none" stroke="#000000" stroke-width="20" d="M112,216l-16-38L64,88c0,0-9-8-4-35s16-24,16-24" id="path4466"/>
  </symbol>
  <symbol viewBox="244.5 110 489 219.9" id="symbol9807">
   <path id="path9809" d="M79,43l57,119c0,0,21-96,104-96s124,106,124,106l43-133l82-17L0,17L79,43z"/>
   <path id="path9811" d="M94,176l-21,39" stroke-width="20" stroke="#000000" fill="none"/>
   <path id="path9813" d="M300,19c0,10.5-22.6,19-50.5,19S199,29.5,199,19s22.6-19,50.5-19S300,8.5,300,19z"/>
   <path id="path9815" d="M112,216l-16-38L64,88c0,0-9-8-4-35s16-24,16-24" stroke-width="20" stroke="#000000" ill="none"/>
  </symbol>
 </defs>
 <g id="g1327">
  <path d="M 66.275,1.768 C 24.94,1.768 1.704,23.139 1.704,66.804 L 1.704,516.927 C 1.704,557.771 22.599,579.156 63.896,579.156 L 515.92,579.156 C 557.227,579.156 578.149,558.841 578.149,516.927 L 578.149,66.804 C 578.149,24.203 557.227,1.768 514.628,1.768 C 514.624,1.768 66.133,1.625 66.275,1.768 z " id="path1329" fill="#999999" stroke="#eee" stroke-width="3.408"/>
 </g>
 <path d="M 406.8826,97.87318 C 381.09763,97.43733 353.95641,111.70565 348.47068,140.94717 C 346.14803,153.3279 344.20796,157.30914 329.5539,157.56326 C 284.41142,158.3461 265.21328,224.7052 303.35162,255.98159 C 307.1306,259.08071 304.9536,261.77225 292.23163,271.44733 C 227.48588,320.68656 297.20141,418.93839 363.42515,371.78291 C 373.12064,364.87912 374.65808,364.80358 376.84583,370.50475 C 381.46373,382.5388 379.41139,440.32236 373.65043,459.4647 L 367.89871,478.50928 L 402.53686,478.50928 C 405.96604,478.50928 407.68128,478.52126 410.46145,478.50928 C 413.27634,478.5218 415.02937,478.50928 418.51385,478.50928 L 453.152,478.50928 L 447.5281,459.4647 C 441.76713,440.32236 439.58693,382.5388 444.20488,370.50475 C 446.39263,364.80358 447.93007,364.87912 457.62556,371.78291 C 523.84931,418.93839 593.56483,320.68656 528.81908,271.44733 C 516.09711,261.77225 513.26406,257.73253 517.82691,255.98159 C 555.96524,241.34651 535.52985,165.00264 491.49681,157.56326 C 477.04533,155.12171 475.0305,153.3279 472.70785,140.94717 C 466.96239,110.32135 437.40486,96.22105 410.58926,98.1288 C 409.3671,98.04127 408.11352,97.89399 406.8826,97.87318 z" id="path9696" fill="#ffffff"/>
 <path d="M 145.87458,82.814272 L 56.981267,274.57366 L 76.543117,274.57366 L 45.403841,331.13004 L 68.558687,331.13004 L 31.564171,392.344 L 123.9174,378.50433 L 123.9174,476.71281 L 145.87458,476.71281 L 145.87458,82.814272 z M 146.14073,82.814272 L 146.14073,476.71281 L 168.09791,476.71281 L 168.09791,378.50433 L 260.58423,392.344 L 223.5897,331.13004 L 246.61148,331.13004 L 215.4722,274.57366 L 235.16713,274.57366 L 146.14073,82.814272 z" id="path8893" sodipodi:nodetypes="cccccccccccccccccccc" fill="#ffffff" fill-rule="evenodd" stroke="#ffffff" stroke-linejoin="round" stroke-linecap="round" stroke-width="4.258"/>
</svg>
