<?xml version="1.0" encoding="UTF-8" standalone="no"?>
<svg xmlns="http://www.w3.org/2000/svg" xmlns:sodipodi="http://sodipodi.sourceforge.net/DTD/sodipodi-0.dtd" xmlns:inkscape="http://www.inkscape.org/namespaces/inkscape" version="1.0" width="580" height="580">
 <metadata id="metadata2975"/>
 <defs id="defs4">
  <symbol id="symbol-university" viewBox="244.5 110 489 219.9">
   <path d="M79,43l57,119c0,0,21-96,104-96s124,106,124,106l43-133l82-17L0,17L79,43z" id="path4460"/>
   <path fill="none" stroke="#000000" stroke-width="20" d="M94,176l-21,39" id="path4462"/>
   <path d="M300,19c0,10.5-22.6,19-50.5,19S199,29.5,199,19s22.6-19,50.5-19S300,8.5,300,19z" id="path4464"/>
   <path ill="none" stroke="#000000" stroke-width="20" d="M112,216l-16-38L64,88c0,0-9-8-4-35s16-24,16-24" id="path4466"/>
  </symbol>
  <symbol viewBox="244.5 110 489 219.9" id="symbol9807">
   <path id="path9809" d="M79,43l57,119c0,0,21-96,104-96s124,106,124,106l43-133l82-17L0,17L79,43z"/>
   <path id="path9811" d="M94,176l-21,39" stroke-width="20" stroke="#000000" fill="none"/>
   <path id="path9813" d="M300,19c0,10.5-22.6,19-50.5,19S199,29.5,199,19s22.6-19,50.5-19S300,8.5,300,19z"/>
   <path id="path9815" d="M112,216l-16-38L64,88c0,0-9-8-4-35s16-24,16-24" stroke-width="20" stroke="#000000" ill="none"/>
  </symbol>
 </defs>
 <g id="g1327">
  <path d="M 66.275,1.768 C 24.94,1.768 1.704,23.139 1.704,66.804 L 1.704,516.927 C 1.704,557.771 22.599,579.156 63.896,579.156 L 515.92,579.156 C 557.227,579.156 578.149,558.841 578.149,516.927 L 578.149,66.804 C 578.149,24.203 557.227,1.768 514.628,1.768 C 514.624,1.768 66.133,1.625 66.275,1.768 z " id="path1329" fill="#999999" stroke="#eee" stroke-width="3.408"/>
 </g>
 <path d="M 286.8826,97.87318 C 261.09763,97.43733 233.95641,111.70565 228.47068,140.94717 C 226.14803,153.3279 224.20796,157.30914 209.5539,157.56326 C 164.41142,158.3461 145.21328,224.7052 183.35162,255.98159 C 187.1306,259.08071 184.9536,261.77225 172.23163,271.44733 C 107.48588,320.68656 177.20141,418.93839 243.42515,371.78291 C 253.12064,364.87912 254.65808,364.80358 256.84583,370.50475 C 261.46373,382.5388 259.41139,440.32236 253.65043,459.4647 L 247.89871,478.50928 L 282.53686,478.50928 C 285.96604,478.50928 287.68128,478.52126 290.46145,478.50928 C 293.27634,478.5218 295.02937,478.50928 298.51385,478.50928 L 333.152,478.50928 L 327.5281,459.4647 C 321.76713,440.32236 319.58693,382.5388 324.20488,370.50475 C 326.39263,364.80358 327.93007,364.87912 337.62556,371.78291 C 403.84931,418.93839 473.56483,320.68656 408.81908,271.44733 C 396.09711,261.77225 393.26406,257.73253 397.82691,255.98159 C 435.96524,241.34651 415.52985,165.00264 371.49681,157.56326 C 357.04533,155.12171 355.0305,153.3279 352.70785,140.94717 C 346.96239,110.32135 317.40486,96.22105 290.58926,98.1288 C 289.3671,98.04127 288.11352,97.89399 286.8826,97.87318 z" id="path9696" fill="#ffffff"/>
</svg>
