<?xml version="1.0" encoding="UTF-8" standalone="no"?>
<svg xmlns="http://www.w3.org/2000/svg" xmlns:sodipodi="http://sodipodi.sourceforge.net/DTD/sodipodi-0.dtd" xmlns:inkscape="http://www.inkscape.org/namespaces/inkscape" version="1.0" width="580" height="580">
 <metadata id="metadata1976"/>
 <defs id="defs4">
  <marker viewBox="0 0 10 10" refY="5" refX="10" orient="auto" markerWidth="4" markerUnits="strokeWidth" markerHeight="3" id="ArrowStart">
   <path id="path2111" d="M 10 0 L 0 5 L 10 10 z"/>
  </marker>
  <marker viewBox="0 0 10 10" refY="5" orient="auto" markerWidth="4" markerUnits="strokeWidth" markerHeight="3" id="ArrowEnd">
   <path id="path2108" d="M 0 0 L 10 5 L 0 10 z"/>
  </marker>
 </defs>
 <g id="g1327">
  <path d="M 66.275,1.768 C 24.94,1.768 1.704,23.139 1.704,66.804 l 0,450.123 c 0,40.844 20.896,62.229 62.192,62.229 l 452.024,0 c 41.307,0 62.229,-20.314 62.229,-62.229 l 0,-450.123 c 0,-42.601 -20.922,-65.036 -63.521,-65.036 -0.004,0 -448.495,-0.143 -448.353,0 z" id="path1329" fill="#734A08" stroke="#eeeeee" stroke-width="3.408"/>
 </g>
 <path d="m 289.92633,19.042134 c -13.66874,-0.03073 -29.59277,4.141947 -41.0094,10.720053 -1.5739,0.906848 -4.48459,2.544038 -6.4736,3.652538 -1.98908,1.108502 -7.12392,4.094589 -11.40305,6.622083 -11.95097,7.058888 -22.47033,12.171267 -30.49721,14.847718 -15.97952,5.328151 -30.1903,7.524927 -47.77996,7.334772 -14.98547,-0.162003 -21.85376,0.677057 -27.20102,3.355584 -3.81873,1.912861 -5.97629,3.956862 -7.57233,7.186296 -1.23819,2.505298 -1.36691,3.011669 -1.51447,6.592387 -0.17578,4.265733 0.25916,7.128007 1.42538,9.324367 0.79442,1.496021 3.28682,4.67435 7.1863,9.205585 1.29409,1.503722 3.47767,4.098183 4.87005,5.760913 1.39231,1.66272 4.26632,4.97954 6.35482,7.36447 2.08851,2.38494 4.43078,5.10727 5.2264,6.05787 1.6857,2.01408 8.77644,9.91418 11.96726,13.33325 1.21214,1.29879 4.37062,4.79665 7.00812,7.7802 2.90668,3.28804 5.85204,6.57486 8.84924,9.91828 5.09429,-4.30606 10.4394,-8.36321 15.97615,-12.11574 -0.28189,-0.32255 -0.46558,-0.51488 -0.74239,-0.83147 -4.96612,-5.6797 -11.36511,-13.02088 -14.22411,-16.3028 -6.65934,-7.6444 -11.34809,-13.00546 -13.63021,-15.5604 -0.99447,-1.11342 -3.13034,-3.534469 -4.72157,-5.404573 -1.59124,-1.870105 -3.63578,-4.221526 -4.5434,-5.226397 -0.90766,-1.004874 -2.03945,-2.350959 -2.52412,-2.969544 -0.48467,-0.618586 -1.91693,-2.296185 -3.17741,-3.741624 -1.9767,-2.266731 -2.22336,-2.706063 -1.78172,-3.147717 0.59769,-0.597675 4.69171,-0.762326 24.88477,-1.009644 19.29765,-0.236355 20.99894,-0.480389 34.14975,-4.810661 7.55465,-2.487566 13.42527,-5.094542 22.62792,-10.066753 7.63894,-4.127364 16.55011,-8.987559 20.43046,-11.165484 9.66241,-5.423261 19.83828,-10.346741 24.94417,-12.056347 4.11155,-1.376668 11.30215,-3.3231 15.23376,-4.09797 5.27741,-1.040119 14.66176,-1.133887 19.65838,-0.207868 11.67782,2.164247 26.95672,8.126847 38.01016,14.818023 2.46801,1.494048 5.35554,3.147791 6.41421,3.682234 1.05859,0.534443 5.11351,2.784145 9.02741,4.988833 3.91397,2.20469 7.94386,4.443161 8.93833,4.988833 0.99453,0.545668 3.99626,2.223182 6.68147,3.741625 10.93039,6.181005 22.44643,11.212777 32.81346,14.3132 7.51404,2.247189 11.49582,2.850544 21.61828,3.266498 17.04525,0.700407 24.41685,1.332869 24.91447,2.138071 0.0905,0.146448 -3.77098,4.249378 -8.58198,9.116495 -8.195,8.29063 -25.73493,25.67154 -40.02945,39.7325 5.67447,4.17132 11.10889,8.65429 16.2731,13.42233 5.49921,-5.50758 10.89405,-10.93864 17.55,-17.57969 22.52577,-22.47534 34.87663,-35.04601 35.69391,-36.347217 2.04713,-3.259418 2.19717,-3.86276 2.22716,-9.651017 0.0224,-4.342211 -0.11459,-5.746517 -0.68299,-7.48325 -0.86313,-2.637221 -3.1788,-5.314044 -5.70153,-6.592386 -6.59083,-3.339839 -12.72015,-4.605388 -25.92411,-5.374874 -15.6034,-0.909313 -18.49117,-1.199735 -25.27082,-2.524112 -10.34233,-2.020346 -20.59788,-5.475697 -31.68503,-10.660662 -4.32683,-2.023459 -6.19664,-3.089465 -18.76752,-10.660661 -4.60033,-2.770688 -10.05693,-5.996894 -12.14543,-7.186296 -2.08844,-1.1894 -5.67103,-3.287222 -7.95838,-4.662183 -11.37635,-6.838383 -26.49552,-12.84096 -36.64416,-14.550764 -4.5975,-0.774579 -11.66682,-1.260939 -18.76752,-1.276904 z M 90.818433,105.54494 c -3.446256,-0.0856 -7.373374,0.41018 -10.007362,1.39568 -6.532943,2.44428 -9.097553,10.15306 -9.977666,30.17057 -0.722871,16.4435 -0.853413,17.47386 -3.801016,28.24036 -2.625123,9.58871 -5.342152,16.51435 -11.195179,28.50762 -4.353362,8.43975 -8.917738,17.37011 -14.63985,24.79568 0,0.65918 -2.729003,6.25019 -3.622843,7.42386 -1.150226,1.51035 -8.904746,16.63267 -10.749748,20.96498 -5.032004,11.81604 -7.583113,22.11024 -8.433504,34.23884 -0.789886,11.26564 0.567391,20.11285 5.315483,34.83275 1.930629,5.98537 6.289038,15.33899 14.847718,31.8335 12.278902,23.66405 15.40287,30.50096 19.034775,41.69239 4.987209,15.36746 5.968258,22.34064 5.760914,40.77184 -0.0869,7.72295 0.02184,13.228 0.267259,14.81802 1.686275,10.92367 7.348777,17.13583 16.184013,17.75787 2.659444,0.18726 2.93223,0.13762 5.404569,-1.06903 3.40022,-1.65952 5.600068,-3.08701 12.590865,-8.13655 5.437629,-3.92774 8.342389,-6.20627 15.471319,-12.08605 1.62711,-1.34205 3.86517,-3.11373 4.95914,-3.94949 1.09396,-0.8357 3.21498,-2.66583 4.72158,-4.06827 1.50659,-1.4025 4.73186,-4.26634 7.18629,-6.35483 7.57352,-6.44446 11.96181,-10.22868 16.80762,-14.52107 -4.47085,-5.2958 -8.65936,-10.85716 -12.53148,-16.62944 -0.10913,0.0986 -0.35913,0.33643 -0.44543,0.41574 -1.19876,1.10152 -3.01441,2.66124 -4.00888,3.44467 -0.99454,0.78342 -3.69343,3.05457 -5.99848,5.04822 -5.66585,4.90055 -12.25749,10.52736 -17.10457,14.58046 -3.76636,3.14941 -5.06655,4.2714 -12.858125,10.98731 -1.692501,1.45887 -4.592778,3.89276 -6.414214,5.43427 -1.821367,1.5415 -3.379538,2.82105 -3.474366,2.82106 -0.640783,0 -0.798707,-3.05796 -0.831472,-17.01548 -0.02434,-10.39209 -0.159608,-16.59039 -0.445432,-18.26269 -1.280999,-7.49436 -4.212173,-17.11779 -7.8099,-25.65686 -1.819739,-4.31913 -7.430468,-15.35382 -16.154317,-31.83351 -10.872789,-20.53929 -13.798301,-26.94234 -16.896703,-37.0599 -5.234535,-17.09324 -5.313338,-28.26066 -0.356345,-44.30559 3.483509,-11.27553 8.212869,-21.1718 17.906348,-37.44595 14.338961,-24.0735 18.197313,-31.41924 23.637567,-44.92919 5.84319,-14.51045 6.198568,-16.75202 7.48325,-46.56245 0.239683,-5.56337 0.307392,-5.95889 0.979949,-6.08756 0.5536,-0.10592 8.46533,7.6319 34.09036,33.40736 5.54448,5.57702 10.49367,10.57381 14.9962,15.14468 4.11476,-5.42964 8.54628,-10.61403 13.21446,-15.56041 -0.41603,-0.42012 -0.69756,-0.6928 -1.12842,-1.12843 -18.50493,-18.7004 -36.63693,-38.24974 -56.688589,-55.2632 -1.322716,-0.47758 -3.218034,-0.75043 -5.285788,-0.80178 z m 404.095497,11.19518 c -2.17855,0.0551 -3.49638,0.44601 -4.66219,1.21751 -0.79845,0.52839 -4.70105,3.90194 -8.67107,7.51295 -3.97002,3.611 -8.21634,7.4569 -9.44314,8.52259 -1.22679,1.06569 -5.13418,4.6482 -8.70077,7.95837 -12.67746,11.76621 -17.51296,16.17736 -21.38071,19.5693 -2.15461,1.88958 -5.00854,4.41903 -6.32513,5.61243 -0.71381,0.647 -1.69773,1.50716 -2.49441,2.22716 4.54481,5.29479 8.7981,10.84808 12.73934,16.62945 1.25936,-1.15926 2.71262,-2.48219 3.62284,-3.32589 2.57509,-2.38685 6.33001,-5.77565 8.34442,-7.54264 2.01441,-1.767 5.83737,-5.26969 8.52259,-7.78021 2.6852,-2.5105 6.18895,-5.7083 7.7802,-7.09721 1.59124,-1.38889 5.19256,-4.62792 7.98807,-7.21599 10.82043,-10.01777 13.69082,-12.4703 14.07564,-12.08604 0.24132,0.24095 0.43231,6.04853 0.56421,16.33249 0.26014,20.28383 0.3219,20.68755 4.5731,34.26853 3.13471,10.01427 4.51086,13.06259 17.75787,39.76219 11.33639,22.84857 12.45829,25.38675 16.89671,37.80229 5.23899,14.65464 6.69092,26.12978 4.72157,37.35686 -1.15814,6.6028 -1.68944,8.56729 -3.80102,14.07564 -4.45044,11.60941 -7.3257,17.15394 -19.4802,37.53503 -3.67713,6.16601 -7.57913,12.75027 -8.67107,14.63985 -1.09198,1.88958 -2.54576,4.419 -3.2368,5.61243 -3.58422,6.18982 -10.67675,22.07947 -12.17513,27.29011 -1.83121,6.36807 -2.79116,12.5084 -3.11802,20.07411 -0.50046,11.58498 -1.13178,21.59262 -1.42538,22.59823 -0.14515,0.49726 -0.50663,0.95235 -0.80178,1.00965 -0.93461,0.18143 -0.90085,0.21393 -17.13427,-15.29315 -4.3726,-4.17697 -14.19963,-13.52685 -21.85584,-20.78681 -3.56452,-3.38002 -5.88754,-5.60475 -8.64137,-8.22563 -3.97634,5.25012 -8.21529,10.28594 -12.70965,15.08528 4.98996,4.81074 10.20315,9.83808 11.78909,11.40304 1.61246,1.59122 5.98924,5.8332 9.74011,9.41346 3.75078,3.58026 8.79652,8.38704 11.19518,10.69035 2.39874,2.30333 8.59432,8.16551 13.77868,13.0363 10.87102,10.21347 10.23121,9.84742 16.83731,9.65102 3.80897,-0.11324 4.31775,-0.21484 6.533,-1.3066 1.5889,-0.78306 3.04865,-1.86408 4.27614,-3.20711 4.38457,-4.79748 6.02382,-10.83688 6.85964,-25.06295 0.95082,-16.18326 1.0232,-16.71927 2.34594,-22.59822 3.64761,-16.21191 9.91358,-31.02713 21.35102,-50.45255 6.51256,-11.06092 9.89883,-16.78571 11.67031,-19.68807 2.54212,-4.16489 6.60289,-11.95126 8.04746,-15.41193 4.10456,-9.83358 4.61789,-11.20719 6.11726,-17.19366 4.25153,-16.9751 3.88213,-32.89213 -1.12843,-49.53199 -3.23419,-10.74059 -5.9941,-17.0494 -19.45051,-44.66193 -8.64792,-17.74547 -8.22977,-16.79869 -11.72969,-26.01321 -4.56177,-12.01014 -6.939,-20.26183 -8.58198,-29.72513 -0.65557,-3.77608 -0.81318,-6.61074 -1.03934,-18.38147 -0.25391,-13.2146 -0.30465,-14.14387 -1.21752,-18.2627 -1.70954,-7.71355 -2.84959,-10.38422 -5.40457,-12.73934 -2.0481,-1.88787 -4.1799,-2.56049 -9.82919,-3.05863 -2.08205,-0.18359 -3.7114,-0.27065 -5.01852,-0.23756 z M 160.89966,427.65133 c -11.15299,11.53813 -24.7237,25.44854 -32.99163,33.76371 -18.86124,18.96903 -20.67197,21.21031 -21.64797,26.81498 -0.9501,5.45596 0.0958,9.9806 3.11802,13.51143 4.28614,5.00744 11.10542,7.31859 23.13275,7.83959 19.54554,0.84672 22.44559,1.24538 34.00127,4.5434 14.20154,4.05311 30.27616,11.71705 50.24468,23.93452 1.79015,1.09528 4.2408,2.54127 5.43426,3.20711 1.19339,0.6659 4.11645,2.35251 6.5033,3.77132 16.63128,9.88645 30.24031,14.55224 45.93884,15.73858 2.98093,0.22527 5.48076,0.48678 5.58274,0.59391 0.34669,0.36406 14.63236,-0.24589 18.08452,-0.77208 11.11057,-1.69351 20.61221,-4.49702 29.66574,-8.78985 2.08851,-0.99029 6.80275,-3.2267 10.48249,-4.95914 3.67967,-1.73241 10.1065,-4.81059 14.28351,-6.85964 8.58246,-4.21028 18.18261,-8.73487 20.07411,-9.44315 0.6962,-0.26068 2.48745,-0.98051 3.97919,-1.60356 10.23576,-4.2749 18.53573,-6.76252 30.37843,-9.14619 9.0498,-1.82148 8.79649,-1.82349 21.73706,-1.75203 11.33299,0.0626 11.96598,0.0394 16.62945,-0.86117 5.14997,-0.99454 11.1223,-2.73976 12.62056,-3.68223 2.07597,-1.30592 3.68651,-3.93775 4.27614,-6.97843 0.21208,-1.09397 0.49296,-4.01198 0.6236,-6.5033 0.18888,-3.60207 0.13054,-4.79731 -0.29695,-5.82031 -0.51,-1.22068 -7.74287,-9.83659 -12.88782,-15.35254 -2.81704,-3.02011 -10.42262,-11.54152 -20.8462,-23.31091 -4.13972,-4.67424 -10.45919,-11.66743 -14.04594,-15.53072 -1.24304,-1.33892 -2.56417,-2.77531 -3.8604,-4.18705 -5.04162,4.22116 -10.29833,8.16667 -15.76828,11.84848 2.64556,2.8992 4.85633,5.25751 6.80025,7.30507 1.7068,1.7978 6.14424,6.69156 9.88858,10.86853 3.74436,4.17698 8.2266,9.04871 9.94797,10.83884 1.72138,1.79013 4.10443,4.39951 5.28579,5.79061 1.18143,1.39112 3.46392,3.92057 5.07792,5.61243 3.88171,4.06899 7.73479,8.7278 7.51295,9.08681 -0.52028,0.84175 -3.80109,1.06014 -16.65914,1.03934 -13.5861,-0.022 -13.72158,-0.0279 -19.86625,1.03934 -9.89319,1.71831 -21.26161,5.02488 -29.99239,8.73046 -1.79015,0.75977 -12.42917,5.93358 -23.66726,11.49213 -27.59521,13.64909 -26.45291,13.1418 -38.4259,17.10457 -7.02908,2.32645 -11.74468,3.49406 -17.46091,4.33554 -3.40956,0.50189 -6.42716,0.69139 -11.01701,0.6533 -6.81076,-0.0565 -6.64796,-0.0471 -12.26421,-0.89087 -7.38836,-1.10995 -22.21097,-6.48356 -30.40813,-11.017 -3.25147,-1.79825 -14.58374,-8.33865 -15.02589,-8.67107 -0.73894,-0.55552 -20.94853,-12.29762 -25.65686,-14.90711 -6.92704,-3.83921 -17.10874,-8.22945 -25.3896,-10.95762 -8.80346,-2.90025 -13.12128,-3.46702 -34.89213,-4.5434 -4.70711,-0.23276 -8.74934,-0.55918 -8.99772,-0.71269 -0.33331,-0.20599 -0.2064,-0.59356 0.53452,-1.48477 1.27279,-1.53106 11.54155,-12.21992 25.15203,-26.19138 3.48084,-3.5731 10.96091,-11.3033 16.62945,-17.16396 1.40297,-1.45053 2.46885,-2.54115 3.97919,-4.09797 -5.41145,-4.14684 -10.60564,-8.57492 -15.53072,-13.27386 z" id="path3575" fill="#ffffff"/>
 <path d="m 295.03395,92.241384 c 0.63748,4.560757 1.18073,9.140526 2.22715,13.452036 0.67066,3.36838 1.58437,6.63265 2.67259,9.82919 93.14006,4.85616 167.06653,81.79581 167.06653,176.15332 10e-6,62.22857 -32.15859,116.87404 -80.77159,148.26931 -0.0106,0.009 -0.0191,0.0212 -0.0297,0.0297 -0.77957,0.62428 -1.63291,1.16799 -2.52411,1.60355 -0.0591,0.0289 -0.11867,0.061 -0.17817,0.0891 -9.31602,5.77735 -19.20868,10.71534 -29.57665,14.69924 -8.51101,11.42814 -18.17413,21.90194 -28.53732,31.74442 C 418.84726,471.60627 490.0736,389.79791 490.07357,291.67593 490.07358,183.1807 402.96964,94.621613 295.03395,92.241384 z M 261.00298,94.34976 C 164.98801,108.684 91.115388,191.73517 91.115388,291.67593 c -2e-6,101.75081 76.591262,185.94185 175.143682,197.97947 -13.01666,-8.81715 -25.03749,-19.38986 -34.77336,-31.71472 -68.3824,-24.27512 -117.29697,-89.5057 -117.29697,-166.26475 0,-85.97564 61.36063,-157.47988 142.71627,-173.18378 0.95717,-8.16382 2.38691,-16.24336 4.09797,-24.14239 z m 20.75711,373.4795 c -0.81915,7.66251 -1.04039,15.37553 -0.59391,23.07335 1.79586,0.0839 3.59675,0.14231 5.40457,0.17817 2.28062,-7.64771 4.44468,-15.31887 6.29543,-23.04365 -0.76434,0.01 -1.51989,0.0297 -2.28655,0.0297 -2.95726,0 -5.8982,-0.0941 -8.81954,-0.23756 z" id="path4317" fill="#ffffff"/>
 <g id="g5215" transform="matrix(0.95025395,0,0,0.95025395,14.412077,10.638326)">
  <path sodipodi:nodetypes="cscccccccccccc" id="path4356" d="m 198.67153,429.13471 c -27.9052,-15.73923 -44.91267,-52.53932 -32.35461,-107.5395 8.80965,-38.58338 34.48036,-86.20137 14.80642,-125.85126 23.86554,16.49562 48.67818,55.72148 73.70237,100.02462 1.72552,-47.91091 -23.1357,-79.3021 -5.26444,-144.77247 12.26268,80.9952 61.45228,86.01536 86.42474,159.68842 10.62203,-34.63889 32.71786,-46.03994 21.93521,-132.05003 108.58157,148.29018 46.69562,200.96776 25.00613,254.00987 l 7.0193,-73.70234 c -34.05505,98.44168 -61.34018,116.60289 -85.98606,138.63059 13.7744,-46.21019 19.20596,-92.4204 -8.77412,-138.63059 -6.79301,75.87173 -25.9655,60.08286 -29.83187,121.08241 -38.33494,-28.93346 -46.20823,-58.61344 -53.08324,-107.04388 -5.21553,5.66709 -14.0221,29.35386 -13.59983,56.15416 z" fill="#ffffff" fill-rule="evenodd"/>
  <path sodipodi:nodetypes="ccc" id="path4358" d="M 278.07704,75.100248 C 249.68045,190.40668 301.5257,189.3936 330.28289,257.16259 350.4538,152.66532 290.11046,176.17723 278.07704,75.100248 z" fill="#ffffff" fill-rule="evenodd"/>
 </g>
</svg>
