<?xml version="1.0" encoding="UTF-8" standalone="no"?>
<svg xmlns="http://www.w3.org/2000/svg" version="1.0" width="580" height="580">
 <metadata id="metadata2975"/>
 <path id="path4159" d="M 287.90234 36.982422 C 271.94739 37.181375 272.67266 49.272656 271.80078 60.800781 C 213.80078 64.800781 169.10078 118.00078 154.80078 175.80078 C 141.40078 175.20078 132.8 176.59961 129.5 192.59961 C 129.8 204.29961 141.10078 213.8 155.80078 211 C 166.80078 265 210.20078 316.2 259.80078 326 C 274.80078 329 273.09961 324.7 272.59961 337 C 272.59961 342.6 274.1 347.1 277 350 L 277.40039 350.40039 C 283.20039 356.10039 297.29922 356.4 302.19922 351 C 304.09922 348.9 306.00039 343.20039 306.40039 338.40039 C 307.60039 323.90039 302.59961 332.6 323.59961 325 C 366.69961 312 411.59961 271 422.59961 221 C 424.09961 212.4 424.50078 211.99922 433.80078 210.69922 C 448.00078 208.69922 454.99922 198.19922 450.19922 185.69922 C 448.49922 180.69922 437.09922 175.29961 430.19922 176.09961 C 424.89922 176.79961 424.20078 175.9 422.80078 168 C 413.80078 123 364.80078 64.1 304.80078 60 C 304.70078 46 303.4 37.5 289.5 37 C 288.95 36.98125 288.41702 36.976004 287.90234 36.982422 z M 273 94.25 C 273 94.25 272.90039 126.2 272.40039 151.5 C 271.00039 151.5 233.70039 112.5 233.40039 111 C 234.00039 105.7 264.2 95.4 273 94.25 z M 307 95.849609 C 320 96.999609 336.00078 100.99922 347.80078 110.69922 L 305.80078 152.69922 L 307 95.849609 z M 207.59961 135.59961 C 222.59961 150.59961 231.69961 161.09961 246.59961 175.59961 L 246.30078 175.40039 C 225.30078 175.80039 209.50078 176.59961 191.30078 176.59961 C 193.60078 164.99961 198.59961 148.89961 207.59961 135.59961 z M 371.94922 136 C 377.89922 138.6 387.29961 166.59961 388.09961 176.59961 C 372.89961 176.49961 343.69961 176.99922 332.09961 175.69922 C 332.09961 173.99922 370.39922 136 371.94922 136 z M 290.76172 172.90039 C 295.89922 172.97539 300.90078 175.39922 305.30078 180.19922 C 310.80078 186.19922 312.59922 193.69922 309.69922 200.69922 C 305.49922 209.49922 301.59922 211.59961 297.69922 213.59961 C 289.79922 217.69961 279.79961 214.60039 273.59961 207.40039 C 268.19961 201.10039 265.90039 188.69922 275.40039 179.69922 C 280.35039 175.09922 285.62422 172.82539 290.76172 172.90039 z M 190.80078 210.90039 L 248.80078 210.90039 C 234.80078 223.90039 221.10078 237.10039 206.80078 249.90039 C 203.10078 249.90039 191.80078 219.70039 190.80078 210.90039 z M 331.80078 210.90039 L 389.80078 210.90039 C 387.50078 223.80039 382.80078 239.69922 372.80078 250.69922 C 357.80078 236.79922 345.60078 224.40039 331.80078 210.90039 z M 270.84961 237.19922 C 271.79961 237.39922 272.30039 288.80039 272.90039 293.40039 C 254.90039 290.60039 245.50078 285.89961 232.30078 275.59961 C 247.40078 259.89961 257.09961 249.79922 270.84961 237.19922 z M 306.80078 237.40039 C 319.80078 250.50039 328.50078 259.99922 347.80078 276.94922 C 334.00078 285.49922 321.99961 290.39922 305.09961 293.19922 C 305.09961 271.79922 305.80078 258.40039 306.80078 237.40039 z " mix-blend-mode="normal" solid-color="#000000" opacity="0.8" color-interpolation-filters="linearRGB" filter-gaussianBlur-deviation="0" color="#000000" image-rendering="auto" color-rendering="auto" stroke-width="64" isolation="auto" color-interpolation="sRGB" solid-opacity="1" fill="none" stroke-linejoin="round" filter-blend-mode="normal" stroke="#ffffff" shape-rendering="auto"/>
 <path color-interpolation="sRGB" color-rendering="auto" color="#000000" solid-color="#000000" image-rendering="auto" solid-opacity="1" white-space="normal" isolation="auto" color-interpolation-filters="linearRGB" mix-blend-mode="normal" shape-rendering="auto" id="path4141" d="m207 362c-5.3 0-9.6 4.3-9.6 9.6l0 161c0 5.3 4.3 9.6 9.6 9.6l161 0c5.3 0 9.6-4.3 9.6-9.6l0-161c0-5.3-4.3-9.6-9.6-9.6z" opacity="0.8" filter-gaussianBlur-deviation="0" stroke-width="64" fill="none" stroke-linejoin="round" filter-blend-mode="normal" stroke="#ffffff"/>
 <path d="M 287.90234 36.982422 C 271.94739 37.181375 272.67266 49.272656 271.80078 60.800781 C 213.80078 64.800781 169.10078 118.00078 154.80078 175.80078 C 141.40078 175.20078 132.8 176.59961 129.5 192.59961 C 129.8 204.29961 141.10078 213.8 155.80078 211 C 166.80078 265 210.20078 316.2 259.80078 326 C 274.80078 329 273.09961 324.7 272.59961 337 C 272.59961 342.6 274.1 347.1 277 350 L 277.40039 350.40039 C 283.20039 356.10039 297.29922 356.4 302.19922 351 C 304.09922 348.9 306.00039 343.20039 306.40039 338.40039 C 307.60039 323.90039 302.59961 332.6 323.59961 325 C 366.69961 312 411.59961 271 422.59961 221 C 424.09961 212.4 424.50078 211.99922 433.80078 210.69922 C 448.00078 208.69922 454.99922 198.19922 450.19922 185.69922 C 448.49922 180.69922 437.09922 175.29961 430.19922 176.09961 C 424.89922 176.79961 424.20078 175.9 422.80078 168 C 413.80078 123 364.80078 64.1 304.80078 60 C 304.70078 46 303.4 37.5 289.5 37 C 288.95 36.98125 288.41702 36.976004 287.90234 36.982422 z M 273 94.25 C 273 94.25 272.90039 126.2 272.40039 151.5 C 271.00039 151.5 233.70039 112.5 233.40039 111 C 234.00039 105.7 264.2 95.4 273 94.25 z M 307 95.849609 C 320 96.999609 336.00078 100.99922 347.80078 110.69922 L 305.80078 152.69922 L 307 95.849609 z M 207.59961 135.59961 C 222.59961 150.59961 231.69961 161.09961 246.59961 175.59961 L 246.30078 175.40039 C 225.30078 175.80039 209.50078 176.59961 191.30078 176.59961 C 193.60078 164.99961 198.59961 148.89961 207.59961 135.59961 z M 371.94922 136 C 377.89922 138.6 387.29961 166.59961 388.09961 176.59961 C 372.89961 176.49961 343.69961 176.99922 332.09961 175.69922 C 332.09961 173.99922 370.39922 136 371.94922 136 z M 290.76172 172.90039 C 295.89922 172.97539 300.90078 175.39922 305.30078 180.19922 C 310.80078 186.19922 312.59922 193.69922 309.69922 200.69922 C 305.49922 209.49922 301.59922 211.59961 297.69922 213.59961 C 289.79922 217.69961 279.79961 214.60039 273.59961 207.40039 C 268.19961 201.10039 265.90039 188.69922 275.40039 179.69922 C 280.35039 175.09922 285.62422 172.82539 290.76172 172.90039 z M 190.80078 210.90039 L 248.80078 210.90039 C 234.80078 223.90039 221.10078 237.10039 206.80078 249.90039 C 203.10078 249.90039 191.80078 219.70039 190.80078 210.90039 z M 331.80078 210.90039 L 389.80078 210.90039 C 387.50078 223.80039 382.80078 239.69922 372.80078 250.69922 C 357.80078 236.79922 345.60078 224.40039 331.80078 210.90039 z M 270.84961 237.19922 C 271.79961 237.39922 272.30039 288.80039 272.90039 293.40039 C 254.90039 290.60039 245.50078 285.89961 232.30078 275.59961 C 247.40078 259.89961 257.09961 249.79922 270.84961 237.19922 z M 306.80078 237.40039 C 319.80078 250.50039 328.50078 259.99922 347.80078 276.94922 C 334.00078 285.49922 321.99961 290.39922 305.09961 293.19922 C 305.09961 271.79922 305.80078 258.40039 306.80078 237.40039 z " id="path4156"/>
 <path d="m207 362c-5.3 0-9.6 4.3-9.6 9.6l0 161c0 5.3 4.3 9.6 9.6 9.6l161 0c5.3 0 9.6-4.3 9.6-9.6l0-161c0-5.3-4.3-9.6-9.6-9.6z" id="rect4154" shape-rendering="auto" mix-blend-mode="normal" color-interpolation-filters="linearRGB" isolation="auto" white-space="normal" solid-opacity="1" image-rendering="auto" solid-color="#000000" color="#000000" color-rendering="auto" color-interpolation="sRGB"/>
 <path d="m217 381l142 0 0 142-142 0z" id="rect3587-8" shape-rendering="auto" mix-blend-mode="normal" color-interpolation-filters="linearRGB" isolation="auto" white-space="normal" opacity="0.8" fill="#ffffff" solid-opacity="1" image-rendering="auto" solid-color="#000000" color="#000000" color-rendering="auto" color-interpolation="sRGB"/>
</svg>
