<?xml version="1.0" encoding="UTF-8" standalone="no"?>
<svg xmlns="http://www.w3.org/2000/svg" version="1.0" width="580" height="580">
 <metadata id="metadata2975"/>
 <path white-space="normal" isolation="auto" mix-blend-mode="normal" id="path4149" d="m 208,369 c -5.4,0 -9.7,4.4 -9.7,9.8 l 0,164 c 0,5.4 4.4,9.8 9.7,9.8 l 164,0 c 5.4,0 9.7,-4.4 9.7,-9.8 l 0,-164 c 0,-5.4 -4.4,-9.8 -9.7,-9.8 z" solid-color="#000000" opacity="0.8" color-interpolation-filters="linearRGB" filter-gaussianBlur-deviation="0" color="#000000" image-rendering="auto" color-rendering="auto" stroke-width="64" stroke-linecap="round" color-interpolation="sRGB" solid-opacity="1" fill="none" stroke-linejoin="round" filter-blend-mode="normal" stroke="#ffffff" shape-rendering="auto"/>
 <path d="m 250.7,198 -75,-0.5 0,-38 0,-36.4 75,-1.4 1.3,-83 76,-1.3 0,84 75.9,0 0,37.6 0,37.6 -75.9,0 0,150 c -24,-2.8 -52,4.5 -75.95,-1.65 z" id="path4151" mix-blend-mode="normal" solid-color="#000000" opacity="0.8" color-interpolation-filters="linearRGB" filter-gaussianBlur-deviation="0" color="#000000" image-rendering="auto" color-rendering="auto" stroke-width="64" isolation="auto" stroke-linecap="round" color-interpolation="sRGB" solid-opacity="1" fill="none" stroke-linejoin="round" filter-blend-mode="normal" stroke="#ffffff" shape-rendering="auto"/>
 <path d="m 208,369 c -5.4,0 -9.7,4.4 -9.7,9.8 l 0,164 c 0,5.4 4.4,9.8 9.7,9.8 l 164,0 c 5.4,0 9.7,-4.4 9.7,-9.8 l 0,-164 c 0,-5.4 -4.4,-9.8 -9.7,-9.8 z" id="rect4154" mix-blend-mode="normal" isolation="auto" white-space="normal" color-rendering="auto" solid-opacity="1" color-interpolation-filters="linearRGB" shape-rendering="auto" image-rendering="auto" color-interpolation="sRGB" color="#000000" solid-color="#000000"/>
 <path d="m 218,389 144,0 0,145 -144,0 z" id="rect3587" mix-blend-mode="normal" isolation="auto" white-space="normal" opacity="0.8" fill="#ffffff" color-rendering="auto" solid-opacity="1" color-interpolation-filters="linearRGB" shape-rendering="auto" image-rendering="auto" color-interpolation="sRGB" color="#000000" solid-color="#000000"/>
 <path id="path1873" d="m 250.7,198 -75,-0.5 0,-38 0,-36.4 75,-1.4 1.3,-83 76,-1.3 0,84 75.9,0 0,37.6 0,37.6 -75.9,0 0,150 c -24,-2.8 -52,4.5 -75.95,-1.65 z"/>
</svg>
