<?xml version="1.0" encoding="UTF-8" standalone="no"?>
<svg xmlns="http://www.w3.org/2000/svg" version="1.0" width="580" height="580">
 <metadata id="metadata2975"/>
 <path id="path4139" d="m 151,256 c -5.5,-16.5 -9.3,-33.6 -10.6,-51 11.5,-17.5 20.9,8.6 20.4,19.3 10.2,37 31,75 68,90 22.4,9.1 52,0.3 61,-23.7 8.8,-24.9 -2.9,-51.9 -17,-72 -11.6,-11.2 -19.8,16.3 -32.7,18.5 -12.8,7.6 -21.4,-17.5 -22,-28 6.2,-11.7 23,-12.2 31.5,-22.5 11.3,-9.4 17.7,-32 3.6,-41.7 -16.5,-8.8 -35.9,-2.7 -51.7,4.6 -16.9,5.5 -28,-25 -19,-36.4 16.4,-5.5 34.8,-6.3 52,-4.7 33.9,7.6 53,47 44,80 0.9,15.5 18.4,-8.4 26,-8.8 14.5,-6.8 35,-5.2 36.7,-26 11,-32 60,-38.5 81,-13.2 18.4,22.5 16.2,53.6 16.8,80.9 -0.1,30 -8.5,64.8 -36.5,81 -16.9,9.7 -43,9.5 -54,-8.7 -10,-21 -6.6,-45 -8.8,-67 -4.8,-20.6 -27.5,-11.9 -38,-2.6 13,20 24.4,43 23.4,68 0.1,24.4 -15.4,48.9 -39.6,55 -15,4.4 -31.5,4.4 -47.1,1.2 C 195,336.1 165,297 151,256 Z m 266.7,-66.5 c -4.9,-16.7 -19.6,-33.4 -38.7,-30 -13.6,2.7 -35.6,14.9 -21.8,29.7 6.2,23.3 0.5,48 5.9,72 4.1,15.3 23,17.2 34.65,8.85 C 421.7,251.5 427.2,216.5 417.7,189.5 Z M 240.4,80.3 c 2.3,-19.3 23,-4.5 29.6,3.9 20,12.5 49.6,7 63,-12.5 13.3,-4.6 27.9,14.5 31,22.9 -17,23 -48.8,35 -76,25.35 C 268,112.9 252.4,97.3 240.4,80.3 Z m 52.4,-38.9 c 9.5,-13.7 21,9.7 28,17.4 -1.9,8.2 -15.7,19.8 -22.5,22 -3.2,-3.3 -6.3,-6.7 -9.5,-9.95 -14.8,-7.95 -8.5,-22.95 4,-29.45 z" mix-blend-mode="normal" solid-color="#000000" opacity="0.8" color-interpolation-filters="linearRGB" filter-gaussianBlur-deviation="0" color="#000000" image-rendering="auto" color-rendering="auto" stroke-width="64" isolation="auto" color-interpolation="sRGB" solid-opacity="1" fill="none" stroke-linejoin="round" filter-blend-mode="normal" stroke="#ffffff" shape-rendering="auto"/>
 <path white-space="normal" isolation="auto" mix-blend-mode="normal" id="path4141" d="m 211,360 c -5.4,0 -9.7,4.4 -9.7,9.8 l 0,164 c 0,5.4 4.4,9.8 9.7,9.8 l 164,0 c 5.4,0 9.7,-4.4 9.7,-9.8 l 0,-164 c 0,-5.4 -4.4,-9.8 -9.7,-9.8 z" solid-color="#000000" opacity="0.8" color-interpolation-filters="linearRGB" filter-gaussianBlur-deviation="0" color="#000000" image-rendering="auto" color-rendering="auto" stroke-width="64" color-interpolation="sRGB" solid-opacity="1" fill="none" stroke-linejoin="round" filter-blend-mode="normal" stroke="#ffffff" shape-rendering="auto"/>
 <path d="m 151,256 c -5.5,-16.5 -9.3,-33.6 -10.6,-51 11.5,-17.5 20.9,8.6 20.4,19.3 10.2,37 31,75 68,90 22.4,9.1 52,0.3 61,-23.7 8.8,-24.9 -2.9,-51.9 -17,-72 -11.6,-11.2 -19.8,16.3 -32.7,18.5 -12.8,7.6 -21.4,-17.5 -22,-28 6.2,-11.7 23,-12.2 31.5,-22.5 11.3,-9.4 17.7,-32 3.6,-41.7 -16.5,-8.8 -35.9,-2.7 -51.7,4.6 -16.9,5.5 -28,-25 -19,-36.4 16.4,-5.5 34.8,-6.3 52,-4.7 33.9,7.6 53,47 44,80 0.9,15.5 18.4,-8.4 26,-8.8 14.5,-6.8 35,-5.2 36.7,-26 11,-32 60,-38.5 81,-13.2 18.4,22.5 16.2,53.6 16.8,80.9 -0.1,30 -8.5,64.8 -36.5,81 -16.9,9.7 -43,9.5 -54,-8.7 -10,-21 -6.6,-45 -8.8,-67 -4.8,-20.6 -27.5,-11.9 -38,-2.6 13,20 24.4,43 23.4,68 0.1,24.4 -15.4,48.9 -39.6,55 -15,4.4 -31.5,4.4 -47.1,1.2 C 195,336.1 165,297 151,256 Z m 266.7,-66.5 c -4.9,-16.7 -19.6,-33.4 -38.7,-30 -13.6,2.7 -35.6,14.9 -21.8,29.7 6.2,23.3 0.5,48 5.9,72 4.1,15.3 23,17.2 34.65,8.85 C 421.7,251.5 427.2,216.5 417.7,189.5 Z M 240.4,80.3 c 2.3,-19.3 23,-4.5 29.6,3.9 20,12.5 49.6,7 63,-12.5 13.3,-4.6 27.9,14.5 31,22.9 -17,23 -48.8,35 -76,25.35 C 268,112.9 252.4,97.3 240.4,80.3 Z m 52.4,-38.9 c 9.5,-13.7 21,9.7 28,17.4 -1.9,8.2 -15.7,19.8 -22.5,22 -3.2,-3.3 -6.3,-6.7 -9.5,-9.95 -14.8,-7.95 -8.5,-22.95 4,-29.45 z" id="path1873"/>
 <path d="m 211,360 c -5.4,0 -9.7,4.4 -9.7,9.8 l 0,164 c 0,5.4 4.4,9.8 9.7,9.8 l 164,0 c 5.4,0 9.7,-4.4 9.7,-9.8 l 0,-164 c 0,-5.4 -4.4,-9.8 -9.7,-9.8 z" id="rect4154" mix-blend-mode="normal" isolation="auto" white-space="normal" color-rendering="auto" solid-opacity="1" color-interpolation-filters="linearRGB" shape-rendering="auto" image-rendering="auto" color-interpolation="sRGB" color="#000000" solid-color="#000000"/>
 <path d="m 220,379 144,0 0,145 -144,0 z" id="rect3587-1" mix-blend-mode="normal" isolation="auto" white-space="normal" opacity="0.8" fill="#ffffff" color-rendering="auto" solid-opacity="1" color-interpolation-filters="linearRGB" shape-rendering="auto" image-rendering="auto" color-interpolation="sRGB" color="#000000" solid-color="#000000"/>
</svg>
