<?xml version="1.0" encoding="UTF-8" standalone="no"?>
<svg xmlns="http://www.w3.org/2000/svg" version="1.0" width="580" height="580">
 <metadata id="metadata2975"/>
 <path id="path4145" d="M 292.80273 36.71875 C 282.36665 36.616724 271.93672 37.725 261.69922 40 C 223.49922 45 190.69922 70 168.69922 100 C 137.29922 142 132.1 201 153 248 C 173 292 213.99961 327.09961 262.34961 336.09961 C 289.59961 340.99961 317.09961 337.90078 342.59961 329.30078 C 355.39961 323.50078 373.00039 318.90078 379.40039 306.30078 C 361.40039 305.40078 343.70039 312.90039 325.40039 313.40039 C 273.10039 312.40039 226.00039 272.40039 210.40039 223.40039 C 203.70039 194.40039 203.90039 162.40039 216.90039 135.40039 C 237.90039 89.400391 289.90039 55.800391 340.90039 63.400391 C 352.80039 63.400391 371.49922 74.000781 379.69922 66.800781 C 368.19922 53.100781 349.09922 48.899219 332.69922 43.199219 C 319.64922 38.980469 306.22056 36.849927 292.80273 36.71875 z M 380.40039 127.90039 C 371.20039 132.00039 366.99922 153.59922 362.69922 165.69922 L 363 166 C 349.6 167.2 335.30039 165.39961 322.40039 169.59961 C 319.10039 173.39961 325.8 176.5 328 179 C 336.2 185.8 345.2 191.5 353.5 198 C 350 210.9 343.49922 223.40039 342.69922 236.90039 C 344.89922 242.90039 351.69922 237.99961 354.69922 235.59961 C 363.19922 229.99961 371.10078 222.60039 380.30078 218.40039 C 392.00078 224.70039 401.90078 234.19922 413.30078 240.69922 C 418.50078 240.89922 417.00039 233.49961 416.40039 230.09961 C 414.50039 219.29961 409.10039 209.10039 407.40039 198.40039 C 417.00039 188.50039 429.80039 182.4 438.90039 172 C 439.50039 166.8 431.89961 168.10078 428.59961 167.30078 C 418.09961 166.60078 407.6 167.10039 397 166.90039 C 392 154.00039 388.60039 131.40039 380.40039 127.90039 z M 205 360 C 199.6 360 195.30078 364.40078 195.30078 369.80078 L 195.30078 533.80078 C 195.30078 539.20078 199.7 543.59961 205 543.59961 L 369 543.59961 C 374.4 543.59961 378.69922 539.20078 378.69922 533.80078 L 378.69922 369.80078 C 378.69922 364.40078 374.3 360 369 360 L 205 360 z " mix-blend-mode="normal" solid-color="#000000" opacity="0.8" color-interpolation-filters="linearRGB" filter-gaussianBlur-deviation="0" color="#000000" image-rendering="auto" color-rendering="auto" stroke-width="64" isolation="auto" color-interpolation="sRGB" solid-opacity="1" fill="none" stroke-linejoin="round" filter-blend-mode="normal" stroke="#ffffff" shape-rendering="auto"/>
 <path d="M 292.80273 36.71875 C 282.36665 36.616724 271.93672 37.725 261.69922 40 C 223.49922 45 190.69922 70 168.69922 100 C 137.29922 142 132.1 201 153 248 C 173 292 213.99961 327.09961 262.34961 336.09961 C 289.59961 340.99961 317.09961 337.90078 342.59961 329.30078 C 355.39961 323.50078 373.00039 318.90078 379.40039 306.30078 C 361.40039 305.40078 343.70039 312.90039 325.40039 313.40039 C 273.10039 312.40039 226.00039 272.40039 210.40039 223.40039 C 203.70039 194.40039 203.90039 162.40039 216.90039 135.40039 C 237.90039 89.400391 289.90039 55.800391 340.90039 63.400391 C 352.80039 63.400391 371.49922 74.000781 379.69922 66.800781 C 368.19922 53.100781 349.09922 48.899219 332.69922 43.199219 C 319.64922 38.980469 306.22056 36.849927 292.80273 36.71875 z M 380.40039 127.90039 C 371.20039 132.00039 366.99922 153.59922 362.69922 165.69922 L 363 166 C 349.6 167.2 335.30039 165.39961 322.40039 169.59961 C 319.10039 173.39961 325.8 176.5 328 179 C 336.2 185.8 345.2 191.5 353.5 198 C 350 210.9 343.49922 223.40039 342.69922 236.90039 C 344.89922 242.90039 351.69922 237.99961 354.69922 235.59961 C 363.19922 229.99961 371.10078 222.60039 380.30078 218.40039 C 392.00078 224.70039 401.90078 234.19922 413.30078 240.69922 C 418.50078 240.89922 417.00039 233.49961 416.40039 230.09961 C 414.50039 219.29961 409.10039 209.10039 407.40039 198.40039 C 417.00039 188.50039 429.80039 182.4 438.90039 172 C 439.50039 166.8 431.89961 168.10078 428.59961 167.30078 C 418.09961 166.60078 407.6 167.10039 397 166.90039 C 392 154.00039 388.60039 131.40039 380.40039 127.90039 z M 205 360 C 199.6 360 195.30078 364.40078 195.30078 369.80078 L 195.30078 533.80078 C 195.30078 539.20078 199.7 543.59961 205 543.59961 L 369 543.59961 C 374.4 543.59961 378.69922 539.20078 378.69922 533.80078 L 378.69922 369.80078 C 378.69922 364.40078 374.3 360 369 360 L 205 360 z " id="path4510"/>
 <path d="m215 380l144 0 0 145-144 0z" id="rect3587" shape-rendering="auto" mix-blend-mode="normal" color-interpolation-filters="linearRGB" isolation="auto" white-space="normal" opacity="0.8" fill="#ffffff" solid-opacity="1" image-rendering="auto" solid-color="#000000" color="#000000" color-rendering="auto" color-interpolation="sRGB"/>
</svg>
