<?xml version="1.0" encoding="UTF-8" standalone="no"?>
<svg xmlns="http://www.w3.org/2000/svg" version="1.0" width="580" height="580">
 <metadata id="metadata2975"/>
 <path id="path4190" d="M 285.17969 35.509766 L 238.17969 114.50977 L 151 116.09961 L 192 195.09961 L 153 276.09961 L 242 278 L 242.5 278.09961 L 288.19922 354.09961 L 337.09961 278.09961 L 428.09961 275.5 L 384.09961 195.5 L 426 115.5 L 333.17969 114.50977 L 285.17969 35.509766 z M 286.30273 86.623047 L 302.50391 115.12305 L 269.50391 115.12305 L 286.30273 86.623047 z M 355.24219 141.22852 L 388.24219 141.22852 L 372.04297 169.72852 L 355.24219 141.22852 z M 193.19922 142.30859 L 222.37891 142.81836 L 210 170.80859 L 193.19922 142.30859 z M 252.7793 142.30859 L 318.67969 142.30859 L 353.19922 195.80078 L 321.09961 252.19922 L 256.09961 251.69922 L 226.69922 195.80078 L 252.7793 142.30859 z M 368.94336 222.25977 L 381.32227 250.25 L 352.14258 250.75977 L 368.94336 222.25977 z M 208.63281 223.69922 L 221.01172 251.69141 L 191.83203 252.19922 L 208.63281 223.69922 z M 272.38477 276.83398 L 305.38477 276.83398 L 289.18555 305.33398 L 272.38477 276.83398 z " mix-blend-mode="normal" solid-color="#000000" opacity="0.8" color-interpolation-filters="linearRGB" filter-gaussianBlur-deviation="0" color="#000000" image-rendering="auto" color-rendering="auto" stroke-width="64" isolation="auto" color-interpolation="sRGB" solid-opacity="1" fill="none" stroke-linejoin="round" filter-blend-mode="normal" stroke="#ffffff" shape-rendering="auto"/>
 <path id="path4192" d="m 208,360 c -5.4,0 -9.7,4.4 -9.7,9.8 l 0,164 c 0,5.4 4.4,9.8 9.7,9.8 l 164,0 c 5.4,0 9.7,-4.4 9.7,-9.8 l 0,-164 c 0,-5.4 -4.4,-9.8 -9.7,-9.8 z" mix-blend-mode="normal" solid-color="#000000" opacity="0.8" color-interpolation-filters="linearRGB" filter-gaussianBlur-deviation="0" color="#000000" image-rendering="auto" color-rendering="auto" stroke-width="64" isolation="auto" color-interpolation="sRGB" solid-opacity="1" fill="none" stroke-linejoin="round" filter-blend-mode="normal" stroke="#ffffff" shape-rendering="auto"/>
 <path d="M 285.17969 35.509766 L 238.17969 114.50977 L 151 116.09961 L 192 195.09961 L 153 276.09961 L 242 278 L 242.5 278.09961 L 288.19922 354.09961 L 337.09961 278.09961 L 428.09961 275.5 L 384.09961 195.5 L 426 115.5 L 333.17969 114.50977 L 285.17969 35.509766 z M 286.30273 86.623047 L 302.50391 115.12305 L 269.50391 115.12305 L 286.30273 86.623047 z M 355.24219 141.22852 L 388.24219 141.22852 L 372.04297 169.72852 L 355.24219 141.22852 z M 193.19922 142.30859 L 222.37891 142.81836 L 210 170.80859 L 193.19922 142.30859 z M 252.7793 142.30859 L 318.67969 142.30859 L 353.19922 195.80078 L 321.09961 252.19922 L 256.09961 251.69922 L 226.69922 195.80078 L 252.7793 142.30859 z M 368.94336 222.25977 L 381.32227 250.25 L 352.14258 250.75977 L 368.94336 222.25977 z M 208.63281 223.69922 L 221.01172 251.69141 L 191.83203 252.19922 L 208.63281 223.69922 z M 272.38477 276.83398 L 305.38477 276.83398 L 289.18555 305.33398 L 272.38477 276.83398 z " id="path4151"/>
 <path d="m 208,360 c -5.4,0 -9.7,4.4 -9.7,9.8 l 0,164 c 0,5.4 4.4,9.8 9.7,9.8 l 164,0 c 5.4,0 9.7,-4.4 9.7,-9.8 l 0,-164 c 0,-5.4 -4.4,-9.8 -9.7,-9.8 z" id="path3648"/>
 <path d="m218 380l144 0 0 145-144 0z" id="rect3587-6" mix-blend-mode="normal" isolation="auto" white-space="normal" shape-rendering="auto" image-rendering="auto" color-rendering="auto" fill="#ffffff" solid-opacity="1" solid-color="#000000" color-interpolation-filters="linearRGB" color-interpolation="sRGB" color="#000000" opacity="0.8"/>
</svg>
