<?xml version="1.0" encoding="UTF-8" standalone="no"?>
<svg xmlns="http://www.w3.org/2000/svg" version="1.0" width="580" height="580">
 <metadata id="metadata2975"/>
 <path id="path4140" d="M 450.15625 35.261719 C 448.3725 35.295151 446.11328 35.886719 443.30078 37.199219 C 424.80078 46.399219 404.30078 49.800391 384.30078 53.400391 C 348.30078 58.100391 312.90078 57.2 277.30078 58 C 243.30078 59.5 209.00078 53.900391 175.30078 48.900391 C 158.30078 47.300391 144.30078 34.700391 127.30078 35.400391 C 120.40078 45.400391 140.60039 58.199609 139.90039 71.099609 C 143.20039 87.899609 168.50078 85.500391 167.80078 103.90039 C 180.40078 113.00039 198.40078 107.30078 212.30078 113.80078 C 219.70078 127.30078 195.00078 129.90039 185.30078 127.40039 C 164.30078 120.00039 165.09961 143.00039 169.59961 156.40039 C 182.59961 159.10039 196.10039 158.30039 209.40039 158.90039 C 217.30039 156.80039 217.29961 162.39961 216.59961 168.59961 C 220.89961 181.29961 209.49961 185.2 203.09961 191 C 211.89961 206.2 209.20039 224.2 209.90039 241 C 210.50039 270.3 208.10039 300.39922 212.15039 330.19922 C 217.20039 336.59922 230.19922 337.3 235.19922 331 C 239.79922 274 237.69961 216 240.59961 159 C 273.59961 157.2 306.59961 157.50078 339.59961 156.80078 C 347.39961 154.40078 347.60078 159.60039 346.80078 165.90039 C 348.20078 177.20039 343.80039 188.60039 343.90039 198.90039 C 348.60039 237.90039 346.90078 276.30039 349.80078 314.90039 C 344.00078 333.80039 371.29961 338.4 379.59961 326.5 C 381.69961 290.5 379.5 254.5 379 218.5 C 379.4 212.1 376.59922 204.60078 382.69922 200.30078 C 395.29922 191.10078 384.60078 182.70078 373.30078 180.30078 C 369.20078 173.30078 371.00039 164.49961 369.90039 156.59961 L 387.30078 156.30078 C 397.90078 154.20078 417.79922 161.39961 419.19922 146.59961 C 425.39922 129.19961 413.19922 119.90078 396.69922 126.30078 C 384.89922 134.30078 360.19922 111.80039 382.69922 110.40039 C 396.89922 108.00039 419.29961 113 421.59961 93 C 433.89961 85.2 447.09961 73.899219 449.09961 58.199219 C 455.51211 51.196094 459.78851 35.081186 450.15625 35.261719 z M 275.24219 111.74805 C 279.58943 111.62093 279.61382 116.2423 280.09961 123.59961 C 282.49961 131.59961 276.60078 131.29922 270.30078 130.69922 C 260.50078 132.49922 237.90078 126.99961 245.30078 114.09961 C 254.10078 110.89961 263.79961 112.49961 273.09961 112.09961 C 273.91099 111.88179 274.62115 111.76621 275.24219 111.74805 z M 329.41602 111.80078 C 339.63114 111.64336 352.52148 113.26914 341.34961 124.40039 C 333.59961 129.90039 323.59922 128.10039 314.69922 128.40039 C 307.99922 130.00039 312.29961 120.49961 311.09961 116.59961 C 308.89961 108.89961 318.69961 113.19961 323.09961 112.09961 C 324.84336 111.96836 327.05868 111.83711 329.41602 111.80078 z M 212 360 C 206.6 360 202.30078 364.40078 202.30078 369.80078 L 202.30078 533.80078 C 202.30078 539.20078 206.7 543.59961 212 543.59961 L 376 543.59961 C 381.4 543.59961 385.69922 539.20078 385.69922 533.80078 L 385.69922 369.80078 C 385.69922 364.40078 381.3 360 376 360 L 212 360 z " mix-blend-mode="normal" solid-color="#000000" opacity="0.8" white-space="normal" color-interpolation-filters="linearRGB" filter-gaussianBlur-deviation="0" color="#000000" image-rendering="auto" color-rendering="auto" stroke-width="64" isolation="auto" color-interpolation="sRGB" solid-opacity="1" fill="none" stroke-linejoin="round" filter-blend-mode="normal" stroke="#ffffff" shape-rendering="auto"/>
 <path d="M 450.15625 35.261719 C 448.3725 35.295151 446.11328 35.886719 443.30078 37.199219 C 424.80078 46.399219 404.30078 49.800391 384.30078 53.400391 C 348.30078 58.100391 312.90078 57.2 277.30078 58 C 243.30078 59.5 209.00078 53.900391 175.30078 48.900391 C 158.30078 47.300391 144.30078 34.700391 127.30078 35.400391 C 120.40078 45.400391 140.60039 58.199609 139.90039 71.099609 C 143.20039 87.899609 168.50078 85.500391 167.80078 103.90039 C 180.40078 113.00039 198.40078 107.30078 212.30078 113.80078 C 219.70078 127.30078 195.00078 129.90039 185.30078 127.40039 C 164.30078 120.00039 165.09961 143.00039 169.59961 156.40039 C 182.59961 159.10039 196.10039 158.30039 209.40039 158.90039 C 217.30039 156.80039 217.29961 162.39961 216.59961 168.59961 C 220.89961 181.29961 209.49961 185.2 203.09961 191 C 211.89961 206.2 209.20039 224.2 209.90039 241 C 210.50039 270.3 208.10039 300.39922 212.15039 330.19922 C 217.20039 336.59922 230.19922 337.3 235.19922 331 C 239.79922 274 237.69961 216 240.59961 159 C 273.59961 157.2 306.59961 157.50078 339.59961 156.80078 C 347.39961 154.40078 347.60078 159.60039 346.80078 165.90039 C 348.20078 177.20039 343.80039 188.60039 343.90039 198.90039 C 348.60039 237.90039 346.90078 276.30039 349.80078 314.90039 C 344.00078 333.80039 371.29961 338.4 379.59961 326.5 C 381.69961 290.5 379.5 254.5 379 218.5 C 379.4 212.1 376.59922 204.60078 382.69922 200.30078 C 395.29922 191.10078 384.60078 182.70078 373.30078 180.30078 C 369.20078 173.30078 371.00039 164.49961 369.90039 156.59961 L 387.30078 156.30078 C 397.90078 154.20078 417.79922 161.39961 419.19922 146.59961 C 425.39922 129.19961 413.19922 119.90078 396.69922 126.30078 C 384.89922 134.30078 360.19922 111.80039 382.69922 110.40039 C 396.89922 108.00039 419.29961 113 421.59961 93 C 433.89961 85.2 447.09961 73.899219 449.09961 58.199219 C 455.51211 51.196094 459.78851 35.081186 450.15625 35.261719 z M 275.24219 111.74805 C 279.58943 111.62093 279.61382 116.2423 280.09961 123.59961 C 282.49961 131.59961 276.60078 131.29922 270.30078 130.69922 C 260.50078 132.49922 237.90078 126.99961 245.30078 114.09961 C 254.10078 110.89961 263.79961 112.49961 273.09961 112.09961 C 273.91099 111.88179 274.62115 111.76621 275.24219 111.74805 z M 329.41602 111.80078 C 339.63114 111.64336 352.52148 113.26914 341.34961 124.40039 C 333.59961 129.90039 323.59922 128.10039 314.69922 128.40039 C 307.99922 130.00039 312.29961 120.49961 311.09961 116.59961 C 308.89961 108.89961 318.69961 113.19961 323.09961 112.09961 C 324.84336 111.96836 327.05868 111.83711 329.41602 111.80078 z M 212 360 C 206.6 360 202.30078 364.40078 202.30078 369.80078 L 202.30078 533.80078 C 202.30078 539.20078 206.7 543.59961 212 543.59961 L 376 543.59961 C 381.4 543.59961 385.69922 539.20078 385.69922 533.80078 L 385.69922 369.80078 C 385.69922 364.40078 381.3 360 376 360 L 212 360 z " id="rect4154" isolation="auto" color-rendering="auto" white-space="normal" solid-opacity="1" mix-blend-mode="normal" color-interpolation-filters="linearRGB" shape-rendering="auto" image-rendering="auto" color-interpolation="sRGB" color="#000000" solid-color="#000000"/>
 <path d="m 221,379 144,0 0,145 -144,0 z" id="rect3587-7" mix-blend-mode="normal" isolation="auto" white-space="normal" opacity="0.8" fill="#ffffff" color-rendering="auto" solid-opacity="1" color-interpolation-filters="linearRGB" shape-rendering="auto" image-rendering="auto" color-interpolation="sRGB" color="#000000" solid-color="#000000"/>
</svg>
