<?xml version="1.0" encoding="UTF-8" standalone="no"?>
<svg xmlns="http://www.w3.org/2000/svg" xmlns:sodipodi="http://sodipodi.sourceforge.net/DTD/sodipodi-0.dtd" xmlns:inkscape="http://www.inkscape.org/namespaces/inkscape" version="1.0" width="580" height="580">
 <metadata id="metadata2975"/>
 <defs id="defs4">
  <symbol id="symbol-university" viewBox="244.5 110 489 219.9">
   <path d="M79,43l57,119c0,0,21-96,104-96s124,106,124,106l43-133l82-17L0,17L79,43z" id="path4460"/>
   <path fill="none" stroke="#000000" stroke-width="20" d="M94,176l-21,39" id="path4462"/>
   <path d="M300,19c0,10.5-22.6,19-50.5,19S199,29.5,199,19s22.6-19,50.5-19S300,8.5,300,19z" id="path4464"/>
   <path ill="none" stroke="#000000" stroke-width="20" d="M112,216l-16-38L64,88c0,0-9-8-4-35s16-24,16-24" id="path4466"/>
  </symbol>
  <symbol viewBox="244.5 110 489 219.9" id="symbol9807">
   <path id="path9809" d="M79,43l57,119c0,0,21-96,104-96s124,106,124,106l43-133l82-17L0,17L79,43z"/>
   <path id="path9811" d="M94,176l-21,39" stroke-width="20" stroke="#000000" fill="none"/>
   <path id="path9813" d="M300,19c0,10.5-22.6,19-50.5,19S199,29.5,199,19s22.6-19,50.5-19S300,8.5,300,19z"/>
   <path id="path9815" d="M112,216l-16-38L64,88c0,0-9-8-4-35s16-24,16-24" stroke-width="20" stroke="#000000" ill="none"/>
  </symbol>
  <linearGradient id="linearGradient2936">
   <stop id="stop2938" stop-color="#8acf6b"/>
   <stop offset="1" id="stop2940" stop-color="#368912"/>
  </linearGradient>
  <linearGradient id="linearGradient2952">
   <stop id="stop2954" stop-color="#c0d50d"/>
   <stop offset="1" id="stop2956" stop-color="#eef2cd"/>
  </linearGradient>
 </defs>
 <g id="g1327">
  <path d="M 66.275,1.768 C 24.94,1.768 1.704,23.139 1.704,66.804 L 1.704,516.927 C 1.704,557.771 22.599,579.156 63.896,579.156 L 515.92,579.156 C 557.227,579.156 578.149,558.841 578.149,516.927 L 578.149,66.804 C 578.149,24.203 557.227,1.768 514.628,1.768 C 514.624,1.768 66.133,1.625 66.275,1.768 z " id="path1329" fill="#0092DA" stroke="#eee" stroke-width="3.408"/>
 </g>
 <path d="M 105 138.5625 C 82.455636 139.04808 61.42436 153.68047 39.6875 153.5625 C 39.477692 153.55754 39.27222 153.53876 39.0625 153.53125 L 39.0625 197.15625 C 61.302883 197.02121 82.818963 181.68267 106 182.15625 C 129.44843 182.79644 154.8153 199.06962 177.78125 200.1875 C 200.43961 200.80612 224.32047 186.55857 240.9375 186.4375 C 257.16223 186.30388 265.77336 196.91758 275.46875 199.40625 C 285.01176 201.72301 292.31781 202.22622 298.03125 200.65625 L 298.15625 169.9375 C 301.99997 171.95999 320.23864 173.93213 288.375 154.71875 C 274.40607 144.84293 258.32295 142.6086 242.09375 142.90625 C 225.47492 143.0272 201.65835 157.27487 179 156.65625 C 156.03404 155.53837 130.63594 139.20268 107.1875 138.5625 C 106.45705 138.54774 105.72724 138.54684 105 138.5625 z " id="path121" fill="#ffffff" fill-rule="evenodd"/>
 <path d="m 272.81345,203.26343 c 5.4828,17.66839 1.73344,42.62012 8.42705,62.46192 7.27785,19.4899 11.44834,27.60472 18.70891,47.5966 0.38761,1.09033 8.17912,19.81802 8.47491,20.92412 29.0411,-0.2218 57.0508,23.61394 40.49302,-25.1136 -7.26055,-19.9919 -18.90558,-37.18293 -26.18346,-56.67283 -6.6936,-19.84178 2.39416,-42.65962 -3.08808,-60.32633 -9.25741,-32.80102 -33.09728,-33.91389 -41.39465,-35.83641 -32.81615,-7.60364 -56.31307,-17.88257 -39.03183,16.18077 3.88984,7.66729 17.65058,13.14773 33.59413,30.78576 z" id="path3025" sodipodi:nodetypes="cccccccssc" fill="#ffffff" fill-rule="evenodd"/>
 <path d="m 140.53158,233.875 c -20.6718,-0.0322 -74.867293,0.70379 -101.46908,1.4375 l 0,241.3125 237.43138,0 C 260.82193,231.04103 268.79743,207.07373 140.53158,233.875 z" id="rect3039" sodipodi:nodetypes="ccccc" opacity=".75" fill="#ffffff" stroke="#ffffff" stroke-linejoin="round" stroke-linecap="round" stroke-width="11.04"/>
 <path d="M 371 320.03125 C 349.83492 320.50279 329.29817 332.3247 309.4375 331.625 C 308.62739 331.587 307.86459 331.54873 307.0625 331.46875 L 307.0625 375.1875 C 307.46587 375.216 307.87582 375.2326 308.28125 375.25 C 329.44393 375.99556 351.28679 362.62729 373.9375 363.65625 C 396.27477 364.59271 418.64775 380.42422 441.46875 380.96875 C 463.9069 381.08692 485.53182 365.49479 508.90625 365.96875 C 519.83001 366.23041 531.17539 369.95588 542.5 373.96875 L 542.5 329.9375 C 531.58299 326.11964 520.65336 322.66245 510.125 322.375 C 486.75051 321.90282 465.06314 337.55569 442.625 337.4375 C 419.80394 336.89477 397.46222 321.06326 375.125 320.125 C 374.4173 320.0877 373.73743 320.04075 373.03125 320.03125 C 372.34715 320.02202 371.68274 320.01604 371 320.03125 z " id="path3815" fill="#ffffff" fill-rule="evenodd"/>
 <path d="M 378.65625 408.4375 C 356.76496 408.14203 335.56385 420.78476 315.0625 420.0625 C 314.2524 420.0245 313.45833 419.95498 312.65625 419.875 L 312.65625 463.59375 C 313.05962 463.62225 313.46957 463.6701 313.875 463.6875 C 335.03768 464.43307 356.9118 451.03355 379.5625 452.0625 C 401.89977 452.99897 424.24149 468.83047 447.0625 469.375 C 469.50065 469.49317 491.15682 453.90105 514.53125 454.375 C 523.64659 454.59334 533.05472 457.24053 542.5 460.4375 L 542.5 416.4375 C 533.4631 413.44622 524.47349 411.01942 515.75 410.78125 C 492.37551 410.30906 470.68813 425.96195 448.25 425.84375 C 425.42894 425.30103 403.08722 409.46951 380.75 408.53125 C 380.0423 408.49395 379.36243 408.447 378.65625 408.4375 z " id="path3831" fill="#ffffff" fill-rule="evenodd"/>
</svg>
