<?xml version="1.0" encoding="UTF-8" standalone="no"?>
<svg xmlns="http://www.w3.org/2000/svg" version="1.0" width="580" height="580">
 <metadata id="metadata2975"/>
 <path d="M 284.92932,46.525818 C 274,47 277.04368,53.955904 267.7207,73.837891 258.14927,95.491303 248.6831,117.59262 239.3125,140 L 73,140 c -13.9,1.3 -9.600781,16.99922 -10.300781,26.69922 l 0,258 c 1.3,13.9 17.001172,9.60078 26.701172,10.30078 l 33.503909,0 c -9.35603,24.05463 -18.65769,47.79942 -27.9043,71 -4,15 18,26 27,13 11.43556,-27.48546 22.78885,-55.58967 34.0957,-84 l 268.52149,0 c 11.53623,28.63732 23.2612,56.45785 35.38281,83 9.2,12.9 31.6,2.00078 27,-13.19922 C 477.2881,481.96215 467.70803,458.61482 458.19922,435 l 53.20117,0 c 13.9,-1.3 9.59883,-16.99922 10.29883,-26.69922 l 0,-258 C 519.99922,136.00078 504,141 495,140 l -152.89453,0 C 329.91675,110.2758 317.5796,81.154335 305,53 302.1875,48.03125 295.85864,46.051636 284.92932,46.525818 Z M 291,98 c 6.25468,13.82083 12.3721,27.84172 18.38477,42 l -36.17188,0 C 279.12468,125.82297 285.04917,111.78088 291,98 Z" id="path4144" mix-blend-mode="normal" solid-color="#000000" opacity="0.8" white-space="normal" color-interpolation-filters="linearRGB" filter-gaussianBlur-deviation="0" color="#000000" image-rendering="auto" color-rendering="auto" fill-rule="evenodd" stroke-width="64" isolation="auto" color-interpolation="sRGB" solid-opacity="1" fill="none" stroke-linejoin="round" filter-blend-mode="normal" stroke="#ffffff" shape-rendering="auto"/>
 <path id="path4137" d="M267 76C206 214 150 368 95 506 91 521 113 532 122 519 179 382 234 230 291 98 353 235 402 391 460 518c9.2 12.9 31.6 2 27-13.2C425 359 368 194 305 53 302 47.7 295 45.8 289 46 274 47 272 59 267 76" fill="#ffffff" isolation="auto" color-rendering="auto" white-space="normal" solid-opacity="1" mix-blend-mode="normal" color-interpolation-filters="linearRGB" shape-rendering="auto" fill-rule="evenodd" image-rendering="auto" color-interpolation="sRGB" color="#000000" solid-color="#000000"/>
 <path d="m 95,506 c -4,15 18,26 27,13 57,-137 112,-289 169,-421 62,137 111,293 169,420 9.2,12.9 31.6,2 27,-13.2 C 425,359 368,194 305,53 302,47.7 295,45.8 289,46 274,47 277.04348,53.956522 267.7205,73.838509 206.7205,211.83851 150,368 95,506 Z" id="path3526" isolation="auto" white-space="normal" mix-blend-mode="normal" opacity="0.8" fill="#39ac39" color-rendering="auto" solid-opacity="1" color-interpolation-filters="linearRGB" shape-rendering="auto" fill-rule="evenodd" image-rendering="auto" color-interpolation="sRGB" color="#000000" solid-color="#000000"/>
 <path d="m 62.7,166.7 0,258 c 1.3,13.9 17,9.6 26.7,10.3 l 422,0 c 13.9,-1.3 9.6,-17 10.3,-26.7 l 0,-258 C 520,136 504,141 495,140 l -422,0 c -13.9,1.3 -9.6,17 -10.3,26.7 z" id="rect3544" isolation="auto" white-space="normal" mix-blend-mode="normal" fill="#39ac39" color-rendering="auto" solid-opacity="1" color-interpolation-filters="linearRGB" shape-rendering="auto" image-rendering="auto" color-interpolation="sRGB" color="#000000" solid-color="#000000"/>
 <path d="M 241 256 L 241 402 L 279 402 C 279 397 278 389 280 387 C 288 399 303 406 319 403 C 355 399 378 324 334 300 C 318 291 294 294 281 306 L 281 256 L 241 256 z M 299.5 324 C 318 324 319 349 316 363 C 309 380 284 378 282 360 C 279 347 281 324 299.5 324 z " id="path4147" fill="#ffffff"/>
 <path d="M 156.68359 176.89453 C 151.71191 176.85938 146.0625 177 139.5 177 C 122 177 102 180 93 196 C 87 205 88 208 99 209 C 108 211 118 211 127 212 C 131 198 151 197 161 204 C 169 214 156 218 149 219 C 132 223 114 225 98 233 C 79 244 83 276 103 283 C 123 291 148 286 164 272 C 167 278 164 286 178 285 C 188 285 197 285 207 284 C 198 263 204 240 202 217 C 202 201 194 187 177 180 C 171.375 177.5 164.96973 176.95312 156.68359 176.89453 z M 162 234 C 167 246 158 264 144 264 C 122 270 118 242 139 238 C 146 236 155 236 162 234 z " id="path4142" fill="#ffffff"/>
 <path d="m 368,206.5 c -9.6,22.5 -6.3,54 15,68 19.5,14 45,13.6 67.9,8.6 16.6,-4.1 27.9,-18 33.5,-33.6 C 464,246 451,244 447,244 c -4,14 -24,21 -35,12 -14,-11 -11,-35 -1,-47 13,-13 34,-5 38,8 25,-3.5 45,7.9 27,-17.6 C 465,182 448,176 424,177 c -25,-0.5 -46.6,8.3 -56,29.5 z" id="path4166" fill="#ffffff"/>
</svg>
