<?xml version="1.0" encoding="UTF-8" standalone="no"?>
<svg xmlns="http://www.w3.org/2000/svg" version="1.0" width="580" height="580">
 <metadata id="metadata2975"/>
 <path id="path4155" d="m 42.6,243.7 288,3.5 209,-109 c 4.2,-2.2 2.8,-8.5 -2,-8.7 l -266,-9.8 -231,115.15 c -4.3,2.35 -2.8,8.85 2,8.85 z m 120,14 c -2,-0.1 -3.9,1.2 -4.5,3.1 l -24.8,73 c -1.2,3.4 1.8,6.7 5.4,6 73.48294,-36.2841 149.88762,-27.80931 217.4,-2.4 43.28593,-48.43133 83.19649,-67.21816 140.8,-74.1 3.7,-0.4 5.4,-4.8 3,-7.6 L 451,202 c -0.9,-1.1 -116.7,60.5 -116.7,60.5 z M 111,248 c -21,37.9 -25,87 -28.8,124 -24.572451,7.23369 -16.973863,47.73377 -19,72.6 -0.372542,7.00789 7.375016,6.7936 9.1,1.5 -1.560988,6.78747 2.952867,8.53492 7.2,6.3 1.93466,5.29774 6.718935,5.66442 9.3,-0.2 -0.617692,5.75194 5.811108,7.11473 8.6,3.1 0.02276,5.08361 6.31592,6.88635 9,0.8 8.70178,-23.74187 29.26634,-56.23234 12.9,-77.2 1.8,-29.8 3.2,-55 13.9,-90 3.1,-8.4 5,-18.7 14.4,-24 L 144,247.2 Z" mix-blend-mode="normal" isolation="auto" white-space="normal" solid-color="#000000" color-interpolation-filters="linearRGB" opacity="0.8" filter-gaussianBlur-deviation="0" color="#000000" image-rendering="auto" color-rendering="auto" fill-rule="evenodd" stroke-width="64" color-interpolation="sRGB" solid-opacity="1" fill="none" stroke-linejoin="round" filter-blend-mode="normal" stroke="#ffffff" shape-rendering="auto"/>
 <path white-space="normal" isolation="auto" mix-blend-mode="normal" d="m 42.6,243.7 288,3.5 209,-109 c 4.2,-2.2 2.8,-8.5 -2,-8.7 l -266,-9.8 -231,115.15 c -4.3,2.35 -2.8,8.85 2,8.85 z m 120,14 c -2,-0.1 -3.9,1.2 -4.5,3.1 l -24.8,73 c -1.2,3.4 1.8,6.7 5.4,6 73.48294,-36.2841 149.88762,-27.80931 217.4,-2.4 43.28593,-48.43133 83.19649,-67.21816 140.8,-74.1 3.7,-0.4 5.4,-4.8 3,-7.6 L 451,202 c -0.9,-1.1 -116.7,60.5 -116.7,60.5 z M 111,248 c -21,37.9 -25,87 -28.8,124 -24.572451,7.23369 -16.973863,47.73377 -19,72.6 -0.372542,7.00789 7.375016,6.7936 9.1,1.5 -1.560988,6.78747 2.952867,8.53492 7.2,6.3 1.93466,5.29774 6.718935,5.66442 9.3,-0.2 -0.617692,5.75194 5.811108,7.11473 8.6,3.1 0.02276,5.08361 6.31592,6.88635 9,0.8 8.70178,-23.74187 29.26634,-56.23234 12.9,-77.2 1.8,-29.8 3.2,-55 13.9,-90 3.1,-8.4 5,-18.7 14.4,-24 L 144,247.2 Z" id="path2662" fill="#39ac39" color-rendering="auto" solid-opacity="1" color-interpolation-filters="linearRGB" shape-rendering="auto" fill-rule="evenodd" image-rendering="auto" color-interpolation="sRGB" color="#000000" solid-color="#000000"/>
</svg>
