<?xml version="1.0" encoding="UTF-8" standalone="no"?>
<svg xmlns="http://www.w3.org/2000/svg" version="1.0" width="580" height="580">
 <metadata id="metadata2975"/>
 <path white-space="normal" isolation="auto" mix-blend-mode="normal" id="path4136" d="m 264.3,53.5 c -7.9,7 -13,18 -13,24.2 l 0,135.2 -192,117 c -6,3.6 -9.6,10 -9.6,17 l 0,52.7 c 0,13.6 13.3,23.3 26.3,19 l 178,-58 0,73 -39.8,31.4 c -3.6,2.8 -5.7,7.2 -5.7,11.8 l 0,41.7 c 0,10 9.8,17.3 19.4,14.3 L 293,513 l 67,21 c 9.6,3 19.4,-4.2 19.4,-14.3 l 0,-41.7 c 0,-4.6 -2.1,-9 -5.8,-11.8 l -40,-31.4 0,-73 178,58 c 12.9,4.3 26,-5.4 26.3,-19 l 0,-52.7 c 0,-7 -3.7,-13.5 -9.7,-17 l -195,-117 0,-128 c 0,-12.4 -5,-23.6 -12.9,-30.8 -7.9,-7.2 -17.8,-10.5 -27.95,-11.2 -10.15,-0.7 -20.15,2.4 -28.05,9.4 z" solid-color="#000000" opacity="0.8" color-interpolation-filters="linearRGB" filter-gaussianBlur-deviation="0" color="#000000" image-rendering="auto" color-rendering="auto" stroke-width="64" color-interpolation="sRGB" solid-opacity="1" fill="none" stroke-linejoin="round" filter-blend-mode="normal" stroke="#ffffff" shape-rendering="auto"/>
 <path d="m 264.3,53.5 c -7.9,7 -13,18 -13,24.2 l 0,135.2 -192,117 c -6,3.6 -9.6,10 -9.6,17 l 0,52.7 c 0,13.6 13.3,23.3 26.3,19 l 178,-58 0,73 -39.8,31.4 c -3.6,2.8 -5.7,7.2 -5.7,11.8 l 0,41.7 c 0,10 9.8,17.3 19.4,14.3 L 293,513 l 67,21 c 9.6,3 19.4,-4.2 19.4,-14.3 l 0,-41.7 c 0,-4.6 -2.1,-9 -5.8,-11.8 l -40,-31.4 0,-73 178,58 c 12.9,4.3 26,-5.4 26.3,-19 l 0,-52.7 c 0,-7 -3.7,-13.5 -9.7,-17 l -195,-117 0,-128 c 0,-12.4 -5,-23.6 -12.9,-30.8 -7.9,-7.2 -17.8,-10.5 -27.95,-11.2 -10.15,-0.7 -20.15,2.4 -28.05,9.4 z" id="path7852" mix-blend-mode="normal" isolation="auto" white-space="normal" fill="#0092da" color-rendering="auto" solid-opacity="1" color-interpolation-filters="linearRGB" shape-rendering="auto" image-rendering="auto" color-interpolation="sRGB" color="#000000" solid-color="#000000"/>
</svg>
