<?xml version="1.0" encoding="UTF-8" standalone="no"?>
<svg xmlns="http://www.w3.org/2000/svg" xmlns:sodipodi="http://sodipodi.sourceforge.net/DTD/sodipodi-0.dtd" xmlns:inkscape="http://www.inkscape.org/namespaces/inkscape" height="580" width="580" version="1.0">
 <metadata id="metadata1976"/>
 <path id="path8070" d="m 288.7,38.913 c 6.55,0.06 3.81,-0.03 0,0 z M 145.96,67.555 c -23.62,8.671 -41.09,30.692 -41.58,56.105 -6.029,49.21 -13.386,98.33 -18.579,147.59 l 0,208.25 34.309,0 c 1.33,17.27 -3.77,36.2 5.45,51.82 14.27,21.52 53.11,11.79 53.48,-14.86 0.37,-12.31 0.1,-24.64 0.17,-36.96 l 222.96,0 c 1.33,17.27 -3.77,36.2 5.46,51.82 14.27,21.52 53.11,11.8 53.49,-14.86 0.37,-12.31 0.1,-24.64 0.17,-36.96 l 34.32,0 C 495.39,407.93 496.06,336.31 495.28,264.77 488.19,212.66 482.47,160.29 474.52,108.33 465.32,73.801 426.83,62.461 396.31,53.935 312.68,32.693 219.26,36.845 145.96,67.555 Z m 15.69,60.505 c 87.07,0.1 174.15,-0.14 261.22,0.1 20.56,-0.1 21.22,22.65 23.26,37.84 4.48,33.41 9.58,66.77 13.67,100.23 1.74,18.89 -19.24,17.87 -32.29,17.33 l -289.24,0 c -20.42,0.77 -17.01,-22 -14.38,-35.48 5.46,-35.55 8.81,-71.52 15.76,-106.77 2.78,-9.69 12.69,-13.66 22,-13.25 z" opacity="0.8" fill="none" stroke="#ffffff" stroke-linejoin="round" stroke-linecap="round" stroke-width="40"/>
 <path id="rect8097" d="m 114.09,117.02 c 118.51,0 237.01,0 355.52,0 0,105.5 0,211 0,316.5 -118.51,0 -237.01,0 -355.52,0 0,-105.5 0,-211 0,-316.5 z" opacity="0.765" stroke-opacity="0.737" fill="#ffffff" stroke-linejoin="round" stroke-linecap="round" stroke-width="11.8"/>
 <path id="rect8101" d="m 184.75,69.913 c 70.17,0 140.35,0 210.52,0 0,13.248 0,26.497 0,39.747 -70.17,0 -140.35,0 -210.52,0 0,-13.25 0,-26.499 0,-39.747 z" opacity="0.765" stroke-opacity="0.737" fill="#ffffff" stroke-linejoin="round" stroke-linecap="round" stroke-width="11.8"/>
 <path id="path2115-3" d="m 288.7,38.913 c 6.55,0.06 3.81,-0.03 0,0 z m 1.99,0.03 C 241.57,41 191.4,47.974 145.96,67.555 122.34,76.226 104.87,98.247 104.38,123.66 98.351,172.87 90.994,221.99 85.801,271.25 l 0,208.25 34.309,0 c 1.33,17.27 -3.77,36.2 5.45,51.82 14.27,21.52 53.11,11.79 53.48,-14.86 0.37,-12.31 0.1,-24.64 0.17,-36.96 l 222.96,0 c 1.33,17.27 -3.77,36.2 5.46,51.82 14.27,21.52 53.11,11.8 53.49,-14.86 0.37,-12.31 0.1,-24.64 0.17,-36.96 l 34.32,0 C 495.39,407.93 496.06,336.31 495.28,264.77 488.19,212.66 482.47,160.29 474.52,108.33 465.32,73.801 426.83,62.461 396.31,53.935 361.78,45.334 326.32,39.579 290.69,38.943 Z M 206.4,77.812 c 57.17,0.187 109.29,-1.099 166.44,-0.444 14.91,0.06 18,23.982 -2.14,24.702 -52.83,-0.19 -114.4,1.1 -167.21,0.45 -14.24,-2.525 -11.55,-25.692 2.91,-24.708 z m -44.75,50.248 c 87.07,0.1 174.15,-0.14 261.22,0.1 20.56,-0.1 21.22,22.65 23.26,37.84 4.48,33.41 9.58,66.77 13.67,100.23 1.74,18.89 -19.24,17.87 -32.29,17.33 l -289.24,0 c -20.42,0.77 -17.01,-22 -14.38,-35.48 5.46,-35.55 8.81,-71.52 15.76,-106.77 2.78,-9.69 12.69,-13.66 22,-13.25 z m -11.96,227.98 c 24.35,-1.28 38.11,32.33 20.05,48.62 -16.26,18.21 -49.79,4.17 -48.43,-20.14 -0.32,-15.27 13.08,-28.8 28.38,-28.48 z m 282.03,0 c 24.35,-1.27 38.1,32.34 20.04,48.62 -16.25,18.21 -49.78,4.17 -48.42,-20.14 -0.32,-15.27 13.08,-28.8 28.38,-28.48 z" inkscape:connector-curvature="0" sodipodi:nodetypes="cccccccccccccccccccccccccccccccccccccccccc" fill="#0092da"/>
</svg>
