<?xml version="1.0" encoding="UTF-8" standalone="no"?>
<svg xmlns="http://www.w3.org/2000/svg" xmlns:sodipodi="http://sodipodi.sourceforge.net/DTD/sodipodi-0.dtd" xmlns:inkscape="http://www.inkscape.org/namespaces/inkscape" height="580" width="580" version="1.0">
 <metadata id="metadata1976"/>
 <path d="M 538.44,290.05 C 544.54,450.86 368.85,580.11 217.18,526.95 61.846,485.23 -9.9891,279.27 85.795,150.03 171.56,13.911 389.53,6.1916 484.71,135.91 c 34.61,43.39 53.86,98.63 53.73,154.14 z" id="path8070" inkscape:connector-curvature="0" opacity="0.8" fill="none" stroke="#ffffff" stroke-linejoin="round" stroke-linecap="round" stroke-width="59.44"/>
 <path id="path3267-1" d="M 538.01,290.05 C 544.12,450.86 368.43,580.11 216.76,526.95 61.422,485.23 -10.414,279.27 85.37,150.03 171.13,13.911 389.11,6.1916 484.28,135.91 c 34.62,43.39 53.86,98.63 53.73,154.14 z" inkscape:connector-curvature="0" fill="#ffffff"/>
 <path id="path2115" d="m 289.19,94.914 c 3.87,0.05 3.91,-0.03 0,0 z m 1.47,0.02 c -40.54,2.18 -83.19,7.027 -118.87,27.757 -22.01,14.03 -18.08,42.33 -22.47,64.64 -3.83,35.34 -11.62,70.41 -9.79,106.11 0,41.7 0,83.4 0,125.1 7.86,1.05 19.92,-2.08 25.31,1.46 0.87,15.33 -4.64,37.01 13.79,43.93 22.14,8.34 33.33,-15.87 29.81,-34.13 -4,-13.11 6.25,-11.99 16.1,-11.26 49.45,0 98.9,0 148.35,0 1.05,15.75 -5.08,38.09 13.8,45.39 22.14,8.34 33.34,-15.86 29.81,-34.13 -3.99,-13.11 6.26,-11.99 16.11,-11.26 13.22,4.29 8.49,-9.36 9.2,-17.57 -0.38,-47.53 0.75,-95.16 -0.57,-142.62 -5.11,-37.46 -9.24,-75.1 -14.99,-112.44 -8.81,-29.7 -43.99,-36.33 -70.12,-42.89 -21.53,-4.555 -43.45,-7.763 -65.47,-8.087 z m -62.17,28.557 c 41.46,0 82.9,0 124.36,0 22.26,8.66 -2.29,23.51 -16.11,18.35 -36.08,0 -72.16,0 -108.25,0 -12.08,0.61 -12.07,-18.95 0,-18.35 z m -33.01,36.9 c 64.92,0.2 129.87,-0.41 194.78,0.3 17.29,3.48 13.11,24.84 16.5,37.97 2.66,22.03 7,43.93 8.5,66.05 -3.23,15.18 -21.62,8.35 -32.67,9.9 -69.35,-0.23 -138.73,0.46 -208.03,-0.36 -14.9,-5.32 -5.78,-23.97 -5.56,-35.6 4.13,-23.71 4.93,-48.27 11.55,-71.35 2.84,-5.37 9.29,-7.05 14.93,-6.91 z m -8.82,167.45 c 35.81,0 18.11,58.39 -11.7,38.27 -17.11,-10.57 -8.4,-39.05 11.7,-38.27 z m 208.02,0 c 35.81,-0.1 18.12,58.38 -11.7,38.27 -17.1,-10.57 -8.38,-39.05 11.7,-38.27 z" inkscape:connector-curvature="0" fill="#0092da"/>
 <path id="path3276" d="M 538.44,290.05 C 544.54,450.86 368.85,580.11 217.18,526.95 61.846,485.23 -9.9891,279.27 85.795,150.03 171.56,13.911 389.53,6.1916 484.71,135.91 c 34.61,43.39 53.86,98.63 53.73,154.14 z" inkscape:connector-curvature="0" fill="none" stroke="#0092da" stroke-width="21.603"/>
</svg>
