<?xml version="1.0" encoding="UTF-8" standalone="no"?>
<svg xmlns="http://www.w3.org/2000/svg" version="1.0" width="580" height="580">
 <metadata id="metadata2975"/>
 <path color-interpolation="sRGB" color-rendering="auto" color="#000000" solid-color="#000000" image-rendering="auto" solid-opacity="1" fill="none" white-space="normal" isolation="auto" color-interpolation-filters="linearRGB" mix-blend-mode="normal" shape-rendering="auto" d="m289 37.7c-.8 0-1.7.2-2.4.6l-70 38.8c-.1.1-.2.1-.3.2-2.1 1.4-3.9 4.2-3.9 6.9 0 1.8.5 4 2.1 5.6 1.6 1.6 3.8 2.1 5.6 2.1l137 0c1.8 0 3.9-.3 5.7-1.8 1.8-1.5 2.6-4 2.6-5.9l0 0c0-2.8-1.8-5.5-3.9-6.9-.1-.1-.2-.1-.3-.2L291 38c-.7-.4-1.5-.6-2.3-.6M218 167c-2.9 0-6 .8-8.2 3-2.2 2.2-3 5.3-3 8.2 0 2.9.8 5.9 3 8.2 2.2 2.2 5.3 3 8.2 3l6.4 0-46 348c-.4 2.9 1.9 5.5 4.8 5.5l213 0c2.9 0 5.2-2.6 4.8-5.5l-45.6-348 6.5 0c2.9 0 5.9-.8 8.1-3 2.2-2.2 3-5.2 3-8.2 0-2.9-.8-6-3-8.2-2.2-2.2-5.3-3-8.1-3z" id="path4143" opacity="0.8" filter-gaussianBlur-deviation="0" stroke-width="64" stroke-linejoin="round" filter-blend-mode="normal" stroke="#ffffff"/>
 <path color-interpolation="sRGB" color-rendering="auto" color="#000000" solid-color="#000000" image-rendering="auto" solid-opacity="1" fill="none" opacity="0.8" white-space="normal" isolation="auto" color-interpolation-filters="linearRGB" mix-blend-mode="normal" shape-rendering="auto" d="m40.8 82c-2.8-.1-5 2.2-5 4.9l.6 83c0 2.9 2.6 5.2 5.5 4.8l197-24.6c2.4-.3 4.3-2.4 4.3-4.8l0-33.7c0-2.5-1.8-4.5-4.3-4.8L41 82c-.2 0-.3 0-.5 0m498 0c-.2 0-.3 0-.5 0L342 107c-2.4.3-4.3 2.4-4.3 4.8l0 33c0 2.4 1.8 4.5 4.3 4.8l197 25c2.9.4 5.5-1.9 5.5-4.8l0-83c0-2.7-2.3-4.9-5-4.9" id="path4145" filter-gaussianBlur-deviation="0" stroke-width="64" stroke-linejoin="round" filter-blend-mode="normal" stroke="#ffffff"/>
 <path id="path3186-1" d="M238 112L40.7 86 41 170 238 145l0-33.7zm104 33l197 25 0-83-197 25 0 33z" fill="#ffffff" stroke="#ffffff" stroke-linejoin="round" stroke-width="10"/>
 <path d="m289 37.7c-.8 0-1.7.2-2.4.6l-70 38.8c-.1.1-.2.1-.3.2-2.1 1.4-3.9 4.2-3.9 6.9 0 1.8.5 4 2.1 5.6 1.6 1.6 3.8 2.1 5.6 2.1l137 0c1.8 0 3.9-.3 5.7-1.8 1.8-1.5 2.6-4 2.6-5.9l0 0c0-2.8-1.8-5.5-3.9-6.9-.1-.1-.2-.1-.3-.2L291 38c-.7-.4-1.5-.6-2.3-.6M218 167c-2.9 0-6 .8-8.2 3-2.2 2.2-3 5.3-3 8.2 0 2.9.8 5.9 3 8.2 2.2 2.2 5.3 3 8.2 3l6.4 0-46 348c-.4 2.9 1.9 5.5 4.8 5.5l213 0c2.9 0 5.2-2.6 4.8-5.5l-45.6-348 6.5 0c2.9 0 5.9-.8 8.1-3 2.2-2.2 3-5.2 3-8.2 0-2.9-.8-6-3-8.2-2.2-2.2-5.3-3-8.1-3z" id="flowRoot3192" shape-rendering="auto" mix-blend-mode="normal" color-interpolation-filters="linearRGB" isolation="auto" white-space="normal" fill="#0092da" solid-opacity="1" image-rendering="auto" solid-color="#000000" color="#000000" color-rendering="auto" color-interpolation="sRGB"/>
 <path d="m40.8 82c-2.8-.1-5 2.2-5 4.9l.6 83c0 2.9 2.6 5.2 5.5 4.8l197-24.6c2.4-.3 4.3-2.4 4.3-4.8l0-33.7c0-2.5-1.8-4.5-4.3-4.8L41 82c-.2 0-.3 0-.5 0m498 0c-.2 0-.3 0-.5 0L342 107c-2.4.3-4.3 2.4-4.3 4.8l0 33c0 2.4 1.8 4.5 4.3 4.8l197 25c2.9.4 5.5-1.9 5.5-4.8l0-83c0-2.7-2.3-4.9-5-4.9" id="path3186" shape-rendering="auto" mix-blend-mode="normal" color-interpolation-filters="linearRGB" isolation="auto" white-space="normal" opacity="0.5" fill="#0092da" solid-opacity="1" image-rendering="auto" solid-color="#000000" color="#000000" color-rendering="auto" color-interpolation="sRGB"/>
 <ellipse cy="129" cx="290" id="path3188" rx="31" ry="31" fill="#0092da" stroke="#0092da" stroke-linejoin="round" stroke-linecap="round" stroke-width="8.7"/>
 <path d="M238 112L40.7 86 41 170 238 145l0-33.7zm104 33l197 25 0-83-197 25 0 33z" id="path4149" fill="#ffffff" stroke="#ffffff" stroke-linejoin="round" stroke-width="10"/>
 <path id="path4151" d="m289 37.7c-.8 0-1.7.2-2.4.6l-70 38.8c-.1.1-.2.1-.3.2-2.1 1.4-3.9 4.2-3.9 6.9 0 1.8.5 4 2.1 5.6 1.6 1.6 3.8 2.1 5.6 2.1l137 0c1.8 0 3.9-.3 5.7-1.8 1.8-1.5 2.6-4 2.6-5.9l0 0c0-2.8-1.8-5.5-3.9-6.9-.1-.1-.2-.1-.3-.2L291 38c-.7-.4-1.5-.6-2.3-.6M218 167c-2.9 0-6 .8-8.2 3-2.2 2.2-3 5.3-3 8.2 0 2.9.8 5.9 3 8.2 2.2 2.2 5.3 3 8.2 3l6.4 0-46 348c-.4 2.9 1.9 5.5 4.8 5.5l213 0c2.9 0 5.2-2.6 4.8-5.5l-45.6-348 6.5 0c2.9 0 5.9-.8 8.1-3 2.2-2.2 3-5.2 3-8.2 0-2.9-.8-6-3-8.2-2.2-2.2-5.3-3-8.1-3z" shape-rendering="auto" mix-blend-mode="normal" color-interpolation-filters="linearRGB" isolation="auto" white-space="normal" fill="#0092da" solid-opacity="1" image-rendering="auto" solid-color="#000000" color="#000000" color-rendering="auto" color-interpolation="sRGB"/>
 <path id="path4153" d="m40.8 82c-2.8-.1-5 2.2-5 4.9l.6 83c0 2.9 2.6 5.2 5.5 4.8l197-24.6c2.4-.3 4.3-2.4 4.3-4.8l0-33.7c0-2.5-1.8-4.5-4.3-4.8L41 82c-.2 0-.3 0-.5 0m498 0c-.2 0-.3 0-.5 0L342 107c-2.4.3-4.3 2.4-4.3 4.8l0 33c0 2.4 1.8 4.5 4.3 4.8l197 25c2.9.4 5.5-1.9 5.5-4.8l0-83c0-2.7-2.3-4.9-5-4.9" shape-rendering="auto" mix-blend-mode="normal" color-interpolation-filters="linearRGB" isolation="auto" white-space="normal" opacity="0.5" fill="#0092da" solid-opacity="1" image-rendering="auto" solid-color="#000000" color="#000000" color-rendering="auto" color-interpolation="sRGB"/>
 <path d="m290 93c-19.5 0-35.5 15.9-35.5 35.5 0 19.5 15.9 35.5 35.5 35.5 19.5 0 35.5-15.9 35.5-35.5 0-19.5-15.9-35.5-35.5-35.5m0 8.5c15 0 27 12 27 27 0 15-12 27-27 27-15 0-27-12-27-27 0-15 12-27 27-27" id="path4155" shape-rendering="auto" mix-blend-mode="normal" color-interpolation-filters="linearRGB" isolation="auto" white-space="normal" fill="#0092da" solid-opacity="1" image-rendering="auto" solid-color="#000000" color="#000000" color-rendering="auto" color-interpolation="sRGB"/>
</svg>
