<?xml version="1.0" encoding="UTF-8" standalone="no"?>
<svg xmlns="http://www.w3.org/2000/svg" version="1.0" width="580" height="580">
 <metadata id="metadata10"/>
 <path id="path4193" d="M 154 123 C 151.4 123 148.8 124.00039 147 125.90039 C 145.2 127.70039 144.09961 130.30039 144.09961 132.90039 L 144.09961 152.40039 L 174.80078 152.40039 L 174.80078 188.5 L 211.19922 188.5 L 211.19922 152.09961 L 174.80078 152.09961 L 174.80078 123 L 154 123 z M 212 123 L 212 151 L 248.40039 151 L 248.40039 123 L 212 123 z M 286.09961 123 L 286 150.30078 L 322.40039 150.30078 L 322.40039 123.80078 C 313.20039 123.30078 302.90039 123 291.40039 123 L 286.09961 123 z M 362.19922 129.55078 L 362.09961 148.90039 L 398.5 148.90039 L 398.5 146.09961 C 398.1 145.79961 397.70078 145.50078 397.30078 145.30078 C 387.30078 138.30078 375.39922 133.10078 362.19922 129.55078 z M 398.84961 148.19922 L 398.90039 184.5 L 429.90039 184.5 C 429.90039 184.4 429.80078 184.40078 429.80078 184.30078 C 422.50078 169.50078 412.89961 157.30078 401.09961 148.30078 L 398.84961 148.19922 z M 248.80078 149.90039 L 248.80078 185.90039 L 285.19922 185.90039 L 285.19922 149.90039 L 248.80078 149.90039 z M 323.80078 150 L 323.80078 186.40039 L 360.19922 186.40039 L 360.19922 150 L 323.80078 150 z M 398.19922 185.40039 L 361.80078 185.44922 L 361.80078 205.5 C 362.00078 205.8 362.20039 206.00078 362.40039 206.30078 C 365.70039 211.00078 368.20078 216.10078 369.80078 221.80078 L 398.19922 221.80078 L 398.19922 185.40039 z M 144 188 L 144 224.40039 L 174.69922 224.40039 L 174.69922 188 L 144 188 z M 435 195.09961 L 435 220 L 399 220 L 399 256.40039 L 435.40039 256.40039 L 435.40039 221 L 441.09961 221 C 439.99961 212 438 203.39961 435 195.09961 z M 176 223.90039 L 176 260.30078 L 212.40039 260.30078 L 212.40039 223.90039 L 176 223.90039 z M 371.09961 257.40039 C 369.29961 263.80039 366.60078 269.39961 362.80078 274.09961 L 362.80078 293.80078 L 399 293.80078 L 399 293 L 399.19922 293 L 399.19922 257.40039 L 371.09961 257.40039 z M 399.19922 293 L 399.19922 293.80078 L 399 293.80078 L 399 329.40039 L 403.19922 329.40039 C 405.59922 327.30039 407.8 325.20039 410 322.90039 C 418.4 313.80039 425 303.9 430 293 L 399.19922 293 z M 436.19922 257.5 L 436.19922 281.09961 C 438.79922 273.49961 440.70039 265.7 441.90039 257.5 L 436.19922 257.5 z M 144 261 L 144 297.40039 L 174.69922 297.40039 L 174.69922 261 L 144 261 z M 323 293.69922 C 318.2 294.39922 313.1 295.00078 307.5 295.30078 L 323 295.30078 L 323 293.69922 z M 324.69922 294.80078 L 324.69922 331.19922 L 361.09961 331.19922 L 361.09961 294.80078 L 324.69922 294.80078 z M 212.69922 295.59961 L 212.69922 296.09961 L 249.09961 296.09961 L 249.09961 295.59961 L 212.69922 295.59961 z M 249.69922 295.59961 L 249.69922 331.09961 L 286.09961 331.09961 L 286.09961 295.59961 L 249.69922 295.59961 z M 175.69922 296.90039 L 175.69922 333.30078 L 212.09961 333.30078 L 212.09961 296.90039 L 175.69922 296.90039 z M 362.69922 330.40039 L 362.69922 350.40039 C 376.89922 346.30039 389.09961 340.6 399.09961 333 L 399.09961 330.40039 L 362.69922 330.40039 z M 323.19922 331.59961 L 286.80078 331.65039 L 286.80078 358.19922 L 296.19922 358.19922 C 305.69922 358.19922 314.69922 357.79961 323.19922 357.09961 L 323.19922 331.59961 z M 212.80078 332.40039 L 212.80078 358.19922 L 249.19922 358.19922 L 249.19922 332.40039 L 212.80078 332.40039 z M 144 334 L 144 370.40039 L 174.69922 370.40039 L 174.69922 334 L 144 334 z M 175 370 L 175 406.40039 L 211.40039 406.40039 L 211.40039 370 L 175 370 z M 144 407 L 144 443.40039 L 174.69922 443.40039 L 174.69922 407 L 144 407 z M 175 442.90039 L 175 479.30078 L 211.40039 479.30078 L 211.40039 442.90039 L 175 442.90039 z M 144 480 L 144 497 C 144 499.6 145.10039 502.1 146.90039 504 C 148.70039 505.8 151.30039 506.90039 153.90039 506.90039 L 174.69922 506.90039 L 174.69922 480 L 144 480 z " mix-blend-mode="normal" solid-color="#000000" opacity="0.8" color-interpolation-filters="linearRGB" filter-gaussianBlur-deviation="0" color="#000000" image-rendering="auto" color-rendering="auto" stroke-width="64" isolation="auto" color-interpolation="sRGB" solid-opacity="1" fill="none" stroke-linejoin="round" filter-blend-mode="normal" stroke="#ffffff" shape-rendering="auto"/>
 <path d="M 154 123 C 151.4 123 148.8 124.00039 147 125.90039 C 145.2 127.70039 144.09961 130.30039 144.09961 132.90039 L 144.09961 152.40039 L 174.80078 152.40039 L 174.80078 188.5 L 211.19922 188.5 L 211.19922 152.09961 L 174.80078 152.09961 L 174.80078 123 L 154 123 z M 212 123 L 212 151 L 248.40039 151 L 248.40039 123 L 212 123 z M 286.09961 123 L 286 150.30078 L 322.40039 150.30078 L 322.40039 123.80078 C 313.20039 123.30078 302.90039 123 291.40039 123 L 286.09961 123 z M 362.19922 129.55078 L 362.09961 148.90039 L 398.5 148.90039 L 398.5 146.09961 C 398.1 145.79961 397.70078 145.50078 397.30078 145.30078 C 387.30078 138.30078 375.39922 133.10078 362.19922 129.55078 z M 398.84961 148.19922 L 398.90039 184.5 L 429.90039 184.5 C 429.90039 184.4 429.80078 184.40078 429.80078 184.30078 C 422.50078 169.50078 412.89961 157.30078 401.09961 148.30078 L 398.84961 148.19922 z M 248.80078 149.90039 L 248.80078 185.90039 L 285.19922 185.90039 L 285.19922 149.90039 L 248.80078 149.90039 z M 323.80078 150 L 323.80078 186.40039 L 360.19922 186.40039 L 360.19922 150 L 323.80078 150 z M 398.19922 185.40039 L 361.80078 185.44922 L 361.80078 205.5 C 362.00078 205.8 362.20039 206.00078 362.40039 206.30078 C 365.70039 211.00078 368.20078 216.10078 369.80078 221.80078 L 398.19922 221.80078 L 398.19922 185.40039 z M 144 188 L 144 224.40039 L 174.69922 224.40039 L 174.69922 188 L 144 188 z M 435 195.09961 L 435 220 L 399 220 L 399 256.40039 L 435.40039 256.40039 L 435.40039 221 L 441.09961 221 C 439.99961 212 438 203.39961 435 195.09961 z M 176 223.90039 L 176 260.30078 L 212.40039 260.30078 L 212.40039 223.90039 L 176 223.90039 z M 371.09961 257.40039 C 369.29961 263.80039 366.60078 269.39961 362.80078 274.09961 L 362.80078 293.80078 L 399 293.80078 L 399 293 L 399.19922 293 L 399.19922 257.40039 L 371.09961 257.40039 z M 399.19922 293 L 399.19922 293.80078 L 399 293.80078 L 399 329.40039 L 403.19922 329.40039 C 405.59922 327.30039 407.8 325.20039 410 322.90039 C 418.4 313.80039 425 303.9 430 293 L 399.19922 293 z M 436.19922 257.5 L 436.19922 281.09961 C 438.79922 273.49961 440.70039 265.7 441.90039 257.5 L 436.19922 257.5 z M 144 261 L 144 297.40039 L 174.69922 297.40039 L 174.69922 261 L 144 261 z M 323 293.69922 C 318.2 294.39922 313.1 295.00078 307.5 295.30078 L 323 295.30078 L 323 293.69922 z M 324.69922 294.80078 L 324.69922 331.19922 L 361.09961 331.19922 L 361.09961 294.80078 L 324.69922 294.80078 z M 212.69922 295.59961 L 212.69922 296.09961 L 249.09961 296.09961 L 249.09961 295.59961 L 212.69922 295.59961 z M 249.69922 295.59961 L 249.69922 331.09961 L 286.09961 331.09961 L 286.09961 295.59961 L 249.69922 295.59961 z M 175.69922 296.90039 L 175.69922 333.30078 L 212.09961 333.30078 L 212.09961 296.90039 L 175.69922 296.90039 z M 362.69922 330.40039 L 362.69922 350.40039 C 376.89922 346.30039 389.09961 340.6 399.09961 333 L 399.09961 330.40039 L 362.69922 330.40039 z M 323.19922 331.59961 L 286.80078 331.65039 L 286.80078 358.19922 L 296.19922 358.19922 C 305.69922 358.19922 314.69922 357.79961 323.19922 357.09961 L 323.19922 331.59961 z M 212.80078 332.40039 L 212.80078 358.19922 L 249.19922 358.19922 L 249.19922 332.40039 L 212.80078 332.40039 z M 144 334 L 144 370.40039 L 174.69922 370.40039 L 174.69922 334 L 144 334 z M 175 370 L 175 406.40039 L 211.40039 406.40039 L 211.40039 370 L 175 370 z M 144 407 L 144 443.40039 L 174.69922 443.40039 L 174.69922 407 L 144 407 z M 175 442.90039 L 175 479.30078 L 211.40039 479.30078 L 211.40039 442.90039 L 175 442.90039 z M 144 480 L 144 497 C 144 499.6 145.10039 502.1 146.90039 504 C 148.70039 505.8 151.30039 506.90039 153.90039 506.90039 L 174.69922 506.90039 L 174.69922 480 L 144 480 z " id="path4190" opacity="0.8" fill="#0092da" color="#000000"/>
</svg>
