<?xml version="1.0" encoding="UTF-8" standalone="no"?>
<svg xmlns="http://www.w3.org/2000/svg" version="1.0" width="580" height="580">
 <metadata id="metadata10"/>
 <path id="path4137" d="m 350.2,236.8 -1.6,22 36,0.1 c 15.7,3.2 -8.7,10.7 -11,19 -1.6,9.4 2.4,17.9 4.4,25.6 l -164,0.8 -9.7,-23.7 c 10.4,-2.4 35.8,-8.4 39,-11.8 4.1,-3.8 0,-9.4 -3.2,-9.4 l -85,0 c 1.1,18.8 15.8,22.9 23.8,24 l 9.4,23 c -10.7,20 -21,37 -31,56 -83,-24 -122,38.6 -123,84 0,50 40,90 90,90 46.6,0 85,-35.7 90,-81 l 21.5,0 c 2.4,4.4 6.4,8 11.3,10.3 l -9,21 -16.2,0.1 c -9,1.2 -6.7,12.4 0.1,12.5 l 36,-0.3 c 9.2,-1.1 6.8,-12.5 -0.1,-12.5 l -10.3,0.1 7.9,-18.4 c 23,1.9 31.7,-15.6 29,-27.5 l 112,-76 c 1,3.4 1.9,6.7 2.9,9.9 -20.5,16.5 -33.7,41.8 -33.7,70 0,50 40,90 90,90 50,0 90,-40 90,-90 -3,-57 -47.9,-104 -124,-83 -10,-23.9 -21.9,-61 -22.9,-75 1.7,-9.7 16,-10.5 18.4,-23 -1.7,-23.9 -21.3,-27.7 -41.1,-27.6 -9.1,0 -18.3,0.8 -25.9,0.8 z m 39.6,107.2 -0.1,0 c -37.6,26.9 -75,53.9 -114,79 l 7.7,-17.6 c 7.2,-0.2 6.6,-0.1 15,-0.6 9.2,-1.7 6,-12.4 0.1,-12.4 l -36,0.3 c -9.2,1.1 -6.8,12.5 0.1,12.5 l 10.3,-0.1 -7.7,17.9 c -0.7,-0.2 -1.5,-0.3 -2.2,-0.4 l -39.9,-98 c 37,0 104,-0.2 160.95,-0.4 1.75,6.1 3.65,12.8 5.75,19.8 z m -149.7,86.4 c -1.4,1.4 -2.6,3 -3.6,4.7 l -22,0 c -3.4,-25.7 -17.4,-47.7 -37,-61.7 l 22.7,-42 z M 520.3,445 c 0.1,35.7 -28.6,64 -63.9,64 l 0.2,0.4 c -58.8,-3.1 -81,-59 -48,-107 4.2,15.2 11,31.5 22,41.6 l 0.1,0.1 0.1,0.1 c 32.5,29.6 53,5.1 15.3,-18.2 -8,-11.2 -12.5,-25 -16.8,-39 10.6,-4.9 20.5,-7 29.9,-6.9 36.1,0.2 60.1,33.8 61.1,64.9 z m -373.2,-58.5 -29,53.9 c -3.7,6.8 1.3,15 9,15 l 62.8,0 c -4.3,31.5 -31,56 -63.8,56 -35.7,0 -64,-28.6 -64,-64 -0.1,-35 23.4,-64 62,-64.1 7.2,-0.1 14.8,1 23,3.2 z m 41.6,49.3 -44.9,0 21,-39 c 12.3,9.5 21,23.3 23.9,39 z" mix-blend-mode="normal" solid-color="#000000" opacity="0.8" color-interpolation-filters="linearRGB" filter-gaussianBlur-deviation="0" color="#000000" image-rendering="auto" color-rendering="auto" stroke-width="64" isolation="auto" color-interpolation="sRGB" solid-opacity="1" fill="none" stroke-linejoin="round" filter-blend-mode="normal" stroke="#ffffff" shape-rendering="auto"/>
 <path id="path4139" d="m 125,144.6 c 8,37.5 45.9,68 85,62 24.7,-2.4 47.9,-17 61,-38 11.7,-5.5 26.3,3.4 37,-5.5 8.4,-5.3 14.3,-22 24.8,-18.9 5.9,4 10,14.8 18.4,13 8.6,-4 15.7,-22.6 24,-7.9 4.2,5.2 12.7,13 18.6,5.2 7.1,-11.5 17,-15 24.5,-1.8 5.4,7 12.8,5.5 19.5,-1.2 8.5,-8.9 18.6,-17.6 23.8,-28.9 C 461,111 453,106 444,98 429,83 416,87 402,87 358,86 311,88 271,86 253,60 232,46 201,46.6 c -48,-0.8 -88,51 -76,98 z m 48,-37 c 17.3,1.6 24.9,29 8.6,38 -13.7,8.7 -35,-2.8 -31.6,-19.9 2.8,-13 12.6,-19 23,-18 z" mix-blend-mode="normal" solid-color="#000000" opacity="0.8" color-interpolation-filters="linearRGB" filter-gaussianBlur-deviation="0" color="#000000" image-rendering="auto" color-rendering="auto" stroke-width="64" isolation="auto" color-interpolation="sRGB" solid-opacity="1" fill="none" stroke-linejoin="round" filter-blend-mode="normal" stroke="#ffffff" shape-rendering="auto"/>
 <path d="m 350.2,236.8 -1.6,22 36,0.1 c 15.7,3.2 -8.7,10.7 -11,19 -1.6,9.4 2.4,17.9 4.4,25.6 l -164,0.8 -9.7,-23.7 c 10.4,-2.4 35.8,-8.4 39,-11.8 4.1,-3.8 0,-9.4 -3.2,-9.4 l -85,0 c 1.1,18.8 15.8,22.9 23.8,24 l 9.4,23 c -10.7,20 -21,37 -31,56 -83,-24 -122,38.6 -123,84 0,50 40,90 90,90 46.6,0 85,-35.7 90,-81 l 21.5,0 c 2.4,4.4 6.4,8 11.3,10.3 l -9,21 -16.2,0.1 c -9,1.2 -6.7,12.4 0.1,12.5 l 36,-0.3 c 9.2,-1.1 6.8,-12.5 -0.1,-12.5 l -10.3,0.1 7.9,-18.4 c 23,1.9 31.7,-15.6 29,-27.5 l 112,-76 c 1,3.4 1.9,6.7 2.9,9.9 -20.5,16.5 -33.7,41.8 -33.7,70 0,50 40,90 90,90 50,0 90,-40 90,-90 -3,-57 -47.9,-104 -124,-83 -10,-23.9 -21.9,-61 -22.9,-75 1.7,-9.7 16,-10.5 18.4,-23 -1.7,-23.9 -21.3,-27.7 -41.1,-27.6 -9.1,0 -18.3,0.8 -25.9,0.8 z m 39.6,107.2 -0.1,0 c -37.6,26.9 -75,53.9 -114,79 l 7.7,-17.6 c 7.2,-0.2 6.6,-0.1 15,-0.6 9.2,-1.7 6,-12.4 0.1,-12.4 l -36,0.3 c -9.2,1.1 -6.8,12.5 0.1,12.5 l 10.3,-0.1 -7.7,17.9 c -0.7,-0.2 -1.5,-0.3 -2.2,-0.4 l -39.9,-98 c 37,0 104,-0.2 160.95,-0.4 1.75,6.1 3.65,12.8 5.75,19.8 z m -149.7,86.4 c -1.4,1.4 -2.6,3 -3.6,4.7 l -22,0 c -3.4,-25.7 -17.4,-47.7 -37,-61.7 l 22.7,-42 z M 520.3,445 c 0.1,35.7 -28.6,64 -63.9,64 l 0.2,0.4 c -58.8,-3.1 -81,-59 -48,-107 4.2,15.2 11,31.5 22,41.6 l 0.1,0.1 0.1,0.1 c 32.5,29.6 53,5.1 15.3,-18.2 -8,-11.2 -12.5,-25 -16.8,-39 10.6,-4.9 20.5,-7 29.9,-6.9 36.1,0.2 60.1,33.8 61.1,64.9 z m -373.2,-58.5 -29,53.9 c -3.7,6.8 1.3,15 9,15 l 62.8,0 c -4.3,31.5 -31,56 -63.8,56 -35.7,0 -64,-28.6 -64,-64 -0.1,-35 23.4,-64 62,-64.1 7.2,-0.1 14.8,1 23,3.2 z m 41.6,49.3 -44.9,0 21,-39 c 12.3,9.5 21,23.3 23.9,39 z" id="path596-0" fill="#0092da"/>
 <path d="m 125,144.6 c 8,37.5 45.9,68 85,62 24.7,-2.4 47.9,-17 61,-38 11.7,-5.5 26.3,3.4 37,-5.5 8.4,-5.3 14.3,-22 24.8,-18.9 5.9,4 10,14.8 18.4,13 8.6,-4 15.7,-22.6 24,-7.9 4.2,5.2 12.7,13 18.6,5.2 7.1,-11.5 17,-15 24.5,-1.8 5.4,7 12.8,5.5 19.5,-1.2 8.5,-8.9 18.6,-17.6 23.8,-28.9 C 461,111 453,106 444,98 429,83 416,87 402,87 358,86 311,88 271,86 253,60 232,46 201,46.6 c -48,-0.8 -88,51 -76,98 z m 48,-37 c 17.3,1.6 24.9,29 8.6,38 -13.7,8.7 -35,-2.8 -31.6,-19.9 2.8,-13 12.6,-19 23,-18 z" id="path2307" fill="#0092da"/>
</svg>
