<?xml version="1.0" encoding="UTF-8" standalone="no"?>
<svg xmlns="http://www.w3.org/2000/svg" xmlns:sodipodi="http://sodipodi.sourceforge.net/DTD/sodipodi-0.dtd" xmlns:inkscape="http://www.inkscape.org/namespaces/inkscape" height="580" width="580" version="1.0">
 <metadata id="metadata1976"/>
 <path d="M 541.03,290.07 C 547.2,452.58 369.67,583.19 216.39,529.47 59.43,487.31 -13.161,279.18 83.631,148.58 170.3,11.03 390.56,3.2299 486.74,134.31 c 34.98,43.85 54.43,99.68 54.29,155.76 z" id="path8069" inkscape:connector-curvature="0" opacity="0.8" fill="none" stroke="#ffffff" stroke-linejoin="round" stroke-linecap="round" stroke-width="58.69"/>
 <path id="path3276" d="M 541.03,290.07 C 547.2,452.58 369.67,583.19 216.39,529.47 59.43,487.31 -13.161,279.18 83.631,148.58 170.3,11.03 390.56,3.2299 486.74,134.31 c 34.98,43.85 54.43,99.68 54.29,155.76 z" inkscape:connector-curvature="0" fill="#bfe3f5" stroke="#0092da" stroke-width="21.831"/>
 <path id="path3578" d="m 290.26,102.7 c -27.67,0.36 -55.41,-0.71 -83.03,0.7 -28.45,3.04 -53.27,29.43 -50.13,58.7 0.17,65.25 -0.35,130.51 0.26,195.74 2.51,23.42 22.2,43.68 45.36,47.43 -22.86,31.76 -45.73,63.51 -68.59,95.27 13.19,0 26.4,0 39.59,0 16.36,-22.2 32.7,-44.4 49.05,-66.6 44.83,0 89.67,0 134.51,0 16.35,22.2 32.69,44.4 49.04,66.6 13.19,0 26.4,0 39.6,0 -22.87,-31.76 -45.74,-63.51 -68.6,-95.27 27.55,-4.27 48.75,-31.73 45.65,-59.5 -0.19,-64.97 0.39,-129.96 -0.29,-194.91 -3.39,-30.96 -35.77,-51.048 -65.33,-48.12 -22.37,-0 -44.72,-0 -67.09,-0 z m -29.16,11.41 c 20.5,0.45 41.17,-0.9 61.57,0.71 9.29,4.43 5.08,15.69 6.03,23.82 -1.78,12.41 -16.12,8.25 -24.93,8.98 -15.48,-0.41 -31.13,0.88 -46.5,-0.72 -9.17,-4.55 -4.97,-15.77 -5.93,-23.91 0,-5.06 4.93,-8.96 9.76,-8.88 z m -42.49,44.13 c 48.76,0.1 97.53,-0.19 146.29,0.15 16.72,0.16 28.53,16.56 26.13,32.47 -0.75,13.94 1.91,28.38 -2.26,41.84 -6.79,16.1 -25.6,16.69 -40.54,16.01 -44.24,-0.1 -88.49,0.16 -132.73,-0.12 -16.7,-0.21 -29.25,-16.21 -26.63,-32.41 0.91,-14.42 -2.36,-29.57 2.98,-43.28 4.82,-9.98 16.08,-14.92 26.76,-14.66 z m -3.24,169.99 c 18.86,-1.48 34.13,22.12 21.67,37.67 -12.24,18.31 -45.53,11.55 -47.63,-11.04 -1.91,-14.6 11.84,-27.09 25.96,-26.63 z m 148.62,0 c 18.86,-1.47 34.08,22.13 21.64,37.67 -12.22,18.31 -45.51,11.55 -47.6,-11.04 -1.92,-14.61 11.85,-27.1 25.96,-26.63 z" inkscape:connector-curvature="0" fill="#0092d9"/>
</svg>
