<?xml version="1.0" encoding="UTF-8" standalone="no"?>
<svg xmlns="http://www.w3.org/2000/svg" xmlns:sodipodi="http://sodipodi.sourceforge.net/DTD/sodipodi-0.dtd" xmlns:inkscape="http://www.inkscape.org/namespaces/inkscape" version="1.0" width="580" height="580">
 <metadata id="metadata2975"/>
 <path d="M 333.08 36.035 C 291.62 63.341 250.17 90.647 208.71 117.95 C 247.66 143.56 286.59 169.15 325.53 194.76 L 235.14 194.76 C 230.57 200.14 226.94 207.52 218.69 205.03 L 131.77 205.03 C 131.29 214.94 133.08 225.99 131.21 235.19 C 109.4 278.61 87.585 322.03 65.77 365.45 C 65.897 392.88 65.515 420.34 65.965 447.76 C 69.327 465.85 88.265 476.98 105.83 474.35 L 509.04 474.35 L 509.04 205.03 L 437.68 205.03 C 432.61 200.55 429.09 192.45 421.12 194.76 L 340.61 194.76 C 378.66 169.13 416.69 143.51 454.74 117.89 C 414.18 90.605 373.63 63.319 333.08 36.035 z M 149.86 235.82 L 190.14 235.82 C 190.14 279.92 190.04 324.03 190.01 368.13 C 169.55 367.7 148.93 369.02 128.57 367.4 C 106.03 361.6 98.845 332.25 111.29 314.21 C 124.14 288.08 137 261.95 149.86 235.82 z M 222.69 235.82 L 222.73 235.82 L 272.29 235.82 C 284.37 240.69 286.78 252.36 285.32 263.86 C 285.32 321.7 285.22 379.54 285.22 437.38 C 282.49 449.34 270.52 456.66 258.72 454.31 L 224.3 454.31 C 212.93 448.49 208.13 436.98 210 424.82 C 210 366.22 209.9 307.63 209.9 249.04 C 211.1 242.6 218.11 239.56 222.69 235.82 z M 318.87 235.82 L 318.89 235.82 L 482.43 235.82 C 494.38 240.62 496.33 252.29 495 263.54 C 495 292.79 494.9 322.03 494.9 351.28 C 492.28 363.23 480.33 370.32 468.65 368 L 320.9 368 C 310.26 361.76 303.38 352.38 305.56 340.12 C 305.66 309.69 305.69 279.25 305.75 248.82 C 307.32 242.54 314.29 239.6 318.87 235.82 z M 338.05 491.63 C 336.82 491.57 335.36 491.74 333.62 492.18 L 275.25 492.18 C 280.1 503.84 258.42 526.81 278.25 522.56 L 349.53 522.56 C 340.19 514.18 349.94 492.19 338.05 491.63 z M 160.42 491.72 C 158.87 517.8 180.52 542.29 206.91 542.42 C 233.37 544.79 258.08 522.1 257.56 495.42 C 256.4 488.93 243.57 493.78 237.35 492.2 C 211.71 492.04 186.06 491.88 160.42 491.72 z M 360.92 491.72 C 359.23 518.68 382.5 543.56 409.69 542.47 C 435.43 543.63 458.5 521.21 458.07 495.42 C 456.91 488.93 444.08 493.78 437.86 492.2 C 412.21 492.04 386.57 491.88 360.92 491.72 z " id="path8407" opacity="0.8" fill="none" stroke="#ffffff" stroke-linecap="round" stroke-width="40"/>
 <path id="path30859" d="m 208.71,117.95 c 41.46,-27.302 82.91,-54.608 124.37,-81.914 40.55,27.284 81.1,54.568 121.66,81.854 -40.53,27.29 -81.05,54.59 -121.58,81.89 C 291.68,172.5 250.2,145.23 208.71,117.95 Z" fill="none" stroke="#0092d9" stroke-width="16"/>
 <path d="m 235.14,194.76 c -4.57,5.38 -8.2,12.76 -16.45,10.27 -28.97,0 -57.95,0 -86.92,0 -0.48,9.91 1.31,20.96 -0.56,30.16 -21.81,43.42 -43.625,86.84 -65.44,130.26 0.127,27.43 -0.256,54.89 0.194,82.31 3.362,18.09 22.301,29.22 39.866,26.59 134.41,0 268.81,0 403.21,0 0,-89.77 0,-179.55 0,-269.32 -23.79,0 -47.57,0 -71.36,0 -5.07,-4.48 -8.59,-12.58 -16.56,-10.27 -61.99,0 -123.99,0 -185.98,0 z m -85.28,41.06 c 13.43,0 26.85,0 40.28,0 -0,44.1 -0.1,88.21 -0.13,132.31 -20.46,-0.43 -41.08,0.89 -61.44,-0.73 -22.54,-5.8 -29.724,-35.15 -17.28,-53.19 12.85,-26.13 25.71,-52.26 38.57,-78.39 z m 72.87,0 c 16.52,0 33.04,0 49.56,0 12.08,4.87 14.49,16.54 13.03,28.04 -0,57.84 -0.1,115.68 -0.1,173.52 -2.73,11.96 -14.7,19.28 -26.5,16.93 -11.48,0 -22.95,0 -34.42,0 -11.37,-5.82 -16.17,-17.33 -14.3,-29.49 -0,-58.6 -0.1,-117.19 -0.1,-175.78 1.2,-6.44 8.21,-9.48 12.79,-13.22 z m 96.16,0 c 54.51,0 109.03,0 163.54,0 11.95,4.8 13.9,16.47 12.57,27.72 -0,29.25 -0.1,58.49 -0.1,87.74 -2.62,11.95 -14.57,19.04 -26.25,16.72 -49.25,0 -98.5,0 -147.75,0 -10.64,-6.24 -17.52,-15.62 -15.34,-27.88 0.1,-30.43 0.13,-60.87 0.19,-91.3 1.57,-6.28 8.54,-9.22 13.12,-13 z m 42.03,255.9 c -1.69,26.96 21.58,51.84 48.77,50.75 25.74,1.16 48.81,-21.26 48.38,-47.05 -1.16,-6.49 -13.99,-1.64 -20.21,-3.22 -25.65,-0.16 -51.29,-0.32 -76.94,-0.48 z m -200.5,0 c -1.55,26.08 20.1,50.57 46.49,50.7 26.46,2.37 51.17,-20.32 50.65,-47 -1.16,-6.49 -13.99,-1.64 -20.21,-3.22 -25.64,-0.16 -51.29,-0.32 -76.93,-0.48 z m 114.83,0.46 c 4.85,11.66 -16.83,34.63 3,30.38 23.76,0 47.52,0 71.28,0 -10.3,-9.25 2.63,-35.06 -15.91,-30.38 -19.46,0 -38.91,0 -58.37,0 z" id="path29926" fill="#0092d9"/>
</svg>
