<?xml version="1.0" encoding="UTF-8" standalone="no"?>
<svg xmlns="http://www.w3.org/2000/svg" version="1.0" width="580" height="580">
 <metadata id="metadata2975"/>
 <path id="path4140" d="M 272.58789 49.798828 C 269.5625 49.85 266.375 50.175781 263 50.800781 C 240 55.700781 226 76.800781 215 95.800781 C 203 117.10078 187.10078 135.39961 168.30078 150.59961 C 126.30078 216.39961 120.29922 287.59961 128.69922 357.59961 C 113.09922 363.99961 89.799609 340.89961 75.099609 359.59961 C 61.199609 382.39961 80.399609 406.59961 93.099609 425.59961 C 104.09961 447.49961 123.49961 453.19961 146.09961 449.59961 C 200.89961 451.69961 256.09961 462.10039 310.09961 453.40039 C 371.09961 449.50039 430.09961 431.80039 463.09961 376.40039 C 483.69961 351.70039 520.09961 341.60039 532.09961 309.40039 C 540.39961 277.60039 516.49922 240.59961 483.19922 237.59961 C 481.99922 224.79961 504.59922 241.5 513.19922 233 C 545.09922 225.1 504.90039 202 496.40039 190 C 450.00039 146 403 102 354 61 C 336 40 328 79 334 92 C 336 113 325 88 321 80 C 307 62.5 293.76562 49.440625 272.58789 49.798828 z M 275 72.099609 C 306.8 72.499609 311.00039 119.80078 295.90039 132.80078 L 296 132.80078 C 274.7 137.30078 253 130.39922 233 125.69922 C 247.2 107.09922 255 80.899609 275 72.099609 z M 481 264.84961 C 506.6 265.19961 519 294 501 309 C 491.2 317 469 339.79922 461 331.69922 C 450.1 301.69922 440.2 264.69961 481 264.84961 z M 472.33398 468.53516 C 424.95334 468.72221 377.71875 473.81875 331 480 C 285 487.8 238 486.39961 192 481.09961 C 141 474.69961 89 479.70078 38 488.30078 L 44.199219 527.80078 C 95.199219 518.90078 147.19922 514.80039 199.19922 521.90039 C 248.19922 527.40039 298.19922 526.39922 347.19922 518.19922 C 406.09922 511.09922 466.19922 505.29922 525.19922 510.69922 L 528 470.80078 C 509.4375 469.14141 490.87424 468.46196 472.33398 468.53516 z " mix-blend-mode="normal" solid-color="#000000" opacity="0.8" color-interpolation-filters="linearRGB" filter-gaussianBlur-deviation="0" color="#000000" image-rendering="auto" color-rendering="auto" stroke-width="64" isolation="auto" color-interpolation="sRGB" solid-opacity="1" fill="none" stroke-linejoin="round" filter-blend-mode="normal" stroke="#ffffff" shape-rendering="auto"/>
 <path d="M 272.58789,49.798828 C 269.5625,49.85 266.375,50.175781 263,50.800781 c -23,4.9 -37,26 -48,45 -12,21.299999 -27.89922,39.598829 -46.69922,54.798829 -42,65.8 -48.00156,137 -39.60156,207 -15.6,6.4 -38.899611,-16.7 -53.599611,2 -13.9,22.8 5.3,47 18,66 11.000001,21.9 30.400001,27.6 53.000001,24 54.8,2.1 110,12.50078 164,3.80078 61,-3.9 120,-21.6 153,-77 20.6,-24.7 57,-34.8 69,-67 8.3,-31.8 -15.60039,-68.80078 -48.90039,-71.80078 -1.2,-12.8 21.4,3.90039 30,-4.59961 31.9,-7.9 -8.29883,-31 -16.79883,-43 C 450.00039,146 403,102 354,61 336,40 328,79 334,92 336,113 325,88 321,80 307,62.5 293.76562,49.440625 272.58789,49.798828 Z M 275,72.099609 c 31.8,0.4 36.00039,47.701171 20.90039,60.701171 l 0.0996,0 c -21.3,4.5 -43,-2.40156 -63,-7.10156 14.2,-18.6 22,-44.799611 42,-53.599611 z M 481,264.84961 c 25.6,0.35 38,29.15039 20,44.15039 -9.8,8 -32,30.79922 -40,22.69922 -10.9,-30 -20.8,-66.99961 20,-66.84961 z m -8.66602,203.68555 C 424.95334,468.72221 377.71875,473.81875 331,480 c -46,7.8 -93,6.39961 -139,1.09961 -51,-6.4 -103,-1.39883 -154,7.20117 l 6.199219,39.5 c 51,-8.9 103.000001,-13.00039 155.000001,-5.90039 49,5.5 99,4.49883 148,-3.70117 58.9,-7.1 119,-12.9 178,-7.5 L 528,470.80078 c -18.5625,-1.65937 -37.12576,-2.33882 -55.66602,-2.26562 z" id="path4170" fill="#734a08"/>
</svg>
