<?xml version="1.0" encoding="UTF-8" standalone="no"?>
<svg xmlns="http://www.w3.org/2000/svg" version="1.0" width="580" height="580">
 <metadata id="metadata2975"/>
 <path mix-blend-mode="normal" white-space="normal" isolation="auto" id="path4134" d="m 45.8,235 c 11.6,7 35,-4.3 32,7.2 0.2,72 -0.3,145 0.2,217 54.4169,2.45038 118.39279,2.19512 164.7,1.4 1,-24.9 1.6,-57 1.6,-84 l 91,0 c 0.3,27.5 -0.5,55 0.4,82 56.19333,0.77119 117.51588,2.01203 164.8,1.2 0.88757,-69.5981 1.6,-151.44225 1.6,-224.8 10.4,-0.5 21.3,1.4 31.4,-0.4 -0.77968,-32.73315 1.33146,-71.32739 0.3,-101 -13.14773,-1.34997 -34.10567,-1.80022 -36.8,-0.5 -1.7,10 -0.1,20.7 -0.6,30.9 l -26,0 c -0.6,-10.2 1.1,-21 -0.7,-30.9 -11.94657,0.94266 -35.27053,-1.41248 -37,1.1 -0.3,9.9 0,19.9 -0.1,29.8 l -26,0 c -0.6,-10.2 1.1,-21 -0.7,-30.9 -7.36136,-2.11414 -30.68532,-2.43142 -37,1.1 0,33 -0.5,66 0.3,99 12,6.9 35,-4 31.6,8.6 l 0,50.9 -26,0 c -0.6,-10.2 1.1,-21 -0.7,-30.9 -10.41817,-0.0763 -35.27053,-1.41248 -37,1.1 -0.3,9.9 0,19.9 -0.1,29.8 l -26,0 c -0.6,-10.2 1.1,-21 -0.7,-30.9 -10.04179,-1.10111 -35.18591,-1.24022 -37.2,0.5 -0.8,10 -0.1,20.3 -0.3,30.4 l -26,0 c -0.6,-10.2 1.1,-21 -0.7,-30.9 -10.92764,-0.0763 -35.27053,-1.41248 -37,1.1 -0.3,9.9 0,19.9 -0.1,29.8 l -26,0 0,-58 c 10.2,-0.6 21,1.1 30.9,-0.7 -0.22337,-33.99478 1.65632,-70.31235 0.7,-100 -5.00387,-2.91205 -34.10863,-1.79879 -36.8,-0.5 -1.7,10 -0.1,20.7 -0.6,30.9 l -26,0 c -0.6,-10.2 1.1,-21 -0.7,-30.9 -7.87792,-2.24135 -34.7007,-2.30736 -37,1.1 -0.3,9.9 0,19.9 -0.1,29.8 l -26,0 C 86.8,154.2 87.2,143.4 86.7,133.5 75.001626,131.08985 57.402405,132.45162 45.186381,132.40947 43.78629,162.39926 45.777688,202.35077 45.8,235 Z" solid-color="#000000" opacity="0.8" color-interpolation-filters="linearRGB" filter-gaussianBlur-deviation="0" color="#000000" image-rendering="auto" color-rendering="auto" stroke-width="64" color-interpolation="sRGB" solid-opacity="1" fill="none" stroke-linejoin="round" filter-blend-mode="normal" stroke="#ffffff" shape-rendering="auto"/>
 <path d="m 45.8,235 c 11.6,7 35,-4.3 32,7.2 0.2,72 -0.3,145 0.2,217 54.4169,2.45038 118.39279,2.19512 164.7,1.4 1,-24.9 1.6,-57 1.6,-84 l 91,0 c 0.3,27.5 -0.5,55 0.4,82 56.19333,0.77119 117.51588,2.01203 164.8,1.2 0.88757,-69.5981 1.6,-151.44225 1.6,-224.8 10.4,-0.5 21.3,1.4 31.4,-0.4 -0.77968,-32.73315 1.33146,-71.32739 0.3,-101 -13.14773,-1.34997 -34.10567,-1.80022 -36.8,-0.5 -1.7,10 -0.1,20.7 -0.6,30.9 l -26,0 c -0.6,-10.2 1.1,-21 -0.7,-30.9 -11.94657,0.94266 -35.27053,-1.41248 -37,1.1 -0.3,9.9 0,19.9 -0.1,29.8 l -26,0 c -0.6,-10.2 1.1,-21 -0.7,-30.9 -7.36136,-2.11414 -30.68532,-2.43142 -37,1.1 0,33 -0.5,66 0.3,99 12,6.9 35,-4 31.6,8.6 l 0,50.9 -26,0 c -0.6,-10.2 1.1,-21 -0.7,-30.9 -10.41817,-0.0763 -35.27053,-1.41248 -37,1.1 -0.3,9.9 0,19.9 -0.1,29.8 l -26,0 c -0.6,-10.2 1.1,-21 -0.7,-30.9 -10.04179,-1.10111 -35.18591,-1.24022 -37.2,0.5 -0.8,10 -0.1,20.3 -0.3,30.4 l -26,0 c -0.6,-10.2 1.1,-21 -0.7,-30.9 -10.92764,-0.0763 -35.27053,-1.41248 -37,1.1 -0.3,9.9 0,19.9 -0.1,29.8 l -26,0 0,-58 c 10.2,-0.6 21,1.1 30.9,-0.7 -0.22337,-33.99478 1.65632,-70.31235 0.7,-100 -5.00387,-2.91205 -34.10863,-1.79879 -36.8,-0.5 -1.7,10 -0.1,20.7 -0.6,30.9 l -26,0 c -0.6,-10.2 1.1,-21 -0.7,-30.9 -7.87792,-2.24135 -34.7007,-2.30736 -37,1.1 -0.3,9.9 0,19.9 -0.1,29.8 l -26,0 C 86.8,154.2 87.2,143.4 86.7,133.5 75.001626,131.08985 57.402405,132.45162 45.186381,132.40947 43.78629,162.39926 45.777688,202.35077 45.8,235 Z" id="path2958-0-6" isolation="auto" white-space="normal" mix-blend-mode="normal" fill="#734a08" color-rendering="auto" solid-opacity="1" color-interpolation-filters="linearRGB" shape-rendering="auto" image-rendering="auto" color-interpolation="sRGB" color="#000000" solid-color="#000000"/>
</svg>
