<?xml version="1.0" encoding="UTF-8" standalone="no"?>
<svg xmlns="http://www.w3.org/2000/svg" version="1.0" width="580" height="580">
 <metadata id="metadata10"/>
 <path id="path4142" d="m 254.10725,119.9768 c 0,-10.96722 3.54497,-19.94041 10.63489,-27.030335 7.08993,-6.979144 16.28467,-10.524106 27.47346,-10.524106 11.96425,0 22.04523,3.655743 29.91061,11.078007 7.97617,7.422264 11.96425,15.841554 11.96425,25.147074 0,6.97914 -1.55092,13.84751 -4.76354,20.71588 -3.21263,6.97914 -8.19773,12.51814 -14.95531,16.617 -6.86837,4.20965 -13.73673,6.31447 -20.93744,6.31447 -9.74864,0 -18.72183,-4.20965 -27.03033,-12.51815 -8.19772,-8.3085 -12.40737,-18.27871 -12.40737,-29.91062 m -42.7611,364.46642 -0.66468,-19.82963 34.34182,-4.54198 c 5.09588,-1.44014 8.64084,-3.54496 10.52411,-6.20368 3.414,-57.82818 3.27073,-115.44176 1.77249,-173.14925 -2.21561,-3.10184 -6.31447,-5.64978 -12.18581,-7.97617 -5.87134,-2.2156 -16.1739,-3.87729 -30.79686,-4.87432 l 0,-17.06012 c 20.93744,-1.21859 39.4377,-5.64979 55.27925,-13.07206 10.74567,-4.87432 22.48835,-13.51516 35.11729,-25.92253 l 20.49431,0 c -0.11922,91.42073 -0.30199,173.04456 0.33234,246.92877 6.31446,2.2156 16.617,4.4312 30.79686,6.75758 5.539,0.77546 9.85942,1.77248 13.18282,3.10184 l -0.33233,16.83858 c -8.8696,0.6013 -18.88424,0.18016 -26.25488,-0.33234 -42.09237,-0.41331 -73.73309,-3.58566 -111.88788,-0.44312 -9.30552,0.66467 -15.73077,1.10779 -19.27573,1.10779 z" mix-blend-mode="normal" solid-color="#000000" opacity="0.8" color-interpolation-filters="linearRGB" filter-gaussianBlur-deviation="0" color="#000000" image-rendering="auto" color-rendering="auto" stroke-width="64" isolation="auto" color-interpolation="sRGB" solid-opacity="1" fill="none" stroke-linejoin="round" filter-blend-mode="normal" stroke="#ffffff" shape-rendering="auto"/>
 <path d="m 254.10725,119.9768 c 0,-10.96722 3.54497,-19.94041 10.63489,-27.030335 7.08993,-6.979144 16.28467,-10.524106 27.47346,-10.524106 11.96425,0 22.04523,3.655743 29.91061,11.078007 7.97617,7.422264 11.96425,15.841554 11.96425,25.147074 0,6.97914 -1.55092,13.84751 -4.76354,20.71588 -3.21263,6.97914 -8.19773,12.51814 -14.95531,16.617 -6.86837,4.20965 -13.73673,6.31447 -20.93744,6.31447 -9.74864,0 -18.72183,-4.20965 -27.03033,-12.51815 -8.19772,-8.3085 -12.40737,-18.27871 -12.40737,-29.91062 m -42.7611,364.46642 -0.66468,-19.82963 34.34182,-4.54198 c 5.09588,-1.44014 8.64084,-3.54496 10.52411,-6.20368 3.414,-57.82818 3.27073,-115.44176 1.77249,-173.14925 -2.21561,-3.10184 -6.31447,-5.64978 -12.18581,-7.97617 -5.87134,-2.2156 -16.1739,-3.87729 -30.79686,-4.87432 l 0,-17.06012 c 20.93744,-1.21859 39.4377,-5.64979 55.27925,-13.07206 10.74567,-4.87432 22.48835,-13.51516 35.11729,-25.92253 l 20.49431,0 c -0.11922,91.42073 -0.30199,173.04456 0.33234,246.92877 6.31446,2.2156 16.617,4.4312 30.79686,6.75758 5.539,0.77546 9.85942,1.77248 13.18282,3.10184 l -0.33233,16.83858 c -8.8696,0.6013 -18.88424,0.18016 -26.25488,-0.33234 -42.09237,-0.41331 -73.73309,-3.58566 -111.88788,-0.44312 -9.30552,0.66467 -15.73077,1.10779 -19.27573,1.10779 z" id="flowRoot6828-2" fill="#734a08"/>
</svg>
