<?xml version="1.0" encoding="UTF-8" standalone="no"?>
<svg xmlns="http://www.w3.org/2000/svg" version="1.0" width="580" height="580">
 <metadata id="metadata2975"/>
 <path id="path4133" d="M 144 145 L 144 194 L 212 194 L 174 289 L 67 289 L 67 339 L 154 339 L 105 461 L 163 461 L 213 339 L 367 339 L 417 461 L 476 461 L 427 339 L 513 339 L 513 289 L 407 289 L 368 194 L 437 194 L 437 145 L 144 145 z M 267 194 L 304 194 L 343 289 L 228 289 L 267 194 z " mix-blend-mode="normal" solid-color="#000000" opacity="0.8" white-space="normal" color-interpolation-filters="linearRGB" filter-gaussianBlur-deviation="0" color="#000000" image-rendering="auto" color-rendering="auto" stroke-width="64" isolation="auto" color-interpolation="sRGB" solid-opacity="1" fill="none" stroke-linejoin="round" filter-blend-mode="normal" stroke="#ffffff" shape-rendering="auto"/>
 <path d="M 144 145 L 144 194 L 212 194 L 174 289 L 67 289 L 67 339 L 154 339 L 105 461 L 163 461 L 213 339 L 367 339 L 417 461 L 476 461 L 427 339 L 513 339 L 513 289 L 407 289 L 368 194 L 437 194 L 437 145 L 144 145 z M 267 194 L 304 194 L 343 289 L 228 289 L 267 194 z " id="path4136" fill="#734a08" isolation="auto" color-rendering="auto" white-space="normal" solid-opacity="1" mix-blend-mode="normal" color-interpolation-filters="linearRGB" shape-rendering="auto" image-rendering="auto" color-interpolation="sRGB" color="#000000" solid-color="#000000"/>
</svg>
