<?xml version="1.0" encoding="UTF-8" standalone="no"?>
<svg xmlns="http://www.w3.org/2000/svg" version="1.0" width="580" height="580">
 <metadata id="metadata2975"/>
 <path mix-blend-mode="normal" white-space="normal" isolation="auto" id="path4136" d="m 341,125 c -3,5 -5,10 -7,15 -9,33 -17,67 -25,101 -2,8 0,18 8,14 19,-15 36,-31 53,-48 13,-13 28,-26 39,-42 8,-11 13,-26 7,-40 -8,-14 -24,-24 -40.5,-24.5 C 359,100 347,112 341,125 Z m -173,2 c -6,14 -1,29 7,40 11,16 25,29 38,43 17,16 34,33 53,47 9,4 10,-6 8,-14 -8,-34 -16,-68 -25,-101 l -6,-15 c -6,-13 -18,-25 -35,-24 -17,1 -33,10 -40,24 z M 86,270 c -7.1,14 -7,32 2,46 9,12 24,15 38,14 19,-1 38,-8 56,-13 23,-6 46,-13 68,-21 7,-6 -1,-12 -8,-14 -34,-11 -67,-21 -101,-29 -5,-1 -10,-2 -21.5,-2 C 108,251 92,256 86,270 Z m 353,-17 c -34,8 -67,18 -100,29 -8,2 -16,8 -8,14 22,8 44,15 67,21 19,5 37,12 56,13 14,1 29,-2 38,-14 9,-14 9,-32 2,-46 -6,-14 -22,-19 -33,-19 -11,0 -17,1 -22,2 z m -174,70 c -18,15 -35,31 -52,48 -13,14 -28,26 -39,42 -8,11 -13,27 -7,40 8,14 23,24 39,25 16,2 29,-11 36,-25 2,-4 4,-9 6,-14 10,-34 18,-68 25,-102 0.88149,-11.07469 0.84813,-19.09468 -8,-14 z m 43,16 c 8,34 16,68 26,102 1,5 3,10 6,15 7,13 20,26 36,24 16,-1 31,-10 39,-25 6,-13 1,-28 -7,-40 -11,-16 -26,-28 -39,-42 -17,-16 -34,-33 -52,-47 -12.69071,-6.57256 -9.76024,7.99545 -9,13 z" solid-color="#000000" opacity="0.8" color-interpolation-filters="linearRGB" filter-gaussianBlur-deviation="0" color="#000000" image-rendering="auto" color-rendering="auto" fill-rule="evenodd" stroke-width="64" color-interpolation="sRGB" solid-opacity="1" fill="none" stroke-linejoin="round" filter-blend-mode="normal" stroke="#ffffff" shape-rendering="auto"/>
 <path d="m 341,125 c -3,5 -5,10 -7,15 -9,33 -17,67 -25,101 -2,8 0,18 8,14 19,-15 36,-31 53,-48 13,-13 28,-26 39,-42 8,-11 13,-26 7,-40 -8,-14 -24,-24 -40.5,-24.5 C 359,100 347,112 341,125 Z m -173,2 c -6,14 -1,29 7,40 11,16 25,29 38,43 17,16 34,33 53,47 9,4 10,-6 8,-14 -8,-34 -16,-68 -25,-101 l -6,-15 c -6,-13 -18,-25 -35,-24 -17,1 -33,10 -40,24 z M 86,270 c -7.1,14 -7,32 2,46 9,12 24,15 38,14 19,-1 38,-8 56,-13 23,-6 46,-13 68,-21 7,-6 -1,-12 -8,-14 -34,-11 -67,-21 -101,-29 -5,-1 -10,-2 -21.5,-2 C 108,251 92,256 86,270 Z m 353,-17 c -34,8 -67,18 -100,29 -8,2 -16,8 -8,14 22,8 44,15 67,21 19,5 37,12 56,13 14,1 29,-2 38,-14 9,-14 9,-32 2,-46 -6,-14 -22,-19 -33,-19 -11,0 -17,1 -22,2 z m -174,70 c -18,15 -35,31 -52,48 -13,14 -28,26 -39,42 -8,11 -13,27 -7,40 8,14 23,24 39,25 16,2 29,-11 36,-25 2,-4 4,-9 6,-14 10,-34 18,-68 25,-102 0.88149,-11.07469 0.84813,-19.09468 -8,-14 z m 43,16 c 8,34 16,68 26,102 1,5 3,10 6,15 7,13 20,26 36,24 16,-1 31,-10 39,-25 6,-13 1,-28 -7,-40 -11,-16 -26,-28 -39,-42 -17,-16 -34,-33 -52,-47 -12.69071,-6.57256 -9.76024,7.99545 -9,13 z" id="path4166" isolation="auto" white-space="normal" mix-blend-mode="normal" fill="#734a08" color-rendering="auto" solid-opacity="1" color-interpolation-filters="linearRGB" shape-rendering="auto" image-rendering="auto" color-interpolation="sRGB" color="#000000" solid-color="#000000"/>
</svg>
