<?xml version="1.0" encoding="UTF-8" standalone="no"?>
<svg xmlns="http://www.w3.org/2000/svg" version="1.0" width="580" height="580">
 <metadata id="metadata2975"/>
 <g id="g4143">
  <path id="path4151" d="m 112,362 c -3,-5 -15,-12 -21,-14 -8,-2 -22,8 -11,15 l -3,7 c -9,-5 -11.2,-18 -10,-27 0,-6 6,-13 8,-19 7,-17 12,-34 17,-51 2,-7 3,-20 9,-25 5,-4 14,-5 20,-8 5,-2 8,-7 13,-8 11,-4 21,-3 26,-14 11,16 20,31 22,51 1,15 -8,29 -12,43 -2,10 -1,19 -4,29 -3,12 -9,23 -12,34 -2,8 0,16 -2,22 -4,12 -27,20 -24,35 1,7 9,8 15,10 14,2 28,1 42,-1 4,-1 9,0 13,-4 8,-8 -2,-24 1,-34 2,-7 9,-13 12,-19 8,-14 14,-29 18,-44 l 2,0 c 0,13 3,30 8,42 4,8 12,19 12,28 -1,15 -23,24 -12,42 10,17 36,-1 49,-4 8,-1 18,1 21,-8 5,-12 -5,-24 -7,-36 -2,-13 1,-27 -2,-40 -1,-10 -9,-21 -9,-31 0,-7 5,-15 6,-22 l 44,20 19,11 c 0,10 0,22 1,31 1,5 5,9 4,14 -2,9 -25,19 -20,29 3,5 11,7 16,8 14,4 49,9 59,-4 5,-5 4,-15 4,-21 0,-18 2,-36 -2,-52 15,9 18,27 26,42 2,6 8,14 6,20 -3,9 -31,24 -18,36 4,4 10,4 15,5 13,4 53,11 60,-7 5,-16 4,-45 0,-62 -3,-10 -8,-18 -9,-29 -1,-9 6,-19 6,-28 1,-14 -3,-26 -3,-38 0,-9 2,-17 2,-26 13,34 0,70 9,104 1,5 2,33 12,30 3,-1 5,-7 4,-10 -3,-14 -9,-26 -9,-41 0,-7 3,-14 4,-22 4,-42 11,-102 -25,-133 -17,-14 -34,-24 -52,-36 -14,-9 -29,-19 -45,-23 -13,-2 -26,1 -38,1 -27,-1 -54,-7 -81,-9 -12,-1 -25,1 -37,-1 -27,-5 -46,-25 -73,-32 -8,-2 -22,-1 -31,1 -8,1 -12,7 -18,11 -18,13 -42,34 -52,54 -6.2,13 -7,29 -11,43 -5,19 -16.4,36 -20,56 -3.1,22 2,44 2,66 0,16 -9,36 -3.2,52 8.1,22 51.2,29 54.2,0 6,2 19,0 15,-9 z" mix-blend-mode="normal" solid-color="#000000" opacity="0.8" color-interpolation-filters="linearRGB" filter-gaussianBlur-deviation="0" color="#000000" image-rendering="auto" color-rendering="auto" stroke-width="64" isolation="auto" color-interpolation="sRGB" solid-opacity="1" fill="none" stroke-linejoin="round" filter-blend-mode="normal" stroke="#ffffff" shape-rendering="auto"/>
  <path d="m 112,362 c -3,-5 -15,-12 -21,-14 -8,-2 -22,8 -11,15 l -3,7 c -9,-5 -11.2,-18 -10,-27 0,-6 6,-13 8,-19 7,-17 12,-34 17,-51 2,-7 3,-20 9,-25 5,-4 14,-5 20,-8 5,-2 8,-7 13,-8 11,-4 21,-3 26,-14 11,16 20,31 22,51 1,15 -8,29 -12,43 -2,10 -1,19 -4,29 -3,12 -9,23 -12,34 -2,8 0,16 -2,22 -4,12 -27,20 -24,35 1,7 9,8 15,10 14,2 28,1 42,-1 4,-1 9,0 13,-4 8,-8 -2,-24 1,-34 2,-7 9,-13 12,-19 8,-14 14,-29 18,-44 l 2,0 c 0,13 3,30 8,42 4,8 12,19 12,28 -1,15 -23,24 -12,42 10,17 36,-1 49,-4 8,-1 18,1 21,-8 5,-12 -5,-24 -7,-36 -2,-13 1,-27 -2,-40 -1,-10 -9,-21 -9,-31 0,-7 5,-15 6,-22 l 44,20 19,11 c 0,10 0,22 1,31 1,5 5,9 4,14 -2,9 -25,19 -20,29 3,5 11,7 16,8 14,4 49,9 59,-4 5,-5 4,-15 4,-21 0,-18 2,-36 -2,-52 15,9 18,27 26,42 2,6 8,14 6,20 -3,9 -31,24 -18,36 4,4 10,4 15,5 13,4 53,11 60,-7 5,-16 4,-45 0,-62 -3,-10 -8,-18 -9,-29 -1,-9 6,-19 6,-28 1,-14 -3,-26 -3,-38 0,-9 2,-17 2,-26 13,34 0,70 9,104 1,5 2,33 12,30 3,-1 5,-7 4,-10 -3,-14 -9,-26 -9,-41 0,-7 3,-14 4,-22 4,-42 11,-102 -25,-133 -17,-14 -34,-24 -52,-36 -14,-9 -29,-19 -45,-23 -13,-2 -26,1 -38,1 -27,-1 -54,-7 -81,-9 -12,-1 -25,1 -37,-1 -27,-5 -46,-25 -73,-32 -8,-2 -22,-1 -31,1 -8,1 -12,7 -18,11 -18,13 -42,34 -52,54 -6.2,13 -7,29 -11,43 -5,19 -16.4,36 -20,56 -3.1,22 2,44 2,66 0,16 -9,36 -3.2,52 8.1,22 51.2,29 54.2,0 6,2 19,0 15,-9 z" id="path6" fill="#734a08"/>
 </g>
</svg>
