<?xml version="1.0" encoding="UTF-8" standalone="no"?>
<svg xmlns="http://www.w3.org/2000/svg" version="1.0" width="580" height="580">
 <metadata id="metadata2975"/>
 <path id="path4147" d="m 199.58398,219.79297 c -16.0301,0.33837 -35.31372,3.69845 -59.14257,8.71289 -21.08302,0.008 -74.532876,0.69769 -100.587894,1.39648 -2.979328,0.0797 -5.353226,2.51766 -5.353516,5.49805 l 0,241 c 3.04e-4,3.03744 2.46256,5.4997 5.5,5.5 l 237,0 c 3.17802,-3.9e-4 5.69447,-2.68609 5.48828,-5.85742 -7.99537,-122.629 -9.35501,-189.62695 -26.53125,-225.375 -8.58812,-17.87403 -22.38898,-27.68185 -41.24414,-30.14649 -4.71379,-0.61616 -9.73976,-0.84227 -15.12891,-0.72851 z" shape-rendering="auto" mix-blend-mode="normal" filter-blend-mode="normal" color-interpolation-filters="linearRGB" isolation="auto" white-space="normal" opacity="0.8" fill="none" solid-opacity="1" image-rendering="auto" solid-color="#000000" stroke="#ffffff" color="#000000" stroke-linejoin="round" stroke-width="64" color-rendering="auto" filter-gaussianBlur-deviation="0" color-interpolation="sRGB"/>
 <path id="path4149" d="m 39,154 0,43 c 22,0 44,-15 67,-15 23,1 49,17 72,18 22,1 46,-13 63,-14 13.54524,0.23483 26.96009,6.91165 32,17 8.34898,16.71211 2,43 8,63 7.89308,24.49079 19.99609,40.69408 25,63 1.2642,6.08521 1,46 1,46 25.18304,1.67093 46.70281,-11.4431 67,-11 22,1 45,16 68,17 22,0 44,-15 67,-15 11,0 22,4 34,8 l 0,-44 c -11,-4 -22,-7 -33,-8 -23,0 -45,16 -67,15 -23,0 -45,-16 -61.5,-16.5 C 365,320 359,321 353,323 c -1,-4 -2,-8 -4,-14 -7,-20 -19,-37 -26,-56 -7,-20 2,-43 -3,-61 -9.47112,-32.54639 -50.80058,-48.46639 -78,-49 -16,0 -40,14 -63,14 -23,-1 -48,-18 -72,-18 -25.341464,-1.02418 -47.000254,14.02615 -68,15 z m 274,266 0,44 c 25.22094,0.77117 46.62092,-12.44376 67,-12 22,1 44,17 67,17 23,1 44,-15 68,-15 9,1 18,3 28,6 l 0,-44 c -9,-3 -18,-5 -27,-5 -24,-1 -45,15 -68,15 -23,-1 -45,-16 -68,-17.5 -25.27222,-0.63187 -46.00873,11.5 -67,11.5 z" mix-blend-mode="normal" solid-color="#000000" opacity="0.8" color-interpolation-filters="linearRGB" filter-gaussianBlur-deviation="0" color="#000000" image-rendering="auto" color-rendering="auto" stroke-width="64" isolation="auto" color-interpolation="sRGB" solid-opacity="1" fill="none" stroke-linejoin="round" filter-blend-mode="normal" stroke="#ffffff" shape-rendering="auto"/>
 <path d="m 199.58398,219.79297 c -16.0301,0.33837 -35.31372,3.69845 -59.14257,8.71289 -21.08302,0.008 -74.532876,0.69769 -100.587894,1.39648 -2.979328,0.0797 -5.353226,2.51766 -5.353516,5.49805 l 0,241 c 3.04e-4,3.03744 2.46256,5.4997 5.5,5.5 l 237,0 c 3.17802,-3.9e-4 5.69447,-2.68609 5.48828,-5.85742 -7.99537,-122.629 -9.35501,-189.62695 -26.53125,-225.375 -8.58812,-17.87403 -22.38898,-27.68185 -41.24414,-30.14649 -4.71379,-0.61616 -9.73976,-0.84227 -15.12891,-0.72851 z" id="rect3039-1" shape-rendering="auto" mix-blend-mode="normal" color-interpolation-filters="linearRGB" isolation="auto" white-space="normal" opacity="0.8" fill="#0092da" solid-opacity="1" image-rendering="auto" solid-color="#000000" color="#000000" color-rendering="auto" color-interpolation="sRGB"/>
 <path d="m 39,154 0,43 c 22,0 44,-15 67,-15 23,1 49,17 72,18 22,1 46,-13 63,-14 13.54524,0.23483 26.96009,6.91165 32,17 8.34898,16.71211 2,43 8,63 7.89308,24.49079 19.99609,40.69408 25,63 1.2642,6.08521 1,46 1,46 25.18304,1.67093 46.70281,-11.4431 67,-11 22,1 45,16 68,17 22,0 44,-15 67,-15 11,0 22,4 34,8 l 0,-44 c -11,-4 -22,-7 -33,-8 -23,0 -45,16 -67,15 -23,0 -45,-16 -61.5,-16.5 C 365,320 359,321 353,323 c -1,-4 -2,-8 -4,-14 -7,-20 -19,-37 -26,-56 -7,-20 2,-43 -3,-61 -9.47112,-32.54639 -50.80058,-48.46639 -78,-49 -16,0 -40,14 -63,14 -23,-1 -48,-18 -72,-18 -25.341464,-1.02418 -47.000254,14.02615 -68,15 z m 274,266 0,44 c 25.22094,0.77117 46.62092,-12.44376 67,-12 22,1 44,17 67,17 23,1 44,-15 68,-15 9,1 18,3 28,6 l 0,-44 c -9,-3 -18,-5 -27,-5 -24,-1 -45,15 -68,15 -23,-1 -45,-16 -68,-17.5 -25.27222,-0.63187 -46.00873,11.5 -67,11.5 z" id="path121" fill="#0092da"/>
</svg>
