<?xml version="1.0" encoding="UTF-8" standalone="no"?>
<svg xmlns="http://www.w3.org/2000/svg" xmlns:sodipodi="http://sodipodi.sourceforge.net/DTD/sodipodi-0.dtd" xmlns:inkscape="http://www.inkscape.org/namespaces/inkscape" version="1.0" width="580" height="580">
 <metadata id="metadata1976"/>
 <defs id="defs4">
  <marker viewBox="0 0 10 10" refY="5" refX="10" orient="auto" markerWidth="4" markerUnits="strokeWidth" markerHeight="3" id="ArrowStart">
   <path id="path2111" d="M 10 0 L 0 5 L 10 10 z"/>
  </marker>
  <marker viewBox="0 0 10 10" refY="5" orient="auto" markerWidth="4" markerUnits="strokeWidth" markerHeight="3" id="ArrowEnd">
   <path id="path2108" d="M 0 0 L 10 5 L 0 10 z"/>
  </marker>
 </defs>
 <g id="g1327">
  <path d="M 66.275,1.768 C 24.94,1.768 1.704,23.139 1.704,66.804 L 1.704,516.927 C 1.704,557.771 22.6,579.156 63.896,579.156 L 515.92,579.156 C 557.227,579.156 578.149,558.842 578.149,516.927 L 578.149,66.804 C 578.149,24.203 557.227,1.768 514.628,1.768 C 514.624,1.768 66.133,1.625 66.275,1.768 z " id="path1329" fill="#0092DA" stroke="#eee" stroke-width="3.408"/>
 </g>
 <path d="M 290.625 34.5625 C 291.30137 34.5625 292.00406 34.588371 292.6875 34.59375 C 293.37567 34.588298 294.069 34.5625 294.75 34.5625 L 290.625 34.5625 z M 292.6875 34.59375 C 244.66265 34.974252 179.59571 48.496579 152.4375 59.8125 C 124.89013 71.290575 106.51969 82.774174 100.78125 111.46875 L 80.125 270.5625 L 80.125 489.75 L 115.71875 489.75 L 115.71875 524.125 C 115.71875 566.03764 177.03125 566.03762 177.03125 524.125 L 177.03125 489.75 L 290.28125 489.75 L 290.625 489.75 L 408.34375 489.75 L 408.34375 524.125 C 408.34375 566.03764 469.6875 566.03762 469.6875 524.125 L 469.6875 489.75 L 505.28125 489.75 L 505.28125 270.5625 L 484.625 111.46875 C 478.88656 82.774174 460.51613 71.290573 432.96875 59.8125 C 405.80789 48.495478 340.71371 34.971722 292.6875 34.59375 z M 205.25 74.75 L 290.625 74.75 L 380.15625 74.75 C 397.37395 74.750004 397.37396 100.5625 380.15625 100.5625 L 290.4375 100.5625 L 205.25 100.5625 C 188.0323 100.5625 188.03229 74.75 205.25 74.75 z M 158.8125 126.65625 L 290.4375 126.65625 L 426.5625 126.65625 C 444.75018 126.65625 449.51057 135.88827 451.71875 149.90625 L 467.8125 265.28125 C 469.31177 276.3402 466.09144 287.31249 450.8125 287.3125 L 290.625 287.3125 L 134.5625 287.3125 C 119.28355 287.3125 116.09448 276.34019 117.59375 265.28125 L 133.6875 149.90625 C 135.8957 135.88827 140.62481 126.65625 158.8125 126.65625 z M 146.40625 362.1875 C 162.65398 362.18749 175.8125 375.37727 175.8125 391.625 C 175.8125 407.87274 162.65398 421.03125 146.40625 421.03125 C 130.15852 421.03126 116.96875 407.87273 116.96875 391.625 C 116.96875 375.37728 130.15852 362.1875 146.40625 362.1875 z M 439 362.1875 C 455.24773 362.1875 468.40624 375.37728 468.40625 391.625 C 468.40625 407.87273 455.24773 421.03126 439 421.03125 C 422.75227 421.03125 409.56249 407.87274 409.5625 391.625 C 409.5625 375.37727 422.75228 362.18749 439 362.1875 z " id="path2115" fill="#ffffff"/>
</svg>
