<?xml version="1.0" encoding="UTF-8" standalone="no"?>
<svg xmlns="http://www.w3.org/2000/svg" xmlns:sodipodi="http://sodipodi.sourceforge.net/DTD/sodipodi-0.dtd" xmlns:inkscape="http://www.inkscape.org/namespaces/inkscape" version="1.0" width="580" height="580">
 <metadata id="metadata2975"/>
 <g id="g1327">
  <path d="M 66.275,1.768 C 24.94,1.768 1.704,23.139 1.704,66.804 L 1.704,516.927 C 1.704,557.771 22.599,579.156 63.896,579.156 L 515.92,579.156 C 557.227,579.156 578.149,558.841 578.149,516.927 L 578.149,66.804 C 578.149,24.203 557.227,1.768 514.628,1.768 C 514.624,1.768 66.133,1.625 66.275,1.768 z " id="path1329" fill="#0092DA" stroke="#eee" stroke-width="3.408"/>
 </g>
 <path d="M 288.27197,138.47099 C 286.76224,146.8004 92.8253,507.19334 92.8253,507.19334 L 483.17348,506.5467 L 288.27197,138.47099 z" id="path2443" sodipodi:nodetypes="cccc" fill="none" fill-rule="evenodd" stroke="#ffffff" stroke-width="26.28"/>
 <path sodipodi:nodetypes="csccc" id="path2383" d="M 288.27197,162.58083 C 287.53256,166.66023 275.50214,187.26222 301.10443,277.13002 C 327.77756,370.75661 399.37636,507.19334 399.37636,507.19334 L 483.17348,506.5467 L 288.27197,162.58083 z" fill="#ffffff" fill-rule="evenodd" stroke="#ffffff" stroke-width="26.28"/>
 <path d="M 291.6525,162.58083 C 292.3919,166.66023 304.42233,187.26222 278.82004,277.13002 C 252.14691,370.75661 180.54811,507.19334 180.54811,507.19334 L 96.75099,506.5467 L 291.6525,162.58083 z" id="path3155" sodipodi:nodetypes="csccc" fill="#ffffff" fill-rule="evenodd" stroke="#ffffff" stroke-width="26.28"/>
 <path sodipodi:nodetypes="ccc" id="path3157" d="M 249.69622,63.73048 L 483.17348,506.5467 L 249.69622,63.73048 z" fill="none" fill-rule="evenodd" stroke="#ffffff" stroke-width="26.28"/>
 <path d="M 328.51443,66.14146 L 95.393229,506.5467 L 328.51443,66.14146 z" id="path3161" sodipodi:nodetypes="ccc" fill="none" fill-rule="evenodd" stroke="#ffffff" stroke-width="26.28"/>
</svg>
