<?xml version="1.0" encoding="UTF-8" standalone="no"?>
<svg xmlns="http://www.w3.org/2000/svg" xmlns:sodipodi="http://sodipodi.sourceforge.net/DTD/sodipodi-0.dtd" xmlns:inkscape="http://www.inkscape.org/namespaces/inkscape" version="1.0" width="580" height="580">
 <metadata id="metadata10"/>
 <g id="g1327">
  <path d="M 66.275,1.768 C 24.94,1.768 1.704,23.139 1.704,66.804 L 1.704,516.927 C 1.704,557.771 22.598,579.156 63.896,579.156 L 515.92,579.156 C 557.227,579.156 578.149,558.84 578.149,516.927 L 578.149,66.804 C 578.149,24.203 557.227,1.768 514.627,1.768 C 514.624,1.768 66.133,1.625 66.275,1.768 z" id="path1329" fill="#734A08" stroke="#eeeeee" stroke-width="3.408"/>
 </g>
 <g id="g18718" transform="matrix(1.4438269,0,0,1.4438269,-128.87623,-121.85042)">
  <path id="rect3391" d="M 317.40625,102 C 314.79389,103.87499 312.32864,105.97454 309.9375,108.1875 L 318.59375,126.1875 L 304.78125,132.84375 L 298.28125,119.3125 C 295.93663,121.42726 293.54702,123.41115 291,125.125 L 318.28125,181.84375 L 189.78125,243.6875 L 155.5,172.4375 C 154.90688,172.67767 154.33197,172.93925 153.75,173.21875 C 147.97758,176.0395 142.74849,180.76877 137.65625,185.8125 L 148.8125,180.4375 L 159.5625,202.71875 L 145.75,209.375 L 135.46875,188 C 133.63637,189.84312 131.80866,191.71473 129.96875,193.5 L 262.875,469.71875 C 265.63849,466.94085 268.41773,464.13055 271.25,461.53125 L 267.875,463.15625 L 257.125,440.875 L 270.9375,434.21875 L 280.59375,454.3125 C 281.42844,453.81363 282.29811,453.35684 283.15625,452.9375 C 285.16759,451.97154 287.24435,451.26566 289.375,450.71875 L 260.75,391.1875 L 389.25,329.375 L 424.1875,402 C 433.11182,394.8094 440.70356,384.96976 450.78125,379.15625 L 317.40625,102 z M 332.28125,154.6875 L 343,176.96875 L 329.21875,183.59375 L 318.5,161.3125 L 332.28125,154.6875 z M 324.125,194.03125 L 383.40625,317.21875 L 254.90625,379.03125 L 195.625,255.84375 L 324.125,194.03125 z M 356.71875,205.4375 L 367.4375,227.71875 L 353.625,234.34375 L 342.90625,212.0625 L 356.71875,205.4375 z M 173.25,231.1875 L 183.96875,253.46875 L 170.1875,260.125 L 159.4375,237.84375 L 173.25,231.1875 z M 381.125,256.1875 L 391.84375,278.46875 L 378.0625,285.125 L 367.34375,262.8125 L 381.125,256.1875 z M 197.65625,281.96875 L 208.40625,304.25 L 194.59375,310.875 L 183.875,288.59375 L 197.65625,281.96875 z M 405.5625,306.9375 L 416.28125,329.21875 L 402.46875,335.875 L 391.75,313.59375 L 405.5625,306.9375 z M 222.09375,332.71875 L 232.8125,355 L 219.03125,361.625 L 208.28125,339.34375 L 222.09375,332.71875 z M 429.96875,357.6875 L 440.6875,380 L 426.90625,386.625 L 416.1875,364.34375 L 429.96875,357.6875 z M 246.53125,383.46875 L 257.25,405.75 L 243.4375,412.40625 L 232.71875,390.09375 L 246.53125,383.46875 z" fill="#ffffff"/>
  <path id="rect3445" d="M 291,125.125 C 289.30153,126.26787 287.53347,127.29214 285.6875,128.15625 C 270.70905,134.83823 251.35034,131.44609 236.5625,137.71875 C 221.4956,143.92126 211.46456,159.39816 197.5,165.4375 C 184.27142,170.97234 168.57887,167.14145 155.5,172.4375 L 189.78125,243.6875 L 318.28125,181.84375 L 291,125.125 z" opacity=".332" fill="#ffffff"/>
  <rect transform="matrix(0.9011117,-0.433587,0.433587,0.9011117,0,0)" y="315.36" x="65.34" height="136.71" width="142.6" id="rect3447" opacity=".332" fill="#ffffff"/>
  <path id="rect3449" d="M 389.25,329.375 L 260.75,391.1875 L 289.375,450.6875 C 301.4534,447.58953 315.12121,450.07405 326.875,445.15625 C 340.83956,439.11691 350.90186,423.64003 365.96875,417.4375 C 380.75659,411.16485 400.11531,414.55698 415.09375,407.875 C 418.35625,406.34781 421.3307,404.30181 424.1875,402 L 389.25,329.375 z" opacity=".332" fill="#ffffff"/>
 </g>
</svg>
