<?xml version="1.0" encoding="UTF-8" standalone="no"?>
<svg xmlns="http://www.w3.org/2000/svg" xmlns:sodipodi="http://sodipodi.sourceforge.net/DTD/sodipodi-0.dtd" xmlns:inkscape="http://www.inkscape.org/namespaces/inkscape" version="1.0" width="580" height="580">
 <metadata id="metadata2975"/>
 <defs id="defs4">
  <symbol viewBox="244.5 110 489 219.9" id="symbol-university">
   <path id="path4460" d="M79,43l57,119c0,0,21-96,104-96s124,106,124,106l43-133l82-17L0,17L79,43z"/>
   <path id="path4462" d="M94,176l-21,39" stroke-width="20" stroke="#000000" fill="none"/>
   <path id="path4464" d="M300,19c0,10.5-22.6,19-50.5,19S199,29.5,199,19s22.6-19,50.5-19S300,8.5,300,19z"/>
   <path id="path4466" d="M112,216l-16-38L64,88c0,0-9-8-4-35s16-24,16-24" stroke-width="20" stroke="#000000" ill="none"/>
  </symbol>
 </defs>
 <g id="g1327">
  <path d="M 66.275,1.768 C 24.94,1.768 1.704,23.139 1.704,66.804 L 1.704,516.927 C 1.704,557.771 22.599,579.156 63.896,579.156 L 515.92,579.156 C 557.227,579.156 578.149,558.841 578.149,516.927 L 578.149,66.804 C 578.149,24.203 557.227,1.768 514.628,1.768 C 514.624,1.768 66.133,1.625 66.275,1.768 z " id="path1329" fill="#0092DA" stroke="#eee" stroke-width="3.408"/>
 </g>
 <path d="M 47.545774,43.393944 44.346778,538.12088" id="path2157" inkscape:connector-curvature="0" sodipodi:nodetypes="cc" fill="#ffffff" fill-rule="evenodd" stroke="#ffffff" stroke-linecap="round" stroke-width="35.829"/>
 <path d="m 50.744772,485.34997 479.849548,3.19899" id="path2159" inkscape:connector-curvature="0" sodipodi:nodetypes="cc" fill="#ffffff" fill-rule="evenodd" stroke="#ffffff" stroke-width="35.829"/>
 <path d="m 533.79332,528.52389 3.19899,-384.4845" id="path2161" inkscape:connector-curvature="0" sodipodi:nodetypes="cc" fill="#ffffff" fill-rule="evenodd" stroke="#ffffff" stroke-linecap="round" stroke-width="35.829"/>
 <rect id="rect2163" width="207.97" height="38.605" x="237.13" y="393.63" fill="#ffffff" stroke="#ffffff" stroke-width="34.702" rx="19.303"/>
 <path sodipodi:type="arc" id="path2167" sodipodi:cx="7.7678571" sodipodi:cy="16.017857" sodipodi:rx="1.5178572" sodipodi:ry="1.3392857" d="m 9.2857143,16.017857 a 1.5178572,1.3392857 0 1 1 -3.0357144,0 1.5178572,1.3392857 0 1 1 3.0357144,0 z" transform="matrix(18.921389,0,0,19.889185,29.572525,29.582841)" fill="#ffffff" stroke="#ffffff" stroke-width="2.3"/>
 <rect id="rect2169" width="80.29" height="6.894" x="119.98" y="423.96" fill="#ffffff" stroke="#ffffff" stroke-width="30.18" rx="3.447"/>
 <path d="m 55.503588,249.65197 479.849542,3.19899" id="path2159-3" inkscape:connector-curvature="0" sodipodi:nodetypes="cc" fill="#ffffff" fill-rule="evenodd" stroke="#ffffff" stroke-width="35.829"/>
 <rect id="rect2163-5" width="207.97" height="38.605" x="241.67" y="159.19" fill="#ffffff" stroke="#ffffff" stroke-width="34.702" rx="19.303"/>
 <path sodipodi:type="arc" id="path2167-9" sodipodi:cx="7.7678571" sodipodi:cy="16.017857" sodipodi:rx="1.5178572" sodipodi:ry="1.3392857" d="m 9.2857143,16.017857 a 1.5178572,1.3392857 0 1 1 -3.0357144,0 1.5178572,1.3392857 0 1 1 3.0357144,0 z" transform="matrix(18.921389,0,0,19.889185,34.117797,-204.86148)" fill="#ffffff" stroke="#ffffff" stroke-width="2.3"/>
 <rect id="rect2169-6" width="80.29" height="6.894" x="124.52" y="189.52" fill="#ffffff" stroke="#ffffff" stroke-width="30.18" rx="3.447"/>
</svg>
