<?xml version="1.0" encoding="UTF-8" standalone="no"?>
<svg xmlns="http://www.w3.org/2000/svg" xmlns:sodipodi="http://sodipodi.sourceforge.net/DTD/sodipodi-0.dtd" xmlns:inkscape="http://www.inkscape.org/namespaces/inkscape" version="1.0" width="580" height="580">
 <metadata id="metadata10"/>
 <defs id="defs4">
  <marker viewBox="0 0 10 10" refY="5" refX="10" orient="auto" markerWidth="4" markerUnits="strokeWidth" markerHeight="3" id="ArrowStart">
   <path id="path2295" d="M 10 0 L 0 5 L 10 10 z"/>
  </marker>
  <marker viewBox="0 0 10 10" refY="5" orient="auto" markerWidth="4" markerUnits="strokeWidth" markerHeight="3" id="ArrowEnd">
   <path id="path2292" d="M 0 0 L 10 5 L 0 10 z"/>
  </marker>
  <marker viewBox="0 0 10 10" refY="5" refX="10" orient="auto" markerWidth="4" markerUnits="strokeWidth" markerHeight="3" id="marker8025">
   <path id="path8027" d="M 10,0 L 0,5 L 10,10 L 10,0 z "/>
  </marker>
  <marker viewBox="0 0 10 10" refY="5" orient="auto" markerWidth="4" markerUnits="strokeWidth" markerHeight="3" id="marker8021">
   <path id="path8023" d="M 0,0 L 10,5 L 0,10 L 0,0 z "/>
  </marker>
 </defs>
 <g id="g1327">
  <path d="M 66.275,1.768 C 24.94,1.768 1.704,23.139 1.704,66.804 L 1.704,516.927 C 1.704,557.771 22.598,579.156 63.896,579.156 L 515.92,579.156 C 557.227,579.156 578.149,558.84 578.149,516.927 L 578.149,66.804 C 578.149,24.203 557.227,1.768 514.627,1.768 C 514.624,1.768 66.133,1.625 66.275,1.768 z" id="path1329" fill="#0092DA" stroke="#eeeeee" stroke-width="3.408"/>
 </g>
 <path d="M 249,111.75 C 240.51758,111.75 232.0625,117.88064 232.0625,127.6875 L 231.875,442.9375 L 249.3125,442.9375 L 249.46875,467.875 L 409.5625,467.78125 L 409.6875,442.9375 L 424.6875,443.0625 L 424.6875,124.4375 C 424.68751,117.64142 420.75087,111.75 413.34375,111.75 L 249,111.75 z M 275.78125,146.59375 L 380.6875,146.59375 C 386.49577,146.59375 391.06251,148.95926 391.0625,156.96875 L 391.0625,239.84375 C 391.0625,245.45746 388.06163,249.53125 381.65625,249.53125 L 276.0625,249.25 C 269.96423,249.25 264.71875,244.74463 264.71875,238.1875 L 265.25,156.6875 C 265.25,150.1638 269.76979,146.59375 275.78125,146.59375 z" id="path1897" fill="#ffffff" fill-rule="evenodd"/>
 <path d="M 232.83211,220.10791 L 216.8105,220.01303 C 216.70662,285.20608 217.18175,413.86794 217.45327,416.06937 C 218.03287,420.76868 217.68239,425.63716 216.47581,430.07245 C 191.35934,493.34558 110.08776,464.28417 121.62727,402.71575 C 146.97207,341.64522 182.51061,300.32073 200.19813,228.29037 L 201.77268,281.83519 C 185.8545,312.81087 157.77166,367.21167 135.99276,412.68501 C 134.15788,454.66887 184.10162,468.50125 199.74349,423.43723 C 206.71402,344.55555 199.48141,258.5723 199.35038,176.13983 C 209.5149,145.92256 220.73039,143.03014 232.11247,144.46938" id="path1899" fill="#ffffff" fill-rule="evenodd"/>
</svg>
