<?xml version="1.0" encoding="UTF-8" standalone="no"?>
<svg xmlns="http://www.w3.org/2000/svg" xmlns:sodipodi="http://sodipodi.sourceforge.net/DTD/sodipodi-0.dtd" xmlns:inkscape="http://www.inkscape.org/namespaces/inkscape" version="1.0" width="580" height="580">
 <metadata id="metadata10"/>
 <g id="g1327">
  <path d="M 66.275,1.768 C 24.94,1.768 1.704,23.139 1.704,66.804 L 1.704,516.927 C 1.704,557.771 22.598,579.156 63.896,579.156 L 515.92,579.156 C 557.227,579.156 578.149,558.84 578.149,516.927 L 578.149,66.804 C 578.149,24.203 557.227,1.768 514.627,1.768 C 514.624,1.768 66.133,1.625 66.275,1.768 z" id="path1329" fill="#734A08" stroke="#eeeeee" stroke-width="3.408"/>
 </g>
 <path d="M 44.421016,269.96274 540.35091,367.8097" id="path2383" fill="#ffffff" stroke="#ffffff" stroke-linecap="round" stroke-width="34.524" stroke-miterlimit="1.1"/>
 <path d="m 292.38579,322.02486 -52.29327,109.83729 104.58725,0 -52.29398,-109.83729 z" id="path2385" fill="#ffffff" fill-rule="evenodd" stroke="#ffffff" stroke-width="2.023"/>
 <g transform="matrix(2.1357106,0.90429401,-0.84164613,2.2946826,-206.63356,-1194.9871)" id="g3185" fill="#ffffff" stroke="#ffffff">
  <path d="m 338.53918,463.22191 c -8.9525,1.66739 -20.95672,48.62705 -20.95672,48.62705 l 34.61374,-4.78652 c 0,0 -4.32951,15.51183 -8.18502,27.01742 -2.40466,7.17586 5.60707,9.49056 9.63988,1.52914 7.449,-14.70555 13.0522,-30.95967 13.0522,-30.95967 0,0 -18.70966,-43.18825 -28.16408,-41.42742 z" id="path3181" fill-rule="evenodd" stroke-width="1.335"/>
  <path d="m 286.86472,449.50504 c 0.004,5.13117 -3.71051,9.29292 -8.29328,9.29292 -4.58277,0 -8.29684,-4.16175 -8.29328,-9.29292 -0.004,-5.13117 3.71051,-9.29292 8.29328,-9.29292 4.58277,0 8.29684,4.16175 8.29328,9.29292 z" transform="matrix(-1.664894,-0.163643,-0.2881576,1.3383147,941.37379,-110.14043)" id="path3183" stroke-width="5.9"/>
 </g>
 <g transform="matrix(-2.3075369,-0.23175279,-0.36219803,2.4172678,1457.3558,-786.99777)" id="g3193" fill="#ffffff" stroke="#ffffff">
  <path d="m 338.53918,463.22191 c -8.9525,1.66739 -20.95672,48.62705 -20.95672,48.62705 l 34.61374,-4.78652 c 0,0 -4.32951,15.51183 -8.18502,27.01742 -2.40466,7.17586 5.60707,9.49056 9.63988,1.52914 7.449,-14.70555 13.0522,-30.95967 13.0522,-30.95967 0,0 -18.70966,-43.18825 -28.16408,-41.42742 z" id="path3195" fill-rule="evenodd" stroke-width="1.335"/>
  <path d="m 286.86472,449.50504 c 0.004,5.13117 -3.71051,9.29292 -8.29328,9.29292 -4.58277,0 -8.29684,-4.16175 -8.29328,-9.29292 -0.004,-5.13117 3.71051,-9.29292 8.29328,-9.29292 4.58277,0 8.29684,4.16175 8.29328,9.29292 z" transform="matrix(-1.664894,-0.163643,-0.2881576,1.3383147,941.37379,-110.14043)" id="path3197" stroke-width="5.9"/>
 </g>
</svg>
