<?xml version="1.0" encoding="UTF-8" standalone="no"?>
<svg xmlns="http://www.w3.org/2000/svg" xmlns:sodipodi="http://sodipodi.sourceforge.net/DTD/sodipodi-0.dtd" xmlns:inkscape="http://www.inkscape.org/namespaces/inkscape" version="1.0" width="580" height="580">
 <metadata id="metadata2975"/>
 <defs id="defs4">
  <symbol viewBox="244.5 110 489 219.9" id="symbol-university">
   <path id="path4460" d="M79,43l57,119c0,0,21-96,104-96s124,106,124,106l43-133l82-17L0,17L79,43z"/>
   <path id="path4462" d="M94,176l-21,39" stroke-width="20" stroke="#000000" fill="none"/>
   <path id="path4464" d="M300,19c0,10.5-22.6,19-50.5,19S199,29.5,199,19s22.6-19,50.5-19S300,8.5,300,19z"/>
   <path id="path4466" d="M112,216l-16-38L64,88c0,0-9-8-4-35s16-24,16-24" stroke-width="20" stroke="#000000" ill="none"/>
  </symbol>
  <marker viewBox="0 0 10 10" refY="5" refX="10" orient="auto" markerWidth="4" markerUnits="strokeWidth" markerHeight="3" id="ArrowStart">
   <path id="path3634" d="M 10 0 L 0 5 L 10 10 z"/>
  </marker>
  <marker viewBox="0 0 10 10" refY="5" orient="auto" markerWidth="4" markerUnits="strokeWidth" markerHeight="3" id="ArrowEnd">
   <path id="path3631" d="M 0 0 L 10 5 L 0 10 z"/>
  </marker>
  <marker viewBox="0 0 10 10" refY="5" refX="10" orient="auto" markerWidth="4" markerUnits="strokeWidth" markerHeight="3" id="marker2611">
   <path id="path1325" d="M 10 0 L 0 5 L 10 10 z"/>
  </marker>
  <marker viewBox="0 0 10 10" refY="5" orient="auto" markerWidth="4" markerUnits="strokeWidth" markerHeight="3" id="marker2608">
   <path id="path1322" d="M 0 0 L 10 5 L 0 10 z"/>
  </marker>
 </defs>
 <g id="g1327">
  <path d="M 66.275,1.768 C 24.94,1.768 1.704,23.139 1.704,66.804 L 1.704,516.927 C 1.704,557.771 22.599,579.156 63.896,579.156 L 515.92,579.156 C 557.227,579.156 578.149,558.841 578.149,516.927 L 578.149,66.804 C 578.149,24.203 557.227,1.768 514.628,1.768 C 514.624,1.768 66.133,1.625 66.275,1.768 z " id="path1329" fill="#734A08" stroke="#eee" stroke-width="3.408"/>
 </g>
 <g id="g1331" transform="matrix(0.9537247,0.6649405,-0.6649405,0.9537247,190.65781,-211.89377)">
  <path d="M 309.337,64.0439 C 286.958,66.5479 205.583,103.742 203.208,295.523 C 200.708,497.548 286.958,540.048 309.578,539.59 L 309.578,406.154 C 290.958,406.154 287.212,385.879 282.958,344.048 C 280.144,316.369 279.324,282.106 282.958,248.048 C 285.51,224.151 289.958,200.825 309.458,200.825 L 309.337,64.0439 z" id="path1333" fill="#ffffff"/>
  <path d="M 357.583,539.825 C 366.208,539.825 372.394,532.798 372.394,524.923 L 372.456,524.861 C 372.456,524.861 372.394,420.861 372.394,420.798 C 372.394,412.548 365.708,406.044 357.583,406.044 L 319.784,406.044 L 319.784,539.825 C 319.784,539.825 357.491,539.883 357.522,539.852 L 357.583,539.825 z" id="path1335" fill="#ffffff"/>
  <path d="M 357.583,200.825 C 366.208,200.825 372.394,193.798 372.394,185.923 L 372.456,185.861 C 372.456,185.861 372.394,78.8609 372.394,78.7979 C 372.394,70.5479 365.708,64.0439 357.583,64.0439 L 319.784,64.0439 L 319.784,200.825 C 319.784,200.825 357.491,200.883 357.522,200.852 L 357.583,200.825 z" id="path1337" fill="#ffffff"/>
 </g>
</svg>
