<?xml version="1.0" encoding="UTF-8" standalone="no"?>
<svg xmlns="http://www.w3.org/2000/svg" xmlns:sodipodi="http://sodipodi.sourceforge.net/DTD/sodipodi-0.dtd" xmlns:inkscape="http://www.inkscape.org/namespaces/inkscape" version="1.0" width="580" height="580">
 <metadata id="metadata2975"/>
 <g id="g1327">
  <path d="M 66.275,1.768 C 24.94,1.768 1.704,23.139 1.704,66.804 L 1.704,516.927 C 1.704,557.771 22.599,579.156 63.896,579.156 L 515.92,579.156 C 557.227,579.156 578.149,558.841 578.149,516.927 L 578.149,66.804 C 578.149,24.203 557.227,1.768 514.628,1.768 C 514.624,1.768 66.133,1.625 66.275,1.768 z " id="path1329" fill="#734a08" stroke="#eee" stroke-width="3.408"/>
 </g>
 <path sodipodi:nodetypes="cszss" id="use6027" d="m 264.50523,235.49926 c -0.16658,0.78886 -42.10316,-33.79044 -85.91597,-79.79102 -9.98712,-10.48582 -67.67963,-60.980315 -14.46661,-91.66394 54.45289,-31.398539 69.60929,44.6705 73.90403,61.46637 15.13669,59.19661 26.64513,109.19973 26.47855,109.98859 z" inkscape:connector-curvature="0" fill="#ffffff" stroke="#ffffff" stroke-linejoin="round" stroke-linecap="round" stroke-width="13.06"/>
 <path sodipodi:nodetypes="cszss" id="use6039" d="m 323.1887,233.94211 c -0.76647,0.25017 8.2118,-53.35763 26.14307,-114.30092 4.08742,-13.89201 18.9707,-89.10244 72.15,-58.360413 54.41838,31.458315 -3.88114,82.618663 -16.27943,94.735943 -43.69743,42.70707 -81.24718,77.67522 -82.01364,77.92539 z" inkscape:connector-curvature="0" fill="#ffffff" stroke="#ffffff" stroke-linejoin="round" stroke-linecap="round" stroke-width="13.06"/>
 <path sodipodi:nodetypes="cszss" id="use6039-1" d="m 319.7866,336.12097 c 0.14256,-0.79356 43.1095,32.49679 88.29851,77.14619 10.30082,10.17782 69.49954,58.89775 17.24246,91.18255 -53.47465,33.03704 -70.93322,-42.53685 -75.73582,-59.19461 -16.92668,-58.70986 -29.9477,-108.34057 -29.80515,-109.13413 z" inkscape:connector-curvature="0" fill="#ffffff" stroke="#ffffff" stroke-linejoin="round" stroke-linecap="round" stroke-width="13.06"/>
 <path sodipodi:nodetypes="cszss" id="use6039-1-7" d="m 266.29377,332.92737 c -0.14256,-0.79356 -43.1095,32.49679 -88.29851,77.14619 -10.30082,10.17782 -69.49954,58.89775 -17.24246,91.18255 53.47465,33.03704 70.93322,-42.53685 75.73582,-59.19461 16.92668,-58.70986 29.9477,-108.34057 29.80515,-109.13413 z" inkscape:connector-curvature="0" fill="#ffffff" stroke="#ffffff" stroke-linejoin="round" stroke-linecap="round" stroke-width="13.06"/>
 <path sodipodi:nodetypes="cszss" id="use6039-1-7-4" d="m 346.34706,286.69224 c -0.60652,-0.53121 50.06828,-20.19002 111.62218,-35.89777 14.03119,-3.58057 86.2947,-29.19516 87.02319,32.22617 0.74548,62.85244 -73.01387,38.85718 -89.76365,34.38608 -59.03422,-15.75823 -108.27519,-30.18327 -108.88172,-30.71448 z" inkscape:connector-curvature="0" fill="#ffffff" stroke="#ffffff" stroke-linejoin="round" stroke-linecap="round" stroke-width="13.06"/>
 <path sodipodi:nodetypes="cszss" id="use6039-1-7-4-9" d="m 236.05283,287.13694 c 0.60652,-0.53121 -50.06828,-20.19002 -111.62218,-35.89777 -14.03119,-3.58057 -86.294699,-29.19516 -87.023189,32.22617 -0.74548,62.85244 73.013869,38.85718 89.763649,34.38608 59.03422,-15.75823 108.27519,-30.18327 108.88172,-30.71448 z" inkscape:connector-curvature="0" fill="#ffffff" stroke="#ffffff" stroke-linejoin="round" stroke-linecap="round" stroke-width="13.06"/>
</svg>
