<?xml version="1.0" encoding="UTF-8" standalone="no"?>
<svg xmlns="http://www.w3.org/2000/svg" version="1.0" width="580" height="580">
 <metadata id="metadata1976"/>
 <path mix-blend-mode="normal" white-space="normal" isolation="auto" id="path4141" d="m 265,52.1 c -25,9.7 -46,29.8 -74,32 -20.4,0 -72.9,0 -47,32.6 12.7,9.8 24,38.5 39.7,39 l -20.8,17.8 c -12,-18.5 -29.7,-43 -53,-47.9 -4.5,-0.6 -9.7,2.1 -11.4,6.4 -4.4,26 -3.3,54 -19.5,77 -17.4,30 -40,64.9 -26.8,101 12.7,37.7 43.6,72 35.8,114 1.2,33 35.5,12.1 49.9,-2.5 9,-6.2 15.8,-14.8 18.4,-21.5 l 17.6,19 c -3,0.5 -6.3,2.3 -9.2,5.7 -10.7,9.5 -19.9,20.5 -30,30.5 -24.6,26 22.3,34 40.7,32.4 41.8,10.3 75,51 121,43.7 43,-5.3 79,-44 124,-37 27,2.8 24.5,-29.6 13.7,-40 -5.5,-7 -19.9,-25.7 -31,-27.9 L 418.7,412 c 5,8.4 19,18.7 24,24.5 10.3,12.2 47,24 43.6,-6.3 0.5,-25.6 9.3,-49.7 23.7,-71 16.6,-26 31.8,-58.8 18.9,-90 -12.5,-36.7 -39.6,-70 -35.6,-111 0.7,-11 -4.7,-26.3 -18.5,-23.7 -13.2,12.4 -43.1463,28.5284 -48.1463,45.5284 l -18.00947,-19.15473 c 4.9,-1 8.72829,-6.96321 13.15577,-11.17367 13.97491,-13.28991 49,-35.5 22.8,-55 C 415,94 385,92 361,74 340,60 315,46.7 290,47 c -8.4,0.1 -16.8,1.7 -25,5.1 z" solid-color="#000000" opacity="0.8" color-interpolation-filters="linearRGB" filter-gaussianBlur-deviation="0" color="#000000" image-rendering="auto" color-rendering="auto" stroke-width="64" color-interpolation="sRGB" solid-opacity="1" fill="none" stroke-linejoin="round" filter-blend-mode="normal" stroke="#ffffff" shape-rendering="auto"/>
 <path d="m 265,52.1 c -25,9.7 -46,29.8 -74,32 -20.4,0 -72.9,0 -47,32.6 12.7,9.8 24,38.5 39.7,39 l -20.8,17.8 c -12,-18.5 -29.7,-43 -53,-47.9 -4.5,-0.6 -9.7,2.1 -11.4,6.4 -4.4,26 -3.3,54 -19.5,77 -17.4,30 -40,64.9 -26.8,101 12.7,37.7 43.6,72 35.8,114 1.2,33 35.5,12.1 49.9,-2.5 9,-6.2 15.8,-14.8 18.4,-21.5 l 17.6,19 c -3,0.5 -6.3,2.3 -9.2,5.7 -10.7,9.5 -19.9,20.5 -30,30.5 -24.6,26 22.3,34 40.7,32.4 41.8,10.3 75,51 121,43.7 43,-5.3 79,-44 124,-37 27,2.8 24.5,-29.6 13.7,-40 -5.5,-7 -19.9,-25.7 -31,-27.9 L 418.7,412 c 5,8.4 19,18.7 24,24.5 10.3,12.2 47,24 43.6,-6.3 0.5,-25.6 9.3,-49.7 23.7,-71 16.6,-26 31.8,-58.8 18.9,-90 -12.5,-36.7 -39.6,-70 -35.6,-111 0.7,-11 -4.7,-26.3 -18.5,-23.7 -13.2,12.4 -43.1463,28.5284 -48.1463,45.5284 l -18.00947,-19.15473 c 4.9,-1 8.72829,-6.96321 13.15577,-11.17367 13.97491,-13.28991 49,-35.5 22.8,-55 C 415,94 385,92 361,74 340,60 315,46.7 290,47 c -8.4,0.1 -16.8,1.7 -25,5.1 z" id="path3575" isolation="auto" white-space="normal" mix-blend-mode="normal" fill="#734a08" color-rendering="auto" solid-opacity="1" color-interpolation-filters="linearRGB" shape-rendering="auto" image-rendering="auto" color-interpolation="sRGB" color="#000000" solid-color="#000000"/>
 <path d="M 295,63.900391 C 273,64.000391 251,74 233,87 c -22,17 -54,13 -76,18 6,19 34,27 33,49 -3,2 -4.49023,1.87305 -6.49023,1.87305 l -20.61915,17.61718 C 137.7476,196.40419 127.964,143.37781 111,149 c 3,36 -20,67 -36,97 -14,22 -15.2,50 -3,74 11,28 35,54 31,86 -1,33 25,-4 36,-11 16,-9 21.16992,-4.08008 17.16992,4.91992 l 17.64063,19.08985 C 183.81055,417.00977 190,429 176,438 c -11,9 -44,38 -10,33 48,2 81,53 131,44 42,-7 77,-44 121,-36 15,-14 -24,-28 -27,-45 2,-6 7.5293,-8.63672 12.5293,-7.63672 l 15.38086,-14.49023 C 415.91016,406.87305 415,402 427,400 c 16,6 33,43 43,25 -3,-37 23,-66 38,-97 17,-29 4,-63 -11,-90 -13,-23 -23,-49 -20,-75 -16,-15 -29,34 -50,27 -1,-4 -1,-7 0,-10 l -18,-19 c -10,2 -16.82475,-5.14106 -7,-16 9.82475,-10.85894 38,-27 26,-36 C 391,113 359,91 328,74 318,67 307,64.000391 295,63.900391 Z M 278.90234,79.193359 C 290.19809,174.26445 347.61717,152.61478 327.84961,250.50977 301.49286,186.5015 252.5456,187.44263 278.90234,79.193359 Z m -25.88672,71.539061 c 11.57815,76.24514 58.36163,80.95137 80.95313,150.60742 9.97791,-32.56891 30.78141,-43.30032 20.61523,-124.25195 102.60306,139.3121 43.95969,189.20105 23.53321,239.08984 l 6.58789,-69.65625 c -32.00463,92.24721 -57.42032,110.13129 -80.95313,130.83985 12.99011,-43.29971 17.88529,-86.59884 -8.2832,-130.83985 -6.40092,71.44452 -24.47379,56.47731 -28.05078,113.89649 -35.76987,-27.20351 -43.29949,-55.53645 -49.88867,-100.71875 -4.89483,5.3654 -13.17926,27.67436 -12.80274,52.71289 l -0.1875,0 c -26.26261,-14.77838 -42.26597,-48.94736 -30.12304,-100.71875 8.28355,-36.3341 32.47549,-80.9516 13.93164,-118.60352 22.49736,15.53142 45.84104,52.43136 69.65625,94.13086 1.60023,-45.08817 -21.64952,-74.36261 -4.98829,-136.48828 z" id="path6053" opacity="0.9" fill="#ffffff" fill-rule="evenodd"/>
</svg>
