<?xml version="1.0" encoding="UTF-8" standalone="no"?>
<svg xmlns="http://www.w3.org/2000/svg" version="1.0" width="580" height="580">
 <metadata id="metadata10"/>
 <path mix-blend-mode="normal" white-space="normal" isolation="auto" id="path4137" d="m 129,148 c -11,18 -4,43 16,53 19,11 44,5 56,-13 10,-32 -6,-59 -36,-59 -18,-1 -30,9 -36,19 z m 311,84 0,0 c 2,22 21,39 43,39 22,0 41,-18 39,-40 -1,-22 -20,-39 -42,-39 -22,0 -41,18 -40,40 z M 57,273 c -25,-2 -25.3,28 -7,32 l 63,12 c -7,11 -49,55 -24,60 13,4 48,-39 59,-53 l 134,27 c -15,31 -30,62 -45,94 l 106,0 c -14,-30 -29,-61 -43,-91 l 121,24 c 4,15 13,87 36,72 13,1 -1,-51 -2,-66 l 69,14 c 27,3 32,-27 1,-33 -7,-21 -9,-89 -31,-93 -22,-5 -52,53 -66,74 L 157,292 C 148,265 152,200 132,197.5 112,195 76,245 57,273 Z" solid-color="#000000" opacity="0.8" color-interpolation-filters="linearRGB" filter-gaussianBlur-deviation="0" color="#000000" image-rendering="auto" color-rendering="auto" stroke-width="64" color-interpolation="sRGB" solid-opacity="1" fill="none" stroke-linejoin="round" filter-blend-mode="normal" stroke="#ffffff" shape-rendering="auto"/>
 <path d="m 129,148 c -11,18 -4,43 16,53 19,11 44,5 56,-13 10,-32 -6,-59 -36,-59 -18,-1 -30,9 -36,19 z m 311,84 0,0 c 2,22 21,39 43,39 22,0 41,-18 39,-40 -1,-22 -20,-39 -42,-39 -22,0 -41,18 -40,40 z M 57,273 c -25,-2 -25.3,28 -7,32 l 63,12 c -7,11 -49,55 -24,60 13,4 48,-39 59,-53 l 134,27 c -15,31 -30,62 -45,94 l 106,0 c -14,-30 -29,-61 -43,-91 l 121,24 c 4,15 13,87 36,72 13,1 -1,-51 -2,-66 l 69,14 c 27,3 32,-27 1,-33 -7,-21 -9,-89 -31,-93 -22,-5 -52,53 -66,74 L 157,292 C 148,265 152,200 132,197.5 112,195 76,245 57,273 Z" id="path4165" isolation="auto" white-space="normal" mix-blend-mode="normal" fill="#734a08" color-rendering="auto" solid-opacity="1" color-interpolation-filters="linearRGB" shape-rendering="auto" image-rendering="auto" color-interpolation="sRGB" color="#000000" solid-color="#000000"/>
</svg>
