<?xml version="1.0" encoding="UTF-8" standalone="no"?>
<svg xmlns="http://www.w3.org/2000/svg" version="1.0" width="580" height="580">
 <metadata id="metadata1976"/>
 <path mix-blend-mode="normal" white-space="normal" isolation="auto" id="path4140" d="m 145,51.4 c -18.8,4.5 -31,23 -46.6,34 -12.9,8.3 -23.3,22.7 -11.8,37 15,32.7 27.4,70 14.5,106 -14,43.6 -39.6,86 -31.5,134 4.9,45.9 32.7,88 73,110 45,28.7 107,51 151,72.9 24.9,-11.4 33.39752,-20.51553 62,-34 50.9,-24 110,-47.7 137,-100 23,-44 22.6,-99 -0.4,-143 -14.9,-33 -34.2205,-81.20497 -22.7205,-119.20497 C 481.40745,121.55155 502.54348,105.53602 484.2,89.3 467,74 450,57 429,45 412,48.7 398,62 380,63 340,72 308,46.7 286,35 271,38.9 261,54.8 246,59 213.5,73.7 175,68 145,51.4 Z" solid-color="#000000" opacity="0.8" color-interpolation-filters="linearRGB" filter-gaussianBlur-deviation="0" color="#000000" image-rendering="auto" color-rendering="auto" fill-rule="evenodd" stroke-width="64" color-interpolation="sRGB" solid-opacity="1" fill="none" stroke-linejoin="round" filter-blend-mode="normal" stroke="#ffffff" shape-rendering="auto"/>
 <path d="m 145,51.4 c -18.8,4.5 -31,23 -46.6,34 -12.9,8.3 -23.3,22.7 -11.8,37 15,32.7 27.4,70 14.5,106 -14,43.6 -39.6,86 -31.5,134 4.9,45.9 32.7,88 73,110 45,28.7 107,51 151,72.9 24.9,-11.4 33.39752,-20.51553 62,-34 50.9,-24 110,-47.7 137,-100 23,-44 22.6,-99 -0.4,-143 -14.9,-33 -34.2205,-81.20497 -22.7205,-119.20497 C 481.40745,121.55155 502.54348,105.53602 484.2,89.3 467,74 450,57 429,45 412,48.7 398,62 380,63 340,72 308,46.7 286,35 271,38.9 261,54.8 246,59 213.5,73.7 175,68 145,51.4 Z" id="path4158" isolation="auto" white-space="normal" mix-blend-mode="normal" fill="#734a08" color-rendering="auto" solid-opacity="1" color-interpolation-filters="linearRGB" shape-rendering="auto" image-rendering="auto" color-interpolation="sRGB" color="#000000" solid-color="#000000"/>
 <path d="m 444.8,74.9 c 24.78695,22.245963 43.44099,26.48199 24.24099,48.16149 C 452.0795,153.9795 449.1,193.9 462.6,228.9 c 11.7,35.8 35,69 34.5,108 1.6,43.9 -19.5,88 -56,112 -45,33 -82.9441,37.53354 -151,80 C 234,493 169,482 120,436 81,397 72,334 95,285 c 36,-71 35,-101 0,-177 16,-15 32,-28.1 48,-42 43,25 102,20.6 139,-13 40.9,20 77,33.7 119,19.7 16.3,-7.6 23.49503,-20.022981 43.8,2.2 z" id="path4150" isolation="auto" white-space="normal" mix-blend-mode="normal" opacity="0.9" fill="#ffffff" color-rendering="auto" solid-opacity="1" color-interpolation-filters="linearRGB" shape-rendering="auto" image-rendering="auto" color-interpolation="sRGB" color="#000000" solid-color="#000000"/>
 <path d="m 209.3,113.2 c -7.3,-5.6 -16.5,-1.6 -20.3,3.5 l -16.6,23.8 c -5.8,12.4 -3,20 7.3,25.9 l 8,24 c -5.3,7.4 -1,24.6 0.5,37 -14.8,5 -35.6,14.8 -38,30 -0.8,6.6 -2.2,14.2 0.5,19.7 18,20.2 47.9,25 74,23.7 24.7,28.5 12.4,76 -11.7,90 -8.4,4.3 -16.4,0.7 -24,2.5 -29.7,5.4 -29.5,42.6 -0.2,48 68,1.1 103,-87 80,-140 -6.3,-14 -15,-25.6 -25.4,-34.5 -2.5,-12 -14.2,-24 -24,-32.5 3.6,-16.3 -3,-44 -12.9,-50 l -8,-24.5 c 4.9,-9.4 13,-18.4 18.5,-27 l 17.9,-1.7 c 9.6,8 18.7,16 28,21.8 -1.8,13.2 -2.4,30 3.4,40.7 -4.9,91 70,122 120,107 13.9,-4.7 23.4,-8.7 31.5,-19.4 17.7,-24.8 -12.4,-50.6 -31,-35 -6.9,4.4 -10.4,12.9 -19.2,15.8 -43.8,7.7 -66,-21.5 -65.9,-56.6 23,-15.9 44,-52 38,-72 -15.9,-23.7 -32.6,-22.5 -59.7,-7.2 -7.7,-5.9 -15.6,-11.7 -23.4,-17.5 -7.3,-5.7 -15.7,-4.6 -21.8,2.7 -9,0.3 -17.2,1.2 -25.5,1.8 z m 55.9,27.8 c -5,-2 -13,-8.1 -17,-12.7 2.5,-2.5 4.8,-4.9 3.8,-8 6.7,4.9 12.5,7.9 18.25,12.05 1.95,0.65 -4.65,6.95 -5.05,8.65 z m -60.7,-8.9 c -1.5,5 -7.7,14.2 -12.2,18.6 -3.1,-2 -5.7,-3.2 -8.3,-0.7 4.1,-8.5 9,-18.6 15.35,-23.4 1.05,2.2 2.85,4.2 5.15,5.5 z m -4.1,92.8 c -2.1,-6.2 -3.2,-17.7 -1.9,-22.4 2.7,1.2 4.6,-0.2 6.2,-2.3 3.5,7.3 5.8,17.5 3.75,25.35 -2.75,-2.15 -5.25,-1.35 -8.05,-0.65 z" id="rect3389" fill="#734a08"/>
 <path d="m 189.9,396.5 c -69,-6.3 -69.9,-102 -3.1,-111 l -6,-33.5 C 63,269 86,434 187,438 Z" id="path3325" opacity="0.8" fill="#734a08"/>
 <path id="path3556" d="M 387,250 C 439,193 359.2,135 318,167 L 301,138 C 402,79 492,209 416,278.5 Z" opacity="0.8" fill="#734a08"/>
</svg>
