<?xml version="1.0" encoding="UTF-8" standalone="no"?>
<svg xmlns="http://www.w3.org/2000/svg" version="1.0" width="580" height="580">
 <metadata id="metadata2975"/>
 <path white-space="normal" isolation="auto" mix-blend-mode="normal" id="path4144" d="M 32,290 C 32,432 148,548 290,548 432,548 548,432 548,290 548,148 432,32 290,32 148,32 32,148 32,290 Z" solid-color="#000000" opacity="0.8" color-interpolation-filters="linearRGB" filter-gaussianBlur-deviation="0" color="#000000" image-rendering="auto" color-rendering="auto" stroke-width="64" color-interpolation="sRGB" solid-opacity="1" fill="none" stroke-linejoin="round" filter-blend-mode="normal" stroke="#ffffff" shape-rendering="auto"/>
 <path d="M 32,290 C 32,432 148,548 290,548 432,548 548,432 548,290 548,148 432,32 290,32 148,32 32,148 32,290 Z" id="path4183" mix-blend-mode="normal" isolation="auto" white-space="normal" fill="#ac39ac" color-rendering="auto" solid-opacity="1" color-interpolation-filters="linearRGB" shape-rendering="auto" image-rendering="auto" color-interpolation="sRGB" color="#000000" solid-color="#000000"/>
 <path d="M 525,290 C 525,420 420,525 290,525 160,525 55,420 55,290 55,160 160,55 290,55 420,55 525,160 525,290 Z" id="circle4177" mix-blend-mode="normal" isolation="auto" white-space="normal" opacity="0.8" fill="#ffffff" color-rendering="auto" solid-opacity="1" color-interpolation-filters="linearRGB" shape-rendering="auto" image-rendering="auto" color-interpolation="sRGB" color="#000000" solid-color="#000000"/>
 <path d="M 122 163 L 122 417 L 457 417 L 457 163 L 122 163 z M 163 187 L 417 187.19922 L 310 293 C 304.7 298.3 298 301 290 301 C 281.6 301 274.59961 298.19961 269.09961 292.59961 L 163 187 z M 146 203 L 233 290 L 146 377 L 146 203 z M 434 203 L 434 377 L 347 290 L 434 203 z M 249 307 C 260.29741 318.49378 276.25955 325.22887 289.30078 325.40039 C 307.93883 323.32024 317.64861 318.35139 329 307 L 416 394 L 161 394 L 249 307 z " id="path4145" fill="#ac39ac"/>
</svg>
