<?xml version="1.0" encoding="UTF-8" standalone="no"?>
<svg xmlns="http://www.w3.org/2000/svg" version="1.0" width="580" height="580">
 <metadata id="metadata2975"/>
 <path id="path4146" d="m 184.2,239 -100,0 40.7,23.6 -25,43 c -4.23491,8.05447 -3.850557,17.30188 0,24.6 l 39.6,69 c 1.8,-5 3.6,-9.3 5.4,-12.9 l 49,-85 40.05,24.15 z" mix-blend-mode="normal" solid-color="#000000" opacity="0.8" color-interpolation-filters="linearRGB" filter-gaussianBlur-deviation="0" color="#000000" image-rendering="auto" color-rendering="auto" stroke-width="64" isolation="auto" color-interpolation="sRGB" solid-opacity="1" fill="none" stroke-linejoin="round" filter-blend-mode="normal" stroke="#ffffff" shape-rendering="auto"/>
 <path id="path4148" d="m 164.4,430.8 c 5.9,5.7 12.9,8.6 21,8.6 l 99,0 0,-80 -104,0 c -6.78203,11.95881 -12.71982,22.08356 -20.4,35.4 -7.18414,12.33935 -4.47208,27.18332 4.4,36 z" mix-blend-mode="normal" solid-color="#000000" opacity="0.8" color-interpolation-filters="linearRGB" filter-gaussianBlur-deviation="0" color="#000000" image-rendering="auto" color-rendering="auto" stroke-width="64" isolation="auto" color-interpolation="sRGB" solid-opacity="1" fill="none" stroke-linejoin="round" filter-blend-mode="normal" stroke="#ffffff" shape-rendering="auto"/>
 <path id="path4150" d="m 293.1,196.7 100,0 50,-87 -40.7,23.6 -25,-43 C 372,83 365,79 356,79 l -79,0 c 3.2,3.6 5.9,7.1 8,10.7 l 48.7,85 z" mix-blend-mode="normal" solid-color="#000000" opacity="0.8" color-interpolation-filters="linearRGB" filter-gaussianBlur-deviation="0" color="#000000" image-rendering="auto" color-rendering="auto" stroke-width="64" isolation="auto" color-interpolation="sRGB" solid-opacity="1" fill="none" stroke-linejoin="round" filter-blend-mode="normal" stroke="#ffffff" shape-rendering="auto"/>
 <path id="path4152" d="m 218.3,98 -49.8,86 c 18.9,11 41.9,24.3 69,39.6 16,-27.5 33.4,-57 51.9,-90 L 270,98 C 264.3,88 255.7,83 244.15,83 232.6,83 224,88 218.3,98 Z" mix-blend-mode="normal" solid-color="#000000" opacity="0.8" color-interpolation-filters="linearRGB" filter-gaussianBlur-deviation="0" color="#000000" image-rendering="auto" color-rendering="auto" stroke-width="64" isolation="auto" color-interpolation="sRGB" solid-opacity="1" fill="none" stroke-linejoin="round" filter-blend-mode="normal" stroke="#ffffff" shape-rendering="auto"/>
 <path id="path4154" d="m 372.3,312.5 -49.8,87 49.8,86 0,-46.6 49.8,0 c 9.6,0 16.9,-4.1 21.9,-12.3 l 39.6,-69 c -5.4,1.4 -9.8,2.1 -13.4,2.1 l -97.95,-0.6 c 0.0935,-15.53311 0.05,-31.06668 0.05,-46.6 z" mix-blend-mode="normal" solid-color="#000000" opacity="0.8" color-interpolation-filters="linearRGB" filter-gaussianBlur-deviation="0" color="#000000" image-rendering="auto" color-rendering="auto" stroke-width="64" isolation="auto" color-interpolation="sRGB" solid-opacity="1" fill="none" stroke-linejoin="round" filter-blend-mode="normal" stroke="#ffffff" shape-rendering="auto"/>
 <path id="path4156" d="m 377.1,251.8 c 22,38 39.6,68 53,91 l 40,0 c 11.8,0 20.5,-5 26,-15 5.4,-9.6 5.2,-19.4 -0.5,-29.4 l -49.25,-86.1 c -2.05,1 -25.05,14.2 -69.25,39.5 z" mix-blend-mode="normal" solid-color="#000000" opacity="0.8" color-interpolation-filters="linearRGB" filter-gaussianBlur-deviation="0" color="#000000" image-rendering="auto" color-rendering="auto" stroke-width="64" isolation="auto" color-interpolation="sRGB" solid-opacity="1" fill="none" stroke-linejoin="round" filter-blend-mode="normal" stroke="#ffffff" shape-rendering="auto"/>
 <path d="m 184.2,239 -100,0 40.7,23.6 -25,43 c -4.23491,8.05447 -3.850557,17.30188 0,24.6 l 39.6,69 c 1.8,-5 3.6,-9.3 5.4,-12.9 l 49,-85 40.05,24.15 z" id="path4144" fill="#734a08"/>
 <path d="m 164.4,430.8 c 5.9,5.7 12.9,8.6 21,8.6 l 99,0 0,-80 -104,0 c -6.78203,11.95881 -12.71982,22.08356 -20.4,35.4 -7.18414,12.33935 -4.47208,27.18332 4.4,36 z" id="path4142" fill="#734a08"/>
 <path d="m 293.1,196.7 100,0 50,-87 -40.7,23.6 -25,-43 C 372,83 365,79 356,79 l -79,0 c 3.2,3.6 5.9,7.1 8,10.7 l 48.7,85 z" id="path4140" fill="#734a08"/>
 <path d="m 218.3,98 -49.8,86 c 18.9,11 41.9,24.3 69,39.6 16,-27.5 33.4,-57 51.9,-90 L 270,98 C 264.3,88 255.7,83 244.15,83 232.6,83 224,88 218.3,98 Z" id="path4138" fill="#734a08"/>
 <path d="m 372.3,312.5 -49.8,87 49.8,86 0,-46.6 49.8,0 c 9.6,0 16.9,-4.1 21.9,-12.3 l 39.6,-69 c -5.4,1.4 -9.8,2.1 -13.4,2.1 l -97.95,-0.6 c 0.0935,-15.53311 0.05,-31.06668 0.05,-46.6 z" id="path4136" fill="#734a08"/>
 <path d="m 377.1,251.8 c 22,38 39.6,68 53,91 l 40,0 c 11.8,0 20.5,-5 26,-15 5.4,-9.6 5.2,-19.4 -0.5,-29.4 l -49.25,-86.1 c -2.05,1 -25.05,14.2 -69.25,39.5 z" id="flowRoot3192" fill="#734a08"/>
</svg>
