<?xml version="1.0" encoding="UTF-8" standalone="no"?>
<svg xmlns="http://www.w3.org/2000/svg" version="1.0" width="580" height="580">
 <metadata id="metadata2975"/>
 <path id="path4146" d="M 188,205 C 51,396 105,494 127,509 l 89,-128 c -18,-12 -8,-34 16,-77 16,-28 38,-61 64,-91 18,-21 38,-41 56,-28 L 443,54.9 C 437,51 424,47 406,48 360,47.7 281,75 188,205 Z" mix-blend-mode="normal" solid-color="#000000" opacity="0.8" color-interpolation-filters="linearRGB" filter-gaussianBlur-deviation="0" color="#000000" image-rendering="auto" color-rendering="auto" stroke-width="64" isolation="auto" color-interpolation="sRGB" solid-opacity="1" fill="none" stroke-linejoin="round" filter-blend-mode="normal" stroke="#ffffff" shape-rendering="auto"/>
 <path id="path4148" d="m 362,192 40,28 c 4,3 15,1 17.5,-3 L 493,111 c 6,-8 4,-19 -4,-24 L 453,61.8 Z" mix-blend-mode="normal" solid-color="#000000" opacity="0.8" color-interpolation-filters="linearRGB" filter-gaussianBlur-deviation="0" color="#000000" image-rendering="auto" color-rendering="auto" stroke-width="64" isolation="auto" color-interpolation="sRGB" solid-opacity="1" fill="none" stroke-linejoin="round" filter-blend-mode="normal" stroke="#ffffff" shape-rendering="auto"/>
 <path id="path4150" d="m 137,516 40,28 c 4,3 15,0 17.5,-4 L 266,437 c 6,-8 3,-18 -4,-24 l -36,-25 z" mix-blend-mode="normal" solid-color="#000000" opacity="0.8" color-interpolation-filters="linearRGB" filter-gaussianBlur-deviation="0" color="#000000" image-rendering="auto" color-rendering="auto" stroke-width="64" isolation="auto" color-interpolation="sRGB" solid-opacity="1" fill="none" stroke-linejoin="round" filter-blend-mode="normal" stroke="#ffffff" shape-rendering="auto"/>
 <path d="M 188,205 C 51,396 105,494 127,509 l 89,-128 c -18,-12 -8,-34 16,-77 16,-28 38,-61 64,-91 18,-21 38,-41 56,-28 L 443,54.9 C 437,51 424,47 406,48 360,47.7 281,75 188,205 Z" id="path4152" mix-blend-mode="normal" solid-color="#000000" opacity="0.8" color-interpolation-filters="linearRGB" filter-gaussianBlur-deviation="0" color="#000000" image-rendering="auto" color-rendering="auto" stroke-width="64" isolation="auto" color-interpolation="sRGB" solid-opacity="1" fill="none" stroke-linejoin="round" filter-blend-mode="normal" stroke="#ffffff" shape-rendering="auto"/>
 <path d="m 362,192 40,28 c 4,3 15,1 17.5,-3 L 493,111 c 6,-8 4,-19 -4,-24 L 453,61.8 Z" id="path4154" mix-blend-mode="normal" solid-color="#000000" opacity="0.8" color-interpolation-filters="linearRGB" filter-gaussianBlur-deviation="0" color="#000000" image-rendering="auto" color-rendering="auto" stroke-width="64" isolation="auto" color-interpolation="sRGB" solid-opacity="1" fill="none" stroke-linejoin="round" filter-blend-mode="normal" stroke="#ffffff" shape-rendering="auto"/>
 <path d="m 137,516 40,28 c 4,3 15,0 17.5,-4 L 266,437 c 6,-8 3,-18 -4,-24 l -36,-25 z" id="path4156" mix-blend-mode="normal" solid-color="#000000" opacity="0.8" color-interpolation-filters="linearRGB" filter-gaussianBlur-deviation="0" color="#000000" image-rendering="auto" color-rendering="auto" stroke-width="64" isolation="auto" color-interpolation="sRGB" solid-opacity="1" fill="none" stroke-linejoin="round" filter-blend-mode="normal" stroke="#ffffff" shape-rendering="auto"/>
 <path d="M 188,205 C 51,396 105,494 127,509 l 89,-128 c -18,-12 -8,-34 16,-77 16,-28 38,-61 64,-91 18,-21 38,-41 56,-28 L 443,54.9 C 437,51 424,47 406,48 360,47.7 281,75 188,205 Z" id="path4138" fill="#734a08"/>
 <path d="m 362,192 40,28 c 4,3 15,1 17.5,-3 L 493,111 c 6,-8 4,-19 -4,-24 L 453,61.8 Z" id="path4136" fill="#734a08"/>
 <path d="m 137,516 40,28 c 4,3 15,0 17.5,-4 L 266,437 c 6,-8 3,-18 -4,-24 l -36,-25 z" id="path1333" fill="#734a08"/>
 <path id="path4140" d="M 188,205 C 51,396 105,494 127,509 l 89,-128 c -18,-12 -8,-34 16,-77 16,-28 38,-61 64,-91 18,-21 38,-41 56,-28 L 443,54.9 C 437,51 424,47 406,48 360,47.7 281,75 188,205 Z" fill="#734a08"/>
 <path id="path4142" d="m 362,192 40,28 c 4,3 15,1 17.5,-3 L 493,111 c 6,-8 4,-19 -4,-24 L 453,61.8 Z" fill="#734a08"/>
 <path id="path4144" d="m 137,516 40,28 c 4,3 15,0 17.5,-4 L 266,437 c 6,-8 3,-18 -4,-24 l -36,-25 z" fill="#734a08"/>
</svg>
