<?xml version="1.0" encoding="UTF-8" standalone="no"?>
<svg xmlns="http://www.w3.org/2000/svg" version="1.0" width="580" height="580">
 <metadata id="metadata2975"/>
 <path id="path4145" d="M 543,290 A 253,253 0 0 1 290,543 253,253 0 0 1 37,290 253,253 0 0 1 290,37 253,253 0 0 1 543,290 Z" mix-blend-mode="normal" solid-color="#000000" opacity="0.8" color-interpolation-filters="linearRGB" filter-gaussianBlur-deviation="0" color="#000000" image-rendering="auto" color-rendering="auto" stroke-width="64" isolation="auto" color-interpolation="sRGB" solid-opacity="1" fill="none" stroke-linejoin="round" filter-blend-mode="normal" stroke="#ffffff" shape-rendering="auto"/>
 <path d="M 543,290 A 253,253 0 0 1 290,543 253,253 0 0 1 37,290 253,253 0 0 1 290,37 253,253 0 0 1 543,290 Z" id="path3267" fill="#734a08"/>
 <path d="m 305.6,471 0,-361 -28.6,0 0,361 z" id="path4143" fill="#ffffff"/>
 <path d="m 133.2,176 c -9,0 -17,3.2 -24.3,9.7 -5.4,5 -9,10.6 -10.8,16.8 l -24.9,83 c -3.3816,9.92675 3.72505,17.15425 11.3,17.3 5.8,0 9.6,-3.2 11.4,-9.7 l 22.7,-76 12.4,0 -37,135 36,0 0,105 c 0,9.4 4.5,14 13.5,14 9,0 13.5,-4.7 13.5,-14 l 0,-105 13.5,0 0,106 c 0,9 4.5,13.5 13.5,13.5 9,0 13.5,-4.5 13.5,-13.5 l 0,-105 36,0 -37.8,-135 13,0 22.7,76 c 1.8,6.5 5.6,9.7 11.3,9.7 10.17001,-1.81294 15.15147,-8.88598 11.3,-17.3 l -24.9,-83 c -1.8,-5.8 -5.9,-11.4 -12.4,-16.8 -7.9,-6.5 -16.6,-9.7 -25.8,-10.2 z" id="path4141" fill="#ffffff"/>
 <path d="m 192.9,142 c -1.30386,-17.62038 -13.69624,-29.38975 -29.7,-29.6 -17.28496,1.33431 -28.98803,13.98417 -29.2,29.6 1.32728,16.94133 13.77172,28.88968 29.2,29.1 17.16182,-1.21895 29.4786,-13.38168 29.7,-29.1 z" id="path4139" fill="#ffffff"/>
 <path d="m 445.3,141.4 c -1.23748,-17.25187 -13.38979,-28.98634 -29.1,-29.2 -17.3663,1.32487 -28.89595,13.49205 -29.1,29.2 1.28754,16.8883 13.71941,28.98335 29.1,29.2 16.94133,-1.32728 28.88968,-13.77172 29.1,-29.2 z" id="path4137" fill="#ffffff"/>
 <path d="m 377.2,176.5 c -10.4,0 -19.4,3.7 -26.8,11 -7.4,7.4 -11,16.5 -11,27.3 l 0,90 c 0,8.6 4,13 11.9,13 7.6,0 11.4,-4.3 11.4,-13 l 0,-87 14,0 0,238 c 0,10.8 5.4,16.2 16.2,16.2 10.8,0 16.2,-5.4 16.2,-16.2 l 0,-138 14,0 0,138 c 0,10.8 5.4,16.2 16.2,16.2 11.2,0 16.8,-5.4 16.8,-16.2 l 0,-238 13.5,0 0,88 c 0,9 3.8,13.5 11.4,13.5 7.6,0 11.4,-4.5 11.4,-13.5 l 0,-89 c 0,-10.4 -3.5,-19.5 -10.5,-27.3 -7,-7.8 -16,-11.6 -27.5,-12.3 z" id="flowRoot3192" fill="#ffffff"/>
</svg>
