<?xml version="1.0" encoding="UTF-8" standalone="no"?>
<svg xmlns="http://www.w3.org/2000/svg" xmlns:sodipodi="http://sodipodi.sourceforge.net/DTD/sodipodi-0.dtd" xmlns:inkscape="http://www.inkscape.org/namespaces/inkscape" version="1.0" width="580" height="580">
 <metadata id="metadata2975"/>
 <defs id="defs4">
  <symbol viewBox="244.5 110 489 219.9" id="symbol-university">
   <path id="path4460" d="M79,43l57,119c0,0,21-96,104-96s124,106,124,106l43-133l82-17L0,17L79,43z"/>
   <path id="path4462" d="M94,176l-21,39" stroke-width="20" stroke="#000000" fill="none"/>
   <path id="path4464" d="M300,19c0,10.5-22.6,19-50.5,19S199,29.5,199,19s22.6-19,50.5-19S300,8.5,300,19z"/>
   <path id="path4466" d="M112,216l-16-38L64,88c0,0-9-8-4-35s16-24,16-24" stroke-width="20" stroke="#000000" ill="none"/>
  </symbol>
 </defs>
 <g id="g1327">
  <path d="M 66.275,1.768 C 24.94,1.768 1.704,23.139 1.704,66.804 L 1.704,516.927 C 1.704,557.771 22.599,579.156 63.896,579.156 L 515.92,579.156 C 557.227,579.156 578.149,558.841 578.149,516.927 L 578.149,66.804 C 578.149,24.203 557.227,1.768 514.628,1.768 C 514.624,1.768 66.133,1.625 66.275,1.768 z" id="path1329" fill="#666666" stroke="#eeeeee" stroke-width="3.408"/>
 </g>
 <g transform="translate(-9.2012672,4.4650424)" id="g2325">
  <line x1="221.75" y1="147" x2="155.75" y2="491.86" id="line6215" fill="none" stroke="#ffffff" stroke-linejoin="round" stroke-linecap="round" stroke-width="50"/>
  <line x1="79.945" y1="499.45" x2="79.945" y2="211.91" id="line6217" fill="none" stroke="#ffffff" stroke-linejoin="round" stroke-linecap="round" stroke-width="35"/>
  <line x1="82.15" y1="255.08" x2="207.54" y2="255.08" id="line6219" fill="none" stroke="#ffffff" stroke-linejoin="round" stroke-linecap="round" stroke-width="35"/>
  <line x1="382.55" y1="147" x2="448.55" y2="491.86" id="line6221" fill="none" stroke="#ffffff" stroke-linejoin="round" stroke-linecap="round" stroke-width="50"/>
  <line x1="524.35" y1="499.45" x2="524.35" y2="211.91" id="line6223" fill="none" stroke="#ffffff" stroke-linejoin="round" stroke-linecap="round" stroke-width="35"/>
  <line x1="522.15" y1="255.08" x2="396.75" y2="255.08" id="line6225" fill="none" stroke="#ffffff" stroke-linejoin="round" stroke-linecap="round" stroke-width="35"/>
 </g>
</svg>
