<?xml version="1.0" encoding="UTF-8" standalone="no"?>
<svg xmlns="http://www.w3.org/2000/svg" xmlns:sodipodi="http://sodipodi.sourceforge.net/DTD/sodipodi-0.dtd" xmlns:inkscape="http://www.inkscape.org/namespaces/inkscape" version="1.0" width="580" height="580">
 <metadata id="metadata2975"/>
 <defs id="defs4">
  <symbol viewBox="244.5 110 489 219.9" id="symbol-university">
   <path id="path4460" d="M79,43l57,119c0,0,21-96,104-96s124,106,124,106l43-133l82-17L0,17L79,43z"/>
   <path id="path4462" d="M94,176l-21,39" stroke-width="20" stroke="#000000" fill="none"/>
   <path id="path4464" d="M300,19c0,10.5-22.6,19-50.5,19S199,29.5,199,19s22.6-19,50.5-19S300,8.5,300,19z"/>
   <path id="path4466" d="M112,216l-16-38L64,88c0,0-9-8-4-35s16-24,16-24" stroke-width="20" stroke="#000000" ill="none"/>
  </symbol>
 </defs>
 <g id="g1327">
  <path d="M 66.275,1.768 C 24.94,1.768 1.704,23.139 1.704,66.804 L 1.704,516.927 C 1.704,557.771 22.599,579.156 63.896,579.156 L 515.92,579.156 C 557.227,579.156 578.149,558.841 578.149,516.927 L 578.149,66.804 C 578.149,24.203 557.227,1.768 514.628,1.768 C 514.624,1.768 66.133,1.625 66.275,1.768 z" id="path1329" fill="#0092DA" stroke="#eeeeee" stroke-width="3.408"/>
 </g>
 <path sodipodi:nodetypes="cc" id="path15803" d="M 134.69281,73.992992 L 55.840019,152.84578" fill="none" fill-rule="evenodd" stroke="#ffffff" stroke-linecap="round" stroke-width="19.2"/>
 <path sodipodi:nodetypes="cc" id="path15805" d="M 241.42628,44.008171 L 162.5735,122.86096" fill="none" fill-rule="evenodd" stroke="#ffffff" stroke-linecap="round" stroke-width="19.2"/>
 <path sodipodi:nodetypes="cc" id="path15807" d="M 114.62614,184.10203 L 52.744667,245.98349" fill="none" fill-rule="evenodd" stroke="#ffffff" stroke-linecap="round" stroke-width="19.2"/>
 <path sodipodi:nodetypes="cc" id="path15809" d="M 275.86078,105.04094 L 197.008,183.89373" fill="none" fill-rule="evenodd" stroke="#ffffff" stroke-linecap="round" stroke-width="19.2"/>
 <path sodipodi:nodetypes="cc" id="path15813" d="M 456.75653,87.944376 L 377.90375,166.79717" fill="none" fill-rule="evenodd" stroke="#ffffff" stroke-linecap="round" stroke-width="19.2"/>
 <path sodipodi:nodetypes="cc" id="path15815" d="M 546.20521,80.62071 L 487.85946,136.84506" fill="none" fill-rule="evenodd" stroke="#ffffff" stroke-linecap="round" stroke-width="19.2"/>
 <path sodipodi:nodetypes="cc" id="path15819" d="M 548.32665,157.79575 L 487.85944,216.84866" fill="none" fill-rule="evenodd" stroke="#ffffff" stroke-linecap="round" stroke-width="19.2"/>
 <path sodipodi:nodetypes="cc" id="path15821" d="M 446.74834,185.50249 L 419.51667,210.61275" fill="none" fill-rule="evenodd" stroke="#ffffff" stroke-linecap="round" stroke-width="19.2"/>
 <path sodipodi:nodetypes="cc" id="path15823" d="M 353.96491,119.46757 L 314.71189,157.30632" fill="none" fill-rule="evenodd" stroke="#ffffff" stroke-linecap="round" stroke-width="19.2"/>
 <path sodipodi:nodetypes="cc" id="path15825" d="M 370.55596,33.1566 L 324.23155,80.89529" fill="none" fill-rule="evenodd" stroke="#ffffff" stroke-linecap="round" stroke-width="19.2"/>
 <g id="g5417" transform="matrix(0.8724801,0,0,0.8724801,43.27383,78.888966)">
  <path d="M 48.288912,272.40193 L 288.29972,144.39616 L 528.31052,272.40193 L 512.24025,288.7664 L 431.99984,256.40121 L 288.21392,239.09639 L 144.09958,256.1512 L 64.279091,288.40647 L 48.288912,272.40193 z" id="path7057" sodipodi:nodetypes="ccccccccc" fill="#ffffff" fill-rule="evenodd" stroke="#ffffff" stroke-linejoin="round" stroke-linecap="round" stroke-width="21.459"/>
  <rect id="rect7061" width="30.829" height="258.64" x="415" y="255.09" fill="#ffffff" stroke="#ffffff" stroke-linejoin="round" stroke-linecap="round" stroke-width="22.631" rx="0"/>
  <rect y="255.09" x="129" height="258.64" width="30.829" id="rect2747" fill="#ffffff" stroke="#ffffff" stroke-linejoin="round" stroke-linecap="round" stroke-width="22.631" rx="0"/>
 </g>
</svg>
