<?xml version="1.0" encoding="UTF-8" standalone="no"?>
<svg xmlns="http://www.w3.org/2000/svg" xmlns:sodipodi="http://sodipodi.sourceforge.net/DTD/sodipodi-0.dtd" xmlns:inkscape="http://www.inkscape.org/namespaces/inkscape" version="1.0" width="580" height="580">
 <metadata id="metadata2975"/>
 <g id="g1327">
  <path d="M 66.275,1.768 C 24.94,1.768 1.704,23.139 1.704,66.804 L 1.704,516.927 C 1.704,557.771 22.599,579.156 63.896,579.156 L 515.92,579.156 C 557.227,579.156 578.149,558.841 578.149,516.927 L 578.149,66.804 C 578.149,24.203 557.227,1.768 514.628,1.768 C 514.624,1.768 66.133,1.625 66.275,1.768 z " id="path1329" fill="#111" stroke="#eee" stroke-width="3.408"/>
 </g>
 <rect id="rect3585" width="168.92" height="168.92" x="207.06" y="373" opacity=".25" fill="#ffffff" stroke="#ffffff" stroke-linejoin="round" stroke-linecap="round" stroke-width="20.14" rx="0"/>
 <rect y="373" x="207.06" height="168.92" width="168.92" id="rect3587" fill="none" stroke="#ffffff" stroke-linejoin="round" stroke-linecap="round" stroke-width="20.14" rx="0"/>
 <path sodipodi:nodetypes="csssssscccsssssssssssssssssssssscccsccsscccssccsssssssssccscccsccc" id="path1873" d="M 233.54049,347.62872 C 213.75971,342.46687 196.65989,332.13347 180.58034,315.62495 C 154.96822,289.32955 140.97921,261.18805 132.69544,219.29547 C 127.97071,195.40161 127.96268,194.82006 132.3137,191.6385 C 141.22682,185.12106 144.74973,187.46976 147.73968,201.92289 C 163.32192,277.24567 212.13578,326.21161 259.62247,314.15426 C 273.78502,310.55824 287.29626,296.96205 291.36071,282.21644 C 296.60146,263.20329 287.36895,230.34773 271.32042,210.89935 L 265.61709,203.9878 L 255.97615,213.92213 C 245.78068,224.42787 233.21595,233.08707 228.14604,233.10173 C 225.0976,233.11056 211.17953,204.95934 211.17953,198.78466 C 211.17953,196.97637 217.79955,192.4703 225.89069,188.77121 C 248.59692,178.39041 258.25522,166.69799 258.25522,149.59045 C 258.25522,138.45705 256.29252,134.57469 248.67174,130.63384 C 238.85908,125.55951 222.52035,126.42735 202.71829,133.07469 C 193.07707,136.31115 184.6372,138.95916 183.96301,138.95916 C 182.22773,138.95916 168.81141,108.59734 168.81141,104.67031 C 168.81141,97.933468 183.36218,93.32916 207.64886,92.380938 C 229.92373,91.511261 231.87902,91.825962 244.08949,98.246192 C 259.43529,106.31499 270.84413,120.28571 275.84826,137.13646 C 279.92965,150.87997 280.51704,168.77094 277.17544,177.56002 C 273.61654,186.92062 278.14282,186.99335 290.2264,177.76974 C 303.42934,167.69173 312.36023,163.74225 326.86536,161.56707 C 337.32426,159.99867 337.84033,159.54234 340.69796,149.33584 C 347.51869,124.97462 365.58474,110.59457 389.80101,110.2512 C 407.87841,109.99487 418.04158,113.71169 428.47247,124.39389 C 442.24256,138.49574 447.17416,155.51904 448.37539,193.0962 C 449.86642,239.73936 443.6022,264.9502 425.35879,285.72833 C 409.63346,303.63849 384.89655,310.25808 365.59648,301.72074 C 349.30862,294.51585 345.01212,283.33618 343.14263,243.29515 C 341.9417,217.57316 340.94094,211.45534 337.27083,207.39994 C 331.59195,201.12484 328.10423,201.2696 312.74898,208.41785 L 300.15989,214.2784 L 305.21177,221.92914 C 338.0315,271.63231 331.2354,325.75439 289.87721,344.04908 C 276.85241,349.81056 248.74542,351.59649 233.54049,347.62872 z M 403.65009,263.70594 C 420.619,253.35996 431.85542,224.27909 429.3899,197.08899 C 427.77836,179.31651 417.43214,158.36747 406.78402,151.31652 C 392.36822,141.7707 372.56646,144.91301 359.58642,158.8062 L 353.82045,164.97782 L 358.34454,172.56409 C 362.109,178.87656 362.99412,185.68354 363.61587,213.10337 C 364.48889,251.60321 364.84749,253.87543 371.35657,262.1504 C 377.5611,270.03817 392.11453,270.73919 403.65009,263.70594 z M 286.51333,104.43384 C 280.69468,102.3981 271.52115,97.696372 266.12772,93.985583 C 255.35849,86.576176 234.71738,64.131051 234.71738,59.830052 C 234.71738,58.338482 237.4288,55.341526 240.74274,53.170136 C 246.64092,49.305504 246.96939,49.403987 256.30229,57.835714 C 268.66992,69.009129 280.06803,73.66515 295.13521,73.698644 C 308.63506,73.728655 324.89286,65.904416 333.15448,55.401453 C 335.701,52.164081 338.57709,49.515344 339.54579,49.515344 C 341.41947,49.515344 366.46173,70.11995 369.51958,74.177569 C 372.46744,78.089229 348.05053,98.475051 334.21934,103.64999 C 319.26122,109.24653 301.12096,109.54459 286.51333,104.43384 z M 287.34106,51.792348 C 281.0532,45.171317 275.61335,38.946216 275.25249,37.95878 C 274.89161,36.971344 280.01963,31.090578 286.6481,24.890427 L 298.69986,13.617424 L 311.23557,25.997436 C 318.13023,32.80644 323.20372,39.559471 322.50999,41.004154 C 321.81628,42.448859 316.19177,48.175805 310.01111,53.730737 L 298.77353,63.830567 L 287.34106,51.792348 z" fill="#ffffff"/>
</svg>
