<?xml version="1.0" encoding="UTF-8" standalone="no"?>
<svg xmlns="http://www.w3.org/2000/svg" width="580" height="580" version="1.0">
 <metadata id="metadata7"/>
 <path id="path4141" d="M 72.400391 148.19922 L 72 244 L 144 244 L 144 292 L 48 292 L 48 349 L 77.699219 363.30078 L 102.59961 363.30078 C 97.999609 371.00078 96 380 96 388 C 96 414.5 117.5 436 144 436 C 170.5 436 192 414.5 192 388 C 192 379.5 189.70039 371.1 185.40039 364 C 255.40039 364.1 324.40039 364.1 394.40039 364 C 390.10039 371.3 387.80078 379.7 387.80078 388 C 387.80078 414.5 409.30078 436 435.80078 436 C 462.30078 436 483.80078 414.5 483.80078 388 C 483.80078 379.5 481.49922 371.09922 477.19922 363.69922 L 502.09961 363.69922 L 531.80078 349.40039 L 531.80078 292.40039 L 435.80078 292.40039 L 435.80078 244.40039 L 507.80078 244.40039 L 507.80078 148.40039 L 72.400391 148.19922 z M 168.80078 244.40039 L 411.80078 244.40039 L 411.80078 292.40039 C 330.00078 292.00039 249 292 168 292 L 168.80078 244.40039 z " mix-blend-mode="normal" solid-color="#000000" opacity="0.8" color-interpolation-filters="linearRGB" filter-gaussianBlur-deviation="0" color="#000000" image-rendering="auto" color-rendering="auto" stroke-width="64" isolation="auto" color-interpolation="sRGB" solid-opacity="1" fill="none" stroke-linejoin="round" filter-blend-mode="normal" stroke="#ffffff" shape-rendering="auto"/>
 <path d="M 72.400391 148.19922 L 72 244 L 144 244 L 144 292 L 48 292 L 48 349 L 77.699219 363.30078 L 102.59961 363.30078 C 97.999609 371.00078 96 380 96 388 C 96 414.5 117.5 436 144 436 C 170.5 436 192 414.5 192 388 C 192 379.5 189.70039 371.1 185.40039 364 C 255.40039 364.1 324.40039 364.1 394.40039 364 C 390.10039 371.3 387.80078 379.7 387.80078 388 C 387.80078 414.5 409.30078 436 435.80078 436 C 462.30078 436 483.80078 414.5 483.80078 388 C 483.80078 379.5 481.49922 371.09922 477.19922 363.69922 L 502.09961 363.69922 L 531.80078 349.40039 L 531.80078 292.40039 L 435.80078 292.40039 L 435.80078 244.40039 L 507.80078 244.40039 L 507.80078 148.40039 L 72.400391 148.19922 z M 168.80078 244.40039 L 411.80078 244.40039 L 411.80078 292.40039 C 330.00078 292.00039 249 292 168 292 L 168.80078 244.40039 z " id="path4138" fill="#734a08"/>
</svg>
