<?xml version="1.0" encoding="UTF-8" standalone="no"?>
<svg xmlns="http://www.w3.org/2000/svg" width="580" height="580" version="1.0">
 <metadata id="metadata3003"/>
 <path id="path3760" d="m489 124l-402 0c-14.8 0-26.9 11.8-26.9 26.4l0 283c0 14.5 12 26.5 26.9 26.5l402 0c15 .1 27-10.9 27-25.9l0-283c0-14.5-12-26.4-26.9-26.4"/>
 <path d="m 84,176 0,89 c 0,8 7,15 16,15 l 89,0 c 8,0 15,-7 15,-15 l 0,-89 c 0,-9 -7,-16 -15,-16 l -89,0 c -9,0 -16,7 -16,16 z m 144,0 0,89 c 0,9 7,16 16,15 l 89,0 c 8,0 15,-7 15,-15 l 0,-89 c 0,-9 -7,-16 -16,-16 l -89,0 c -8,0 -15,7 -15,16 z m 144,0 0,89 c 0,8 7,15 16,15 l 89,0 c 8,0 15,-7 15,-15 l 0,-89 c 0,-9 -7,-16 -15,-16 l -89,0 c -9,0 -16,7 -16,16 z" id="path3758-6" opacity="0.7" fill="#ffffff"/>
 <path id="rect3015" d="m276 3.6l24 0 0 132-24 0z"/>
</svg>
