<?xml version="1.0" encoding="UTF-8" standalone="no"?>
<svg xmlns="http://www.w3.org/2000/svg" version="1.0" height="580" width="580">
 <metadata id="metadata3003"/>
 <path id="path15" d="m 156.2,183.43782 30,170 c 5.7,30.7 27.3,56.9 58,66 8.1,2.5 16.3,3.8 24.4,3.8 l 59,0.2 c 26.7,0 26.8,-36 0.2,-35.8 l -56,-0.2 c -5.4,-0.4 -11.2,-0.6 -16.6,-2.3 -18,-5.7 -30.7,-20.8 -34,-38 l -30.2,-169.5 c -2.1,-11.9 -9.9,-17.3 -17.8,-17.7 -10.1,-0.4 -19.8,8.3 -17,23.5 z m 113.40613,-23.43784 c -23.41349,0 -42.39388,-18.98035 -42.39388,-42.39385 0,-23.413508 18.98039,-42.393859 42.39388,-42.393859 23.41349,0 42.39387,18.980351 42.39387,42.393859 0,23.4135 -18.98038,42.39385 -42.39387,42.39385 z M 420,4.6386719 317.51758,235.22656 310.5,194.1875 c -1.5,-8.35 -16.2,-21.14961 -34.25,-21.84961 -20.25,-0.7 -36.25,15.30078 -36.25,35.30078 5.38217,38.23946 12.86696,78.74425 17.18359,103.67188 C 261.50022,336.23818 276.2,349.03711 294,349.03711 l 90,0 0.19922,111.10156 c 0.2,5.1 8.10078,12.59961 17.80078,12.59961 9.7,0 17.60078,-7.49961 17.80078,-12.59961 L 420,323.03711 c 0,-14.6 -12,-26.5 -27,-26.5 l -65,0 -3.81445,-22.31445 L 444,4.6386719 Z"/>
</svg>
