<?xml version="1.0" encoding="UTF-8" standalone="no"?>
<svg xmlns="http://www.w3.org/2000/svg" width="580" height="580" version="1.0">
 <metadata id="metadata3003"/>
 <path d="M 276,3.5996094 276,124.61719 237,125 c -52,0 -93,40 -93,90 l 0,155 c 0,50 41,90 93,89 l 102,0 c 52,0 93,-40 93,-90 l 0,-155 c 0,-50 -41,-90 -93,-90 l -39,0.38281 0,-120.7832006 z" id="rect3195"/>
 <path d="m 339,148 c 38,0 69,30.8 69,69 l 0,54 c 0,38 -30.8,69 -69,69 l -102,0 c -38,0 -69,-30.8 -69,-69 l 0,-54 c 0,-38 30.8,-69 69,-69 z" id="rect3199" opacity="0.7" fill="#ffffff"/>
</svg>
