<?xml version="1.0" encoding="UTF-8" standalone="no"?>
<svg xmlns="http://www.w3.org/2000/svg" xmlns:sodipodi="http://sodipodi.sourceforge.net/DTD/sodipodi-0.dtd" xmlns:inkscape="http://www.inkscape.org/namespaces/inkscape" enable-background="new -0.2 -0.2 19 19" viewBox="-0.2 -0.2 580 580" height="580" width="580" version="1.0">
 <metadata id="metadata20"/>
 <path id="path8084" d="m 381.09,457.95 c -61.96,0 -123.63,0 -185.59,0 0,-109.35 0,-218.71 0,-328.06 62.82,0 125.35,0 188.16,0 0,109.35 0,218.71 0,328.06 0,0 -2.85,0 -2.85,0 z m 3.14,-8.28 c 0,46.83 -34.83,92.22 -82.23,97.65 -44.83,6.85 -89.94,-24.84 -101.64,-68.24 -14.85,-46.54 8.85,-102.79 55.1,-121.06 37.98,-16.56 85.09,-2.86 108.79,31.98 12.56,17.13 19.98,38.26 19.98,59.67 z m -0.85,-319.78 c 0,46.82 -34.55,92.22 -81.95,97.65 -44.83,6.85 -90.22,-24.85 -101.65,-68.24 -14.84,-46.54 8.86,-102.792 55.11,-121.066 40.83,-17.702 91.94,0 113.92,38.546 9.71,15.703 14.57,34.55 14.57,53.11 z" opacity="0.8" fill="none" stroke="#ffffff" stroke-linejoin="round" stroke-linecap="round" stroke-width="40"/>
 <path id="path4" d="m 383.38,129.89 c 0,46.82 -34.55,92.22 -81.95,97.65 -44.83,6.85 -90.22,-24.85 -101.65,-68.24 -14.84,-46.54 8.86,-102.792 55.11,-121.066 40.83,-17.702 91.94,0 113.92,38.546 9.71,15.703 14.57,34.55 14.57,53.11 z" inkscape:connector-curvature="0"/>
 <path id="path6" d="m 384.23,449.67 c 0,46.83 -34.83,92.22 -82.23,97.65 -44.83,6.85 -89.94,-24.84 -101.64,-68.24 -14.85,-46.54 8.85,-102.79 55.1,-121.06 37.98,-16.56 85.09,-2.86 108.79,31.98 12.56,17.13 19.98,38.26 19.98,59.67 z" inkscape:connector-curvature="0"/>
 <path id="path8" d="m 381.09,457.95 c -61.96,0 -123.63,0 -185.59,0 0,-109.35 0,-218.71 0,-328.06 62.82,0 125.35,0 188.16,0 0,109.35 0,218.71 0,328.06 0,0 -2.85,0 -2.85,0 z" inkscape:connector-curvature="0"/>
 <path id="path10" d="m 357.39,129.89 c 2.86,40.26 -35.97,79.37 -77.09,72.8 -42.26,-6.85 -71.66,-53.96 -57.96,-94.79 9.71,-38.829 56.53,-63.955 93.37,-45.967 25.69,11.706 41.97,39.977 41.68,67.957 z" inkscape:connector-curvature="0" fill="#ff0000"/>
 <path id="path12" d="m 360.25,446.82 c 2.85,39.68 -33.98,77.09 -74.24,73.95 -41.97,0 -73.38,-44.83 -65.95,-85.09 3.99,-39.4 44.82,-70.52 83.94,-61.1 33.12,6.57 56.82,39.12 56.25,72.24 z" inkscape:connector-curvature="0" fill="#32cd32"/>
 <path id="path14" d="m 360.25,285.78 c 2.85,39.4 -33.98,76.81 -74.24,73.67 -41.97,0 -73.38,-44.83 -65.95,-85.09 3.99,-39.12 44.82,-70.52 83.94,-61.1 33.12,6.85 56.82,39.12 56.25,72.52 z" inkscape:connector-curvature="0" fill="#ffff00"/>
</svg>
