<?xml version="1.0" encoding="UTF-8" standalone="no"?>
<svg xmlns="http://www.w3.org/2000/svg" xmlns:sodipodi="http://sodipodi.sourceforge.net/DTD/sodipodi-0.dtd" xmlns:inkscape="http://www.inkscape.org/namespaces/inkscape" version="1.0" width="580" height="580">
 <metadata id="metadata2975"/>
 <defs id="defs4">
  <symbol id="symbol-university" viewBox="244.5 110 489 219.9">
   <path d="M79,43l57,119c0,0,21-96,104-96s124,106,124,106l43-133l82-17L0,17L79,43z" id="path4460"/>
   <path fill="none" stroke="#000000" stroke-width="20" d="M94,176l-21,39" id="path4462"/>
   <path d="M300,19c0,10.5-22.6,19-50.5,19S199,29.5,199,19s22.6-19,50.5-19S300,8.5,300,19z" id="path4464"/>
   <path ill="none" stroke="#000000" stroke-width="20" d="M112,216l-16-38L64,88c0,0-9-8-4-35s16-24,16-24" id="path4466"/>
  </symbol>
  <symbol viewBox="244.5 110 489 219.9" id="symbol9807">
   <path id="path9809" d="M79,43l57,119c0,0,21-96,104-96s124,106,124,106l43-133l82-17L0,17L79,43z"/>
   <path id="path9811" d="M94,176l-21,39" stroke-width="20" stroke="#000000" fill="none"/>
   <path id="path9813" d="M300,19c0,10.5-22.6,19-50.5,19S199,29.5,199,19s22.6-19,50.5-19S300,8.5,300,19z"/>
   <path id="path9815" d="M112,216l-16-38L64,88c0,0-9-8-4-35s16-24,16-24" stroke-width="20" stroke="#000000" ill="none"/>
  </symbol>
 </defs>
 <g id="g1327">
  <path d="M 66.275,1.768 C 24.94,1.768 1.704,23.139 1.704,66.804 L 1.704,516.927 C 1.704,557.771 22.599,579.156 63.896,579.156 L 515.92,579.156 C 557.227,579.156 578.149,558.841 578.149,516.927 L 578.149,66.804 C 578.149,24.203 557.227,1.768 514.628,1.768 C 514.624,1.768 66.133,1.625 66.275,1.768 z " id="path1329" fill="#734A08" stroke="#eee" stroke-width="3.408"/>
 </g>
 <g id="g10590" transform="matrix(5.4224895,0,0,6.3256342,-105.18328,-1537.3072)">
  <g transform="translate(505.60005,-159.49186)" id="g10577">
   <path d="M -472.50821,479.50385 C -451.72418,457.58451 -429.40806,435.61142 -389.37171,414.40513 C -408.70895,418.41938 -427.05197,426.14161 -442.66092,439.23801 C -456.65646,450.98071 -468.44944,462.50814 -478.47559,473.80771 C -478.47559,473.80771 -480.91679,476.92703 -478.47559,479.50385 C -476.03438,482.08068 -472.37258,479.63947 -472.50821,479.50385 z" id="path10062" sodipodi:nodetypes="ccscsc" fill="#ffffff" fill-rule="evenodd" stroke="#ffffff" stroke-linejoin="round"/>
   <path d="M -473.59318,471.09527 C -473.59318,471.09527 -479.56057,468.51844 -479.1537,462.95793 C -478.74684,457.39741 -474.66057,452.79342 -469.79576,452.37939 C -463.4215,451.8369 -459.35284,455.90557 -459.35284,455.90557 L -464.23524,461.6017 C -464.23524,461.6017 -469.79576,456.58368 -472.64383,459.83861 C -475.4919,463.09355 -471.96571,469.73904 -471.96571,469.73904 L -473.59318,471.09527 z" id="path10064" sodipodi:nodetypes="cssccscc" fill="#ffffff" fill-rule="evenodd" stroke="#ffffff"/>
   <path sodipodi:type="arc" id="path10066" sodipodi:cx="-457.31851" sodipodi:cy="463.36481" sodipodi:rx="3.9330475" sodipodi:ry="3.9330475" d="M -453.38546,463.36481 A 3.9330475,3.9330475 0 1 1 -461.25156,463.36481 A 3.9330475,3.9330475 0 1 1 -453.38546,463.36481 z" transform="matrix(0.8470326,0,0,0.8470326,-69.683569,70.8797)" fill="#ffffff" stroke="#ffffff" stroke-linejoin="round" stroke-linecap="round"/>
  </g>
  <g transform="matrix(-1,0,0,1,-359.33223,-159.49186)" id="g10582">
   <path sodipodi:nodetypes="ccscsc" id="path10584" d="M -472.50821,479.50385 C -451.72418,457.58451 -429.40806,435.61142 -389.37171,414.40513 C -408.70895,418.41938 -427.05197,426.14161 -442.66092,439.23801 C -456.65646,450.98071 -468.44944,462.50814 -478.47559,473.80771 C -478.47559,473.80771 -480.91679,476.92703 -478.47559,479.50385 C -476.03438,482.08068 -472.37258,479.63947 -472.50821,479.50385 z" fill="#ffffff" fill-rule="evenodd" stroke="#ffffff" stroke-linejoin="round"/>
   <path sodipodi:nodetypes="cssccscc" id="path10586" d="M -473.59318,471.09527 C -473.59318,471.09527 -479.56057,468.51844 -479.1537,462.95793 C -478.74684,457.39741 -474.66057,452.79342 -469.79576,452.37939 C -463.4215,451.8369 -459.35284,455.90557 -459.35284,455.90557 L -464.23524,461.6017 C -464.23524,461.6017 -469.79576,456.58368 -472.64383,459.83861 C -475.4919,463.09355 -471.96571,469.73904 -471.96571,469.73904 L -473.59318,471.09527 z" fill="#ffffff" fill-rule="evenodd" stroke="#ffffff"/>
   <path transform="matrix(0.8470326,0,0,0.8470326,-69.683569,70.8797)" d="M -453.38546,463.36481 A 3.9330475,3.9330475 0 1 1 -461.25156,463.36481 A 3.9330475,3.9330475 0 1 1 -453.38546,463.36481 z" sodipodi:ry="3.9330475" sodipodi:rx="3.9330475" sodipodi:cy="463.36481" sodipodi:cx="-457.31851" id="path10588" sodipodi:type="arc" fill="#ffffff" stroke="#ffffff" stroke-linejoin="round" stroke-linecap="round"/>
  </g>
 </g>
</svg>
