<?xml version="1.0" encoding="UTF-8" standalone="no"?>
<svg xmlns="http://www.w3.org/2000/svg" xmlns:sodipodi="http://sodipodi.sourceforge.net/DTD/sodipodi-0.dtd" xmlns:inkscape="http://www.inkscape.org/namespaces/inkscape" version="1.0" width="580" height="580">
 <metadata id="metadata2975"/>
 <g id="g1327">
  <path d="M 66.275,1.768 C 24.94,1.768 1.704,23.139 1.704,66.804 L 1.704,516.927 C 1.704,557.771 22.599,579.156 63.896,579.156 L 515.92,579.156 C 557.227,579.156 578.149,558.841 578.149,516.927 L 578.149,66.804 C 578.149,24.203 557.227,1.768 514.628,1.768 C 514.624,1.768 66.133,1.625 66.275,1.768 z " id="path1329" fill="#734A08" stroke="#eee" stroke-width="3.408"/>
 </g>
 <path d="M 206.82827,474.90828 L 95.95377,474.90828 L 150.87037,534.74412 L 206.82827,474.90828 z" id="path837" sodipodi:stroke-cmyk="(0.0000000 0.0000000 0.0000000 0.80000001)" stroke-opacity=".581" fill="#ffffff" fill-rule="evenodd" stroke-linejoin="round" stroke-linecap="round" stroke-width="22.615"/>
 <rect id="rect4101" width="413.89" height="20.555" x="84.47" y="113.21" rx="0" fill="#ffffff" stroke="#ffffff" stroke-linecap="square" stroke-width="18.411"/>
 <rect id="rect4103" width="413.89" height="20.555" x="84.47" y="237.21" rx="0" fill="#ffffff" stroke="#ffffff" stroke-linecap="square" stroke-width="18.411"/>
 <rect id="rect4105" width="413.89" height="20.555" x="84.47" y="361.21" rx="0" fill="#ffffff" stroke="#ffffff" stroke-linecap="square" stroke-width="18.411"/>
 <rect id="rect4107" width="429.75" height="20.532" x="56.55" y="-161.41" rx="0" transform="matrix(0,1,-1,0,0,0)" fill="#ffffff" stroke="#ffffff" stroke-linecap="square" stroke-width="18.75"/>
 <rect id="rect4109" width="429.75" height="20.532" x="55.6" y="-300.66" rx="0" transform="matrix(0,1,-1,0,0,0)" fill="#ffffff" stroke="#ffffff" stroke-linecap="square" stroke-width="18.75"/>
 <rect id="rect4111" width="429.75" height="20.532" x="54.48" y="-439.28" rx="0" transform="matrix(0,1,-1,0,0,0)" fill="#ffffff" stroke="#ffffff" stroke-linecap="square" stroke-width="18.75"/>
 <path d="M 346.5892,475.79366 L 235.7147,475.79366 L 290.6313,535.6295 L 346.5892,475.79366 z" id="path4117" sodipodi:stroke-cmyk="(0.0000000 0.0000000 0.0000000 0.80000001)" stroke-opacity=".581" fill="#ffffff" fill-rule="evenodd" stroke-linejoin="round" stroke-linecap="round" stroke-width="22.615"/>
 <path d="M 486.5892,475.79366 L 375.7147,475.79366 L 430.6313,535.6295 L 486.5892,475.79366 z" id="path4119" sodipodi:stroke-cmyk="(0.0000000 0.0000000 0.0000000 0.80000001)" stroke-opacity=".581" fill="#ffffff" fill-rule="evenodd" stroke-linejoin="round" stroke-linecap="round" stroke-width="22.615"/>
</svg>
