<?xml version="1.0" encoding="UTF-8" standalone="no"?>
<svg xmlns="http://www.w3.org/2000/svg" xmlns:sodipodi="http://sodipodi.sourceforge.net/DTD/sodipodi-0.dtd" xmlns:inkscape="http://www.inkscape.org/namespaces/inkscape" version="1.0" width="580" height="580">
 <metadata id="metadata2975"/>
 <g id="g1327">
  <path d="M 66.275,1.768 C 24.94,1.768 1.704,23.139 1.704,66.804 L 1.704,516.927 C 1.704,557.771 22.599,579.156 63.896,579.156 L 515.92,579.156 C 557.227,579.156 578.149,558.841 578.149,516.927 L 578.149,66.804 C 578.149,24.203 557.227,1.768 514.628,1.768 C 514.624,1.768 66.133,1.625 66.275,1.768 z " id="path1329" fill="#734A08" stroke="#eee" stroke-width="3.408"/>
 </g>
 <path sodipodi:type="arc" id="path3349" sodipodi:cx="-614.77606" sodipodi:cy="-607.10229" sodipodi:rx="6.6454945" sodipodi:ry="6.916739" d="M -608.13057,-607.10059 A 6.6454945,6.916739 0 1 1 -608.13057,-607.1019" sodipodi:start="0.00024710373" sodipodi:end="6.2832427" sodipodi:open="true" transform="matrix(7.2534492,0,0,7.2534492,4576.5023,4838.6403)" fill="#ffffff" stroke-linejoin="round" stroke-linecap="round" stroke-width="20"/>
 <path sodipodi:type="arc" id="path3351" sodipodi:cx="-614.77606" sodipodi:cy="-607.10229" sodipodi:rx="6.6454945" sodipodi:ry="6.916739" d="M -608.13057,-607.10059 A 6.6454945,6.916739 0 1 1 -608.13057,-607.1019" sodipodi:start="0.00024710373" sodipodi:end="6.2832427" sodipodi:open="true" transform="matrix(7.2534492,0,0,7.2534492,4716.7511,4837.5003)" fill="#ffffff" stroke-linejoin="round" stroke-linecap="round" stroke-width="20"/>
 <path sodipodi:type="arc" id="path3353" sodipodi:cx="-614.77606" sodipodi:cy="-607.10229" sodipodi:rx="6.6454945" sodipodi:ry="6.916739" d="M -608.13057,-607.10059 A 6.6454945,6.916739 0 1 1 -608.13057,-607.1019" sodipodi:start="0.00024710373" sodipodi:end="6.2832427" sodipodi:open="true" transform="matrix(7.2534492,0,0,7.2534492,4851.2985,4836.3601)" fill="#ffffff" stroke-linejoin="round" stroke-linecap="round" stroke-width="20"/>
 <path transform="matrix(5.1103843,0,0,5.1103843,3645.5365,3556.9651)" sodipodi:open="true" sodipodi:end="6.2832427" sodipodi:start="0.00024710373" d="M -608.13057,-607.10059 A 6.6454945,6.916739 0 1 1 -608.13057,-607.1019" sodipodi:ry="6.916739" sodipodi:rx="6.6454945" sodipodi:cy="-607.10229" sodipodi:cx="-614.77606" id="path3355" sodipodi:type="arc" fill="#ffffff" stroke-linejoin="round" stroke-linecap="round" stroke-width="20"/>
 <path d="M 53.402618,351.8179 C 53.402618,365.5007 53.402618,379.1835 53.402618,392.8663 C 190.61054,392.8663 327.81847,392.8663 465.0264,392.8663 C 465.0264,404.64869 465.0264,416.43108 465.0264,428.21347 C 492.0119,428.21347 518.99741,428.21347 545.98291,428.21347 C 545.98291,368.92141 545.98291,309.62935 545.98291,250.3373 C 533.44036,250.3373 520.89781,250.3373 508.35526,250.3373 C 508.35526,287.58488 508.35526,324.83246 508.35526,362.08005 C 488.9713,362.08005 469.58735,362.08005 450.2034,362.08005 C 450.2034,301.26765 450.2034,240.45525 450.2034,179.64285 C 468.44713,179.64285 486.69087,179.64285 504.9346,179.64285 C 504.9346,168.6206 504.9346,157.59835 504.9346,146.5761 C 471.48777,146.5761 438.04094,146.5761 404.59412,146.5761 C 404.59412,178.88268 404.59412,211.18925 404.59412,243.49583 C 376.84847,243.49583 349.10282,243.49583 321.35718,243.49583 C 319.02583,222.65835 307.84371,199.46019 284.98403,196.10565 C 261.363,190.1208 232.42001,202.89708 227.01567,228.25163 C 227.46005,244.28013 217.5918,246.44435 204.725,244.63614 C 189.25134,244.63614 173.77768,244.63614 158.30402,244.63614 C 158.30402,213.84987 158.30402,183.0636 158.30402,152.27733 C 141.20052,152.27733 124.09703,152.27733 106.99353,152.27733 C 106.99353,182.30343 106.99353,212.32953 106.99353,242.35564 C 97.871691,242.35564 88.749852,242.35564 79.628014,242.35564 C 62.272905,255.61602 55.208527,273.13003 54.538108,297.94786 C 56.204324,318.83232 66.344738,342.23403 79.606088,351.81789 C 70.871598,351.81789 62.137108,351.8179 53.402618,351.8179 z" id="path3359" sodipodi:nodetypes="cccccccccccccccccccccccccc" fill="#ffffff" fill-rule="evenodd" stroke="#ffffff" stroke-linejoin="round" stroke-linecap="round" stroke-width="10"/>
</svg>
