<?xml version="1.0" encoding="UTF-8" standalone="no"?>
<svg xmlns="http://www.w3.org/2000/svg" xmlns:sodipodi="http://sodipodi.sourceforge.net/DTD/sodipodi-0.dtd" xmlns:inkscape="http://www.inkscape.org/namespaces/inkscape" version="1.0" width="580" height="580">
 <metadata id="metadata2975"/>
 <defs id="defs4">
  <symbol viewBox="244.5 110 489 219.9" id="symbol-university">
   <path id="path4460" d="M79,43l57,119c0,0,21-96,104-96s124,106,124,106l43-133l82-17L0,17L79,43z"/>
   <path id="path4462" d="M94,176l-21,39" stroke-width="20" stroke="#000000" fill="none"/>
   <path id="path4464" d="M300,19c0,10.5-22.6,19-50.5,19S199,29.5,199,19s22.6-19,50.5-19S300,8.5,300,19z"/>
   <path id="path4466" d="M112,216l-16-38L64,88c0,0-9-8-4-35s16-24,16-24" stroke-width="20" stroke="#000000" ill="none"/>
  </symbol>
 </defs>
 <g id="g1327">
  <path d="M 66.275,1.768 C 24.94,1.768 1.704,23.139 1.704,66.804 L 1.704,516.927 C 1.704,557.771 22.599,579.156 63.896,579.156 L 515.92,579.156 C 557.227,579.156 578.149,558.841 578.149,516.927 L 578.149,66.804 C 578.149,24.203 557.227,1.768 514.628,1.768 C 514.624,1.768 66.133,1.625 66.275,1.768 z" id="path1329" fill="#734A08" stroke="#eeeeee" stroke-width="3.408"/>
 </g>
 <path d="M 56.418889,106.26948 C 109.59021,92.346572 181.62685,127.4125 284.2644,253.82658 386.90196,380.24065 454.94502,396.93032 520.78975,399.21371" id="path2899" sodipodi:nodetypes="czc" fill="none" stroke="#ffffff" stroke-linejoin="round" stroke-linecap="round" stroke-width="17.8"/>
 <path d="m 76.794789,102.76534 0,10 0,66.96875 -11.6875,0 -10,0 0,20 10,0 11.6875,0 0,48 -11.6875,0 -10,0 0,20 10,0 11.6875,0 0,48 -11.6875,0 -10,0 0,20 10,0 11.6875,0 0,48 -11.6875,0 -10,0 0,20 10,0 11.6875,0 0,48 -11.6875,0 -10,0 0,20 10,0 11.6875,0 0,12.78125 0,10 20,0 0,-10 0,-12.78125 48.000001,0 0,12.78125 0,10 20,0 0,-10 0,-12.78125 46,0 0,12.78125 0,10 20,0 0,-10 0,-12.78125 48,0 0,12.78125 0,10 20,0 0,-10 0,-12.78125 48,0 0,12.78125 0,10 20,0 0,-10 0,-12.78125 48,0 0,12.78125 0,10 20,0 0,-10 0,-12.78125 48,0 0,12.78125 0,10 20,0 0,-10 0,-77.75 0,-10 -20,0 0,0.15625 -26.375,-13.1875 -10,0 -11.625,0 0,-4.96875 -20,0 0,4.96875 -48,0 0,-38.96875 0,-10 -6.375,0 0,-19.03125 -30,0 -31.625,0 0,-42.96875 0,-10 -18.375,0 0,-15.03125 -10,0 -39.625,0 0,-48.96875 0,-10 -8.375,0 0,-9.03125 -10,0 -47.625,0 0,-40.96875 0,-10 -20,0 0,10 0,40.96875 -48.000001,0 0,-66.96875 0,-10 -20,0 z m 20,96.96875 48.000001,0 0,48 -48.000001,0 0,-48 z m 68.000001,0 46,0 0,48 -46,0 0,-48 z m -68.000001,68 48.000001,0 0,48 -48.000001,0 0,-48 z m 68.000001,0 46,0 0,48 -46,0 0,-48 z m 66,0 39.625,0 8.375,0 0,5.03125 0,42.96875 -48,0 0,-48 z m -134.000001,68 48.000001,0 0,48 -48.000001,0 0,-48 z m 68.000001,0 46,0 0,48 -46,0 0,-48 z m 66,0 48,0 0,48 -48,0 0,-48 z m 68,0 31.625,0 16.375,0 0,9.03125 0,38.96875 -48,0 0,-48 z m -202.000001,68 48.000001,0 0,48 -48.000001,0 0,-48 z m 68.000001,0 46,0 0,48 -46,0 0,-48 z m 66,0 48,0 0,48 -48,0 0,-48 z m 68,0 48,0 0,48 -48,0 0,-48 z m 68,0 48,0 0,48 -48,0 0,-48 z m 68,0 11.625,0 36.375,0 0,3.03125 0,44.96875 -48,0 0,-48 z" id="path2901" opacity=".5" color="#000000" stroke-width="20" fill="#ffffff"/>
 <path d="m 202.93533,160.29659 c 21.65625,21.35417 43.3125,42.70833 64.96875,64.0625 12.71777,-4.25342 25.62939,-7.82838 32.71875,-31.78125 -20.76042,-21.41667 -41.52083,-42.83333 -62.28125,-64.25 -23.6686,0.76748 -28.44038,17.28233 -35.40625,31.96875 z" id="path3709" sodipodi:nodetypes="ccccc" fill="#ffffff" stroke="#ffffff" stroke-linejoin="round" stroke-linecap="round" stroke-width="20"/>
 <path sodipodi:type="arc" id="path3719" sodipodi:cx="-419.88675" sodipodi:cy="113.45918" sodipodi:rx="5.4248934" sodipodi:ry="5.4248934" d="m -414.46186,113.45918 a 5.4248934,5.4248934 0 1 1 -10.84978,0 5.4248934,5.4248934 0 1 1 10.84978,0 z" transform="matrix(2.6,0,0,2.6,1380.3098,-189.46945)" fill="#ffffff"/>
 <path transform="matrix(2.6,0,0,2.6,1405.2643,-148.07031)" d="m -414.46186,113.45918 a 5.4248934,5.4248934 0 1 1 -10.84978,0 5.4248934,5.4248934 0 1 1 10.84978,0 z" sodipodi:ry="5.4248934" sodipodi:rx="5.4248934" sodipodi:cy="113.45918" sodipodi:cx="-419.88675" id="path3721" sodipodi:type="arc" fill="#ffffff"/>
 <path d="m 263.64982,130.81883 -29.29443,29.29442" id="path3723" fill="#ffffff" stroke="#ffffff" stroke-linecap="round" stroke-width="40.5"/>
 <path id="path3725" d="m 291.68931,166.79309 -29.29443,29.29442" fill="#ffffff" stroke="#ffffff" stroke-linecap="round" stroke-width="28.5"/>
 <path sodipodi:nodetypes="ccccc" id="path3736" d="m 325.35916,279.99237 c 22.97399,19.92961 45.94799,39.85921 68.92198,59.78882 12.42063,-5.05582 25.07798,-9.44692 30.62535,-33.80315 -22.08397,-20.04911 -44.16794,-40.09821 -66.25191,-60.14732 -23.57148,2.27535 -27.28034,19.06089 -33.29542,34.16165 z" fill="#ffffff" stroke="#ffffff" stroke-linejoin="round" stroke-linecap="round" stroke-width="20"/>
 <path transform="matrix(2.5947074,-0.16581089,0.16581089,2.5947074,1474.8464,-140.71231)" d="m -414.46186,113.45918 a 5.4248934,5.4248934 0 1 1 -10.84978,0 5.4248934,5.4248934 0 1 1 10.84978,0 z" sodipodi:ry="5.4248934" sodipodi:rx="5.4248934" sodipodi:cy="113.45918" sodipodi:cx="-419.88675" id="path3738" sodipodi:type="arc" fill="#ffffff"/>
 <path sodipodi:type="arc" id="path3740" sodipodi:cx="-419.88675" sodipodi:cy="113.45918" sodipodi:rx="5.4248934" sodipodi:ry="5.4248934" d="m -414.46186,113.45918 a 5.4248934,5.4248934 0 1 1 -10.84978,0 5.4248934,5.4248934 0 1 1 10.84978,0 z" transform="matrix(2.5947074,-0.16581089,0.16581089,2.5947074,1502.3944,-100.86133)" fill="#ffffff"/>
 <path id="path3742" d="m 381.01699,250.26069 -27.3666,31.103" fill="#ffffff" stroke="#ffffff" stroke-linecap="round" stroke-width="40.5"/>
 <path d="m 411.2936,284.37355 -27.36659,31.10299" id="path3744" fill="#ffffff" stroke="#ffffff" stroke-linecap="round" stroke-width="28.5"/>
</svg>
