<?xml version="1.0" encoding="UTF-8" standalone="no"?>
<svg xmlns="http://www.w3.org/2000/svg" xmlns:sodipodi="http://sodipodi.sourceforge.net/DTD/sodipodi-0.dtd" xmlns:inkscape="http://www.inkscape.org/namespaces/inkscape" version="1.0" width="580" height="580">
 <metadata id="metadata2975"/>
 <g id="g1327">
  <path d="M 66.275,1.768 C 24.94,1.768 1.704,23.139 1.704,66.804 L 1.704,516.927 C 1.704,557.771 22.599,579.156 63.896,579.156 L 515.92,579.156 C 557.227,579.156 578.149,558.841 578.149,516.927 L 578.149,66.804 C 578.149,24.203 557.227,1.768 514.628,1.768 C 514.624,1.768 66.133,1.625 66.275,1.768 z " id="path1329" fill="#734A08" stroke="#eee" stroke-width="3.408"/>
 </g>
 <g transform="translate(1.9777315,2.9304584)" id="g6173">
  <rect y="340.71" x="30.866" height="184.56" width="519.82" id="rect2911" opacity=".2" fill="#ffffff" stroke="#ffffff" stroke-linejoin="round" stroke-linecap="round" stroke-width="10.973"/>
  <path inkscape:connector-curvature="0" id="path2921" d="m 21.699573,336.96478 537.064437,0" fill="none" stroke="#ffffff" stroke-width="20"/>
  <path inkscape:connector-curvature="0" d="m 21.699573,524.96478 537.064437,0" id="path3695" fill="none" stroke="#ffffff" stroke-width="20"/>
  <path inkscape:connector-curvature="0" id="path3697" d="m 37.173702,428.96478 508.821758,0" stroke-dasharray="38.934 38.934" fill="none" stroke="#ffffff" stroke-width="19.467"/>
 </g>
 <g id="g6378" transform="matrix(0.58245081,0,0,0.58245081,366.97209,-53.743753)">
  <path sodipodi:nodetypes="cc" id="path4817" d="m -58.01435,312.68741 32.60294,127.78375" inkscape:connector-curvature="0" fill="#d53b3b" stroke="#ffffff" stroke-linejoin="round" stroke-linecap="round" stroke-width="128.99"/>
  <path sodipodi:nodetypes="ccc" id="path5329" d="m -66.90374,289.75646 -125.29131,17.87175 -73.41962,-87.41982" inkscape:connector-curvature="0" fill="none" stroke="#ffffff" stroke-linejoin="round" stroke-linecap="round" stroke-width="56.673"/>
  <path sodipodi:nodetypes="cc" id="path5331" d="m 25.13188,580.59838 -173.27583,1.87442" inkscape:connector-curvature="0" fill="none" stroke="#ffffff" stroke-linejoin="round" stroke-linecap="round" stroke-width="71.797"/>
  <path sodipodi:nodetypes="cc" id="path5333" d="M 1.9041098,457.51476 -147.20389,568.03986" inkscape:connector-curvature="0" fill="none" stroke="#ffffff" stroke-linejoin="round" stroke-linecap="round" stroke-width="78.4"/>
  <path d="m -111.434,165.91423 c -16.39627,0.74391 -22.85159,24.39144 -9.28973,33.41041 12.35231,10.18832 32.79976,-2.15972 29.44467,-17.92753 -1.48092,-9.45077 -10.60853,-16.54984 -20.15494,-15.48288 z" id="path5339" inkscape:connector-curvature="0" fill="#ffffff" stroke="#ffffff" stroke-linejoin="round" stroke-linecap="round" stroke-width="78.4"/>
  <path d="M -12.459,446.46622 -147.20389,568.03986" id="path4057" sodipodi:nodetypes="cc" inkscape:connector-curvature="0" fill="none" stroke="#ffffff" stroke-linejoin="round" stroke-linecap="round" stroke-width="78.4"/>
  <path d="m -66.90374,299.75646 -125.29131,7.87175 -73.41962,-87.41982" id="path4059" sodipodi:nodetypes="ccc" inkscape:connector-curvature="0" fill="none" stroke="#ffffff" stroke-linejoin="round" stroke-linecap="round" stroke-width="56.673"/>
 </g>
</svg>
