<?xml version="1.0" encoding="UTF-8" standalone="no"?>
<svg xmlns="http://www.w3.org/2000/svg" xmlns:sodipodi="http://sodipodi.sourceforge.net/DTD/sodipodi-0.dtd" xmlns:inkscape="http://www.inkscape.org/namespaces/inkscape" version="1.0" width="580" height="580">
 <metadata id="metadata2975"/>
 <defs id="defs4">
  <symbol viewBox="244.5 110 489 219.9" id="symbol-university">
   <path id="path4460" d="M79,43l57,119c0,0,21-96,104-96s124,106,124,106l43-133l82-17L0,17L79,43z"/>
   <path id="path4462" d="M94,176l-21,39" stroke-width="20" stroke="#000000" fill="none"/>
   <path id="path4464" d="M300,19c0,10.5-22.6,19-50.5,19S199,29.5,199,19s22.6-19,50.5-19S300,8.5,300,19z"/>
   <path id="path4466" d="M112,216l-16-38L64,88c0,0-9-8-4-35s16-24,16-24" stroke-width="20" stroke="#000000" ill="none"/>
  </symbol>
 </defs>
 <g id="g1327">
  <path d="M 66.275,1.768 C 24.94,1.768 1.704,23.139 1.704,66.804 L 1.704,516.927 C 1.704,557.771 22.599,579.156 63.896,579.156 L 515.92,579.156 C 557.227,579.156 578.149,558.841 578.149,516.927 L 578.149,66.804 C 578.149,24.203 557.227,1.768 514.628,1.768 C 514.624,1.768 66.133,1.625 66.275,1.768 z " id="path1329" fill="#39AC39" stroke="#eee" stroke-width="3.408"/>
 </g>
 <path d="M 299.28125,13.53125 L 299.28125,67.1875 L 313.84375,67.1875 L 313.84375,13.53125 L 299.28125,13.53125 z" id="path20035" sodipodi:nodetypes="ccccc" opacity=".8" color="#000000" stroke-width="10" fill="#ffffff" stroke="#ffffff"/>
 <path d="M 305.78125,70.53125 C 284.26821,70.53125 266.84375,87.986963 266.84375,109.5 266.84375,123.36701 274.08767,135.53513 285,142.4375 288.68053,133.4826 296.95454,126.41621 307.0625,126.25 316.64511,125.6857 326.03443,131.23261 330.5,139.59375 339.18755,132.44966 344.75,121.6257 344.75,109.5 344.75,87.986963 327.29429,70.53125 305.78125,70.53125 z" id="path2843" fill="none" stroke="#ffffff" stroke-linejoin="round" stroke-linecap="round" stroke-width="14.673"/>
 <path d="M 364.28125,186.71875 C 353.92101,186.71912 345.01915,190.04622 337.5625,196.71875 337.78252,203.74204 338.03673,210.76898 338.375,217.78125 342.55353,233.22537 350.46056,247.72779 356.40625,262.6875 356.86658,264.07333 357.4092,265.41816 357.96875,266.78125 360.00995,267.07353 362.11285,267.21881 364.28125,267.21875 375.09797,267.21907 384.51893,263.3106 392.53125,255.5 400.54287,247.69003 404.53088,238.18952 404.53125,226.96875 404.53088,215.76091 400.54287,206.24817 392.53125,198.4375 384.51893,190.62758 375.09797,186.71915 364.28125,186.71875 z" id="flowRoot3192" fill="#ffffff"/>
 <path d="M 311.6875,408.75 A 27.093672,27.093672 0 0 0 295.0625,415.15625 L 176.8125,512.3125 A 27.093672,27.093672 0 1 0 211.21875,554.15625 L 329.46875,457 A 27.093672,27.093672 0 0 0 311.6875,408.75 z" id="path3626" color="#000000" stroke-width="54.18" fill="#ffffff"/>
 <path d="M 346.03125,269.71875 A 33.095671,33.095671 0 0 0 312.8125,295.21875 L 279.53125,427.84375 A 33.095671,33.095671 0 1 0 343.71875,443.9375 L 377,311.3125 A 33.095671,33.095671 0 0 0 346.03125,269.71875 z" id="path3628" color="#000000" stroke-width="66.18" fill="#ffffff"/>
 <path d="M 309.28125,122.25 A 21.072856,21.072856 0 0 0 287.28125,144.4375 L 290.5625,227.25 A 21.072856,21.072856 0 0 0 292.25,234.6875 L 322.9375,306.53125 A 21.072856,21.072856 0 1 0 361.6875,289.96875 L 332.5,221.65625 329.40625,142.78125 A 21.072856,21.072856 0 0 0 309.28125,122.25 z" id="path3630" color="#000000" stroke-width="42.14" fill="#ffffff"/>
</svg>
