<?xml version="1.0" encoding="UTF-8" standalone="no"?>
<svg xmlns="http://www.w3.org/2000/svg" xmlns:sodipodi="http://sodipodi.sourceforge.net/DTD/sodipodi-0.dtd" xmlns:inkscape="http://www.inkscape.org/namespaces/inkscape" version="1.0" width="580" height="580">
 <metadata id="metadata2975"/>
 <defs id="defs4">
  <symbol viewBox="244.5 110 489 219.9" id="symbol-university">
   <path id="path4460" d="M79,43l57,119c0,0,21-96,104-96s124,106,124,106l43-133l82-17L0,17L79,43z"/>
   <path id="path4462" d="M94,176l-21,39" stroke-width="20" stroke="#000000" fill="none"/>
   <path id="path4464" d="M300,19c0,10.5-22.6,19-50.5,19S199,29.5,199,19s22.6-19,50.5-19S300,8.5,300,19z"/>
   <path id="path4466" d="M112,216l-16-38L64,88c0,0-9-8-4-35s16-24,16-24" stroke-width="20" stroke="#000000" ill="none"/>
  </symbol>
 </defs>
 <g id="g1327">
  <path d="M 66.275,1.768 C 24.94,1.768 1.704,23.139 1.704,66.804 L 1.704,516.927 C 1.704,557.771 22.599,579.156 63.896,579.156 L 515.92,579.156 C 557.227,579.156 578.149,558.841 578.149,516.927 L 578.149,66.804 C 578.149,24.203 557.227,1.768 514.628,1.768 C 514.624,1.768 66.133,1.625 66.275,1.768 z " id="path1329" fill="#39AC39" stroke="#eee" stroke-width="3.408"/>
 </g>
 <g id="g20039" transform="matrix(1.086424,0,0,1.086424,-26.13804,-25.005788)">
  <g transform="translate(28.209445,59.673826)" id="g19515">
   <path d="M 245.07327,199.02606 C 245.07305,207.60397 248.05841,214.87814 254.02935,220.8486 C 259.99983,226.81955 267.26932,229.80491 275.83787,229.80467 C 284.1069,229.80491 291.30398,226.81955 297.42914,220.8486 C 303.55375,214.87814 306.61619,207.60397 306.61647,199.02606 C 306.61619,190.45804 303.55375,183.18854 297.42914,177.21754 C 291.30398,171.24712 284.1069,168.26178 275.83787,168.26148 C 267.26932,168.26178 259.99983,171.24712 254.02935,177.21754 C 248.05841,183.18854 245.07305,190.45804 245.07327,199.02606 L 245.07327,199.02606 z M 313.96073,360.69784 L 313.96073,250.4639 C 313.04474,241.27913 308.14858,236.68663 299.27221,236.6864 L 240.93863,236.6864 L 196.97367,224.30244 L 163.31936,165.07115 C 159.64709,161.09092 155.36294,159.10068 150.4669,159.10044 C 140.05776,159.10068 134.85324,164.45937 134.85335,175.17651 C 134.85324,179.15722 136.23145,182.83401 138.98799,186.20692 L 174.69031,250.11868 C 178.36227,253.79098 175.83288,252.9146 181.74932,257.79683 L 235.89296,273.10785 L 235.89296,358.39925 L 144.85673,444.84627 C 143.93153,446.99533 143.46901,449.13973 143.46917,451.27951 C 143.46901,457.39967 145.76525,462.68127 150.35792,467.12432 C 154.95024,471.56725 160.31126,473.78876 166.441,473.78881 C 177.45719,473.78876 177.42943,472.73288 184.93629,468.72247 L 274.46432,389.16385 L 349.60508,468.1 C 359.55264,478.61095 363.25364,480.74713 374.27033,480.74719 C 380.39956,480.74713 385.76059,478.52796 390.35341,474.08971 C 394.94558,469.65133 397.24182,464.37206 397.24216,458.2519 C 397.24182,456.10277 396.93348,453.95837 396.31712,451.81866 L 313.96073,360.69784 z" id="flowRoot3192" sodipodi:nodetypes="csssscssccccccccssccccccssscccssscc" fill="#ffffff"/>
   <path sodipodi:nodetypes="cccssccccc" id="path19513" d="M 301.21525,236.85636 L 352.23257,224.30244 L 385.88688,165.07115 C 389.55915,161.09092 393.8433,159.10068 398.73934,159.10044 C 409.14848,159.10068 414.353,164.45937 414.35289,175.17651 C 414.353,179.15722 412.97479,182.83401 410.21825,186.20692 L 374.51593,250.11868 C 370.84397,253.79098 373.37336,252.9146 367.45692,257.79683 L 313.31328,273.10785 L 301.21525,236.85636 z" fill="#ffffff"/>
  </g>
  <rect y="162.28" x="146.47" height="77.03" width="11.935" id="rect20031" fill="#ffffff" stroke="#ffffff" stroke-width="5" rx="4.069"/>
  <rect id="rect20033" width="11.935" height="77.03" x="446.47" y="162.28" fill="#ffffff" stroke="#ffffff" stroke-width="5" rx="4.069"/>
  <path id="path20035" d="M 152.81203,160.51841 L 152.81203,42.255738" opacity=".5" fill="none" stroke="#ffffff" stroke-width="8"/>
  <path d="M 452.81203,160.51841 L 452.81203,42.255738" id="path20037" opacity=".5" fill="none" stroke="#ffffff" stroke-width="8"/>
 </g>
</svg>
