<?xml version="1.0" encoding="UTF-8" standalone="no"?>
<svg xmlns="http://www.w3.org/2000/svg" xmlns:sodipodi="http://sodipodi.sourceforge.net/DTD/sodipodi-0.dtd" xmlns:inkscape="http://www.inkscape.org/namespaces/inkscape" version="1.0" width="580" height="580">
 <metadata id="metadata10"/>
 <g id="g1327">
  <path d="M 66.275,1.768 C 24.94,1.768 1.704,23.139 1.704,66.804 L 1.704,516.927 C 1.704,557.771 22.598,579.156 63.896,579.156 L 515.92,579.156 C 557.227,579.156 578.149,558.84 578.149,516.927 L 578.149,66.804 C 578.149,24.203 557.227,1.768 514.627,1.768 C 514.624,1.768 66.133,1.625 66.275,1.768 z" id="path1329" fill="#39AC39" stroke="#eeeeee" stroke-width="3.408"/>
 </g>
 <path inkscape:connector-curvature="0" d="m 89.917326,510.78499 35.852144,-235.5766 28.10793,-16.83019 27.49507,17.27906 c 0,0 31.17338,237.98265 28.24669,236.55518 -2.92668,-1.42745 -119.116492,0.71374 -119.701834,-1.42745 z" id="path3457" sodipodi:nodetypes="ccccsc" opacity=".5" fill="#ffffff" fill-rule="evenodd"/>
 <path inkscape:connector-curvature="0" d="m 38.726908,211.54731 32.626259,-30.53158 79.062293,107.79313 -10.07153,9.74356 z" id="path4180" sodipodi:nodetypes="ccccc" fill="#ffffff" fill-rule="evenodd" stroke="#ffffff" stroke-linejoin="round" stroke-linecap="round" stroke-width="13.22"/>
 <path inkscape:connector-curvature="0" id="path4188" d="m 268.64037,211.54731 -32.62626,-30.53158 -79.06229,107.79313 10.07153,9.74356 z" sodipodi:nodetypes="ccccc" fill="#ffffff" fill-rule="evenodd" stroke="#ffffff" stroke-linejoin="round" stroke-linecap="round" stroke-width="13.22"/>
 <path inkscape:connector-curvature="0" id="path4194" d="m 268.64037,386.24574 -32.62626,30.53159 -79.06229,-107.79313 10.07153,-9.74356 z" sodipodi:nodetypes="ccccc" fill="#ffffff" fill-rule="evenodd" stroke="#ffffff" stroke-linejoin="round" stroke-linecap="round" stroke-width="13.22"/>
 <path inkscape:connector-curvature="0" d="M 38.726908,386.24574 71.353167,416.77733 150.41546,308.9842 140.34393,299.24064 z" id="path4196" sodipodi:nodetypes="ccccc" fill="#ffffff" fill-rule="evenodd" stroke="#ffffff" stroke-linejoin="round" stroke-linecap="round" stroke-width="13.22"/>
 <path inkscape:connector-curvature="0" d="m 395.67437,155.28323 c -2.9e-4,-10.4682 -3.77958,-19.28956 -11.33794,-26.4641 -7.55892,-7.17385 -16.5725,-10.76096 -27.04079,-10.76129 -10.45693,3.3e-4 -19.36998,3.58744 -26.73913,10.76129 -7.3696,7.17454 -11.05426,15.9959 -11.05406,26.4641 -2e-4,10.45701 3.68446,19.27247 11.05406,26.44637 7.36915,7.17446 16.2822,10.76157 26.73913,10.76133 10.46829,2.4e-4 19.48187,-3.58687 27.04079,-10.76133 7.55836,-7.1739 11.33765,-15.98936 11.33794,-26.44637 l 0,0 z M 295.67324,542.49496 c 8.13803,-8e-5 14.72668,-3.87402 19.76599,-11.62186 L 424.7379,366.32188 430.55767,388.9978 414.2871,512.2604 c -0.78103,6.19826 0.57338,11.72232 4.06318,16.57222 3.4892,4.84975 8.33313,7.85427 14.53179,9.01358 6.2098,1.15915 11.92904,-0.10053 17.15775,-3.77929 5.22798,-3.67885 8.23251,-8.62331 9.01358,-14.8334 l 16.8561,-126.15477 c 0.39003,-4.27014 0.004,-8.72961 -1.15329,-13.37845 l -37.22543,-148.26288 97.109,-17.44163 c 5.03866,-0.76863 9.10778,-3.38281 12.20739,-7.84256 3.09873,-4.45919 4.25796,-9.20847 3.47769,-14.24782 -1.15967,-5.03882 -4.06366,-9.30312 -8.71197,-12.79292 L 318.34916,32.020622 297.9976,61.669682 c -5.03927,6.97941 -3.87414,12.98846 3.49542,18.02717 6.96701,4.25876 12.97013,3.09363 18.00943,-3.49542 l 11.63959,-17.44167 181.38963,119.199378 -148.24515,26.73914 c -5.4297,1.15951 -9.79159,3.96886 -13.08569,8.42809 -3.29459,4.45971 -4.16695,9.209 -2.61712,14.24782 l 31.97338,125.00148 -104.64987,156.40704 c -1.9401,3.47761 -2.91009,7.15642 -2.90993,11.03633 -1.6e-4,6.19826 2.22959,11.52714 6.68922,15.98669 4.45931,4.45939 9.7882,6.68915 15.98673,6.68923 l 0,0 z" id="flowRoot2383" fill="#ffffff"/>
</svg>
