<?xml version="1.0" encoding="UTF-8" standalone="no"?>
<svg xmlns="http://www.w3.org/2000/svg" xmlns:sodipodi="http://sodipodi.sourceforge.net/DTD/sodipodi-0.dtd" xmlns:inkscape="http://www.inkscape.org/namespaces/inkscape" version="1.0" width="580" height="580">
 <metadata id="metadata2975"/>
 <defs id="defs4">
  <symbol id="symbol-university" viewBox="244.5 110 489 219.9">
   <path d="M79,43l57,119c0,0,21-96,104-96s124,106,124,106l43-133l82-17L0,17L79,43z" id="path4460"/>
   <path fill="none" stroke="#000000" stroke-width="20" d="M94,176l-21,39" id="path4462"/>
   <path d="M300,19c0,10.5-22.6,19-50.5,19S199,29.5,199,19s22.6-19,50.5-19S300,8.5,300,19z" id="path4464"/>
   <path ill="none" stroke="#000000" stroke-width="20" d="M112,216l-16-38L64,88c0,0-9-8-4-35s16-24,16-24" id="path4466"/>
  </symbol>
  <symbol viewBox="244.5 110 489 219.9" id="symbol9807">
   <path id="path9809" d="M79,43l57,119c0,0,21-96,104-96s124,106,124,106l43-133l82-17L0,17L79,43z"/>
   <path id="path9811" d="M94,176l-21,39" stroke-width="20" stroke="#000000" fill="none"/>
   <path id="path9813" d="M300,19c0,10.5-22.6,19-50.5,19S199,29.5,199,19s22.6-19,50.5-19S300,8.5,300,19z"/>
   <path id="path9815" d="M112,216l-16-38L64,88c0,0-9-8-4-35s16-24,16-24" stroke-width="20" stroke="#000000" ill="none"/>
  </symbol>
  <linearGradient id="linearGradient2936">
   <stop id="stop2938" stop-color="#8acf6b"/>
   <stop offset="1" id="stop2940" stop-color="#368912"/>
  </linearGradient>
  <linearGradient id="linearGradient2952">
   <stop id="stop2954" stop-color="#c0d50d"/>
   <stop offset="1" id="stop2956" stop-color="#eef2cd"/>
  </linearGradient>
 </defs>
 <g id="g1327">
  <path d="M 66.275,1.768 C 24.94,1.768 1.704,23.139 1.704,66.804 L 1.704,516.927 C 1.704,557.771 22.599,579.156 63.896,579.156 L 515.92,579.156 C 557.227,579.156 578.149,558.841 578.149,516.927 L 578.149,66.804 C 578.149,24.203 557.227,1.768 514.628,1.768 C 514.624,1.768 66.133,1.625 66.275,1.768 z " id="path1329" fill="#AC39AC" stroke="#eee" stroke-width="3.408"/>
 </g>
 <path sodipodi:nodetypes="ccccc" id="path3737" d="M 387.99683,121.29864 C 377.68526,143.76141 333.1954,189.65193 309.35735,178.70904 C 285.51931,167.76614 291.31554,104.11325 301.62711,81.650486 C 311.93868,59.18771 346.72052,41.016193 361.27297,67.80619 C 391.90518,61.758286 398.3084,98.835878 387.99683,121.29864 z" fill="#ffffff" stroke-linejoin="round" stroke-linecap="round" stroke-width=".161"/>
 <path sodipodi:nodetypes="ccccc" id="path3741" d="M 402.73084,252.22536 C 378.06071,253.73894 316.6032,236.18162 314.99695,210.0011 C 313.3907,183.82058 372.24098,158.88201 396.91105,157.36842 C 421.58117,155.85484 454.01981,177.93911 437.27242,203.41462 C 457.06442,227.56389 427.40091,250.71175 402.73084,252.22536 z" fill="#ffffff" stroke-linejoin="round" stroke-linecap="round" stroke-width=".161"/>
 <path sodipodi:nodetypes="ccccc" id="path3749" d="M 169.71491,272.4472 C 183.46515,251.90855 234.68235,213.67132 256.47847,228.26341 C 278.27458,242.85547 262.4366,304.77838 248.68637,325.31702 C 234.93615,345.85565 197.70859,358.26888 187.59841,329.50673 C 156.39435,330.60985 155.96471,292.98586 169.71491,272.4472 z" fill="#ffffff" stroke-linejoin="round" stroke-linecap="round" stroke-width=".161"/>
 <path sodipodi:nodetypes="ccccc" id="path3753" d="M 177.25987,139.80678 C 201.53335,144.46545 256.70774,176.73109 251.76387,202.49072 C 246.82001,228.25032 183.6208,237.79738 159.34733,233.13872 C 135.07384,228.48008 109.13369,199.03373 131.68152,178.51368 C 118.50467,150.20676 152.98639,135.14817 177.25987,139.80678 z" fill="#ffffff" stroke-linejoin="round" stroke-linecap="round" stroke-width=".161"/>
 <path sodipodi:nodetypes="ccccc" id="path3755" d="M 277.10264,77.667803 C 288.41835,99.641869 297.08386,162.96797 273.76441,174.97646 C 250.445,186.98493 203.92767,143.15089 192.61198,121.17683 C 181.2963,99.202742 188.45538,60.61873 218.51711,65.695132 C 232.65699,37.856782 265.78693,55.693728 277.10264,77.667803 z" fill="#ffffff" stroke-linejoin="round" stroke-linecap="round" stroke-width=".161"/>
 <path sodipodi:type="arc" sodipodi:ry="58" sodipodi:rx="59" sodipodi:cy="376.36218" sodipodi:cx="239" id="path2974" d="M 298,376.36218 A 59,58 0 1 1 180,376.36218 A 59,58 0 1 1 298,376.36218 z" transform="matrix(0.7053332,0,0,0.7053332,114.12867,-60.986774)" fill="#ffffff" stroke-linejoin="round" stroke-linecap="round" stroke-width=".25"/>
 <path d="M 274.86005,324.15543 C 266.27238,300.97878 265.29447,237.07002 289.8901,227.95659 C 314.48571,218.84316 355.38695,267.95909 363.97462,291.13572 C 372.56227,314.31238 360.80968,351.75375 331.57785,343.09478 C 314.18905,369.02814 283.44772,347.33208 274.86005,324.15543 z" id="path12269" sodipodi:nodetypes="ccccc" fill="#ffffff" stroke-linejoin="round" stroke-linecap="round" stroke-width=".161"/>
 <path d="m 276.375,192.0625 c -4.22066,11.41596 -8.426,22.8376 -12.65625,34.25 3.64033,0.53581 8.31521,5.68528 10.625,1.03125 7.60631,-9.38564 20.91626,-12.91607 32.28125,-8.65625 -1.36395,-5.28108 -1.78523,-10.79477 -0.84375,-16.1875 -9.42273,-4.48305 -18.93139,-8.697 -28.71875,-12.34375 -0.22917,0.63542 -0.45833,1.27083 -0.6875,1.90625 z m 79.21875,65.65625 C 370.9151,275.63926 381.1882,300.0815 375,323.6875 c -2.0368,8.92708 -7.66231,16.58551 -13.75,22.9375 -13.33763,59.51675 -34.66786,116.92182 -56.81044,173.69863 -0.37944,4.78377 9.99398,5.0247 14.03276,7.94124 6.9758,2.84409 13.96999,5.64346 20.93393,8.51638 23.79787,-60.85348 46.64982,-122.54607 60.53125,-186.5 5.14805,-24.69902 8.68472,-52.1996 -3.65625,-75.34375 -2.77011,-4.50612 -5.02568,-10.22697 -9.15625,-13.25 -12.22697,-1.16677 -23.88404,-5.66749 -35.625,-9.09375 1.36458,1.70833 2.72917,3.41667 4.09375,5.125 z" id="path12271" color="#000000" stroke-width="34.559" fill="#ffffff"/>
</svg>
