<?xml version="1.0" encoding="UTF-8" standalone="no"?>
<svg xmlns="http://www.w3.org/2000/svg" xmlns:sodipodi="http://sodipodi.sourceforge.net/DTD/sodipodi-0.dtd" xmlns:inkscape="http://www.inkscape.org/namespaces/inkscape" version="1.0" width="580" height="580">
 <metadata id="metadata2975"/>
 <defs id="defs4">
  <symbol viewBox="244.5 110 489 219.9" id="symbol-university">
   <path id="path4460" d="M79,43l57,119c0,0,21-96,104-96s124,106,124,106l43-133l82-17L0,17L79,43z"/>
   <path id="path4462" d="M94,176l-21,39" stroke-width="20" stroke="#000000" fill="none"/>
   <path id="path4464" d="M300,19c0,10.5-22.6,19-50.5,19S199,29.5,199,19s22.6-19,50.5-19S300,8.5,300,19z"/>
   <path id="path4466" d="M112,216l-16-38L64,88c0,0-9-8-4-35s16-24,16-24" stroke-width="20" stroke="#000000" ill="none"/>
  </symbol>
 </defs>
 <g id="g1327">
  <path d="M 66.275,1.768 C 24.94,1.768 1.704,23.139 1.704,66.804 L 1.704,516.927 C 1.704,557.771 22.599,579.156 63.896,579.156 L 515.92,579.156 C 557.227,579.156 578.149,558.841 578.149,516.927 L 578.149,66.804 C 578.149,24.203 557.227,1.768 514.628,1.768 C 514.624,1.768 66.133,1.625 66.275,1.768 z " id="path1329" fill="#AC39AC" stroke="#eee" stroke-width="3.408"/>
 </g>
 <g id="g3709" transform="matrix(31.921892,0,0,31.921892,35.399153,14.948442)" fill="none" stroke="#ffffff" stroke-linejoin="round">
  <path id="path3700" d="M 8,15 0.5,6 15.5,6 z"/>
  <path id="path3702" d="M 0.5,6 3,3 13,3 15.5,6 z"/>
  <path d="M 4.5,3 8,15 11.5,3" id="path3706"/>
 </g>
 <path id="path3700-3" d="M 290.77429,493.77682 51.360099,206.4798 l 478.828381,0 z" opacity=".1" fill="#ffffff" stroke="#ffffff" stroke-linejoin="round" stroke-width="31.922"/>
 <path id="path3702-2" d="m 51.360099,206.4798 79.804731,-95.76568 319.21892,0 79.80473,95.76568 z" opacity=".1" fill="#ffffff" stroke="#ffffff" stroke-linejoin="round" stroke-width="31.922"/>
</svg>
