<?xml version="1.0" encoding="UTF-8" standalone="no"?>
<svg xmlns="http://www.w3.org/2000/svg" xmlns:sodipodi="http://sodipodi.sourceforge.net/DTD/sodipodi-0.dtd" xmlns:inkscape="http://www.inkscape.org/namespaces/inkscape" version="1.0" width="580" height="580">
 <metadata id="metadata2975"/>
 <defs id="defs4">
  <symbol viewBox="244.5 110 489 219.9" id="symbol-university">
   <path id="path4460" d="M79,43l57,119c0,0,21-96,104-96s124,106,124,106l43-133l82-17L0,17L79,43z"/>
   <path id="path4462" d="M94,176l-21,39" stroke-width="20" stroke="#000000" fill="none"/>
   <path id="path4464" d="M300,19c0,10.5-22.6,19-50.5,19S199,29.5,199,19s22.6-19,50.5-19S300,8.5,300,19z"/>
   <path id="path4466" d="M112,216l-16-38L64,88c0,0-9-8-4-35s16-24,16-24" stroke-width="20" stroke="#000000" ill="none"/>
  </symbol>
 </defs>
 <g id="g1327">
  <path d="M 66.275,1.768 C 24.94,1.768 1.704,23.139 1.704,66.804 L 1.704,516.927 C 1.704,557.771 22.599,579.156 63.896,579.156 L 515.92,579.156 C 557.227,579.156 578.149,558.841 578.149,516.927 L 578.149,66.804 C 578.149,24.203 557.227,1.768 514.628,1.768 C 514.624,1.768 66.133,1.625 66.275,1.768 z " id="path1329" fill="#AC39AC" stroke="#eee" stroke-width="3.408"/>
 </g>
 <path d="M 27.242741,-248.97792 L 39.548641,-228.79084 L 152.86371,-184.08575 L 151.87803,-241.06807 L 40.287901,-263.53323 L 27.242741,-248.97792 z" id="path3289" sodipodi:nodetypes="cccccc" fill="#ffffff" fill-rule="evenodd" stroke="#ffffff" stroke-linejoin="round" stroke-linecap="round" stroke-width="18.03"/>
 <path d="M 210.08403,467.48872 L 379.72616,467.48872 C 379.72616,443.37312 378.00436,438.58949 338.06623,438.58949 C 344.44658,419.44845 370.38112,373.13993 384.7929,373.13993 C 397.54324,373.13993 412.75384,373.84227 412.75384,402.93461 C 412.75384,435.96229 468.33448,489.21331 481.81173,467.48872 C 501.89662,435.11321 447.28279,444.98574 447.28279,366.9044 C 447.28279,260.08506 509.62284,275.29185 509.62284,215.2773 C 509.62284,185.25213 501.32809,181.19752 501.32809,159.73074 C 501.32809,131.36056 526.32134,133.00687 521.45861,109.4841 C 518.09955,93.235652 515.47084,80.205239 513.5126,60.556604 C 512.12304,46.615047 511.68002,31.755726 497.19903,32.353212 C 480.18452,33.055215 473.7297,63.00412 447.28279,65.151445 C 420.88991,67.294416 398.38575,42.682831 388.17073,46.198057 C 378.04189,49.683664 381.22741,77.161513 387.23245,96.677872 C 396.67071,127.35193 417.25762,167.23703 379.72616,173.24207 C 342.1947,179.2471 277.64058,185.25213 231.10165,246.80373 C 184.56264,308.35533 186.28065,380.59085 168.04879,402.93461 C 106.85998,477.92358 44.157261,447.13421 44.157261,509.52396 C 44.157261,537.45583 91.484613,557.56422 98.990905,548.55667 C 106.4972,539.54912 35.20952,512.7086 114.97398,481.00004 C 183.11853,453.91072 189.20167,448.38082 210.08403,467.48872 z" id="path1891" fill="#ffffff" fill-rule="evenodd"/>
</svg>
