<?xml version="1.0" encoding="UTF-8" standalone="no"?>
<svg xmlns="http://www.w3.org/2000/svg" xmlns:sodipodi="http://sodipodi.sourceforge.net/DTD/sodipodi-0.dtd" xmlns:inkscape="http://www.inkscape.org/namespaces/inkscape" version="1.0" width="580" height="580">
 <metadata id="metadata2975"/>
 <defs id="defs4">
  <symbol viewBox="244.5 110 489 219.9" id="symbol-university">
   <path id="path4460" d="M79,43l57,119c0,0,21-96,104-96s124,106,124,106l43-133l82-17L0,17L79,43z"/>
   <path id="path4462" d="M94,176l-21,39" stroke-width="20" stroke="#000000" fill="none"/>
   <path id="path4464" d="M300,19c0,10.5-22.6,19-50.5,19S199,29.5,199,19s22.6-19,50.5-19S300,8.5,300,19z"/>
   <path id="path4466" d="M112,216l-16-38L64,88c0,0-9-8-4-35s16-24,16-24" stroke-width="20" stroke="#000000" ill="none"/>
  </symbol>
 </defs>
 <g id="g1327">
  <path d="M 66.275,1.768 C 24.94,1.768 1.704,23.139 1.704,66.804 L 1.704,516.927 C 1.704,557.771 22.599,579.156 63.896,579.156 L 515.92,579.156 C 557.227,579.156 578.149,558.841 578.149,516.927 L 578.149,66.804 C 578.149,24.203 557.227,1.768 514.628,1.768 C 514.624,1.768 66.133,1.625 66.275,1.768 z " id="path1329" fill="#39AC39" stroke="#eee" stroke-width="3.408"/>
 </g>
 <g id="g19464" transform="matrix(2.1079872,0,0,2.1079872,-1166.5541,-218.12622)">
  <circle transform="matrix(34.373825,0,0,34.373825,-4356.2756,-5455.4235)" cx="144.2" cy="165.66" r=".794" id="circle1803" fill="#ffffff"/>
  <g transform="matrix(34.373825,0,0,34.373825,-4356.2756,-5455.4235)" id="g1805">
   <path d="M 148.649,167.822 C 148.686,167.797 148.735,167.804 148.762,167.84 L 148.908,168.043 C 148.933,168.078 148.926,168.129 148.89,168.156 L 147.812,168.939 C 147.777,168.964 147.726,168.957 147.699,168.921 L 147.553,168.718 C 147.528,168.683 147.535,168.632 147.571,168.605 L 148.649,167.822 z" id="path1807" fill="#ffffff"/>
  </g>
  <polygon transform="matrix(34.373825,0,0,34.373825,-4356.2756,-5455.4235)" points="147.206,166.98 147.431,166.812 147.003,166.062 146.778,166.226 " id="polygon1809" fill="#ffffff"/>
  <polygon transform="matrix(34.373825,0,0,34.373825,-4356.2756,-5455.4235)" points="146.206,165.226 146.433,165.06 144.77,162.14 144.451,162.142 " id="polygon1811" fill="#ffffff"/>
  <path d="M 731.01613,271.42761 C 734.24727,269.09019 737.92526,267.26838 742.15325,267.26838 L 795.26081,267.33713 C 805.60733,267.33713 813.92579,275.72434 813.92579,286.00212 C 813.92579,296.34864 805.60733,304.6671 795.26081,304.6671 L 750.95294,304.59836 L 694.37363,344.54074 C 674.43681,358.909 662.33722,343.13141 662.33722,343.13141 L 617.92624,298.68606 C 610.46712,289.74886 612.08269,272.76819 621.01989,265.24033 L 682.48029,221.48245 C 688.59883,216.39512 697.63914,217.18572 702.82959,223.23551 C 707.91692,229.35405 707.12632,238.46312 701.00778,243.58482 L 661.64975,272.39008 L 689.90503,300.336 L 731.01613,271.42761 z" id="path1813" fill="#ffffff"/>
 </g>
</svg>
