<?xml version="1.0" encoding="UTF-8" standalone="no"?>
<svg xmlns:sodipodi="http://sodipodi.sourceforge.net/DTD/sodipodi-0.dtd" xmlns:inkscape="http://www.inkscape.org/namespaces/inkscape" version="1.0" width="580" height="580">
 <metadata id="metadata2975"/>
 <g id="g1327">
  <path d="M 66.275,1.768 C 24.94,1.768 1.704,23.139 1.704,66.804 l 0,450.123 c 0,40.844 20.896,62.229 62.192,62.229 l 452.024,0 c 41.307,0 62.229,-20.314 62.229,-62.229 l 0,-450.123 c 0,-42.601 -20.922,-65.036 -63.521,-65.036 -0.004,0 -448.495,-0.143 -448.353,0 z" id="path1329" inkscape:connector-curvature="0" fill="#39AC39" stroke="#eeeeee" stroke-width="3.408"/>
 </g>
 <circle cx="171.59" cy="397.93" r="50.55" id="circle2441" fill="#ffffff"/>
 <path d="M 285.113,104.116 C 231.611,50.615 157.245,39.652 111.872,83.61 c -49.437,47.896 -32.996,119.739 20.506,173.241 41.901,41.901 91.901,63.271 137.089,45.097 18.605,6.366 50.105,19.328 80.532,41.943 -1.016,4.799 0.331,9.996 4.058,13.723 l 90.51,90.51 c 5.857,5.858 15.355,5.858 21.213,10e-4 l 10.606,-10.606 c 5.857,-5.858 5.857,-15.355 0,-21.214 l -90.51,-90.509 c -3.727,-3.727 -8.923,-5.072 -13.722,-4.058 -22.709,-30.555 -35.684,-62.186 -42.022,-80.761 17.662,-44.908 -3.277,-95.118 -45.019,-136.861 z m 58.886,211.623 c -19.857,-10.854 -38.697,-19.558 -55.349,-26.429 5.108,-4.233 10.157,-8.811 15.132,-13.786 4.976,-4.975 9.55,-10.033 13.776,-15.159 6.876,16.658 15.582,35.506 26.441,55.374 z" id="path2443" inkscape:connector-curvature="0" fill="#ffffff"/>
</svg>
