<?xml version="1.0" encoding="UTF-8" standalone="no"?>
<svg xmlns="http://www.w3.org/2000/svg" xmlns:sodipodi="http://sodipodi.sourceforge.net/DTD/sodipodi-0.dtd" xmlns:inkscape="http://www.inkscape.org/namespaces/inkscape" version="1.0" width="580" height="580">
 <metadata id="metadata2975"/>
 <defs id="defs4">
  <symbol viewBox="244.5 110 489 219.9" id="symbol-university">
   <path id="path4460" d="M79,43l57,119c0,0,21-96,104-96s124,106,124,106l43-133l82-17L0,17L79,43z"/>
   <path id="path4462" d="M94,176l-21,39" stroke-width="20" stroke="#000000" fill="none"/>
   <path id="path4464" d="M300,19c0,10.5-22.6,19-50.5,19S199,29.5,199,19s22.6-19,50.5-19S300,8.5,300,19z"/>
   <path id="path4466" d="M112,216l-16-38L64,88c0,0-9-8-4-35s16-24,16-24" stroke-width="20" stroke="#000000" ill="none"/>
  </symbol>
  <marker viewBox="0 0 10 10" refY="5" refX="10" orient="auto" markerWidth="4" markerUnits="strokeWidth" markerHeight="3" id="ArrowStart">
   <path id="path3634" d="M 10 0 L 0 5 L 10 10 z"/>
  </marker>
  <marker viewBox="0 0 10 10" refY="5" orient="auto" markerWidth="4" markerUnits="strokeWidth" markerHeight="3" id="ArrowEnd">
   <path id="path3631" d="M 0 0 L 10 5 L 0 10 z"/>
  </marker>
  <marker viewBox="0 0 10 10" refY="5" refX="10" orient="auto" markerWidth="4" markerUnits="strokeWidth" markerHeight="3" id="marker2611">
   <path id="path1325" d="M 10 0 L 0 5 L 10 10 z"/>
  </marker>
  <marker viewBox="0 0 10 10" refY="5" orient="auto" markerWidth="4" markerUnits="strokeWidth" markerHeight="3" id="marker2608">
   <path id="path1322" d="M 0 0 L 10 5 L 0 10 z"/>
  </marker>
  <clipPath id="clipoutline1">
   <path d="m 22.42,17.2 12.96,12.95 -2.5,8.78 -8.78,2.5 -12.96,-12.96 -5.86,5.86 14.89,21.46 17.56,-3.34 61.63,65.62 c 9.44,9.51 22.17,-4.75 13.34,-12.87 L 46.85,42.92 50.86,25.16 28.72,10.89 22.42,17.2 z m 81.06,91.97 c 1.68,-1.68 4.4,-1.68 6.08,0 1.68,1.68 1.68,4.4 0,6.08 -1.68,1.67 -4.4,1.67 -6.08,0 -1.68,-1.68 -1.68,-4.4 0,-6.08 z" id="outline1"/>
  </clipPath>
 </defs>
 <g id="g1327">
  <path d="M 66.275,1.768 C 24.94,1.768 1.704,23.139 1.704,66.804 L 1.704,516.927 C 1.704,557.771 22.599,579.156 63.896,579.156 L 515.92,579.156 C 557.227,579.156 578.149,558.841 578.149,516.927 L 578.149,66.804 C 578.149,24.203 557.227,1.768 514.628,1.768 C 514.624,1.768 66.133,1.625 66.275,1.768 z" id="path1329" fill="#39AC39" stroke="#eeeeee" stroke-width="3.408"/>
 </g>
 <path d="M 288.875 46.5 A 15.394957 15.394957 0 0 0 274.875 56.09375 L 235.28125 149.8125 L 268.71875 149.8125 L 290.65625 97.875 L 312.65625 149.8125 L 346.09375 149.8125 L 306.375 56.09375 A 15.394957 15.394957 0 0 0 290.5625 46.59375 A 15.394957 15.394957 0 0 0 288.875 46.5 z M 127.96875 423.8125 L 95.3125 502.8125 A 15.394957 15.394957 0 1 0 123.75 514.5625 L 161.25 423.8125 L 127.96875 423.8125 z M 418 423.8125 L 424.09375 433.6875 L 457.46875 514.5625 A 15.399125 15.399125 0 1 0 485.9375 502.8125 L 453.28125 423.8125 L 418 423.8125 z " id="path3526" opacity=".75" color="#000000" stroke-width="30.787" fill="#ffffff"/>
 <path d="m 71.654879,152.91997 5.063952,270.67799 435.065989,-4.51986 -2.35096,-267.78613 -437.778981,1.628 z m 318.482771,40.38298 c 1.1537,-0.006 2.31537,0.009 3.46747,0.0488 7.88726,-0.11941 15.96255,0.30671 23.68621,1.36745 36.18418,4.93808 67.52904,35.08881 71.84002,71.547 5.19228,28.67854 -4.01296,61.16539 -29.74206,77.45635 l 36.62816,0 0,35.6514 -83.85406,0 0,-38.2398 c 28.16775,-18.29131 36.78867,-58.17527 23.19783,-88.05409 -9.46122,-27.14063 -48.59941,-34.08038 -68.51908,-14.50467 -26.12217,29.01687 -19.46324,81.36082 13.528,102.55885 l 0,38.23979 -69.78884,0 c -13.02705,3.22698 -16.41409,-3.18604 -14.06522,-15.33499 1.3679,-8.3996 -5.04116,-24.57617 8.98611,-20.31641 8.42664,-0.36229 20.85442,0.72956 26.76298,-0.53722 -29.90421,-19.67126 -36.42736,-60.92804 -24.90715,-92.79133 10.89695,-35.13803 47.01461,-56.90107 82.77963,-57.0911 l 0,-3e-5 z m -299.276464,3.32094 46.981714,0 c 0.0125,14.94432 -0.0347,29.88872 0.0488,44.83287 -1.16558,21.33163 3.29572,45.07651 21.68387,58.31203 0.57786,-34.37897 0.21692,-68.76367 0.29303,-103.1449 l 47.03055,0 0,103.29141 c 6.70866,-5.30038 12.22465,-11.74705 15.96987,-19.43734 10.56784,-26.48967 4.63771,-56.04708 6.1047,-83.85407 l 46.98172,0 c -0.93206,28.71522 3.39029,58.19748 -4.78609,86.14944 -8.94346,28.26485 -32.78537,56.11869 -64.12368,58.89807 -0.23849,12.5662 -0.11784,25.13501 -0.14644,37.70259 l -47.03056,0 0,-37.65375 C 138.40572,340.29945 120.79819,325.60022 108.63806,308.99909 85.141109,277.81677 91.673366,236.46518 90.958869,199.94486 c -0.03256,-1.10699 -0.06511,-2.21398 -0.09766,-3.32097 l -2.3e-5,0 z" id="rect3530" sodipodi:nodetypes="cccccccccccccccccccccccccccccccccccccccccccc" fill="#ffffff"/>
 <rect y="149.82" x="73.26" height="273.99" width="437.75" id="rect3544" fill="none" stroke="#ffffff" stroke-linejoin="round" stroke-linecap="round" stroke-width="20.525"/>
</svg>
