<?xml version="1.0" encoding="UTF-8" standalone="no"?>
<svg xmlns="http://www.w3.org/2000/svg" xmlns:sodipodi="http://sodipodi.sourceforge.net/DTD/sodipodi-0.dtd" xmlns:inkscape="http://www.inkscape.org/namespaces/inkscape" version="1.0" width="580" height="580">
 <defs id="defs22">
  <marker viewBox="0 0 10 10" refY="5" refX="10" orient="auto" markerWidth="4" markerUnits="strokeWidth" markerHeight="3" id="ArrowStart">
   <path id="path3568" d="M 10 0 L 0 5 L 10 10 z"/>
  </marker>
  <marker viewBox="0 0 10 10" refY="5" orient="auto" markerWidth="4" markerUnits="strokeWidth" markerHeight="3" id="ArrowEnd">
   <path id="path3565" d="M 0 0 L 10 5 L 0 10 z"/>
  </marker>
  <marker viewBox="0 0 10 10" refY="5" refX="10" orient="auto" markerWidth="4" markerUnits="strokeWidth" markerHeight="3" id="marker2959">
   <path id="path2626" d="M 10 0 L 0 5 L 10 10 z"/>
  </marker>
  <marker viewBox="0 0 10 10" refY="5" orient="auto" markerWidth="4" markerUnits="strokeWidth" markerHeight="3" id="marker2956">
   <path id="path2623" d="M 0 0 L 10 5 L 0 10 z"/>
  </marker>
 </defs>
 <metadata id="metadata10"/>
 <g id="g1327">
  <path d="M 66.275,1.768 C 24.94,1.768 1.704,23.139 1.704,66.804 L 1.704,516.927 C 1.704,557.771 22.598,579.156 63.896,579.156 L 515.92,579.156 C 557.227,579.156 578.149,558.84 578.149,516.927 L 578.149,66.804 C 578.149,24.203 557.227,1.768 514.627,1.768 C 514.624,1.768 66.133,1.625 66.275,1.768 z" id="path1329" fill="#39AC39" stroke="#eeeeee" stroke-width="3.408"/>
 </g>
 <g id="g4022" transform="translate(0.35355339,0)">
  <path id="path3945" d="m 118.18483,230.29577 a 8.260921,8.260921 0 0 0 -5.31744,1.85852 l -87.608634,71.29495 a 8.260921,8.260921 0 0 0 3.149162,14.40354 l 145.480922,36.80905 a 8.260921,8.260921 0 0 0 8.00197,-2.32315 l 41.24885,-43.159 -15.95231,-7.22758 -33.91802,35.46678 -124.830682,-31.54324 71.759572,-58.33692 54.15525,11.82226 -1.08414,-17.1397 -53.43249,-11.71901 a 8.260921,8.260921 0 0 0 -1.65201,-0.2065 z" color="#000000" stroke-width="10" fill="#ffffff"/>
  <path id="path3947" d="M 186.99209,476.88333 176.47871,346.63417 29.291318,309.83733 52.654402,439.5024 186.99209,476.88333 z" fill="none" stroke="#ffffff" stroke-linejoin="round" stroke-linecap="round" stroke-width="16.52"/>
  <path id="path3949" d="m 208.16824,302.3651 -37.58344,38.51269 a 8.260921,8.260921 0 0 0 -2.32315,6.4532 l 11.0995,130.25138 a 8.260921,8.260921 0 0 0 14.76492,4.33655 l 65.97751,-85.85337 a 8.260921,8.260921 0 0 0 1.75527,-5.16256 l -0.87763,-64.63524 -16.62344,-7.53734 0.92926,69.53968 -51.26422,66.64864 -8.98285,-105.21296 39.1322,-40.06146 -16.00393,-7.27921 z" color="#000000" stroke-width="10" fill="#ffffff"/>
 </g>
 <path d="M 389.0827,498.9863 399.59609,364.6486 549.70385,327.85176 527.50893,458.10091 389.0827,498.9863 z" id="path3951" fill="none" stroke="#ffffff" stroke-linejoin="round" stroke-linecap="round" stroke-width="16.52"/>
 <path d="m 461.49502,244.84321 c -0.60744,0.002 -1.21463,0.0715 -1.80689,0.2065 l -45.75278,10.36892 -1.18739,17.24295 46.57879,-10.57542 73.25672,61.64096 -130.71601,32.31762 -47.23262,-45.80907 -5.95424,4.14418 44.20401,56.37818 c 1.99028,2.19986 5.22505,3.18884 8.10522,2.47803 l 151.26299,-37.37693 c 2.92586,-0.73167 5.34936,-3.19071 6.03836,-6.12692 0.689,-2.9362 -0.3877,-6.21658 -2.6827,-8.17337 l -88.79602,-74.80548 c -1.47769,-1.22928 -3.3953,-1.91813 -5.31744,-1.91015 z" id="path3953" sodipodi:nodetypes="ccccccccccccsccc" color="#000000" stroke-width="10" fill="#ffffff"/>
 <path sodipodi:nodetypes="ccccccccccscccc" d="m 361.30072,312.05506 -13.7324,9.44749 43.50939,46.62258 -8.51822,108.00074 -52.86461,-69.69455 2.63291,-75.26381 -16.9332,11.66739 -2.32315,65.86795 c -0.0805,1.8914 0.51393,3.80461 1.65202,5.31743 l 67.78441,89.36391 c 2.00793,2.64714 5.71344,3.8692 8.90218,2.93591 3.18874,-0.93329 5.65058,-3.96043 5.91436,-7.27246 l 10.53162,-133.14241 c 0.17592,-2.2608 -0.62946,-4.58109 -2.16827,-6.2467 l -44.38704,-47.60347 z" id="path3955" color="#000000" stroke-width="10" fill="#ffffff"/>
 <path d="m 174.72646,142.03018 135.50585,44.38983 -2.3363,160.62115 -123.82431,-56.65544 -9.34524,-148.35554 z" id="path3933" sodipodi:nodetypes="ccccc" fill="none" stroke="#ffffff" stroke-linejoin="round" stroke-linecap="round" stroke-width="16.52"/>
 <path d="m 416.53432,131.5168 -106.30201,54.90321 -1.75223,161.20524 97.54086,-67.16885 10.51338,-148.9396 z" id="path3935" fill="none" stroke="#ffffff" stroke-linejoin="round" stroke-linecap="round" stroke-width="16.52"/>
 <path d="M 285.70109,94.135869 176.04065,140.71602 310.23231,185.83594 415.36616,130.49464 285.70109,94.135869 z" id="path3937" sodipodi:nodetypes="ccccc" fill="none" stroke="#ffffff" stroke-linejoin="round" stroke-linecap="round" stroke-width="16.52"/>
 <path d="M 174.875 133.78125 C 172.59872 133.73665 170.32438 134.66788 168.75 136.3125 C 167.17561 137.95712 166.32491 140.29033 166.46875 142.5625 L 175.8125 290.90625 C 175.99757 293.87451 177.91985 296.67054 180.625 297.90625 L 304.46875 354.5625 C 306.95577 355.69653 310.00367 355.49434 312.3125 354.03125 C 314.62133 352.56817 316.1198 349.88937 316.15625 347.15625 L 318.5 186.53125 C 318.5501 183.03869 316.13173 179.65025 312.8125 178.5625 L 177.3125 134.1875 C 176.52644 133.93112 175.70172 133.79367 174.875 133.78125 z M 212.25 189.625 C 214.81726 189.56681 218.00916 190.02833 221.84375 191 C 226.95648 192.29567 232.53325 194.27402 238.53125 196.96875 C 248.15951 201.29469 255.88873 205.39501 261.78125 209.25 C 267.67362 213.10515 272.65937 217.84705 276.71875 223.5 C 279.56941 227.43186 281.89845 232.21111 283.6875 237.875 C 285.47636 243.53896 286.46473 248.65197 286.65625 253.15625 L 288.4375 295.375 C 288.6288 299.87928 289.04781 303.5667 289.65625 306.34375 C 290.26445 309.12074 291.49159 312.84218 293.34375 317.5625 L 263.1875 304.03125 C 261.87266 301.02513 261.01685 298.80041 260.59375 297.34375 C 260.1705 295.88692 259.70438 293.67817 259.21875 290.75 C 255.20612 293.48334 251.16596 294.88558 247.09375 295 C 241.52372 295.0895 234.99247 293.4741 227.46875 290.09375 C 217.4721 285.60241 209.75076 279.55097 204.34375 271.9375 C 198.9367 264.32399 196.0792 256.62245 195.75 248.875 C 195.4412 241.60803 197.05723 236.47493 200.59375 233.46875 C 204.13025 230.46264 210.86022 230.07971 220.8125 232.3125 C 232.74363 234.96313 240.46943 236.53493 244 237.03125 C 247.53047 237.52766 251.26536 237.78649 255.1875 237.78125 C 254.99604 233.27698 254.05128 229.7533 252.34375 227.21875 C 250.63609 224.68427 247.72883 222.50012 243.625 220.65625 C 238.36359 218.29243 234.45525 217.47889 231.90625 218.21875 C 229.91807 218.79833 228.36786 220.86089 227.28125 224.4375 L 196.4375 206.9375 C 197.33468 201.33175 198.77832 197.28245 200.8125 194.75 C 202.84668 192.21773 205.88084 190.58249 209.875 189.84375 C 210.59181 189.70928 211.39425 189.6444 212.25 189.625 z M 234.5 254.15625 C 232.47658 254.20656 231.04602 254.52287 230.21875 255.09375 C 228.51406 256.27194 227.73652 258.13385 227.84375 260.65625 C 227.9662 263.53902 228.9408 266.28262 230.78125 268.90625 C 232.6216 271.52993 235.23631 273.61973 238.65625 275.15625 C 242.23395 276.76368 245.5375 277.25526 248.53125 276.65625 C 251.52488 276.05711 253.58211 274.61731 254.75 272.34375 C 255.91775 270.07014 256.41265 266.65814 256.21875 262.09375 L 255.96875 256.25 C 251.6257 256.06608 247.10409 255.55103 242.375 254.78125 C 239.15503 254.30661 236.52342 254.10594 234.5 254.15625 z " id="path4040" opacity=".9" color="#000000" stroke-width="16.52" fill="#ffffff"/>
 <path id="path4042" d="m 416.53432,131.5168 -106.30201,54.90321 -1.75223,161.20524 97.54086,-67.16885 10.51338,-148.9396 z" opacity=".6" fill="#ffffff" stroke="#ffffff" stroke-linejoin="round" stroke-linecap="round" stroke-width="16.52"/>
 <path sodipodi:nodetypes="ccccc" id="path4044" d="M 285.70109,94.135869 176.04065,140.71602 310.23231,185.83594 415.36616,130.49464 285.70109,94.135869 z" opacity=".75" fill="#ffffff" stroke="#ffffff" stroke-linejoin="round" stroke-linecap="round" stroke-width="16.52"/>
 <path sodipodi:nodetypes="cccsccccccccc" id="path4048" d="m 118.53838,230.29577 c -1.91591,-0.0224 -3.83259,0.64755 -5.31744,1.85852 l -87.608631,71.29495 c -2.354223,1.91725 -3.502227,5.20388 -2.853728,8.16997 0.648498,2.96608 3.063356,5.47374 6.00289,6.23357 l 145.480919,36.80905 c 2.82348,0.70907 5.99717,-0.21232 8.00197,-2.32315 l 41.24885,-43.159 -15.95231,-7.22758 -23.77787,-15.75483 -10.14015,-43.97599 -53.43249,-11.71901 c -0.54185,-0.12418 -1.09626,-0.19348 -1.65201,-0.2065 z" opacity=".75" color="#000000" stroke-width="10" fill="#ffffff"/>
 <path d="M 29.1875 301.59375 C 26.860878 301.72707 24.598384 302.88812 23.15625 304.71875 C 21.714116 306.54937 21.116174 309.01932 21.53125 311.3125 L 44.875 440.96875 C 45.418838 444.00706 47.808761 446.63724 50.78125 447.46875 L 185.125 484.84375 C 187.67818 485.56135 190.57811 484.96765 192.625 483.28125 C 194.67189 481.59486 195.80956 478.86206 195.59375 476.21875 L 185.0625 345.96875 C 184.78578 342.55589 182.16438 339.46026 178.84375 338.625 L 31.65625 301.8125 C 30.850542 301.61622 30.015167 301.5422 29.1875 301.59375 z M 50.65625 331.21875 L 84.1875 338.96875 L 90.625 373.25 C 93.403022 371.13357 96.742255 369.84444 100.6875 369.375 C 104.6327 368.90565 109.1688 369.25986 114.28125 370.4375 C 124.83231 372.86814 134.13538 378.00476 142.21875 385.875 C 150.30193 393.74529 155.45572 403.5645 157.65625 415.3125 C 159.12311 423.14451 158.81852 429.70013 156.78125 434.9375 C 154.74376 440.17485 151.20987 443.6171 146.1875 445.28125 C 141.16492 446.94527 135.26709 447.00359 128.46875 445.4375 C 122.64924 444.09691 117.13446 441.81059 111.90625 438.625 C 107.95876 436.16521 103.44369 432.22719 98.3125 426.78125 L 100.28125 437.375 L 69.1875 430.21875 L 50.65625 331.21875 z M 103.3125 388.125 C 101.00546 388.20994 99.11676 388.89976 97.65625 390.21875 C 95.319401 392.32925 94.66487 396.21733 95.71875 401.84375 C 96.873734 408.01036 99.118027 412.77408 102.4375 416.1875 C 105.7569 419.60096 109.5471 421.82273 113.84375 422.8125 C 117.81395 423.7271 120.88034 423.10303 123.0625 421 C 125.24454 418.89698 125.76802 414.65542 124.5625 408.21875 C 123.50015 402.5473 121.41638 398.07585 118.28125 394.8125 C 115.14599 391.5492 111.65892 389.48953 107.90625 388.625 C 106.21344 388.23505 104.69672 388.07404 103.3125 388.125 z " id="path4050" opacity=".9" color="#000000" stroke-width="16.52" fill="#ffffff"/>
 <path sodipodi:nodetypes="ccccsccccc" id="path4052" d="m 208.52179,302.3651 -37.58344,38.51269 c -1.64732,1.68654 -2.51749,4.10367 -2.32315,6.4532 l 11.0995,130.25138 c 0.28624,3.28715 2.73596,6.27965 5.90183,7.20948 3.16586,0.92984 6.84474,-0.26266 8.86309,-2.87293 l 65.97751,-85.85337 c 1.14165,-1.45868 1.77121,-3.3103 1.75527,-5.16256 l -0.87763,-64.63524 -52.81298,-23.90265 z" opacity=".6" color="#000000" stroke-width="10" fill="#ffffff"/>
 <path d="M 549.1875 319.59375 C 548.70221 319.63445 548.22055 319.71826 547.75 319.84375 L 397.625 356.625 C 394.28379 357.45244 391.64321 360.56832 391.375 364 L 380.84375 498.34375 C 380.63527 501.00451 381.79932 503.72856 383.875 505.40625 C 385.95068 507.08394 388.87963 507.66809 391.4375 506.90625 L 529.84375 466.03125 C 532.79016 465.16508 535.1379 462.52703 535.65625 459.5 L 557.84375 329.25 C 558.2684 326.80124 557.50269 324.16309 555.84375 322.3125 C 554.18481 320.46192 551.66794 319.43827 549.1875 319.59375 z M 493.84375 362.78125 C 498.00504 362.72945 501.46806 363.34807 504.21875 364.65625 C 510.50586 367.64659 514.26277 373.65855 515.4375 382.71875 L 484.46875 396.125 C 484.17466 392.63715 482.94849 390.31554 480.78125 389.15625 C 478.61382 387.99716 475.42676 388.03979 471.21875 389.3125 C 465.90601 390.91948 461.26477 394.23161 457.28125 399.25 C 453.29763 404.26852 450.59868 410.87213 449.1875 419.03125 C 447.92982 426.30241 448.57901 431.30591 451.1875 434.09375 C 453.7959 436.88169 457.63774 437.5274 462.6875 436 C 466.89549 434.72725 470.64583 432.51783 473.90625 429.375 C 477.16653 426.23226 479.91993 422.08502 482.15625 416.9375 L 512.03125 411.375 C 509.18628 418.60024 505.40813 425.23897 500.71875 431.3125 C 496.02918 437.3861 490.47179 442.69322 484.03125 447.21875 C 477.59058 451.74422 469.79885 455.37203 460.59375 458.15625 C 451.70416 460.84504 444.45891 462.20855 438.84375 462.25 C 433.22853 462.2915 428.61508 461.03066 425.03125 458.40625 C 421.44734 455.78192 418.88261 452.19735 417.375 447.65625 C 415.86737 443.11519 415.86737 436.46439 417.375 427.75 C 418.94942 418.64729 421.72665 410.65978 425.71875 403.71875 C 428.64337 398.62616 432.2807 393.74798 436.625 389.09375 C 440.96926 384.43967 445.28854 380.63273 449.53125 377.71875 C 456.26112 373.10583 464.49742 369.3031 474.28125 366.34375 C 481.97408 364.01699 488.49352 362.84785 493.84375 362.78125 z " id="path4056" opacity=".9" color="#000000" stroke-width="16.52" fill="#ffffff"/>
 <path sodipodi:nodetypes="cccccccccsccc" id="path4058" d="m 461.49502,244.84321 c -0.60744,0.002 -1.21463,0.0715 -1.80689,0.2065 l -43.98501,10.01537 -6.84424,17.95006 -48.92074,36.15987 -9.48977,14.39723 42.43624,47.18579 c 1.99028,2.19986 5.22505,3.18884 8.10522,2.47803 l 151.26299,-37.37693 c 2.92586,-0.73167 5.34936,-3.19071 6.03836,-6.12692 0.689,-2.9362 -0.3877,-6.21658 -2.6827,-8.17337 l -88.79602,-74.80548 c -1.47769,-1.22928 -3.3953,-1.91813 -5.31744,-1.91015 z" opacity=".75" color="#000000" stroke-width="10" fill="#ffffff"/>
 <path id="path4060" d="m 361.30072,312.05506 -45.90613,30.77984 -2.32315,65.86795 c -0.0805,1.8914 0.51393,3.80461 1.65202,5.31743 l 67.78441,89.36391 c 2.00793,2.64714 5.71344,3.8692 8.90218,2.93591 3.18874,-0.93329 5.65058,-3.96043 5.91436,-7.27246 l 10.53162,-133.14241 c 0.17592,-2.2608 -0.62946,-4.58109 -2.16827,-6.2467 l -44.38704,-47.60347 z" sodipodi:nodetypes="cccccscccc" opacity=".6" color="#000000" stroke-width="10" fill="#ffffff"/>
</svg>
