<?xml version="1.0" encoding="UTF-8" standalone="no"?>
<svg xmlns="http://www.w3.org/2000/svg" xmlns:sodipodi="http://sodipodi.sourceforge.net/DTD/sodipodi-0.dtd" xmlns:inkscape="http://www.inkscape.org/namespaces/inkscape" version="1.0" width="580" height="580">
 <defs id="defs22">
  <marker viewBox="0 0 10 10" refY="5" refX="10" orient="auto" markerWidth="4" markerUnits="strokeWidth" markerHeight="3" id="ArrowStart">
   <path id="path3568" d="M 10 0 L 0 5 L 10 10 z"/>
  </marker>
  <marker viewBox="0 0 10 10" refY="5" orient="auto" markerWidth="4" markerUnits="strokeWidth" markerHeight="3" id="ArrowEnd">
   <path id="path3565" d="M 0 0 L 10 5 L 0 10 z"/>
  </marker>
  <marker viewBox="0 0 10 10" refY="5" refX="10" orient="auto" markerWidth="4" markerUnits="strokeWidth" markerHeight="3" id="marker2959">
   <path id="path2626" d="M 10 0 L 0 5 L 10 10 z"/>
  </marker>
  <marker viewBox="0 0 10 10" refY="5" orient="auto" markerWidth="4" markerUnits="strokeWidth" markerHeight="3" id="marker2956">
   <path id="path2623" d="M 0 0 L 10 5 L 0 10 z"/>
  </marker>
 </defs>
 <metadata id="metadata10"/>
 <g id="g1327">
  <path d="M 66.275,1.768 C 24.94,1.768 1.704,23.139 1.704,66.804 L 1.704,516.927 C 1.704,557.771 22.598,579.156 63.896,579.156 L 515.92,579.156 C 557.227,579.156 578.149,558.84 578.149,516.927 L 578.149,66.804 C 578.149,24.203 557.227,1.768 514.627,1.768 C 514.624,1.768 66.133,1.625 66.275,1.768 z" id="path1329" fill="#39AC39" stroke="#eeeeee" stroke-width="3.408"/>
 </g>
 <path d="M 68.564095,150.51046 318.30511,232.32214 313.99924,528.35134 85.78763,423.9338 68.564095,150.51046 z" id="path3933" sodipodi:nodetypes="ccccc" fill="none" stroke="#ffffff" stroke-linejoin="round" stroke-linecap="round" stroke-width="30.447"/>
 <path d="M 514.22263,131.13401 318.30511,232.32214 315.0757,529.42783 494.84619,405.63379 514.22263,131.13401 z" id="path3935" fill="none" stroke="#ffffff" stroke-linejoin="round" stroke-linecap="round" stroke-width="30.447"/>
 <path d="M 273.09339,62.239925 70.986184,148.08842 318.30511,231.24568 512.06968,129.25014 273.09339,62.239925 z" id="path3937" sodipodi:nodetypes="ccccc" fill="none" stroke="#ffffff" stroke-linejoin="round" stroke-linecap="round" stroke-width="30.447"/>
 <path d="m 68.837859,135.30745 c -4.195247,-0.0822 -8.386918,1.63409 -11.288544,4.66517 -2.901644,3.03108 -4.469507,7.33125 -4.204406,11.51892 l 17.220788,273.40161 c 0.341089,5.47059 3.883904,10.62375 8.86957,12.9012 L 307.68271,542.21337 c 4.58364,2.09005 10.20101,1.71741 14.45624,-0.9791 4.25524,-2.6965 7.01696,-7.6336 7.08414,-12.67082 l 4.3196,-296.03629 c 0.0923,-6.43689 -4.36479,-12.68188 -10.48222,-14.68663 L 73.330238,136.05618 c -1.44873,-0.47251 -2.968712,-0.72584 -4.492379,-0.74873 z m 68.883151,102.92157 c 4.73153,-0.10724 10.61429,0.74335 17.68155,2.53417 9.4229,2.38795 19.70104,6.03411 30.75552,11.00057 17.74515,7.97282 31.99031,15.52983 42.85039,22.63468 10.8598,7.10515 20.04867,15.8446 27.53022,26.26314 5.25385,7.24653 9.54633,16.05482 12.8436,26.49352 3.29692,10.43883 5.11851,19.86225 5.47149,28.16377 l 3.28289,77.81031 c 0.35257,8.30151 1.12482,15.09753 2.24619,20.21571 1.12093,5.11807 3.38258,11.97679 6.79616,20.67647 l -55.57879,-24.93847 c -2.42329,-5.54036 -4.00057,-9.64058 -4.78036,-12.32525 -0.78006,-2.68497 -1.63913,-6.75576 -2.53416,-12.15246 -7.39539,5.03762 -14.84151,7.62199 -22.34671,7.83287 -10.26572,0.16495 -22.30299,-2.81228 -36.16941,-9.04236 -18.4241,-8.27766 -32.65475,-19.43063 -42.62001,-33.46246 -9.96535,-14.03191 -15.2318,-28.22606 -15.83852,-42.50483 -0.56913,-13.39322 2.40926,-22.85367 8.92716,-28.39414 6.51787,-5.54034 18.92139,-6.24609 37.26372,-2.131 21.9894,4.88518 36.22826,7.78205 42.7352,8.69679 6.50675,0.91489 13.39025,1.39192 20.61887,1.38227 -0.35287,-8.3015 -2.09409,-14.79574 -5.24111,-19.46698 -3.14727,-4.67112 -8.50543,-8.69657 -16.0689,-12.09487 -9.69692,-4.35658 -16.9001,-5.85596 -21.59798,-4.49238 -3.66427,1.06818 -6.52135,4.86954 -8.524,11.46133 l -56.84588,-32.25298 c 1.65353,-10.33155 4.3142,-17.79453 8.06325,-22.4619 3.74905,-4.66704 9.34109,-7.68084 16.70243,-9.04235 1.3211,-0.24784 2.80002,-0.36741 4.37719,-0.40317 z m 41.00736,118.93287 c -3.72921,0.0927 -6.36578,0.67569 -7.89046,1.72784 -3.14179,2.17144 -4.57481,5.60299 -4.37719,10.25184 0.22568,5.31303 2.0219,10.36956 5.4139,15.20498 3.39181,4.83551 8.21079,8.68707 14.51384,11.51892 6.5938,2.96254 12.68233,3.86853 18.19989,2.76454 5.51735,-1.10423 9.30888,-3.75782 11.46133,-7.94805 2.1522,-4.19033 3.06431,-10.47874 2.70695,-18.89104 l -0.46076,-10.77019 c -8.00436,-0.33897 -16.33781,-1.28822 -25.05365,-2.70695 -5.9345,-0.87477 -10.78463,-1.24461 -14.51385,-1.15189 z" id="path4040" opacity=".9" color="#000000" stroke-width="16.52" fill="#ffffff"/>
 <path d="M 513.3125 115.9375 C 511.20609 116.0615 509.12687 116.62954 507.25 117.59375 L 311.3125 218.78125 C 306.4314 221.31096 303.14522 226.65881 303.09375 232.15625 L 299.84375 529.25 C 299.77435 534.8007 303.00695 540.26503 307.90625 542.875 C 312.80556 545.48497 319.15082 545.12297 323.71875 541.96875 L 503.46875 418.1875 C 507.22329 415.60673 509.70863 411.26329 510.03125 406.71875 L 529.40625 132.21875 C 529.71345 127.91179 528.09798 123.50835 525.0625 120.4375 C 522.02702 117.36665 517.62273 115.68021 513.3125 115.9375 z M 461.5625 269.53125 C 462.25094 269.52983 462.915 269.54579 463.5625 269.59375 C 473.92225 270.36154 480.77761 276.20573 484.03125 287.21875 L 437.34375 319.40625 C 436.34014 315.08976 434.0598 312.71018 430.46875 312.28125 C 426.87744 311.85265 421.86377 313.51522 415.4375 317.1875 C 407.32415 321.82408 400.52348 328.27279 395.03125 336.625 C 389.53887 344.97748 386.30011 354.72607 385.34375 365.84375 C 384.49134 375.75152 386.33691 381.85958 390.875 384.15625 C 395.41293 386.45311 401.56952 385.40699 409.28125 381 C 415.7075 377.32766 421.23019 372.6653 425.875 367.0625 C 430.51961 361.45985 434.21548 354.82445 436.9375 347.15625 L 483.09375 325.5 C 479.73578 336.12048 474.84597 346.48689 468.40625 356.53125 C 461.96625 366.57577 454.06108 376.05257 444.625 384.96875 C 435.18869 393.88494 423.43257 402.34162 409.375 410.375 C 395.79924 418.13306 384.61333 423.37433 375.78125 426.15625 C 366.94909 428.93826 359.48545 429.55123 353.4375 427.9375 C 347.38945 426.32392 342.82704 422.97961 339.75 417.90625 C 336.67293 412.83298 335.63473 404.34292 336.65625 392.46875 C 337.72328 380.06531 340.85484 368.47086 346.0625 357.65625 C 349.87648 349.72378 354.85217 341.7182 360.96875 333.65625 C 367.08529 325.59445 373.27355 318.6626 379.5 312.875 C 389.37796 303.70646 401.77739 294.85106 416.71875 286.3125 C 436.29897 275.12323 451.23586 269.55251 461.5625 269.53125 z " id="path4042" opacity=".6" color="#000000" stroke-width="30.447" fill="#ffffff"/>
 <path d="M 272.6875 47.03125 C 270.79129 47.07792 268.90452 47.482987 267.15625 48.21875 L 65.03125 134.0625 C 59.373254 136.44928 55.514248 142.55121 55.75 148.6875 C 55.985752 154.82379 60.300556 160.58562 66.125 162.53125 L 313.46875 245.6875 C 317.35931 246.99091 321.77677 246.63243 325.40625 244.71875 L 519.15625 142.71875 C 524.50425 139.90126 527.82203 133.66764 527.1875 127.65625 C 526.55296 121.64487 522.00589 116.23257 516.1875 114.59375 L 277.21875 47.59375 C 275.74798 47.180323 274.21472 46.989986 272.6875 47.03125 z M 315.15625 111.25 C 316.30703 111.25571 317.47734 111.28437 318.65625 111.3125 C 337.51877 111.76271 357.44413 115.62593 378.4375 122.9375 C 392.43299 127.81202 403.01991 132.89652 410.1875 138.1875 C 417.35489 143.47859 420.49283 148.43682 419.59375 153.0625 C 418.69437 157.68824 414.49029 161.72165 406.96875 165.125 C 400.53017 168.03834 392.77409 170.05297 383.71875 171.1875 C 376.7916 172.00325 366.96664 172.09121 354.25 171.46875 L 373.21875 178.0625 L 338.8125 193.625 L 161.9375 132.03125 L 199.03125 115.25 L 260.34375 136.59375 C 258.86662 133.14006 259.16056 129.91284 261.25 126.90625 C 263.33953 123.8997 267.21881 121.12195 272.875 118.5625 C 283.81904 113.61065 297.8945 111.16428 315.15625 111.25 z M 313.21875 134.03125 C 306.8919 133.98402 301.88295 134.79371 298.25 136.4375 C 293.25566 138.69738 291.64996 141.37903 293.4375 144.53125 C 295.2252 147.68357 301.16452 151.02956 311.21875 154.53125 C 322.23824 158.36919 331.76691 160.42938 339.8125 160.75 C 347.85812 161.07074 354.24633 160.18222 359 158.03125 C 363.39262 156.0437 364.63768 153.5114 362.75 150.46875 C 360.86228 147.42622 354.18956 143.9123 342.6875 139.90625 C 332.55278 136.37654 323.66401 134.45737 316 134.125 C 315.042 134.08347 314.12259 134.038 313.21875 134.03125 z " id="path4044" opacity=".75" color="#000000" stroke-width="30.447" fill="#ffffff"/>
</svg>
