<?xml version="1.0" encoding="UTF-8" standalone="no"?>
<svg xmlns="http://www.w3.org/2000/svg" xmlns:sodipodi="http://sodipodi.sourceforge.net/DTD/sodipodi-0.dtd" xmlns:inkscape="http://www.inkscape.org/namespaces/inkscape" version="1.0" width="580" height="580">
 <metadata id="metadata2975"/>
 <defs id="defs4">
  <symbol viewBox="244.5 110 489 219.9" id="symbol-university">
   <path id="path4460" d="M79,43l57,119c0,0,21-96,104-96s124,106,124,106l43-133l82-17L0,17L79,43z"/>
   <path id="path4462" d="M94,176l-21,39" stroke-width="20" stroke="#000000" fill="none"/>
   <path id="path4464" d="M300,19c0,10.5-22.6,19-50.5,19S199,29.5,199,19s22.6-19,50.5-19S300,8.5,300,19z"/>
   <path id="path4466" d="M112,216l-16-38L64,88c0,0-9-8-4-35s16-24,16-24" stroke-width="20" stroke="#000000" ill="none"/>
  </symbol>
  <marker id="Arrow2Lend" refX="0.0" refY="0.0" orient="auto" inkscape:stockid="Arrow2Lend">
   <path transform="scale(1.1) rotate(180) translate(1,0)" d="M 8.7185878,4.0337352 L -2.2072895,0.016013256 L 8.7185884,-4.0017078 C 6.9730900,-1.6296469 6.9831476,1.6157441 8.7185878,4.0337352 z " id="path4137" fill-rule="evenodd" stroke-linejoin="round" stroke-width=".625"/>
  </marker>
  <marker id="Arrow1Mend" refX="0.0" refY="0.0" orient="auto" inkscape:stockid="Arrow1Mend">
   <path transform="scale(0.4) rotate(180) translate(10,0)" d="M 0.0,0.0 L 5.0,-5.0 L -12.5,0.0 L 5.0,5.0 L 0.0,0.0 z " id="path4125" fill-rule="evenodd" stroke="#000000" stroke-width="1.25"/>
  </marker>
  <marker id="TriangleOutL" refX="0.0" refY="0.0" orient="auto" inkscape:stockid="TriangleOutL">
   <path transform="scale(0.8)" d="M 5.77,0.0 L -2.88,5.0 L -2.88,-5.0 L 5.77,0.0 z " id="path4214" fill-rule="evenodd" stroke="#000000" stroke-width="1.25"/>
  </marker>
  <marker id="Arrow1Lend" refX="0.0" refY="0.0" orient="auto" inkscape:stockid="Arrow1Lend">
   <path transform="scale(0.8) rotate(180) translate(12.5,0)" d="M 0.0,0.0 L 5.0,-5.0 L -12.5,0.0 L 5.0,5.0 L 0.0,0.0 z " id="path4119" fill-rule="evenodd" stroke="#000000" stroke-width="1.25"/>
  </marker>
  <marker id="Tail" refX="0.0" refY="0.0" orient="auto" inkscape:stockid="Tail">
   <g transform="scale(-1.2)" id="g4152">
    <path d="M -3.8048674,-3.9585227 L 0.54352094,0" id="path4154" fill="none" fill-rule="evenodd" stroke="#000000" stroke-linecap="round" stroke-width=".8"/>
    <path d="M -1.2866832,-3.9585227 L 3.0617053,0" id="path4156" fill="none" fill-rule="evenodd" stroke="#000000" stroke-linecap="round" stroke-width=".8"/>
    <path d="M 1.3053582,-3.9585227 L 5.6537466,0" id="path4158" fill="none" fill-rule="evenodd" stroke="#000000" stroke-linecap="round" stroke-width=".8"/>
    <path d="M -3.8048674,4.1775838 L 0.54352094,0.21974226" id="path4160" fill="none" fill-rule="evenodd" stroke="#000000" stroke-linecap="round" stroke-width=".8"/>
    <path d="M -1.2866832,4.1775838 L 3.0617053,0.21974226" id="path4162" fill="none" fill-rule="evenodd" stroke="#000000" stroke-linecap="round" stroke-width=".8"/>
    <path d="M 1.3053582,4.1775838 L 5.6537466,0.21974226" id="path4164" fill="none" fill-rule="evenodd" stroke="#000000" stroke-linecap="round" stroke-width=".8"/>
   </g>
  </marker>
  <marker id="Arrow1Sstart" refX="0.0" refY="0.0" orient="auto" inkscape:stockid="Arrow1Sstart">
   <path transform="scale(0.2) translate(6,0)" d="M 0.0,0.0 L 5.0,-5.0 L -12.5,0.0 L 5.0,5.0 L 0.0,0.0 z " id="path4128" fill-rule="evenodd" stroke="#000000" stroke-width="1.25"/>
  </marker>
  <marker id="Arrow1Send" refX="0.0" refY="0.0" orient="auto" inkscape:stockid="Arrow1Send">
   <path transform="scale(0.2) rotate(180) translate(6,0)" d="M 0.0,0.0 L 5.0,-5.0 L -12.5,0.0 L 5.0,5.0 L 0.0,0.0 z " id="path4131" fill-rule="evenodd" stroke="#000000" stroke-width="1.25"/>
  </marker>
  <marker id="SemiCircleOut" refX="0.0" refY="0.0" orient="auto" inkscape:stockid="SemiCircleOut">
   <path transform="scale(0.6) translate(7.125493,0.763446)" d="M -2.5,-0.80913858 C -2.5,1.9508614 -4.7400000,4.1908614 -7.5,4.1908614 L -7.5,-5.8091386 C -4.7400000,-5.8091386 -2.5,-3.5691386 -2.5,-0.80913858 z " id="path4235" fill-rule="evenodd" stroke="#000000" stroke-width="1.25"/>
  </marker>
  <marker id="Arrow2Send" refX="0.0" refY="0.0" orient="auto" inkscape:stockid="Arrow2Send">
   <path transform="scale(0.3) rotate(180) translate(-2.3,0)" d="M 8.7185878,4.0337352 L -2.2072895,0.016013256 L 8.7185884,-4.0017078 C 6.9730900,-1.6296469 6.9831476,1.6157441 8.7185878,4.0337352 z " id="path4149" fill-rule="evenodd" stroke-linejoin="round" stroke-width=".625"/>
  </marker>
  <marker id="TriangleOutS" refX="0.0" refY="0.0" orient="auto" inkscape:stockid="TriangleOutS">
   <path transform="scale(0.2)" d="M 5.77,0.0 L -2.88,5.0 L -2.88,-5.0 L 5.77,0.0 z " id="path4220" fill-rule="evenodd" stroke="#000000" stroke-width="1.25"/>
  </marker>
  <marker id="CurveIn" refX="0.0" refY="0.0" orient="auto" inkscape:stockid="CurveIn">
   <path transform="scale(0.6)" d="M 4.6254930,-5.0456926 C 1.8654930,-5.0456926 -0.37450702,-2.8056926 -0.37450702,-0.045692580 C -0.37450702,2.7143074 1.8654930,4.9543074 4.6254930,4.9543074" id="path4238" fill="none" fill-rule="evenodd" stroke="#000000" stroke-width="1.25"/>
  </marker>
  <marker orient="auto" id="InfiniteLineStart" inkscape:stockid="InfiniteLineStart">
   <g transform="translate(-13,0)" id="g4298">
    <circle cx="3" r=".8" id="circle4300"/>
    <circle cx="6.5" r=".8" id="circle4302"/>
    <circle cx="10" r=".8" id="circle4304"/>
   </g>
  </marker>
  <marker id="StopS" refX="0.0" refY="0.0" orient="auto" inkscape:stockid="StopS">
   <path transform="scale(0.2)" d="M 0.0,5.65 L 0.0,-5.65" id="path4229" fill="none" fill-rule="evenodd" stroke="#000000" fill-opacity=".75" stroke-width="1.25"/>
  </marker>
  <marker id="Arrow2Sstart" refX="0.0" refY="0.0" orient="auto" inkscape:stockid="Arrow2Sstart">
   <path transform="scale(0.3) translate(-2.3,0)" d="M 8.7185878,4.0337352 L -2.2072895,0.016013256 L 8.7185884,-4.0017078 C 6.9730900,-1.6296469 6.9831476,1.6157441 8.7185878,4.0337352 z " id="path4146" fill-rule="evenodd" stroke-linejoin="round" stroke-width=".625"/>
  </marker>
  <marker id="DiamondS" refX="0.0" refY="0.0" orient="auto" inkscape:stockid="DiamondS">
   <path transform="scale(0.2)" d="M 0,-7.0710768 L -7.0710894,0 L 0,7.0710589 L 7.0710462,0 L 0,-7.0710768 z " id="path4202" fill-rule="evenodd" stroke="#000000" stroke-width="1.25"/>
  </marker>
  <marker orient="auto" id="RazorWire" inkscape:stockid="RazorWire">
       style="overflow:visible"&gt;
         <path d="M 0.022727273,-0.74009011 L 0.022727273,0.69740989 L -7.7585227,3.0099099 L 10.678977,3.0099099 L 3.4914773,0.69740989 L 3.4914773,-0.74009011 L 10.741477,-2.8963401 L -7.7272727,-2.8963401 L 0.022727273,-0.74009011 z " transform="scale(0.8,0.8)" id="path4286" fill="#808080" fill-rule="evenodd" stroke="#000000" stroke-width=".125"/></marker>
 </defs>
 <g id="g1327">
  <path d="M 66.275,1.768 C 24.94,1.768 1.704,23.139 1.704,66.804 L 1.704,516.927 C 1.704,557.771 22.599,579.156 63.896,579.156 L 515.92,579.156 C 557.227,579.156 578.149,558.841 578.149,516.927 L 578.149,66.804 C 578.149,24.203 557.227,1.768 514.628,1.768 C 514.624,1.768 66.133,1.625 66.275,1.768 z " id="path1329" fill="#DA0092" stroke="#eee" stroke-width="3.408"/>
 </g>
 <path d="m -732.625,360.28125 c -3.15679,0.0498 -5.96241,1.58503 -8.34375,5.375 9.92802,97.45851 14.02511,234.3311 15.75,387.15625 l -6.1875,-7.65625 c -11.5498,-7.26223 -44.05826,-6.14705 -34.875,15.8125 7.60119,18.17637 28.79619,73.09169 42.03125,132 0.34476,88.63854 0.29544,180.00725 0.40625,270.21875 -1.90669,-1.6483 -17.84053,-2.2788 -14.15625,6.5313 2.59156,6.1971 9.03813,22.8648 14.25,42.1874 0.1447,67.2248 0.41897,133.4029 1.125,196.8438 0,0 65.77787,-30.8072 49,-46.9375 -4.47247,-4.2999 -3.29845,-145.101 0.71875,-318.1563 6.82883,-36.2012 20.67953,-72.14009 25.3125,-83.2187 5.03871,-12.04886 -17.26786,-10.9609 -19.125,-8.65625 l -4,4.96875 c 1.5252,-56.6314 3.28085,-114.67006 5.1875,-171.125 5.78164,-16.19006 10.80185,-28.82523 13.75,-35.875 4.45304,-10.64837 -2.81737,-15.65681 -11.875,-17.53125 6.61255,-182.73455 14.55117,-335.76846 20.65625,-342.0625 4.51271,-20.09519 -22.64946,-9.48434 -43.9375,-8.28125 -15.80912,0.89345 -33.30318,-21.78931 -45.6875,-21.59375 z" id="path2885" sodipodi:nodetypes="ccccsccsccscscccsccsc" opacity=".716" fill="#6800ff" stroke="#000000"/>
 <path id="path3807" d="m -704.25,435.0625 c -54.95052,-0.0687 -99.68039,31.03352 -101.03125,101.0625 1.23723,94.2574 170.3066,118.99012 171.46875,213.3125 1.16215,94.32239 -162.20132,152.83791 -163.3125,245.96875 -1.11118,93.13085 159.41746,117.11685 161.28125,175.53125 1.86379,58.4144 -114.78196,113.0786 -187.8125,153.0937 7.74238,14.0876 225.7718,-67.3607 230.65625,-150.0312 4.88444,-82.6705 -149.36999,-121.1772 -152.0625,-183.71875 -2.69251,-62.54155 165.66636,-126.66989 164.3125,-253.09375 -1.35386,-126.42386 -157.39343,-135.66566 -163.28125,-202.09375 -2.29607,-17.64831 8.6114,-34.12367 25.5,-33.6875 16.8886,0.43617 20.94605,11.58271 37.59375,27.34375 8.70077,8.23736 23.84742,12.64826 32.84375,15.03125 8.99633,2.38299 12.97123,1.23561 20.15625,-0.875 4.79208,-1.40768 -5.3163,-18.96908 -1.34375,-22.09375 3.39472,-2.67017 21.03982,9.33449 23,5.34375 2.24636,-4.57338 3.17435,-10.0965 2.0625,-16.59375 2.71835,-29.24031 -45.08073,-74.4313 -100.03125,-74.5 z m 49.78125,31.15625 c 6.81017,0.10238 12.48229,6.54591 11.28125,13.4375 -0.80708,9.21346 -13.70166,13.40323 -19.8125,6.53125 -7.07698,-6.40673 -2.34923,-19.46521 7.15625,-19.90625 0.46243,-0.0513 0.92099,-0.0693 1.375,-0.0625 z" opacity=".644" fill="#6800ff" stroke="#000000" stroke-width="10.2"/>
 <g id="g3968" transform="matrix(0.78859506,0,0,0.69871963,-395.86191,-81.602608)">
  <path d="m 851.53939,136.02034 c -7.2794,0.7683 -10.241,9.42997 -7.8438,15.5625 0.649,8.42856 1.2521,16.86793 1.8125,25.3125 9.2386,-1.66742 18.5775,-2.62175 27.875,-2.8125 13.1446,-0.32648 26.5743,0.0939 39.8437,1.6875 0.0939,-1.14643 0.1855,-2.29126 0.2813,-3.4375 0.5744,-6.60122 5.5164,-15.90252 -1.5,-20.8125 -10.9233,-6.91295 -24.0583,4.54804 -35.1875,-0.78125 -8.6126,-4.53785 -14.6296,-14.84694 -25.2812,-14.71875 z m 14.1874,136.40625 c -5.2173,0.13046 -10.4053,0.91388 -15.4062,2.34375 0.4434,13.11965 0.8052,26.23059 1.125,39.34375 7.0777,4.1154 14.6739,7.5153 22.0312,10.7187 10.2474,4.3589 20.7672,8.3836 31.3126,12.4063 0.5106,-14.8585 1.0526,-29.7091 1.6562,-44.5625 -6.4412,-6.79634 -12.9773,-13.46027 -21.4062,-17.75 -6.1838,-1.82287 -12.7567,-2.66393 -19.3126,-2.5 z m -23.9374,151.8438 c -6.7184,0.1614 -13.3014,3.0662 -15.75,9.5312 -2.4296,10.4945 5.1443,19.8377 7.0312,29.8125 4.1554,13.2777 8.2467,26.6333 11.8438,40.0937 18.4977,-6.6035 37.3536,-12.3287 55.2187,-20.3124 0.3032,-7.5589 0.6303,-15.1084 1.0625,-22.6563 1.2729,-5.5242 3.5894,-10.9183 5.5938,-16.375 -3.8385,-1.5928 -7.7213,-3.0528 -11.4376,-4.5625 -13.843,-5.1668 -28.0928,-9.885 -42.2187,-14.9375 0.006,0.6348 0.0257,1.2715 0.0313,1.9063 -3.264,-1.7119 -7.3441,-2.5969 -11.375,-2.5 z m 55.75,155.8124 c -14.6061,5.5037 -29.2011,10.9927 -43.3438,17.5626 0.022,9.1885 0.0424,18.3734 0.0625,27.5624 14.0792,7.6653 28.9132,13.9054 43.875,19.9063 3.8011,-18.0074 9.7386,-35.5459 14.75,-53.1875 -0.049,-7.4384 -9.2099,-10.5162 -15.4375,-8.9062 0.0308,-0.9793 0.0642,-1.9582 0.0938,-2.9376 z m -43.3126,144.25 c -0.0237,6.2325 -0.0571,12.4574 -0.0937,18.6876 -6.1947,-0.2789 -11.9955,6.3962 -8.5,12.2812 4.8981,14.0989 9.8051,28.5053 9.0313,43.5312 13.2997,-4.5583 26.462,-9.4574 39.125,-15.5 0.2202,-14.4943 0.4872,-28.9768 0.6562,-43.4687 -6.8026,-2.8947 -13.7839,-5.4643 -20.6875,-8 -6.446,-2.5374 -12.978,-5.0297 -19.5313,-7.5313 z m 39.5,138.5938 c -12.8216,4.1797 -25.8438,7.7842 -39,10.8438 0.1288,20.3445 0.2848,40.6871 0.4688,61.0312 15.1416,-9.3449 33.1646,-17.3789 41.4375,-34.125 2.1524,-6.1532 -3.4687,-11.4544 -2.25,-17.6875 -0.2808,-6.6903 -0.5014,-13.3704 -0.6563,-20.0625 z" id="path3964" fill="#ffffff" stroke="#ffffff" stroke-width=".705"/>
  <path d="M 298.21875 53.875 C 245.30728 53.825688 195.0259 81.279455 194.09375 124.09375 C 197.484 209.92112 349.0874 200.55153 352 237.8125 C 355.81972 286.67837 199.51039 272.06577 202.09375 349.96875 C 204.05033 409.97989 349.58609 415.57646 349.6875 447.09375 C 349.80051 483.62386 244.99782 493.94691 187.40625 521.90625 C 193.51187 531.74953 392.39879 508.87487 393.03125 445.40625 C 393.60779 387.54437 245.65566 380.03901 245.9375 344.5625 C 246.2057 310.80072 400.59885 308.16089 399.53125 236.625 C 398.46365 165.08911 247.01809 169.78959 242.375 123.375 C 242.17407 99.633569 276.20249 92.405189 301.59375 95.5625 C 314.78718 97.203052 326.18421 110.0812 339.3125 121.09375 C 346.17383 126.84936 358.12431 129.92874 365.21875 131.59375 C 372.31319 133.2588 375.42762 132.44354 381.09375 130.96875 C 384.8727 129.98521 376.89856 117.71452 380.03125 115.53125 C 382.70829 113.66555 396.6417 122.06966 398.1875 119.28125 C 399.959 116.08574 400.68934 112.22726 399.8125 107.6875 C 401.95622 87.256721 364.23994 55.673002 320.90625 55.625 C 313.37674 54.460151 305.77753 53.882045 298.21875 53.875 z M 359.40625 71.9375 C 368.17508 71.9375 375.28125 79.043675 375.28125 87.8125 C 375.28125 96.581325 368.17508 103.6875 359.40625 103.6875 C 350.63743 103.6875 343.53125 96.581325 343.53125 87.8125 C 343.53125 79.043675 350.63743 71.9375 359.40625 71.9375 z " transform="matrix(1.2680779,0,0,1.4311892,501.98376,116.78877)" id="path3966" fill="#ffffff" stroke="#ffffff" stroke-width="7.571"/>
 </g>
</svg>
