<?xml version="1.0" encoding="UTF-8" standalone="no"?>
<svg
   xmlns:svg="http://www.w3.org/2000/svg"
   xmlns="http://www.w3.org/2000/svg"
   version="1.0"
   width="20"
   height="20"
   id="symbol-atm">
  <g
     id="layer1">
    <path
       d="m 4.9278227,4.4824438 -2.0820402,13.1743292 14.0695445,0 -2.050494,-13.2121865 -9.9370103,0.037857 z"
       id="path2425"
       style="fill:#000000;fill-opacity:1;fill-rule:evenodd;stroke:#000000;stroke-width:0.10947382;stroke-linecap:butt;stroke-linejoin:miter;stroke-miterlimit:4;stroke-opacity:1;stroke-dasharray:none" />
    <rect
       width="14.015866"
       height="3.0304577"
       x="2.841054"
       y="1.4384469"
       id="rect2397"
       style="stroke-width:2.49099994;stroke-linecap:round;stroke-miterlimit:4;stroke-dasharray:none" />
    <path
       d="m 9.4571335,15.333227 c -0.7456,0 -2.83328,-0.29824 -2.68416,-1.64032 0.14912,-1.34208 1.64032,-0.59648 2.68416,-0.44736 l 0,-1.93856 c -1.19296,-0.29824 -2.68416,-1.19296 -2.68416,-2.8332799 0,-1.64032 1.4912,-2.68416 2.68416,-2.68416 0,-0.89472 0,-1.19296 0.44736,-1.19296 0.4473605,0 0.4473605,0.29824 0.4473605,1.19296 0.894719,0 2.982399,0.29824 2.535039,1.34208 -0.44736,1.04384 -1.789439,0.59648 -2.535039,0.44736 l 0,1.93856 c 1.342079,0.29824 2.833279,1.1929599 2.833279,2.8332799 0,1.64032 -1.34208,2.9824 -2.833279,2.9824 0,0.89472 0,1.19296 -0.4473605,1.19296 -0.44736,0 -0.44736,-0.29824 -0.44736,-1.19296 z m 0,-6.1139199 0,-1.64032 c -1.04384,0.14912 -1.04384,1.4912 0,1.64032 z m 0.8947205,2.3859199 0,1.64032 c 1.043839,-0.14912 1.043839,-1.4912 0,-1.64032 z"
       id="path5"
       style="fill:#ffffff;stroke:none" />
  </g>
</svg>
