<?xml version="1.0" encoding="UTF-8" standalone="no"?>
<svg xmlns:dc="http://purl.org/dc/elements/1.1/" xmlns:cc="http://creativecommons.org/ns#" xmlns:rdf="http://www.w3.org/1999/02/22-rdf-syntax-ns#" xmlns:svg="http://www.w3.org/2000/svg" xmlns="http://www.w3.org/2000/svg" version="1.0" width="4.723217" height="5.4899478" id="symbol-bicycle-rental">
  <g transform="matrix(0.0804217,-0.0768985,0.0768985,0.0804217,-5.7888179,2.44883)" id="g2467">
    <path d="M 57.120282,25.87914 C 57.120244,24.727187 56.712245,23.767188 55.896282,22.99914 55.128246,22.23119 54.168247,21.84719 53.016282,21.84714 51.91225,21.84719 50.952251,22.25519 50.136282,23.07114 49.368252,23.839188 48.984253,24.775187 48.984282,25.87914 48.984253,26.983185 49.368252,27.943184 50.136282,28.75914 50.952251,29.527183 51.91225,29.911182 53.016282,29.91114 54.168247,29.911182 55.128246,29.527183 55.896282,28.75914 56.712245,27.991184 57.120244,27.031185 57.120282,25.87914" id="path3555" style="font-size:72px;font-style:normal;font-variant:normal;font-weight:normal;font-stretch:normal;fill:#000000;fill-opacity:1;stroke:none;font-family:DNR Recreation Symbols;-inkscape-font-specification:DNR Recreation Symbols" />
    <path d="M 73.608282,55.32714 C 73.608228,52.30316 72.528229,49.735162 70.368282,47.62314 68.256233,45.463167 65.688236,44.383168 62.664282,44.38314 59.640242,44.383168 57.048245,45.463167 54.888282,47.62314 52.776249,49.735162 51.72025,52.30316 51.720282,55.32714 51.72025,58.351154 52.776249,60.943151 54.888282,63.10314 57.048245,65.215147 59.640242,66.271146 62.664282,66.27114 65.688236,66.271146 68.256233,65.215147 70.368282,63.10314 72.528229,60.943151 73.608228,58.351154 73.608282,55.32714" id="path3553" style="font-size:72px;font-style:normal;font-variant:normal;font-weight:normal;font-stretch:normal;fill:#000000;fill-opacity:1;stroke:none;font-family:DNR Recreation Symbols;-inkscape-font-specification:DNR Recreation Symbols" />
    <path d="M 59.640282,37.75914 C 59.640242,36.559176 59.064243,35.959176 57.912282,35.95914 L 53.088282,35.95914 49.488282,29.19114 C 48.912253,28.375184 48.120253,27.967184 47.112282,27.96714 46.056256,27.967184 45.264256,28.351184 44.736282,29.11914 L 36.960282,36.75114 C 36.336265,37.375175 36.024266,38.239174 36.024282,39.34314 36.024266,40.783171 36.480265,41.74317 37.392282,42.22314 L 46.176282,47.04714 46.104282,55.83114 C 46.104256,57.271155 46.824255,57.991154 48.264282,57.99114 49.752252,57.991154 50.496251,57.271155 50.496282,55.83114 L 50.496282,45.03114 C 50.496251,44.455168 50.232251,43.711168 49.704282,42.79914 L 43.800282,39.63114 48.552282,34.80714 50.568282,38.69514 C 50.856251,39.223173 51.36025,39.487173 52.080282,39.48714 L 57.840282,39.48714 C 59.040243,39.487173 59.640242,38.911173 59.640282,37.75914" id="path3551" style="font-size:72px;font-style:normal;font-variant:normal;font-weight:normal;font-stretch:normal;fill:#000000;fill-opacity:1;stroke:none;font-family:DNR Recreation Symbols;-inkscape-font-specification:DNR Recreation Symbols" />
    <path d="M 45.168282,55.32714 C 45.168256,52.30316 44.088258,49.735162 41.928282,47.62314 39.816262,45.463167 37.248264,44.383168 34.224282,44.38314 31.20027,44.383168 28.608273,45.463167 26.448282,47.62314 24.336277,49.735162 23.280278,52.30316 23.280282,55.32714 23.280278,58.351154 24.336277,60.943151 26.448282,63.10314 28.608273,65.215147 31.20027,66.271146 34.224282,66.27114 37.248264,66.271146 39.816262,65.215147 41.928282,63.10314 44.088258,60.943151 45.168256,58.351154 45.168282,55.32714" id="path3549" style="font-size:72px;font-style:normal;font-variant:normal;font-weight:normal;font-stretch:normal;fill:#000000;fill-opacity:1;stroke:none;font-family:DNR Recreation Symbols;-inkscape-font-specification:DNR Recreation Symbols" />
    <path d="M 71.520282,55.32714 C 71.52023,57.775154 70.656231,59.863152 68.928282,61.59114 67.200234,63.319149 65.112237,64.183148 62.664282,64.18314 60.216241,64.183148 58.128243,63.319149 56.400282,61.59114 54.672247,59.863152 53.808248,57.775154 53.808282,55.32714 53.808248,52.879159 54.672247,50.791161 56.400282,49.06314 58.128243,47.335165 60.216241,46.471166 62.664282,46.47114 65.112237,46.471166 67.200234,47.335165 68.928282,49.06314 70.656231,50.791161 71.52023,52.879159 71.520282,55.32714" id="path3547" style="font-size:72px;font-style:normal;font-variant:normal;font-weight:normal;font-stretch:normal;fill:#ffffff;fill-opacity:1;stroke:none;font-family:DNR Recreation Symbols;-inkscape-font-specification:DNR Recreation Symbols" />
    <path d="M 43.080282,55.32714 C 43.080259,57.775154 42.216259,59.863152 40.488282,61.59114 38.760263,63.319149 36.672265,64.183148 34.224282,64.18314 31.77627,64.183148 29.688272,63.319149 27.960282,61.59114 26.232275,59.863152 25.368276,57.775154 25.368282,55.32714 25.368276,52.879159 26.232275,50.791161 27.960282,49.06314 29.688272,47.335165 31.77627,46.471166 34.224282,46.47114 36.672265,46.471166 38.760263,47.335165 40.488282,49.06314 42.216259,50.791161 43.080259,52.879159 43.080282,55.32714" id="text3540" style="font-size:72px;font-style:normal;font-variant:normal;font-weight:normal;font-stretch:normal;fill:#ffffff;fill-opacity:1;stroke:none;font-family:DNR Recreation Symbols;-inkscape-font-specification:DNR Recreation Symbols" />
  </g>
  <path d="M 2.3497182,3.4723144 C 2.2767131,3.4453886 2.2169196,3.3896549 1.9013814,3.0544179 1.7065443,2.8474173 1.541701,2.6786574 1.535063,2.6793958 1.5284251,2.6801342 1.2734695,2.7472579 0.96849496,2.8285598 0.36189596,2.9902703 0.35586596,2.99115 0.25672986,2.9323765 0.19023816,2.8929563 0.08902886,2.7867729 0.05458316,2.7202947 0.01573016,2.6453104 0.01435816,2.5726655 0.03802526,1.8435578 0.05655246,1.2727969 0.05966756,1.2263938 0.08247306,1.1815015 0.13927176,1.0696939 0.25112056,0.99443262 0.36048336,0.99443262 0.40837726,0.99443262 0.52422596,1.0271968 0.83666926,1.1291069 L 1.2495632,1.2637814 1.456112,1.065745 C 1.6708325,0.85987332 1.7284855,0.82009992 1.7933725,0.83307732 1.8402628,0.84245532 1.9311368,0.92127272 1.9513651,0.97010832 1.971919,1.0197294 1.9601127,1.0953751 1.9254499,1.1361545 1.8792466,1.1905108 1.4225212,1.6249677 1.3868591,1.6484853 1.3337096,1.6835352 1.2790227,1.6746767 1.0349632,1.5914838 0.90780066,1.5481377 0.79858256,1.5158721 0.79225586,1.5197822 0.78536436,1.5240415 0.78075266,1.676928 0.78075266,1.9011305 0.78075266,2.2560919 0.78187226,2.2750142 0.80248856,2.2684708 0.92496516,2.2295982 1.4818946,2.0808224 1.5052311,2.0807432 1.5220133,2.0806863 1.573608,2.0989263 1.6198862,2.1212767 1.6988736,2.1594243 1.7306301,2.1898237 2.1382303,2.6174683 2.3770414,2.8680233 2.5847139,3.0896697 2.5997248,3.1100159 2.655709,3.1858982 2.6478862,3.2790502 2.5784812,3.362979 2.51814,3.4359474 2.4018326,3.4915355 2.3497182,3.4723144 z" id="path2387" style="fill:#0000ff" />
  <path d="M 1.0199748,5.4668706 C 0.56153556,5.3854996 0.18601106,5.0488996 0.04953356,4.5970189 0.01969516,4.4982223 0.01662146,4.4698412 0.01555066,4.2832257 0.01454076,4.1072328 0.01825496,4.0628164 0.04166616,3.9709172 0.09571506,3.7587525 0.20270156,3.5734051 0.36328806,3.4137277 0.52492736,3.2530033 0.69673696,3.1518003 0.90059956,3.0972284 1.0027319,3.0698884 1.0391419,3.0663409 1.2152355,3.0665703 1.3893174,3.0667972 1.428817,3.0706649 1.5291671,3.0973092 1.7225358,3.1486516 1.8664855,3.2247999 2.0057872,3.3494381 2.2310836,3.5510191 2.360576,3.7739866 2.41142,4.0478808 2.432279,4.160248 2.428764,4.4089804 2.4047182,4.522127 2.3108267,4.9639296 1.9442982,5.3403886 1.5031421,5.4481286 1.3719867,5.4801606 1.1445503,5.4889826 1.0199748,5.4668706 L 1.0199748,5.4668706 z M 1.4123635,5.2374366 C 1.7970171,5.1638406 2.1099129,4.8532662 2.1880851,4.4674706 2.2155137,4.332105 2.2062082,4.0996136 2.1686339,3.9815016 2.1090981,3.7943555 1.9842119,3.6088643 1.8400576,3.4934735 1.7457795,3.4180065 1.5721575,3.3303033 1.4686837,3.3058776 1.2264694,3.2487011 0.97904066,3.276234 0.76706936,3.38395 0.52951966,3.5046644 0.32914426,3.7510521 0.26000896,4.0074478 0.22564926,4.1348751 0.22284566,4.3907898 0.25454316,4.506391 0.33855506,4.8127813 0.55523746,5.0647506 0.83506296,5.1814486 1.004325,5.2520366 1.2244695,5.2733866 1.4123635,5.2374366 L 1.4123635,5.2374366 z" id="path2389" style="fill:#0000ff" />
  <path d="M 3.3509016,3.2863357 C 2.957551,3.2354625 2.5945312,2.9716203 2.4114622,2.6035524 2.2500304,2.2789878 2.2568547,1.8584236 2.4289601,1.5251959 2.5799793,1.2327947 2.8778441,0.99078002 3.1885113,0.90806122 3.3164812,0.87398772 3.6492822,0.86935162 3.7800901,0.89982032 3.9937938,0.94959772 4.1719015,1.0461865 4.3341097,1.2002683 4.6066109,1.4591178 4.7295204,1.7669178 4.711732,2.1459415 4.6979242,2.4401554 4.5961683,2.6817994 4.3942435,2.8998967 4.1212204,3.1947868 3.7386526,3.3364848 3.3509016,3.2863357 L 3.3509016,3.2863357 z M 3.6689585,3.0568519 C 3.8891477,3.0227483 4.0740086,2.9201198 4.2402775,2.7396748 4.4801304,2.4793718 4.5579686,2.1019878 4.4429828,1.7568941 4.3375607,1.4405024 4.0402154,1.1777628 3.7110029,1.110103 3.3170398,1.0291357 2.9160566,1.1901653 2.6871708,1.5212602 2.5600385,1.7051637 2.5117834,1.8822712 2.5218492,2.1280294 2.531295,2.3586469 2.5891281,2.5154094 2.730914,2.6947176 2.9552234,2.9783885 3.3046333,3.1132791 3.6689581,3.0568518 L 3.6689585,3.0568519 z" id="path2391" style="fill:#0000ff" />
  <path d="M 0.34173186,0.87885002 C 0.21771796,0.83924582 0.12202016,0.75423782 0.06457616,0.63265362 0.03263436,0.56504732 0.02774096,0.54142112 0.02832876,0.45765362 0.02921646,0.33114782 0.06213276,0.24433712 0.14259396,0.15629982 0.21380346,0.07838532 0.31815426,0.02209602 0.41346056,0.01018832 0.49168596,4.1471515e-4 0.60806796,0.02037032 0.67652636,0.05529512 0.74664956,0.09106942 0.83825306,0.18897022 0.87503336,0.26744892 0.90295586,0.32702752 0.90738706,0.35181012 0.90683326,0.44529472 0.90629486,0.53613352 0.90099986,0.56521292 0.87448766,0.62292652 0.78016166,0.82826242 0.54182896,0.94275182 0.34173186,0.87885002 z" id="path2393" style="fill:#0000ff" />
</svg>
