<?xml version="1.0" encoding="UTF-8" standalone="no"?>
<svg xmlns:dc="http://purl.org/dc/elements/1.1/" xmlns:cc="http://creativecommons.org/ns#" xmlns:rdf="http://www.w3.org/1999/02/22-rdf-syntax-ns#" xmlns:svg="http://www.w3.org/2000/svg" xmlns="http://www.w3.org/2000/svg" version="1.1" width="13.573643" height="5.4658422" viewBox="0 0 29.12799 11.729275" id="symbol-bus">
  <g transform="matrix(0.6,0,0,0.6,0.02107035,-0.09047688)" id="g6348">
    <path d="M 2.2521668,0.37432812 C 16.585501,0.37432812 30.918834,0.37432812 45.252168,0.37432812 46.592893,2.1772243 46.667746,4.5432519 47.253679,6.6448802 48.001475,9.9128849 48.575449,13.308664 48.133958,16.653558 47.718411,17.774772 46.389332,17.257357 45.477692,17.374328 31.069184,17.374328 16.660675,17.374328 2.2521668,17.374328 0.1627387,17.241819 0.20216614,14.642134 0.27115505,13.099409 0.25955278,9.4561569 0.11566321,5.8122204 0.23632812,2.1693926 0.45733372,1.2633806 1.2942196,0.4263214 2.2521668,0.37432812 z" id="path6350" style="fill:#0000ff;stroke:#000000;stroke-width:0.33102515" />
    <path d="M 38.812165,16.734328 C 38.984861,19.384599 34.832755,20.377668 33.8092,17.892248 32.702535,15.76723 35.240922,13.170059 37.354786,14.392877 38.218658,14.827764 38.845264,15.751457 38.812165,16.734328 z" id="path6352" style="fill:#0000ff;stroke:#ffffff;stroke-width:0.75587374" />
    <path d="M 15.912166,16.734328 C 16.084861,19.384599 11.932754,20.377669 10.9092,17.892248 9.8025358,15.76723 12.340922,13.17006 14.454786,14.392877 15.318658,14.827764 15.945263,15.751457 15.912166,16.734328 z" id="path6354" style="fill:#0000ff;stroke:#ffffff;stroke-width:0.75587374" />
    <path d="M 36.357025,1.5513395 C 38.950272,1.5661224 41.545945,1.5215121 44.137648,1.5741126 45.890396,2.8533751 45.436356,5.6956484 46.029437,7.6473997 46.723766,10.046549 43.680738,9.3246041 42.290642,9.4137117 40.18339,9.3609689 38.05463,9.4920551 35.961066,9.3242507 35.082243,8.2301007 35.763876,6.5407223 35.563451,5.1949147 35.87896,4.1356095 34.848695,1.8392129 36.357025,1.5513395 z" id="path6356" style="fill:#ffffff;stroke:#000000;stroke-width:0.35478419" />
    <path d="M 13.85,1.54375 C 16.859771,1.5750621 19.882001,1.481103 22.883981,1.5907563 23.542453,2.1023666 23.137767,3.0799866 23.25,3.8142894 23.21992,5.5590034 23.310979,7.3157653 23.202994,9.0527313 22.691383,9.7112031 21.713763,9.3065174 20.979461,9.41875 18.526532,9.3874776 16.061157,9.4813485 13.616019,9.3717438 12.957547,8.8601335 13.362233,7.8825135 13.25,7.1482107 13.28008,5.4034967 13.189021,3.6467348 13.297006,1.9097688 13.385994,1.6914966 13.61388,1.5399713 13.85,1.54375 z" id="rect6358" style="fill:#ffffff;fill-opacity:1;stroke:#000000;stroke-width:0.34999999" />
    <path d="M 2.5375,1.54375 C 5.5472713,1.5750621 8.5695014,1.481103 11.571481,1.5907563 12.229953,2.1023666 11.825267,3.0799866 11.9375,3.8142894 11.90742,5.5590034 11.998479,7.3157653 11.890494,9.0527313 11.378883,9.7112031 10.401263,9.3065174 9.6669607,9.41875 7.2140319,9.3874776 4.748657,9.4813485 2.3035188,9.3717438 1.645047,8.8601335 2.0497326,7.8825135 1.9375,7.1482107 1.9675798,5.4034967 1.8765211,3.6467348 1.9845063,1.9097688 2.073494,1.6914966 2.3013798,1.5399713 2.5375,1.54375 z" id="rect6360" style="fill:#ffffff;stroke:#000000;stroke-width:0.34999999" />
    <path d="M 25.0375,1.55 C 28.047271,1.581312 31.069501,1.4873529 34.071481,1.5970062 34.729953,2.1086165 34.325267,3.0862365 34.4375,3.8205393 34.40742,5.5652533 34.498479,7.3220152 34.390494,9.0589812 33.878883,9.717453 32.901263,9.3127673 32.166961,9.425 29.714032,9.3937275 27.248657,9.4875984 24.803519,9.3779937 24.145047,8.8663834 24.549733,7.8887634 24.4375,7.1544606 24.46758,5.4097466 24.376521,3.6529847 24.484506,1.9160187 24.573494,1.6977465 24.80138,1.5462212 25.0375,1.55 z" id="rect6362" style="fill:#ffffff;stroke:#000000;stroke-width:0.34999999" />
  </g>
</svg>
