<?xml version="1.0" encoding="UTF-8" standalone="no"?>
<svg xmlns:dc="http://purl.org/dc/elements/1.1/" xmlns:cc="http://creativecommons.org/ns#" xmlns:rdf="http://www.w3.org/1999/02/22-rdf-syntax-ns#" xmlns:svg="http://www.w3.org/2000/svg" xmlns="http://www.w3.org/2000/svg" version="1.0" width="6.910049" height="6.944932" viewBox="0 0 6.910049 6.944932" id="symbol-bus-station">
  <g transform="matrix(0.22863225,0,0,0.23866911,-66.585771,-162.62463)" id="g3353">
    <g transform="matrix(0.466,0,0,0.466,295.1017,691.67072)" id="g2468">
      <path d="M 2.2521668,0.37432812 C 16.5855,0.37432812 30.918834,0.37432812 45.252168,0.37432812 46.355969,1.6734629 46.462793,3.586312 46.948398,5.196193 47.576853,8.2837404 48.414233,11.387465 48.252167,14.563593 48.236437,15.635583 48.542361,17.557849 46.939414,17.374328 32.043665,17.374328 17.147916,17.374328 2.2521668,17.374328 0.65875368,17.30455 0.27106428,15.753005 0.2698071,14.227706 0.29303084,10.212217 0.1028761,6.2414586 0.23632812,2.1693926 0.39484947,1.3347273 1.358163,0.37476685 2.2521668,0.37432812 z" id="path2470" style="fill:#0000ff;stroke:#000000;stroke-width:0.33102515" />
      <path d="M 38.812165,16.734328 C 38.920431,18.865451 36.087926,20.19296 34.514352,18.757021 32.815686,17.495237 33.558848,14.486315 35.653279,14.167433 37.225591,13.803144 38.854105,15.116219 38.812165,16.734328 z" id="path2472" style="fill:#0000ff;stroke:#ffffff;stroke-width:0.75587374" />
      <path d="M 15.912166,16.734328 C 16.020431,18.865452 13.187925,20.19296 11.614351,18.757021 9.9156863,17.495236 10.658848,14.486315 12.753279,14.167433 14.325591,13.803145 15.954103,15.116219 15.912166,16.734328 z" id="path2474" style="fill:#0000ff;stroke:#ffffff;stroke-width:0.75587374" />
      <path d="M 36.357025,1.5513395 C 39.305684,1.5513395 40.910594,1.5513395 43.859255,1.5513395 44.243739,1.5513395 44.590387,1.6719809 44.715165,1.9230441 45.570116,3.6432751 45.6451,5.7562027 46.029437,7.6473997 46.245197,8.9459032 46.072777,9.4244981 44.672637,9.4157048 41.844185,9.4192248 39.029953,9.3974158 36.281062,9.3974158 35.798111,9.3974158 35.537058,8.960743 35.537058,8.6449218 35.562558,6.3521578 35.570718,3.8641789 35.570718,2.2653881 35.570718,1.9157127 35.85465,1.5513398 36.357027,1.5513398 z" id="path2476" style="fill:#ffffff;stroke:#000000;stroke-width:0.35478419" />
      <rect width="10" height="7.875" ry="0.60000002" x="13.25" y="1.54375" id="rect2478" style="fill:#ffffff;fill-opacity:1;stroke:#000000;stroke-width:0.34999999" />
      <rect width="10" height="7.875" ry="0.60000002" x="1.9375" y="1.54375" id="rect2480" style="fill:#ffffff;stroke:#000000;stroke-width:0.34999999" />
      <rect width="10" height="7.875" ry="0.60000002" x="24.4375" y="1.55" id="rect2482" style="fill:#ffffff;stroke:#000000;stroke-width:0.34999999" />
    </g>
    <path d="M 304.19644,703.74609 A 11.5625,11.294642 0 1 1 281.07144,703.74609 11.5625,11.294642 0 1 1 304.19644,703.74609 z" transform="matrix(1.2520344,0,0,1.2342961,-60.040798,-172.70063)" id="path3305" style="fill:#ffffff;fill-opacity:0;stroke:#0000ff;stroke-width:1;stroke-linecap:butt;stroke-linejoin:bevel;stroke-miterlimit:4;stroke-opacity:1;stroke-dasharray:none;stroke-dashoffset:0" />
  </g>
</svg>
