<?xml version="1.0" encoding="UTF-8" standalone="no"?>
<svg xmlns:dc="http://purl.org/dc/elements/1.1/" xmlns:cc="http://creativecommons.org/ns#" xmlns:rdf="http://www.w3.org/1999/02/22-rdf-syntax-ns#" xmlns:svg="http://www.w3.org/2000/svg" xmlns="http://www.w3.org/2000/svg" version="1.1" width="6.4685235" height="8.9250088" viewBox="0 0 116.6 160.87999" id="cinema">
  <g transform="scale(0.4,0.4)" id="g4896">
    <path d="M 123.7,393.2 87.8,402.2 0,50.9 35.9,41.9 123.7,393.2 z" id="path4898" style="fill:#000000" />
    <path d="M 291.5,351.2 255.6,360.2 167.8,9 203.7,0 291.5,351.2 z" id="path4900" style="fill:#000000" />
    <path d="M 201.9,27.8 210.9,63.7 19.8,111.5 10.8,75.6 201.9,27.8 z" id="path4902" style="fill:#000000" />
    <path d="M 234.8,159.2 243.8,195.1 52.6,242.9 43.6,207 234.8,159.2 z" id="path4904" style="fill:#000000" />
    <path d="M 267.7,290.7 276.7,326.6 85.5,374.4 76.5,338.5 267.7,290.7 z" id="path4906" style="fill:#000000" />
    <path d="M 40.5,97.5 19.2,102.8 13.9,81.5 35.2,76.2 40.5,97.5 z" id="path4908" style="fill:#ffffff" />
    <path d="M 56.9,163 35.6,168.3 30.2,147 51.5,141.7 56.9,163 z" id="path4910" style="fill:#ffffff" />
    <path d="M 73.3,228.5 52,233.8 46.7,212.5 68,207.2 73.3,228.5 z" id="path4912" style="fill:#ffffff" />
    <path d="M 89.6,294 68.3,299.3 63,278 84.3,272.7 89.6,294 z" id="path4914" style="fill:#ffffff" />
    <path d="M 106,359.4 84.7,364.7 79.4,343.4 100.7,338.1 106,359.4 z" id="path4916" style="fill:#ffffff" />
    <path d="M 209.1,54.3 187.8,59.6 182.5,38.3 203.8,33 209.1,54.3 z" id="path4918" style="fill:#ffffff" />
    <path d="M 225.4,119.8 204.1,125.1 198.8,103.8 220.1,98.5 225.4,119.8 z" id="path4920" style="fill:#ffffff" />
    <path d="M 241.8,185.3 220.5,190.6 215.2,169.3 236.5,164 241.8,185.3 z" id="path4922" style="fill:#ffffff" />
    <path d="M 258.2,250.8 236.9,256.1 231.6,234.8 252.9,229.5 258.2,250.8 z" id="path4924" style="fill:#ffffff" />
    <path d="M 274.6,316.3 253.3,321.6 248,300.3 269.3,295 274.6,316.3 z" id="path4926" style="fill:#ffffff" />
  </g>
</svg>
