<?xml version="1.0" encoding="UTF-8" standalone="no"?>
<svg xmlns:dc="http://purl.org/dc/elements/1.1/" xmlns:cc="http://creativecommons.org/ns#" xmlns:rdf="http://www.w3.org/1999/02/22-rdf-syntax-ns#" xmlns:svg="http://www.w3.org/2000/svg" xmlns="http://www.w3.org/2000/svg" version="1.0" width="18.040323" height="9.409297" id="symbol-firebrigade">
  <path d="M 15.206114,1.8963043 C 15.206241,1.4090143 15.485834,1.0140823 15.830685,1.0140823 16.175536,1.0140823 16.455129,1.4090143 16.455256,1.8963043" id="path3172" style="fill:#0000ff;fill-opacity:1;stroke:none" />
  <circle cx="748" cy="412" r="77" transform="matrix(-0.01933455,0,0,0.01933455,18.692887,-0.04529773)" id="circle10" style="fill:#000000;stroke:none" />
  <defs id="defs13" />
  <path d="M 12.974088,1.6331853 16.44887,1.8730533 C 17.038181,1.9176773 16.858319,1.7577263 17.509855,3.4868853 18.143064,5.1090013 18.036291,4.5443913 18.029468,5.3997953 L 18.029468,7.3139143 C 18.024233,7.8144353 17.949287,7.9376283 17.405931,7.9416823 17.32732,5.4151973 13.709566,5.4062843 13.637508,7.9561823 L 6.115154,7.9610203 C 6.118786,7.3037613 5.840842,6.8029423 5.396153,6.4396323 L 12.974088,6.4335893 12.974088,4.4626753 13.777681,4.4626753 13.777681,2.4259003 12.974088,2.4259003 12.974088,1.6331853 z M 14.448954,2.4240873 14.479162,4.4632783 17.043408,4.7635673 C 17.498097,4.8227293 17.52444,4.7030833 17.358197,4.2983293 L 16.863353,2.9787483 C 16.739086,2.5697143 16.736271,2.5679473 16.383618,2.5443243 L 14.448954,2.4240873 z M 3.062109,6.4426523 C 2.601338,6.8120993 2.341059,7.3375033 2.345525,7.9628293 L 1.248894,7.9640403 0,7.5217603 0.003628,6.4432553 3.062109,6.4426523 z" id="path4" style="fill:#d40000;fill-rule:evenodd;stroke:none" />
  <path d="M 12.987383,1.6289543 12.987383,2.4259003 10.763302,2.4259003 10.763302,4.4626753 12.987383,4.4626753 12.987383,6.4849453 0.020544,6.4849453 0.020544,1.6289543 9.921646,1.6289543 9.921646,6.0372293 10.274502,6.0372293 10.274502,1.6289543 12.987383,1.6289543 z" id="rect6" style="fill:#d40000;stroke:none" />
  <circle cx="164" cy="412" r="77" transform="matrix(-0.01933455,0,0,0.01933455,18.692887,-0.04529773)" id="circle8" style="fill:#000000;stroke:none" />
  <rect width="4.3176875" height="3.9375141" x="0.48796257" y="2.1271257" id="rect3160" style="fill:#333333;fill-opacity:1;stroke:none" />
  <rect width="4.3176875" height="3.9375141" x="0.48796257" y="2.1271257" id="rect3162" style="fill:#808080;fill-opacity:1;stroke:none" />
  <rect width="4.3176875" height="3.9375141" x="5.0772076" y="2.0999613" id="rect3166" style="fill:#808080;fill-opacity:1;stroke:none" />
  <path d="M 15.857841,0.88890927 15.857841,0.10406327" id="path3174" style="fill:none;stroke:#0000ff;stroke-width:0.20812654;stroke-linecap:butt;stroke-linejoin:miter;stroke-miterlimit:4;stroke-opacity:1;stroke-dasharray:none" />
  <path d="M 16.205555,0.97037827 16.65065,0.32394827" id="path5118" style="fill:none;stroke:#0000ff;stroke-width:0.20812654;stroke-linecap:butt;stroke-linejoin:miter;stroke-miterlimit:4;stroke-opacity:1;stroke-dasharray:none" />
  <path d="M 15.51013,0.94322127 15.06503,0.29679227" id="path5120" style="fill:none;stroke:#0000ff;stroke-width:0.20812654;stroke-linecap:butt;stroke-linejoin:miter;stroke-miterlimit:4;stroke-opacity:1;stroke-dasharray:none" />
</svg>
