<?xml version="1.0" encoding="UTF-8" standalone="no"?>
<svg xmlns:dc="http://purl.org/dc/elements/1.1/" xmlns:cc="http://creativecommons.org/ns#" xmlns:rdf="http://www.w3.org/1999/02/22-rdf-syntax-ns#" xmlns:svg="http://www.w3.org/2000/svg" xmlns="http://www.w3.org/2000/svg" version="1.1" width="14" height="18" viewBox="0 0 140 180" id="svg2">
  <path d="M 72.511181,70.729819 C 69.335409,76.327995 71.124631,84.654146 69.899076,91.33887 68.988399,102.22294 67.482765,113.10525 64.511755,123.63492 58.861451,111.7917 46.93325,104.53555 35.694098,98.656361 26.665794,94.646774 16.425749,90.140021 6.392791,92.678385 -2.734378,97.208671 6.0392797,107.89352 10.977745,112.25138 23.120395,123.01911 38.319905,131.55657 54.714839,133.03553 60.223608,132.34642 63.267122,131.27898 59.529889,137.17435 53.03946,152.47965 38.370585,164.07524 21.665741,165.62828 16.428225,166.68552 2.7278843,163.42033 8.0367295,172.93364 14.82622,177.38715 23.633222,174.56252 30.782262,172.39207 47.156654,166.84102 60.69075,153.79876 66.311173,137.37327 68.731077,133.54532 67.778654,124.66832 73.204333,130.61733 84.208558,132.26962 94.539709,125.83666 103.53152,120.30829 113.36871,113.33474 123.65763,105.05449 127.65159,93.269479 130.1075,82.512746 115.76133,83.825843 109.60673,86.882322 95.195304,92.526041 82.00838,102.05314 72.871365,114.62196 75.278315,101.36879 77.478998,87.624859 75.144964,74.216122 74.714366,72.9579 74.268205,70.718527 72.511181,70.729819 z" id="path2195" style="fill:#35e23e;fill-opacity:1;fill-rule:nonzero;stroke:#12892d;stroke-width:4.55808115;stroke-linecap:round;stroke-linejoin:round;stroke-miterlimit:4;stroke-opacity:1;stroke-dasharray:none;stroke-dashoffset:0" />
  <path d="M 104.87076,72.906181 C 95.972046,66.318989 85.715398,59.741361 81.299345,49.138572 80.431147,43.392952 73.230152,53.746504 69.298182,53.46854 61.688874,57.529715 52.94471,59.127856 45.619885,63.66389 36.165179,70.473077 38.657675,84.787491 45.856755,92.301501 51.01233,100.0787 62.725795,97.467711 64.208498,88.341986 67.887038,77.408153 70.897904,65.040126 79.970934,57.205904 85.167059,54.60471 73.095011,50.955578 72.144325,47.130158 65.93051,41.148248 61.708489,33.325908 55.130969,27.761293 45.733383,20.873486 32.889789,27.667387 27.96818,36.836077 22.164786,44.142609 28.267648,54.475935 37.404909,53.066064 48.940333,53.185825 61.633433,52.227401 71.88794,58.435457 75.967516,62.573453 75.707582,49.964611 79.051995,47.878336 82.820957,40.120136 88.955772,33.687521 92.215466,25.712367 95.862145,14.64628 85.431874,4.5307252 75.191069,2.6832759 66.448798,-0.57823826 58.507106,8.4190981 62.671539,16.673477 66.122282,27.681326 70.956183,39.457012 68.220787,51.128023 65.545978,56.28664 77.457375,52.143078 80.475022,54.679109 89.018182,55.866187 97.031726,59.712951 105.62385,60.348649 117.27521,60.397242 123.67254,47.351586 122.26499,37.04111 122.66536,27.718852 111.65426,22.946184 105.09076,29.457536 95.688013,36.141002 85.98243,44.377205 74.037356,45.382235 68.304658,44.432444 75.926245,54.480422 74.446841,58.134052 75.957844,66.625907 74.775677,75.435954 76.826203,83.803989 80.380458,94.900104 94.764497,96.952996 104.13538,92.428222 113.1251,89.928264 114.26156,77.981257 106.04066,73.751116 L 104.87076,72.906181 z" id="path1549" style="fill:#fa9806;fill-opacity:1;fill-rule:nonzero;stroke:#f58006;stroke-width:4.55797958;stroke-linecap:butt;stroke-linejoin:round;stroke-miterlimit:4;stroke-opacity:1;stroke-dashoffset:0" />
  <path d="M 84.222578,50.734873 C 84.663308,59.024644 73.483739,64.036095 67.588446,58.191433 60.951882,52.880894 65.028401,40.921363 73.524506,40.768587 79.124962,40.226874 84.366805,45.110437 84.222578,50.734873 z" id="path1551" style="fill:#fadc06;fill-opacity:1;fill-rule:nonzero;stroke:#f58006;stroke-width:4.55797958;stroke-linecap:butt;stroke-linejoin:round;stroke-miterlimit:4;stroke-opacity:1;stroke-dashoffset:0" />
</svg>
