<?xml version="1.0" encoding="UTF-8" standalone="no"?>
<svg xmlns:dc="http://purl.org/dc/elements/1.1/" xmlns:cc="http://creativecommons.org/ns#" xmlns:rdf="http://www.w3.org/1999/02/22-rdf-syntax-ns#" xmlns:svg="http://www.w3.org/2000/svg" xmlns="http://www.w3.org/2000/svg" version="1.1" width="9.3335857" height="9.3508415" viewBox="0 0 175.2551 175.57911" id="symbol-helipad">
  <g transform="matrix(0.3,0,0,0.3,0.61855154,0.61855154)" id="g7072">
    <path d="M 66.47,1.85 C 25.07,2.03 1.85,23.27 1.85,67.01 L 1.85,517.01 C 1.85,558.05 22.73,579.29 64.13,579.29 L 515.93,579.29 C 557.33,579.29 578.21,559.13 578.21,517.01 L 578.21,67.01 C 578.21,24.35 557.33,2.03 514.67,1.85 514.67,1.85 66.29,1.85 66.47,1.85 z" id="path7074" style="fill:#000000;fill-rule:nonzero;stroke:none" />
    <path d="M 66.47,1.85 C 25.07,2.03 1.85,23.27 1.85,67.01 L 1.85,517.01 C 1.85,558.05 22.73,579.29 64.13,579.29 L 515.93,579.29 C 557.33,579.29 578.21,559.13 578.21,517.01 L 578.21,67.01 C 578.21,24.35 557.33,2.03 514.67,1.85 514.67,1.85 66.29,1.85 66.47,1.85" id="path7076" style="fill:none;stroke:#000000;stroke-width:3.42000008;stroke-linecap:butt;stroke-linejoin:miter" />
    <path d="M 85.91,282.11 C 114.89,282.29 138.29,258.89 138.11,230.09 138.29,201.29 114.89,177.89 85.91,177.89 57.29,177.89 33.89,201.29 33.71,230.09 33.89,258.89 57.29,282.29 85.91,282.11 z" id="path7078" style="fill:#ffffff;fill-rule:nonzero;stroke:none" />
    <path d="M 85.91,263.21 C 104.45,263.21 119.21,248.45 119.21,230.09 119.21,211.73 104.45,196.79 85.91,196.79 67.73,196.79 52.79,211.73 52.79,230.09 52.79,248.45 67.73,263.21 85.91,263.21 z" id="path7080" style="fill:#000000;fill-rule:nonzero;stroke:none" />
    <path d="M 253.85,397.31 C 214.07,397.31 214.07,450.95 253.85,450.95 L 484.61,450.95 C 523.31,450.95 523.31,397.31 484.61,397.31 L 253.85,397.31 z" id="path7082" style="fill:#ffffff;fill-rule:nonzero;stroke:none" />
    <polygon points="321.89,163.85 301.55,163.85 301.55,212.63 321.89,212.63 321.89,212.63 " id="polygon7084" style="fill:#ffffff;fill-rule:nonzero;stroke:none" />
    <polygon points="353.57,154.67 270.41,154.67 270.41,165.11 353.57,165.11 353.57,165.11 " id="polygon7086" style="fill:#ffffff;fill-rule:nonzero;stroke:none" />
    <path d="M 360.77,147.47 493.79,147.47 C 511.61,147.47 511.61,172.85 493.79,172.85 L 360.77,172.85 C 343.49,172.85 343.49,147.47 360.77,147.47 z" id="path7088" style="fill:#ffffff;fill-rule:nonzero;stroke:none" />
    <path d="M 130.19,147.47 261.77,147.47 C 279.59,147.47 279.59,172.85 261.77,172.85 L 130.19,172.85 C 111.47,172.85 111.11,147.47 130.19,147.47 z" id="path7090" style="fill:#ffffff;fill-rule:nonzero;stroke:none" />
    <path d="M 274.55,362.75 C 257.45,362.75 248.99,350.33 246.11,339.71 L 232.79,306.23 80.69,245.75 C 62.33,238.73 66.83,211.37 87.71,211.37 L 417.83,211.37 C 454.55,211.37 475.07,233.51 484.61,256.91 L 511.07,321.35 C 520.61,343.49 504.59,362.75 480.83,362.75 L 274.55,362.75 z" id="path7092" style="fill:#ffffff;fill-rule:nonzero;stroke:none" />
    <polygon points="357.89,232.07 322.25,232.07 322.25,289.13 357.89,289.13 357.89,289.13 " id="polygon7094" style="fill:#000000;fill-rule:nonzero;stroke:none" />
    <polygon points="414.23,289.13 378.95,289.13 378.95,232.07 414.23,232.07 414.23,232.07 " id="polygon7096" style="fill:#000000;fill-rule:nonzero;stroke:none" />
    <path d="M 435.83,234.41 C 446.81,237.11 457.79,247.01 464.99,263.21 L 476.33,289.31 435.83,289.31 435.83,234.41 z" id="path7098" style="fill:#000000;fill-rule:nonzero;stroke:none" />
  </g>
</svg>
