<?xml version="1.0" encoding="UTF-8" standalone="no"?>
<svg xmlns:dc="http://purl.org/dc/elements/1.1/" xmlns:cc="http://creativecommons.org/ns#" xmlns:rdf="http://www.w3.org/1999/02/22-rdf-syntax-ns#" xmlns:svg="http://www.w3.org/2000/svg" xmlns="http://www.w3.org/2000/svg" version="1.1" width="55.919998" height="35.788799" viewBox="0 0 25 16" id="hostel" style="fill:#0000ff;fill-opacity:1;fill-rule:nonzero;stroke:none">
  <path d="M 11,8 18,0 25,8 23,8 23,16 20,16 20,10 16,10 16,16 13,16 13,8 11,8 z M 1,7 C 4,5 4.6,2 5,0 5.4,2 6,5 9,7 L 6.6,7 C 6.6,8 8,10 10,12 L 6,12 6,16 4,16 4,12 0,12 C 2,10 3.4,8 3.4,7 L 1,7 z M 0,16 0,15 25,15 25,16 0,16 z" id="path7902" />
</svg>
