<?xml version="1.0" encoding="UTF-8" standalone="no"?>
<svg
   xmlns:svg="http://www.w3.org/2000/svg"
   xmlns="http://www.w3.org/2000/svg"
   version="1.1"
   width="18.64"
   stroke-miterlimit="4"
   height="18.64">
   <path
     d="m 0,10.919527 c 0,1 2,1 2,0 l 0,-2.0000003 5,4.0000003 0,3 c 0,1 2,1 2,0 l 0,-3 6,0 0,3 c 0,1 2,1 2,0 l 0,-5 -9,0 -7,-6.0000003 c 0.8,-2 8,-2 9,-1 l 0,-3.00000006 c 0,-1 -2,-1 -2,0 l 0,1.00000006 -6,0 0,-1.00000006 c 0,-1 -2,-1 -2,0 0,0 0,10.00000036 0,10.00000036 z M 2,5.9195267 c 1,-2 7,-2 9,0 l 6,5.0000003 c -2,-2.0000003 -9,-2.0000003 -9,0 L 2,5.9195267 z"/>
</svg>
