<?xml version="1.0" encoding="UTF-8" standalone="no"?>
<svg xmlns:dc="http://purl.org/dc/elements/1.1/" xmlns:cc="http://creativecommons.org/ns#" xmlns:rdf="http://www.w3.org/1999/02/22-rdf-syntax-ns#" xmlns:svg="http://www.w3.org/2000/svg" xmlns="http://www.w3.org/2000/svg" version="1.1" width="3.2936993" height="6.3616877" viewBox="0 0 113.08839 218.42705" id="symbol-library">
  <g transform="matrix(0.35,0,0,0.35,0.01789963,0.96549253)" id="g6174">
    <path d="M 136,165.5 141.1,579.5 303.3,416 V 46.6 L 136,165.5 z" id="path6176" style="fill:#ffffff;stroke:#000000;stroke-width:32.05849838" />
    <path d="M 20.2,136.7 16.3,558.8 C 16.3,558.8 9.9,603.8 60.1,605.1 116.7,606.6 128.3,594.8 128.3,594.8 L 130.9,168.8 C 130.9,168.8 112.9,183 73,181.7 22.8,180.1 20.2,136.7 20.2,136.7 z" id="path6178" style="fill:#ffffff;stroke:#000000;stroke-width:32.1739006" />
    <path d="M 175.9,229.4 255.7,180.5" id="path6180" style="fill:none;stroke:#000000;stroke-width:26.71710014" />
    <path d="M 182.3,289.9 251.8,247.4" id="path6182" style="fill:none;stroke:#000000;stroke-width:26.71710014" />
    <path d="M 184.9,351.6 260.8,302.7" id="path6184" style="fill:none;stroke:#000000;stroke-width:26.71710014" />
    <path d="M 13.7,147 191.3,10.6 C 173,27.7 205.2,42.9 228.6,44.1 280.1,46.7 309.7,36.4 309.7,36.4" id="path6186" style="fill:none;stroke:#000000;stroke-width:26.71710014" />
    <path d="M 36.7,143.9 180.7,27.9 C 180.7,27.9 173.7,45.9 206.7,52.9 239.7,59.9 265.7,53.9 265.7,53.9 L 116.7,160.9 C 116.7,160.9 89.7,176.9 57.7,161.9 25.7,146.9 36.7,143.9 36.7,143.9 z" id="path6188" style="fill:#ffffff;stroke:#000000" />
  </g>
</svg>
