<?xml version="1.0" encoding="UTF-8" standalone="no"?>
<svg xmlns:dc="http://purl.org/dc/elements/1.1/" xmlns:cc="http://creativecommons.org/ns#" xmlns:rdf="http://www.w3.org/1999/02/22-rdf-syntax-ns#" xmlns:svg="http://www.w3.org/2000/svg" xmlns="http://www.w3.org/2000/svg" version="1.1" width="7.4563122" height="7.3164701" viewBox="0 0 32.001341 31.40116" id="recycling" style="fill:#32cd32;stroke:none">
  <path d="M 21.997099,14.321161 28.837099,10.201161 31.917099,16.161161 C 32.637099,19.401161 28.597099,20.561161 25.317099,20.361161 L 21.997099,14.321161 z" id="path5805" />
  <path d="M 20.437099,18.561161 16.837099,24.921161 20.437099,31.401161 20.517099,28.801161 23.797099,28.801161 C 24.997099,28.921161 26.557099,28.121161 27.157099,27.001161 L 31.357099,19.201161 C 29.997099,20.601161 28.197099,20.961161 26.117099,20.961161 L 20.557099,20.961161 20.437099,18.561161 z" id="path5807" />
  <path d="M 12.397099,10.681161 5.4770991,6.6811608 9.1570991,1.0811608 C 11.597099,-1.1188392 14.637099,1.8411608 16.037099,4.8011608 L 12.357099,10.681161 z" id="path5809" />
  <path d="M 16.837099,10.001161 24.157099,10.041161 28.037099,3.7611608 25.717099,4.9211608 24.117099,2.0411608 C 23.637099,0.96116077 22.197099,-0.03883923 20.917099,0.00116077 L 12.077099,0.08116077 C 13.957099,0.64116077 15.157099,2.0411608 16.157099,3.8411608 L 18.877099,8.7211608 16.837099,10.001161 z" id="path5811" />
  <path d="M 0.15709914,10.361161 2.3170991,12.001161 0.31709914,15.601161 C -0.72290086,17.521161 1.0370991,19.241161 2.1170991,19.801161 3.1970991,20.401161 4.8770991,20.481161 6.4770991,20.481161 L 9.3170991,15.921161 11.437099,17.041161 7.7170991,10.281161 0.15709914,10.361161 z" id="path5813" />
  <path d="M 0.47709914,19.121161 5.0770991,27.441161 C 5.9970991,28.601161 7.7570991,28.881161 9.5570991,28.841161 L 14.397099,28.841161 14.397099,20.961161 5.1970991,20.881161 C 3.7970991,20.961161 1.9170991,20.681161 0.47709914,19.121161 z" id="path5815" />
</svg>
