<?xml version="1.0" encoding="UTF-8" standalone="no"?>
<svg xmlns:dc="http://purl.org/dc/elements/1.1/" xmlns:cc="http://creativecommons.org/ns#" xmlns:rdf="http://www.w3.org/1999/02/22-rdf-syntax-ns#" xmlns:svg="http://www.w3.org/2000/svg" xmlns="http://www.w3.org/2000/svg" version="1.1" width="11.62659" height="19.925421" viewBox="0 0 100.319654 114.57117" id="symbol-restaurant">
  <path d="M 6.9037184,1.85 C 1.6493599,1.93 3.3148924,23.11 4.1278309,32.46 4.1674864,34.95 4.9011138,39.31 12.792566,39.19 12.554632,104.07 10.76022,114.7 19.970218,114.57 29.180216,114.43 27.028903,103.86 23.32111,39.04 31.212562,38.92 32.441884,33.91 32.402228,31.42 32.897922,22.05 33.215167,1.46 27.950894,1.54 22.696536,1.62 28.238397,31.08 23.648269,31.77 17.293469,25.54 22.696536,1.62 17.432263,1.7 12.167991,1.77 17.85856,31.55 12.604202,31.63 6.7748379,32 11.73178,2 6.7748379,2 z" id="path6384" />
  <path d="M 59.318423,45 C 59.318423,101 62.292588,114 54.361481,114 44.447597,114 49.404539,102 49.404539,45 26.602606,43 40.482044,1 52.378704,0 66.258142,0 79.146191,44 59.318423,45 z" id="path6386" />
</svg>
