<?xml version="1.0" encoding="UTF-8" standalone="no"?>
<svg xmlns:dc="http://purl.org/dc/elements/1.1/" xmlns:cc="http://creativecommons.org/ns#" xmlns:rdf="http://www.w3.org/1999/02/22-rdf-syntax-ns#" xmlns:svg="http://www.w3.org/2000/svg" xmlns="http://www.w3.org/2000/svg" version="1.1" width="9.2073288" height="11.221999" viewBox="0 0 59.274651 72.244632" id="symbol-soccer-borderless">
  <path d="M 24.525963,33.551195 C 24.525963,33.551195 15.781243,41.064375 13.894853,42.488555 11.978173,43.935635 10.939983,44.525245 9.3945628,42.753845 7.8721828,41.008885 9.1661828,40.237465 10.609023,38.629725 12.021003,37.056355 20.896713,29.115435 20.896713,29.115435 L 24.525963,33.551195 z" id="path4755" />
  <path d="M 26.643013,35.832145 C 26.643013,35.832145 2.3260028,65.778605 0.87282278,67.700395 -0.60021722,69.648455 -0.01124722,70.781425 1.1819228,71.710265 2.3478028,72.617875 3.9796328,72.394875 5.2202628,70.844875 6.4395728,69.321475 30.512983,39.233025 30.512983,39.233025 L 26.643013,35.832145 z" id="path4757" />
  <path d="M 29.054073,67.004125 A 4.9628311,5.0119095 0 1 1 19.128433,67.004125 4.9628311,5.0119095 0 1 1 29.054073,67.004125 z" id="path4759" style="fill:#000000" />
  <path d="M 31.762483,12.610265 C 37.717003,11.528975 42.562813,11.058665 48.121753,15.219565 L 57.415443,23.487115 C 60.054133,26.700395 60.106393,30.193715 56.125423,32.282455 52.330933,34.273335 47.262943,36.284265 44.740433,37.080745 42.241363,37.869855 41.096473,37.838665 40.763013,36.191425 40.431003,34.551355 42.198613,33.537565 43.831613,32.819875 45.527173,32.074755 47.175463,31.646925 50.633313,29.458175 54.126033,27.247335 53.047073,26.584585 50.476953,24.405715 47.887443,22.210415 44.707013,21.560605 42.785923,24.249435 40.090193,27.854065 36.006543,34.312185 35.163373,35.360755 34.333763,36.392435 33.473853,37.167215 32.194673,36.546045 30.926173,35.930065 24.342553,30.653645 23.426983,29.218275 22.552483,27.847355 22.475133,27.500135 23.592973,25.959775 24.697633,24.437545 27.071663,21.581515 27.071663,21.581515 29.984803,17.933735 31.271763,17.474935 26.094403,19.187245 20.952283,20.887925 11.589493,24.043735 4.3311028,26.566075 2.0379328,27.211955 1.0079728,27.720065 0.38303278,25.813545 -0.25732722,23.860005 0.38435278,23.605105 2.5134628,22.705885 4.6425728,21.806675 29.214333,13.047045 31.762483,12.610265 z" id="path4761" style="fill:#000000;fill-opacity:1" />
  <path d="M 49.718513,5.2815353 A 5.2771768,5.2771766 0 0 1 39.164163,5.2815353 5.2771768,5.2771766 0 1 1 49.718513,5.2815353 z" id="path4763" />
</svg>
