<?xml version="1.0" encoding="UTF-8" standalone="no"?>
<svg xmlns:dc="http://purl.org/dc/elements/1.1/" xmlns:cc="http://creativecommons.org/ns#" xmlns:rdf="http://www.w3.org/1999/02/22-rdf-syntax-ns#" xmlns:svg="http://www.w3.org/2000/svg" xmlns="http://www.w3.org/2000/svg" version="1.1" width="18.639999" height="18.639999" viewBox="0 0 30 30" id="symbol-supermarket">
  <g transform="translate(0.5,1.5)" id="g3168">
    <path d="M 13.711,19.263 C 13.711,19.754 13.319,20.153 12.836,20.153 12.353,20.153 11.962,19.754 11.962,19.263 11.962,18.771793 12.353,18.373 12.836,18.373 13.319,18.373 13.711,18.771 13.711,19.263 z" id="path3170" style="fill:#000000;fill-opacity:1;stroke:none" />
    <path d="M 1.496,6.889 16.443,2.987 25.387,6.367 7.796,10.054 1.496,6.889 z" id="path3172" style="fill:none;stroke:#000000;stroke-width:1;stroke-linecap:butt;stroke-linejoin:miter;stroke-miterlimit:4;stroke-opacity:1;stroke-dasharray:none" />
    <path d="M 1.54,16.974 7.7331,20.521 22.605,17.745 14.549,13.961 1.54,16.974 z" id="path3174" style="fill:none;stroke:#000000;stroke-width:1;stroke-linecap:butt;stroke-linejoin:miter;stroke-miterlimit:4;stroke-opacity:1;stroke-dasharray:none" />
    <path d="M 7.812,10.136 7.812,20.5" id="path3176" style="fill:none;stroke:#000000;stroke-width:1;stroke-linecap:butt;stroke-linejoin:miter;stroke-miterlimit:4;stroke-opacity:1;stroke-dasharray:none" />
    <path d="M 22.841,21.164 26.462,6.6923 C 26.61,5.3945 27.232,4.939 28.105,4.932" id="path3178" style="fill:none;stroke:#000000;stroke-width:1;stroke-linecap:round;stroke-linejoin:miter;stroke-miterlimit:4;stroke-opacity:1;stroke-dasharray:none" />
    <path d="M 14.1281,17.1309 16.5851,2.98845 C 16.5652,2.09899 16.8043,1.34902 17.8289,1.02204" id="path3180" style="fill:none;stroke:#000000;stroke-width:0.90399998;stroke-linecap:round;stroke-linejoin:miter;stroke-miterlimit:4;stroke-opacity:1;stroke-dasharray:none" />
    <path d="M 0.761,16.846 0.761,6.781" id="path3182" style="fill:none;stroke:#000000;stroke-width:1;stroke-linecap:butt;stroke-linejoin:miter;stroke-miterlimit:4;stroke-opacity:1;stroke-dasharray:none" />
    <path d="M 17.707,0.991 C 17.727,0.991 17.748,0.991 17.707,0.991 z" id="path3184" style="fill:none;stroke:#000000;stroke-width:0.16;stroke-linecap:butt;stroke-linejoin:miter;stroke-opacity:1" />
    <path d="M 17.707,1.022 28.196,4.902" id="path3186" style="fill:none;stroke:#000000;stroke-width:1.26999998;stroke-linecap:round;stroke-linejoin:miter;stroke-miterlimit:4;stroke-opacity:1;stroke-dasharray:none" />
    <path d="M 14.009,17.24 3.853,20.726 C 1.229,21.787 3.228,23.365 4.126,23.909 5.447,24.711 6.096,25.159 9.34,24.728 13.993,24.109 22.709,21.211 22.709,21.211" id="path3188" style="fill:none;stroke:#000000;stroke-width:0.73199999;stroke-linecap:butt;stroke-linejoin:miter;stroke-miterlimit:4;stroke-opacity:1;stroke-dasharray:none" />
    <path d="M 5.601,21.945 C 5.601,22.437 5.209,22.834 4.727,22.835 4.244,22.835 3.853,22.437 3.853,21.945 3.853,21.454 4.244,21.056 4.727,21.056 5.2095,21.056 5.601,21.454 5.601,21.945 z" id="path3190" style="fill:#000000;fill-opacity:1;stroke:none" />
    <path d="M 11.254,25.962 C 11.254,26.453 10.863,26.852 10.38,26.852 9.898,26.852 9.506,26.453 9.506,25.962 9.506,25.471 9.898,25.072 10.38,25.072 10.863,25.072 11.254,25.471 11.254,25.962 z" id="path3192" style="fill:#000000;fill-opacity:1;stroke:none" />
    <path d="M 21.926,23.143 C 21.926,23.635 21.535,24.033 21.052,24.033 20.569,24.033 20.177,23.632 20.177,23.143 20.177,22.652 20.569,22.253 21.052,22.253 21.535,22.253 21.926,22.652 21.926,23.143 z" id="path3194" style="fill:#000000;fill-opacity:1;stroke:none" />
  </g>
</svg>
