<?xml version="1.0" encoding="UTF-8" standalone="no"?>
<svg xmlns:dc="http://purl.org/dc/elements/1.1/" xmlns:cc="http://creativecommons.org/ns#" xmlns:rdf="http://www.w3.org/1999/02/22-rdf-syntax-ns#" xmlns:svg="http://www.w3.org/2000/svg" xmlns="http://www.w3.org/2000/svg" version="1.1" width="2.1564784" height="5.6662211" viewBox="0 0 63.629998 167.19001" id="symbol-traffic_signal">
  <g transform="scale(0.3,0.3)" id="g6771">
    <path d="M 212.1,105 C 212.1,163 164.6,210 106.1,210 47.5,210 0.1,163 0.1,105 0,47 47.5,0 106,0 164.6,0 212.1,47 212.1,105 z" id="path6773" />
    <path d="M 212.1,452.3 C 212.1,510.3 164.6,557.3 106.1,557.3 47.5,557.3 0.1,510.3 0.1,452.3 0.1,394.3 47.6,347.3 106.1,347.3 164.6,347.3 212.1,394.3 212.1,452.3 z" id="path6775" />
    <path d="M 211.3,458.9 H 0 V 106.7 H 211.3 V 458.9 z" id="path6777" />
    <path d="M 190,103 C 190,149.4 152.4,187 106,187 59.6,187 22,149.4 22,103 22,56.6 59.6,19 106,19 152.4,19 190,56.6 190,103 z" id="path6779" style="fill:#ff0000" />
    <path d="M 190,455 C 190,501.4 152.4,539 106,539 59.6,539 22,501.4 22,455 22,408.6 59.6,371 106,371 152.4,371.1 190,408.7 190,455 z" id="path6781" style="fill:#32cd32" />
    <path d="M 190,279 C 190,325.4 152.4,363 106,363 59.6,363 22,325.4 22,279 22,232.6 59.6,195 106,195 152.4,195 190,232.6 190,279 z" id="path6783" style="fill:#ffff00" />
  </g>
</svg>
