<?xml version="1.0" encoding="UTF-8" standalone="no"?>
<svg xmlns:dc="http://purl.org/dc/elements/1.1/" xmlns:cc="http://creativecommons.org/ns#" xmlns:rdf="http://www.w3.org/1999/02/22-rdf-syntax-ns#" xmlns:svg="http://www.w3.org/2000/svg" xmlns="http://www.w3.org/2000/svg" version="1.1" width="9.3199997" height="4.4415622" viewBox="0 0 64 30.499999" id="symbol-university">
  <g transform="matrix(0.5,0,0,0.5,0,-0.5)" id="g6474">
    <path d="M 65,1 C 57.6,1.4 51.7,3.6 52,6 51.7,6.4 52,6.4 51,6.4 L 0,6 14,10 C 13.1,12 12.4,14 12,17 11.1,20.7 11.4,23.4 12,25 L 21,50 15,58 20,61 23,56 26,62 30,60 22,17 35,44 C 35.2,43.8 40.7,18.7 62,19 84.2,18.7 95,46.5 95,46.5 L 106,12 128,7 78,7 C 78.2,6.5 78.2,6.4 78.2,6.3 78.2,3.6 72.3,1.4 65,1.4 L 65,1 65,1 z" id="path6476" style="fill:#000000" />
  </g>
</svg>
