<?xml version="1.0" encoding="UTF-8" standalone="no"?>
<svg xmlns="http://www.w3.org/2000/svg" version="1.0" width="580" height="580">
 <metadata id="metadata2975"/>
 <path id="path4137" d="m 256,65.6 c -2.1,-4.9 -3.4,-10 -8.8,-12.7 -40,-5.9 -48,104 -51,141 10.2,-33.6 39.6,-163 50.7,-111 -5.4,14 -14.8,50 -9.5,101 4.9,-26.4 7.1,-53.8 14.7,-80 10.8,58.9 17,123 20.4,175 -5.4,-22.5 -8.4,-53.7 -22.4,-65 -6.3,-3.8 -18,3.9 -21,8 -8.9,-7.6 -17.2,-13.4 -31.4,-7.2 -7.8,-2.4 -16.2,-4.3 -23.6,-1.9 C 78,206 45,393 34,466 69,369 83,286 141,237 102,308 96,343 77,463 c 37,-96 49,-221 101,-229 -39,62 -51.8,164 -54.6,234 21,-78 30,-171 71.8,-226 7.9,6.1 14.6,13.6 20.5,21.8 -12.3,67 -21,135 -20.8,203 15,-62 18.2,-125 30.7,-187 29.7,67 36,137 47,194 -76,-5.4 -140,43 -209,40.8 0.8,6 -3.9,14 6.5,14 l 439,0 c 10.4,0.1 5.7,-8 6.5,-14 -68,2.3 -133,-46 -209,-40.8 11.3,-57 17.7,-128 47,-194 12.5,62 15.6,126 30.7,187 0.2,-68 -8.5,-136 -20.8,-203 5.9,-8.2 12.6,-15.7 20.5,-21.8 41.5,56 50.6,148 71.8,226 -2.8,-69.9 -15.4,-172 -54.6,-234 51,8.1 64,133 101,230 -19,-120 -25,-155 -64,-227 58,48.8 71.8,132 107,229 -10.9,-73 -43,-259 -140,-252 -7.4,-2.3 -15.8,-0.5 -23.6,1.9 -14.2,-6.2 -22.4,-0.4 -31.4,7.2 -3,-4.2 -14.9,-11.8 -21,-8 -14,11.3 -17,42.6 -22.4,65 3.3,-52 9.6,-116 20.4,-175 7.5,25.8 9.8,53 14.7,80 5.3,-51 -4.1,-87 -9.5,-101 11.2,-52 40.5,78 50.7,111 -2.9,-37.6 -10.8,-147 -51,-141 -5.4,2.7 -6.8,7.8 -8.9,12.7 -2.3,-5.5 -4.6,-13 -12,-13.7 C 302,54 295,69 290,92 285,69 278,54 268,51.9 c -7.5,0.7 -9.8,8.2 -12,13.7 z M 279,188 C 281,175 257,81 262.9,81.85 271,80.9 279,170 279,188 Z m 22,0 c 0,-18 8,-107.1 16,-106 4,-1 -12,75 -16,106 z m -57,44 c 16.9,22 22.7,74 25.7,101 -9.9,-34 -15.9,-66.8 -29.9,-97 1.16391,-1.46884 3.28268,-3.46903 4.2,-4 z m 97.2,3.4 c -14,30.6 -20,63 -29.9,97 3,-26 8.8,-79 25.7,-100.7 1.5,0.3 2.9,1.6 4.2,3.7 z m -89.3,63.9 c -6.4,-17.4 -11.2,-33.6 -18.8,-48 0.2,-1.1 0.6,-1.6 0.95,-1.65 C 238,249.1 250,291.6 251.9,299.3 Z m 97.2,-48 c -7.6,14.5 -12.4,30.7 -18.8,48 1.9,-7.4 13.9,-50 17.85,-49.7 0.35,0.2 0.65,0.7 0.95,1.7 z" mix-blend-mode="normal" solid-color="#000000" opacity="0.8" color-interpolation-filters="linearRGB" filter-gaussianBlur-deviation="0" color="#000000" image-rendering="auto" color-rendering="auto" stroke-width="64" isolation="auto" color-interpolation="sRGB" solid-opacity="1" fill="none" stroke-linejoin="round" filter-blend-mode="normal" stroke="#ffffff" shape-rendering="auto"/>
 <path d="m 256,65.6 c -2.1,-4.9 -3.4,-10 -8.8,-12.7 -40,-5.9 -48,104 -51,141 10.2,-33.6 39.6,-163 50.7,-111 -5.4,14 -14.8,50 -9.5,101 4.9,-26.4 7.1,-53.8 14.7,-80 10.8,58.9 17,123 20.4,175 -5.4,-22.5 -8.4,-53.7 -22.4,-65 -6.3,-3.8 -18,3.9 -21,8 -8.9,-7.6 -17.2,-13.4 -31.4,-7.2 -7.8,-2.4 -16.2,-4.3 -23.6,-1.9 C 78,206 45,393 34,466 69,369 83,286 141,237 102,308 96,343 77,463 c 37,-96 49,-221 101,-229 -39,62 -51.8,164 -54.6,234 21,-78 30,-171 71.8,-226 7.9,6.1 14.6,13.6 20.5,21.8 -12.3,67 -21,135 -20.8,203 15,-62 18.2,-125 30.7,-187 29.7,67 36,137 47,194 -76,-5.4 -140,43 -209,40.8 0.8,6 -3.9,14 6.5,14 l 439,0 c 10.4,0.1 5.7,-8 6.5,-14 -68,2.3 -133,-46 -209,-40.8 11.3,-57 17.7,-128 47,-194 12.5,62 15.6,126 30.7,187 0.2,-68 -8.5,-136 -20.8,-203 5.9,-8.2 12.6,-15.7 20.5,-21.8 41.5,56 50.6,148 71.8,226 -2.8,-69.9 -15.4,-172 -54.6,-234 51,8.1 64,133 101,230 -19,-120 -25,-155 -64,-227 58,48.8 71.8,132 107,229 -10.9,-73 -43,-259 -140,-252 -7.4,-2.3 -15.8,-0.5 -23.6,1.9 -14.2,-6.2 -22.4,-0.4 -31.4,7.2 -3,-4.2 -14.9,-11.8 -21,-8 -14,11.3 -17,42.6 -22.4,65 3.3,-52 9.6,-116 20.4,-175 7.5,25.8 9.8,53 14.7,80 5.3,-51 -4.1,-87 -9.5,-101 11.2,-52 40.5,78 50.7,111 -2.9,-37.6 -10.8,-147 -51,-141 -5.4,2.7 -6.8,7.8 -8.9,12.7 -2.3,-5.5 -4.6,-13 -12,-13.7 C 302,54 295,69 290,92 285,69 278,54 268,51.9 c -7.5,0.7 -9.8,8.2 -12,13.7 z M 279,188 C 281,175 257,81 262.9,81.85 271,80.9 279,170 279,188 Z m 22,0 c 0,-18 8,-107.1 16,-106 4,-1 -12,75 -16,106 z m -57,44 c 16.9,22 22.7,74 25.7,101 -9.9,-34 -15.9,-66.8 -29.9,-97 1.16391,-1.46884 3.28268,-3.46903 4.2,-4 z m 97.2,3.4 c -14,30.6 -20,63 -29.9,97 3,-26 8.8,-79 25.7,-100.7 1.5,0.3 2.9,1.6 4.2,3.7 z m -89.3,63.9 c -6.4,-17.4 -11.2,-33.6 -18.8,-48 0.2,-1.1 0.6,-1.6 0.95,-1.65 C 238,249.1 250,291.6 251.9,299.3 Z m 97.2,-48 c -7.6,14.5 -12.4,30.7 -18.8,48 1.9,-7.4 13.9,-50 17.85,-49.7 0.35,0.2 0.65,0.7 0.95,1.7 z" id="path4151" fill="#b7650c"/>
</svg>
