<?xml version="1.0" encoding="UTF-8" standalone="no"?>
<svg xmlns="http://www.w3.org/2000/svg" version="1.0" width="580" height="580">
 <metadata id="metadata2975"/>
 <path mix-blend-mode="normal" white-space="normal" isolation="auto" id="path4139" d="m 56,287 c 75,86 152,171 228,257 13.7,4.7 7.2,-16 8.5,-24.3 L 292,444 c -9,-14.6 -22.7,-26.4 -33.5,-39.9 0,0 -190,-218 -193,-219 -11.3,-4.9 -8.9,20.3 -9.25,24.85 C 55.9,235 55,261 56,287 Z M 70,157 c -4.9,5 9,15.9 15,23 l 214,243 c 9.5,3.4 18,-7.5 26.9,-10.8 L 524,298 c 6.6,-8.9 -6.2,-16.7 -12.4,-23.4 L 302,32.7 C 300.8,31.5 300,30.6 298,31 219,75.8 143,114 70,157 Z" solid-color="#000000" color-interpolation-filters="linearRGB" opacity="0.8" filter-gaussianBlur-deviation="0" color="#000000" image-rendering="auto" color-rendering="auto" stroke-width="64" color-interpolation="sRGB" solid-opacity="1" fill="none" stroke-linejoin="round" filter-blend-mode="normal" stroke="#ffffff" shape-rendering="auto"/>
 <path mix-blend-mode="normal" white-space="normal" isolation="auto" id="path4141" d="m 309,522 c -5.8,4.6 -4.7,17 3.8,18 6.5,-0.1 11.3,-5.4 17,-8 64.8,-38 130,-75.9 195,-114 6.1,-4.8 4.8,-18.7 -4.6,-18.4 C 448.78613,440.70065 370.7288,485.36996 309,522 Z m 0.4,-40.3 c -5.8,4.6 -4.7,17 3.8,18 6.5,-0.1 11.3,-5.4 17,-8 64.8,-38 130,-75.9 195,-114 6.1,-4.8 4.8,-18.7 -5.05,-17.85 -72.01734,39.87078 -148.55451,85.78517 -210.75,121.85 z m 0,-40 c -5.8,4.6 -4.7,17 3.8,18 6.5,-0.1 11.3,-5.4 17,-8 64.8,-38 130,-75.9 195,-114 6.1,-4.8 4.8,-18.7 -4.8,-18 -6.4,2 -149,86 -211,122 z" solid-color="#000000" opacity="0.8" color-interpolation-filters="linearRGB" filter-gaussianBlur-deviation="0" color="#000000" image-rendering="auto" color-rendering="auto" stroke-width="64" color-interpolation="sRGB" solid-opacity="1" fill="none" stroke-linejoin="round" filter-blend-mode="normal" stroke="#ffffff" shape-rendering="auto"/>
 <path d="m 56,287 c 75,86 152,171 228,257 13.7,4.7 7.2,-16 8.5,-24.3 L 292,444 c -9,-14.6 -22.7,-26.4 -33.5,-39.9 0,0 -190,-218 -193,-219 -11.3,-4.9 -8.9,20.3 -9.25,24.85 C 55.9,235 55,261 56,287 Z M 70,157 c -4.9,5 9,15.9 15,23 l 214,243 c 9.5,3.4 18,-7.5 26.9,-10.8 L 524,298 c 6.6,-8.9 -6.2,-16.7 -12.4,-23.4 L 302,32.7 C 300.8,31.5 300,30.6 298,31 219,75.8 143,114 70,157 Z" id="path3474" isolation="auto" white-space="normal" mix-blend-mode="normal" fill="#39ac39" color-rendering="auto" solid-opacity="1" color-interpolation-filters="linearRGB" shape-rendering="auto" fill-rule="evenodd" image-rendering="auto" color-interpolation="sRGB" color="#000000" solid-color="#000000"/>
 <path d="m 309,522 c -5.8,4.6 -4.7,17 3.8,18 6.5,-0.1 11.3,-5.4 17,-8 64.8,-38 130,-75.9 195,-114 6.1,-4.8 4.8,-18.7 -4.6,-18.4 C 448.78613,440.70065 370.7288,485.36996 309,522 Z m 0.4,-40.3 c -5.8,4.6 -4.7,17 3.8,18 6.5,-0.1 11.3,-5.4 17,-8 64.8,-38 130,-75.9 195,-114 6.1,-4.8 4.8,-18.7 -5.05,-17.85 -72.01734,39.87078 -148.55451,85.78517 -210.75,121.85 z m 0,-40 c -5.8,4.6 -4.7,17 3.8,18 6.5,-0.1 11.3,-5.4 17,-8 64.8,-38 130,-75.9 195,-114 6.1,-4.8 4.8,-18.7 -4.8,-18 -6.4,2 -149,86 -211,122 z" id="path3507" isolation="auto" white-space="normal" mix-blend-mode="normal" opacity="0.8" fill="#39ac39" color-rendering="auto" solid-opacity="1" color-interpolation-filters="linearRGB" shape-rendering="auto" fill-rule="evenodd" image-rendering="auto" color-interpolation="sRGB" color="#000000" solid-color="#000000"/>
</svg>
