<?xml version="1.0" encoding="utf-8"?>
<!-- Generator: Adobe Illustrator 25.0.1, SVG Export Plug-In . SVG Version: 6.00 Build 0)  -->
<svg version="1.1" id="Layer_1" xmlns="http://www.w3.org/2000/svg" xmlns:xlink="http://www.w3.org/1999/xlink" x="0px" y="0px"
	 viewBox="0 0 340 340" style="enable-background:new 0 0 340 340;" xml:space="preserve">
<path d="M286.5,34.7H153.2c-1.9,0-3.5,1.6-3.5,3.5v118.1c-13.5,0.2-27.7,4.1-41.1,11.3V136l13.3-0.1l14-42.9V76.8h-9.5
	V41.2c0-1.9-1.6-3.5-3.5-3.5h-3.1c-1.9,0-3.5,1.6-3.5,3.5v35.7H88V41.6c0-1.9-1.6-3.5-3.5-3.5h-3.1c-1.9,0-3.5,1.6-3.5,3.5v35.2
	H67.4v15.1l14.3,44.3l12.6-0.1l0,40.7C69.2,196,50,228.1,50,269.8c0,17.2,11.6,35.5,29.3,35.5c17.7,0,29.3-19.1,29.3-36.3v-85.5
	c12.6-8.2,26.8-12.8,41.1-13v128.4c0,1.9,1.6,3.5,3.5,3.5h133.3c1.9,0,3.5-1.6,3.5-3.5V38.2C290,36.3,288.4,34.7,286.5,34.7z
	 M79.7,291.3c-9.4,0-15.8-11.5-15.8-21.5c0-30.9,12.3-57.2,30.6-75l0,74.5C94.4,279,88.1,291.3,79.7,291.3z M272,148.2
	c0,2.3-1.9,4.2-4.2,4.2H172c-2.3,0-4.2-1.9-4.2-4.2V73.1c0-2.3,1.9-4.2,4.2-4.2h95.7c2.3,0,4.2,1.9,4.2,4.2V148.2z" mix-blend-mode="normal" solid-color="#000000" opacity="0.8" color-interpolation-filters="linearRGB" filter-gaussianBlur-deviation="0" color="#000000" image-rendering="auto" color-rendering="auto" stroke-width="32" isolation="auto" color-interpolation="sRGB" solid-opacity="1" fill="none" stroke-linejoin="round" filter-blend-mode="normal" stroke="#ffffff" shape-rendering="auto"/>
<path d="M286.5,34.7H153.2c-1.9,0-3.5,1.6-3.5,3.5v118.1c-13.5,0.2-27.7,4.1-41.1,11.3V136l13.3-0.1l14-42.9V76.8h-9.5
	V41.2c0-1.9-1.6-3.5-3.5-3.5h-3.1c-1.9,0-3.5,1.6-3.5,3.5v35.7H88V41.6c0-1.9-1.6-3.5-3.5-3.5h-3.1c-1.9,0-3.5,1.6-3.5,3.5v35.2
	H67.4v15.1l14.3,44.3l12.6-0.1l0,40.7C69.2,196,50,228.1,50,269.8c0,17.2,11.6,35.5,29.3,35.5c17.7,0,29.3-19.1,29.3-36.3v-85.5
	c12.6-8.2,26.8-12.8,41.1-13v128.4c0,1.9,1.6,3.5,3.5,3.5h133.3c1.9,0,3.5-1.6,3.5-3.5V38.2C290,36.3,288.4,34.7,286.5,34.7z
	 M79.7,291.3c-9.4,0-15.8-11.5-15.8-21.5c0-30.9,12.3-57.2,30.6-75l0,74.5C94.4,279,88.1,291.3,79.7,291.3z M272,148.2
	c0,2.3-1.9,4.2-4.2,4.2H172c-2.3,0-4.2-1.9-4.2-4.2V73.1c0-2.3,1.9-4.2,4.2-4.2h95.7c2.3,0,4.2,1.9,4.2,4.2V148.2z" fill="#ac39ac"/>
</svg>
