<svg width="580" height="580" viewBox="0 0 580 580" fill="none" xmlns="http://www.w3.org/2000/svg">
<path d="M47.8789 429.041V59.166H187.402C211.959 59.1664 230.714 60.3438 243.666 62.6982C261.831 65.7262 277.053 71.4871 289.332 79.981C301.611 88.4755 311.493 100.376 318.978 115.682C326.463 130.988 330.205 147.809 330.205 166.142C330.205 197.596 320.197 224.214 300.181 245.996C280.165 267.778 244.002 278.669 191.691 278.669H96.8256V429.041H47.8789ZM96.8256 235.021H192.448C224.07 235.021 246.525 229.134 259.813 217.36C273.101 205.586 279.745 189.018 279.745 167.656C279.745 152.182 275.834 138.936 268.013 127.918C260.191 116.902 249.889 109.627 237.106 106.094C228.864 103.908 213.641 102.815 191.439 102.814H96.8256V235.021Z" mix-blend-mode="normal" solid-color="#000000" opacity="0.8" color-interpolation-filters="linearRGB" filter-gaussianBlur-deviation="0" color="#000000" image-rendering="auto" color-rendering="auto" stroke-width="32" isolation="auto" color-interpolation="sRGB" solid-opacity="1" fill="none" stroke-linejoin="round" filter-blend-mode="normal" stroke="#ffffff" shape-rendering="auto"/>
<path d="M406.184 276.12C402.122 260.466 387.834 248.873 370.962 248.873C350.803 248.873 334.521 265.081 334.521 285.203C334.521 288.599 334.928 291.7 335.777 294.728H350.397C351.468 297.239 352.649 298.678 352.649 298.678C357.043 305.029 364.39 309.127 372.697 309.127C386.173 309.127 397.138 298.162 397.138 284.686C397.138 281.584 397.913 278.778 396.621 276.12H406.184Z" mix-blend-mode="normal" solid-color="#000000" opacity="0.8" color-interpolation-filters="linearRGB" filter-gaussianBlur-deviation="0" color="#000000" image-rendering="auto" color-rendering="auto" stroke-width="32" isolation="auto" color-interpolation="sRGB" solid-opacity="1" fill="none" stroke-linejoin="round" filter-blend-mode="normal" stroke="#ffffff" shape-rendering="auto"/>
<path d="M405.187 493.396C401.348 497.272 396.068 500.263 390.124 500.263L390.087 421.069L444.876 405.341L458.611 432.366L405.187 493.396H405.187Z" mix-blend-mode="normal" solid-color="#000000" opacity="0.8" color-interpolation-filters="linearRGB" filter-gaussianBlur-deviation="0" color="#000000" image-rendering="auto" color-rendering="auto" stroke-width="32" isolation="auto" color-interpolation="sRGB" solid-opacity="1" fill="none" stroke-linejoin="round" filter-blend-mode="normal" stroke="#ffffff" shape-rendering="auto"/>
<path d="M359.185 312.265C355.566 308.241 350.361 305.693 344.49 305.693C338.251 305.693 332.676 308.573 329.095 313.114L285.603 379.534C283.83 382.487 282.833 385.958 282.833 389.613C282.833 396.48 286.304 402.461 291.547 405.969L349.881 438.348V493.433C349.881 501.223 356.194 507.573 363.984 507.573C371.737 507.573 378.088 501.223 378.088 493.433V424.65C378.088 424.65 379.934 413.685 367.492 407.704L331.125 388.653L357.634 348.189L371.7 370.267C374.506 374.734 378.309 376.469 381.78 376.396L417.888 376.248C432.582 376.248 432.582 357.123 417.888 357.197H388.61L359.185 312.265Z" mix-blend-mode="normal" solid-color="#000000" opacity="0.8" color-interpolation-filters="linearRGB" filter-gaussianBlur-deviation="0" color="#000000" image-rendering="auto" color-rendering="auto" stroke-width="32" isolation="auto" color-interpolation="sRGB" solid-opacity="1" fill="none" stroke-linejoin="round" filter-blend-mode="normal" stroke="#ffffff" shape-rendering="auto"/>
<path d="M519.049 402.535C519.64 403.125 519.935 403.827 519.935 404.787C519.935 406.522 518.495 407.962 516.76 407.962C516.28 407.962 515.985 407.962 515.615 407.814C509.376 405.156 505.425 403.495 498.152 403.495C493.352 403.495 487.408 405.156 480.541 410.694L474.191 398.141C482.129 395.778 488.627 393.674 495.42 393.674C506.275 393.674 511.96 395.926 519.049 402.535Z" mix-blend-mode="normal" solid-color="#000000" opacity="0.8" color-interpolation-filters="linearRGB" filter-gaussianBlur-deviation="0" color="#000000" image-rendering="auto" color-rendering="auto" stroke-width="32" isolation="auto" color-interpolation="sRGB" solid-opacity="1" fill="none" stroke-linejoin="round" filter-blend-mode="normal" stroke="#ffffff" shape-rendering="auto"/>
<path d="M276.483 412.208L337.697 445.953L337.844 459.503L267.918 420.995C262.86 418.411 256.066 416.897 251.23 416.897C244.03 416.897 240.006 418.558 233.803 421.217C233.397 421.364 233.065 421.364 232.659 421.364C230.924 421.364 229.447 419.924 229.447 418.189C229.447 417.266 229.816 416.528 230.37 415.937C237.458 409.291 244.695 407.076 255.512 407.076C261.087 407.076 267.807 407.741 276.483 412.208Z" mix-blend-mode="normal" solid-color="#000000" opacity="0.8" color-interpolation-filters="linearRGB" filter-gaussianBlur-deviation="0" color="#000000" image-rendering="auto" color-rendering="auto" stroke-width="32" isolation="auto" color-interpolation="sRGB" solid-opacity="1" fill="none" stroke-linejoin="round" filter-blend-mode="normal" stroke="#ffffff" shape-rendering="auto"/>
<path d="M282.169 536.371C302.106 536.371 318.277 520.2 318.277 500.226C318.277 480.252 302.106 464.081 282.169 464.081C262.232 464.081 246.061 480.252 246.061 500.226C246.061 520.2 262.232 536.371 282.169 536.371ZM230.074 500.263C230.074 471.502 253.408 448.132 282.169 448.132C310.966 448.132 334.3 471.502 334.3 500.263C334.3 529.024 310.966 552.395 282.169 552.395C253.408 552.395 230.074 529.024 230.074 500.263Z" mix-blend-mode="normal" solid-color="#000000" opacity="0.8" color-interpolation-filters="linearRGB" filter-gaussianBlur-deviation="0" color="#000000" image-rendering="auto" color-rendering="auto" stroke-width="32" isolation="auto" color-interpolation="sRGB" solid-opacity="1" fill="none" stroke-linejoin="round" filter-blend-mode="normal" stroke="#ffffff" shape-rendering="auto"/>
<path d="M497.635 536.371C517.572 536.371 533.78 520.2 533.78 500.226C533.78 480.252 517.609 464.081 497.635 464.081C477.661 464.081 461.527 480.252 461.527 500.226C461.527 520.2 477.698 536.371 497.635 536.371ZM445.541 500.263C445.541 471.502 468.837 448.132 497.635 448.132C526.396 448.132 549.729 471.502 549.729 500.263C549.729 529.024 526.396 552.395 497.635 552.395C468.837 552.395 445.541 529.024 445.541 500.263Z" mix-blend-mode="normal" solid-color="#000000" opacity="0.8" color-interpolation-filters="linearRGB" filter-gaussianBlur-deviation="0" color="#000000" image-rendering="auto" color-rendering="auto" stroke-width="32" isolation="auto" color-interpolation="sRGB" solid-opacity="1" fill="none" stroke-linejoin="round" filter-blend-mode="normal" stroke="#ffffff" shape-rendering="auto"/>
<path d="M486.116 440.674L460.789 390.056C457.466 384.001 451.005 379.829 443.584 379.829H427.044C423.832 379.829 421.21 382.487 421.21 385.736C421.21 388.985 423.832 391.57 427.044 391.57L443.584 391.496C446.353 391.496 449.454 393.379 450.636 396.111L474.486 444.698L486.116 440.674V440.674Z" mix-blend-mode="normal" solid-color="#000000" opacity="0.8" color-interpolation-filters="linearRGB" filter-gaussianBlur-deviation="0" color="#000000" image-rendering="auto" color-rendering="auto" stroke-width="32" isolation="auto" color-interpolation="sRGB" solid-opacity="1" fill="none" stroke-linejoin="round" filter-blend-mode="normal" stroke="#ffffff" shape-rendering="auto"/>
<path d="M47.8789 429.041V59.166H187.402C211.959 59.1664 230.714 60.3438 243.666 62.6982C261.831 65.7262 277.053 71.4871 289.332 79.981C301.611 88.4755 311.493 100.376 318.978 115.682C326.463 130.988 330.205 147.809 330.205 166.142C330.205 197.596 320.197 224.214 300.181 245.996C280.165 267.778 244.002 278.669 191.691 278.669H96.8256V429.041H47.8789ZM96.8256 235.021H192.448C224.07 235.021 246.525 229.134 259.813 217.36C273.101 205.586 279.745 189.018 279.745 167.656C279.745 152.182 275.834 138.936 268.013 127.918C260.191 116.902 249.889 109.627 237.106 106.094C228.864 103.908 213.641 102.815 191.439 102.814H96.8256V235.021Z" fill="#0092da"/>
<path d="M406.184 276.12C402.122 260.466 387.834 248.873 370.962 248.873C350.803 248.873 334.521 265.081 334.521 285.203C334.521 288.599 334.928 291.7 335.777 294.728H350.397C351.468 297.239 352.649 298.678 352.649 298.678C357.043 305.029 364.39 309.127 372.697 309.127C386.173 309.127 397.138 298.162 397.138 284.686C397.138 281.584 397.913 278.778 396.621 276.12H406.184Z" fill="#0092da"/>
<path d="M405.187 493.396C401.348 497.272 396.068 500.263 390.124 500.263L390.087 421.069L444.876 405.341L458.611 432.366L405.187 493.396H405.187Z" fill="#0092da"/>
<path d="M359.185 312.265C355.566 308.241 350.361 305.693 344.49 305.693C338.251 305.693 332.676 308.573 329.095 313.114L285.603 379.534C283.83 382.487 282.833 385.958 282.833 389.613C282.833 396.48 286.304 402.461 291.547 405.969L349.881 438.348V493.433C349.881 501.223 356.194 507.573 363.984 507.573C371.737 507.573 378.088 501.223 378.088 493.433V424.65C378.088 424.65 379.934 413.685 367.492 407.704L331.125 388.653L357.634 348.189L371.7 370.267C374.506 374.734 378.309 376.469 381.78 376.396L417.888 376.248C432.582 376.248 432.582 357.123 417.888 357.197H388.61L359.185 312.265Z" fill="#0092da"/>
<path d="M519.049 402.535C519.64 403.125 519.935 403.827 519.935 404.787C519.935 406.522 518.495 407.962 516.76 407.962C516.28 407.962 515.985 407.962 515.615 407.814C509.376 405.156 505.425 403.495 498.152 403.495C493.352 403.495 487.408 405.156 480.541 410.694L474.191 398.141C482.129 395.778 488.627 393.674 495.42 393.674C506.275 393.674 511.96 395.926 519.049 402.535Z" fill="#0092da"/>
<path d="M276.483 412.208L337.697 445.953L337.844 459.503L267.918 420.995C262.86 418.411 256.066 416.897 251.23 416.897C244.03 416.897 240.006 418.558 233.803 421.217C233.397 421.364 233.065 421.364 232.659 421.364C230.924 421.364 229.447 419.924 229.447 418.189C229.447 417.266 229.816 416.528 230.37 415.937C237.458 409.291 244.695 407.076 255.512 407.076C261.087 407.076 267.807 407.741 276.483 412.208Z" fill="#0092da"/>
<path d="M282.169 536.371C302.106 536.371 318.277 520.2 318.277 500.226C318.277 480.252 302.106 464.081 282.169 464.081C262.232 464.081 246.061 480.252 246.061 500.226C246.061 520.2 262.232 536.371 282.169 536.371ZM230.074 500.263C230.074 471.502 253.408 448.132 282.169 448.132C310.966 448.132 334.3 471.502 334.3 500.263C334.3 529.024 310.966 552.395 282.169 552.395C253.408 552.395 230.074 529.024 230.074 500.263Z" fill="#0092da"/>
<path d="M497.635 536.371C517.572 536.371 533.78 520.2 533.78 500.226C533.78 480.252 517.609 464.081 497.635 464.081C477.661 464.081 461.527 480.252 461.527 500.226C461.527 520.2 477.698 536.371 497.635 536.371ZM445.541 500.263C445.541 471.502 468.837 448.132 497.635 448.132C526.396 448.132 549.729 471.502 549.729 500.263C549.729 529.024 526.396 552.395 497.635 552.395C468.837 552.395 445.541 529.024 445.541 500.263Z" fill="#0092da"/>
<path d="M486.116 440.674L460.789 390.056C457.466 384.001 451.005 379.829 443.584 379.829H427.044C423.832 379.829 421.21 382.487 421.21 385.736C421.21 388.985 423.832 391.57 427.044 391.57L443.584 391.496C446.353 391.496 449.454 393.379 450.636 396.111L474.486 444.698L486.116 440.674V440.674Z" fill="#0092da"/>
</svg>
