<?xml version="1.0" encoding="utf-8"?><!-- Generator: Adobe Illustrator 16.0.3, SVG Export Plug-In . SVG Version: 6.00 Build 0)  --><!DOCTYPE svg PUBLIC
    "-//W3C//DTD SVG 1.1//EN" "http://www.w3.org/Graphics/SVG/1.1/DTD/svg11.dtd">
<svg version="1.1" xmlns="http://www.w3.org/2000/svg" xmlns:xlink="http://www.w3.org/1999/xlink" x="0px" y="0px"
	 width="515.667px" height="515.667px" viewBox="0 0 515.667 515.667" enable-background="new 0 0 515.667 515.667"
	 xml:space="preserve">
<g id="Ebene_2" display="none">
	<text transform="matrix(1 0 0 1 40.812 454.7539)" display="inline"><tspan x="0" y="0" fill="#97BF0D" font-family="'OfficinaSansStd-Bold'" font-size="97.4275">maps</tspan><tspan x="216.481" y="0" fill="#707072" font-family="'OfficinaSansStd-Bold'" font-size="97.4275">forge</tspan></text>
</g>
<g id="Ebene_11">
	<g>
		<path fill="#97BF0D" d="M110.278,453.39c0,1.072-0.195,1.364-1.364,1.364h-9.645c-1.169,0-1.364-0.292-1.364-1.364v-30.008
			c0-3.702-0.39-8.184-4.092-8.184c-4.092,0-7.307,2.825-8.574,3.995v34.196c0,1.072-0.195,1.364-1.364,1.364h-9.646
			c-1.169,0-1.364-0.292-1.364-1.364v-30.008c0-3.702-0.39-8.184-4.092-8.184c-4.092,0-7.307,2.825-8.573,3.995v34.196
			c0,1.072-0.195,1.364-1.364,1.364h-9.645c-1.169,0-1.364-0.292-1.364-1.364v-29.423c0-13.737-1.851-12.958-1.851-15.198
			c0-0.487,0.39-0.877,1.072-1.072l7.404-2.436c0.585-0.194,1.072-0.292,1.461-0.292c1.267,0,2.046,2.144,3.118,6.723
			c2.923-2.533,7.21-6.723,14.907-6.723c4.189,0,8.768,2.63,9.938,6.723c2.923-2.533,7.112-6.723,15.101-6.723
			c9.158,0,11.302,6.917,11.302,15.394V453.39z"/>
		<path fill="#97BF0D" d="M151.392,456.021c-0.39,0.098-0.877,0.39-1.267,0.39c-0.877,0-2.338-3.41-2.826-5.846
			c-1.948,1.948-5.358,5.846-12.666,5.846c-8.963,0-14.614-5.846-14.614-15.004c0-16.465,17.731-16.465,25.428-16.465v-3.021
			c0-4.384-0.779-7.21-6.917-7.21c-5.456,0-10.814,2.923-12.081,2.923c-0.487,0-0.877-0.584-0.975-0.974l-1.948-5.943
			c-0.195-0.39-0.292-0.779-0.292-1.169c0-2.241,9.646-4.579,17.147-4.579c12.178,0,16.757,5.553,16.757,15.686v18.804
			c0,9.45,2.533,10.717,2.533,12.665c0,0.39-0.39,0.683-0.877,0.877L151.392,456.021z M145.449,432.93
			c-2.436,0-13.737-0.779-13.737,7.795c0,3.8,2.728,6.625,6.43,6.625c3.605,0,6.138-2.533,7.307-3.702V432.93z"/>
		<path fill="#97BF0D" d="M183.25,471.706c0,1.364-0.682,1.559-1.851,1.754l-8.184,1.656c-0.292,0.098-1.169,0.292-1.656,0.292
			s-0.682-0.39-0.682-2.046v-49.396c0-13.737-1.851-12.958-1.851-15.198c0-0.487,0.39-0.877,1.072-1.072l7.405-2.436
			c0.584-0.194,1.071-0.292,1.461-0.292c1.267,0,1.949,1.851,3.021,5.066c2.144-2.047,5.943-5.066,12.471-5.066
			c10.814,0,16.855,8.476,16.855,24.844c0,17.05-5.261,26.598-17.927,26.598c-5.651,0-8.086-1.461-10.132-2.533V471.706z
			 M183.25,444.816c1.753,0.975,3.313,1.851,7.112,1.851c6.82,0,8.573-4.871,8.573-16.367c0-10.035-1.851-15.589-7.892-15.589
			c-4.092,0-6.43,2.436-7.794,3.702V444.816z"/>
		<path fill="#97BF0D" d="M250.278,416.367c-0.195,0.487-0.682,0.877-0.779,0.877c-0.292,0-5.066-2.533-11.302-2.533
			c-3.702,0-6.43,1.364-6.43,4.677c0,5.261,8.769,4.871,15.686,9.45c3.799,2.533,6.527,6.235,6.527,11.887
			c0,8.963-6.333,15.686-16.66,15.686c-7.209,0-18.316-3.702-18.316-6.333c0-0.292,0.39-0.877,0.487-1.267l2.144-5.553
			c0.195-0.487,0.39-0.877,0.779-0.877s7.892,4.286,13.932,4.286c3.215,0,5.943-1.363,5.943-4.871c0-5.65-9.548-5.65-15.978-9.938
			c-2.923-1.948-5.748-5.358-5.748-11.009c0-8.866,6.723-15.881,17.245-15.881c5.943,0,15.199,2.533,15.199,4.773
			c0,0.293-0.292,0.877-0.487,1.267L250.278,416.367z"/>
		<path fill="#707072" d="M280.091,452.708c0,1.754-0.39,2.046-2.046,2.046h-8.281c-1.656,0-2.046-0.292-2.046-2.046v-37.022h-6.917
			c-1.656,0-2.047-0.292-2.047-2.046v-4.969c0-1.754,0.391-2.046,2.047-2.046h6.917v-3.995c0-10.717,3.897-18.413,15.588-18.413
			c4.385,0,11.887,1.559,11.887,3.507c0,0.293-0.098,0.585-0.195,0.877l-1.753,6.82c-0.098,0.39-0.487,0.974-0.877,0.974
			c-1.072,0-3.118-1.656-6.82-1.656c-5.261,0-5.456,3.216-5.456,7.892v3.995h11.106c0.877,0,1.656,0.194,1.656,0.974
			c0,0.39-0.097,0.585-0.194,0.975l-1.364,5.748c-0.292,1.267-0.877,1.364-1.851,1.364h-9.354V452.708z"/>
		<path fill="#707072" d="M316.821,456.41c-13.152,0-21.142-10.035-21.142-25.721s7.989-25.721,21.142-25.721
			c13.056,0,21.142,10.035,21.142,25.721S329.975,456.41,316.821,456.41z M324.811,430.689c0-9.061-1.267-15.979-7.989-15.979
			s-7.988,6.918-7.988,15.979s1.169,15.978,7.988,15.978C323.642,446.667,324.811,439.848,324.811,430.689z"/>
		<path fill="#707072" d="M361.346,453.39c0,1.072-0.195,1.364-1.364,1.364h-9.646c-1.169,0-1.363-0.292-1.363-1.364v-29.423
			c0-10.717-2.533-12.471-2.533-14.712c0-0.39,0.39-0.682,0.877-0.876l7.404-3.021c0.39-0.098,0.877-0.39,1.267-0.39
			c1.169,0,3.117,4.384,3.604,7.696c1.852-2.24,5.456-7.696,12.081-7.696c2.825,0,5.65,0.974,5.65,2.24
			c0,0.39-0.097,0.779-0.194,0.975l-3.021,8.184c-0.098,0.293-0.39,0.877-0.779,0.877c-0.585,0-2.338-1.071-4.579-1.071
			c-3.021,0-6.138,3.313-7.404,4.677V453.39z"/>
		<path fill="#707072" d="M417.756,435.853c0,6.431,0.487,16.466,0.487,21.922c0,10.619-5.261,17.634-18.804,17.634
			c-7.599,0-20.167-3.117-20.167-5.163c0-0.683,0.098-1.072,0.39-1.949l1.852-5.942c0.194-0.683,0.584-0.975,1.071-0.975
			c1.169,0,7.112,3.8,15.783,3.8c6.82,0,7.989-2.825,7.989-8.281c0-3.41-0.292-5.748-0.292-6.431
			c-1.462,0.975-5.164,3.702-11.789,3.702c-10.912,0-16.66-9.158-16.66-23.771c0-15.687,6.82-25.429,18.414-25.429
			c6.917,0,9.742,3.02,11.594,4.579c0.292-0.877,2.046-4.579,3.41-4.579c0.292,0,0.682,0.098,0.974,0.194l7.6,2.825
			c0.39,0.195,0.877,0.487,0.877,0.877c0,1.267-2.729,4.774-2.729,12.471V435.853z M406.065,418.121
			c-1.267-0.975-3.313-2.923-7.697-2.923c-5.846,0-8.379,5.456-8.379,14.81c0,8.865,1.949,14.419,7.794,14.419
			c4.969,0,7.308-2.436,8.282-3.313V418.121z"/>
		<path fill="#707072" d="M466.373,449.59c0.194,0.293,0.292,0.683,0.292,1.072c0,2.533-9.743,5.748-17.439,5.748
			c-12.86,0-21.824-7.307-21.824-25.233c0-15.491,8.281-26.208,21.337-26.208c16.563,0,19.485,14.809,19.485,26.598
			c0,1.851-0.39,2.436-2.24,2.436h-26.208c0,5.456,1.559,12.179,10.717,12.179c7.015,0,11.009-3.216,12.373-3.216
			c0.487,0,0.877,0.39,1.072,0.779L466.373,449.59z M455.071,424.941c0-3.995-0.292-10.912-7.015-10.912
			c-7.6,0-7.989,8.184-8.281,10.912H455.071z"/>
	</g>
</g>
<g id="Ebene_10">
	<g>
		<path fill-rule="evenodd" clip-rule="evenodd" fill="#707072" d="M121.25,51.267c0,0,5.583,58,4.625,85.229
			c-0.397,11.281-4.188,42.375-21.813,42.375c-18.979,0-21.146-22.813-44.438-22.813c-13.875,0-37.625,9.042-37.625,48.75
			c0,30.375,19.25,45.375,34.625,45.375c22.875,0,19.625-18,43.875-18c23.917,0,24.875,22.375,24.875,34.75s-3.042,47-8.875,82
			c4.417,0.667,11.51,1.468,23.25,5.125c15.917,4.959,28.125,8.875,53.625,8.875S233,353.309,233,342.309
			c0-17.041-15.625-14.25-15.625-34.75s20.625-30,41.25-30s41.459,9.959,41.459,34.875c0,22.5-13.084,17.125-13.084,35.75
			s22.375,18.125,28,18.125s61.5-1.832,87-7.041c-1-13.25-4.583-66.542-4.583-82.917c0-21.667,10.083-23.792,15.458-23.792
			c16.125,0,16.875,12.292,39.625,12.292c20.584,0,40.625-19.75,40.625-49.792c0-27.125-19-38.75-34.625-38.75
			s-20.875,13.5-47.75,13.5c-9.499,0-15.833-3.792-15.833-22.292c0-37.275,4.167-74.417,4.333-109.583
			c-18.666-2.75-66.625-10-93.125-10c-24.208,0-25.958,10.125-25.958,16.75c0,17.083,23.5,22.167,23.5,38.5
			c0,29.917-23.792,37.75-43.292,37.75c-17.042,0-42.458-15.583-42.458-40.083c0-12.042,3.374-15.688,6.844-19.159
			c5.189-5.189,11.177-8.299,11.177-16.508c0-14.25-14.396-16.667-31.271-16.667S121.25,51.267,121.25,51.267z"/>
		<g opacity="0.2">
			<path fill="#FFFFFF" d="M306.125,47.934c26.5,0,74.459,7.25,93.125,10c-0.166,35.167-4.333,72.309-4.333,109.583
				c0,18.5,6.334,22.292,15.833,22.292c26.875,0,32.125-13.5,47.75-13.5s34.625,11.625,34.625,38.75
				c0,30.042-20.041,49.792-40.625,49.792c-22.75,0-23.5-12.292-39.625-12.292c-5.375,0-15.458,2.125-15.458,23.792
				c0,16.375,3.583,69.667,4.583,82.917c-25.5,5.209-81.375,7.041-87,7.041c-0.287,0-0.616,0.001-0.985,0.001
				c-6.862,0-27.015-0.45-27.015-18.126c0-18.625,13.084-13.25,13.084-35.75c0-24.916-20.834-34.875-41.459-34.875
				s-41.25,9.5-41.25,30S233,325.268,233,342.309c0,11-14.125,20.625-39.625,20.625s-37.708-3.916-53.625-8.875
				c-11.74-3.657-18.833-4.458-23.25-5.125c5.833-35,8.875-69.625,8.875-82s-0.958-34.75-24.875-34.75c-24.25,0-21,18-43.875,18
				c-15.375,0-34.625-15-34.625-45.375c0-39.708,23.75-48.75,37.625-48.75c23.292,0,25.458,22.813,44.438,22.813
				c17.625,0,21.416-31.094,21.813-42.375c0.958-27.229-4.625-85.229-4.625-85.229s66.542-2.75,83.417-2.75
				s31.271,2.417,31.271,16.667c0,8.208-5.988,11.319-11.177,16.508c-3.47,3.47-6.844,7.117-6.844,19.159
				c0,24.5,25.417,40.083,42.458,40.083c19.5,0,43.292-7.833,43.292-37.75c0-16.333-23.5-21.417-23.5-38.5
				C280.167,58.059,281.917,47.934,306.125,47.934 M306.125,47.434c-23.451,0-26.458,9.219-26.458,17.25
				c0,8.856,6.155,14.563,12.107,20.082c5.859,5.431,11.393,10.562,11.393,18.418c0,33.62-29.926,37.25-42.792,37.25
				c-8.763,0-19.225-4.116-27.303-10.741c-9.451-7.751-14.655-17.994-14.655-28.843c0-12.108,3.405-15.513,6.697-18.805
				c1.085-1.085,2.216-2.088,3.309-3.057c4.122-3.654,8.014-7.105,8.014-13.805c0-15.127-16.06-17.167-31.771-17.167
				c-16.692,0-82.772,2.723-83.438,2.75l-0.528,0.022l0.051,0.525c0.056,0.58,5.569,58.279,4.623,85.164
				c-0.548,15.56-5.653,41.893-21.313,41.893c-8.799,0-13.929-5.046-19.36-10.388c-6.209-6.108-12.631-12.424-25.077-12.424
				c-4.252,0-15.137,0.938-24.358,9.621c-9.135,8.602-13.767,21.935-13.767,39.629c0,17.628,6.348,28.443,11.674,34.411
				c6.406,7.178,15.172,11.464,23.451,11.464c11.46,0,16.58-4.539,21.531-8.929c5.03-4.46,10.231-9.071,22.344-9.071
				c24.375,0,24.375,24.001,24.375,34.25c0,11.578-2.818,45.62-8.868,81.918l-0.083,0.501l0.502,0.075
				c0.462,0.07,0.953,0.141,1.475,0.217c4.47,0.648,11.224,1.628,21.701,4.892l0.657,0.205c15.583,4.856,27.893,8.692,53.116,8.692
				c12.11,0,22.353-2.162,29.62-6.252c6.774-3.813,10.505-9.095,10.505-14.873c0-8.332-3.602-11.997-7.415-15.877
				c-4.036-4.107-8.21-8.354-8.21-18.873c0-20.378,20.467-29.5,40.75-29.5c18.895,0,40.959,9.003,40.959,34.375
				c0,11.595-3.499,15.632-6.883,19.536c-3.189,3.679-6.201,7.154-6.201,16.214c0,7.78,3.785,13.217,11.251,16.156
				c5.62,2.214,11.974,2.47,16.264,2.47h0.556l0.43-0.001c4.45,0,60.859-1.69,87.1-7.051l0.433-0.089l-0.033-0.439
				c-0.933-12.355-4.582-66.493-4.582-82.879c0-15.455,5.032-23.292,14.958-23.292c7.229,0,11.383,2.565,15.781,5.282
				c5.32,3.285,11.351,7.01,23.844,7.01c10.402,0,20.757-5.03,28.408-13.802c8.2-9.4,12.717-22.359,12.717-36.49
				c0-12.433-4.015-22.776-11.61-29.911c-6.318-5.935-14.889-9.339-23.515-9.339c-6.883,0-11.699,2.526-17.277,5.451
				c-7.193,3.772-15.348,8.049-30.473,8.049c-9.203,0-15.333-3.706-15.333-21.792c0-19.29,1.127-38.725,2.218-57.52
				c1.047-18.047,2.035-35.093,2.115-52.061l0.002-0.434l-0.429-0.063l-2.424-0.358C377.354,54.194,331.582,47.434,306.125,47.434
				L306.125,47.434z"/>
		</g>
	</g>
</g>
<g id="Ebene_5">
	<g>
		<path fill="#97BF0D" d="M395.245,253.01c0.27-2.734-1.364-4.583-2.831-6.501c-0.643-0.837-0.606-1.452,0.162-2.073
			c0.88-0.711,0.844-1.509,0.482-2.506c-0.715-1.979-2.06-3.534-3.194-5.245c-1.343-2.02-4.088-3.735-1.971-6.807
			c0.355-0.521-0.047-1.575,0.895-1.651c0.905-0.076,1.12,0.885,1.506,1.481c0.822,1.282,1.776,2.069,3.413,1.449
			c0.447-0.17,0.986-0.105,1.486-0.123c2.223-0.085,3.834-1.387,4.581-3.714c0.781-2.433,0.243-4.502-1.638-5.825
			c-0.829-0.585-1.577-1.234-2.206-2.006c-0.526-0.649-0.57-1.421,0.026-2.053c0.764-0.809,1.572-1.801,2.771-1.667
			c1.067,0.119,0.596,1.198,0.631,1.873c0.053,0.986,0.102,2.088,1.328,2.067c1.078-0.018,1.176-1.115,1.259-1.996
			c0.065-0.667-0.19-1.583,0.591-1.832c1.602-0.506,3.017-1.452,4.721-1.727c3.568-0.578,6.23-2.42,7.514-5.924
			c0.513-1.4,0.97-2.759,2-3.952c0.898-1.036,1.096-2.398,0.619-3.877c-0.684-2.116-1.891-3.933-2.976-5.818
			c-0.672-1.167-0.411-1.793,0.698-2.395c0.892-0.484,2.155-0.442,2.563-1.674c0.036-0.189,0.073-0.378,0.111-0.566l-0.072-0.469
			c-2.151,0.212-4.464,0.33-6.964,0.33c-9.499,0-15.833-3.792-15.833-22.292c0-30.716,2.825-61.339,3.913-90.843
			c-0.46,0.064-0.874,0.121-0.963,0.128c-0.47-0.294-0.94-0.588-1.411-0.884c0,0,0-0.001,0-0.002
			c0.058-0.489-0.028-1.056,0.194-1.453c0.946-1.695,1.038-3.355,0.054-5.048c-2.23-0.616-3.424,0.834-4.688,2.271
			c-1.483,1.685-2.778,3.506-3.937,5.409c-1.495,2.457-3.806,2.363-6.136,2.094c-1.677-0.194-3.182-0.268-4.436,1.181
			c-0.457,0.527-1.168,0.904-1.932,1.087c-1.788,0.426-2.865,1.688-3.595,3.281c-1.695,3.702-4.016,6.812-7.915,8.439
			c-1.142,0.476-1.568,1.31-1.48,2.523c0.071,0.934,0.019,1.876,0.014,2.813c-0.003,0.704-0.375,1.203-0.983,1.469
			c-0.638,0.277-1.091-0.16-1.443-0.598c-0.817-1.014-1.542-2.104-2.392-3.087c-0.948-1.094-2.078-1.407-3.237-0.29
			c-0.608,0.586-1.175,0.62-2.014,0.495c-1.468-0.221-2.985-0.133-4.483-0.139c-0.972-0.003-1.369,0.729-1.764,1.465
			c-1.084,2.025-1.889,4.18-3.273,6.076c-0.814,1.118-0.225,2.679-0.28,4.038c-0.085,1.994-0.342,2.18-2.229,1.416
			c-0.345-0.141-0.712-0.234-1.057-0.376c-0.874-0.363-1.669-0.719-0.754-1.875c0.437-0.555,0.275-1.274-0.313-1.663
			c-2.787-1.85-1.819-4.563-1.438-6.96c0.432-2.694,1.952-4.966,3.892-6.912c0.308-0.309,0.626-0.617,0.885-0.966
			c0.675-0.903,0.771-1.873,0.015-2.751c-0.784-0.909-1.727-0.555-2.543-0.042c-3.302,2.081-5.45,5.022-6.607,8.762
			c-0.904,2.933-0.754,5.919-0.738,8.908c0.006,1.373,1.094,1.848,2.088,2.383c0.857,0.463,1.998,0.708,1.983,1.975
			c-0.016,1.252-1.144,1.501-2.003,1.97c-0.382,0.208-0.813,0.384-1.11,0.683c-1.578,1.589-3.274,1.396-4.913,0.242
			c-1.076-0.755-1.879-0.753-2.766,0.224c-0.363,0.402-0.887,0.697-1.387,0.931c-1.931,0.897-3.804,1.859-5.13,3.611
			c-0.184,0.243-0.398,0.577-0.749,0.408c-0.455-0.22-0.234-0.611-0.133-0.966c0.717-2.45-1.293-4.758-3.863-4.45
			c-1.271,0.153-2.114,1.469-1.835,2.972c0.229,1.219,0.497,2.436,0.826,3.63c0.189,0.681,0.265,1.296-0.508,1.546
			c-0.79,0.256-1.138-0.371-1.339-0.979c-0.227-0.706-0.333-1.449-0.531-2.166c-0.167-0.594-6.02-5.959-6.647-6.133
			c-0.06-0.017-0.123-0.011-0.187-0.016c-0.027,0.077-0.272,0.04-0.628-0.056c-2.24,13.227-10.033,20.992-19.579,25.231
			c-0.134,0.21-0.271,0.386-0.424,0.473c-0.581,1.232-0.374,2.27,0.764,3.075c0.605,0.428,1.185,0.897,1.824,1.266
			c0.628,0.362,0.971,0.852,0.712,1.519c-0.448,1.148-0.262,2.321-0.283,3.488c-0.018,1.127-0.122,2.087-1.679,1.482
			c-0.624-0.242-1.073,0.063-1.354,0.64c-0.479,0.394-0.692,0.923-0.764,1.522c-0.405,0.276-0.357,0.698-0.354,1.105
			c-0.293,1.102-0.544,2.227-1.521,2.979c-0.63,0.21-1.316,0.288-1.833,0.767c-0.633,0.015-1.266,0.028-1.899,0.043
			c-0.752,0.047-1.561-0.29-2.229,0.33c-0.258,0.017-0.517,0.034-0.773,0.052c-1.367-0.091-2.762,0.106-4.096-0.376
			c-0.374-0.264-0.75-0.529-1.124-0.793c0.005-1.05,0.047-2.101,0.007-3.148c-0.034-0.879,0.341-1.905-0.738-2.483l-0.009-0.012
			c-0.522-0.892-1.046-0.833-1.568,0c-0.125,0.125-0.248,0.249-0.369,0.373c-0.546,0.857-2.334,1.323-1.568,2.526
			c1.357,2.128,1.679,3.915-0.344,5.709c-0.738,0.05-1.474,0.101-2.209,0.15c-0.101,0.088-0.204,0.176-0.304,0.263
			c-1.127,0.703-1.632,1.874-2.06,3.022c-0.33,0.881-0.942,1.505-1.604,1.995c-0.582,0.433-1.634,0.576-1.54-0.658
			c0.218-2.816-1.361-4.965-2.783-7.007c-1.056-1.522-1.577-3.261-2.023-4.825c-0.465-1.629-1.241-3.077-1.824-4.612
			c-0.494-1.305-2.2-1.399-2.564-0.149c-0.563,1.94-2.404,3.871-0.557,6.078c0.326,0.388,0.471,0.952,0.118,1.393
			c-0.373,0.464-0.901,0.258-1.384,0.104c-1.403-0.449-2.569-0.058-3.553,1.001c-0.644,0.694-1.375,1.243-2.32,1.503
			c-0.761,0.21-1.121,0.898-0.533,1.396c1.293,1.095,1.226,2.465,1.235,3.912c0.007,1.374,0.875,1.867,2.136,1.65
			c1.186-0.204,2.209-0.808,3.191-1.489c0.438-0.304,0.883-0.917,1.469-0.501c0.593,0.422,0.376,1.156,0.228,1.733
			c-0.119,0.466-0.396,0.926-0.71,1.297c-0.512,0.601-1.05,1.214-0.458,1.967c0.551,0.703,1.344,0.427,2.074,0.21
			c1.668-0.497,3.267-1.223,5.022-1.431c0.464-0.054,0.917-0.174,1.112,0.337c0.25,0.645-0.291,0.917-0.747,1.073
			c-1.177,0.403-2.385,0.704-3.56,1.105c-0.834,0.283-1.658,0.655-1.857,1.657c-0.22,1.114,0.495,1.762,1.295,2.279
			c1.159,0.75,2.042,1.64,2.085,3.115c0.1,0.625,0.201,1.251,0.303,1.876c0.085,0.67-0.076,1.23-0.715,1.571
			c-1.698,0.635-3.419,0.42-5.122,0.081c-3.549-0.709-5.808,1.404-4.804,4.8c0.252,0.85,0.453,1.883,0.045,2.57
			c-1.296,2.195-0.223,3.93,0.754,5.763c0.588,1.104,1.37,1.447,2.611,1.203c1.58-0.311,3.191-0.525,4.799-0.613
			c1.791-0.1,3.387-0.7,3.786-2.469c0.897-3.999,5-5.124,6.939-8.147c0.125-0.193,0.572-0.28,0.856-0.257
			c1.416,0.117,2.716-0.173,3.941-0.901c0.344-0.204,1.15-0.364,1,0.173c-0.396,1.402,1.271,3.163-0.743,4.266
			c-0.225,0.123-0.328,0.525-0.422,0.819c-0.226,0.69-0.196,1.344,0.356,1.908c0.617,0.629,1.387,0.586,2.101,0.378
			c0.7-0.207,1.074-0.779,1.115-1.563c0.047-0.906-0.095-1.74-0.661-2.471c-0.274-0.352-0.58-0.718-0.156-1.143
			c0.452-0.456,1.102-0.597,1.523-0.173c1.755,1.765,4.297,2.564,5.719,4.718c0.127,1.577-0.937,1.574-2.033,1.545
			c-0.586-0.015-1.112,0.119-1.267,0.782c-0.128,0.543-0.007,0.973,0.646,1.054c0.374,0.375,0.747,0.748,1.122,1.123
			c0.268,1.004,0.767,0.64,1.368,0.29c1.479-0.863,2.327-2.339,3.497-3.499c0.931-0.92,1.823-1.353,2.4,0.368
			c0.153,0.45,0.376,0.944,1.004,0.944c0.01,0.337,0.105,0.618,0.459,0.743c0.122,1.08,0.773,1.651,1.789,1.877
			c0.542,0.06,1.112,0.235,1.485-0.372c0.866-0.124,1.38-0.587,1.435-1.494c0.05-0.109,0.075-0.225,0.081-0.345
			c1.124-0.259,0.543-1.227,0.776-1.855c0.233-0.621,0.332-1.551,1.211-1.403c0.825,0.138,0.466,0.92,0.479,1.541
			c0.066,3.409,3.003,6.106,5.422,5.701c0.494,0,0.985-0.001,1.479-0.001c1.183,0.033,2.365,0.072,3.548,0.097
			c0.94,0.02,1.545,0.471,1.729,1.39c0.366,1.865-2.271,5.094-4.19,5.05c-2.802-0.063-5.673,1.639-8.41-0.336
			c-0.206-0.15-0.612-0.049-0.922-0.026c-1.289,0.093-2.509-0.204-3.581-0.871c-1.732-1.077-2.953-0.226-4.08,0.969
			c-0.418,0.445-0.684,1.037-1.018,1.561c-0.693,1.086-1.428,1.224-2.409,0.268c-0.741-0.723-1.271-1.733-2.404-1.996
			c0.031-0.577-0.5-0.748-0.79-1.094c-0.058-0.487-0.17-0.865-0.712-0.342c-0.25-0.014-0.5-0.029-0.751-0.044
			c-0.069-0.443-0.252-0.738-0.773-0.586c-0.375-0.051-0.749-0.104-1.125-0.156c-0.069-0.709-0.581-0.744-1.121-0.735
			c-0.167-0.254-0.336-0.508-0.504-0.763c0.125-0.897,0.084-1.806,0.379-2.697c0.175-0.527,0.31-1.27-0.639-1.39
			c-0.211-0.561-0.595-0.945-1.154-1.153c-0.08-0.842-0.753-0.817-1.265-0.708c-2.718,0.573-5.501,0.055-8.189,0.479
			c-1.339,0.21-3.078-0.258-4.02,1.329c-0.479,0.125-1.028,0.142-1.43,0.394c-2.17,1.363-4.457,1.729-6.95,1.11
			c-0.734-0.182-1.686-0.05-1.97,0.73c-0.892,2.455-3.495,3.992-3.62,6.854c-0.012,0.304-0.388,0.63-0.654,0.881
			c-1.637,1.539-3.124,3.223-4.88,4.653c-1.271,1.034-2.804,2.057-2.89,3.958c-0.044,0.981-0.428,1.693-1.157,2.229
			c-1.583,1.164-1.662,2.628-1.401,4.471c0.224,1.584,1.093,3.239,0.144,4.899c-1.486,2.598-1.531,4.197,0.425,6.269
			c3.04,3.22,5.598,6.839,8.698,10.015c1.951,1.999,3.984,2.363,6.437,1.544c1.589-0.529,3.325-0.772,4.784-0.202
			c1.522,0.592,2.596,0.267,3.839-0.416c1.879-1.035,3.739-1.329,5.552,0.243c1.037,0.898,2.364,1.055,3.688,1.119
			c0.681,0.033,1.356,0.002,2.035,0.222c1.315,0.428,1.845,0.965,0.748,2.238c-1.276,1.479-1.737,3.221-0.835,5.042
			c1.07,2.166,2.284,4.256,3.438,6.381c-0.146,1.139,0.406,1.99,1.019,2.895c1.348,1.982,2.084,3.986,0.695,6.42
			c-2.215,3.873-2.867,7.908-0.421,12.027c0.396,0.666,0.609,1.508,0.518,2.35c0.061,0.101,0.093,0.515,0.127,0.91
			c9.334,1.684,17.913,5.714,23.632,12.591c1.953-2.098,4.527-4.729,5.152-7.411c0.078-0.334,0.328-0.768,0.615-0.895
			c2.015-0.887,2.011-2.559,1.955-4.396c-0.042-1.336-0.6-2.93,0.416-3.988c1.571-1.639,2.864-3.666,5.222-4.43
			c0.906-0.293,1.44-1.135,1.438-2.033c-0.003-2.723,0.029-5.447-1.078-8.059c-0.736-1.742-1.889-3.473-1.329-5.512
			c1.012-3.684,3.529-6.376,6.347-8.699c4.241-3.492,7.349-7.759,9.536-12.734c0.468-1.064,1.016-2.424,0.094-3.361
			c-0.881-0.892-2.23-0.408-3.39-0.198c-2.078,0.375-4.074,1.239-6.255,0.964c-0.619-0.079-1.297,0.007-1.547-0.758
			c-0.16-0.489,0.151-0.833,0.474-1.14c0.523-0.5,1.115-0.563,1.703-0.15c1.256,0.882,2.455,0.532,3.704-0.043
			c2.689-1.235,4.832-3.48,7.511-4.545c3.006-1.196,5.583-2.71,7.717-5.119c0.824-0.927,1.818-1.699,2.481-2.784
			c0.576-0.942,0.509-1.766-0.324-2.506c-0.862-0.765-1.91-1.567-2.998-1.291c-2.36,0.596-4.565,0.393-6.769-0.496
			c-1.232-0.752-1.778-2.005-2.401-3.22c-0.799-1.56-1.644-3.083-3.706-3.277c-0.535-0.051-1.126-0.374-1.003-1.108
			c0.112-0.667,0.701-0.815,1.255-0.922c1.754-0.34,2.952,0.58,4.035,1.787c1.752,1.952,3.695,3.528,6.574,3.108
			c1.387,1.82,3.553,2.433,5.411,3.527c0.933,0.549,1.757,0.518,2.589-0.14c1.456-1.15,2.98-1.109,4.546-0.249
			c1.093,0.6,2.167,1.24,3.279,1.803c0.834,0.424,1.235,0.898,0.901,1.922c-0.421,1.295,0.414,2.246,1.511,2.317
			c2.31,0.154,2.661,1.596,2.827,3.406c0.438,4.79,2.622,8.883,5.258,12.771c0.958,1.414,2.22,1.564,3.504,0.451
			c2.075-1.797,3.028-4.201,2.697-6.847c-0.185-1.468,0.279-2.162,1.298-2.95c2.512-1.947,5.348-3.653,7.11-6.301
			c1.5-2.249,3.685-2.021,5.714-2.513c0.514-0.122,1.061,0.34,1.373,0.847c1.201,1.942,2.755,3.683,2.801,6.206
			c0.026,1.369,0.831,2.336,2.45,2.182c2.279-0.218,3.467,0.926,2.927,3.167c-1.109,4.619-0.865,8.794,3.088,12.077
			c0.14,0.113,0.225,0.302,0.303,0.47c0.218,0.459,1.142,0.813,0.575,1.356c-0.648,0.621-1.244-0.068-1.731-0.548
			c-0.845-0.833-1.637-1.722-2.521-2.513c-0.768-0.687-1.776-0.898-2.552-0.19c-0.739,0.675,0.067,1.422,0.429,1.98
			c0.777,1.194,1.854,2.162,2.623,3.394c1.781,2.854,3.684,5.635,5.513,8.46c0.285,0.439,0.637,0.742,1.083,0.994
			c3.024,1.701,5.591,4.385,9.429,4.33c0.154-0.003,0.786,0.145,1.271,0.271c0.904-1.166,1.887-2.069,2.9-2.762
			c-2.412-0.8-5.722-0.825-8.075-0.843C396.182,253.939,395.132,254.152,395.245,253.01z M248.805,156.258
			c-0.096,0.88-0.293,1.806-1.396,1.905c-0.906,0.083-1.133-0.578-1.123-1.282c-0.016-1.051,0.322-1.827,1.385-1.94
			C248.563,154.847,248.89,155.466,248.805,156.258z M278.5,183.979c-1.053-1.027-2.092-2.066-3.13-3.11
			c-0.483-0.488-0.973-0.948-1.739-0.85c-0.247-0.25-0.495-0.501-0.743-0.753c0.351-0.585-1.271-1.963,0.752-1.878
			c0.746,0.499,1.49,0.997,2.234,1.497c0.055,0.468,0.283,0.734,0.789,0.681c0.894,0.896,1.788,1.79,2.682,2.686
			c-0.054,0.5,0.206,0.726,0.677,0.765c-0.011,0.125,0.012,0.247,0.067,0.36C279.978,184.677,279.443,184.899,278.5,183.979z
			 M306.382,124.542c0.772,0.064,0.986,0.608,0.967,1.295c-0.011,0.606-0.189,1.176-0.888,1.13c-0.756-0.049-1.198-0.584-1.228-1.35
			C305.205,124.858,305.642,124.48,306.382,124.542z M298.622,181.036c-1.105,0.415-2.201,0.91-3.346,1.158
			c-1.928,0.416-3.074-0.921-2.329-2.758c0.518-1.279,1.015-2.484,1.021-3.918c0.006-1.313,1.186-1.391,2.208-1.519
			c1.655,0.315,3.526,0.159,4.188,2.368c0.243,0.808,1.115,1.118,1.908,1.371c1.759,0.561,3.274,1.5,4.473,2.926
			c0.312,0.373,0.803,0.709,0.497,1.279c-0.255,0.475-0.814,0.404-1.18,0.28c-1.432-0.484-3.057-0.002-4.398-1.194
			C300.896,180.35,299.653,180.648,298.622,181.036z M308.689,226.039c-0.216-1.417-1.541-2.061-2.229-3.166
			c-1.669-2.678-2.622-5.65-3.765-8.534c-0.761-1.919-1.616-3.776-2.51-5.629c-0.268-0.559-1.051-1.24-0.216-1.79
			c0.787-0.521,1.161,0.446,1.633,0.858c1.146,1.004,1.914,2.285,2.576,3.639c2.098,4.293,4.193,8.584,6.291,12.877
			C310.397,225.41,310.817,227.026,308.689,226.039z M320.188,187.722c-0.126-0.856-0.042-1.741-0.074-2.613
			c-0.019-0.535,0.142-1.179-0.662-1.329c-0.021-0.642-0.04-1.284-0.061-1.925c0.645-0.578,0.003-1.032-0.22-1.431
			c-0.921-1.646-1.42-3.379-1.349-5.269c0.349-0.48,0.573-1.084,1.24-1.248c1.357-0.21,2.657-1.011,4.094-0.4
			c0.17,0.172,0.339,0.345,0.51,0.518c-0.184,0.862-0.98,0.86-1.588,1.082c-0.999,0.366-2.098,0.635-2.213,1.938
			c-0.118,1.331,0.059,2.595,1.393,3.349c0.056,0.972,0.976,1.448,1.299,2.267c0.106,0.08,0.268,0.164,0.383,0.247
			c-0.115-0.083-0.278-0.167-0.385-0.248c-0.031,0.987-0.213,2-0.058,2.958c0.228,1.399,0.197,2.991,1.74,3.818
			c0.004,0.226,0.008,0.454,0.01,0.681C321.881,190.938,320.552,190.18,320.188,187.722z M352.78,101.823
			c-0.612,0.174-0.675-0.389-0.667-0.843c0.014-0.862,0.467-1.413,1.299-1.583c0.498-0.101,0.849,0.131,0.856,0.836
			C354.135,100.99,353.593,101.591,352.78,101.823z M360.394,121.037c-0.835-0.154-1.857-0.271-1.896-1.619
			c-0.02-0.702,0.247-1.289,1.025-1.225c1.093,0.091,2.082,0.504,2.215,1.779C361.819,120.747,361.264,121.034,360.394,121.037z"/>
		<path fill="#97BF0D" d="M93.814,179.34c-1.706,2.358-1.584,4.791-0.422,7.328c0.216,0.472,0.128,1.095,0.14,1.648
			c0.012,0.53,0.087,0.992,0.696,1.146c0.023,0.223,0.048,0.447,0.073,0.67c-0.035,0.501,0.233,0.733,0.7,0.789
			c-0.002,0.117,0.018,0.229,0.06,0.339c-0.044,0.5,0.223,0.731,0.686,0.794c-0.004,0.116,0.017,0.228,0.064,0.333
			c-0.04,0.496,0.225,0.727,0.685,0.79c0.569,2.03,1.965,3.703,3.591,4.625c2.341,1.328,3.17,3.387,4.038,5.57
			c1.73,4.352,4.99,7.726,7.404,11.64c0.451,0.729,1.259,0.854,2,0.491c0.891-0.437,0.428-1.17,0.221-1.796
			c-0.615-1.875-1.808-3.399-2.975-4.946c-0.789-1.042-1.545-2.111-2.262-3.205c-0.258-0.391-0.66-1.014-0.107-1.325
			c0.593-0.332,0.803,0.369,1.015,0.795c0.272,0.549,0.338,1.176,0.827,1.649c1.913,1.851,3.758,3.762,5.54,5.752
			c1.688,1.886,2.903,3.789,3.343,6.305c0.237,1.353,0.563,3.116,2.124,3.514c3.487,0.885,6.537,3.077,10.114,3.488
			c2.978,0.343,5.79,0.759,7.92,3.107c0-0.002,0.119,0.026,0.119,0.026l0.124-0.005c0.434,0.831,1.238,0.878,2.029,0.952
			c1.653,0.549,2.838,1.668,3.763,3.104c0,1.154,0.038,2.284,1.476,2.626c0.127,0.295,0.373,0.398,0.672,0.418
			c0.92,1.305,2.401,1.334,3.756,1.596c1.092,0.211,2.289,0.851,3.188-0.445c0.333-0.055,0.662-0.109,0.994-0.163
			c0.863,0.201,1.09,0.786,1.195,1.62c0.182,1.473-0.4,2.768-0.726,4.125c-0.034,0.227-0.071,0.454-0.106,0.681
			c-1.02,0.439-1.209,1.381-1.407,2.319c-0.445,1.549-1.806,2.344-2.823,3.421c-1.604,1.693-1.741,5.729-0.293,7.542
			c1.949,2.449,3.878,4.975,4.717,8.018c1.028,3.723,2.847,6.557,6.74,7.699c0.459,0.135,0.854,0.514,1.254,0.809
			c1.115,0.836,1.771,1.881,1.688,3.352c-0.066,1.184,0.026,2.375-0.001,3.563c-0.102,4.77,0.383,9.613-1.738,14.137
			c-0.151,0.324-0.15,0.732-0.174,1.105c-0.282,4.342-0.523,8.686-2.435,12.725c-0.496,1.051-0.275,2.07,0.717,2.842
			c0.463,0.359,0.862,0.861,0.45,1.445c-0.869,1.23-0.656,2.893-1.749,4.055c-0.528,0.561-0.446,1.365-0.066,2.113
			c1.585,3.117,1.051,6.018-0.965,8.746c-0.563,0.758-1.133,1.564-1.134,2.521c-0.001,2.561-0.542,5.078-0.454,7.652
			c0.146,4.271,1.943,6.373,6.126,6.85c1.311,0.148,1.753,0.951,1.127,2.051c-1.432,2.514-0.319,4.348,2.641,4.352
			c1.625,0.006,3.253,0.063,4.874-0.021c0.921-0.049,2.165,0.551,2.67-0.695c0.541-1.332-0.38-2.242-1.318-3.023
			c-0.427-0.354-0.907-0.66-1.399-0.92c-4.346-2.287-5.139-7.1-1.722-10.518c0.221-0.223,0.442-0.443,0.662-0.664
			c2.563-2.588,2.61-3.379,0.144-5.979c-0.701-0.736-0.833-1.258-0.063-2.02c1.855-1.828,2.749-4.287,4.099-6.451
			c0.457-0.732,0.617-1.471-0.071-2.225c-0.997-1.094-0.375-1.523,0.767-1.617c1.008-0.078,1.805-0.648,1.868-1.541
			c0.142-2.051,1.452-2.137,2.995-2.221c3.324-0.176,5.661-3.232,4.886-6.424c-0.296-1.219,0.276-1.527,1.219-1.477
			c1.463,0.084,2.464-0.604,3.424-1.592c1.101-1.137,2.03-2.373,2.694-3.801c1.525-3.277,2.92-6.629,4.58-9.838
			c1.802-3.486,4.638-5.836,8.373-7.248c2.516-0.951,4.089-3.074,5.102-5.561c1.271-0.906,1.198-2.379,1.39-3.652
			c0.419-2.809,0.519-5.668,2.485-7.994c0.746-0.883,1.661-1.703,1.73-2.99c0.002,0.002,0.004,0.018,0.004,0.018
			c3.726-2.994,3.392-7.268-0.728-9.383c-0.555-0.285-1.118-0.572-1.609-0.947c-1.106-0.842-2.373-1.109-3.681-1.51
			c-2.895-0.889-5.997-1.267-8.524-3.365c-1.421-1.179-3.381-1.958-5.383-0.799c-0.28,0.163-0.592,0.3-0.868,0.082
			c-0.367-0.29-0.272-0.689-0.045-1.004c0.651-0.902,0.796-1.831,0.168-2.78c-1.784-2.698-4.088-4.774-7.349-5.379
			c-1.571-0.292-2.796-0.957-3.861-2.076c-1.94-2.04-4.012-3.892-6.441-5.387c-1.589-0.976-3.023-1.066-4.557-0.236
			c-1.591,0.86-2.893,0.529-4.002-0.778c-1.394-1.64-3.036-2.747-5.231-1.917c-1.903,0.721-4.381,1.257-5.368,2.712
			c-1.152,1.699-2.973,2.544-4.003,4.263c-0.972,1.624-2.731,1.363-4.224,0.847c-1.457-0.503-2.283-1.657-2.287-3.31
			c-0.003-1.256,0.165-2.481,0.328-3.72c0.251-1.924-0.579-2.965-2.484-2.829c-3.292,0.235-3.28-1.115-3.009-3.83
			c0.056-0.55,0.246-1.095,0.414-1.63c0.246-0.783,0.586-1.604-0.186-2.25c-0.771-0.646-1.723-0.757-2.662-0.456
			c-1.287,0.407-2.381,1.17-3.1,2.311c-1.215,1.929-3.086,1.316-4.753,1.252c-1.539-0.062-2.118-1.258-2.529-2.613
			c-0.681-2.244-0.843-4.521-0.796-6.842c0.065-3.193,2.056-5.158,5.304-5.163c1.924-0.003,3.772,0.019,5.656-0.859
			c1.979-0.922,4.207-0.07,6.221,0.388c1.286,0.292,1.138,2.078,1.626,3.195c0.645,1.48,1.116,3.007,2.659,3.945
			c1.359,0.824,2.084,0.355,2.665-0.857c0.432-0.904,0.417-1.831-0.082-2.697c-0.588-1.025-1.249-2.012-1.865-3.021
			c-1.183-1.939-1.023-3.306,0.598-4.986c0.3-0.311,0.687-0.535,1.015-0.82c1.845-1.596,3.589-3.285,5.042-5.262
			c0.319-0.435,0.599-0.91,0.35-1.373c-0.656-1.223,0.164-1.848,0.898-2.531c1.067-0.994,2.344-2.125,2.094-3.585
			c-0.365-2.126,0.964-1.98,2.192-2.172c0.675-0.105,1.39-0.043,2.03-0.243c0.982-0.304,1.593-0.899,0.652-1.902
			c-1.267-1.349-0.342-1.935,0.814-2.461c1.816-1.93,2.465-1.965,5.748-0.321c1.133-0.012,2.329,0.277,3.267-0.68
			c0.802-1.006,1.305-2.013,0.12-3.111c-0.639-0.594-1.261-1.214-1.854-1.858c-0.715-0.778-1.047-1.675-0.728-2.753
			c0.723-2.417,0.104-3.102-2.417-2.744c-0.654,0.094-1.353,0.735-2.053-0.054c0.759-0.761,1.408-1.534,2.515-1.591
			c2.115,0.008,4.232,0.017,6.348,0.027c0.262-0.001,0.523,0,0.784,0c0.621,0.069,1.305,0.287,1.514-0.633
			c1.638-1.122,2.602-3.08,4.743-3.623c0.841-0.214,0.969-1.194,0.906-2.045c0.345-0.271,0.334-0.517-0.053-0.735
			c-0.628-2.905-2.213-4.493-4.511-4.516c-0.851-0.798-1.064-2.121-2.203-2.683c-0.022-0.235-0.047-0.47-0.071-0.704
			c-0.782-3.359-2.929-6.136-4.01-9.376c-0.262-0.783-1.085-1.031-1.827-0.301c-0.713,0.699-1.398,1.427-2.123,2.116
			c-0.575,0.548-1.166,1.346-2.051,0.956c-0.88-0.39-1.432-1.244-1.533-2.224c-0.102-0.989-0.058-1.996-0.057-2.995
			c0.001-0.706-0.055-1.423-0.609-1.903c-2.555-2.202-5.307-3.843-8.903-3.568c-2.9,0.222-4.174,2.23-2.822,4.72
			c0.417,0.77,0.913,1.514,0.312,2.43c-1.784,2.715-1.021,5.326,0.358,7.903c0.022,0.251,0.047,0.501,0.07,0.751
			c-0.005,1.195,0.003,2.36-1.133,3.19c-2.563,1.871-2.831,4.269-1.689,7.097c0.701,1.733,0.167,2.368-1.699,2.465
			c-0.172-0.995-0.931-1.583-1.563-2.261c0.005-0.063,0.017-0.124,0.013-0.187c-0.327-5.265-0.947-7.05-6.288-6.573
			c-1.982,0.178-3.609-1.082-4.253-2.993c-0.946-2.8-3.123-4.482-5.381-6.083c-1.199-0.851-1.708-1.763-0.859-3.145
			c0.682-1.111,1.093-2.472,1.989-3.351c1.843-1.808,3.003-4.54,6.124-4.785c0.762-0.059,1.512-0.781,1.463-1.514
			c-0.154-2.252,0.83-4.151,1.396-6.21c0.481-1.749,1.281-2.369,2.799-2.667c0.608-0.12,1.217-0.296,1.787-0.538
			c2.755-1.163,3.647-3.312,2.573-6.21c-0.227-0.616-0.43-1.346-0.125-1.818c1.141-1.773-0.008-2.925-0.978-4.118
			c-0.372-0.458-0.743-1.183-1.444-1.036c-0.811,0.169-1.112,0.968-1.326,1.687c-0.336,1.133-0.543,2.307-0.9,3.432
			c-0.221,0.699-0.503,1.539-1.481,1.407c-1.048-0.141-0.637-1.048-0.693-1.661c-0.076-0.833,0.005-1.695-1.268-1.575
			c-2.749,0.26-4.019-0.885-3.993-3.64c0.017-1.795-0.311-3.505-1.309-4.991c-1.952-2.909-2.811-2.883-4.622,0.027
			c-0.294,0.473-0.591,0.962-0.782,1.482c-0.506,1.382-0.848,2.877,0.085,4.134c0.978,1.313,1.589,2.828,2.558,4.127
			c0.648,0.87,1.173,1.777,0.014,2.564c-0.993,0.674-1.935,0.442-2.872-0.373c-1.309-1.138-1.373-2.564-1.319-4.099
			c0.035-1.013,0.007-2.184-1.106-2.549c-0.996-0.326-1.688,0.589-2.352,1.243c-0.222,0.218-0.455,0.448-0.595,0.718
			c-0.531,1.019-0.939,1.937,0.7,2.451c1.341,0.422,1.329,1.385,0.646,2.516c-0.387,0.64-2.091,1.16-3.653,1.585
			c0.201,6.693,0.251,12.89,0.072,18.001c-0.397,11.281-4.188,42.375-21.813,42.375c-4.042,0-7.318-1.041-10.201-2.669
			c-0.001,1.048-0.005,1.793-0.013,1.929C94.132,178.542,94.079,178.972,93.814,179.34z M156.285,178.357
			c0.168-1.072,0.971-1.334,1.93-1.298c0.81-0.002,1.401,0.328,1.253,1.202c-0.209,1.246-1.278,0.907-2.095,0.957
			C156.781,179.251,156.159,179.164,156.285,178.357z M146.371,177.911c-0.633,0.987-0.721,2.082-0.744,3.211
			c-0.016,0.749-0.465,1.16-1.214,1.071c-0.791-0.092-0.966-0.668-0.848-1.363c0.199-1.28,0.354-2.568,0.61-3.835
			c0.204-1.016,1.047-1.594,1.92-1.267C147.172,176.131,146.886,177.11,146.371,177.911z M155.749,180.521
			c-0.25,1.05-1.095,1.639-2.121,1.965c-0.645,0.204-1.166-0.188-1.137-0.84c0.058-1.224,0.855-1.852,2.027-1.971
			C155.061,179.619,155.684,179.582,155.749,180.521z M142.313,170.602c0.336-0.354,0.638-0.583,0.929-0.688
			C142.951,170.019,142.649,170.248,142.313,170.602c0.861,0.001,1.722,0.003,2.583,0.004c1.124,0.073,1.833,0.911,2.241,1.711
			c0.922,1.804,2.427,2.109,4.169,2.106c0.161,0.288,0.421,0.339,0.718,0.299c0.799,0.305,2.016,0.674,1.75,1.545
			c-0.41,1.333-1.806,1.988-3.063,2.577c-0.152,0.072-0.365,0.012-0.55,0.013c-0.235-0.236-0.468-0.475-0.702-0.713
			c-0.409-2.105-3.118-4.506-5.168-4.529c-1.297-0.015-2.596,0.051-3.894,0.08c-0.017,0.189-0.042,0.397-0.188,0.478
			c0.146-0.081,0.172-0.29,0.188-0.479c-0.235-0.018-0.472-0.036-0.708-0.054l-0.032-0.032c-0.013-0.36-0.026-0.721-0.039-1.081
			C140.217,171.465,141.12,170.831,142.313,170.602z"/>
		<path fill="#97BF0D" d="M261.123,144.733c0.373,1.167,1.229,2.144,2.687,2.289c1.512,0.153,2.291-0.697,2.886-1.896
			c0.278-0.557,0.534-1.142,0.909-1.626c0.364-0.467,0.763-1.147,1.492-0.882c0.693,0.25,0.421,0.968,0.401,1.488
			c-0.091,2.453,0.016,4.823,1.479,6.976c1.228,1.81,2.932,2.129,4.505,0.592c1.049-1.025,1.564-2.347,1.936-3.764
			c0.381-1.474,0.456-3.054,1.633-4.272c1.971-2.035,1.617-3.883-0.617-5.247c-5.669,1.75-11.687,2.48-17.375,2.533
			C260.508,141.762,260.603,143.113,261.123,144.733z"/>
		<path fill="#97BF0D" d="M288.995,78.165c1.332-0.097,2.772,1.13,3.922,0.058c1.434-1.339,2.813-2.797,3.685-4.624
			c0.63-1.326,0.273-2.284-1.062-2.873c-2.209-0.975-4.162-2.148-6.928-2.061c-2.283,0.071-3.606,0.396-4.562,2.349
			c-0.131,0.27-1.159,1.218-1.854,1.882c0.958,1.861,2.197,3.577,3.603,5.202C287.152,78.134,288.642,78.19,288.995,78.165z"/>
		<path fill="#97BF0D" d="M226.581,124.819c-0.941-0.525-2.057-0.161-3.043-0.691c-1.795-0.962-2.925-0.21-2.789,1.82
			c0.186,2.794,0.175,5.723,3.674,6.771c0.792,0.237,1.234,1.312,2.26,1.1c1.938-0.399,3.894-0.721,5.758-1.435
			c0.208-0.08,0.818-0.638,1.528-1.351c-2.45-1.883-4.744-4.013-6.791-6.373C226.892,124.826,226.671,124.906,226.581,124.819z"/>
		<path fill="#97BF0D" d="M131.975,94.741c0.444-0.877,1.002-2.652-0.867-3.268c-0.695-0.229-1.457-0.282-2.194-0.357
			c-1.839-0.187-2.837,0.975-2.519,2.802c0.162,0.937,0.574,2.05-0.906,2.403c0.016,0.523,0.032,1.046,0.046,1.567
			c0.604,0.093,0.618,0.567,0.568,0.996c-0.188,1.615,0.621,2.902,1.407,4.157c1.179,1.878,3.376,2.004,4.869,0.364
			c1.631-1.793,1.691-3.727,0.192-5.732C131.921,96.802,131.278,96.12,131.975,94.741z"/>
		<path fill="#97BF0D" d="M418.879,250.344c-0.58-0.945-1.155-1.913-1.173-3.109c-0.009-0.604-0.495-1.006-1.076-1.159
			c-0.678-0.181-1.224-0.494-1.055-1.269c0.186-0.842,0.966-0.966,1.643-0.891c1.045,0.115,2.066,0.415,3.105,0.593
			c0.654,0.113,1.104-0.193,1.203-0.863c0.107-0.724-0.306-0.997-0.979-1.04c-1.481-0.092-3.067-0.065-4.39,0.275
			c-1.26,0.325-2.679,1.541-2.897,3.135c-0.325,2.397,0.959,4.755,2.652,5.402c0.431,0.166,0.829,0.826,1.005,1.428
			c0.711,0.105,1.385,0.243,2.036,0.4C419.162,252.391,419.357,251.125,418.879,250.344z"/>
		<path fill="#97BF0D" d="M424.42,194.958c1.324,0.021,2.737-1.396,3.01-2.866c0.201-1.085-0.425-2.829-0.988-4.154
			c-1.718,0.448-3.559,0.833-5.544,1.136c0.57,0.978,1.147,2.499,1.327,3.357C422.486,193.688,422.794,194.931,424.42,194.958z"/>
		<path fill="#97BF0D" d="M443.438,181.242c2.628,1.035,5.449-0.266,6.49-2.99c-0.137,0.011-0.25-0.129-0.36-0.345
			c-2.119,0.762-4.142,1.739-6.214,2.807C443.509,180.945,443.575,181.138,443.438,181.242z"/>
		<path fill="#97BF0D" d="M470.48,257.766c0.164-0.756,0.028-1.41-0.899-1.477c-0.906-0.063-1.16,0.547-1.145,1.326
			c0.01,0.633,0.079,2.023,0.13,3.143c0.616-0.323,1.227-0.665,1.83-1.024C470.38,258.961,470.416,258.062,470.48,257.766z"/>
		<path fill="#97BF0D" d="M124.979,66.436c-0.258-1.046-0.754-1.981-2.065-2.01c-0.169,0.05-0.329,0.108-0.479,0.172
			c0.095,1.128,0.193,2.309,0.294,3.542c0.091,0.01,0.176,0.024,0.273,0.029C124.496,68.493,125.318,67.813,124.979,66.436z"/>
		<path fill="#97BF0D" d="M168.799,219.878c-0.905-0.421-1.85-0.767-2.714-1.256c-1.137-0.646-2.152-1.509-3.52-0.372
			c-0.437,0.361-1.041-0.047-1.516-0.416c-2.75-2.133-6.473-1.997-9.315-3.949c-0.254-0.175-0.732-0.025-1.107-0.025
			c0-0.012,0-0.023,0-0.037c-0.25,0-0.5-0.012-0.75,0.002c-1.147,0.068-3.129,1.632-2.944,2.437
			c0.352,1.529,1.672,1.132,2.752,1.247c1.194,0.13,2.501-0.477,3.569,0.567c2.037,1.991,4.587,2.827,7.341,3.133
			c0.62,0.07,1.018,0.384,1.438,0.769c2.632,2.404,4.277,2.488,7.04,0.39C170.322,221.422,170.227,220.545,168.799,219.878z"/>
		<path fill="#97BF0D" d="M172.526,221.396c-0.69,0.008-1.145,0.479-1.202,1.146c-0.062,0.699,0.445,0.953,1.072,0.923
			c0.664-0.031,0.961-0.443,0.981-1.046C173.353,221.827,173.105,221.386,172.526,221.396z"/>
		<path fill="#97BF0D" d="M319.967,261.688c-0.795-0.379-1.451,0.174-1.989,0.688c-1.174,1.125-2.114,2.623-3.478,3.389
			c-4.676,2.625-2.58,7.691-4.315,11.346c-0.16,0.332,0.187,0.967,0.407,1.408c0.779,1.561,1.836,3.01,3.694,3.076
			c1.83,0.07,2.473-1.631,2.88-3c0.989-3.316,1.771-6.697,2.547-10.068c0.375-1.635,0.551-3.314,0.791-4.824
			C320.425,262.889,320.747,262.057,319.967,261.688z"/>
		<path fill="#97BF0D" d="M217.104,83.273c0.8-1.035,1.484-2.143,1.934-3.39c0.387-1.071,0.337-2.038-0.775-2.559
			c-1.148-0.539-1.893,0.061-2.341,1.141c-0.142,0.346-0.292,0.701-0.51,1c-0.545,0.742-1.211,1.932-2.149,1.274
			c-0.96-0.673,0.181-1.482,0.629-2.149c0.947-1.414,0.593-2.331-1.092-2.523c-0.876-0.1-1.518-0.353-1.42-1.318
			c0.186-1.802-0.82-2.578-2.342-3.081c-0.637-0.209-1.347-0.533-1.755-1.027c-1.315-1.586-2.982-1.935-4.862-1.659
			c-2.325-0.292-4.409,0.192-5.995,1.964c-2.832,3.163-6.6,4.367-10.573,5.123c-2.216,0.422-3.315,1.563-3.448,3.885
			c-0.037,0.646-0.472,1.021-0.913,1.347c-0.599,0.443-1.239,0.848-1.909,1.172c-2.484,1.207-2.587,1.983-0.995,4.132
			c0.771,1.042,0.616,1.911-0.267,2.817c-1.222,1.259-2.806,1.809-4.368,2.426c-1.457,0.575-1.53,1.695-1.024,2.915
			c0.234,0.567,0.849,0.874,1.372,1.234c1.417,0.974,1.37,1.426-0.127,2.276c-0.752,0.427-1.403,0.894-0.775,1.909
			c1.297,2.095,3.563,3.066,6.045,2.576c0.854-0.167,1.714-0.297,2.572-0.45c1.823-0.325,3.028,0.374,3.574,2.157
			c0.873,2.861,1.535,5.741,1.095,8.775c-0.191,1.32-0.365,2.7,1.569,2.991c0.705,0.106,0.71,0.679,0.337,1.133
			c-0.939,1.145-0.242,1.661,0.737,2.089c1.018,0.445,1.09,0.944,0.354,1.827c-1.15,1.374-1.618,2.985-1.634,4.842
			c-0.036,3.965,1.706,7.363,3.151,10.864c0.233,0.569,0.728,1.032,1.324,1.275c4.189,1.711,4.195,1.707,5.881-2.586
			c0.206-0.521,0.481-1.063,0.494-1.603c0.063-2.558,1.508-4.042,3.553-5.366c3.229-2.089,5.229-5.659,9.298-6.935
			c2.404-0.753,2.173-1.906-0.042-3.576c-0.387-0.292-0.897-0.662-0.427-1.215c0.488-0.573,0.889-0.104,1.231,0.262
			c0.362,0.385,0.553,1.093,1.297,0.727c0.771-0.377,0.973-1.057,0.945-1.879c-0.023-0.726-0.334-1.334-0.674-1.924
			c-0.749-1.298-0.615-2.494,0.31-3.637c0.51-0.629,1.036-1.246,1.515-1.896c1.802-2.438,1.575-4.376-0.714-6.416
			c-0.363-0.324-0.86-0.626-0.772-1.204c0.109-0.716,0.742-0.55,1.203-0.558c0.875-0.014,1.007-0.551,0.996-1.249
			c-0.012-0.626,0.019-1.251-0.001-1.876c-0.02-0.536,0.141-1.198-0.651-1.347c-0.667-0.124-1.049,0.263-1.305,0.824
			c-0.302,0.667-0.707,1.321-1.541,0.893c-0.934-0.48-0.716-1.352-0.429-2.14c0.335-0.919,1.127-1.483,1.78-2.145
			c0.702-0.71,0.813-1.274-0.297-1.614c-0.647-0.198-1.094-0.581-1.276-1.241c-0.321-1.173,0.466-2.55,1.663-2.71
			c1.413-0.189,1.623,0.789,1.649,1.899c0.009,0.4-0.185,0.935,0.375,1.119c0.154,0.05,0.581-0.192,0.579-0.298
			c-0.01-1.228,1.162-2.52-0.058-3.674C215.78,85.646,216.16,84.495,217.104,83.273z"/>
		<path fill="#97BF0D" d="M179.837,120.634c-2.297-1.377-5.719-2.322-4.344-5.646c0.507-2.175-0.573-3.014-1.521-3.574
			c-1.982-1.172-3.397-2.92-5.096-4.375c-1.2-1.028-2.345-2.187-4.217-2.121c-2.664,0.093-2.813-0.167-3.258-2.88
			c-0.208-1.269-0.78-2.033-2.157-1.095c-0.455,0.309-0.956,0.383-1.411,0.096c-1.38-0.866-2.649-0.942-3.866,0.312
			c-1.501,1.548-2.821,3.436-2.096,5.49c0.81,2.292,2.023,4.604,4.287,5.984c1.049,0.639,1.688,1.441,1.522,2.744
			c-0.171,1.348,0.573,2.011,1.813,2.083c1.171,0.068,1.609-0.607,1.616-1.772c0.009-1.159,0.795-1.595,1.901-1.561
			c2.297,0.069,4.733,2.068,5.121,4.221c0.504,2.79-0.979,6.597-2.988,7.338c-0.823,0.302-1.671,0.416-1.388,1.528
			c0.256,1.017,1.101,1.327,2.054,1.202c1.602-0.209,2.759,0.558,3.799,1.61c0.922,0.933,1.743,1.981,2.748,2.811
			c1.001,0.825,2.11,2.061,3.449,0.348c0.128-0.165,0.433-0.266,0.658-0.27c0.875-0.017,1.813,0.129,2.124-1.023
			c0.345-1.268-0.021-2.328-0.951-3.233c-0.898-0.872-1.782-1.758-2.646-2.66c-0.415-0.435-0.698-1.062-0.194-1.493
			c0.614-0.525,0.964,0.109,1.29,0.576c0.463,0.666,0.901,1.386,1.844,1.423c1.105,0.045,3.584-1.531,3.744-2.433
			C181.963,122.616,181.403,121.571,179.837,120.634z"/>
		<path fill="#97BF0D" d="M157.557,86.107c-0.893,1.163-0.663,1.946,0.333,2.676c1.527,1.117,3.277,1.849,5.104,2.232
			c1.326,0.278,2.81-0.292,2.812-1.736c0.003-1.724,0.936-2.612,1.962-3.602c1.189-1.15,2.051-2.517,2.602-4.063
			c0.25-0.703,0.601-1.231,1.331-1.431c1.511-0.41,2.599-1.409,3.672-2.484c1.137-1.14,2.104-2.49,3.663-3.158
			c0.614-0.263,0.876-0.698,0.373-1.321c-0.413-0.51-0.495-1.358,0.099-1.407c2.866-0.23,2.185-1.752,1.429-3.417
			c-0.118-0.26-0.042-0.619-0.018-0.93c0.091-1.14-0.464-1.965-1.11-2.867c-1.891-2.634-4.783-1.923-7.165-2.443
			c-0.961,0.141-1.869-0.222-2.556,0.265c-2.417,1.705-5.235,2.623-7.774,4.073c-0.632,0.361-1.286,0.88-1.2,1.765
			c0.088,0.91,0.738,1.436,1.515,1.738c1.547,0.599,3.055,1.415,4.836,0.846c0.535-0.17,1.145-0.011,1.385,0.649
			c0.119,0.328,0.017,0.644-0.301,0.796c-1.338,0.642-2.648,1.646-4.045,1.792c-1.783,0.189-2.062,0.982-1.942,2.425
			c0.05,0.62-0.044,1.254,0.019,1.873c0.153,1.534-0.129,2.724-1.923,3.044c-0.495,0.089-0.951,0.523-0.999,1.027
			C159.513,84.003,158.398,85.012,157.557,86.107z"/>
		<path fill="#97BF0D" d="M152.884,77.528c-0.429,1.846,1.912,3.921,3.456,3.26c1.558-0.667,3.551-3.911,3.501-5.78
			c-0.104-0.343-0.147-0.813-0.369-1.168c-0.75-1.198-0.961-2.494-1.141-3.88c-0.238-1.82-1.496-3.13-3.053-4.043
			c-1.273-0.748-2.296-0.46-2.746,1.054c-0.708,2.383-0.803,4.812-0.008,7.166C152.91,75.282,153.177,76.269,152.884,77.528z"/>
		<path fill="#97BF0D" d="M154.511,87.379c-0.448-0.894-4.153-2.092-4.979-1.511c-1.591,1.12-2.899,0.739-4.143-0.542
			c-0.869-0.894-1.742-1.784-2.648-2.639c-0.882-0.833-1.917-1.371-3.568-1.415c-0.545-0.048-1.463,0.136-1.679,1.163
			c-0.231,1.102,0.811,1.245,1.542,1.503c1.932,0.68,3.007,1.995,2.839,4.064c-0.128,1.553,0.396,2.189,1.969,1.993
			c0.858-0.109,1.543,0.375,2.201,0.872c0.796,0.597,1.755,0.897,2.642,0.507c1.182-0.524,2.365-0.643,3.621-0.694
			C153.635,90.624,155.032,88.417,154.511,87.379z"/>
		<path fill="#97BF0D" d="M135.405,62.536c-0.487-0.039-0.896-0.254-1.072-0.639c-0.813-1.791-2.86-1.762-4.157-2.856
			c-0.55-0.463-1.419-0.318-2.049,0.291c-0.659,0.64-0.264,1.234,0.002,1.867c0.529,1.257,1.607,2.044,2.522,2.96
			c0.712,0.71,1.04,1.299,0.219,2.204c-0.656,0.721,0.689,3.457,1.694,3.608c0.516,0.078,0.921-0.178,0.989-0.641
			c0.251-1.678,0.935-1.223,1.814-0.463c0.778,0.675,1.502,0.46,1.58-0.553c0.09-1.178,0.623-2.294,0.438-3.375
			C137.395,62.709,137.396,62.697,135.405,62.536z"/>
		<path fill="#97BF0D" d="M145.415,93.232c-0.57-0.247-1.138-0.504-1.727-0.699c-2.589-0.854-4.123,0.147-4.369,2.851
			c-0.039,0.433-0.005,0.872-0.005,1.219c-0.163,2.236,0.82,4.215,0.924,6.333c0.027,0.562,0.41,1.271,1.211,1.177
			c0.692-0.082,1.225-0.628,1.133-1.274c-0.245-1.705,0.827-2.629,1.86-3.635c0.857-0.832,1.458-1.852,1.982-2.919
			C147.088,94.934,146.887,93.87,145.415,93.232z"/>
		<path fill="#97BF0D" d="M135.176,83.364c-1.252-1.275-1.979,0.143-2.852,0.625c-0.475,0.263-0.822,0.848-1.461,0.532
			c-0.613-0.304-0.459-0.938-0.557-1.481c-0.291-1.616,0.609-3.013,0.789-4.536c0.045-0.865-0.208-1.649-0.796-2.238
			c-0.736-0.735-1.932-1.169-2.682-0.755c-0.937,0.52,0.273,1.219,0.485,1.85c0.246,0.734,0.572,1.503-0.053,2.094
			c-0.812,0.766-1.315-0.101-1.855-0.562c-0.378-0.323-0.761-0.793-1.288-0.428c-0.47,0.324-0.335,0.926-0.254,1.393
			c0.222,1.281,1.568,1.737,2.137,2.736c1.48,2.607,3.672,3.894,6.633,4.132c1.091,0.086,2.387,0.797,3.052-0.371
			C137.194,85.093,135.996,84.2,135.176,83.364z"/>
		<path fill="#97BF0D" d="M149.353,126.215c-1.273-0.751-1.826,0.548-2.627,1.147c-1.37,1.023-1.145,2.256-0.409,3.445
			c0.687,1.112,1.582,1.833,3.092,1.142c0.937-0.427,2.023-0.547,3.052-0.749c0.637-0.125,1.021-0.411,1.059-1.093
			C153.079,127.81,151.014,127.196,149.353,126.215z"/>
		<path fill="#97BF0D" d="M153.201,94.265c-0.024,1.688,1.389,2.757,3.699,2.796c2.291,0.039,3.372-0.679,3.388-2.247
			c0.022-2.103-1.114-3.339-3.086-3.358C155.042,91.435,153.223,92.712,153.201,94.265z"/>
		<path fill="#97BF0D" d="M141.812,71.47c1.313,0.772,2.33,0.174,2.345-1.456c-0.008-0.115,0.025-0.32-0.042-0.485
			c-0.52-1.267-1.048-2.53-1.599-3.784c-0.355-0.808-0.735-1.72-1.813-1.61c-1.206,0.122-1.566,1.138-1.743,2.146
			C138.607,68.295,139.699,70.228,141.812,71.47z"/>
		<path fill="#97BF0D" d="M130.177,74.204c0.368,0.293,0.66,0.837,1.25,0.428c0.428-0.296,0.702-0.7,0.633-1.591
			c-0.327-0.875-0.917-1.95-1.903-2.751c-0.355-0.287-0.823-0.265-1.229-0.017c-0.428,0.261-0.518,0.686-0.44,1.138
			C128.682,72.56,129.272,73.479,130.177,74.204z"/>
		<path fill="#97BF0D" d="M158.885,130.881c-0.849,0.048-1.496,0.47-1.478,1.351c0.017,0.819,0.745,0.871,1.399,0.866
			c0.753-0.001,1.409-0.174,1.436-1.086C160.27,131.102,159.672,130.837,158.885,130.881z"/>
		<path fill="#97BF0D" d="M460.431,248.217c-0.589-0.375-1.239-0.113-1.534,0.28c-1.112,1.483-2.854,2.118-4.184,3.284
			c-1.611,1.414-2.816,1.516-4.387,0.047c-1.567-1.461-3.104-2.824-5.444-2.912c-0.816-0.029-1.642-0.568-2.404-0.981
			c-2.718-1.468-3.032-1.511-5.167,0.646c-1.09,1.106-1.836,0.827-2.501-0.267c-0.498-0.814-1.116-1.494-1.793-2.143
			c-0.56-0.539-1.231-0.627-1.903-0.332c-0.782,0.345-1.156,1.08-0.927,1.852c0.479,1.614,1.094,3.317,2.881,3.841
			c3.412,1.005,6.57,2.078,8.696,5.386c1.306,2.029,2.696,1.953,4.661,0.604c1.531-1.049,2.828-0.75,4.041,0.395
			c0.961,0.908,2.025,1.652,3.127,2.359c1.161,0.744,2.071,0.17,2.789-0.66c0.8-0.922-0.143-1.457-0.685-1.992
			c-0.487-0.475-1.073-0.848-1.597-1.289c-0.33-0.277-0.727-0.576-0.583-1.08c0.142-0.488,0.589-0.582,1.046-0.631
			c1.455-0.158,2.771-0.758,3.996-1.488c1.316-0.783,2.361-1.859,2.338-3.573C460.887,249.06,460.929,248.535,460.431,248.217z"/>
		<path fill="#97BF0D" d="M412.112,236.797c-1.704-1.2-2.56-1.151-3.81,0.387c-0.392,0.48-0.668,1.053-1.057,1.536
			c-1.644,2.028-3.31,4.085-5.604,5.365c-1.136,0.635-1.842,1.204-1.603,2.466c-0.062,0.972-0.083,1.904,0.833,2.388
			c1.373,0.728,2.742,1.556,4.215,1.968c1.029,0.289,2.441,0.711,3.252-0.565c1.063-1.678,1.961-3.462,3.223-5.016
			c0.299-0.366,0.355-0.84,0.179-1.243c-0.677-1.524-0.146-2.857,0.745-4.013C413.492,238.77,413.503,237.775,412.112,236.797z"/>
		<path fill="#97BF0D" d="M431.595,198.366c0.167-1.884,2.295-3.179,3.911-2.288c0.968,0.533,1.622,0.4,2.302-0.343
			c0.338-0.372,0.749-0.621,1.233-0.805c3.995-1.513,5.275-4.806,5.678-8.823c-0.063-0.361-0.126-0.855-0.24-1.336
			c-0.168-0.695-0.089-1.668-1.141-1.644c-0.923,0.021-1.92,0.182-2.354,1.198c-0.29,0.682-0.474,1.414-0.666,2.134
			c-0.929,3.454-3.431,5.878-6.875,5.855c-2.393-0.017-3.676,1.22-4.925,2.781c-1.424,1.779-1.186,3.731,0.46,5.319
			c0.789,0.761,1.384,0.578,2.051-0.135C431.555,199.716,431.533,199.054,431.595,198.366z"/>
		<path fill="#97BF0D" d="M422.067,232.705c-2.003,0.139-2.931-0.748-3.451-2.467c-0.087-0.287-0.319-0.532-0.504-0.782
			c-0.997-1.355-0.847-1.777,0.867-2.164c0.567-0.126,1.182-0.146,1.241-0.871c0.062-0.731-0.54-0.885-1.095-1.044
			c-1.397-0.399-1.755-1.257-1.144-2.566c0.184-0.392,0.316-0.816,0.42-1.238c0.292-1.192-0.15-2.116-1.198-2.671
			c-1.003-0.533-1.762-0.007-2.456,0.738c-2.283,2.454-1.919,7.347,0.804,9.615c0.611,0.509,0.73,0.986,0.934,1.743
			c0.412,1.534,1.661,2.858,0.663,4.604c-0.042,0.077,0.153,0.333,0.285,0.457c0.974,0.922,2.12,1.508,3.332,1.716
			c1.36,0.026,3.596-1.841,3.556-3.008C424.279,233.394,423.115,232.635,422.067,232.705z"/>
		<path fill="#97BF0D" d="M412.985,230.351c-0.921,0.021-2.322,1.491-2.245,2.375c0.063,0.72,0.571,0.872,1.39,0.877
			c1.004-0.194,1.837-0.9,2.095-2.06C414.411,230.702,413.801,230.334,412.985,230.351z"/>
		<path fill="#97BF0D" d="M425.61,245.563c1.05-0.026,1.586-0.787,1.843-1.833c-0.224-0.822-0.673-1.415-1.644-1.368
			c-1.011,0.049-1.604,0.609-1.626,1.632C424.163,244.933,424.672,245.587,425.61,245.563z"/>
		<path fill="#97BF0D" d="M462.447,256.295c-1.039-0.045-1.157,0.711-1.136,1.502c0.021,0.723-0.079,1.658,1.012,1.572
			c0.861-0.064,1.151-0.801,1.137-1.619C463.466,257.023,463.353,256.334,462.447,256.295z"/>
		<path fill="#97BF0D" d="M462.495,252.148c-0.873-0.088-1.393,0.477-1.477,1.309c-0.092,0.877,0.501,1.166,1.464,1.193
			c0.532,0,1.242-0.068,1.294-0.988C463.825,252.803,463.326,252.229,462.495,252.148z"/>
		<path fill="#97BF0D" d="M444.172,233.102c0.029,0.882,0.676,1.254,1.413,1.278c0.832-0.025,1.331-0.312,1.309-1.103
			c-0.026-0.961-0.774-1.254-1.521-1.317C444.675,231.901,444.151,232.416,444.172,233.102z"/>
		<path fill="#97BF0D" d="M427.647,249.127c-1.05-0.313-1.939,0.034-2.706,0.75c-0.319,0.298-0.65,0.676-0.39,1.125
			c0.374,0.641,0.973,0.372,1.473,0.174c0.8-0.313,1.918-0.069,2.269-1.163C428.248,249.538,428.026,249.242,427.647,249.127z"/>
		<path fill="#97BF0D" d="M421.107,230.936c0.881-0.002,1.307-0.541,1.423-1.314c-0.044-0.834-0.501-1.12-1.219-1.12
			c-0.823-0.003-1.261,0.386-1.263,1.221C420.045,230.434,420.334,230.938,421.107,230.936z"/>
		<path fill="#97BF0D" d="M422.01,247.63c-0.935,0.009-1.383,0.615-1.388,1.408c-0.005,0.754,0.712,0.696,1.266,0.723
			c0.751-0.019,1.385-0.207,1.376-1.121C423.257,247.83,422.711,247.622,422.01,247.63z"/>
		<path fill="#97BF0D" d="M469.254,252.525c-0.648,0.027-1.087,0.299-1.099,1c-0.016,0.799,0.478,1.088,1.204,1.094
			c0.739,0.004,1.183-0.318,1.2-1.09C470.489,252.701,469.96,252.498,469.254,252.525z"/>
		<path fill="#97BF0D" d="M315.509,76.046c0.485,0.088,0.998,0.071,1.494,0.041c0.822-0.05,1.402,0.26,1.917,0.916
			c1.646,2.094,3.091,1.881,4.469-0.422c0.668-1.117,1.658-2.064,3.181-1.97c0.579,0.036,0.764,0.437,0.685,0.906
			c-0.233,1.435-1.214,2.387-2.497,2.693c-1.053,0.251-1.491,0.629-1.158,1.593c0.321,0.933,1.143,1.559,2.05,0.996
			c1.959-1.215,4.147-1.18,6.216-1.688c2.655-0.653,6.43-0.664,7.465-4.601c0.264-0.996,2.169-1.846,1.11-2.927
			c-1.311-1.332-2.065,0.559-2.971,1.228c-0.462,0.341-0.87,0.809-1.467,0.362c-0.539-0.403-0.474-0.979-0.246-1.53
			c0.262-0.63,0.673-1.211,0.58-1.928c0.077-1.14-0.5-1.81-1.559-1.506c-1.853,0.531-3.921,0.555-5.281,2.372
			c-1.121,1.493-2.614,1.831-4.247,0.59c-1.077-0.821-2.02-1.247-2.665,0.582c-0.31,0.878-1.365,1.516-1.892,0.203
			c-0.525-1.317-1.413-1.169-2.401-1.18c-1.612-0.015-2.535,1.231-3.674,2.045c-0.499,0.356-1.371,0.796-1.024,1.586
			C313.933,75.183,314.573,75.875,315.509,76.046z"/>
		<path fill="#97BF0D" d="M341.889,70.054c1.116-0.097,1.769-0.781,1.937-1.866c0.091-0.576-0.005-1.212-0.801-1.123
			c-1.17,0.129-1.659,1.104-2.23,1.888C340.891,69.702,341.235,70.11,341.889,70.054z"/>
	</g>
</g>
<g id="Ebene_6">
	<g>
		<defs>
			<path id="SVGID_1_" d="M121.25,51.267c0,0,5.583,58,4.625,85.229c-0.397,11.281-4.188,42.375-21.813,42.375
				c-18.979,0-21.146-22.813-44.438-22.813c-13.875,0-37.625,9.042-37.625,48.75c0,30.375,19.25,45.375,34.625,45.375
				c22.875,0,19.625-18,43.875-18c23.917,0,24.875,22.375,24.875,34.75s-3.042,47-8.875,82c4.417,0.667,11.51,1.468,23.25,5.125
				c15.917,4.959,28.125,8.875,53.625,8.875S233,353.309,233,342.309c0-17.041-15.625-14.25-15.625-34.75s20.625-30,41.25-30
				s41.459,9.959,41.459,34.875c0,22.5-13.084,17.125-13.084,35.75s22.375,18.125,28,18.125s61.5-1.832,87-7.041
				c-1-13.25-4.583-66.542-4.583-82.917c0-21.667,10.083-23.792,15.458-23.792c16.125,0,16.875,12.292,39.625,12.292
				c20.584,0,40.625-19.75,40.625-49.792c0-27.125-19-38.75-34.625-38.75s-20.875,13.5-47.75,13.5
				c-9.499,0-15.833-3.792-15.833-22.292c0-37.275,4.167-74.417,4.333-109.583c-18.666-2.75-66.625-10-93.125-10
				c-24.208,0-25.958,10.125-25.958,16.75c0,17.083,23.5,22.167,23.5,38.5c0,29.917-23.792,37.75-43.292,37.75
				c-17.042,0-42.458-15.583-42.458-40.083c0-12.042,3.374-15.688,6.844-19.159c5.189-5.189,11.177-8.299,11.177-16.508
				c0-14.25-14.396-16.667-31.271-16.667S121.25,51.267,121.25,51.267z"/>
		</defs>
		<clipPath id="SVGID_2_">
			<use xlink:href="#SVGID_1_"  overflow="visible"/>
		</clipPath>
		<g clip-path="url(#SVGID_2_)">
			<linearGradient id="SVGID_3_" gradientUnits="userSpaceOnUse" x1="149.1235" y1="-218.9824" x2="149.1235" y2="283.2681">
				<stop  offset="0" style="stop-color:#FFFFFF;stop-opacity:0.9"/>
				<stop  offset="1" style="stop-color:#FFFFFF;stop-opacity:0.05"/>
			</linearGradient>
			<circle fill="url(#SVGID_3_)" cx="149.124" cy="32.143" r="251.124"/>
		</g>
	</g>
</g>
</svg>
