<?xml version="1.0" encoding="UTF-8" standalone="no"?>
<svg xmlns="http://www.w3.org/2000/svg" xmlns:sodipodi="http://sodipodi.sourceforge.net/DTD/sodipodi-0.dtd" xmlns:inkscape="http://www.inkscape.org/namespaces/inkscape" version="1.0" width="580" height="580">
 <metadata id="metadata10"/>
 <g id="g1327">
  <path d="M 66.275,1.768 C 24.94,1.768 1.704,23.139 1.704,66.804 L 1.704,516.927 C 1.704,557.771 22.598,579.156 63.896,579.156 L 515.92,579.156 C 557.227,579.156 578.149,558.84 578.149,516.927 L 578.149,66.804 C 578.149,24.203 557.227,1.768 514.627,1.768 C 514.624,1.768 66.133,1.625 66.275,1.768 z" id="path1329" fill="#8E7409" stroke="#eeeeee" stroke-width="3.408"/>
 </g>
 <g id="g4197" transform="translate(0,8)">
  <g transform="matrix(0.94229035,0,0,0.94229035,13.293958,40.335437)" id="g4188">
   <path d="m 119.34375,184.09375 c 10.21887,107.49256 2.61939,210.69427 -24,336.5625 l 32,0 140.125,0 32,0 c -26.61939,-125.86823 -34.21887,-229.06994 -24,-336.5625 -33.38204,14.58679 -52.50651,12.53748 -78.0625,14.40625 -25.55599,-1.86877 -44.68046,0.18054 -78.0625,-14.40625 z" id="rect3172" inkscape:connector-curvature="0" sodipodi:nodetypes="cccccccc" fill="#ffffff" stroke="#ffffff" stroke-linejoin="round" stroke-linecap="round" stroke-width="10"/>
   <path d="m 272.18442,400.18442 232.63116,0 0,120.63116 -232.63116,0 z" id="rect3947" inkscape:connector-curvature="0" fill="#ffffff" stroke="#ffffff" stroke-linejoin="round" stroke-linecap="round" stroke-width="8.369"/>
  </g>
  <path sodipodi:nodetypes="cscssczcc" id="path4355" d="m 183.25973,24.304259 c -10.80773,76.359071 -45.09298,77.055121 -48.8522,116.526871 -3.77609,39.64877 36.56723,64.10915 43.21262,65.77082 0,0 -18.95202,-21.91604 -17.17009,-40.62632 1.23393,-12.95625 6.56627,-17.6464 16.63131,-31.82575 7.23396,-10.19102 15.40314,-24.17529 21.40874,-44.829087 21.37225,18.711477 30.53726,29.598997 34.80719,52.192817 4.26995,22.59386 -13.36251,63.22023 -13.36251,63.22023 C 283.71041,156.6619 267.37218,83.276953 183.25973,24.304259 z" inkscape:connector-curvature="0" fill="none" stroke="#ffffff" stroke-linecap="square" stroke-width="6.674"/>
  <path inkscape:connector-curvature="0" d="m 183.25973,24.304259 c -10.80773,76.359071 -45.09298,77.055121 -48.8522,116.526871 -3.77609,39.64877 36.56723,64.10915 43.21262,65.77082 0,0 -18.95202,-21.91604 -17.17009,-40.62632 1.23393,-12.95625 6.56627,-17.6464 16.63131,-31.82575 7.23396,-10.19102 15.40314,-24.17529 21.40874,-44.829087 21.37225,18.711477 30.53726,29.598997 34.80719,52.192817 4.26995,22.59386 -13.36251,63.22023 -13.36251,63.22023 C 283.71041,156.6619 267.37218,83.276953 183.25973,24.304259 z" id="path4193" sodipodi:nodetypes="cscssczcc" opacity=".1" fill="#ffffff" fill-rule="evenodd" stroke="#ffffff" stroke-linecap="square" stroke-width="6.674"/>
  <path sodipodi:nodetypes="cssczcc" id="path4195" d="m 177.62015,206.60195 c 0,0 -18.95202,-21.91604 -17.17009,-40.62632 1.23393,-12.95625 6.56627,-17.6464 16.63131,-31.82575 7.23396,-10.19102 15.40314,-24.17529 21.40874,-44.829087 21.37225,18.711477 30.53726,29.598997 34.80719,52.192817 4.26995,22.59386 -13.36251,63.22023 -13.36251,63.22023 -15.24995,10.83433 -25.51026,6.63227 -42.31464,1.86811 z" inkscape:connector-curvature="0" opacity=".2" fill="#ffffff" fill-rule="evenodd" stroke="#ffffff" stroke-linecap="square" stroke-width="6.674"/>
 </g>
</svg>
