<?xml version="1.0" encoding="UTF-8" standalone="no"?>
<svg xmlns="http://www.w3.org/2000/svg" xmlns:xlink="http://www.w3.org/1999/xlink" xmlns:sodipodi="http://sodipodi.sourceforge.net/DTD/sodipodi-0.dtd" xmlns:inkscape="http://www.inkscape.org/namespaces/inkscape" version="1.0" width="580" height="580">
 <metadata id="metadata2975"/>
 <defs id="defs4">
  <symbol viewBox="244.5 110 489 219.9" id="symbol-university">
   <path id="path4460" d="M79,43l57,119c0,0,21-96,104-96s124,106,124,106l43-133l82-17L0,17L79,43z"/>
   <path id="path4462" d="M94,176l-21,39" stroke-width="20" stroke="#000000" fill="none"/>
   <path id="path4464" d="M300,19c0,10.5-22.6,19-50.5,19S199,29.5,199,19s22.6-19,50.5-19S300,8.5,300,19z"/>
   <path id="path4466" d="M112,216l-16-38L64,88c0,0-9-8-4-35s16-24,16-24" stroke-width="20" stroke="#000000" ill="none"/>
  </symbol>
  <radialGradient gradientUnits="userSpaceOnUse" gradientTransform="scale(0.79354273,1.2601716)" xlink:href="#linearGradient829" id="radialGradient874" cx="180.25" cy="198.42" r="101.58"/>
  <linearGradient id="linearGradient829">
   <stop id="stop830" stop-color="#ffffff" stop-opacity=".342"/>
   <stop offset="1" id="stop831" stop-color="#ffffff" stop-opacity="0"/>
  </linearGradient>
  <radialGradient gradientUnits="userSpaceOnUse" gradientTransform="scale(1.007004,0.99304475)" xlink:href="#linearGradient829" id="radialGradient832" cx="360.85" cy="167.47" r="46.39"/>
  <linearGradient gradientUnits="userSpaceOnUse" gradientTransform="scale(0.74491357,1.3424376)" xlink:href="#linearGradient855" id="linearGradient850" x1="465.29" y1="248.24" x2="463.27" y2="405.77"/>
  <linearGradient id="linearGradient855">
   <stop id="stop856" stop-color="#ffffff" stop-opacity="0"/>
   <stop offset="1" id="stop857" stop-color="#ffa617" stop-opacity=".733"/>
  </linearGradient>
  <linearGradient gradientUnits="userSpaceOnUse" gradientTransform="scale(1.4586159,0.68558144)" xlink:href="#linearGradient855" id="linearGradient854" x1="157.81" y1="120.96" x2="155.41" y2="231.63"/>
  <clipPath id="clipoutline2">
   <path d="m 55.8,12 0.76,0.16 c 8.84,-2.94 28.68,8.64 24.26,18.96 -1.12,1.62 -0.93,4.5 0.42,6.31 L 56.43,62.25 c -1.39,-1.39 -4.48,-1.36 -5.9,0 L 9.5,101.63 c -3.74,3.59 -0.8,6.64 0.78,8.25 l 7.36,7.36 c 1.61,1.6 5.86,3.76 8.88,0.56 L 65.24,76.99 c 1.35,-1.42 1.36,-4.47 0,-5.87 0,0 0.01,-0.02 0,-0.02 L 90.15,46.2 c 2.63,2.37 5.113827,2.574854 7.47,1.93 4.55057,-1.245432 7.08725,3.206643 9.81,6.46 l -1.23,1.21 c -1.82,1.84 -1.65,4.94 0.39,6.98 2.04,2.04 5.15,2.21 6.97,0.39 l 8.14,-8.13 c 1.82,-1.84 1.65,-4.94 -0.4,-6.97 -1.84,-1.85 -4.51,-2.09 -6.37,-0.77 -5.58,-6.26 -2.65,-7.2 -10.01,-15.35 L 91.13,17.86 C 81.2,8.12 68.3,8.13 55.8,12 z" id="outline2"/>
  </clipPath>
 </defs>
 <g id="g1327">
  <path d="M 66.275,1.768 C 24.94,1.768 1.704,23.139 1.704,66.804 L 1.704,516.927 C 1.704,557.771 22.599,579.156 63.896,579.156 L 515.92,579.156 C 557.227,579.156 578.149,558.841 578.149,516.927 L 578.149,66.804 C 578.149,24.203 557.227,1.768 514.628,1.768 C 514.624,1.768 66.133,1.625 66.275,1.768 z " id="path1329" fill="#8E7409" stroke="#eee" stroke-width="3.408"/>
 </g>
 <rect id="rect2311" height="35.05" width="178.95" y="437.77" x="32.726" opacity=".6" fill="#ffffff"/>
 <rect id="rect2313" height="35.05" width="178.95" y="384.72" x="32.726" opacity=".6" fill="#ffffff"/>
 <path d="M 203.3125 331.53125 L 32.71875 331.53125 L 32.71875 366.59375 L 211.6875 366.59375 L 211.6875 341.40625 C 209.72308 339.40106 207.81949 337.32309 206.03125 335.15625 C 205.06967 333.99108 204.22054 332.74056 203.3125 331.53125 z " id="path4936" opacity=".6" fill="#ffffff"/>
 <path d="M 183.875 278.28125 L 32.71875 278.28125 L 32.71875 313.34375 L 192.5 313.34375 C 192.12146 312.51432 191.66846 311.71659 191.3125 310.875 C 190.06846 307.93375 188.95775 304.92301 188 301.84375 C 187.04225 298.76449 186.24873 295.63829 185.59375 292.4375 C 184.93877 289.23671 184.42948 285.96209 184.09375 282.65625 C 183.94733 281.21444 183.95845 279.74079 183.875 278.28125 z " id="path4933" opacity=".6" fill="#ffffff"/>
 <path d="M 342.75 349.78125 C 340.83887 351.28995 338.92826 352.7902 336.90625 354.15625 C 334.29044 355.92346 331.59927 357.57989 328.8125 359.09375 C 326.02573 360.60761 323.12875 361.97471 320.1875 363.21875 C 317.24625 364.46279 314.23551 365.5735 311.15625 366.53125 C 308.07699 367.489 304.95079 368.28252 301.75 368.9375 C 298.54921 369.59248 295.27459 370.10177 291.96875 370.4375 C 288.66291 370.77323 285.33191 370.9375 281.9375 370.9375 C 278.54309 370.9375 275.18084 370.77323 271.875 370.4375 C 268.56916 370.10177 265.29454 369.59248 262.09375 368.9375 C 258.89296 368.28252 255.76676 367.489 252.6875 366.53125 C 249.60824 365.5735 246.5975 364.46279 243.65625 363.21875 C 240.82279 362.0203 238.06537 360.69914 235.375 359.25 L 235.375 472.75 L 371.65625 472.75 L 342.75 349.78125 z " id="path4916" fill="#ffffff"/>
 <path d="M 264.15625 86.84375 L 235.375 86.96875 L 235.375 186 C 238.06551 184.55077 240.82264 183.19852 243.65625 182 C 246.5975 180.75596 249.60824 179.64525 252.6875 178.6875 C 255.76676 177.72975 258.89296 176.93623 262.09375 176.28125 C 265.29454 175.62627 268.56916 175.11698 271.875 174.78125 C 275.18084 174.44552 278.54309 174.28125 281.9375 174.28125 C 285.33191 174.28125 288.66291 174.44552 291.96875 174.78125 C 295.27459 175.11698 298.54921 175.62627 301.75 176.28125 C 301.83495 176.29863 301.91513 176.32615 302 176.34375 L 284.09375 100.125 C 280.82609 92.372326 273.06223 86.84375 264.15625 86.84375 z " id="path2319" fill="#ffffff"/>
 <path d="M 195.78125 225.25 L 32.71875 225.25 L 32.71875 260.15625 L 184.46875 260.15625 C 184.78224 257.68231 185.09996 255.19433 185.59375 252.78125 C 186.24873 249.58046 187.04225 246.45426 188 243.375 C 188.95775 240.29574 190.06846 237.285 191.3125 234.34375 C 192.55654 231.4025 193.95489 228.53677 195.46875 225.75 C 195.56278 225.5769 195.68621 225.42247 195.78125 225.25 z " id="path4930" opacity=".6" fill="#ffffff"/>
 <path d="M 32.71875 172.0625 L 32.71875 207.125 L 208.6875 207.125 C 209.68024 206.01569 210.64602 204.8756 211.6875 203.8125 L 211.6875 172.0625 L 32.71875 172.0625 z " id="rect2323" opacity=".6" fill="#ffffff"/>
 <rect id="rect2325" height="35.05" width="178.95" y="118.88" x="32.726" opacity=".6" fill="#ffffff"/>
 <path id="path2327" d="m 388.32414,442.25613 c 2.62695,0.51257 5.25388,0.76886 7.88083,0.76886 6.98382,0 13.64729,-1.60179 19.5419,-4.22874 6.15089,-2.88324 12.87843,-4.48503 20.11854,-4.48503 7.11197,0 13.90358,1.60179 20.05447,4.48503 5.89461,2.62695 12.62216,4.22874 19.5419,4.22874 6.91976,0 13.51915,-1.60179 19.5419,-4.22874 6.02275,-2.88324 12.87844,-4.48503 20.05447,-4.48503 7.17605,0 14.03173,1.60179 20.11856,4.48503 5.8946,2.62695 12.49399,4.22874 19.54189,4.22874 v 29.15266 c -6.98383,0 -13.64729,-1.47365 -19.54189,-4.10059 -6.1509,-2.88323 -13.00659,-4.48503 -20.11856,-4.48503 -7.11196,0 -14.03172,1.6018 -20.05447,4.48503 -6.02275,2.62694 -12.62214,4.10059 -19.5419,4.10059 -6.91974,0 -13.64729,-1.47365 -19.5419,-4.10059 -6.15089,-2.88323 -12.87843,-4.48503 -20.05447,-4.48503 -7.24011,0 -14.03173,1.6018 -20.11854,4.48503 -5.89461,2.62694 -12.494,4.10059 -19.5419,4.10059 -0.38443,0 -0.76886,0 -1.1533,0 l -6.72753,-29.92152 z" inkscape:connector-curvature="0" opacity=".6" fill="#ffffff"/>
 <path id="path2329" d="m 376.66307,385.04001 c 6.02275,2.62695 12.62214,4.22874 19.5419,4.22874 6.98382,0 13.64729,-1.60179 19.5419,-4.22874 6.15089,-2.88323 12.87843,-4.48502 20.11854,-4.48502 7.11197,0 13.90358,1.60179 20.05447,4.48502 5.89461,2.62695 12.62216,4.22874 19.5419,4.22874 6.91976,0 13.51915,-1.60179 19.5419,-4.22874 6.02275,-2.88323 12.87844,-4.48502 20.05447,-4.48502 7.17605,0 14.03173,1.60179 20.11856,4.48502 5.8946,2.62695 12.49399,4.22874 19.54189,4.22874 v 29.15267 c -6.98383,0 -13.64729,-1.47365 -19.54189,-4.1006 -6.1509,-2.88323 -13.00659,-4.48502 -20.11856,-4.48502 -7.11196,0 -14.03172,1.60179 -20.05447,4.48502 -6.02275,2.62695 -12.62214,4.1006 -19.5419,4.1006 -6.91974,0 -13.64729,-1.47365 -19.5419,-4.1006 -6.15089,-2.88323 -12.87843,-4.48502 -20.05447,-4.48502 -7.24011,0 -14.03173,1.60179 -20.11854,4.48502 -5.89461,2.62695 -12.494,4.1006 -19.5419,4.1006 -4.22874,0 -8.39341,-0.51258 -12.36586,-1.6018 l -7.17604,-31.77961 z" inkscape:connector-curvature="0" opacity=".6" fill="#ffffff"/>
 <g id="g5452" transform="matrix(0.79534618,0,0,0.79534618,57.696927,55.790908)">
  <path inkscape:connector-curvature="0" id="path4893" d="m 380.26257,272.61111 c 0,54.31062 -44.02746,98.33807 -98.33807,98.33807 -54.31061,0 -98.33806,-44.02745 -98.33806,-98.33807 0,-54.31061 44.02745,-98.33805 98.33806,-98.33805 54.31061,0 98.33807,44.02744 98.33807,98.33805 z" fill="none" stroke="#ffffff" stroke-linejoin="round" stroke-linecap="round" stroke-width="10.79"/>
  <path d="m 293.5521,272.61112 c 0,6.42175 -5.20585,11.6276 -11.6276,11.6276 -6.42174,0 -11.62759,-5.20585 -11.62759,-11.6276 0,-6.42175 5.20585,-11.6276 11.62759,-11.6276 6.42175,0 11.6276,5.20585 11.6276,11.6276 z" id="path5446" inkscape:connector-curvature="0" fill="#ffffff" stroke="#ffffff" stroke-linejoin="round" stroke-linecap="round" stroke-width="1.276"/>
  <path sodipodi:nodetypes="cccccc" inkscape:connector-curvature="0" id="path5448" d="m 277.34127,271.3955 -68.66402,-65.78704 27.61905,-19.94709 23.01587,-9.20635 22.82407,90.7209 z" opacity=".6" fill="#ffffff" stroke="#ffffff" stroke-linejoin="round" stroke-linecap="round" stroke-width="10"/>
  <path d="m 285.47222,272.45502 68.66402,65.78704 -27.61905,19.94709 -23.01587,9.20635 -22.82407,-90.7209 z" id="path5450" inkscape:connector-curvature="0" sodipodi:nodetypes="cccccc" opacity=".6" fill="#ffffff" stroke="#ffffff" stroke-linejoin="round" stroke-linecap="round" stroke-width="10"/>
 </g>
</svg>
