<?xml version="1.0" encoding="UTF-8" standalone="no"?>
<svg xmlns="http://www.w3.org/2000/svg" xmlns:xlink="http://www.w3.org/1999/xlink" xmlns:sodipodi="http://sodipodi.sourceforge.net/DTD/sodipodi-0.dtd" xmlns:inkscape="http://www.inkscape.org/namespaces/inkscape" version="1.0" width="580" height="580">
 <metadata id="metadata10"/>
 <defs id="defs4">
  <linearGradient gradientUnits="userSpaceOnUse" x2="474.02" x1="251.28" id="linearGradient3834" xlink:href="#linearGradient3828" inkscape:collect="always"/>
  <linearGradient id="linearGradient3828">
   <stop id="stop3830" stop-color="#cccccc" stop-opacity="0"/>
   <stop offset=".125" id="stop3840" stop-color="#cccccc" stop-opacity=".655"/>
   <stop offset=".5" id="stop3836" stop-color="#cccccc"/>
   <stop id="stop3832" offset="1" stop-color="#cccccc" stop-opacity="0"/>
  </linearGradient>
 </defs>
 <g id="g1327">
  <path d="M 66.275,1.768 C 24.94,1.768 1.704,23.139 1.704,66.804 L 1.704,516.927 C 1.704,557.771 22.598,579.156 63.896,579.156 L 515.92,579.156 C 557.227,579.156 578.149,558.84 578.149,516.927 L 578.149,66.804 C 578.149,24.203 557.227,1.768 514.627,1.768 C 514.624,1.768 66.133,1.625 66.275,1.768 z" id="path1329" fill="#8E7409" stroke="#eeeeee" stroke-width="3.408"/>
 </g>
 <path d="m 204.84375,178.21875 -13.78125,365.9375 c 84.45205,1.20517 150.16975,0.9375 235.90625,0.9375 l 0,-113.65625 -183.625,0 -5.9375,-253.21875 z" id="rect3947" inkscape:connector-curvature="0" sodipodi:nodetypes="ccccccc" opacity=".8" fill="#ffffff" stroke="#ffffff" stroke-linejoin="round" stroke-linecap="round" stroke-width="7.886"/>
 <path sodipodi:type="star" id="path3051" sodipodi:sides="3" sodipodi:cx="77.084686" sodipodi:cy="214.94217" sodipodi:r1="346.8634" sodipodi:r2="52.029507" sodipodi:arg1="1.3089969" sodipodi:arg2="2.3561945" inkscape:flatsided="false" inkscape:rounded="0.07" inkscape:randomized="0" d="M 166.85955,549.98649 C 144.95255,555.85645 56.331311,267.76963 40.294269,251.73259 24.257227,235.69555 -263.8296,147.07433 -257.95964,125.16733 -252.08967,103.26032 41.711454,170.55549 63.61846,164.68552 85.525465,158.81556 306.3171,-46.364346 322.35414,-30.327305 338.39118,-14.290264 133.21129,206.50139 127.34133,228.4084 c -5.86996,21.907 61.42523,315.70812 39.51822,321.57809 z" inkscape:transform-center-x="-26.81099" inkscape:transform-center-y="-17.315684" transform="matrix(0.27803241,0.41038456,-0.41038456,0.27803241,284.11027,99.01502)" fill="#ffffff" fill-rule="evenodd" stroke="#ffffff" stroke-linecap="round" stroke-width="1.999"/>
 <path sodipodi:type="arc" id="path3053" sodipodi:cx="366.15225" sodipodi:cy="293.77878" sodipodi:rx="33.286572" sodipodi:ry="33.286572" d="m 399.43882,293.77878 a 33.286572,33.286572 0 1 1 -66.57314,0 33.286572,33.286572 0 1 1 66.57314,0 z" transform="matrix(0.49569901,0,0,0.49569901,35.820182,45.691874)" fill="#ffffff" fill-rule="evenodd" stroke="#ffffff" stroke-linecap="round" stroke-width="1.999"/>
</svg>
