<?xml version="1.0" encoding="UTF-8" standalone="no"?>
<svg xmlns="http://www.w3.org/2000/svg" xmlns:sodipodi="http://sodipodi.sourceforge.net/DTD/sodipodi-0.dtd" xmlns:inkscape="http://www.inkscape.org/namespaces/inkscape" version="1.0" width="580" height="580">
 <metadata id="metadata2975"/>
 <defs id="defs4">
  <symbol id="symbol-university" viewBox="244.5 110 489 219.9">
   <path d="M79,43l57,119c0,0,21-96,104-96s124,106,124,106l43-133l82-17L0,17L79,43z" id="path4460"/>
   <path fill="none" stroke="#000000" stroke-width="20" d="M94,176l-21,39" id="path4462"/>
   <path d="M300,19c0,10.5-22.6,19-50.5,19S199,29.5,199,19s22.6-19,50.5-19S300,8.5,300,19z" id="path4464"/>
   <path ill="none" stroke="#000000" stroke-width="20" d="M112,216l-16-38L64,88c0,0-9-8-4-35s16-24,16-24" id="path4466"/>
  </symbol>
 </defs>
 <g id="g1327">
  <path d="M 66.275,1.768 C 24.94,1.768 1.704,23.139 1.704,66.804 L 1.704,516.927 C 1.704,557.771 22.599,579.156 63.896,579.156 L 515.92,579.156 C 557.227,579.156 578.149,558.841 578.149,516.927 L 578.149,66.804 C 578.149,24.203 557.227,1.768 514.628,1.768 C 514.624,1.768 66.133,1.625 66.275,1.768 z " id="path1329" fill="#0092DA" stroke="#eee" stroke-width="3.408"/>
 </g>
 <path d="M 289.48774,29.657611 L 31.331019,257.74216 L 82.962024,257.74216 L 82.962024,552.34528 L 237.8564,552.34528 L 237.8564,378.47989 L 344.65937,378.47989 L 344.65973,552.34528 L 496.01347,552.34528 L 496.01347,257.74216 L 547.64482,257.74216 L 289.48774,29.657611 L 289.48774,29.657611 L 289.48774,29.657611 z" id="path645" sodipodi:nodetypes="cccccccccccccc" opacity=".25" fill="#ffffff" fill-rule="evenodd" stroke="#ffffff" stroke-width="1.37"/>
 <path sodipodi:nodetypes="cccccccccccccc" id="path9518" d="M 289.48774,29.657611 L 31.331019,257.74216 L 82.962024,257.74216 L 82.962024,552.34528 L 237.8564,552.34528 L 237.8564,378.47989 L 344.65937,378.47989 L 344.65973,552.34528 L 496.01347,552.34528 L 496.01347,257.74216 L 547.64482,257.74216 L 289.48774,29.657611 L 289.48774,29.657611 L 289.48774,29.657611 z" fill="none" fill-rule="evenodd" stroke="#ffffff" stroke-linejoin="round" stroke-linecap="round" stroke-width="12.805"/>
 <path d="M 125.62492,223.03687 L 185.24992,223.03687 C 195.18734,223.03697 202.81624,225.4979 208.13664,230.41968 C 213.45686,235.34164 216.11701,241.43539 216.11711,248.70093 C 216.11701,254.79475 214.21857,260.02131 210.4218,264.38062 C 207.89046,267.28692 204.18733,269.5838 199.31242,271.27124 C 206.71858,273.05254 212.1678,276.11113 215.66008,280.44702 C 219.15216,284.783 220.89826,290.23221 220.89836,296.79468 C 220.89826,302.13845 219.65607,306.94313 217.1718,311.20874 C 214.68732,315.47438 211.28889,318.84937 206.97649,321.33374 C 204.30452,322.88062 200.27328,324.00562 194.88274,324.70874 C 187.71079,325.64624 182.95298,326.11499 180.6093,326.11499 L 125.62492,326.11499 L 125.62492,223.03687 z M 157.75774,263.46655 L 171.6093,263.46655 C 176.57799,263.46662 180.03501,262.61115 181.98039,260.90015 C 183.92564,259.18928 184.89829,256.71662 184.89836,253.48218 C 184.89829,250.48225 183.92564,248.13851 181.98039,246.45093 C 180.03501,244.76351 176.6483,243.91976 171.82024,243.91968 L 157.75774,243.91968 L 157.75774,263.46655 z M 157.75774,303.96655 L 173.99992,303.96655 C 179.48423,303.96657 183.35142,302.99392 185.60149,301.04858 C 187.85141,299.1033 188.97641,296.49002 188.97649,293.20874 C 188.97641,290.1619 187.86313,287.71268 185.63664,285.86108 C 183.41001,284.00956 179.50767,283.08378 173.92961,283.08374 L 157.75774,283.08374 L 157.75774,303.96655 z M 318.84367,275.98218 L 341.20305,280.97437 C 340.03106,285.09941 338.90606,288.40409 337.82805,290.88843 C 336.74981,293.37284 335.22638,296.30252 333.25774,299.67749 L 344.01555,307.0603 C 345.32793,307.90407 347.01543,308.91188 349.07805,310.08374 L 333.67961,327.80249 C 330.86701,326.30249 327.94904,324.56812 324.9257,322.59937 C 321.90217,320.63062 319.19514,318.94312 316.80461,317.53687 C 311.83578,320.81812 306.86703,323.20874 301.89836,324.70874 C 295.00767,326.77124 287.17955,327.80249 278.41399,327.80249 C 264.67957,327.80249 254.46083,324.94312 247.75774,319.22437 C 241.0546,313.50563 237.70304,306.56813 237.70305,298.41187 C 237.70304,292.55252 239.67179,287.00956 243.6093,281.78296 C 247.54678,276.55645 253.99208,272.13848 262.94524,268.52905 C 259.1952,263.98224 256.61708,260.03303 255.21086,256.6814 C 253.80458,253.32991 253.10146,249.91975 253.10149,246.45093 C 253.10146,239.13851 255.89052,233.11508 261.46867,228.38062 C 267.04676,223.64634 275.50769,221.27916 286.85149,221.27905 C 298.42954,221.27916 306.93734,223.52916 312.37492,228.02905 C 317.81233,232.52915 320.53108,237.91977 320.53117,244.20093 C 320.53108,247.71663 319.69905,251.09163 318.03508,254.32593 C 316.37093,257.56037 314.36702,260.18537 312.02336,262.20093 C 309.67953,264.21661 305.48422,267.21661 299.43742,271.20093 C 304.45297,276.2166 309.67953,280.88066 315.11711,285.19312 C 316.57015,282.28691 317.81233,279.2166 318.84367,275.98218 L 318.84367,275.98218 z M 285.93742,257.91187 C 289.64049,255.89631 292.49986,253.70491 294.51555,251.33765 C 296.5311,248.97054 297.53892,246.73226 297.53899,244.6228 C 297.53892,242.41976 296.69517,240.55648 295.00774,239.03296 C 293.32017,237.50961 290.99986,236.74789 288.0468,236.7478 C 285.14049,236.74789 282.77331,237.59164 280.94524,239.27905 C 279.11706,240.96664 278.203,242.95882 278.20305,245.25562 C 278.203,248.16194 280.78112,252.38069 285.93742,257.91187 L 285.93742,257.91187 z M 275.74211,282.94312 C 271.80457,285.70878 269.19129,288.07597 267.90227,290.04468 C 266.61317,292.01346 265.96863,294.0994 265.96867,296.30249 C 265.96863,299.72439 267.4452,302.77126 270.39836,305.44312 C 273.35144,308.11501 277.19519,309.45094 281.92961,309.45093 C 287.03893,309.45094 292.78111,307.45876 299.15617,303.47437 C 293.06236,298.78689 285.25768,291.94315 275.74211,282.94312 L 275.74211,282.94312 z M 365.53117,223.03687 L 425.15617,223.03687 C 435.09359,223.03697 442.72249,225.4979 448.04289,230.41968 C 453.36311,235.34164 456.02326,241.43539 456.02336,248.70093 C 456.02326,254.79475 454.12482,260.02131 450.32805,264.38062 C 447.79671,267.28692 444.09358,269.5838 439.21867,271.27124 C 446.62483,273.05254 452.07405,276.11113 455.56633,280.44702 C 459.05841,284.783 460.80451,290.23221 460.80461,296.79468 C 460.80451,302.13845 459.56232,306.94313 457.07805,311.20874 C 454.59357,315.47438 451.19514,318.84937 446.88274,321.33374 C 444.21077,322.88062 440.17953,324.00562 434.78899,324.70874 C 427.61704,325.64624 422.85923,326.11499 420.51555,326.11499 L 365.53117,326.11499 L 365.53117,223.03687 z M 397.66399,263.46655 L 411.51555,263.46655 C 416.48424,263.46662 419.94126,262.61115 421.88664,260.90015 C 423.83189,259.18928 424.80454,256.71662 424.80461,253.48218 C 424.80454,250.48225 423.83189,248.13851 421.88664,246.45093 C 419.94126,244.76351 416.55455,243.91976 411.72649,243.91968 L 397.66399,243.91968 L 397.66399,263.46655 z M 397.66399,303.96655 L 413.90617,303.96655 C 419.39048,303.96657 423.25767,302.99392 425.50774,301.04858 C 427.75766,299.1033 428.88266,296.49002 428.88274,293.20874 C 428.88266,290.1619 427.76938,287.71268 425.54289,285.86108 C 423.31626,284.00956 419.41392,283.08378 413.83586,283.08374 L 397.66399,283.08374 L 397.66399,303.96655 z" id="text9544" fill="#ffffff"/>
</svg>
