<?xml version="1.0" encoding="UTF-8" standalone="no"?>
<svg xmlns="http://www.w3.org/2000/svg" xmlns:sodipodi="http://sodipodi.sourceforge.net/DTD/sodipodi-0.dtd" xmlns:inkscape="http://www.inkscape.org/namespaces/inkscape" version="1.0" width="580" height="580">
 <metadata id="metadata2975"/>
 <defs id="defs4">
  <symbol id="symbol-university" viewBox="244.5 110 489 219.9">
   <path d="M79,43l57,119c0,0,21-96,104-96s124,106,124,106l43-133l82-17L0,17L79,43z" id="path4460"/>
   <path fill="none" stroke="#000000" stroke-width="20" d="M94,176l-21,39" id="path4462"/>
   <path d="M300,19c0,10.5-22.6,19-50.5,19S199,29.5,199,19s22.6-19,50.5-19S300,8.5,300,19z" id="path4464"/>
   <path ill="none" stroke="#000000" stroke-width="20" d="M112,216l-16-38L64,88c0,0-9-8-4-35s16-24,16-24" id="path4466"/>
  </symbol>
 </defs>
 <g id="g1327">
  <path d="M 66.275,1.768 C 24.94,1.768 1.704,23.139 1.704,66.804 L 1.704,516.927 C 1.704,557.771 22.599,579.156 63.896,579.156 L 515.92,579.156 C 557.227,579.156 578.149,558.841 578.149,516.927 L 578.149,66.804 C 578.149,24.203 557.227,1.768 514.628,1.768 C 514.624,1.768 66.133,1.625 66.275,1.768 z " id="path1329" fill="#0092DA" stroke="#eee" stroke-width="3.408"/>
 </g>
 <path d="m 20.798111,209.9188 99.932659,0 c 16.65531,1.7e-4 29.44148,4.12474 38.35859,12.37373 8.91679,8.24932 13.37525,18.46254 13.37541,30.63973 -1.6e-4,10.21337 -3.18199,18.97318 -9.54545,26.27947 -4.24257,4.87101 -10.44909,8.72062 -18.61954,11.54882 12.41288,2.98549 21.54588,8.11174 27.399,15.37877 5.8528,7.2672 8.77929,16.40018 8.77947,27.39901 -1.8e-4,8.95626 -2.08211,17.009 -6.24579,24.15823 -4.16404,7.14931 -9.85987,12.80586 -17.08755,16.96971 -4.47826,2.59261 -11.23471,4.47812 -20.26935,5.65657 -12.02032,1.57125 -19.99452,2.35689 -23.92255,2.35689 l -92.154899,0 0,-172.76093 z m 53.855232,67.76093 23.215476,0 c 8.327621,1.1e-4 14.121661,-1.43367 17.382151,-4.30134 3.26028,-2.86744 4.89047,-7.01167 4.89057,-12.43266 -1e-4,-5.02794 -1.63029,-8.95608 -4.89057,-11.7845 -3.26049,-2.82816 -8.93669,-4.2423 -17.02862,-4.24243 l -23.569007,0 0,32.76093 z m 0,67.87879 27.222197,0 c 9.19182,4e-5 15.6733,-1.63014 19.44445,-4.89058 3.77092,-3.26031 5.65644,-7.64023 5.65657,-13.13972 -1.3e-4,-5.10656 -1.86602,-9.2115 -5.59764,-12.31482 -3.73188,-3.10318 -10.27228,-4.6548 -19.62121,-4.65487 l -27.104367,0 0,34.99999 z m 261.685917,-46.90235 37.47476,8.36701 c -1.96428,6.91365 -3.84981,12.45236 -5.65657,16.61616 -1.80715,4.16391 -4.36045,9.07411 -7.65993,14.73063 l 18.0303,12.37374 c 2.19958,1.41417 5.02786,3.10327 8.48484,5.06734 l -25.80807,29.69697 c -4.71398,-2.51402 -9.60456,-5.42086 -14.67174,-8.72053 -5.06749,-3.29966 -9.60453,-6.12794 -13.61109,-8.48486 -8.32786,5.49945 -16.65558,9.50617 -24.98317,12.02021 -11.54893,3.45678 -24.66901,5.18518 -39.36025,5.18518 -23.01916,0 -40.14597,-4.79236 -51.38048,-14.37709 -11.2346,-9.58473 -16.85188,-21.21212 -16.85185,-34.88217 -3e-5,-9.82038 3.29963,-19.11048 9.89897,-27.87036 6.5993,-8.75974 17.40175,-16.16434 32.40743,-22.21382 -6.28514,-7.62054 -10.60612,-14.23949 -12.96299,-19.85689 -2.35693,-5.61716 -3.53539,-11.33266 -3.53534,-17.14646 -5e-5,-12.25577 4.67447,-22.35115 14.02355,-30.2862 9.349,-7.93475 23.52968,-11.90219 42.54211,-11.90237 19.40503,1.8e-4 33.66428,3.77123 42.77777,11.31313 9.1132,7.54226 13.66988,16.57704 13.67003,27.1044 -1.5e-4,5.89237 -1.39465,11.54893 -4.1835,16.96968 -2.78914,5.42099 -6.14773,9.82055 -10.07576,13.19866 -3.92829,3.37832 -10.95972,8.40637 -21.09427,15.08418 8.40616,8.40636 17.16598,16.22342 26.27947,23.45118 2.43532,-4.87087 4.51723,-10.01676 6.24578,-15.43772 l 0,0 z m -55.15151,-30.28618 c 6.20641,-3.37813 10.99878,-7.05096 14.37711,-11.01853 3.3781,-3.96732 5.06723,-7.71873 5.06735,-11.25423 -1.2e-4,-3.69232 -1.41427,-6.81522 -4.24243,-9.36868 -2.8284,-2.55315 -6.71729,-3.82981 -11.66667,-3.82996 -4.87104,1.5e-4 -8.83848,1.4143 -11.90236,4.24242 -3.06406,2.82843 -4.59605,6.16736 -4.59597,10.01685 -8e-5,4.87104 4.32091,11.94175 12.96297,21.21213 l 0,0 z m -17.08754,41.95284 c -6.5994,4.63531 -10.97931,8.60277 -13.13972,11.90236 -2.16056,3.29971 -3.24083,6.79579 -3.24076,10.48821 -7e-5,5.73518 2.4747,10.84179 7.42424,15.31988 4.94943,4.47814 11.39162,6.71717 19.3266,6.71716 8.56332,10e-6 18.18734,-3.3389 28.87206,-10.01682 -10.21334,-7.85631 -23.29415,-19.32655 -39.24242,-34.41079 l 0,0 z m 140.19097,-100.40403 99.93267,0 c 16.65531,1.7e-4 29.44149,4.12474 38.35858,12.37373 8.91679,8.24932 13.37527,18.46254 13.37543,30.63973 -1.6e-4,10.21337 -3.18199,18.97318 -9.54545,26.27947 -4.24258,4.87101 -10.44909,8.72062 -18.61953,11.54882 12.41286,2.98549 21.54586,8.11174 27.39899,15.37877 5.85279,7.2672 8.77929,16.40018 8.77945,27.39901 -1.6e-4,8.95626 -2.08209,17.009 -6.24577,24.15823 -4.16405,7.14931 -9.85988,12.80586 -17.08756,16.96971 -4.47827,2.59261 -11.23469,4.47812 -20.26934,5.65657 -12.02033,1.57125 -19.99452,2.35689 -23.92257,2.35689 l -92.1549,0 0,-172.76093 z m 53.85524,67.76093 23.21548,0 c 8.32763,1.1e-4 14.12166,-1.43367 17.38216,-4.30134 3.26027,-2.86744 4.89045,-7.01167 4.89057,-12.43266 -1.2e-4,-5.02794 -1.6303,-8.95608 -4.89057,-11.7845 -3.2605,-2.82816 -8.93669,-4.2423 -17.02862,-4.24243 l -23.56902,0 0,32.76093 z m 0,67.87879 27.22221,0 c 9.19182,4e-5 15.6733,-1.63014 19.44446,-4.89058 3.7709,-3.26031 5.65642,-7.64023 5.65656,-13.13972 -1.4e-4,-5.10656 -1.86602,-9.2115 -5.59765,-12.31482 -3.73188,-3.10318 -10.27226,-4.6548 -19.62121,-4.65487 l -27.10437,0 0,34.99999 z" id="text9544" sodipodi:nodetypes="ccssscssscccccccssscccccssscccccsccccsccsssscsssssssscccccsssssscccsssscccccssscssscccccccssscccccsssccc" fill="#ffffff"/>
</svg>
