<?xml version="1.0" encoding="UTF-8" standalone="no"?>
<svg xmlns="http://www.w3.org/2000/svg" xmlns:sodipodi="http://sodipodi.sourceforge.net/DTD/sodipodi-0.dtd" xmlns:inkscape="http://www.inkscape.org/namespaces/inkscape" version="1.0" width="580" height="580">
 <metadata id="metadata2975"/>
 <defs id="defs4">
  <symbol viewBox="244.5 110 489 219.9" id="symbol-university">
   <path id="path4460" d="M79,43l57,119c0,0,21-96,104-96s124,106,124,106l43-133l82-17L0,17L79,43z"/>
   <path id="path4462" d="M94,176l-21,39" stroke-width="20" stroke="#000000" fill="none"/>
   <path id="path4464" d="M300,19c0,10.5-22.6,19-50.5,19S199,29.5,199,19s22.6-19,50.5-19S300,8.5,300,19z"/>
   <path id="path4466" d="M112,216l-16-38L64,88c0,0-9-8-4-35s16-24,16-24" stroke-width="20" stroke="#000000" ill="none"/>
  </symbol>
 </defs>
 <g id="g1327">
  <path d="M 66.275,1.768 C 24.94,1.768 1.704,23.139 1.704,66.804 L 1.704,516.927 C 1.704,557.771 22.599,579.156 63.896,579.156 L 515.92,579.156 C 557.227,579.156 578.149,558.841 578.149,516.927 L 578.149,66.804 C 578.149,24.203 557.227,1.768 514.628,1.768 C 514.624,1.768 66.133,1.625 66.275,1.768 z " id="path1329" fill="#0092DA" stroke="#eee" stroke-width="3.408"/>
 </g>
 <path transform="matrix(14.685839,0,0,14.685839,565.76584,1146.0639)" d="M -8.7426758,-60.988525 C -8.7427061,-60.215399 -9.115834,-59.828844 -9.8620605,-59.828857 L -13.822021,-59.828857 C -14.569116,-59.828844 -14.942651,-60.215399 -14.942627,-60.988525 L -14.942627,-62.868408 C -14.942651,-63.615461 -14.569116,-63.988996 -13.822021,-63.989014 L -9.8620605,-63.989014 C -9.115834,-63.988996 -8.7427061,-63.615461 -8.7426758,-62.868408 L -8.7426758,-60.988525 z M -20.021973,-60.948242 C -20.021992,-60.201972 -20.408954,-59.828844 -21.182861,-59.828857 L -29.742432,-59.828857 C -30.489511,-59.828844 -30.863045,-60.201972 -30.863037,-60.948242 L -30.863037,-62.868408 C -30.863045,-63.615461 -30.489511,-63.988996 -29.742432,-63.989014 L -21.182861,-63.989014 C -20.408954,-63.988996 -20.021992,-63.615461 -20.021973,-62.868408 L -20.021973,-60.948242 z M -2.4621582,-51.947998 L -5.3430176,-51.947998 L -5.3430176,-61.947998 C -5.3430513,-63.495018 -5.8830084,-64.80178 -6.9628906,-65.868286 C -8.042837,-66.934753 -9.3428845,-67.467996 -10.863037,-67.468018 L -29.58252,-67.468018 C -31.129565,-67.467996 -32.436327,-66.934753 -33.502808,-65.868286 C -34.5693,-64.80178 -35.102543,-63.495018 -35.102539,-61.947998 L -35.102539,-54.86792 C -35.102543,-53.748121 -34.70256,-52.788242 -33.902588,-51.988281 C -33.102626,-51.188309 -32.142748,-50.788325 -31.022949,-50.78833 L -24.58252,-50.78833 C -24.502781,-51.934971 -24.049494,-52.908278 -23.222656,-53.708252 C -22.39585,-54.508211 -21.395688,-54.908194 -20.222168,-54.908203 C -19.075541,-54.908194 -18.082296,-54.508211 -17.242432,-53.708252 C -16.402611,-52.908278 -15.955834,-51.948399 -15.9021,-50.828613 L -1.3427734,-50.828613 C -1.3428112,-51.574864 -1.715939,-51.947992 -2.4621582,-51.947998 L -2.4621582,-51.947998 z M -20.222168,-49.148926 C -20.595722,-49.148923 -20.915749,-49.282183 -21.182251,-49.548706 C -21.448789,-49.815223 -21.582049,-50.13525 -21.582031,-50.508789 C -21.582049,-50.908361 -21.448789,-51.234899 -21.182251,-51.488403 C -20.915749,-51.741897 -20.595722,-51.868647 -20.222168,-51.868652 C -19.849466,-51.868647 -19.529642,-51.741897 -19.262695,-51.488403 C -18.995788,-51.234899 -18.862325,-50.908361 -18.862305,-50.508789 C -18.862325,-50.13525 -18.995788,-49.815223 -19.262695,-49.548706 C -19.529642,-49.282183 -19.849466,-49.148923 -20.222168,-49.148926 L -20.222168,-49.148926 z M -20.222168,-53.667969 C -21.10272,-53.667961 -21.849586,-53.361362 -22.462769,-52.748169 C -23.075984,-52.134963 -23.382584,-51.388504 -23.382568,-50.508789 C -23.382584,-49.655107 -23.075984,-48.921669 -22.462769,-48.308472 C -21.849586,-47.69527 -21.10272,-47.388671 -20.222168,-47.388672 C -19.369323,-47.388671 -18.636088,-47.69527 -18.022461,-48.308472 C -17.408876,-48.921669 -17.102073,-49.655107 -17.102051,-50.508789 C -17.102073,-51.388504 -17.408876,-52.134963 -18.022461,-52.748169 C -18.636088,-53.361362 -19.369323,-53.667961 -20.222168,-53.667969 L -20.222168,-53.667969 z" id="flowRoot3192" fill="#ffffff"/>
</svg>
