<?xml version="1.0" encoding="UTF-8" standalone="no"?>
<svg xmlns="http://www.w3.org/2000/svg" xmlns:sodipodi="http://sodipodi.sourceforge.net/DTD/sodipodi-0.dtd" xmlns:inkscape="http://www.inkscape.org/namespaces/inkscape" version="1.0" width="580" height="580">
 <metadata id="metadata2975"/>
 <defs id="defs4">
  <symbol viewBox="244.5 110 489 219.9" id="symbol-university">
   <path id="path4460" d="M79,43l57,119c0,0,21-96,104-96s124,106,124,106l43-133l82-17L0,17L79,43z"/>
   <path id="path4462" d="M94,176l-21,39" stroke-width="20" stroke="#000000" fill="none"/>
   <path id="path4464" d="M300,19c0,10.5-22.6,19-50.5,19S199,29.5,199,19s22.6-19,50.5-19S300,8.5,300,19z"/>
   <path id="path4466" d="M112,216l-16-38L64,88c0,0-9-8-4-35s16-24,16-24" stroke-width="20" stroke="#000000" ill="none"/>
  </symbol>
 </defs>
 <g id="g1327">
  <path d="M 66.275,1.768 C 24.94,1.768 1.704,23.139 1.704,66.804 L 1.704,516.927 C 1.704,557.771 22.599,579.156 63.896,579.156 L 515.92,579.156 C 557.227,579.156 578.149,558.841 578.149,516.927 L 578.149,66.804 C 578.149,24.203 557.227,1.768 514.628,1.768 C 514.624,1.768 66.133,1.625 66.275,1.768 z " id="path1329" fill="#0092DA" stroke="#eee" stroke-width="3.408"/>
 </g>
 <path d="M 294.85436,40.131123 L 107.80768,232.10728 L 145.21677,232.10728 L 145.21677,520.07136 L 257.44503,520.07136 L 257.44503,373.73085 L 334.8288,373.73085 L 334.82906,520.07136 L 444.49196,520.07136 L 444.49196,232.10728 L 481.9013,232.10728 L 294.85436,40.131123 L 294.85436,40.131123 L 294.85436,40.131123 z" id="path645" sodipodi:nodetypes="ccccccccccccc" opacity=".351" fill="#ffffff" fill-rule="evenodd" stroke="#ffffff" stroke-width="1.07"/>
 <path d="M 62.520056,279.24853 L 59.51809,513.40195" id="path2157" fill="#ffffff" fill-rule="evenodd" stroke="#ffffff" stroke-width="33.622"/>
 <path d="M 65.522024,426.34491 L 515.81707,429.34687" id="path2159" fill="#ffffff" fill-rule="evenodd" stroke="#ffffff" stroke-width="33.622"/>
 <path d="M 518.81904,504.39605 L 521.821,351.29573" id="path2161" fill="#ffffff" fill-rule="evenodd" stroke="#ffffff" stroke-width="33.622"/>
 <rect id="rect2163" width="237.16" height="42.03" x="236.64" y="340.79" fill="#ffffff" stroke="#ffffff" stroke-width="38.665" rx="21.01"/>
 <path sodipodi:type="arc" id="path2167" sodipodi:cx="7.7678571" sodipodi:cy="16.017857" sodipodi:rx="1.5178572" sodipodi:ry="1.3392857" d="M 9.2857143,16.017857 A 1.5178572,1.3392857 0 1 1 6.2499999,16.017857 A 1.5178572,1.3392857 0 1 1 9.2857143,16.017857 z" transform="matrix(21.577091,0,0,21.652201,2.2326209,-48.06054)" fill="#ffffff" stroke="#ffffff" stroke-width="2.3"/>
 <rect id="rect2169" width="91.56" height="7.505" x="103.05" y="373.81" fill="#ffffff" stroke="#ffffff" stroke-width="33.622" rx="3.752"/>
</svg>
