<?xml version="1.0" encoding="UTF-8" standalone="no"?>
<svg xmlns:sodipodi="http://sodipodi.sourceforge.net/DTD/sodipodi-0.dtd" xmlns:inkscape="http://www.inkscape.org/namespaces/inkscape" version="1.0" width="580" height="580">
 <metadata id="metadata2975"/>
 <g id="g1327">
  <path d="M 66.275,1.768 C 24.94,1.768 1.704,23.139 1.704,66.804 l 0,450.123 c 0,40.844 20.894,62.229 62.192,62.229 l 452.024,0 c 41.307,0 62.229,-20.316 62.229,-62.229 l 0,-450.123 c 0,-42.601 -20.922,-65.036 -63.522,-65.036 -0.003,0 -448.494,-0.143 -448.352,0 z" id="path1329" inkscape:connector-curvature="0" fill="#734A08" stroke="#eeeeee" stroke-width="3.408"/>
 </g>
 <path d="m 203.725,338.602 c 37.643,-17.466 64.864,-67.996 64.864,-127.642 0,-74.115 -61.834,-155.247 -93.849,-155.247 -32.014,0 -93.85,81.132 -93.85,155.247 0,59.646 27.223,110.176 64.865,127.642 l -7.792,176.545 73.553,0 -7.791,-176.545 z" id="path2110" inkscape:connector-curvature="0" fill="#ffffff"/>
 <path d="m 430.231,368.602 c 37.642,-17.466 51.389,-39.928 51.389,-99.574 L 471.839,66.214 c 0,-3.875 -3.142,-7.017 -7.018,-7.017 l -4.607,0 c -3.873,0 -7.016,3.141 -7.016,7.017 l 3.26,202.814 -20.259,0 -5.132,-204.789 c 0,-3.875 -3.142,-7.017 -7.018,-7.017 l -5.995,0 c -3.874,0 -7.016,3.142 -7.016,7.017 l 2.775,204.789 -25.137,0 2.775,-204.789 c 0,-3.875 -3.142,-7.017 -7.017,-7.017 l -5.996,0 c -3.875,0 -7.016,3.142 -7.016,7.017 l -5.132,204.789 -19.835,0 3.26,-202.789 c 0,-3.875 -3.142,-7.017 -7.017,-7.017 l -4.606,0 c -3.875,0 -7.018,3.142 -7.018,7.017 L 320.9,269.028 c 0,59.646 13.715,82.108 51.356,99.574 l -7.791,146.545 73.554,0 -7.788,-146.545 z" id="path2112" inkscape:connector-curvature="0" fill="#ffffff"/>
</svg>
