<?xml version="1.0" encoding="UTF-8" standalone="no"?>
<svg xmlns="http://www.w3.org/2000/svg" xmlns:sodipodi="http://sodipodi.sourceforge.net/DTD/sodipodi-0.dtd" xmlns:inkscape="http://www.inkscape.org/namespaces/inkscape" version="1.0" width="580" height="580">
 <metadata id="metadata10"/>
 <g id="g1327">
  <path d="M 66.275,1.768 C 24.94,1.768 1.704,23.139 1.704,66.804 L 1.704,516.927 C 1.704,557.771 22.598,579.156 63.896,579.156 L 515.92,579.156 C 557.227,579.156 578.149,558.84 578.149,516.927 L 578.149,66.804 C 578.149,24.203 557.227,1.768 514.627,1.768 C 514.624,1.768 66.133,1.625 66.275,1.768 z" id="path1329" fill="#111111" stroke="#eeeeee" stroke-width="3.408"/>
 </g>
 <path d="m 34.702986,408.13437 c 2.367196,-5.48093 32.404879,-47.87543 66.750284,-94.2099 49.25528,-66.44891 74.61409,-89.47895 120.04961,-109.0248 71.12554,-30.59742 142.32874,-32.35525 168.26002,-4.15402 61.33558,66.70455 124.63054,142.87846 142.85807,171.92632 25.68601,40.93369 12.60173,60.07407 -14.50984,21.22601 C 507.42352,378.58371 477.4635,342.01325 451.53328,312.63007 340.43961,186.74287 340.10029,186.61322 236.90791,230.57389 186.18922,252.18048 166.47754,270.06043 123.61005,333.34337 95.06701,375.47997 62.417798,411.78794 51.05624,414.0276 39.69479,416.26738 32.3358,413.61508 34.702986,408.13437 z" id="path2838" sodipodi:nodetypes="csssssssssc" fill="#ffffff"/>
 <path sodipodi:nodetypes="cssscccc" id="path3593" d="m 34.702986,408.13437 c 2.367196,-5.48093 32.404879,-47.87543 66.750284,-94.2099 49.25528,-66.44891 74.61409,-89.47895 120.04961,-109.0248 71.12554,-30.59742 142.32874,-32.35525 168.26002,-4.15402 61.33558,66.70455 124.63054,142.87846 142.85807,171.92632 34.40213,55.71502 -22.68994,62.23235 -174.08769,65.9581 -80.61454,2.31281 -85.24178,0.87361 -168.92323,1.7133 -39.07364,-1.12238 -156.361399,-19.74053 -154.907064,-32.209 z" opacity=".1" fill="#ffffff"/>
 <path sodipodi:nodetypes="cssssc" id="path3638" d="m 150.97846,415.18101 c 0,-32.36715 90.19166,-134.76949 118.69935,-134.76949 45.60596,0 92.84717,28.28822 127.25562,76.20114 20.30607,28.27572 36.92016,54.52123 36.92016,58.32343 0,3.80207 -63.64691,6.91299 -141.43757,6.91299 -77.79065,0 -141.43756,-3.00059 -141.43756,-6.66807 z" fill="#ffffff"/>
</svg>
