<?xml version="1.0" encoding="UTF-8" standalone="no"?>
<svg xmlns="http://www.w3.org/2000/svg" xmlns:sodipodi="http://sodipodi.sourceforge.net/DTD/sodipodi-0.dtd" xmlns:inkscape="http://www.inkscape.org/namespaces/inkscape" version="1.0" width="580" height="580">
 <metadata id="metadata10"/>
 <g id="g1327">
  <path d="M 66.275,1.768 C 24.94,1.768 1.704,23.139 1.704,66.804 L 1.704,516.927 C 1.704,557.771 22.598,579.156 63.896,579.156 L 515.92,579.156 C 557.227,579.156 578.149,558.84 578.149,516.927 L 578.149,66.804 C 578.149,24.203 557.227,1.768 514.627,1.768 C 514.624,1.768 66.133,1.625 66.275,1.768 z" id="path1329" fill="#111111" stroke="#eeeeee" stroke-width="3.408"/>
 </g>
 <g id="g7869" transform="matrix(1.4035676,0,0,1.4035676,482.70151,-226.81019)" stroke="#ffffff">
  <path sodipodi:nodetypes="cccc" id="path5183" d="m -279.31217,527.08594 58.38535,-303.04776 73.67675,-2.7807 44.48407,300.2675" fill="none" stroke-linejoin="round" stroke-linecap="round" stroke-width="27.803"/>
  <path sodipodi:nodetypes="ccccc" id="path5189" d="m -286.2628,222.64805 -1.21975,82.01751 116.60032,-5.5605 L 8.4441909,218.47767 -286.2628,222.64805 z" fill="none" stroke-linejoin="round" stroke-linecap="round" stroke-width="27.803"/>
  <path id="path5191" d="m -272.36153,489.5525 152.91401,-51.43471 -120.94108,-59.77548 108.42993,-55.60509" fill="none" stroke-width="13.901"/>
  <path id="path5193" d="m 18.175082,217.05133 0,204.68937" fill="none" stroke-linejoin="round" stroke-linecap="round" stroke-width="12.293"/>
  <path sodipodi:nodetypes="czz" id="path5199" d="m 16.784955,411.70537 c 0,0 7.157265,27.85726 4.170382,43.09395 -2.986883,15.23668 -45.874202,-5.56051 -45.874202,-5.56051" fill="none" stroke-linejoin="round" stroke-linecap="round" stroke-width="22.24"/>
 </g>
</svg>
