<?xml version="1.0" encoding="UTF-8" standalone="no"?>
<svg xmlns="http://www.w3.org/2000/svg" xmlns:sodipodi="http://sodipodi.sourceforge.net/DTD/sodipodi-0.dtd" xmlns:inkscape="http://www.inkscape.org/namespaces/inkscape" version="1.0" width="580" height="580">
 <metadata id="metadata2975"/>
 <defs id="defs4">
  <symbol id="symbol-university" viewBox="244.5 110 489 219.9">
   <path d="M79,43l57,119c0,0,21-96,104-96s124,106,124,106l43-133l82-17L0,17L79,43z" id="path4460"/>
   <path fill="none" stroke="#000000" stroke-width="20" d="M94,176l-21,39" id="path4462"/>
   <path d="M300,19c0,10.5-22.6,19-50.5,19S199,29.5,199,19s22.6-19,50.5-19S300,8.5,300,19z" id="path4464"/>
   <path ill="none" stroke="#000000" stroke-width="20" d="M112,216l-16-38L64,88c0,0-9-8-4-35s16-24,16-24" id="path4466"/>
  </symbol>
  <symbol viewBox="244.5 110 489 219.9" id="symbol9807">
   <path id="path9809" d="M79,43l57,119c0,0,21-96,104-96s124,106,124,106l43-133l82-17L0,17L79,43z"/>
   <path id="path9811" d="M94,176l-21,39" stroke-width="20" stroke="#000000" fill="none"/>
   <path id="path9813" d="M300,19c0,10.5-22.6,19-50.5,19S199,29.5,199,19s22.6-19,50.5-19S300,8.5,300,19z"/>
   <path id="path9815" d="M112,216l-16-38L64,88c0,0-9-8-4-35s16-24,16-24" stroke-width="20" stroke="#000000" ill="none"/>
  </symbol>
  <linearGradient id="linearGradient2936">
   <stop id="stop2938" stop-color="#8acf6b"/>
   <stop offset="1" id="stop2940" stop-color="#368912"/>
  </linearGradient>
  <linearGradient id="linearGradient2952">
   <stop id="stop2954" stop-color="#c0d50d"/>
   <stop offset="1" id="stop2956" stop-color="#eef2cd"/>
  </linearGradient>
  <marker inkscape:stockid="RazorWire" id="RazorWire" orient="auto">
       style="overflow:visible"&gt;
         <path id="path4286" transform="scale(0.8,0.8)" d="M 0.022727273,-0.74009011 L 0.022727273,0.69740989 L -7.7585227,3.0099099 L 10.678977,3.0099099 L 3.4914773,0.69740989 L 3.4914773,-0.74009011 L 10.741477,-2.8963401 L -7.7272727,-2.8963401 L 0.022727273,-0.74009011 z " fill="#808080" fill-rule="evenodd" stroke="#000000" stroke-width=".125"/></marker>
  <marker inkscape:stockid="DiamondS" orient="auto" refY="0.0" refX="0.0" id="DiamondS">
   <path id="path4202" d="M 0,-7.0710768 L -7.0710894,0 L 0,7.0710589 L 7.0710462,0 L 0,-7.0710768 z " transform="scale(0.2)" fill-rule="evenodd" stroke="#000000" stroke-width="1.25"/>
  </marker>
  <marker inkscape:stockid="Arrow2Sstart" orient="auto" refY="0.0" refX="0.0" id="Arrow2Sstart">
   <path id="path4146" d="M 8.7185878,4.0337352 L -2.2072895,0.016013256 L 8.7185884,-4.0017078 C 6.9730900,-1.6296469 6.9831476,1.6157441 8.7185878,4.0337352 z " transform="scale(0.3) translate(-2.3,0)" fill-rule="evenodd" stroke-linejoin="round" stroke-width=".625"/>
  </marker>
  <marker inkscape:stockid="StopS" orient="auto" refY="0.0" refX="0.0" id="StopS">
   <path id="path4229" d="M 0.0,5.65 L 0.0,-5.65" transform="scale(0.2)" fill="none" fill-rule="evenodd" stroke="#000000" fill-opacity=".75" stroke-width="1.25"/>
  </marker>
  <marker inkscape:stockid="InfiniteLineStart" id="InfiniteLineStart" orient="auto">
   <g id="g4298" transform="translate(-13,0)">
    <circle id="circle4300" r=".8" cx="3"/>
    <circle id="circle4302" r=".8" cx="6.5"/>
    <circle id="circle4304" r=".8" cx="10"/>
   </g>
  </marker>
  <marker inkscape:stockid="CurveIn" orient="auto" refY="0.0" refX="0.0" id="CurveIn">
   <path id="path4238" d="M 4.6254930,-5.0456926 C 1.8654930,-5.0456926 -0.37450702,-2.8056926 -0.37450702,-0.045692580 C -0.37450702,2.7143074 1.8654930,4.9543074 4.6254930,4.9543074" transform="scale(0.6)" fill="none" fill-rule="evenodd" stroke="#000000" stroke-width="1.25"/>
  </marker>
  <marker inkscape:stockid="TriangleOutS" orient="auto" refY="0.0" refX="0.0" id="TriangleOutS">
   <path id="path4220" d="M 5.77,0.0 L -2.88,5.0 L -2.88,-5.0 L 5.77,0.0 z " transform="scale(0.2)" fill-rule="evenodd" stroke="#000000" stroke-width="1.25"/>
  </marker>
  <marker inkscape:stockid="Arrow2Send" orient="auto" refY="0.0" refX="0.0" id="Arrow2Send">
   <path id="path4149" d="M 8.7185878,4.0337352 L -2.2072895,0.016013256 L 8.7185884,-4.0017078 C 6.9730900,-1.6296469 6.9831476,1.6157441 8.7185878,4.0337352 z " transform="scale(0.3) rotate(180) translate(-2.3,0)" fill-rule="evenodd" stroke-linejoin="round" stroke-width=".625"/>
  </marker>
  <marker inkscape:stockid="SemiCircleOut" orient="auto" refY="0.0" refX="0.0" id="SemiCircleOut">
   <path id="path4235" d="M -2.5,-0.80913858 C -2.5,1.9508614 -4.7400000,4.1908614 -7.5,4.1908614 L -7.5,-5.8091386 C -4.7400000,-5.8091386 -2.5,-3.5691386 -2.5,-0.80913858 z " transform="scale(0.6) translate(7.125493,0.763446)" fill-rule="evenodd" stroke="#000000" stroke-width="1.25"/>
  </marker>
  <marker inkscape:stockid="Arrow1Send" orient="auto" refY="0.0" refX="0.0" id="Arrow1Send">
   <path id="path4131" d="M 0.0,0.0 L 5.0,-5.0 L -12.5,0.0 L 5.0,5.0 L 0.0,0.0 z " transform="scale(0.2) rotate(180) translate(6,0)" fill-rule="evenodd" stroke="#000000" stroke-width="1.25"/>
  </marker>
  <marker inkscape:stockid="Arrow1Sstart" orient="auto" refY="0.0" refX="0.0" id="Arrow1Sstart">
   <path id="path4128" d="M 0.0,0.0 L 5.0,-5.0 L -12.5,0.0 L 5.0,5.0 L 0.0,0.0 z " transform="scale(0.2) translate(6,0)" fill-rule="evenodd" stroke="#000000" stroke-width="1.25"/>
  </marker>
  <marker inkscape:stockid="Tail" orient="auto" refY="0.0" refX="0.0" id="Tail">
   <g id="g4152" transform="scale(-1.2)">
    <path id="path4154" d="M -3.8048674,-3.9585227 L 0.54352094,0" fill="none" fill-rule="evenodd" stroke="#000000" stroke-linecap="round" stroke-width=".8"/>
    <path id="path4156" d="M -1.2866832,-3.9585227 L 3.0617053,0" fill="none" fill-rule="evenodd" stroke="#000000" stroke-linecap="round" stroke-width=".8"/>
    <path id="path4158" d="M 1.3053582,-3.9585227 L 5.6537466,0" fill="none" fill-rule="evenodd" stroke="#000000" stroke-linecap="round" stroke-width=".8"/>
    <path id="path4160" d="M -3.8048674,4.1775838 L 0.54352094,0.21974226" fill="none" fill-rule="evenodd" stroke="#000000" stroke-linecap="round" stroke-width=".8"/>
    <path id="path4162" d="M -1.2866832,4.1775838 L 3.0617053,0.21974226" fill="none" fill-rule="evenodd" stroke="#000000" stroke-linecap="round" stroke-width=".8"/>
    <path id="path4164" d="M 1.3053582,4.1775838 L 5.6537466,0.21974226" fill="none" fill-rule="evenodd" stroke="#000000" stroke-linecap="round" stroke-width=".8"/>
   </g>
  </marker>
  <marker inkscape:stockid="Arrow1Lend" orient="auto" refY="0.0" refX="0.0" id="Arrow1Lend">
   <path id="path4119" d="M 0.0,0.0 L 5.0,-5.0 L -12.5,0.0 L 5.0,5.0 L 0.0,0.0 z " transform="scale(0.8) rotate(180) translate(12.5,0)" fill-rule="evenodd" stroke="#000000" stroke-width="1.25"/>
  </marker>
  <marker inkscape:stockid="TriangleOutL" orient="auto" refY="0.0" refX="0.0" id="TriangleOutL">
   <path id="path4214" d="M 5.77,0.0 L -2.88,5.0 L -2.88,-5.0 L 5.77,0.0 z " transform="scale(0.8)" fill-rule="evenodd" stroke="#000000" stroke-width="1.25"/>
  </marker>
  <marker inkscape:stockid="Arrow1Mend" orient="auto" refY="0.0" refX="0.0" id="Arrow1Mend">
   <path id="path4125" d="M 0.0,0.0 L 5.0,-5.0 L -12.5,0.0 L 5.0,5.0 L 0.0,0.0 z " transform="scale(0.4) rotate(180) translate(10,0)" fill-rule="evenodd" stroke="#000000" stroke-width="1.25"/>
  </marker>
  <marker inkscape:stockid="Arrow2Lend" orient="auto" refY="0.0" refX="0.0" id="Arrow2Lend">
   <path id="path4137" d="M 8.7185878,4.0337352 L -2.2072895,0.016013256 L 8.7185884,-4.0017078 C 6.9730900,-1.6296469 6.9831476,1.6157441 8.7185878,4.0337352 z " transform="scale(1.1) rotate(180) translate(1,0)" fill-rule="evenodd" stroke-linejoin="round" stroke-width=".625"/>
  </marker>
  <symbol id="symbol14628" viewBox="244.5 110 489 219.9">
   <path d="M79,43l57,119c0,0,21-96,104-96s124,106,124,106l43-133l82-17L0,17L79,43z" id="path14630"/>
   <path fill="none" stroke="#000000" stroke-width="20" d="M94,176l-21,39" id="path14632"/>
   <path d="M300,19c0,10.5-22.6,19-50.5,19S199,29.5,199,19s22.6-19,50.5-19S300,8.5,300,19z" id="path14634"/>
   <path ill="none" stroke="#000000" stroke-width="20" d="M112,216l-16-38L64,88c0,0-9-8-4-35s16-24,16-24" id="path14636"/>
  </symbol>
 </defs>
 <g id="g1327">
  <path d="M 66.275,1.768 C 24.94,1.768 1.704,23.139 1.704,66.804 L 1.704,516.927 C 1.704,557.771 22.599,579.156 63.896,579.156 L 515.92,579.156 C 557.227,579.156 578.149,558.841 578.149,516.927 L 578.149,66.804 C 578.149,24.203 557.227,1.768 514.628,1.768 C 514.624,1.768 66.133,1.625 66.275,1.768 z " id="path1329" fill="#111" stroke="#eee" stroke-width="3.408"/>
 </g>
 <path d="m 111.25,35.5625 c -3.03143,-0.133311 -5.87816,2.622081 -5.84375,5.65625 l 1.9375,275.5625 c 0.0509,7.16828 4.72869,12.80587 10.625,17.90625 5.89631,5.10038 13.58165,9.76272 22.03125,13.875 16.8992,8.22456 36.44716,14.21875 50.6875,14.21875 18.38144,0 40.00616,-7.16111 61.09375,-14.0625 21.08759,-6.90139 41.70047,-13.5 55.34375,-13.5 13.64328,0 30.07778,6.49103 47.75,13.40625 17.67222,6.91522 36.65102,14.15625 56.4375,14.15625 38.951,0 82.1875,-22.03125 82.1875,-22.03125 1.84545,-0.92311 3.09127,-2.93656 3.09375,-5 l 0,-288.0625 c -0.004,-1.894847 -1.04391,-3.755672 -2.65597,-4.751535 -1.61205,-0.995863 -3.74163,-1.093168 -5.43778,-0.248465 0,0 -42.59019,20.84375 -77.1875,20.84375 -16.98768,0 -34.77407,-6.531159 -52.34375,-13.40625 -17.56968,-6.875091 -34.8419,-14.15625 -51.84375,-14.15625 -17.00185,0 -37.76304,7.173584 -58.8125,14.0625 -21.04946,6.888916 -42.2968,13.5 -57.625,13.5 -15.307,0 -34.85293,-6.660338 -50.21875,-13.5 C 125.10293,43.191588 113.90625,36.375 113.90625,36.375 113.10736,35.887881 112.18469,35.60565 111.25,35.5625 z" id="path15140" sodipodi:nodetypes="cccssssssscccscsssssscc" color="#000000" stroke-width="11.195" fill="#ffffff"/>
 <path d="m 95.375,33.3125 c -2.92825,0.0023 -5.591443,2.6655 -5.59375,5.59375 l 0,518.65625 c 0.0023,2.92825 2.6655,5.59144 5.59375,5.59375 l 16.40625,0 c 2.92825,-0.002 5.59144,-2.6655 5.59375,-5.59375 l 0,-518.65625 c -0.002,-2.92825 -2.6655,-5.591443 -5.59375,-5.59375 l -16.40625,0 z" id="path15180" sodipodi:nodetypes="ccccccccc" color="#000000" fill-rule="evenodd" stroke-width="11.195" fill="#ffffff"/>
 <path d="m 137.82604,86.126278 c 0,0 -6.19021,30.615702 12.53125,50.312502 9.70739,11.54952 32.14469,22.26486 51.875,26.09375 l 31.875,27.6875 c -5.68585,-2.848 -12.46855,-5.51564 -20.21875,-7.3125 -25.42039,-5.89364 -56.98778,8.3753 -56.65625,7.34375 0,0 15.39182,31.6811 41.84375,37.90625 15.24997,4.58724 45.93471,-1.13268 54,-20.1875 19.71768,18.34854 36.84024,29.10096 52.15625,35.71875 -16.56455,-0.0275 -33.15625,1.43984 -49.3125,5.09375 -21.7782,6.03187 -31.836,22.94187 -53.6875,38.28125 -1.55921,1.3368 -6.82269,7.75071 -8.875,8.25 23.16797,10.1509 46.89942,27.44972 67.875,27.40625 41.24486,-0.0855 75.76391,-34.53254 70.40625,-70.65625 8.93511,1.91122 17.28247,2.93673 25.28125,4.125 14.84401,2.20517 28.36439,5.01351 43.31249,14.9375 14.9481,9.92399 31.42,27.18788 51.25,58.75 l 6.2813,-3.96875 c -20.1644,-32.09426 -37.2878,-50.24699 -53.4375,-60.96875 -16.1498,-10.72176 -31.18326,-13.78833 -46.28129,-16.03125 -6.89607,-1.02446 -13.84284,-1.87032 -21.03125,-3.1875 31.43943,-23.68813 15.98523,-109.52087 -53.09375,-129.75 -13.69875,60.18932 9.59378,100.07869 37.59375,126.09375 -18.67408,-5.57534 -39.82852,-16.64499 -66.6875,-42.53125 31.63023,-40.64262 16.21324,-80.62261 -34.75,-112.937502 -16.3075,48.098162 -2.23983,73.869552 17.5,96.875002 l -28.59375,-24.875 c -1.0146,-8.60933 -4.66662,-26.60015 -17.90625,-40.4375 -18.03996,-18.854422 -54.09238,-31.349762 -53.25,-32.031252 z" id="path5095" inkscape:connector-curvature="0" color="#000000" stroke-width="2.502" stroke-linecap="round" fill="#ffffff" stroke-linejoin="round" stroke="#ffffff"/>
</svg>
