<?xml version="1.0" encoding="UTF-8" standalone="no"?>
<svg xmlns="http://www.w3.org/2000/svg" xmlns:sodipodi="http://sodipodi.sourceforge.net/DTD/sodipodi-0.dtd" xmlns:inkscape="http://www.inkscape.org/namespaces/inkscape" version="1.0" width="580" height="580">
 <metadata id="metadata2975"/>
 <defs id="defs4">
  <symbol id="symbol-university" viewBox="244.5 110 489 219.9">
   <path d="M79,43l57,119c0,0,21-96,104-96s124,106,124,106l43-133l82-17L0,17L79,43z" id="path4460"/>
   <path fill="none" stroke="#000000" stroke-width="20" d="M94,176l-21,39" id="path4462"/>
   <path d="M300,19c0,10.5-22.6,19-50.5,19S199,29.5,199,19s22.6-19,50.5-19S300,8.5,300,19z" id="path4464"/>
   <path ill="none" stroke="#000000" stroke-width="20" d="M112,216l-16-38L64,88c0,0-9-8-4-35s16-24,16-24" id="path4466"/>
  </symbol>
  <symbol viewBox="244.5 110 489 219.9" id="symbol9807">
   <path id="path9809" d="M79,43l57,119c0,0,21-96,104-96s124,106,124,106l43-133l82-17L0,17L79,43z"/>
   <path id="path9811" d="M94,176l-21,39" stroke-width="20" stroke="#000000" fill="none"/>
   <path id="path9813" d="M300,19c0,10.5-22.6,19-50.5,19S199,29.5,199,19s22.6-19,50.5-19S300,8.5,300,19z"/>
   <path id="path9815" d="M112,216l-16-38L64,88c0,0-9-8-4-35s16-24,16-24" stroke-width="20" stroke="#000000" ill="none"/>
  </symbol>
  <linearGradient id="linearGradient2936">
   <stop id="stop2938" stop-color="#8acf6b"/>
   <stop offset="1" id="stop2940" stop-color="#368912"/>
  </linearGradient>
  <linearGradient id="linearGradient2952">
   <stop id="stop2954" stop-color="#c0d50d"/>
   <stop offset="1" id="stop2956" stop-color="#eef2cd"/>
  </linearGradient>
  <marker inkscape:stockid="RazorWire" id="RazorWire" orient="auto">
       style="overflow:visible"&gt;
         <path id="path4286" transform="scale(0.8,0.8)" d="M 0.022727273,-0.74009011 L 0.022727273,0.69740989 L -7.7585227,3.0099099 L 10.678977,3.0099099 L 3.4914773,0.69740989 L 3.4914773,-0.74009011 L 10.741477,-2.8963401 L -7.7272727,-2.8963401 L 0.022727273,-0.74009011 z " fill="#808080" fill-rule="evenodd" stroke="#000000" stroke-width=".125"/></marker>
  <marker inkscape:stockid="DiamondS" orient="auto" refY="0.0" refX="0.0" id="DiamondS">
   <path id="path4202" d="M 0,-7.0710768 L -7.0710894,0 L 0,7.0710589 L 7.0710462,0 L 0,-7.0710768 z " transform="scale(0.2)" fill-rule="evenodd" stroke="#000000" stroke-width="1.25"/>
  </marker>
  <marker inkscape:stockid="Arrow2Sstart" orient="auto" refY="0.0" refX="0.0" id="Arrow2Sstart">
   <path id="path4146" d="M 8.7185878,4.0337352 L -2.2072895,0.016013256 L 8.7185884,-4.0017078 C 6.9730900,-1.6296469 6.9831476,1.6157441 8.7185878,4.0337352 z " transform="scale(0.3) translate(-2.3,0)" fill-rule="evenodd" stroke-linejoin="round" stroke-width=".625"/>
  </marker>
  <marker inkscape:stockid="StopS" orient="auto" refY="0.0" refX="0.0" id="StopS">
   <path id="path4229" d="M 0.0,5.65 L 0.0,-5.65" transform="scale(0.2)" fill="none" fill-rule="evenodd" stroke="#000000" fill-opacity=".75" stroke-width="1.25"/>
  </marker>
  <marker inkscape:stockid="InfiniteLineStart" id="InfiniteLineStart" orient="auto">
   <g id="g4298" transform="translate(-13,0)">
    <circle id="circle4300" r=".8" cx="3"/>
    <circle id="circle4302" r=".8" cx="6.5"/>
    <circle id="circle4304" r=".8" cx="10"/>
   </g>
  </marker>
  <marker inkscape:stockid="CurveIn" orient="auto" refY="0.0" refX="0.0" id="CurveIn">
   <path id="path4238" d="M 4.6254930,-5.0456926 C 1.8654930,-5.0456926 -0.37450702,-2.8056926 -0.37450702,-0.045692580 C -0.37450702,2.7143074 1.8654930,4.9543074 4.6254930,4.9543074" transform="scale(0.6)" fill="none" fill-rule="evenodd" stroke="#000000" stroke-width="1.25"/>
  </marker>
  <marker inkscape:stockid="TriangleOutS" orient="auto" refY="0.0" refX="0.0" id="TriangleOutS">
   <path id="path4220" d="M 5.77,0.0 L -2.88,5.0 L -2.88,-5.0 L 5.77,0.0 z " transform="scale(0.2)" fill-rule="evenodd" stroke="#000000" stroke-width="1.25"/>
  </marker>
  <marker inkscape:stockid="Arrow2Send" orient="auto" refY="0.0" refX="0.0" id="Arrow2Send">
   <path id="path4149" d="M 8.7185878,4.0337352 L -2.2072895,0.016013256 L 8.7185884,-4.0017078 C 6.9730900,-1.6296469 6.9831476,1.6157441 8.7185878,4.0337352 z " transform="scale(0.3) rotate(180) translate(-2.3,0)" fill-rule="evenodd" stroke-linejoin="round" stroke-width=".625"/>
  </marker>
  <marker inkscape:stockid="SemiCircleOut" orient="auto" refY="0.0" refX="0.0" id="SemiCircleOut">
   <path id="path4235" d="M -2.5,-0.80913858 C -2.5,1.9508614 -4.7400000,4.1908614 -7.5,4.1908614 L -7.5,-5.8091386 C -4.7400000,-5.8091386 -2.5,-3.5691386 -2.5,-0.80913858 z " transform="scale(0.6) translate(7.125493,0.763446)" fill-rule="evenodd" stroke="#000000" stroke-width="1.25"/>
  </marker>
  <marker inkscape:stockid="Arrow1Send" orient="auto" refY="0.0" refX="0.0" id="Arrow1Send">
   <path id="path4131" d="M 0.0,0.0 L 5.0,-5.0 L -12.5,0.0 L 5.0,5.0 L 0.0,0.0 z " transform="scale(0.2) rotate(180) translate(6,0)" fill-rule="evenodd" stroke="#000000" stroke-width="1.25"/>
  </marker>
  <marker inkscape:stockid="Arrow1Sstart" orient="auto" refY="0.0" refX="0.0" id="Arrow1Sstart">
   <path id="path4128" d="M 0.0,0.0 L 5.0,-5.0 L -12.5,0.0 L 5.0,5.0 L 0.0,0.0 z " transform="scale(0.2) translate(6,0)" fill-rule="evenodd" stroke="#000000" stroke-width="1.25"/>
  </marker>
  <marker inkscape:stockid="Tail" orient="auto" refY="0.0" refX="0.0" id="Tail">
   <g id="g4152" transform="scale(-1.2)">
    <path id="path4154" d="M -3.8048674,-3.9585227 L 0.54352094,0" fill="none" fill-rule="evenodd" stroke="#000000" stroke-linecap="round" stroke-width=".8"/>
    <path id="path4156" d="M -1.2866832,-3.9585227 L 3.0617053,0" fill="none" fill-rule="evenodd" stroke="#000000" stroke-linecap="round" stroke-width=".8"/>
    <path id="path4158" d="M 1.3053582,-3.9585227 L 5.6537466,0" fill="none" fill-rule="evenodd" stroke="#000000" stroke-linecap="round" stroke-width=".8"/>
    <path id="path4160" d="M -3.8048674,4.1775838 L 0.54352094,0.21974226" fill="none" fill-rule="evenodd" stroke="#000000" stroke-linecap="round" stroke-width=".8"/>
    <path id="path4162" d="M -1.2866832,4.1775838 L 3.0617053,0.21974226" fill="none" fill-rule="evenodd" stroke="#000000" stroke-linecap="round" stroke-width=".8"/>
    <path id="path4164" d="M 1.3053582,4.1775838 L 5.6537466,0.21974226" fill="none" fill-rule="evenodd" stroke="#000000" stroke-linecap="round" stroke-width=".8"/>
   </g>
  </marker>
  <marker inkscape:stockid="Arrow1Lend" orient="auto" refY="0.0" refX="0.0" id="Arrow1Lend">
   <path id="path4119" d="M 0.0,0.0 L 5.0,-5.0 L -12.5,0.0 L 5.0,5.0 L 0.0,0.0 z " transform="scale(0.8) rotate(180) translate(12.5,0)" fill-rule="evenodd" stroke="#000000" stroke-width="1.25"/>
  </marker>
  <marker inkscape:stockid="TriangleOutL" orient="auto" refY="0.0" refX="0.0" id="TriangleOutL">
   <path id="path4214" d="M 5.77,0.0 L -2.88,5.0 L -2.88,-5.0 L 5.77,0.0 z " transform="scale(0.8)" fill-rule="evenodd" stroke="#000000" stroke-width="1.25"/>
  </marker>
  <marker inkscape:stockid="Arrow1Mend" orient="auto" refY="0.0" refX="0.0" id="Arrow1Mend">
   <path id="path4125" d="M 0.0,0.0 L 5.0,-5.0 L -12.5,0.0 L 5.0,5.0 L 0.0,0.0 z " transform="scale(0.4) rotate(180) translate(10,0)" fill-rule="evenodd" stroke="#000000" stroke-width="1.25"/>
  </marker>
  <marker inkscape:stockid="Arrow2Lend" orient="auto" refY="0.0" refX="0.0" id="Arrow2Lend">
   <path id="path4137" d="M 8.7185878,4.0337352 L -2.2072895,0.016013256 L 8.7185884,-4.0017078 C 6.9730900,-1.6296469 6.9831476,1.6157441 8.7185878,4.0337352 z " transform="scale(1.1) rotate(180) translate(1,0)" fill-rule="evenodd" stroke-linejoin="round" stroke-width=".625"/>
  </marker>
  <symbol id="symbol14628" viewBox="244.5 110 489 219.9">
   <path d="M79,43l57,119c0,0,21-96,104-96s124,106,124,106l43-133l82-17L0,17L79,43z" id="path14630"/>
   <path fill="none" stroke="#000000" stroke-width="20" d="M94,176l-21,39" id="path14632"/>
   <path d="M300,19c0,10.5-22.6,19-50.5,19S199,29.5,199,19s22.6-19,50.5-19S300,8.5,300,19z" id="path14634"/>
   <path ill="none" stroke="#000000" stroke-width="20" d="M112,216l-16-38L64,88c0,0-9-8-4-35s16-24,16-24" id="path14636"/>
  </symbol>
 </defs>
 <g id="g1327">
  <path d="M 66.275,1.768 C 24.94,1.768 1.704,23.139 1.704,66.804 L 1.704,516.927 C 1.704,557.771 22.599,579.156 63.896,579.156 L 515.92,579.156 C 557.227,579.156 578.149,558.841 578.149,516.927 L 578.149,66.804 C 578.149,24.203 557.227,1.768 514.628,1.768 C 514.624,1.768 66.133,1.625 66.275,1.768 z " id="path1329" fill="#111" stroke="#eee" stroke-width="3.408"/>
 </g>
 <path d="m 45.40739,51.732619 c 0,0 -16.350222,50.048161 11.143019,86.686211 13.994406,21.23491 49.465031,43.56226 81.749971,53.83063 l 47.95323,52.58841 c -8.96271,-5.88003 -19.79708,-11.67254 -32.42157,-16.19633 -41.40787,-14.83785 -97.049733,2.87969 -96.292972,1.21744 0,0 19.575307,56.0518 62.645422,71.64639 24.63542,10.662 77.12792,7.08512 94.35704,-23.24054 29.42478,34.57551 55.98994,55.92576 80.33889,70.00034 -27.72792,-3.28483 -55.79358,-4.07231 -83.55771,-1.11373 -37.64168,5.84064 -57.78739,32.18574 -97.37167,53.5952 -2.8719,1.93327 -12.93841,11.64264 -16.472125,12.07729 36.804325,21.5252 73.154445,55.12801 108.281415,59.15653 69.07118,7.92139 133.60026,-43.00233 131.69336,-104.53024 14.58598,4.94693 28.36106,8.29604 41.52072,11.8495 24.42151,6.59444 40.50898,13.93993 63.59551,33.478 23.08652,19.53807 41.28913,51.66297 68.31834,108.38335 l 23.29251,-5.41654 c -27.48504,-57.67671 -52.60463,-91.41713 -77.54695,-112.52582 -24.94249,-21.1087 -49.51276,-29.18239 -74.35217,-35.88969 -11.34547,-3.06359 -8.81076,0.16193 -20.58845,-3.4489 57.26934,-33.5127 48.17776,-180.2404 -63.52277,-227.61601 -34.70391,98.09383 -3.50573,169.43318 38.28669,218.46383 -30.17504,-12.98586 -77.42856,-41.65556 -117.33588,-90.24747 60.90387,-61.86154 42.90909,-131.81273 -36.09796,-195.880868 -36.70745,77.340058 -18.1936,123.238578 10.35771,165.615288 l -43.00949,-47.238 c -0.0153,-14.61261 -2.61204,-45.44792 -22.07298,-71.2039 C 101.78157,80.678551 43.863781,52.708899 45.40739,51.732619 z" id="path5095" sodipodi:nodetypes="ccccscccccccscssccsscccccccsc" color="#000000" stroke-width="4.217" stroke-linecap="round" fill="#ffffff" stroke-linejoin="round" stroke="#ffffff"/>
</svg>
