<?xml version="1.0" encoding="UTF-8" standalone="no"?>
<svg xmlns="http://www.w3.org/2000/svg" xmlns:sodipodi="http://sodipodi.sourceforge.net/DTD/sodipodi-0.dtd" xmlns:inkscape="http://www.inkscape.org/namespaces/inkscape" version="1.0" width="580" height="580">
 <metadata id="metadata2975"/>
 <defs id="defs4">
  <symbol viewBox="244.5 110 489 219.9" id="symbol-university">
   <path id="path4460" d="M79,43l57,119c0,0,21-96,104-96s124,106,124,106l43-133l82-17L0,17L79,43z"/>
   <path id="path4462" d="M94,176l-21,39" stroke-width="20" stroke="#000000" fill="none"/>
   <path id="path4464" d="M300,19c0,10.5-22.6,19-50.5,19S199,29.5,199,19s22.6-19,50.5-19S300,8.5,300,19z"/>
   <path id="path4466" d="M112,216l-16-38L64,88c0,0-9-8-4-35s16-24,16-24" stroke-width="20" stroke="#000000" ill="none"/>
  </symbol>
 </defs>
 <g id="g1327">
  <path d="M 66.275,1.768 C 24.94,1.768 1.704,23.139 1.704,66.804 L 1.704,516.927 C 1.704,557.771 22.599,579.156 63.896,579.156 L 515.92,579.156 C 557.227,579.156 578.149,558.841 578.149,516.927 L 578.149,66.804 C 578.149,24.203 557.227,1.768 514.628,1.768 C 514.624,1.768 66.133,1.625 66.275,1.768 z " id="path1329" fill="#111" stroke="#eee" stroke-width="3.408"/>
 </g>
 <path d="M 264.73327,44.019017 L 310.30541,44.019017 L 310.30541,543.11227 L 265.20918,543.11227 L 264.73327,44.019017 z" id="path2459" sodipodi:nodetypes="ccccc" fill="#ffffff" fill-rule="evenodd" stroke="#ffffff" stroke-linejoin="round" stroke-linecap="round" stroke-width="18.697"/>
 <path d="M 492.03782,213.81972 L 458.13223,241.75791 L 280.46698,207.58108 L 281.55196,157.9433 L 457.3185,180.72785 L 492.03782,213.81972 z" id="path3239" sodipodi:nodetypes="cccccc" fill="#ffffff" fill-rule="evenodd" stroke="#ffffff" stroke-linejoin="round" stroke-linecap="round" stroke-width="18.8"/>
 <path d="M 75.406015,253.82829 L 109.31161,273.08665 L 286.97686,216.12527 L 289.14682,164.31755 L 110.12534,212.05661 L 75.406015,253.82829 z" id="path3263" sodipodi:nodetypes="cccccc" fill="#ffffff" fill-rule="evenodd" stroke="#ffffff" stroke-linejoin="round" stroke-linecap="round" stroke-width="18.8"/>
 <path d="M 437.16762,78.58435 L 416.18189,114.7062 L 269.23248,154.39155 L 258.2834,103.91909 L 415.44263,63.114015 L 437.16762,78.58435 z" id="path3287" sodipodi:nodetypes="cccccc" fill="#ffffff" fill-rule="evenodd" stroke="#ffffff" stroke-linejoin="round" stroke-linecap="round" stroke-width="18.03"/>
 <path d="M 27.242741,-248.97792 L 39.548641,-228.79084 L 152.86371,-184.08575 L 151.87803,-241.06807 L 40.287901,-263.53323 L 27.242741,-248.97792 z" id="path3289" sodipodi:nodetypes="cccccc" fill="#ffffff" fill-rule="evenodd" stroke="#ffffff" stroke-linejoin="round" stroke-linecap="round" stroke-width="18.03"/>
 <path d="M 136.23345,85.460706 L 157.21918,121.58256 L 304.16859,161.26791 L 315.11767,110.79545 L 157.95844,69.990366 L 136.23345,85.460706 z" id="path3291" sodipodi:nodetypes="cccccc" fill="#ffffff" fill-rule="evenodd" stroke="#ffffff" stroke-linejoin="round" stroke-linecap="round" stroke-width="18.03"/>
</svg>
