<?xml version="1.0" encoding="UTF-8" standalone="no"?>
<svg xmlns="http://www.w3.org/2000/svg" version="1.0" width="580" height="580">
 <metadata id="metadata2975"/>
 <path id="path4141" d="m 277.06573,43.197596 c 0.42752,5.187565 0.85504,10.37513 1.19705,15.562695 6.24173,-1.055098 12.48346,-1.582647 18.81069,-1.758497 8.89232,-0.17585 17.95566,0.08793 26.84798,1.055098 -0.1477,-7.219836 3.27194,-11.94563 -0.85503,-14.859296 -7.35327,-4.220392 -16.24559,2.813594 -23.76987,-0.439624 -5.81421,-2.813595 -10.08937,-9.232108 -16.92962,-9.144183 -4.87368,0.439624 -6.92575,5.803039 -5.3012,9.583807 z m -38.64741,39.829948 c -17.10063,11.166453 -28.90006,27.608396 -29.07107,47.479406 l 0,0.0879 0,0.0879 c 0.76953,19.87101 10.08937,34.29069 23.08585,45.72091 13.08198,10.81476 29.9261,17.93667 46.68471,23.73971 16.67311,5.80304 33.26072,10.19928 45.31666,15.12307 7.05117,3.27139 19.02404,7.58977 19.66572,16.00232 0.24627,10.76213 -9.35384,16.86368 -17.10062,20.66233 -11.62843,5.71512 -27.87403,10.28721 -44.29063,15.65062 -16.24559,5.36342 -33.08971,11.60608 -45.82968,21.10196 -12.73997,9.49588 -21.37578,22.86046 -20.86277,41.0609 0.42752,14.50759 9.40535,25.4982 21.8033,34.29068 12.31246,8.61663 28.21604,15.12307 43.6066,20.75026 15.73258,5.71511 31.37966,10.55098 42.75157,15.65062 5.67742,3.1486 17.37018,7.11873 17.52815,14.59552 0,6.41851 -4.44617,12.0457 -13.16749,17.49704 -8.72132,5.45134 -21.29028,10.37513 -35.4838,14.94722 -32.17812,11.64583 -63.23097,18.14797 -91.31735,31.82879 l 1.88107,3.1653 c 2.74704,3.61078 8.11482,3.28372 11.71393,3.51699 27.48116,-0.1624 57.51883,-5.49365 81.48449,-11.43023 21.8033,-5.53926 43.5211,-13.01287 59.8522,-22.86045 16.5876,-9.84759 28.21603,-22.42084 28.55804,-37.80768 0.17101,-14.06797 -8.55031,-25.1465 -20.86276,-33.41144 -12.22695,-8.61663 -28.21604,-15.21099 -43.6066,-21.10196 -15.81808,-5.97888 -31.55066,-11.3423 -42.75157,-16.96949 -6.36091,-3.63362 -17.79659,-8.69976 -17.69915,-16.79364 1.70563,-8.5915 12.20775,-12.62108 18.72519,-15.47477 12.14144,-5.27549 28.64355,-10.28721 45.14565,-16.44194 16.58761,-6.15474 33.26072,-13.18873 46.00069,-23.21216 12.73997,-9.9355 21.63229,-22.86045 21.37579,-39.56617 -0.25651,-16.70572 -9.31985,-29.54275 -22.14532,-38.68693 -12.82547,-9.49588 -29.49858,-16.17817 -46.00069,-21.9812 -16.5876,-5.97889 -33.08971,-11.25438 -45.31666,-17.40912 -8.84128,-4.66587 -19.55008,-11.34184 -20.69176,-21.18989 0.29756,-9.34578 7.7268,-14.81613 14.96305,-17.76081 9.31984,-3.60492 21.6323,-4.48417 31.63616,-3.16529 9.40535,1.23094 19.0672,11.78192 30.61013,21.71743 6.84025,5.89096 17.35713,8.44078 23.51336,9.9355 6.49824,1.58265 10.26037,0.7034 15.13405,-0.61547 2.67061,-1.14969 3.44196,-3.31414 3.24912,-5.89096 -0.45652,-2.66377 -1.32759,-4.94617 -1.88107,-7.38569 3.1057,1.01047 6.04947,2.34062 9.06334,3.16529 2.30966,0.54982 5.11214,-0.0348 6.15622,-1.93434 7.45062,-17.69626 -7.36121,-36.857809 -18.55418,-45.545064 -12.82547,-9.583756 -30.78113,-16.617742 -50.44685,-16.705667 -6.49824,-1.055098 -13.08198,-1.582647 -27.66026,-1.62661 -14.57829,-0.04396 -36.8091,6.022851 -54.76476,17.189305 z m 125.68961,15.826469 c 0,5.890967 -4.61717,10.550977 -10.26038,10.550977 -5.72871,0 -10.26037,-4.74794 -10.26037,-10.550977 0,-5.890964 4.61716,-10.55098 10.26037,-10.55098 5.72871,0 10.26038,4.747941 10.26038,10.55098 z m -82.85254,19.871007 c 0.34201,8.08909 0.51302,16.09025 0.76953,24.17933 4.78817,2.54982 9.91836,4.66002 14.87754,6.59437 6.92576,2.72566 14.02252,5.18756 21.11928,7.64946 0.34201,-9.14419 0.68402,-18.28837 1.11154,-27.2567 -4.36066,-4.22039 -8.72132,-8.26494 -14.45003,-10.90268 -3.67664,-0.96717 -7.52428,-1.49472 -12.0987,-1.53869 -4.57441,-0.044 -8.08004,0.39567 -11.32916,1.27491 z m -16.50211,97.68449 c -1.62456,6.41851 3.50563,12.22155 4.70268,18.28837 2.8216,8.177 5.5577,16.35401 7.95179,24.61895 12.48346,-4.04454 25.22342,-7.56154 37.19386,-12.48533 0.17101,-4.66001 0.42752,-9.32003 0.68403,-13.89212 0.85503,-3.42907 2.39408,-6.68229 3.76213,-10.02343 -2.56509,-0.96717 -5.21569,-1.84642 -7.69528,-2.8136 -9.31984,-3.16529 -18.81069,-6.06681 -28.21603,-9.14418 l 0,1.14302 c -2.22308,-1.05509 -4.95918,-1.58264 -7.73804,-1.58264 -4.57441,0.0879 -9.02058,1.84642 -10.64514,5.89096 z m 19.23821,100.76186 c 0,5.62719 0,11.25437 0.0855,16.96949 9.40535,4.74794 19.49472,8.52871 29.58409,12.22155 2.56509,-11.07853 6.58374,-21.80536 9.91836,-32.53219 0,-4.57209 -6.24173,-6.50643 -10.43138,-5.45134 0,-0.61547 0.0855,-1.23094 0,-1.93434 -9.91837,3.34114 -19.75123,6.68228 -29.15657,10.72683 z m 0.0855,89.5954 c -4.18965,-0.17585 -8.1228,3.95662 -5.72871,7.56153 3.33462,8.70456 6.58374,17.49704 6.07072,26.72915 8.97783,-2.81359 17.87016,-5.80304 26.42047,-9.49588 0.17101,-8.79248 0.34202,-17.84874 0.42752,-26.72915 -4.61717,-1.7585 -9.31984,-3.34114 -13.93701,-4.92379 -4.36066,-1.58265 -8.72132,-3.07737 -13.16749,-4.61605 0,3.91265 -0.0855,7.69342 -0.0855,11.47419 z m 0.25651,80.45122 c 0.0855,12.48532 0.17101,24.97065 0.34201,37.45597 10.17488,-5.71511 22.23082,-10.55097 27.95953,-20.9261 1.45355,-3.78077 -2.30859,-7.03399 -1.53906,-10.90268 -0.171,-4.13247 -0.34201,-8.17701 -0.42751,-12.30948 -8.55032,2.54982 -17.44264,4.74794 -26.33497,6.68229 z" mix-blend-mode="normal" solid-color="#000000" opacity="0.8" color-interpolation-filters="linearRGB" filter-gaussianBlur-deviation="0" color="#000000" image-rendering="auto" color-rendering="auto" stroke-width="64" isolation="auto" stroke-linecap="round" color-interpolation="sRGB" solid-opacity="1" fill="none" stroke-linejoin="round" filter-blend-mode="normal" stroke="#ffffff" shape-rendering="auto"/>
 <path d="m 277.06573,43.197596 c 0.42752,5.187565 0.85504,10.37513 1.19705,15.562695 6.24173,-1.055098 12.48346,-1.582647 18.81069,-1.758497 8.89232,-0.17585 17.95566,0.08793 26.84798,1.055098 -0.1477,-7.219836 3.27194,-11.94563 -0.85503,-14.859296 -7.35327,-4.220392 -16.24559,2.813594 -23.76987,-0.439624 -5.81421,-2.813595 -10.08937,-9.232108 -16.92962,-9.144183 -4.87368,0.439624 -6.92575,5.803039 -5.3012,9.583807 z m -38.64741,39.829948 c -17.10063,11.166453 -28.90006,27.608396 -29.07107,47.479406 l 0,0.0879 0,0.0879 c 0.76953,19.87101 10.08937,34.29069 23.08585,45.72091 13.08198,10.81476 29.9261,17.93667 46.68471,23.73971 16.67311,5.80304 33.26072,10.19928 45.31666,15.12307 7.05117,3.27139 19.02404,7.58977 19.66572,16.00232 0.24627,10.76213 -9.35384,16.86368 -17.10062,20.66233 -11.62843,5.71512 -27.87403,10.28721 -44.29063,15.65062 -16.24559,5.36342 -33.08971,11.60608 -45.82968,21.10196 -12.73997,9.49588 -21.37578,22.86046 -20.86277,41.0609 0.42752,14.50759 9.40535,25.4982 21.8033,34.29068 12.31246,8.61663 28.21604,15.12307 43.6066,20.75026 15.73258,5.71511 31.37966,10.55098 42.75157,15.65062 5.67742,3.1486 17.37018,7.11873 17.52815,14.59552 0,6.41851 -4.44617,12.0457 -13.16749,17.49704 -8.72132,5.45134 -21.29028,10.37513 -35.4838,14.94722 -32.17812,11.64583 -63.23097,18.14797 -91.31735,31.82879 l 1.88107,3.1653 c 2.74704,3.61078 8.11482,3.28372 11.71393,3.51699 27.48116,-0.1624 57.51883,-5.49365 81.48449,-11.43023 21.8033,-5.53926 43.5211,-13.01287 59.8522,-22.86045 16.5876,-9.84759 28.21603,-22.42084 28.55804,-37.80768 0.17101,-14.06797 -8.55031,-25.1465 -20.86276,-33.41144 -12.22695,-8.61663 -28.21604,-15.21099 -43.6066,-21.10196 -15.81808,-5.97888 -31.55066,-11.3423 -42.75157,-16.96949 -6.36091,-3.63362 -17.79659,-8.69976 -17.69915,-16.79364 1.70563,-8.5915 12.20775,-12.62108 18.72519,-15.47477 12.14144,-5.27549 28.64355,-10.28721 45.14565,-16.44194 16.58761,-6.15474 33.26072,-13.18873 46.00069,-23.21216 12.73997,-9.9355 21.63229,-22.86045 21.37579,-39.56617 -0.25651,-16.70572 -9.31985,-29.54275 -22.14532,-38.68693 -12.82547,-9.49588 -29.49858,-16.17817 -46.00069,-21.9812 -16.5876,-5.97889 -33.08971,-11.25438 -45.31666,-17.40912 -8.84128,-4.66587 -19.55008,-11.34184 -20.69176,-21.18989 0.29756,-9.34578 7.7268,-14.81613 14.96305,-17.76081 9.31984,-3.60492 21.6323,-4.48417 31.63616,-3.16529 9.40535,1.23094 19.0672,11.78192 30.61013,21.71743 6.84025,5.89096 17.35713,8.44078 23.51336,9.9355 6.49824,1.58265 10.26037,0.7034 15.13405,-0.61547 2.67061,-1.14969 3.44196,-3.31414 3.24912,-5.89096 -0.45652,-2.66377 -1.32759,-4.94617 -1.88107,-7.38569 3.1057,1.01047 6.04947,2.34062 9.06334,3.16529 2.30966,0.54982 5.11214,-0.0348 6.15622,-1.93434 7.45062,-17.69626 -7.36121,-36.857809 -18.55418,-45.545064 -12.82547,-9.583756 -30.78113,-16.617742 -50.44685,-16.705667 -6.49824,-1.055098 -13.08198,-1.582647 -27.66026,-1.62661 -14.57829,-0.04396 -36.8091,6.022851 -54.76476,17.189305 z m 125.68961,15.826469 c 0,5.890967 -4.61717,10.550977 -10.26038,10.550977 -5.72871,0 -10.26037,-4.74794 -10.26037,-10.550977 0,-5.890964 4.61716,-10.55098 10.26037,-10.55098 5.72871,0 10.26038,4.747941 10.26038,10.55098 z m -82.85254,19.871007 c 0.34201,8.08909 0.51302,16.09025 0.76953,24.17933 4.78817,2.54982 9.91836,4.66002 14.87754,6.59437 6.92576,2.72566 14.02252,5.18756 21.11928,7.64946 0.34201,-9.14419 0.68402,-18.28837 1.11154,-27.2567 -4.36066,-4.22039 -8.72132,-8.26494 -14.45003,-10.90268 -3.67664,-0.96717 -7.52428,-1.49472 -12.0987,-1.53869 -4.57441,-0.044 -8.08004,0.39567 -11.32916,1.27491 z m -16.50211,97.68449 c -1.62456,6.41851 3.50563,12.22155 4.70268,18.28837 2.8216,8.177 5.5577,16.35401 7.95179,24.61895 12.48346,-4.04454 25.22342,-7.56154 37.19386,-12.48533 0.17101,-4.66001 0.42752,-9.32003 0.68403,-13.89212 0.85503,-3.42907 2.39408,-6.68229 3.76213,-10.02343 -2.56509,-0.96717 -5.21569,-1.84642 -7.69528,-2.8136 -9.31984,-3.16529 -18.81069,-6.06681 -28.21603,-9.14418 l 0,1.14302 c -2.22308,-1.05509 -4.95918,-1.58264 -7.73804,-1.58264 -4.57441,0.0879 -9.02058,1.84642 -10.64514,5.89096 z m 19.23821,100.76186 c 0,5.62719 0,11.25437 0.0855,16.96949 9.40535,4.74794 19.49472,8.52871 29.58409,12.22155 2.56509,-11.07853 6.58374,-21.80536 9.91836,-32.53219 0,-4.57209 -6.24173,-6.50643 -10.43138,-5.45134 0,-0.61547 0.0855,-1.23094 0,-1.93434 -9.91837,3.34114 -19.75123,6.68228 -29.15657,10.72683 z m 0.0855,89.5954 c -4.18965,-0.17585 -8.1228,3.95662 -5.72871,7.56153 3.33462,8.70456 6.58374,17.49704 6.07072,26.72915 8.97783,-2.81359 17.87016,-5.80304 26.42047,-9.49588 0.17101,-8.79248 0.34202,-17.84874 0.42752,-26.72915 -4.61717,-1.7585 -9.31984,-3.34114 -13.93701,-4.92379 -4.36066,-1.58265 -8.72132,-3.07737 -13.16749,-4.61605 0,3.91265 -0.0855,7.69342 -0.0855,11.47419 z m 0.25651,80.45122 c 0.0855,12.48532 0.17101,24.97065 0.34201,37.45597 10.17488,-5.71511 22.23082,-10.55097 27.95953,-20.9261 1.45355,-3.78077 -2.30859,-7.03399 -1.53906,-10.90268 -0.171,-4.13247 -0.34201,-8.17701 -0.42751,-12.30948 -8.55032,2.54982 -17.44264,4.74794 -26.33497,6.68229 z" id="path3964" fill="#da0092"/>
</svg>
