<?xml version="1.0" encoding="UTF-8" standalone="no"?>
<svg xmlns="http://www.w3.org/2000/svg" version="1.0" width="580" height="580">
 <metadata id="metadata2975"/>
 <path d="m 238.39124,109.8562 0,126.58754 -126.58754,0 c -5.35562,0 -9.7375,4.38187 -9.7375,9.7375 l 0,79.84752 c 0,5.35563 4.38188,9.73751 9.7375,9.73751 l 126.58754,0 0,126.58753 c 0,5.35563 4.38187,9.7375 9.7375,9.7375 l 79.84752,0 c 5.35563,0 9.73751,-4.38187 9.73751,-9.7375 l 0,-126.58753 126.58753,0 c 5.35563,0 9.7375,-4.38188 9.7375,-9.73751 l 0,-79.84752 c 0,-5.35563 -4.38187,-9.7375 -9.7375,-9.7375 l -126.58753,0 0,-126.58754 c 0,-5.35562 -4.38188,-9.7375 -9.73751,-9.7375 l -79.84752,0 c -5.35563,0 -9.7375,4.38188 -9.7375,9.7375 z M 35.851182,286.00763 c 0,139.24628 112.955028,252.20132 252.201318,252.20132 139.24629,0 252.20132,-112.95504 252.20132,-252.20132 0,-139.24629 -112.95503,-252.201324 -252.20132,-252.201324 -139.24629,0 -252.201318,112.955034 -252.201318,252.201324 z m 483.953888,0.58425 c 0,127.56128 -103.21753,231.75256 -230.77882,231.75256 -127.56128,0 -230.778812,-103.21753 -230.778812,-230.77881 0,-127.56129 103.217532,-230.778817 230.778812,-231.752568 126.58754,-0.97375 230.77882,102.243778 230.77882,230.778818 z" id="path4147" mix-blend-mode="normal" solid-color="#000000" opacity="0.8" white-space="normal" color-interpolation-filters="linearRGB" filter-gaussianBlur-deviation="0" color="#000000" image-rendering="auto" color-rendering="auto" stroke-width="64" isolation="auto" color-interpolation="sRGB" solid-opacity="1" fill="none" stroke-linejoin="round" filter-blend-mode="normal" stroke="#ffffff" shape-rendering="auto"/>
 <path id="rect3180" d="m 238.39124,109.8562 0,126.58754 -126.58754,0 c -5.35562,0 -9.7375,4.38187 -9.7375,9.7375 l 0,79.84752 c 0,5.35563 4.38188,9.73751 9.7375,9.73751 l 126.58754,0 0,126.58753 c 0,5.35563 4.38187,9.7375 9.7375,9.7375 l 79.84752,0 c 5.35563,0 9.73751,-4.38187 9.73751,-9.7375 l 0,-126.58753 126.58753,0 c 5.35563,0 9.7375,-4.38188 9.7375,-9.73751 l 0,-79.84752 c 0,-5.35563 -4.38187,-9.7375 -9.7375,-9.7375 l -126.58753,0 0,-126.58754 c 0,-5.35562 -4.38188,-9.7375 -9.73751,-9.7375 l -79.84752,0 c -5.35563,0 -9.7375,4.38188 -9.7375,9.7375 z M 35.851182,286.00763 c 0,139.24628 112.955028,252.20132 252.201318,252.20132 139.24629,0 252.20132,-112.95504 252.20132,-252.20132 0,-139.24629 -112.95503,-252.201324 -252.20132,-252.201324 -139.24629,0 -252.201318,112.955034 -252.201318,252.201324 z m 483.953888,0.58425 c 0,127.56128 -103.21753,231.75256 -230.77882,231.75256 -127.56128,0 -230.778812,-103.21753 -230.778812,-230.77881 0,-127.56129 103.217532,-230.778817 230.778812,-231.752568 126.58754,-0.97375 230.77882,102.243778 230.77882,230.778818 z" fill="#da0092" isolation="auto" color-rendering="auto" white-space="normal" solid-opacity="1" mix-blend-mode="normal" color-interpolation-filters="linearRGB" shape-rendering="auto" image-rendering="auto" color-interpolation="sRGB" color="#000000" solid-color="#000000"/>
</svg>
