<?xml version="1.0" encoding="UTF-8" standalone="no"?>
<svg xmlns="http://www.w3.org/2000/svg" version="1.0" width="580" height="580">
 <metadata id="metadata2975"/>
 <path white-space="normal" isolation="auto" mix-blend-mode="normal" id="path4141" d="m 231,218 -82,0 c 0,44.33333 0,88.66667 0,133 l 82,0 0,82 132,0 0,-82 82,0 0,-133 -82,0 0,-81 c -44,0 -88,0 -132,0 z" solid-color="#000000" opacity="0.8" color-interpolation-filters="linearRGB" filter-gaussianBlur-deviation="0" color="#000000" image-rendering="auto" color-rendering="auto" fill-rule="evenodd" stroke-width="64" color-interpolation="sRGB" solid-opacity="1" fill="none" stroke-linejoin="round" filter-blend-mode="normal" stroke="#ffffff" shape-rendering="auto"/>
 <path white-space="normal" isolation="auto" mix-blend-mode="normal" id="path4143" d="m 101,481.6 393,0 0,-393 -393,-0.3 c 0,131.1 0,262.2 0,393.3 z m 372,-372 0,351 -351,0 0,-351 z" solid-color="#000000" opacity="0.8" color-interpolation-filters="linearRGB" filter-gaussianBlur-deviation="0" color="#000000" image-rendering="auto" color-rendering="auto" fill-rule="evenodd" stroke-width="64" color-interpolation="sRGB" solid-opacity="1" fill="none" stroke-linejoin="round" filter-blend-mode="normal" stroke="#ffffff" shape-rendering="auto"/>
 <path d="m 231,218 -82,0 c 0,44.33333 0,88.66667 0,133 l 82,0 0,82 132,0 0,-82 82,0 0,-133 -82,0 0,-81 c -44,0 -88,0 -132,0 z" id="rect2160" mix-blend-mode="normal" isolation="auto" white-space="normal" fill="#da0092" color-rendering="auto" solid-opacity="1" color-interpolation-filters="linearRGB" shape-rendering="auto" image-rendering="auto" color-interpolation="sRGB" color="#000000" solid-color="#000000"/>
 <path d="m 101,481.6 393,0 0,-393 -393,-0.3 c 0,131.1 0,262.2 0,393.3 z m 372,-372 0,351 -351,0 0,-351 z" id="rect3184" mix-blend-mode="normal" isolation="auto" white-space="normal" fill="#da0092" color-rendering="auto" solid-opacity="1" color-interpolation-filters="linearRGB" shape-rendering="auto" image-rendering="auto" color-interpolation="sRGB" color="#000000" solid-color="#000000"/>
</svg>
