<?xml version="1.0" encoding="UTF-8" standalone="no"?>
<svg xmlns="http://www.w3.org/2000/svg" xmlns:sodipodi="http://sodipodi.sourceforge.net/DTD/sodipodi-0.dtd" xmlns:inkscape="http://www.inkscape.org/namespaces/inkscape" version="1.0" width="580" height="580">
 <metadata id="metadata2975"/>
 <defs id="defs4">
  <symbol viewBox="244.5 110 489 219.9" id="symbol-university">
   <path id="path4460" d="M79,43l57,119c0,0,21-96,104-96s124,106,124,106l43-133l82-17L0,17L79,43z"/>
   <path id="path4462" d="M94,176l-21,39" stroke-width="20" stroke="#000000" fill="none"/>
   <path id="path4464" d="M300,19c0,10.5-22.6,19-50.5,19S199,29.5,199,19s22.6-19,50.5-19S300,8.5,300,19z"/>
   <path id="path4466" d="M112,216l-16-38L64,88c0,0-9-8-4-35s16-24,16-24" stroke-width="20" stroke="#000000" ill="none"/>
  </symbol>
 </defs>
 <g id="g1327">
  <path d="M 66.275,1.768 C 24.94,1.768 1.704,23.139 1.704,66.804 L 1.704,516.927 C 1.704,557.771 22.599,579.156 63.896,579.156 L 515.92,579.156 C 557.227,579.156 578.149,558.841 578.149,516.927 L 578.149,66.804 C 578.149,24.203 557.227,1.768 514.628,1.768 C 514.624,1.768 66.133,1.625 66.275,1.768 z " id="path1329" fill="#AC39AC" stroke="#eee" stroke-width="3.408"/>
 </g>
 <g id="g7010" transform="matrix(1.0014414,0,0,1.0543874,-15.580879,-16.459021)">
  <path sodipodi:nodetypes="ccccc" id="rect3771" d="m 146.7393,44.009621 37.8387,0 0,124.859569 -37.8387,0 0,-124.859569 z" fill="#ffffff" stroke="#ffffff" stroke-linejoin="round" stroke-linecap="round" stroke-width="15.298"/>
  <path sodipodi:nodetypes="czcccc" id="path6978" d="m 110.17519,187.41423 c -1.68505,-9.49469 40.14927,-29.33844 55.65658,-29.35966 15.50731,-0.0212 55.77161,22.48985 58.71582,29.35966 l 0,316.95169 c -28.66921,14.88115 -97.94359,12.00125 -114.3724,0 l 0,-316.95169 z" fill="#ffffff" stroke="#ffffff" stroke-linejoin="round" stroke-linecap="round" stroke-width="46.24"/>
 </g>
 <path d="M 401.39916,397.29099 L 401.39916,519.88932" id="path3845" fill="none" stroke="#ffffff" stroke-linecap="round" stroke-width="24"/>
 <path sodipodi:type="arc" id="path3878" sodipodi:cx="519.16229" sodipodi:cy="502.69528" sodipodi:rx="45.569103" sodipodi:ry="12.748499" d="M 564.7314,502.69528 A 45.569103,12.748499 0 1 1 473.59319,502.69528 A 45.569103,12.748499 0 1 1 564.7314,502.69528 z" transform="matrix(1.4302812,0,0,1.8342213,-341.58987,-395.38818)" fill="#ffffff"/>
 <g id="g4243" transform="matrix(1.1990081,0,0,1.2591238,-72.990402,-108.62601)">
  <path sodipodi:nodetypes="csssccc" id="path3840-8" d="M 339.85,317.23424 C 339.8178,318.53216 339.7999,319.83312 339.7999,321.14408 C 339.7999,373.07071 365.37652,415.14047 396.92055,415.14047 C 428.46458,415.14047 454.0412,373.07071 454.0412,321.14408 C 454.0412,319.83312 454.0235,318.53216 453.9911,317.23424 C 411.89595,306.93245 365.98943,310.45437 339.84988,317.23424 L 339.84994,317.23424 z" opacity=".75" fill="#ffffff" stroke="#ffffff" stroke-linejoin="round" stroke-linecap="round" stroke-width="8.129"/>
  <path sodipodi:nodetypes="csssccc" id="path3840" d="M 339.43634,317.79387 C 339.40404,319.09179 339.38624,320.39276 339.38624,321.7037 C 339.38624,373.63032 364.96287,415.7001 396.50689,415.7001 C 428.05092,415.7001 453.62755,373.63032 453.62755,321.7037 C 453.62755,320.39276 453.60985,319.09179 453.57745,317.79387 C 421.72547,327.70601 387.70424,334.14737 339.43623,317.79387 L 339.4363,317.79387 z" fill="#ffffff" stroke="#ffffff" stroke-linejoin="round" stroke-linecap="round" stroke-width="0"/>
 </g>
 <g transform="matrix(25.818296,0,0,25.818296,-7603.868,-1626.0059)" id="flowRoot6831" fill="#ffffff">
  <path d="m 307.37375,64.57625 c -1.01,0 -1.66,0.770001 -1.66,2.09 0,1.329999 0.64,2.11 1.66,2.11 1.02,0 1.67,-0.790001 1.67,-2.11 0,-1.309999 -0.66,-2.09 -1.67,-2.09 m 4.18,0.12 -4.18,6.71 0.7,0 4.18,-6.71 -0.7,0 m -4.21,0.33 c 0.45,0 0.7,0.550001 0.7,1.64 0,1.099999 -0.25,1.65 -0.7,1.65 -0.45,0 -0.68,-0.550001 -0.68,-1.65 0,-1.089999 0.24,-1.64 0.68,-1.64 m 4.96,2.31 c -1.01,0 -1.67,0.770001 -1.67,2.09 0,1.329999 0.65,2.1 1.67,2.1 1.02,0 1.67,-0.780001 1.67,-2.1 0,-1.299999 -0.66,-2.09 -1.67,-2.09 m -0.02,0.44 c 0.45,0 0.69,0.560001 0.69,1.65 0,1.099999 -0.23,1.65 -0.69,1.65 -0.45,0 -0.69,-0.560001 -0.69,-1.65 0,-1.089999 0.25,-1.65 0.69,-1.65" id="path6840"/>
 </g>
</svg>
