<?xml version="1.0" encoding="UTF-8" standalone="no"?>
<svg xmlns="http://www.w3.org/2000/svg" xmlns:sodipodi="http://sodipodi.sourceforge.net/DTD/sodipodi-0.dtd" xmlns:inkscape="http://www.inkscape.org/namespaces/inkscape" version="1.0" width="580" height="580">
 <metadata id="metadata10"/>
 <defs id="defs4">
  <clipPath id="clipoutline2">
   <path d="M 55.8,12 L 56.56,12.16 C 65.4,9.22 85.24,20.8 80.82,31.12 C 79.7,32.74 79.89,35.62 81.24,37.43 L 56.43,62.25 C 55.04,60.86 51.95,60.89 50.53,62.25 L 9.5,101.63 C 5.76,105.22 8.7,108.27 10.28,109.88 L 17.64,117.24 C 19.25,118.84 23.5,121 26.52,117.8 L 65.24,76.99 C 66.59,75.57 66.6,72.52 65.24,71.12 C 65.24,71.12 65.25,71.1 65.24,71.1 L 90.15,46.2 C 92.78,48.57 95.263827,48.774854 97.62,48.13 C 102.17057,46.884568 104.70725,51.336643 107.43,54.59 L 106.2,55.8 C 104.38,57.64 104.55,60.74 106.59,62.78 C 108.63,64.82 111.74,64.99 113.56,63.17 L 121.7,55.04 C 123.52,53.2 123.35,50.1 121.3,48.07 C 119.46,46.22 116.79,45.98 114.93,47.3 C 109.35,41.04 112.28,40.1 104.92,31.95 L 91.13,17.86 C 81.2,8.12 68.3,8.13 55.8,12 z" id="outline2"/>
  </clipPath>
  <clipPath id="clipoutline1">
   <path d="M 22.42,17.2 L 35.38,30.15 L 32.88,38.93 L 24.1,41.43 L 11.14,28.47 L 5.28,34.33 L 20.17,55.79 L 37.73,52.45 L 99.36,118.07 C 108.8,127.58 121.53,113.32 112.7,105.2 L 46.85,42.92 L 50.86,25.16 L 28.72,10.89 L 22.42,17.2 z M 103.48,109.17 C 105.16,107.49 107.88,107.49 109.56,109.17 C 111.24,110.85 111.24,113.57 109.56,115.25 C 107.88,116.92 105.16,116.92 103.48,115.25 C 101.8,113.57 101.8,110.85 103.48,109.17 z" id="outline1"/>
  </clipPath>
  <marker viewBox="0 0 10 10" refY="5" refX="10" orient="auto" markerWidth="4" markerUnits="strokeWidth" markerHeight="3" id="ArrowStart">
   <path id="path2295" d="M 10 0 L 0 5 L 10 10 z"/>
  </marker>
  <marker viewBox="0 0 10 10" refY="5" orient="auto" markerWidth="4" markerUnits="strokeWidth" markerHeight="3" id="ArrowEnd">
   <path id="path2292" d="M 0 0 L 10 5 L 0 10 z"/>
  </marker>
 </defs>
 <g id="g1327">
  <path d="M 66.275,1.768 C 24.94,1.768 1.704,23.139 1.704,66.804 L 1.704,516.927 C 1.704,557.771 22.598,579.156 63.896,579.156 L 515.92,579.156 C 557.227,579.156 578.149,558.84 578.149,516.927 L 578.149,66.804 C 578.149,24.203 557.227,1.768 514.627,1.768 C 514.624,1.768 66.133,1.625 66.275,1.768 z" id="path1329" fill="#AC39AC" stroke="#eeeeee" stroke-width="3.408"/>
 </g>
 <g transform="matrix(32.112803,0,0,32.112803,41.50013,-33245.965)" id="layer1">
  <path inkscape:connector-curvature="0" d="m 6.791632,1048.0368 c 0,0 -1.336274,-1.567 -2.72571,-3.8465 -1.102407,-1.8085 -2.121982,-4.1906 -2.215354,-4.4437 0.752577,-0.5472 4.593113,-2.2768 5.371772,-2.4463 0.226417,0.8747 0.58088,2.5876 1.329796,4.2517 0.773744,1.7193 1.705148,3.0597 2.051811,3.5127 -0.829557,0.7825 -3.812315,2.9721 -3.812315,2.9721 z m 2.617005,-0.9585 c 0.09655,0.8013 2.796805,4.527 3.709753,5.2027 0.352387,0.2608 0.598765,0.048 1.19729,-0.3748 0.598504,-0.4231 0.823826,-0.7834 0.605721,-1.2928 -0.447665,-1.0456 -2.405882,-4.7995 -3.325268,-5.4011 -0.884575,-1.2876 -1.625777,-2.2611 -2.354695,-4.0463 -0.754178,-1.847 -1.235513,-3.7233 -1.524107,-4.8256 -1.026691,0.2979 -2.726886,1.0185 -3.772883,1.5009 -1.165407,0.5374 -1.99909,1.0621 -2.92518,1.5588 0.292933,0.8518 0.993339,2.9498 2.456052,5.2163 1.155768,1.7909 2.12744,3.2168 3.223152,4.3016 l 2.710165,-1.8397 z m -4.060504,-7.4527 c 0,-0.4143 0.354703,-0.7504 0.792252,-0.7504 0.437549,0 0.792253,0.3361 0.792253,0.7504 0,0.4146 -0.354704,0.7507 -0.792253,0.7507 -0.437549,0 -0.792252,-0.3361 -0.792252,-0.7507 z" id="path3670" fill="#ffffff" fill-rule="evenodd" stroke-width=".311"/>
  <path id="path4008" d="m 6.791632,1048.0368 c 0,0 -1.336274,-1.567 -2.72571,-3.8465 -1.102407,-1.8085 -2.121982,-4.1906 -2.215354,-4.4437 0.752577,-0.5472 4.593113,-2.2768 5.371772,-2.4463 0.226417,0.8747 0.58088,2.5876 1.329796,4.2517 0.773744,1.7193 1.705148,3.0597 2.051811,3.5127 -0.829557,0.7825 -3.812315,2.9721 -3.812315,2.9721 z m 2.617005,-0.9585 c 0.09655,0.8013 2.796805,4.527 3.709753,5.2027 0.352387,0.2608 0.598765,0.048 1.19729,-0.3748 0.598504,-0.4231 0.823826,-0.7834 0.605721,-1.2928 -0.447665,-1.0456 -2.405882,-4.7995 -3.325268,-5.4011 -0.884575,-1.2876 -1.625777,-2.2611 -2.354695,-4.0463 -0.754178,-1.847 -1.235513,-3.7233 -1.524107,-4.8256 -1.026691,0.2979 -2.726886,1.0185 -3.772883,1.5009 -1.165407,0.5374 -1.99909,1.0621 -2.92518,1.5588 0.292933,0.8518 0.993339,2.9498 2.456052,5.2163 1.155768,1.7909 2.12744,3.2168 3.223152,4.3016 l 2.710165,-1.8397 z m -4.060504,-7.4527 c 0,-0.4143 0.354703,-0.7504 0.792252,-0.7504 0.437549,0 0.792253,0.3361 0.792253,0.7504 0,0.4146 -0.354704,0.7507 -0.792253,0.7507 -0.437549,0 -0.792252,-0.3361 -0.792252,-0.7507 z" inkscape:connector-curvature="0" fill="#ffffff" fill-rule="evenodd" stroke-width=".311"/>
 </g>
 <g id="g4034" transform="matrix(32.112803,0,0,32.112803,41.50013,-33245.965)">
  <path id="path4036" d="m 6.791632,1048.0368 c 0,0 -1.336274,-1.567 -2.72571,-3.8465 -1.102407,-1.8085 -2.121982,-4.1906 -2.215354,-4.4437 0.752577,-0.5472 4.593113,-2.2768 5.371772,-2.4463 0.226417,0.8747 0.58088,2.5876 1.329796,4.2517 0.773744,1.7193 1.705148,3.0597 2.051811,3.5127 -0.829557,0.7825 -3.812315,2.9721 -3.812315,2.9721 z m 2.617005,-0.9585 c 0.09655,0.8013 2.796805,4.527 3.709753,5.2027 0.352387,0.2608 0.598765,0.048 1.19729,-0.3748 0.598504,-0.4231 0.823826,-0.7834 0.605721,-1.2928 -0.447665,-1.0456 -2.405882,-4.7995 -3.325268,-5.4011 -0.884575,-1.2876 -1.625777,-2.2611 -2.354695,-4.0463 -0.754178,-1.847 -1.235513,-3.7233 -1.524107,-4.8256 -1.026691,0.2979 -2.726886,1.0185 -3.772883,1.5009 -1.165407,0.5374 -1.99909,1.0621 -2.92518,1.5588 0.292933,0.8518 0.993339,2.9498 2.456052,5.2163 1.155768,1.7909 2.12744,3.2168 3.223152,4.3016 l 2.710165,-1.8397 z m -4.060504,-7.4527 c 0,-0.4143 0.354703,-0.7504 0.792252,-0.7504 0.437549,0 0.792253,0.3361 0.792253,0.7504 0,0.4146 -0.354704,0.7507 -0.792253,0.7507 -0.437549,0 -0.792252,-0.3361 -0.792252,-0.7507 z" inkscape:connector-curvature="0" fill="#ffffff" fill-rule="evenodd" stroke-width=".311"/>
  <path inkscape:connector-curvature="0" d="m 9.408637,1047.0783 c 0.09655,0.8013 2.796805,4.527 3.709753,5.2027 0.352387,0.2608 0.598765,0.048 1.19729,-0.3748 0.598504,-0.4231 0.823826,-0.7834 0.605721,-1.2928 -0.447665,-1.0456 -2.405882,-4.7995 -3.325268,-5.4011 -0.884575,-1.2876 -1.625777,-2.2611 -2.354695,-4.0463 -0.754178,-1.847 -1.235513,-3.7233 -1.524107,-4.8256 -1.026691,0.2979 -2.726886,1.0185 -3.772883,1.5009 -1.165407,0.5374 -1.99909,1.0621 -2.92518,1.5588 0.292933,0.8518 0.993339,2.9498 2.456052,5.2163 1.155768,1.7909 2.12744,3.2168 3.223152,4.3016 z" id="path4038" sodipodi:nodetypes="cccccccccscc" opacity=".1" fill="#ffffff" fill-rule="evenodd"/>
 </g>
</svg>
