<?xml version="1.0" encoding="UTF-8" standalone="no"?>
<svg xmlns="http://www.w3.org/2000/svg" xmlns:sodipodi="http://sodipodi.sourceforge.net/DTD/sodipodi-0.dtd" xmlns:inkscape="http://www.inkscape.org/namespaces/inkscape" version="1.0" width="580" height="580">
 <metadata id="metadata10"/>
 <defs id="defs4">
  <marker viewBox="0 0 10 10" refY="5" refX="10" orient="auto" markerWidth="4" markerUnits="strokeWidth" markerHeight="3" id="ArrowStart">
   <path id="path2295" d="M 10 0 L 0 5 L 10 10 z"/>
  </marker>
  <marker viewBox="0 0 10 10" refY="5" orient="auto" markerWidth="4" markerUnits="strokeWidth" markerHeight="3" id="ArrowEnd">
   <path id="path2292" d="M 0 0 L 10 5 L 0 10 z"/>
  </marker>
 </defs>
 <g id="g1327">
  <path d="M 66.275,1.768 C 24.94,1.768 1.704,23.139 1.704,66.804 L 1.704,516.927 C 1.704,557.771 22.598,579.156 63.896,579.156 L 515.92,579.156 C 557.227,579.156 578.149,558.84 578.149,516.927 L 578.149,66.804 C 578.149,24.203 557.227,1.768 514.627,1.768 C 514.624,1.768 66.133,1.625 66.275,1.768 z" id="path1329" fill="#AC39AC" stroke="#eeeeee" stroke-width="3.408"/>
 </g>
 <path d="M 183.48455,89.608679 C 151.75504,89.608679 134.92324,106.93092 127.15266,127.20724 L 85.90418,233.71452 C 69.552532,235.81123 40.566027,255.00504 40.566027,291.36566 L 40.566027,426.80843 L 80.71514,426.80843 L 80.71514,470.12376 C 80.71514,523.41432 156.13213,522.7867 156.13214,470.12376 L 156.13214,426.80843 L 291.79481,426.80843 L 291.83886,426.80843 L 427.50145,426.80843 L 427.50145,470.12376 C 427.50145,522.7867 502.91809,523.41432 502.91852,470.12376 L 502.91852,426.80843 L 543.06757,426.80843 L 543.06757,291.36566 C 543.06757,255.00507 514.08126,235.81123 497.72933,233.71452 L 456.43696,127.20724 C 448.66641,106.93092 431.83476,89.608679 400.10501,89.608679 L 341.79438,89.608679 L 242.49883,89.608679 L 183.48455,89.608679 z M 183.00082,128.39457 L 291.70687,128.39457 L 291.79481,128.39457 L 291.83886,128.39457 L 400.5888,128.39457 C 414.18652,128.52119 420.01024,137.02489 423.89549,148.79891 L 454.98571,232.61515 L 291.83886,232.61515 L 291.79481,232.61515 L 291.70687,232.61515 L 128.60384,232.61515 L 159.6941,148.79891 C 163.5794,137.02489 169.40165,128.52119 183.00082,128.39457 z M 119.63296,273.37991 C 138.87358,273.37991 154.4611,289.4332 154.4611,309.26344 C 154.46109,329.0951 138.87358,345.19097 119.63296,345.19097 C 100.39375,345.19097 84.804809,329.09507 84.804809,309.26344 C 84.804809,289.43325 100.39375,273.37991 119.63296,273.37991 z M 464.00063,273.37991 C 483.24126,273.37991 498.82891,289.43325 498.82878,309.26344 C 498.82878,329.09507 483.24126,345.19097 464.00063,345.19097 C 444.76144,345.19097 429.12843,329.0951 429.12843,309.26344 C 429.12843,289.4332 444.76144,273.37991 464.00063,273.37991 z" id="path2301" fill="#ffffff"/>
</svg>
