<?xml version="1.0" encoding="UTF-8" standalone="no"?>
<svg xmlns="http://www.w3.org/2000/svg" xmlns:xlink="http://www.w3.org/1999/xlink" xmlns:sodipodi="http://sodipodi.sourceforge.net/DTD/sodipodi-0.dtd" xmlns:inkscape="http://www.inkscape.org/namespaces/inkscape" version="1.0" width="580" height="580">
 <metadata id="metadata10"/>
 <defs id="defs4">
  <clipPath id="clipoutline2">
   <path d="M 55.8,12 L 56.56,12.16 C 65.4,9.22 85.24,20.8 80.82,31.12 C 79.7,32.74 79.89,35.62 81.24,37.43 L 56.43,62.25 C 55.04,60.86 51.95,60.89 50.53,62.25 L 9.5,101.63 C 5.76,105.22 8.7,108.27 10.28,109.88 L 17.64,117.24 C 19.25,118.84 23.5,121 26.52,117.8 L 65.24,76.99 C 66.59,75.57 66.6,72.52 65.24,71.12 C 65.24,71.12 65.25,71.1 65.24,71.1 L 90.15,46.2 C 92.78,48.57 95.263827,48.774854 97.62,48.13 C 102.17057,46.884568 104.70725,51.336643 107.43,54.59 L 106.2,55.8 C 104.38,57.64 104.55,60.74 106.59,62.78 C 108.63,64.82 111.74,64.99 113.56,63.17 L 121.7,55.04 C 123.52,53.2 123.35,50.1 121.3,48.07 C 119.46,46.22 116.79,45.98 114.93,47.3 C 109.35,41.04 112.28,40.1 104.92,31.95 L 91.13,17.86 C 81.2,8.12 68.3,8.13 55.8,12 z" id="outline2"/>
  </clipPath>
  <clipPath id="clipoutline1">
   <path d="M 22.42,17.2 L 35.38,30.15 L 32.88,38.93 L 24.1,41.43 L 11.14,28.47 L 5.28,34.33 L 20.17,55.79 L 37.73,52.45 L 99.36,118.07 C 108.8,127.58 121.53,113.32 112.7,105.2 L 46.85,42.92 L 50.86,25.16 L 28.72,10.89 L 22.42,17.2 z M 103.48,109.17 C 105.16,107.49 107.88,107.49 109.56,109.17 C 111.24,110.85 111.24,113.57 109.56,115.25 C 107.88,116.92 105.16,116.92 103.48,115.25 C 101.8,113.57 101.8,110.85 103.48,109.17 z" id="outline1"/>
  </clipPath>
  <marker viewBox="0 0 10 10" refY="5" refX="10" orient="auto" markerWidth="4" markerUnits="strokeWidth" markerHeight="3" id="ArrowStart">
   <path id="path2295" d="M 10 0 L 0 5 L 10 10 z"/>
  </marker>
  <marker viewBox="0 0 10 10" refY="5" orient="auto" markerWidth="4" markerUnits="strokeWidth" markerHeight="3" id="ArrowEnd">
   <path id="path2292" d="M 0 0 L 10 5 L 0 10 z"/>
  </marker>
 </defs>
 <g id="g1327">
  <path d="M 66.275,1.768 C 24.94,1.768 1.704,23.139 1.704,66.804 L 1.704,516.927 C 1.704,557.771 22.598,579.156 63.896,579.156 L 515.92,579.156 C 557.227,579.156 578.149,558.84 578.149,516.927 L 578.149,66.804 C 578.149,24.203 557.227,1.768 514.627,1.768 C 514.624,1.768 66.133,1.625 66.275,1.768 z" id="path1329" fill="#AC39AC" stroke="#eeeeee" stroke-width="3.408"/>
 </g>
 <path d="M 141.14967,158.36231 C 119.80221,158.36231 108.47786,170.01662 103.24986,183.65843 L 75.498084,255.31598 C 64.496777,256.72664 44.994807,269.64014 44.994807,294.10338 L 44.994807,385.22859 L 72.006925,385.22859 L 72.006925,414.37092 C 72.006925,450.22454 122.7471,449.80228 122.74711,414.37092 L 122.74711,385.22859 L 214.02027,385.22859 L 214.0499,385.22859 L 305.32301,385.22859 L 305.32301,414.37092 C 305.32301,449.80228 356.06294,450.22454 356.06323,414.37092 L 356.06323,385.22859 L 383.0753,385.22859 L 383.0753,294.10338 C 383.0753,269.64016 363.57346,256.72664 352.57197,255.31598 L 324.79067,183.65843 C 319.56268,170.01662 308.23843,158.36231 286.89082,158.36231 L 247.65972,158.36231 L 180.85418,158.36231 L 141.14967,158.36231 z M 140.82422,184.45726 L 213.9611,184.45726 L 214.02027,184.45726 L 214.0499,184.45726 L 287.21631,184.45726 C 296.36479,184.54244 300.28296,190.26369 302.89693,198.1852 L 323.81428,254.57634 L 214.0499,254.57634 L 214.02027,254.57634 L 213.9611,254.57634 L 104.22621,254.57634 L 125.14358,198.1852 C 127.75759,190.26369 131.67476,184.54244 140.82422,184.45726 z M 98.190635,282.00266 C 111.13564,282.00266 121.62284,292.80323 121.62284,306.14492 C 121.62283,319.48756 111.13564,330.31678 98.190635,330.31678 C 85.246593,330.31678 74.758433,319.48754 74.758433,306.14492 C 74.758433,292.80326 85.246593,282.00266 98.190635,282.00266 z M 329.87947,282.00266 C 342.82447,282.00266 353.31176,292.80326 353.31167,306.14492 C 353.31167,319.48754 342.82447,330.31678 329.87947,330.31678 C 316.93544,330.31678 306.41763,319.48756 306.41763,306.14492 C 306.41763,292.80323 316.93544,282.00266 329.87947,282.00266 z" id="path2301" fill="#ffffff"/>
 <g id="spanner" transform="matrix(-1.9177282,-1.988248,1.988248,-1.9177282,460.24478,551.21965)" fill="#ffffff" stroke="#ffffff" stroke-linejoin="round" stroke-linecap="round" stroke-width="2.347">
  <use height="580" width="580" xlink:href="#outline1" id="use4649" stroke-width="2.347"/>
  <use height="580" width="580" xlink:href="#outline1" id="use4651" stroke-width="2.347"/>
  <use height="580" width="580" xlink:href="#outline1" id="use4653" stroke-width="2.347"/>
  <use height="580" width="580" xlink:href="#outline1" clip-path="url(#clipoutline1)" id="use4655" stroke-width="2.347"/>
  <path d="M 24.33,15.4 L 37.78,28.78 L 34.45,40.47 L 23.5,43.74 L 9.9319417,30 L 5.2,34.54 L 19.4,54.48 L 38.3,50.34 L 100.8,116.7 C 108.3,125 121,114.03 111.94,105.1 L 45.04,42 L 48.9,24.83 L 28.94,10.8 L 24.33,15.4 z M 104.3,108.7 C 105.97,107.03 108.93,106.7 110.6,108.4 C 112.3,110.07 113.66,113.03 111.25,116.24 C 109.25,118.24 106.05,118.16 104.05,116 C 102.37,114.32 102.6,110.4 104.3,108.7 z" id="path4657" stroke-width="2.347"/>
  <path d="M 24.2,15.42 L 47.67,39.07 L 50.89,25.2 L 28.79,10.8 L 24.2,15.42 z" id="path4659" stroke-width="2.347"/>
 </g>
</svg>
