<?xml version="1.0" encoding="UTF-8" standalone="no"?>
<svg xmlns="http://www.w3.org/2000/svg" xmlns:sodipodi="http://sodipodi.sourceforge.net/DTD/sodipodi-0.dtd" xmlns:inkscape="http://www.inkscape.org/namespaces/inkscape" version="1.0" width="580" height="580">
 <metadata id="metadata2975"/>
 <defs id="defs4">
  <symbol id="symbol-university" viewBox="244.5 110 489 219.9">
   <path d="M79,43l57,119c0,0,21-96,104-96s124,106,124,106l43-133l82-17L0,17L79,43z" id="path4460"/>
   <path fill="none" stroke="#000000" stroke-width="20" d="M94,176l-21,39" id="path4462"/>
   <path d="M300,19c0,10.5-22.6,19-50.5,19S199,29.5,199,19s22.6-19,50.5-19S300,8.5,300,19z" id="path4464"/>
   <path ill="none" stroke="#000000" stroke-width="20" d="M112,216l-16-38L64,88c0,0-9-8-4-35s16-24,16-24" id="path4466"/>
  </symbol>
  <symbol viewBox="244.5 110 489 219.9" id="symbol9807">
   <path id="path9809" d="M79,43l57,119c0,0,21-96,104-96s124,106,124,106l43-133l82-17L0,17L79,43z"/>
   <path id="path9811" d="M94,176l-21,39" stroke-width="20" stroke="#000000" fill="none"/>
   <path id="path9813" d="M300,19c0,10.5-22.6,19-50.5,19S199,29.5,199,19s22.6-19,50.5-19S300,8.5,300,19z"/>
   <path id="path9815" d="M112,216l-16-38L64,88c0,0-9-8-4-35s16-24,16-24" stroke-width="20" stroke="#000000" ill="none"/>
  </symbol>
  <linearGradient id="linearGradient2936">
   <stop id="stop2938" stop-color="#8acf6b"/>
   <stop offset="1" id="stop2940" stop-color="#368912"/>
  </linearGradient>
  <linearGradient id="linearGradient2952">
   <stop id="stop2954" stop-color="#c0d50d"/>
   <stop offset="1" id="stop2956" stop-color="#eef2cd"/>
  </linearGradient>
 </defs>
 <g id="g1327">
  <path d="M 66.275,1.768 C 24.94,1.768 1.704,23.139 1.704,66.804 L 1.704,516.927 C 1.704,557.771 22.599,579.156 63.896,579.156 L 515.92,579.156 C 557.227,579.156 578.149,558.841 578.149,516.927 L 578.149,66.804 C 578.149,24.203 557.227,1.768 514.628,1.768 C 514.624,1.768 66.133,1.625 66.275,1.768 z " id="path1329" fill="#AC39AC" stroke="#eee" stroke-width="3.408"/>
 </g>
 <g id="g10367" transform="translate(9.2063491,9.2063491)">
  <path id="rect10304" d="m 42.125,111.03125 0,424.53125 289.15625,0 0,-424.53125 -289.15625,0 z m 134.53125,85.28125 c 21.16701,0 39.23246,3.11388 54.15625,9.34375 15.07569,6.24554 27.24185,15.63783 36.53125,28.125 5.78647,7.61298 9.90701,17.04388 12.34375,28.3125 2.43627,11.11582 3.65598,27.86164 3.65625,50.25 l 0,145.96875 -42.25,0 0,-37.9375 c -8.98481,15.22596 -20.32607,26.50122 -34.03125,33.8125 -13.55323,7.15848 -30.10182,10.75 -49.59375,10.75 -26.04027,0 -46.81108,-7.31885 -62.34375,-21.9375 -15.532776,-14.77146 -23.312527,-34.48752 -23.3125,-59.15625 -2.7e-5,-28.47718 9.527243,-50.10354 28.5625,-64.875 19.18742,-14.77146 47.27668,-22.15625 84.28125,-22.15625 l 56.4375,0 0,-6.625 c -0.15242,-20.40577 -5.32857,-35.17535 -15.53125,-44.3125 -10.20305,-9.28995 -26.52099,-13.9375 -48.90625,-13.9375 -14.31461,0 -28.75606,2.02651 -43.375,6.15625 -14.61912,4.11015 -28.86117,10.1439 -42.71875,18.0625 l 0,-42.03125 c 15.53267,-5.93601 30.36897,-10.3584 44.53125,-13.25 14.31437,-3.05616 28.16158,-4.5625 41.5625,-4.5625 z m 11.21875,133.375 c -24.51748,0 -43.04425,4.35253 -55.53125,13.03125 -12.3349,8.52983 -18.50007,21.32317 -18.5,38.375 -7e-5,15.38269 4.64824,27.34909 13.9375,35.875 9.28909,8.52983 22.14721,12.78125 38.59375,12.78125 23.14668,0 41.34507,-7.97874 54.59375,-23.96875 13.24832,-16.14281 19.97252,-38.39438 20.125,-66.71875 l 0,-9.375 -39.3125,0 -13.90625,0 z" fill="#ffffff"/>
  <path sodipodi:nodetypes="ccccc" d="m 42.125,111.03125 0,424.53125 289.15625,0 0,-424.53125 -289.15625,0 z" id="path10359" opacity=".5" fill="#ffffff"/>
 </g>
 <g id="g10363">
  <path sodipodi:nodetypes="ccccsccccccccsccccccccccccccccccscccccccscsccccc" id="rect3753-2" d="m 241.78125,38.3125 0,138.03125 48.40625,-36 c 15.53267,-5.93601 30.36897,-10.3584 44.53125,-13.25 14.31437,-3.05616 28.19283,-4.5625 41.59375,-4.5625 21.16701,0 39.20121,3.11388 54.125,9.34375 15.07569,6.24554 27.2731,15.63783 36.5625,28.125 5.78647,7.61298 9.87576,17.04388 12.3125,28.3125 2.43627,11.11582 3.65598,27.86164 3.65625,50.25 l 0,145.96875 -42.25,0 0,-37.9375 c -8.98481,15.22596 -20.32607,26.50122 -34.03125,33.8125 -13.55323,7.15848 -30.07057,10.75 -49.5625,10.75 -23.98279,0 -43.52163,-6.22389 -58.59375,-18.625 l 0,90.3125 232.375,0 0,-424.53125 -289.125,0 z m 0,138.03125 0,0 z m 55.5625,195.1875 c -0.87852,-0.74901 -1.7468,-1.51539 -2.59375,-2.3125 l 2.59375,2.3125 z m 0,-124.1875 0,0 z m 0,0 c 0.86144,-0.73573 1.74973,-1.45278 2.65625,-2.15625 19.18742,-14.77146 47.30793,-22.15625 84.3125,-22.15625 l 56.40625,0 0,-6.625 c -0.15242,-20.40577 -5.32857,-35.17535 -15.53125,-44.3125 -10.20305,-9.28995 -26.48974,-13.9375 -48.875,-13.9375 -14.31461,0 -28.78731,2.02651 -43.40625,6.15625 -12.11781,3.40691 -23.96706,8.15933 -35.5625,14.1875 l 0,68.84375 z m 0,124.1875 0,0 z M 387.5,255.9375 c -24.51748,0 -43.013,4.32128 -55.5,13 -12.3349,8.52983 -18.50007,21.32317 -18.5,38.375 -7e-5,15.38269 4.61699,27.34909 13.90625,35.875 9.28909,8.52983 22.17846,12.78125 38.625,12.78125 23.14668,0 41.34507,-7.97874 54.59375,-23.96875 13.24832,-16.14281 19.94127,-38.39438 20.09375,-66.71875 l 0,-9.34375 -39.28125,0 -13.9375,0 z" opacity=".8" fill="#ffffff"/>
  <path d="m 241.78125,38.3125 0,138.03125 c 66.69029,16.56966 52.83028,166.22244 56.75,286.5 l 232.375,0 0,-424.53125 -289.125,0 z m 0,138.03125 0,0 z" id="path10361" sodipodi:nodetypes="cccccccc" opacity=".502" fill="#ffffff"/>
 </g>
</svg>
