<?xml version="1.0" encoding="UTF-8" standalone="no"?>
<svg xmlns="http://www.w3.org/2000/svg" xmlns:xlink="http://www.w3.org/1999/xlink" xmlns:sodipodi="http://sodipodi.sourceforge.net/DTD/sodipodi-0.dtd" xmlns:inkscape="http://www.inkscape.org/namespaces/inkscape" version="1.0" width="580" height="580">
 <metadata id="metadata2975"/>
 <defs id="defs4">
  <symbol viewBox="244.5 110 489 219.9" id="symbol-university">
   <path id="path4460" d="M79,43l57,119c0,0,21-96,104-96s124,106,124,106l43-133l82-17L0,17L79,43z"/>
   <path id="path4462" d="M94,176l-21,39" stroke-width="20" stroke="#000000" fill="none"/>
   <path id="path4464" d="M300,19c0,10.5-22.6,19-50.5,19S199,29.5,199,19s22.6-19,50.5-19S300,8.5,300,19z"/>
   <path id="path4466" d="M112,216l-16-38L64,88c0,0-9-8-4-35s16-24,16-24" stroke-width="20" stroke="#000000" ill="none"/>
  </symbol>
  <radialGradient gradientUnits="userSpaceOnUse" gradientTransform="scale(0.79354273,1.2601716)" xlink:href="#linearGradient829" id="radialGradient874" cx="180.25" cy="198.42" r="101.58"/>
  <linearGradient id="linearGradient829">
   <stop id="stop830" stop-color="#ffffff" stop-opacity=".342"/>
   <stop offset="1" id="stop831" stop-color="#ffffff" stop-opacity="0"/>
  </linearGradient>
  <radialGradient gradientUnits="userSpaceOnUse" gradientTransform="scale(1.007004,0.99304475)" xlink:href="#linearGradient829" id="radialGradient832" cx="360.85" cy="167.47" r="46.39"/>
  <linearGradient gradientUnits="userSpaceOnUse" gradientTransform="scale(0.74491357,1.3424376)" xlink:href="#linearGradient855" id="linearGradient850" x1="465.29" y1="248.24" x2="463.27" y2="405.77"/>
  <linearGradient id="linearGradient855">
   <stop id="stop856" stop-color="#ffffff" stop-opacity="0"/>
   <stop offset="1" id="stop857" stop-color="#ffa617" stop-opacity=".733"/>
  </linearGradient>
  <linearGradient gradientUnits="userSpaceOnUse" gradientTransform="scale(1.4586159,0.68558144)" xlink:href="#linearGradient855" id="linearGradient854" x1="157.81" y1="120.96" x2="155.41" y2="231.63"/>
  <clipPath id="clipoutline2">
   <path d="m 55.8,12 0.76,0.16 c 8.84,-2.94 28.68,8.64 24.26,18.96 -1.12,1.62 -0.93,4.5 0.42,6.31 L 56.43,62.25 c -1.39,-1.39 -4.48,-1.36 -5.9,0 L 9.5,101.63 c -3.74,3.59 -0.8,6.64 0.78,8.25 l 7.36,7.36 c 1.61,1.6 5.86,3.76 8.88,0.56 L 65.24,76.99 c 1.35,-1.42 1.36,-4.47 0,-5.87 0,0 0.01,-0.02 0,-0.02 L 90.15,46.2 c 2.63,2.37 5.113827,2.574854 7.47,1.93 4.55057,-1.245432 7.08725,3.206643 9.81,6.46 l -1.23,1.21 c -1.82,1.84 -1.65,4.94 0.39,6.98 2.04,2.04 5.15,2.21 6.97,0.39 l 8.14,-8.13 c 1.82,-1.84 1.65,-4.94 -0.4,-6.97 -1.84,-1.85 -4.51,-2.09 -6.37,-0.77 -5.58,-6.26 -2.65,-7.2 -10.01,-15.35 L 91.13,17.86 C 81.2,8.12 68.3,8.13 55.8,12 z" id="outline2"/>
  </clipPath>
 </defs>
 <g id="g1327">
  <path d="M 66.275,1.768 C 24.94,1.768 1.704,23.139 1.704,66.804 L 1.704,516.927 C 1.704,557.771 22.599,579.156 63.896,579.156 L 515.92,579.156 C 557.227,579.156 578.149,558.841 578.149,516.927 L 578.149,66.804 C 578.149,24.203 557.227,1.768 514.628,1.768 C 514.624,1.768 66.133,1.625 66.275,1.768 z " id="path1329" fill="#AC39AC" stroke="#eee" stroke-width="3.408"/>
 </g>
 <g id="g4238" transform="matrix(1.9550492,0,0,1.9550492,130.03311,-143.33673)">
  <path d="m 209.74503,225.79765 c 0,0 -10.56174,35.79543 -41.59499,25.12539 -0.005,0.0224 3.7446,-31.18541 41.59499,-25.12539 z" id="path6571" inkscape:connector-curvature="0" fill="#ffffff"/>
  <path d="m 157.72652,270.07711 c 5.36274,-5.30508 12.68607,-8.50543 20.81666,-8.50543 16.40541,0 29.75463,13.29154 29.75463,29.72577 0,0.60547 0,1.12444 -0.0288,1.75875 h -0.0576 c -0.51898,6.42953 -2.56606,14.41598 -7.40985,24.33419 0,0 -8.33244,15.94407 -15.02146,23.2674 l -0.60547,0.57664 c -3.22916,3.25801 -7.78462,5.30508 -12.71487,5.30508 -6.05474,0 -11.41748,-2.94086 -14.67549,-7.49631 h -0.0865 c -3.25802,4.55545 -8.62076,7.49631 -14.67547,7.49631 -4.98794,0 -9.48572,-2.01824 -12.74374,-5.30508 l -0.60546,-0.57664 c -6.63136,-7.32333 -15.02146,-23.2674 -15.02146,-23.2674 -4.84377,-9.91821 -6.89084,-17.96232 -7.35216,-24.33419 h -0.14415 c -0.0865,-0.60547 -0.0865,-1.12445 -0.0865,-1.75875 0,-16.43423 13.34921,-29.72577 29.81226,-29.72577 8.10178,0 15.42511,3.20035 20.84552,8.50543" id="path6573" inkscape:connector-curvature="0" fill="#ffffff"/>
  <path id="path10957" d="m 113.68291,214.69051 c 0,0 6.27532,31.27326 33.50285,24.54444 0.003,0.0195 -0.82177,-26.83164 -33.50285,-24.54444 z" inkscape:connector-curvature="0" fill="#ffffff"/>
  <path id="path10959" d="m 156.85947,263.78173 c 0,0 -0.30241,-32.11059 -3.62889,-40.48726 -3.32648,-8.37667 11.18908,0 11.18908,0 l -7.56019,40.48726 z" inkscape:connector-curvature="0" fill="#ffffff" stroke="#ffffff" stroke-width="1.351"/>
 </g>
 <g id="g4015" transform="translate(2,-4)">
  <path inkscape:connector-curvature="0" id="path3470" d="M 56.491347,345.3433 171.48706,496.40865 296.26258,436.03365 184.37297,286.25628 56.491347,345.3433 z" fill="#ffffff" fill-rule="evenodd" stroke="#ffffff" stroke-linejoin="round" stroke-linecap="round" stroke-width="5.491"/>
  <path inkscape:connector-curvature="0" id="path3474" d="M 42.478704,360.31161 155.50474,509.10418 152.24539,562.17255 38.177673,413.03907 42.478704,360.31161 z" fill="#ffffff" fill-rule="evenodd" stroke="#ffffff" stroke-linejoin="round" stroke-linecap="round" stroke-width="5.491"/>
  <path inkscape:connector-curvature="0" sodipodi:nodetypes="ccccc" id="path3476" d="m 293.27333,464.43786 -117.69458,58.1195 -0.20367,1.73897 117.59638,-58.07887 0.30188,-1.7796 z" opacity=".75" fill="#ffffff" fill-rule="evenodd" stroke="#ffffff" stroke-linejoin="round" stroke-linecap="round" stroke-width="9.05"/>
  <path inkscape:connector-curvature="0" d="m 290.98944,496.39729 -117.69457,58.1195 -0.20368,1.73898 117.59639,-58.07887 0.30187,-1.77961 z" id="path3505" sodipodi:nodetypes="ccccc" opacity=".75" fill="#ffffff" fill-rule="evenodd" stroke="#ffffff" stroke-linejoin="round" stroke-linecap="round" stroke-width="9.05"/>
 </g>
 <g transform="matrix(0.46271964,0,0,0.46271964,307.94236,19.163088)" id="g3753">
  <g transform="matrix(31.921892,0,0,31.921892,35.399153,14.948442)" id="g3709" fill="none" stroke="#ffffff" stroke-linejoin="round">
   <path inkscape:connector-curvature="0" d="M 8,15 0.5,6 15.5,6 z" id="path3700"/>
   <path inkscape:connector-curvature="0" d="M 0.5,6 3,3 13,3 15.5,6 z" id="path3702"/>
   <path inkscape:connector-curvature="0" id="path3706" d="M 4.5,3 8,15 11.5,3"/>
  </g>
  <path inkscape:connector-curvature="0" d="M 290.77429,493.77682 51.360099,206.4798 l 478.828381,0 z" id="path3700-3" opacity=".1" fill="#ffffff" stroke="#ffffff" stroke-linejoin="round" stroke-width="31.922"/>
  <path inkscape:connector-curvature="0" d="m 51.360099,206.4798 79.804731,-95.76568 319.21892,0 79.80473,95.76568 z" id="path3702-2" opacity=".1" fill="#ffffff" stroke="#ffffff" stroke-linejoin="round" stroke-width="31.922"/>
 </g>
 <g id="g3219" transform="matrix(1.7547704,0,0,1.7547704,-87.875856,-928.42807)" fill="#ffffff" stroke="#ffffff">
  <path inkscape:connector-curvature="0" sodipodi:nodetypes="ccccccccccc" id="path2427" d="m 67.613793,570.41735 c 24.468075,-13.10042 45.356037,-11.77452 66.041377,-23.06206 11.09637,2.43104 19.357,1.4592 26.99311,-0.26207 23.42862,10.78637 44.02825,12.51579 66.04138,23.5862 -1.82964,11.55946 -5.85886,21.54778 -12.57932,29.6138 -8.15361,-4.36994 -15.86829,-6.10632 -23.32413,-6.28966 l -0.52414,78.62069 c -32.1215,5.98273 -59.34716,3.39775 -85.95862,-0.26207 l -0.26207,-78.09655 c -9.370679,-0.2722 -16.500436,3.19047 -23.848277,6.28966 -7.067215,-9.63539 -10.36885,-19.80873 -12.57931,-30.13794 z" fill-rule="evenodd" stroke-width="2"/>
  <path inkscape:connector-curvature="0" sodipodi:nodetypes="cc" id="path3199" d="m 71.282759,569.10701 c 2.214678,10.74851 6.083496,20.78686 13.627586,29.35172" fill-rule="evenodd"/>
  <path inkscape:connector-curvature="0" sodipodi:nodetypes="cc" id="path3203" d="m 105.35172,668.16908 c 28.12874,4.60443 56.25747,5.59295 84.38621,-0.26207" fill-rule="evenodd"/>
  <path inkscape:connector-curvature="0" sodipodi:nodetypes="czc" id="path3205" d="m 133.3931,547.61736 c -0.22816,2.3247 1.69237,12.73282 13.88965,13.36551 11.93593,0.61914 14.27527,-11.53603 13.88966,-13.10345" fill-rule="evenodd"/>
  <path inkscape:connector-curvature="0" d="m 128.21194,550.41871 c -0.22816,2.3247 4.57424,15.11165 18.34482,15.46206 14.03248,0.35707 19.77872,-14.68086 19.39311,-16.24828" id="path3207" sodipodi:nodetypes="czc" fill-rule="evenodd"/>
  <path inkscape:connector-curvature="0" sodipodi:nodetypes="cc" id="path3209" d="m 134.52279,552.33459 c 8.53814,2.23324 16.08174,1.75419 25.31809,-0.20185" fill-rule="evenodd"/>
  <path inkscape:connector-curvature="0" sodipodi:nodetypes="cc" id="path3213" d="m 104.16182,558.28077 c 2.57594,9.88539 6.83803,21.48891 -0.26207,35.37931" fill-rule="evenodd"/>
  <path inkscape:connector-curvature="0" d="m 190.37521,558.48262 c -2.57594,9.88539 -6.83803,21.48891 0.26207,35.37931" id="path3215" sodipodi:nodetypes="cc" fill-rule="evenodd"/>
  <path inkscape:connector-curvature="0" d="m 223.28276,568.84494 c -2.21468,10.74851 -6.0835,20.78686 -13.62759,29.35172" id="path3217" sodipodi:nodetypes="cc" fill-rule="evenodd"/>
 </g>
</svg>
