<?xml version="1.0" encoding="UTF-8" standalone="no"?>
<svg xmlns="http://www.w3.org/2000/svg" xmlns:xlink="http://www.w3.org/1999/xlink" xmlns:sodipodi="http://sodipodi.sourceforge.net/DTD/sodipodi-0.dtd" xmlns:inkscape="http://www.inkscape.org/namespaces/inkscape" version="1.0" width="580" height="580">
 <metadata id="metadata2975"/>
 <defs id="defs4">
  <symbol viewBox="244.5 110 489 219.9" id="symbol-university">
   <path id="path4460" d="M79,43l57,119c0,0,21-96,104-96s124,106,124,106l43-133l82-17L0,17L79,43z"/>
   <path id="path4462" d="M94,176l-21,39" stroke-width="20" stroke="#000000" fill="none"/>
   <path id="path4464" d="M300,19c0,10.5-22.6,19-50.5,19S199,29.5,199,19s22.6-19,50.5-19S300,8.5,300,19z"/>
   <path id="path4466" d="M112,216l-16-38L64,88c0,0-9-8-4-35s16-24,16-24" stroke-width="20" stroke="#000000" ill="none"/>
  </symbol>
  <radialGradient gradientUnits="userSpaceOnUse" gradientTransform="scale(0.79354273,1.2601716)" xlink:href="#linearGradient829" id="radialGradient874" cx="180.25" cy="198.42" r="101.58"/>
  <linearGradient id="linearGradient829">
   <stop id="stop830" stop-color="#ffffff" stop-opacity=".342"/>
   <stop offset="1" id="stop831" stop-color="#ffffff" stop-opacity="0"/>
  </linearGradient>
  <radialGradient gradientUnits="userSpaceOnUse" gradientTransform="scale(1.007004,0.99304475)" xlink:href="#linearGradient829" id="radialGradient832" cx="360.85" cy="167.47" r="46.39"/>
  <linearGradient gradientUnits="userSpaceOnUse" gradientTransform="scale(0.74491357,1.3424376)" xlink:href="#linearGradient855" id="linearGradient850" x1="465.29" y1="248.24" x2="463.27" y2="405.77"/>
  <linearGradient id="linearGradient855">
   <stop id="stop856" stop-color="#ffffff" stop-opacity="0"/>
   <stop offset="1" id="stop857" stop-color="#ffa617" stop-opacity=".733"/>
  </linearGradient>
  <linearGradient gradientUnits="userSpaceOnUse" gradientTransform="scale(1.4586159,0.68558144)" xlink:href="#linearGradient855" id="linearGradient854" x1="157.81" y1="120.96" x2="155.41" y2="231.63"/>
 </defs>
 <g id="g1327">
  <path d="M 66.275,1.768 C 24.94,1.768 1.704,23.139 1.704,66.804 L 1.704,516.927 C 1.704,557.771 22.599,579.156 63.896,579.156 L 515.92,579.156 C 557.227,579.156 578.149,558.841 578.149,516.927 L 578.149,66.804 C 578.149,24.203 557.227,1.768 514.628,1.768 C 514.624,1.768 66.133,1.625 66.275,1.768 z " id="path1329" fill="#AC39AC" stroke="#eee" stroke-width="3.408"/>
 </g>
 <g id="g8499">
  <path d="M 472.00214,95.129535 C 472.00214,95.129535 434.20859,223.21789 323.16094,185.0368 C 323.14167,185.11689 336.56042,73.44468 472.00214,95.129535 z" id="path6571" fill="#ffffff"/>
  <path d="M 285.86201,253.57666 C 305.05175,234.59325 331.25716,223.1413 360.3512,223.1413 C 419.05538,223.1413 466.82345,270.703 466.82345,329.5103 C 466.82345,331.67689 466.82345,333.53396 466.72029,335.80372 H 466.51397 C 464.65689,358.81079 457.33177,387.38908 439.999,422.87982 C 439.999,422.87982 410.18268,479.93322 386.24705,506.13857 L 384.08049,508.202 C 372.5254,519.8603 356.2244,527.18541 338.58229,527.18541 C 316.91638,527.18541 297.72663,516.66199 286.06834,500.36102 H 285.75883 C 274.10053,516.66199 254.91079,527.18541 233.24494,527.18541 C 215.3964,527.18541 199.30176,519.96345 187.64347,508.202 L 185.4769,506.13857 C 161.74763,479.93322 131.72495,422.87982 131.72495,422.87982 C 114.39227,387.38908 107.06715,358.60446 105.41641,335.80372 H 104.90056 C 104.59105,333.63715 104.59105,331.78007 104.59105,329.5103 C 104.59105,270.703 152.3591,223.1413 211.26957,223.1413 C 240.26053,223.1413 266.46591,234.59325 285.86201,253.57666" id="path6573" fill="#ffffff"/>
  <path id="path10957" d="M 128.25883,55.38435 C 128.25883,55.38435 150.71409,167.29081 248.14354,143.21279 C 248.15388,143.28245 245.20296,47.199967 128.25883,55.38435 z" fill="#ffffff"/>
  <path id="path10959" d="M 282.75941,231.04959 C 282.75941,231.04959 281.6773,116.14689 269.774,86.172268 C 257.8707,56.197648 309.81236,86.172268 309.81236,86.172268 L 282.75941,231.04959 z" fill="#ffffff" stroke="#ffffff" stroke-width="4.836"/>
 </g>
</svg>
