<?xml version="1.0" encoding="UTF-8" standalone="no"?>
<svg xmlns="http://www.w3.org/2000/svg" xmlns:sodipodi="http://sodipodi.sourceforge.net/DTD/sodipodi-0.dtd" xmlns:inkscape="http://www.inkscape.org/namespaces/inkscape" version="1.0" width="580" height="580">
 <metadata id="metadata2975"/>
 <defs id="defs4">
  <symbol viewBox="244.5 110 489 219.9" id="symbol-university">
   <path id="path4460" d="M79,43l57,119c0,0,21-96,104-96s124,106,124,106l43-133l82-17L0,17L79,43z"/>
   <path id="path4462" d="M94,176l-21,39" stroke-width="20" stroke="#000000" fill="none"/>
   <path id="path4464" d="M300,19c0,10.5-22.6,19-50.5,19S199,29.5,199,19s22.6-19,50.5-19S300,8.5,300,19z"/>
   <path id="path4466" d="M112,216l-16-38L64,88c0,0-9-8-4-35s16-24,16-24" stroke-width="20" stroke="#000000" ill="none"/>
  </symbol>
 </defs>
 <g id="g1327">
  <path d="M 66.275,1.768 C 24.94,1.768 1.704,23.139 1.704,66.804 L 1.704,516.927 C 1.704,557.771 22.599,579.156 63.896,579.156 L 515.92,579.156 C 557.227,579.156 578.149,558.841 578.149,516.927 L 578.149,66.804 C 578.149,24.203 557.227,1.768 514.628,1.768 C 514.624,1.768 66.133,1.625 66.275,1.768 z " id="path1329" fill="#AC39AC" stroke="#eee" stroke-width="3.408"/>
 </g>
 <path d="M 27.242741,-248.97792 L 39.548641,-228.79084 L 152.86371,-184.08575 L 151.87803,-241.06807 L 40.287901,-263.53323 L 27.242741,-248.97792 z" id="path3289" sodipodi:nodetypes="cccccc" fill="#ffffff" fill-rule="evenodd" stroke="#ffffff" stroke-linejoin="round" stroke-linecap="round" stroke-width="18.03"/>
 <g id="g4872" transform="matrix(2.3378763,0,0,2.3378763,-390.83818,-608.90721)">
  <path d="M 102.5,468.78884 C 95.144756,468.78884 89.21875,474.71485 89.21875,482.07009 L 89.21875,528.125 C 89.21875,535.48024 95.144756,541.40625 102.5,541.40625 L 481.21875,541.40625 C 488.57399,541.40625 494.5,535.48024 494.5,528.125 L 494.5,482.07009 C 494.5,474.71485 488.57399,468.78884 481.21875,468.78884 L 102.5,468.78884 z M 111.25,490.96875 L 166.4375,490.96875 C 171.6961,490.96875 175.90625,495.21015 175.90625,500.46875 L 175.90625,511.8125 C 175.90625,517.0711 171.6961,521.3125 166.4375,521.3125 L 111.25,521.3125 C 105.9914,521.3125 101.75,517.0711 101.75,511.8125 L 101.75,500.46875 C 101.75,495.21015 105.9914,490.96875 111.25,490.96875 z M 211.25,490.96875 L 266.4375,490.96875 C 271.6961,490.96875 275.90625,495.21015 275.90625,500.46875 L 275.90625,511.8125 C 275.90625,517.0711 271.6961,521.3125 266.4375,521.3125 L 211.25,521.3125 C 205.9914,521.3125 201.75,517.0711 201.75,511.8125 L 201.75,500.46875 C 201.75,495.21015 205.9914,490.96875 211.25,490.96875 z M 311.25,490.96875 L 366.4375,490.96875 C 371.6961,490.96875 375.90625,495.21015 375.90625,500.46875 L 375.90625,511.8125 C 375.90625,517.0711 371.6961,521.3125 366.4375,521.3125 L 311.25,521.3125 C 305.9914,521.3125 301.75,517.0711 301.75,511.8125 L 301.75,500.46875 C 301.75,495.21015 305.9914,490.96875 311.25,490.96875 z M 411.25,490.96875 L 466.4375,490.96875 C 471.6961,490.96875 475.90625,495.21015 475.90625,500.46875 L 475.90625,511.8125 C 475.90625,517.0711 471.6961,521.3125 466.4375,521.3125 L 411.25,521.3125 C 405.9914,521.3125 401.75,517.0711 401.75,511.8125 L 401.75,500.46875 C 401.75,495.21015 405.9914,490.96875 411.25,490.96875 z" transform="matrix(0.51934657,0,0,0.51934657,141.36813,159.95148)" id="rect4866" sodipodi:nodetypes="ccccccccccccccccccccccccccccccccccccccccccccc" fill="#ffffff"/>
  <rect y="436.78" x="200.55" height="13.02" width="36.889" id="rect4868" fill="#ffffff" rx="6.51"/>
  <rect id="rect4870" width="36.889" height="13.02" x="348.55" y="436.78" fill="#ffffff" rx="6.51"/>
 </g>
 <g id="g4877" transform="matrix(2.3378763,0,0,2.3378763,-390.83818,-760.5313)">
  <path d="M 102.5,319.21459 C 95.144756,319.21459 89.21875,325.1406 89.21875,332.49584 L 89.21875,404.875 C 89.21875,412.23024 95.144756,418.15625 102.5,418.15625 L 481.21875,418.15625 C 488.57399,418.15625 494.5,412.23024 494.5,404.875 L 494.5,332.49584 C 494.5,325.1406 488.57399,319.21459 481.21875,319.21459 L 102.5,319.21459 z M 434.1875,334.5 C 454.95573,334.5 471.78125,351.32552 471.78125,372.09375 471.78125,392.86198 454.95573,409.6875 434.1875,409.6875 413.41927,409.6875 396.5625,392.86198 396.5625,372.09375 396.5625,351.32552 413.41927,334.5 434.1875,334.5 z M 115.96875,338.5 171.15625,338.5 C 176.41485,338.5 180.65625,342.7414 180.65625,348 L 180.65625,359.34375 C 180.65625,364.60235 176.41485,368.84375 171.15625,368.84375 L 115.96875,368.84375 C 110.71015,368.84375 106.5,364.60235 106.5,359.34375 L 106.5,348 C 106.5,342.7414 110.71015,338.5 115.96875,338.5 z" transform="matrix(0.51934657,0,0,0.51934657,141.36813,223.95148)" id="rect4879" sodipodi:nodetypes="ccccccccccssscccccccccc" fill="#ffffff"/>
  <rect id="rect4881" width="36.889" height="13.02" x="200.55" y="436.78" fill="#ffffff" rx="6.51"/>
  <rect y="436.78" x="348.55" height="13.02" width="36.889" id="rect4883" fill="#ffffff" rx="6.51"/>
 </g>
</svg>
