<?xml version="1.0" encoding="UTF-8" standalone="no"?>
<svg xmlns="http://www.w3.org/2000/svg" xmlns:xlink="http://www.w3.org/1999/xlink" xmlns:sodipodi="http://sodipodi.sourceforge.net/DTD/sodipodi-0.dtd" xmlns:inkscape="http://www.inkscape.org/namespaces/inkscape" version="1.0" width="580" height="580">
 <metadata id="metadata2975"/>
 <defs id="defs4">
  <symbol viewBox="244.5 110 489 219.9" id="symbol-university">
   <path id="path4460" d="M79,43l57,119c0,0,21-96,104-96s124,106,124,106l43-133l82-17L0,17L79,43z"/>
   <path id="path4462" d="M94,176l-21,39" stroke-width="20" stroke="#000000" fill="none"/>
   <path id="path4464" d="M300,19c0,10.5-22.6,19-50.5,19S199,29.5,199,19s22.6-19,50.5-19S300,8.5,300,19z"/>
   <path id="path4466" d="M112,216l-16-38L64,88c0,0-9-8-4-35s16-24,16-24" stroke-width="20" stroke="#000000" ill="none"/>
  </symbol>
  <radialGradient gradientUnits="userSpaceOnUse" gradientTransform="scale(0.79354273,1.2601716)" xlink:href="#linearGradient829" id="radialGradient874" cx="180.25" cy="198.42" r="101.58"/>
  <linearGradient id="linearGradient829">
   <stop id="stop830" stop-color="#ffffff" stop-opacity=".342"/>
   <stop offset="1" id="stop831" stop-color="#ffffff" stop-opacity="0"/>
  </linearGradient>
  <radialGradient gradientUnits="userSpaceOnUse" gradientTransform="scale(1.007004,0.99304475)" xlink:href="#linearGradient829" id="radialGradient832" cx="360.85" cy="167.47" r="46.39"/>
  <linearGradient gradientUnits="userSpaceOnUse" gradientTransform="scale(0.74491357,1.3424376)" xlink:href="#linearGradient855" id="linearGradient850" x1="465.29" y1="248.24" x2="463.27" y2="405.77"/>
  <linearGradient id="linearGradient855">
   <stop id="stop856" stop-color="#ffffff" stop-opacity="0"/>
   <stop offset="1" id="stop857" stop-color="#ffa617" stop-opacity=".733"/>
  </linearGradient>
  <linearGradient gradientUnits="userSpaceOnUse" gradientTransform="scale(1.4586159,0.68558144)" xlink:href="#linearGradient855" id="linearGradient854" x1="157.81" y1="120.96" x2="155.41" y2="231.63"/>
 </defs>
 <g id="g1327">
  <path d="M 66.275,1.768 C 24.94,1.768 1.704,23.139 1.704,66.804 L 1.704,516.927 C 1.704,557.771 22.599,579.156 63.896,579.156 L 515.92,579.156 C 557.227,579.156 578.149,558.841 578.149,516.927 L 578.149,66.804 C 578.149,24.203 557.227,1.768 514.628,1.768 C 514.624,1.768 66.133,1.625 66.275,1.768 z " id="path1329" fill="#AC39AC" stroke="#eee" stroke-width="3.408"/>
 </g>
 <g id="g10860" transform="matrix(1.5423079,0,0,1.5423079,-1078.6207,-115.49981)">
  <path d="M 906.49798,124.68388 C 902.04926,107.53608 886.39785,94.837006 867.91544,94.837006 C 845.83361,94.837006 827.99828,112.59145 827.99828,134.63283 C 827.99828,138.35358 828.44316,141.75079 829.37334,145.06711 H 845.38874 C 846.56158,147.81722 847.85576,149.3945 847.85576,149.3945 C 852.66846,156.35068 860.7166,160.83984 869.81626,160.83984 C 884.57792,160.83984 896.58947,148.8283 896.58947,134.06663 C 896.58947,130.66943 897.43877,127.59577 896.02327,124.68388 H 906.49798 z" id="path6039" fill="#ffffff"/>
  <path d="M 905.40602,362.69043 C 901.19996,366.93694 895.41662,370.21281 888.90531,370.21281 L 888.86487,283.46276 L 948.88216,266.23408 L 963.92692,295.83829 L 905.40602,362.69043 z" id="path6041" fill="#ffffff"/>
  <path d="M 855.01415,164.27749 C 851.05075,159.86921 845.34829,157.07865 838.91787,157.07865 C 832.08302,157.07865 825.97614,160.2332 822.05318,165.20768 L 774.41142,237.96448 C 772.47016,241.19992 771.3782,245.00155 771.3782,249.0054 C 771.3782,256.52778 775.17984,263.07953 780.92273,266.92161 L 844.82254,302.39005 V 362.73087 C 844.82254,371.26433 851.73828,378.22051 860.27173,378.22051 C 868.76474,378.22051 875.72092,371.26433 875.72092,362.73087 V 287.38572 C 875.72092,287.38572 877.74307,275.37418 864.11381,268.82243 L 824.27754,247.95388 L 853.31555,203.62845 L 868.7243,227.81331 C 871.79796,232.7069 875.96358,234.60772 879.76522,234.52683 L 919.31839,234.36506 C 935.41467,234.36506 935.41467,213.41563 919.31839,213.49652 H 887.24715 L 855.01415,164.27749 z" id="path6043" fill="#ffffff"/>
  <path d="M 1030.132,263.16042 C 1030.7791,263.8075 1031.1026,264.57592 1031.1026,265.62744 C 1031.1026,267.52825 1029.5253,269.10553 1027.6245,269.10553 C 1027.0988,269.10553 1026.7752,269.10553 1026.3708,268.94375 C 1019.5359,266.03187 1015.2085,264.21193 1007.2413,264.21193 C 1001.9837,264.21193 995.4724,266.03187 987.95001,272.0983 L 980.99383,258.34771 C 989.68906,255.75936 996.80701,253.45412 1004.2485,253.45412 C 1016.1387,253.45412 1022.3669,255.92114 1030.132,263.16042 z" id="path6045" fill="#ffffff"/>
  <path d="M 764.42202,273.75646 L 831.47637,310.72129 L 831.63815,325.56384 L 755.03927,283.38188 C 749.49859,280.55087 742.05709,278.89271 736.75907,278.89271 C 728.8727,278.89271 724.46442,280.71264 717.67001,283.62453 C 717.22514,283.7863 716.86115,283.7863 716.41628,283.7863 C 714.51546,283.7863 712.89775,282.20903 712.89775,280.30821 C 712.89775,279.29714 713.30218,278.48828 713.90882,277.8412 C 721.67386,270.56147 729.60067,268.1349 741.45045,268.1349 C 747.55733,268.1349 754.91794,268.86287 764.42202,273.75646 z" id="path6047" fill="#ffffff"/>
  <path d="M 770.65023,409.76598 C 792.4894,409.76598 810.2034,392.05199 810.2034,370.17237 C 810.2034,348.29275 792.4894,330.57876 770.65023,330.57876 C 748.81106,330.57876 731.09706,348.29275 731.09706,370.17237 C 731.09706,392.05199 748.81106,409.76598 770.65023,409.76598 z M 713.58528,370.21281 C 713.58528,338.70778 739.1452,313.10742 770.65023,313.10742 C 802.1957,313.10742 827.75563,338.70778 827.75563,370.21281 C 827.75563,401.71784 802.1957,427.31821 770.65023,427.31821 C 739.1452,427.31821 713.58528,401.71784 713.58528,370.21281 z" id="path6049" fill="#ffffff"/>
  <path d="M 1006.6751,409.76598 C 1028.5143,409.76598 1046.2687,392.05199 1046.2687,370.17237 C 1046.2687,348.29275 1028.5547,330.57876 1006.6751,330.57876 C 984.79547,330.57876 967.12191,348.29275 967.12191,370.17237 C 967.12191,392.05199 984.83591,409.76598 1006.6751,409.76598 z M 949.61013,370.21281 C 949.61013,338.70778 975.12961,313.10742 1006.6751,313.10742 C 1038.1801,313.10742 1063.74,338.70778 1063.74,370.21281 C 1063.74,401.71784 1038.1801,427.31821 1006.6751,427.31821 C 975.12961,427.31821 949.61013,401.71784 949.61013,370.21281 z" id="path6051" fill="#ffffff"/>
  <path d="M 994.05689,304.93795 L 966.31305,249.49071 C 962.67319,242.85807 955.59568,238.28803 947.46666,238.28803 H 929.34823 C 925.8297,238.28803 922.95825,241.19992 922.95825,244.75889 C 922.95825,248.31787 925.8297,251.14887 929.34823,251.14887 L 947.46666,251.06799 C 950.49987,251.06799 953.89708,253.13058 955.19125,256.12335 L 981.31738,309.34623 L 994.05689,304.93795 z" id="path6053" fill="#ffffff"/>
 </g>
</svg>
